%TF.GenerationSoftware,KiCad,Pcbnew,8.0.5*%
%TF.CreationDate,2024-10-17T13:51:03-05:00*%
%TF.ProjectId,Block-JAN6418,426c6f63-6b2d-44a4-914e-363431382e6b,rev?*%
%TF.SameCoordinates,Original*%
%TF.FileFunction,Legend,Top*%
%TF.FilePolarity,Positive*%
%FSLAX46Y46*%
G04 Gerber Fmt 4.6, Leading zero omitted, Abs format (unit mm)*
G04 Created by KiCad (PCBNEW 8.0.5) date 2024-10-17 13:51:03*
%MOMM*%
%LPD*%
G01*
G04 APERTURE LIST*
%ADD10C,0.150000*%
%ADD11C,0.100000*%
%ADD12C,0.120000*%
G04 APERTURE END LIST*
D10*
X87241541Y-39203152D02*
X87479636Y-39869819D01*
X87479636Y-39869819D02*
X87717731Y-39203152D01*
X88289160Y-38869819D02*
X88384398Y-38869819D01*
X88384398Y-38869819D02*
X88479636Y-38917438D01*
X88479636Y-38917438D02*
X88527255Y-38965057D01*
X88527255Y-38965057D02*
X88574874Y-39060295D01*
X88574874Y-39060295D02*
X88622493Y-39250771D01*
X88622493Y-39250771D02*
X88622493Y-39488866D01*
X88622493Y-39488866D02*
X88574874Y-39679342D01*
X88574874Y-39679342D02*
X88527255Y-39774580D01*
X88527255Y-39774580D02*
X88479636Y-39822200D01*
X88479636Y-39822200D02*
X88384398Y-39869819D01*
X88384398Y-39869819D02*
X88289160Y-39869819D01*
X88289160Y-39869819D02*
X88193922Y-39822200D01*
X88193922Y-39822200D02*
X88146303Y-39774580D01*
X88146303Y-39774580D02*
X88098684Y-39679342D01*
X88098684Y-39679342D02*
X88051065Y-39488866D01*
X88051065Y-39488866D02*
X88051065Y-39250771D01*
X88051065Y-39250771D02*
X88098684Y-39060295D01*
X88098684Y-39060295D02*
X88146303Y-38965057D01*
X88146303Y-38965057D02*
X88193922Y-38917438D01*
X88193922Y-38917438D02*
X88289160Y-38869819D01*
X89051065Y-39774580D02*
X89098684Y-39822200D01*
X89098684Y-39822200D02*
X89051065Y-39869819D01*
X89051065Y-39869819D02*
X89003446Y-39822200D01*
X89003446Y-39822200D02*
X89051065Y-39774580D01*
X89051065Y-39774580D02*
X89051065Y-39869819D01*
X90051064Y-39869819D02*
X89479636Y-39869819D01*
X89765350Y-39869819D02*
X89765350Y-38869819D01*
X89765350Y-38869819D02*
X89670112Y-39012676D01*
X89670112Y-39012676D02*
X89574874Y-39107914D01*
X89574874Y-39107914D02*
X89479636Y-39155533D01*
D11*
X75400074Y-77292419D02*
X74923884Y-77292419D01*
X74923884Y-77292419D02*
X74876265Y-77768609D01*
X74876265Y-77768609D02*
X74923884Y-77720990D01*
X74923884Y-77720990D02*
X75019122Y-77673371D01*
X75019122Y-77673371D02*
X75257217Y-77673371D01*
X75257217Y-77673371D02*
X75352455Y-77720990D01*
X75352455Y-77720990D02*
X75400074Y-77768609D01*
X75400074Y-77768609D02*
X75447693Y-77863847D01*
X75447693Y-77863847D02*
X75447693Y-78101942D01*
X75447693Y-78101942D02*
X75400074Y-78197180D01*
X75400074Y-78197180D02*
X75352455Y-78244800D01*
X75352455Y-78244800D02*
X75257217Y-78292419D01*
X75257217Y-78292419D02*
X75019122Y-78292419D01*
X75019122Y-78292419D02*
X74923884Y-78244800D01*
X74923884Y-78244800D02*
X74876265Y-78197180D01*
X86447693Y-78292419D02*
X85876265Y-78292419D01*
X86161979Y-78292419D02*
X86161979Y-77292419D01*
X86161979Y-77292419D02*
X86066741Y-77435276D01*
X86066741Y-77435276D02*
X85971503Y-77530514D01*
X85971503Y-77530514D02*
X85876265Y-77578133D01*
X77905714Y-75377419D02*
X77905714Y-76091704D01*
X77905714Y-76091704D02*
X77858095Y-76234561D01*
X77858095Y-76234561D02*
X77762857Y-76329800D01*
X77762857Y-76329800D02*
X77620000Y-76377419D01*
X77620000Y-76377419D02*
X77524762Y-76377419D01*
X78334286Y-76091704D02*
X78810476Y-76091704D01*
X78239048Y-76377419D02*
X78572381Y-75377419D01*
X78572381Y-75377419D02*
X78905714Y-76377419D01*
X79239048Y-76377419D02*
X79239048Y-75377419D01*
X79239048Y-75377419D02*
X79810476Y-76377419D01*
X79810476Y-76377419D02*
X79810476Y-75377419D01*
X80715238Y-75377419D02*
X80524762Y-75377419D01*
X80524762Y-75377419D02*
X80429524Y-75425038D01*
X80429524Y-75425038D02*
X80381905Y-75472657D01*
X80381905Y-75472657D02*
X80286667Y-75615514D01*
X80286667Y-75615514D02*
X80239048Y-75805990D01*
X80239048Y-75805990D02*
X80239048Y-76186942D01*
X80239048Y-76186942D02*
X80286667Y-76282180D01*
X80286667Y-76282180D02*
X80334286Y-76329800D01*
X80334286Y-76329800D02*
X80429524Y-76377419D01*
X80429524Y-76377419D02*
X80620000Y-76377419D01*
X80620000Y-76377419D02*
X80715238Y-76329800D01*
X80715238Y-76329800D02*
X80762857Y-76282180D01*
X80762857Y-76282180D02*
X80810476Y-76186942D01*
X80810476Y-76186942D02*
X80810476Y-75948847D01*
X80810476Y-75948847D02*
X80762857Y-75853609D01*
X80762857Y-75853609D02*
X80715238Y-75805990D01*
X80715238Y-75805990D02*
X80620000Y-75758371D01*
X80620000Y-75758371D02*
X80429524Y-75758371D01*
X80429524Y-75758371D02*
X80334286Y-75805990D01*
X80334286Y-75805990D02*
X80286667Y-75853609D01*
X80286667Y-75853609D02*
X80239048Y-75948847D01*
X81667619Y-75710752D02*
X81667619Y-76377419D01*
X81429524Y-75329800D02*
X81191429Y-76044085D01*
X81191429Y-76044085D02*
X81810476Y-76044085D01*
X82715238Y-76377419D02*
X82143810Y-76377419D01*
X82429524Y-76377419D02*
X82429524Y-75377419D01*
X82429524Y-75377419D02*
X82334286Y-75520276D01*
X82334286Y-75520276D02*
X82239048Y-75615514D01*
X82239048Y-75615514D02*
X82143810Y-75663133D01*
X83286667Y-75805990D02*
X83191429Y-75758371D01*
X83191429Y-75758371D02*
X83143810Y-75710752D01*
X83143810Y-75710752D02*
X83096191Y-75615514D01*
X83096191Y-75615514D02*
X83096191Y-75567895D01*
X83096191Y-75567895D02*
X83143810Y-75472657D01*
X83143810Y-75472657D02*
X83191429Y-75425038D01*
X83191429Y-75425038D02*
X83286667Y-75377419D01*
X83286667Y-75377419D02*
X83477143Y-75377419D01*
X83477143Y-75377419D02*
X83572381Y-75425038D01*
X83572381Y-75425038D02*
X83620000Y-75472657D01*
X83620000Y-75472657D02*
X83667619Y-75567895D01*
X83667619Y-75567895D02*
X83667619Y-75615514D01*
X83667619Y-75615514D02*
X83620000Y-75710752D01*
X83620000Y-75710752D02*
X83572381Y-75758371D01*
X83572381Y-75758371D02*
X83477143Y-75805990D01*
X83477143Y-75805990D02*
X83286667Y-75805990D01*
X83286667Y-75805990D02*
X83191429Y-75853609D01*
X83191429Y-75853609D02*
X83143810Y-75901228D01*
X83143810Y-75901228D02*
X83096191Y-75996466D01*
X83096191Y-75996466D02*
X83096191Y-76186942D01*
X83096191Y-76186942D02*
X83143810Y-76282180D01*
X83143810Y-76282180D02*
X83191429Y-76329800D01*
X83191429Y-76329800D02*
X83286667Y-76377419D01*
X83286667Y-76377419D02*
X83477143Y-76377419D01*
X83477143Y-76377419D02*
X83572381Y-76329800D01*
X83572381Y-76329800D02*
X83620000Y-76282180D01*
X83620000Y-76282180D02*
X83667619Y-76186942D01*
X83667619Y-76186942D02*
X83667619Y-75996466D01*
X83667619Y-75996466D02*
X83620000Y-75901228D01*
X83620000Y-75901228D02*
X83572381Y-75853609D01*
X83572381Y-75853609D02*
X83477143Y-75805990D01*
X73580000Y-43440000D02*
X87080000Y-43440000D01*
X87080000Y-83940000D01*
X73580000Y-83940000D01*
X73580000Y-43440000D01*
D10*
X59670112Y-93626121D02*
X59336779Y-93626121D01*
X59336779Y-94149931D02*
X59336779Y-93149931D01*
X59336779Y-93149931D02*
X59812969Y-93149931D01*
X60336779Y-94149931D02*
X60241541Y-94102312D01*
X60241541Y-94102312D02*
X60193922Y-94054692D01*
X60193922Y-94054692D02*
X60146303Y-93959454D01*
X60146303Y-93959454D02*
X60146303Y-93673740D01*
X60146303Y-93673740D02*
X60193922Y-93578502D01*
X60193922Y-93578502D02*
X60241541Y-93530883D01*
X60241541Y-93530883D02*
X60336779Y-93483264D01*
X60336779Y-93483264D02*
X60479636Y-93483264D01*
X60479636Y-93483264D02*
X60574874Y-93530883D01*
X60574874Y-93530883D02*
X60622493Y-93578502D01*
X60622493Y-93578502D02*
X60670112Y-93673740D01*
X60670112Y-93673740D02*
X60670112Y-93959454D01*
X60670112Y-93959454D02*
X60622493Y-94054692D01*
X60622493Y-94054692D02*
X60574874Y-94102312D01*
X60574874Y-94102312D02*
X60479636Y-94149931D01*
X60479636Y-94149931D02*
X60336779Y-94149931D01*
X61098684Y-94149931D02*
X61098684Y-93483264D01*
X61098684Y-93673740D02*
X61146303Y-93578502D01*
X61146303Y-93578502D02*
X61193922Y-93530883D01*
X61193922Y-93530883D02*
X61289160Y-93483264D01*
X61289160Y-93483264D02*
X61384398Y-93483264D01*
X62336780Y-93483264D02*
X62717732Y-93483264D01*
X62479637Y-93149931D02*
X62479637Y-94007073D01*
X62479637Y-94007073D02*
X62527256Y-94102312D01*
X62527256Y-94102312D02*
X62622494Y-94149931D01*
X62622494Y-94149931D02*
X62717732Y-94149931D01*
X63051066Y-94149931D02*
X63051066Y-93483264D01*
X63051066Y-93673740D02*
X63098685Y-93578502D01*
X63098685Y-93578502D02*
X63146304Y-93530883D01*
X63146304Y-93530883D02*
X63241542Y-93483264D01*
X63241542Y-93483264D02*
X63336780Y-93483264D01*
X63670114Y-94149931D02*
X63670114Y-93483264D01*
X63670114Y-93149931D02*
X63622495Y-93197550D01*
X63622495Y-93197550D02*
X63670114Y-93245169D01*
X63670114Y-93245169D02*
X63717733Y-93197550D01*
X63717733Y-93197550D02*
X63670114Y-93149931D01*
X63670114Y-93149931D02*
X63670114Y-93245169D01*
X64289161Y-94149931D02*
X64193923Y-94102312D01*
X64193923Y-94102312D02*
X64146304Y-94054692D01*
X64146304Y-94054692D02*
X64098685Y-93959454D01*
X64098685Y-93959454D02*
X64098685Y-93673740D01*
X64098685Y-93673740D02*
X64146304Y-93578502D01*
X64146304Y-93578502D02*
X64193923Y-93530883D01*
X64193923Y-93530883D02*
X64289161Y-93483264D01*
X64289161Y-93483264D02*
X64432018Y-93483264D01*
X64432018Y-93483264D02*
X64527256Y-93530883D01*
X64527256Y-93530883D02*
X64574875Y-93578502D01*
X64574875Y-93578502D02*
X64622494Y-93673740D01*
X64622494Y-93673740D02*
X64622494Y-93959454D01*
X64622494Y-93959454D02*
X64574875Y-94054692D01*
X64574875Y-94054692D02*
X64527256Y-94102312D01*
X64527256Y-94102312D02*
X64432018Y-94149931D01*
X64432018Y-94149931D02*
X64289161Y-94149931D01*
X65479637Y-94149931D02*
X65479637Y-93149931D01*
X65479637Y-94102312D02*
X65384399Y-94149931D01*
X65384399Y-94149931D02*
X65193923Y-94149931D01*
X65193923Y-94149931D02*
X65098685Y-94102312D01*
X65098685Y-94102312D02*
X65051066Y-94054692D01*
X65051066Y-94054692D02*
X65003447Y-93959454D01*
X65003447Y-93959454D02*
X65003447Y-93673740D01*
X65003447Y-93673740D02*
X65051066Y-93578502D01*
X65051066Y-93578502D02*
X65098685Y-93530883D01*
X65098685Y-93530883D02*
X65193923Y-93483264D01*
X65193923Y-93483264D02*
X65384399Y-93483264D01*
X65384399Y-93483264D02*
X65479637Y-93530883D01*
X66336780Y-94102312D02*
X66241542Y-94149931D01*
X66241542Y-94149931D02*
X66051066Y-94149931D01*
X66051066Y-94149931D02*
X65955828Y-94102312D01*
X65955828Y-94102312D02*
X65908209Y-94007073D01*
X65908209Y-94007073D02*
X65908209Y-93626121D01*
X65908209Y-93626121D02*
X65955828Y-93530883D01*
X65955828Y-93530883D02*
X66051066Y-93483264D01*
X66051066Y-93483264D02*
X66241542Y-93483264D01*
X66241542Y-93483264D02*
X66336780Y-93530883D01*
X66336780Y-93530883D02*
X66384399Y-93626121D01*
X66384399Y-93626121D02*
X66384399Y-93721359D01*
X66384399Y-93721359D02*
X65908209Y-93816597D01*
X67574876Y-94149931D02*
X67574876Y-93483264D01*
X67574876Y-93578502D02*
X67622495Y-93530883D01*
X67622495Y-93530883D02*
X67717733Y-93483264D01*
X67717733Y-93483264D02*
X67860590Y-93483264D01*
X67860590Y-93483264D02*
X67955828Y-93530883D01*
X67955828Y-93530883D02*
X68003447Y-93626121D01*
X68003447Y-93626121D02*
X68003447Y-94149931D01*
X68003447Y-93626121D02*
X68051066Y-93530883D01*
X68051066Y-93530883D02*
X68146304Y-93483264D01*
X68146304Y-93483264D02*
X68289161Y-93483264D01*
X68289161Y-93483264D02*
X68384400Y-93530883D01*
X68384400Y-93530883D02*
X68432019Y-93626121D01*
X68432019Y-93626121D02*
X68432019Y-94149931D01*
X69051066Y-94149931D02*
X68955828Y-94102312D01*
X68955828Y-94102312D02*
X68908209Y-94054692D01*
X68908209Y-94054692D02*
X68860590Y-93959454D01*
X68860590Y-93959454D02*
X68860590Y-93673740D01*
X68860590Y-93673740D02*
X68908209Y-93578502D01*
X68908209Y-93578502D02*
X68955828Y-93530883D01*
X68955828Y-93530883D02*
X69051066Y-93483264D01*
X69051066Y-93483264D02*
X69193923Y-93483264D01*
X69193923Y-93483264D02*
X69289161Y-93530883D01*
X69289161Y-93530883D02*
X69336780Y-93578502D01*
X69336780Y-93578502D02*
X69384399Y-93673740D01*
X69384399Y-93673740D02*
X69384399Y-93959454D01*
X69384399Y-93959454D02*
X69336780Y-94054692D01*
X69336780Y-94054692D02*
X69289161Y-94102312D01*
X69289161Y-94102312D02*
X69193923Y-94149931D01*
X69193923Y-94149931D02*
X69051066Y-94149931D01*
X70241542Y-94149931D02*
X70241542Y-93149931D01*
X70241542Y-94102312D02*
X70146304Y-94149931D01*
X70146304Y-94149931D02*
X69955828Y-94149931D01*
X69955828Y-94149931D02*
X69860590Y-94102312D01*
X69860590Y-94102312D02*
X69812971Y-94054692D01*
X69812971Y-94054692D02*
X69765352Y-93959454D01*
X69765352Y-93959454D02*
X69765352Y-93673740D01*
X69765352Y-93673740D02*
X69812971Y-93578502D01*
X69812971Y-93578502D02*
X69860590Y-93530883D01*
X69860590Y-93530883D02*
X69955828Y-93483264D01*
X69955828Y-93483264D02*
X70146304Y-93483264D01*
X70146304Y-93483264D02*
X70241542Y-93530883D01*
X71098685Y-94102312D02*
X71003447Y-94149931D01*
X71003447Y-94149931D02*
X70812971Y-94149931D01*
X70812971Y-94149931D02*
X70717733Y-94102312D01*
X70717733Y-94102312D02*
X70670114Y-94007073D01*
X70670114Y-94007073D02*
X70670114Y-93626121D01*
X70670114Y-93626121D02*
X70717733Y-93530883D01*
X70717733Y-93530883D02*
X70812971Y-93483264D01*
X70812971Y-93483264D02*
X71003447Y-93483264D01*
X71003447Y-93483264D02*
X71098685Y-93530883D01*
X71098685Y-93530883D02*
X71146304Y-93626121D01*
X71146304Y-93626121D02*
X71146304Y-93721359D01*
X71146304Y-93721359D02*
X70670114Y-93816597D01*
X71622495Y-94102312D02*
X71622495Y-94149931D01*
X71622495Y-94149931D02*
X71574876Y-94245169D01*
X71574876Y-94245169D02*
X71527257Y-94292788D01*
X72812971Y-94149931D02*
X72812971Y-93483264D01*
X72812971Y-93149931D02*
X72765352Y-93197550D01*
X72765352Y-93197550D02*
X72812971Y-93245169D01*
X72812971Y-93245169D02*
X72860590Y-93197550D01*
X72860590Y-93197550D02*
X72812971Y-93149931D01*
X72812971Y-93149931D02*
X72812971Y-93245169D01*
X73289161Y-93483264D02*
X73289161Y-94149931D01*
X73289161Y-93578502D02*
X73336780Y-93530883D01*
X73336780Y-93530883D02*
X73432018Y-93483264D01*
X73432018Y-93483264D02*
X73574875Y-93483264D01*
X73574875Y-93483264D02*
X73670113Y-93530883D01*
X73670113Y-93530883D02*
X73717732Y-93626121D01*
X73717732Y-93626121D02*
X73717732Y-94149931D01*
X74146304Y-94102312D02*
X74241542Y-94149931D01*
X74241542Y-94149931D02*
X74432018Y-94149931D01*
X74432018Y-94149931D02*
X74527256Y-94102312D01*
X74527256Y-94102312D02*
X74574875Y-94007073D01*
X74574875Y-94007073D02*
X74574875Y-93959454D01*
X74574875Y-93959454D02*
X74527256Y-93864216D01*
X74527256Y-93864216D02*
X74432018Y-93816597D01*
X74432018Y-93816597D02*
X74289161Y-93816597D01*
X74289161Y-93816597D02*
X74193923Y-93768978D01*
X74193923Y-93768978D02*
X74146304Y-93673740D01*
X74146304Y-93673740D02*
X74146304Y-93626121D01*
X74146304Y-93626121D02*
X74193923Y-93530883D01*
X74193923Y-93530883D02*
X74289161Y-93483264D01*
X74289161Y-93483264D02*
X74432018Y-93483264D01*
X74432018Y-93483264D02*
X74527256Y-93530883D01*
X74860590Y-93483264D02*
X75241542Y-93483264D01*
X75003447Y-93149931D02*
X75003447Y-94007073D01*
X75003447Y-94007073D02*
X75051066Y-94102312D01*
X75051066Y-94102312D02*
X75146304Y-94149931D01*
X75146304Y-94149931D02*
X75241542Y-94149931D01*
X76003447Y-94149931D02*
X76003447Y-93626121D01*
X76003447Y-93626121D02*
X75955828Y-93530883D01*
X75955828Y-93530883D02*
X75860590Y-93483264D01*
X75860590Y-93483264D02*
X75670114Y-93483264D01*
X75670114Y-93483264D02*
X75574876Y-93530883D01*
X76003447Y-94102312D02*
X75908209Y-94149931D01*
X75908209Y-94149931D02*
X75670114Y-94149931D01*
X75670114Y-94149931D02*
X75574876Y-94102312D01*
X75574876Y-94102312D02*
X75527257Y-94007073D01*
X75527257Y-94007073D02*
X75527257Y-93911835D01*
X75527257Y-93911835D02*
X75574876Y-93816597D01*
X75574876Y-93816597D02*
X75670114Y-93768978D01*
X75670114Y-93768978D02*
X75908209Y-93768978D01*
X75908209Y-93768978D02*
X76003447Y-93721359D01*
X76622495Y-94149931D02*
X76527257Y-94102312D01*
X76527257Y-94102312D02*
X76479638Y-94007073D01*
X76479638Y-94007073D02*
X76479638Y-93149931D01*
X77146305Y-94149931D02*
X77051067Y-94102312D01*
X77051067Y-94102312D02*
X77003448Y-94007073D01*
X77003448Y-94007073D02*
X77003448Y-93149931D01*
X78717734Y-94149931D02*
X78717734Y-93626121D01*
X78717734Y-93626121D02*
X78670115Y-93530883D01*
X78670115Y-93530883D02*
X78574877Y-93483264D01*
X78574877Y-93483264D02*
X78384401Y-93483264D01*
X78384401Y-93483264D02*
X78289163Y-93530883D01*
X78717734Y-94102312D02*
X78622496Y-94149931D01*
X78622496Y-94149931D02*
X78384401Y-94149931D01*
X78384401Y-94149931D02*
X78289163Y-94102312D01*
X78289163Y-94102312D02*
X78241544Y-94007073D01*
X78241544Y-94007073D02*
X78241544Y-93911835D01*
X78241544Y-93911835D02*
X78289163Y-93816597D01*
X78289163Y-93816597D02*
X78384401Y-93768978D01*
X78384401Y-93768978D02*
X78622496Y-93768978D01*
X78622496Y-93768978D02*
X78717734Y-93721359D01*
X79955830Y-93483264D02*
X79955830Y-94340407D01*
X79955830Y-94340407D02*
X79908211Y-94435645D01*
X79908211Y-94435645D02*
X79812973Y-94483264D01*
X79812973Y-94483264D02*
X79765354Y-94483264D01*
X79955830Y-93149931D02*
X79908211Y-93197550D01*
X79908211Y-93197550D02*
X79955830Y-93245169D01*
X79955830Y-93245169D02*
X80003449Y-93197550D01*
X80003449Y-93197550D02*
X79955830Y-93149931D01*
X79955830Y-93149931D02*
X79955830Y-93245169D01*
X80860591Y-93483264D02*
X80860591Y-94149931D01*
X80432020Y-93483264D02*
X80432020Y-94007073D01*
X80432020Y-94007073D02*
X80479639Y-94102312D01*
X80479639Y-94102312D02*
X80574877Y-94149931D01*
X80574877Y-94149931D02*
X80717734Y-94149931D01*
X80717734Y-94149931D02*
X80812972Y-94102312D01*
X80812972Y-94102312D02*
X80860591Y-94054692D01*
X81336782Y-94149931D02*
X81336782Y-93483264D01*
X81336782Y-93578502D02*
X81384401Y-93530883D01*
X81384401Y-93530883D02*
X81479639Y-93483264D01*
X81479639Y-93483264D02*
X81622496Y-93483264D01*
X81622496Y-93483264D02*
X81717734Y-93530883D01*
X81717734Y-93530883D02*
X81765353Y-93626121D01*
X81765353Y-93626121D02*
X81765353Y-94149931D01*
X81765353Y-93626121D02*
X81812972Y-93530883D01*
X81812972Y-93530883D02*
X81908210Y-93483264D01*
X81908210Y-93483264D02*
X82051067Y-93483264D01*
X82051067Y-93483264D02*
X82146306Y-93530883D01*
X82146306Y-93530883D02*
X82193925Y-93626121D01*
X82193925Y-93626121D02*
X82193925Y-94149931D01*
X82670115Y-93483264D02*
X82670115Y-94483264D01*
X82670115Y-93530883D02*
X82765353Y-93483264D01*
X82765353Y-93483264D02*
X82955829Y-93483264D01*
X82955829Y-93483264D02*
X83051067Y-93530883D01*
X83051067Y-93530883D02*
X83098686Y-93578502D01*
X83098686Y-93578502D02*
X83146305Y-93673740D01*
X83146305Y-93673740D02*
X83146305Y-93959454D01*
X83146305Y-93959454D02*
X83098686Y-94054692D01*
X83098686Y-94054692D02*
X83051067Y-94102312D01*
X83051067Y-94102312D02*
X82955829Y-94149931D01*
X82955829Y-94149931D02*
X82765353Y-94149931D01*
X82765353Y-94149931D02*
X82670115Y-94102312D01*
X83955829Y-94102312D02*
X83860591Y-94149931D01*
X83860591Y-94149931D02*
X83670115Y-94149931D01*
X83670115Y-94149931D02*
X83574877Y-94102312D01*
X83574877Y-94102312D02*
X83527258Y-94007073D01*
X83527258Y-94007073D02*
X83527258Y-93626121D01*
X83527258Y-93626121D02*
X83574877Y-93530883D01*
X83574877Y-93530883D02*
X83670115Y-93483264D01*
X83670115Y-93483264D02*
X83860591Y-93483264D01*
X83860591Y-93483264D02*
X83955829Y-93530883D01*
X83955829Y-93530883D02*
X84003448Y-93626121D01*
X84003448Y-93626121D02*
X84003448Y-93721359D01*
X84003448Y-93721359D02*
X83527258Y-93816597D01*
X84432020Y-94149931D02*
X84432020Y-93483264D01*
X84432020Y-93673740D02*
X84479639Y-93578502D01*
X84479639Y-93578502D02*
X84527258Y-93530883D01*
X84527258Y-93530883D02*
X84622496Y-93483264D01*
X84622496Y-93483264D02*
X84717734Y-93483264D01*
X85812973Y-94149931D02*
X85812973Y-93483264D01*
X85812973Y-93149931D02*
X85765354Y-93197550D01*
X85765354Y-93197550D02*
X85812973Y-93245169D01*
X85812973Y-93245169D02*
X85860592Y-93197550D01*
X85860592Y-93197550D02*
X85812973Y-93149931D01*
X85812973Y-93149931D02*
X85812973Y-93245169D01*
X86289163Y-93483264D02*
X86289163Y-94149931D01*
X86289163Y-93578502D02*
X86336782Y-93530883D01*
X86336782Y-93530883D02*
X86432020Y-93483264D01*
X86432020Y-93483264D02*
X86574877Y-93483264D01*
X86574877Y-93483264D02*
X86670115Y-93530883D01*
X86670115Y-93530883D02*
X86717734Y-93626121D01*
X86717734Y-93626121D02*
X86717734Y-94149931D01*
X88527258Y-94149931D02*
X88193925Y-93673740D01*
X87955830Y-94149931D02*
X87955830Y-93149931D01*
X87955830Y-93149931D02*
X88336782Y-93149931D01*
X88336782Y-93149931D02*
X88432020Y-93197550D01*
X88432020Y-93197550D02*
X88479639Y-93245169D01*
X88479639Y-93245169D02*
X88527258Y-93340407D01*
X88527258Y-93340407D02*
X88527258Y-93483264D01*
X88527258Y-93483264D02*
X88479639Y-93578502D01*
X88479639Y-93578502D02*
X88432020Y-93626121D01*
X88432020Y-93626121D02*
X88336782Y-93673740D01*
X88336782Y-93673740D02*
X87955830Y-93673740D01*
X89384401Y-93483264D02*
X89384401Y-94149931D01*
X89146306Y-93102312D02*
X88908211Y-93816597D01*
X88908211Y-93816597D02*
X89527258Y-93816597D01*
X89908211Y-94054692D02*
X89955830Y-94102312D01*
X89955830Y-94102312D02*
X89908211Y-94149931D01*
X89908211Y-94149931D02*
X89860592Y-94102312D01*
X89860592Y-94102312D02*
X89908211Y-94054692D01*
X89908211Y-94054692D02*
X89908211Y-94149931D01*
X59670112Y-95236065D02*
X59336779Y-95236065D01*
X59336779Y-95759875D02*
X59336779Y-94759875D01*
X59336779Y-94759875D02*
X59812969Y-94759875D01*
X60336779Y-95759875D02*
X60241541Y-95712256D01*
X60241541Y-95712256D02*
X60193922Y-95664636D01*
X60193922Y-95664636D02*
X60146303Y-95569398D01*
X60146303Y-95569398D02*
X60146303Y-95283684D01*
X60146303Y-95283684D02*
X60193922Y-95188446D01*
X60193922Y-95188446D02*
X60241541Y-95140827D01*
X60241541Y-95140827D02*
X60336779Y-95093208D01*
X60336779Y-95093208D02*
X60479636Y-95093208D01*
X60479636Y-95093208D02*
X60574874Y-95140827D01*
X60574874Y-95140827D02*
X60622493Y-95188446D01*
X60622493Y-95188446D02*
X60670112Y-95283684D01*
X60670112Y-95283684D02*
X60670112Y-95569398D01*
X60670112Y-95569398D02*
X60622493Y-95664636D01*
X60622493Y-95664636D02*
X60574874Y-95712256D01*
X60574874Y-95712256D02*
X60479636Y-95759875D01*
X60479636Y-95759875D02*
X60336779Y-95759875D01*
X61098684Y-95759875D02*
X61098684Y-95093208D01*
X61098684Y-95283684D02*
X61146303Y-95188446D01*
X61146303Y-95188446D02*
X61193922Y-95140827D01*
X61193922Y-95140827D02*
X61289160Y-95093208D01*
X61289160Y-95093208D02*
X61384398Y-95093208D01*
X62479637Y-95093208D02*
X62479637Y-96093208D01*
X62479637Y-95140827D02*
X62574875Y-95093208D01*
X62574875Y-95093208D02*
X62765351Y-95093208D01*
X62765351Y-95093208D02*
X62860589Y-95140827D01*
X62860589Y-95140827D02*
X62908208Y-95188446D01*
X62908208Y-95188446D02*
X62955827Y-95283684D01*
X62955827Y-95283684D02*
X62955827Y-95569398D01*
X62955827Y-95569398D02*
X62908208Y-95664636D01*
X62908208Y-95664636D02*
X62860589Y-95712256D01*
X62860589Y-95712256D02*
X62765351Y-95759875D01*
X62765351Y-95759875D02*
X62574875Y-95759875D01*
X62574875Y-95759875D02*
X62479637Y-95712256D01*
X63765351Y-95712256D02*
X63670113Y-95759875D01*
X63670113Y-95759875D02*
X63479637Y-95759875D01*
X63479637Y-95759875D02*
X63384399Y-95712256D01*
X63384399Y-95712256D02*
X63336780Y-95617017D01*
X63336780Y-95617017D02*
X63336780Y-95236065D01*
X63336780Y-95236065D02*
X63384399Y-95140827D01*
X63384399Y-95140827D02*
X63479637Y-95093208D01*
X63479637Y-95093208D02*
X63670113Y-95093208D01*
X63670113Y-95093208D02*
X63765351Y-95140827D01*
X63765351Y-95140827D02*
X63812970Y-95236065D01*
X63812970Y-95236065D02*
X63812970Y-95331303D01*
X63812970Y-95331303D02*
X63336780Y-95426541D01*
X64241542Y-95093208D02*
X64241542Y-95759875D01*
X64241542Y-95188446D02*
X64289161Y-95140827D01*
X64289161Y-95140827D02*
X64384399Y-95093208D01*
X64384399Y-95093208D02*
X64527256Y-95093208D01*
X64527256Y-95093208D02*
X64622494Y-95140827D01*
X64622494Y-95140827D02*
X64670113Y-95236065D01*
X64670113Y-95236065D02*
X64670113Y-95759875D01*
X65003447Y-95093208D02*
X65384399Y-95093208D01*
X65146304Y-94759875D02*
X65146304Y-95617017D01*
X65146304Y-95617017D02*
X65193923Y-95712256D01*
X65193923Y-95712256D02*
X65289161Y-95759875D01*
X65289161Y-95759875D02*
X65384399Y-95759875D01*
X65860590Y-95759875D02*
X65765352Y-95712256D01*
X65765352Y-95712256D02*
X65717733Y-95664636D01*
X65717733Y-95664636D02*
X65670114Y-95569398D01*
X65670114Y-95569398D02*
X65670114Y-95283684D01*
X65670114Y-95283684D02*
X65717733Y-95188446D01*
X65717733Y-95188446D02*
X65765352Y-95140827D01*
X65765352Y-95140827D02*
X65860590Y-95093208D01*
X65860590Y-95093208D02*
X66003447Y-95093208D01*
X66003447Y-95093208D02*
X66098685Y-95140827D01*
X66098685Y-95140827D02*
X66146304Y-95188446D01*
X66146304Y-95188446D02*
X66193923Y-95283684D01*
X66193923Y-95283684D02*
X66193923Y-95569398D01*
X66193923Y-95569398D02*
X66146304Y-95664636D01*
X66146304Y-95664636D02*
X66098685Y-95712256D01*
X66098685Y-95712256D02*
X66003447Y-95759875D01*
X66003447Y-95759875D02*
X65860590Y-95759875D01*
X67051066Y-95759875D02*
X67051066Y-94759875D01*
X67051066Y-95712256D02*
X66955828Y-95759875D01*
X66955828Y-95759875D02*
X66765352Y-95759875D01*
X66765352Y-95759875D02*
X66670114Y-95712256D01*
X66670114Y-95712256D02*
X66622495Y-95664636D01*
X66622495Y-95664636D02*
X66574876Y-95569398D01*
X66574876Y-95569398D02*
X66574876Y-95283684D01*
X66574876Y-95283684D02*
X66622495Y-95188446D01*
X66622495Y-95188446D02*
X66670114Y-95140827D01*
X66670114Y-95140827D02*
X66765352Y-95093208D01*
X66765352Y-95093208D02*
X66955828Y-95093208D01*
X66955828Y-95093208D02*
X67051066Y-95140827D01*
X67908209Y-95712256D02*
X67812971Y-95759875D01*
X67812971Y-95759875D02*
X67622495Y-95759875D01*
X67622495Y-95759875D02*
X67527257Y-95712256D01*
X67527257Y-95712256D02*
X67479638Y-95617017D01*
X67479638Y-95617017D02*
X67479638Y-95236065D01*
X67479638Y-95236065D02*
X67527257Y-95140827D01*
X67527257Y-95140827D02*
X67622495Y-95093208D01*
X67622495Y-95093208D02*
X67812971Y-95093208D01*
X67812971Y-95093208D02*
X67908209Y-95140827D01*
X67908209Y-95140827D02*
X67955828Y-95236065D01*
X67955828Y-95236065D02*
X67955828Y-95331303D01*
X67955828Y-95331303D02*
X67479638Y-95426541D01*
X69146305Y-95759875D02*
X69146305Y-95093208D01*
X69146305Y-95188446D02*
X69193924Y-95140827D01*
X69193924Y-95140827D02*
X69289162Y-95093208D01*
X69289162Y-95093208D02*
X69432019Y-95093208D01*
X69432019Y-95093208D02*
X69527257Y-95140827D01*
X69527257Y-95140827D02*
X69574876Y-95236065D01*
X69574876Y-95236065D02*
X69574876Y-95759875D01*
X69574876Y-95236065D02*
X69622495Y-95140827D01*
X69622495Y-95140827D02*
X69717733Y-95093208D01*
X69717733Y-95093208D02*
X69860590Y-95093208D01*
X69860590Y-95093208D02*
X69955829Y-95140827D01*
X69955829Y-95140827D02*
X70003448Y-95236065D01*
X70003448Y-95236065D02*
X70003448Y-95759875D01*
X70622495Y-95759875D02*
X70527257Y-95712256D01*
X70527257Y-95712256D02*
X70479638Y-95664636D01*
X70479638Y-95664636D02*
X70432019Y-95569398D01*
X70432019Y-95569398D02*
X70432019Y-95283684D01*
X70432019Y-95283684D02*
X70479638Y-95188446D01*
X70479638Y-95188446D02*
X70527257Y-95140827D01*
X70527257Y-95140827D02*
X70622495Y-95093208D01*
X70622495Y-95093208D02*
X70765352Y-95093208D01*
X70765352Y-95093208D02*
X70860590Y-95140827D01*
X70860590Y-95140827D02*
X70908209Y-95188446D01*
X70908209Y-95188446D02*
X70955828Y-95283684D01*
X70955828Y-95283684D02*
X70955828Y-95569398D01*
X70955828Y-95569398D02*
X70908209Y-95664636D01*
X70908209Y-95664636D02*
X70860590Y-95712256D01*
X70860590Y-95712256D02*
X70765352Y-95759875D01*
X70765352Y-95759875D02*
X70622495Y-95759875D01*
X71812971Y-95759875D02*
X71812971Y-94759875D01*
X71812971Y-95712256D02*
X71717733Y-95759875D01*
X71717733Y-95759875D02*
X71527257Y-95759875D01*
X71527257Y-95759875D02*
X71432019Y-95712256D01*
X71432019Y-95712256D02*
X71384400Y-95664636D01*
X71384400Y-95664636D02*
X71336781Y-95569398D01*
X71336781Y-95569398D02*
X71336781Y-95283684D01*
X71336781Y-95283684D02*
X71384400Y-95188446D01*
X71384400Y-95188446D02*
X71432019Y-95140827D01*
X71432019Y-95140827D02*
X71527257Y-95093208D01*
X71527257Y-95093208D02*
X71717733Y-95093208D01*
X71717733Y-95093208D02*
X71812971Y-95140827D01*
X72670114Y-95712256D02*
X72574876Y-95759875D01*
X72574876Y-95759875D02*
X72384400Y-95759875D01*
X72384400Y-95759875D02*
X72289162Y-95712256D01*
X72289162Y-95712256D02*
X72241543Y-95617017D01*
X72241543Y-95617017D02*
X72241543Y-95236065D01*
X72241543Y-95236065D02*
X72289162Y-95140827D01*
X72289162Y-95140827D02*
X72384400Y-95093208D01*
X72384400Y-95093208D02*
X72574876Y-95093208D01*
X72574876Y-95093208D02*
X72670114Y-95140827D01*
X72670114Y-95140827D02*
X72717733Y-95236065D01*
X72717733Y-95236065D02*
X72717733Y-95331303D01*
X72717733Y-95331303D02*
X72241543Y-95426541D01*
X73193924Y-95712256D02*
X73193924Y-95759875D01*
X73193924Y-95759875D02*
X73146305Y-95855113D01*
X73146305Y-95855113D02*
X73098686Y-95902732D01*
X74384400Y-95759875D02*
X74384400Y-95093208D01*
X74384400Y-94759875D02*
X74336781Y-94807494D01*
X74336781Y-94807494D02*
X74384400Y-94855113D01*
X74384400Y-94855113D02*
X74432019Y-94807494D01*
X74432019Y-94807494D02*
X74384400Y-94759875D01*
X74384400Y-94759875D02*
X74384400Y-94855113D01*
X74860590Y-95093208D02*
X74860590Y-95759875D01*
X74860590Y-95188446D02*
X74908209Y-95140827D01*
X74908209Y-95140827D02*
X75003447Y-95093208D01*
X75003447Y-95093208D02*
X75146304Y-95093208D01*
X75146304Y-95093208D02*
X75241542Y-95140827D01*
X75241542Y-95140827D02*
X75289161Y-95236065D01*
X75289161Y-95236065D02*
X75289161Y-95759875D01*
X75717733Y-95712256D02*
X75812971Y-95759875D01*
X75812971Y-95759875D02*
X76003447Y-95759875D01*
X76003447Y-95759875D02*
X76098685Y-95712256D01*
X76098685Y-95712256D02*
X76146304Y-95617017D01*
X76146304Y-95617017D02*
X76146304Y-95569398D01*
X76146304Y-95569398D02*
X76098685Y-95474160D01*
X76098685Y-95474160D02*
X76003447Y-95426541D01*
X76003447Y-95426541D02*
X75860590Y-95426541D01*
X75860590Y-95426541D02*
X75765352Y-95378922D01*
X75765352Y-95378922D02*
X75717733Y-95283684D01*
X75717733Y-95283684D02*
X75717733Y-95236065D01*
X75717733Y-95236065D02*
X75765352Y-95140827D01*
X75765352Y-95140827D02*
X75860590Y-95093208D01*
X75860590Y-95093208D02*
X76003447Y-95093208D01*
X76003447Y-95093208D02*
X76098685Y-95140827D01*
X76432019Y-95093208D02*
X76812971Y-95093208D01*
X76574876Y-94759875D02*
X76574876Y-95617017D01*
X76574876Y-95617017D02*
X76622495Y-95712256D01*
X76622495Y-95712256D02*
X76717733Y-95759875D01*
X76717733Y-95759875D02*
X76812971Y-95759875D01*
X77574876Y-95759875D02*
X77574876Y-95236065D01*
X77574876Y-95236065D02*
X77527257Y-95140827D01*
X77527257Y-95140827D02*
X77432019Y-95093208D01*
X77432019Y-95093208D02*
X77241543Y-95093208D01*
X77241543Y-95093208D02*
X77146305Y-95140827D01*
X77574876Y-95712256D02*
X77479638Y-95759875D01*
X77479638Y-95759875D02*
X77241543Y-95759875D01*
X77241543Y-95759875D02*
X77146305Y-95712256D01*
X77146305Y-95712256D02*
X77098686Y-95617017D01*
X77098686Y-95617017D02*
X77098686Y-95521779D01*
X77098686Y-95521779D02*
X77146305Y-95426541D01*
X77146305Y-95426541D02*
X77241543Y-95378922D01*
X77241543Y-95378922D02*
X77479638Y-95378922D01*
X77479638Y-95378922D02*
X77574876Y-95331303D01*
X78193924Y-95759875D02*
X78098686Y-95712256D01*
X78098686Y-95712256D02*
X78051067Y-95617017D01*
X78051067Y-95617017D02*
X78051067Y-94759875D01*
X78717734Y-95759875D02*
X78622496Y-95712256D01*
X78622496Y-95712256D02*
X78574877Y-95617017D01*
X78574877Y-95617017D02*
X78574877Y-94759875D01*
X79860592Y-95759875D02*
X79860592Y-95093208D01*
X79860592Y-95283684D02*
X79908211Y-95188446D01*
X79908211Y-95188446D02*
X79955830Y-95140827D01*
X79955830Y-95140827D02*
X80051068Y-95093208D01*
X80051068Y-95093208D02*
X80146306Y-95093208D01*
X80860592Y-95712256D02*
X80765354Y-95759875D01*
X80765354Y-95759875D02*
X80574878Y-95759875D01*
X80574878Y-95759875D02*
X80479640Y-95712256D01*
X80479640Y-95712256D02*
X80432021Y-95617017D01*
X80432021Y-95617017D02*
X80432021Y-95236065D01*
X80432021Y-95236065D02*
X80479640Y-95140827D01*
X80479640Y-95140827D02*
X80574878Y-95093208D01*
X80574878Y-95093208D02*
X80765354Y-95093208D01*
X80765354Y-95093208D02*
X80860592Y-95140827D01*
X80860592Y-95140827D02*
X80908211Y-95236065D01*
X80908211Y-95236065D02*
X80908211Y-95331303D01*
X80908211Y-95331303D02*
X80432021Y-95426541D01*
X81289164Y-95712256D02*
X81384402Y-95759875D01*
X81384402Y-95759875D02*
X81574878Y-95759875D01*
X81574878Y-95759875D02*
X81670116Y-95712256D01*
X81670116Y-95712256D02*
X81717735Y-95617017D01*
X81717735Y-95617017D02*
X81717735Y-95569398D01*
X81717735Y-95569398D02*
X81670116Y-95474160D01*
X81670116Y-95474160D02*
X81574878Y-95426541D01*
X81574878Y-95426541D02*
X81432021Y-95426541D01*
X81432021Y-95426541D02*
X81336783Y-95378922D01*
X81336783Y-95378922D02*
X81289164Y-95283684D01*
X81289164Y-95283684D02*
X81289164Y-95236065D01*
X81289164Y-95236065D02*
X81336783Y-95140827D01*
X81336783Y-95140827D02*
X81432021Y-95093208D01*
X81432021Y-95093208D02*
X81574878Y-95093208D01*
X81574878Y-95093208D02*
X81670116Y-95140827D01*
X82146307Y-95759875D02*
X82146307Y-95093208D01*
X82146307Y-94759875D02*
X82098688Y-94807494D01*
X82098688Y-94807494D02*
X82146307Y-94855113D01*
X82146307Y-94855113D02*
X82193926Y-94807494D01*
X82193926Y-94807494D02*
X82146307Y-94759875D01*
X82146307Y-94759875D02*
X82146307Y-94855113D01*
X82574878Y-95712256D02*
X82670116Y-95759875D01*
X82670116Y-95759875D02*
X82860592Y-95759875D01*
X82860592Y-95759875D02*
X82955830Y-95712256D01*
X82955830Y-95712256D02*
X83003449Y-95617017D01*
X83003449Y-95617017D02*
X83003449Y-95569398D01*
X83003449Y-95569398D02*
X82955830Y-95474160D01*
X82955830Y-95474160D02*
X82860592Y-95426541D01*
X82860592Y-95426541D02*
X82717735Y-95426541D01*
X82717735Y-95426541D02*
X82622497Y-95378922D01*
X82622497Y-95378922D02*
X82574878Y-95283684D01*
X82574878Y-95283684D02*
X82574878Y-95236065D01*
X82574878Y-95236065D02*
X82622497Y-95140827D01*
X82622497Y-95140827D02*
X82717735Y-95093208D01*
X82717735Y-95093208D02*
X82860592Y-95093208D01*
X82860592Y-95093208D02*
X82955830Y-95140827D01*
X83289164Y-95093208D02*
X83670116Y-95093208D01*
X83432021Y-94759875D02*
X83432021Y-95617017D01*
X83432021Y-95617017D02*
X83479640Y-95712256D01*
X83479640Y-95712256D02*
X83574878Y-95759875D01*
X83574878Y-95759875D02*
X83670116Y-95759875D01*
X84146307Y-95759875D02*
X84051069Y-95712256D01*
X84051069Y-95712256D02*
X84003450Y-95664636D01*
X84003450Y-95664636D02*
X83955831Y-95569398D01*
X83955831Y-95569398D02*
X83955831Y-95283684D01*
X83955831Y-95283684D02*
X84003450Y-95188446D01*
X84003450Y-95188446D02*
X84051069Y-95140827D01*
X84051069Y-95140827D02*
X84146307Y-95093208D01*
X84146307Y-95093208D02*
X84289164Y-95093208D01*
X84289164Y-95093208D02*
X84384402Y-95140827D01*
X84384402Y-95140827D02*
X84432021Y-95188446D01*
X84432021Y-95188446D02*
X84479640Y-95283684D01*
X84479640Y-95283684D02*
X84479640Y-95569398D01*
X84479640Y-95569398D02*
X84432021Y-95664636D01*
X84432021Y-95664636D02*
X84384402Y-95712256D01*
X84384402Y-95712256D02*
X84289164Y-95759875D01*
X84289164Y-95759875D02*
X84146307Y-95759875D01*
X84908212Y-95759875D02*
X84908212Y-95093208D01*
X84908212Y-95283684D02*
X84955831Y-95188446D01*
X84955831Y-95188446D02*
X85003450Y-95140827D01*
X85003450Y-95140827D02*
X85098688Y-95093208D01*
X85098688Y-95093208D02*
X85193926Y-95093208D01*
X85479641Y-95712256D02*
X85574879Y-95759875D01*
X85574879Y-95759875D02*
X85765355Y-95759875D01*
X85765355Y-95759875D02*
X85860593Y-95712256D01*
X85860593Y-95712256D02*
X85908212Y-95617017D01*
X85908212Y-95617017D02*
X85908212Y-95569398D01*
X85908212Y-95569398D02*
X85860593Y-95474160D01*
X85860593Y-95474160D02*
X85765355Y-95426541D01*
X85765355Y-95426541D02*
X85622498Y-95426541D01*
X85622498Y-95426541D02*
X85527260Y-95378922D01*
X85527260Y-95378922D02*
X85479641Y-95283684D01*
X85479641Y-95283684D02*
X85479641Y-95236065D01*
X85479641Y-95236065D02*
X85527260Y-95140827D01*
X85527260Y-95140827D02*
X85622498Y-95093208D01*
X85622498Y-95093208D02*
X85765355Y-95093208D01*
X85765355Y-95093208D02*
X85860593Y-95140827D01*
X87670117Y-95759875D02*
X87336784Y-95283684D01*
X87098689Y-95759875D02*
X87098689Y-94759875D01*
X87098689Y-94759875D02*
X87479641Y-94759875D01*
X87479641Y-94759875D02*
X87574879Y-94807494D01*
X87574879Y-94807494D02*
X87622498Y-94855113D01*
X87622498Y-94855113D02*
X87670117Y-94950351D01*
X87670117Y-94950351D02*
X87670117Y-95093208D01*
X87670117Y-95093208D02*
X87622498Y-95188446D01*
X87622498Y-95188446D02*
X87574879Y-95236065D01*
X87574879Y-95236065D02*
X87479641Y-95283684D01*
X87479641Y-95283684D02*
X87098689Y-95283684D01*
X88527260Y-95093208D02*
X88527260Y-95759875D01*
X88289165Y-94712256D02*
X88051070Y-95426541D01*
X88051070Y-95426541D02*
X88670117Y-95426541D01*
X59765350Y-97369819D02*
X59765350Y-96846009D01*
X59765350Y-96846009D02*
X59717731Y-96750771D01*
X59717731Y-96750771D02*
X59622493Y-96703152D01*
X59622493Y-96703152D02*
X59432017Y-96703152D01*
X59432017Y-96703152D02*
X59336779Y-96750771D01*
X59765350Y-97322200D02*
X59670112Y-97369819D01*
X59670112Y-97369819D02*
X59432017Y-97369819D01*
X59432017Y-97369819D02*
X59336779Y-97322200D01*
X59336779Y-97322200D02*
X59289160Y-97226961D01*
X59289160Y-97226961D02*
X59289160Y-97131723D01*
X59289160Y-97131723D02*
X59336779Y-97036485D01*
X59336779Y-97036485D02*
X59432017Y-96988866D01*
X59432017Y-96988866D02*
X59670112Y-96988866D01*
X59670112Y-96988866D02*
X59765350Y-96941247D01*
X60241541Y-96703152D02*
X60241541Y-97369819D01*
X60241541Y-96798390D02*
X60289160Y-96750771D01*
X60289160Y-96750771D02*
X60384398Y-96703152D01*
X60384398Y-96703152D02*
X60527255Y-96703152D01*
X60527255Y-96703152D02*
X60622493Y-96750771D01*
X60622493Y-96750771D02*
X60670112Y-96846009D01*
X60670112Y-96846009D02*
X60670112Y-97369819D01*
X61574874Y-97369819D02*
X61574874Y-96369819D01*
X61574874Y-97322200D02*
X61479636Y-97369819D01*
X61479636Y-97369819D02*
X61289160Y-97369819D01*
X61289160Y-97369819D02*
X61193922Y-97322200D01*
X61193922Y-97322200D02*
X61146303Y-97274580D01*
X61146303Y-97274580D02*
X61098684Y-97179342D01*
X61098684Y-97179342D02*
X61098684Y-96893628D01*
X61098684Y-96893628D02*
X61146303Y-96798390D01*
X61146303Y-96798390D02*
X61193922Y-96750771D01*
X61193922Y-96750771D02*
X61289160Y-96703152D01*
X61289160Y-96703152D02*
X61479636Y-96703152D01*
X61479636Y-96703152D02*
X61574874Y-96750771D01*
X63384398Y-97369819D02*
X63051065Y-96893628D01*
X62812970Y-97369819D02*
X62812970Y-96369819D01*
X62812970Y-96369819D02*
X63193922Y-96369819D01*
X63193922Y-96369819D02*
X63289160Y-96417438D01*
X63289160Y-96417438D02*
X63336779Y-96465057D01*
X63336779Y-96465057D02*
X63384398Y-96560295D01*
X63384398Y-96560295D02*
X63384398Y-96703152D01*
X63384398Y-96703152D02*
X63336779Y-96798390D01*
X63336779Y-96798390D02*
X63289160Y-96846009D01*
X63289160Y-96846009D02*
X63193922Y-96893628D01*
X63193922Y-96893628D02*
X62812970Y-96893628D01*
X64289160Y-96369819D02*
X63812970Y-96369819D01*
X63812970Y-96369819D02*
X63765351Y-96846009D01*
X63765351Y-96846009D02*
X63812970Y-96798390D01*
X63812970Y-96798390D02*
X63908208Y-96750771D01*
X63908208Y-96750771D02*
X64146303Y-96750771D01*
X64146303Y-96750771D02*
X64241541Y-96798390D01*
X64241541Y-96798390D02*
X64289160Y-96846009D01*
X64289160Y-96846009D02*
X64336779Y-96941247D01*
X64336779Y-96941247D02*
X64336779Y-97179342D01*
X64336779Y-97179342D02*
X64289160Y-97274580D01*
X64289160Y-97274580D02*
X64241541Y-97322200D01*
X64241541Y-97322200D02*
X64146303Y-97369819D01*
X64146303Y-97369819D02*
X63908208Y-97369819D01*
X63908208Y-97369819D02*
X63812970Y-97322200D01*
X63812970Y-97322200D02*
X63765351Y-97274580D01*
X64812970Y-97322200D02*
X64812970Y-97369819D01*
X64812970Y-97369819D02*
X64765351Y-97465057D01*
X64765351Y-97465057D02*
X64717732Y-97512676D01*
X66146303Y-97369819D02*
X66051065Y-97322200D01*
X66051065Y-97322200D02*
X66003446Y-97274580D01*
X66003446Y-97274580D02*
X65955827Y-97179342D01*
X65955827Y-97179342D02*
X65955827Y-96893628D01*
X65955827Y-96893628D02*
X66003446Y-96798390D01*
X66003446Y-96798390D02*
X66051065Y-96750771D01*
X66051065Y-96750771D02*
X66146303Y-96703152D01*
X66146303Y-96703152D02*
X66289160Y-96703152D01*
X66289160Y-96703152D02*
X66384398Y-96750771D01*
X66384398Y-96750771D02*
X66432017Y-96798390D01*
X66432017Y-96798390D02*
X66479636Y-96893628D01*
X66479636Y-96893628D02*
X66479636Y-97179342D01*
X66479636Y-97179342D02*
X66432017Y-97274580D01*
X66432017Y-97274580D02*
X66384398Y-97322200D01*
X66384398Y-97322200D02*
X66289160Y-97369819D01*
X66289160Y-97369819D02*
X66146303Y-97369819D01*
X66908208Y-97369819D02*
X66908208Y-96703152D01*
X66908208Y-96893628D02*
X66955827Y-96798390D01*
X66955827Y-96798390D02*
X67003446Y-96750771D01*
X67003446Y-96750771D02*
X67098684Y-96703152D01*
X67098684Y-96703152D02*
X67193922Y-96703152D01*
X68717732Y-97369819D02*
X68717732Y-96846009D01*
X68717732Y-96846009D02*
X68670113Y-96750771D01*
X68670113Y-96750771D02*
X68574875Y-96703152D01*
X68574875Y-96703152D02*
X68384399Y-96703152D01*
X68384399Y-96703152D02*
X68289161Y-96750771D01*
X68717732Y-97322200D02*
X68622494Y-97369819D01*
X68622494Y-97369819D02*
X68384399Y-97369819D01*
X68384399Y-97369819D02*
X68289161Y-97322200D01*
X68289161Y-97322200D02*
X68241542Y-97226961D01*
X68241542Y-97226961D02*
X68241542Y-97131723D01*
X68241542Y-97131723D02*
X68289161Y-97036485D01*
X68289161Y-97036485D02*
X68384399Y-96988866D01*
X68384399Y-96988866D02*
X68622494Y-96988866D01*
X68622494Y-96988866D02*
X68717732Y-96941247D01*
X69955828Y-96703152D02*
X69955828Y-97703152D01*
X69955828Y-96750771D02*
X70051066Y-96703152D01*
X70051066Y-96703152D02*
X70241542Y-96703152D01*
X70241542Y-96703152D02*
X70336780Y-96750771D01*
X70336780Y-96750771D02*
X70384399Y-96798390D01*
X70384399Y-96798390D02*
X70432018Y-96893628D01*
X70432018Y-96893628D02*
X70432018Y-97179342D01*
X70432018Y-97179342D02*
X70384399Y-97274580D01*
X70384399Y-97274580D02*
X70336780Y-97322200D01*
X70336780Y-97322200D02*
X70241542Y-97369819D01*
X70241542Y-97369819D02*
X70051066Y-97369819D01*
X70051066Y-97369819D02*
X69955828Y-97322200D01*
X71003447Y-97369819D02*
X70908209Y-97322200D01*
X70908209Y-97322200D02*
X70860590Y-97274580D01*
X70860590Y-97274580D02*
X70812971Y-97179342D01*
X70812971Y-97179342D02*
X70812971Y-96893628D01*
X70812971Y-96893628D02*
X70860590Y-96798390D01*
X70860590Y-96798390D02*
X70908209Y-96750771D01*
X70908209Y-96750771D02*
X71003447Y-96703152D01*
X71003447Y-96703152D02*
X71146304Y-96703152D01*
X71146304Y-96703152D02*
X71241542Y-96750771D01*
X71241542Y-96750771D02*
X71289161Y-96798390D01*
X71289161Y-96798390D02*
X71336780Y-96893628D01*
X71336780Y-96893628D02*
X71336780Y-97179342D01*
X71336780Y-97179342D02*
X71289161Y-97274580D01*
X71289161Y-97274580D02*
X71241542Y-97322200D01*
X71241542Y-97322200D02*
X71146304Y-97369819D01*
X71146304Y-97369819D02*
X71003447Y-97369819D01*
X71622495Y-96703152D02*
X72003447Y-96703152D01*
X71765352Y-96369819D02*
X71765352Y-97226961D01*
X71765352Y-97226961D02*
X71812971Y-97322200D01*
X71812971Y-97322200D02*
X71908209Y-97369819D01*
X71908209Y-97369819D02*
X72003447Y-97369819D01*
X72717733Y-97322200D02*
X72622495Y-97369819D01*
X72622495Y-97369819D02*
X72432019Y-97369819D01*
X72432019Y-97369819D02*
X72336781Y-97322200D01*
X72336781Y-97322200D02*
X72289162Y-97226961D01*
X72289162Y-97226961D02*
X72289162Y-96846009D01*
X72289162Y-96846009D02*
X72336781Y-96750771D01*
X72336781Y-96750771D02*
X72432019Y-96703152D01*
X72432019Y-96703152D02*
X72622495Y-96703152D01*
X72622495Y-96703152D02*
X72717733Y-96750771D01*
X72717733Y-96750771D02*
X72765352Y-96846009D01*
X72765352Y-96846009D02*
X72765352Y-96941247D01*
X72765352Y-96941247D02*
X72289162Y-97036485D01*
X73193924Y-96703152D02*
X73193924Y-97369819D01*
X73193924Y-96798390D02*
X73241543Y-96750771D01*
X73241543Y-96750771D02*
X73336781Y-96703152D01*
X73336781Y-96703152D02*
X73479638Y-96703152D01*
X73479638Y-96703152D02*
X73574876Y-96750771D01*
X73574876Y-96750771D02*
X73622495Y-96846009D01*
X73622495Y-96846009D02*
X73622495Y-97369819D01*
X73955829Y-96703152D02*
X74336781Y-96703152D01*
X74098686Y-96369819D02*
X74098686Y-97226961D01*
X74098686Y-97226961D02*
X74146305Y-97322200D01*
X74146305Y-97322200D02*
X74241543Y-97369819D01*
X74241543Y-97369819D02*
X74336781Y-97369819D01*
X74670115Y-97369819D02*
X74670115Y-96703152D01*
X74670115Y-96369819D02*
X74622496Y-96417438D01*
X74622496Y-96417438D02*
X74670115Y-96465057D01*
X74670115Y-96465057D02*
X74717734Y-96417438D01*
X74717734Y-96417438D02*
X74670115Y-96369819D01*
X74670115Y-96369819D02*
X74670115Y-96465057D01*
X75289162Y-97369819D02*
X75193924Y-97322200D01*
X75193924Y-97322200D02*
X75146305Y-97274580D01*
X75146305Y-97274580D02*
X75098686Y-97179342D01*
X75098686Y-97179342D02*
X75098686Y-96893628D01*
X75098686Y-96893628D02*
X75146305Y-96798390D01*
X75146305Y-96798390D02*
X75193924Y-96750771D01*
X75193924Y-96750771D02*
X75289162Y-96703152D01*
X75289162Y-96703152D02*
X75432019Y-96703152D01*
X75432019Y-96703152D02*
X75527257Y-96750771D01*
X75527257Y-96750771D02*
X75574876Y-96798390D01*
X75574876Y-96798390D02*
X75622495Y-96893628D01*
X75622495Y-96893628D02*
X75622495Y-97179342D01*
X75622495Y-97179342D02*
X75574876Y-97274580D01*
X75574876Y-97274580D02*
X75527257Y-97322200D01*
X75527257Y-97322200D02*
X75432019Y-97369819D01*
X75432019Y-97369819D02*
X75289162Y-97369819D01*
X76051067Y-97369819D02*
X76051067Y-96703152D01*
X76051067Y-96798390D02*
X76098686Y-96750771D01*
X76098686Y-96750771D02*
X76193924Y-96703152D01*
X76193924Y-96703152D02*
X76336781Y-96703152D01*
X76336781Y-96703152D02*
X76432019Y-96750771D01*
X76432019Y-96750771D02*
X76479638Y-96846009D01*
X76479638Y-96846009D02*
X76479638Y-97369819D01*
X76479638Y-96846009D02*
X76527257Y-96750771D01*
X76527257Y-96750771D02*
X76622495Y-96703152D01*
X76622495Y-96703152D02*
X76765352Y-96703152D01*
X76765352Y-96703152D02*
X76860591Y-96750771D01*
X76860591Y-96750771D02*
X76908210Y-96846009D01*
X76908210Y-96846009D02*
X76908210Y-97369819D01*
X77765352Y-97322200D02*
X77670114Y-97369819D01*
X77670114Y-97369819D02*
X77479638Y-97369819D01*
X77479638Y-97369819D02*
X77384400Y-97322200D01*
X77384400Y-97322200D02*
X77336781Y-97226961D01*
X77336781Y-97226961D02*
X77336781Y-96846009D01*
X77336781Y-96846009D02*
X77384400Y-96750771D01*
X77384400Y-96750771D02*
X77479638Y-96703152D01*
X77479638Y-96703152D02*
X77670114Y-96703152D01*
X77670114Y-96703152D02*
X77765352Y-96750771D01*
X77765352Y-96750771D02*
X77812971Y-96846009D01*
X77812971Y-96846009D02*
X77812971Y-96941247D01*
X77812971Y-96941247D02*
X77336781Y-97036485D01*
X78098686Y-96703152D02*
X78479638Y-96703152D01*
X78241543Y-96369819D02*
X78241543Y-97226961D01*
X78241543Y-97226961D02*
X78289162Y-97322200D01*
X78289162Y-97322200D02*
X78384400Y-97369819D01*
X78384400Y-97369819D02*
X78479638Y-97369819D01*
X79193924Y-97322200D02*
X79098686Y-97369819D01*
X79098686Y-97369819D02*
X78908210Y-97369819D01*
X78908210Y-97369819D02*
X78812972Y-97322200D01*
X78812972Y-97322200D02*
X78765353Y-97226961D01*
X78765353Y-97226961D02*
X78765353Y-96846009D01*
X78765353Y-96846009D02*
X78812972Y-96750771D01*
X78812972Y-96750771D02*
X78908210Y-96703152D01*
X78908210Y-96703152D02*
X79098686Y-96703152D01*
X79098686Y-96703152D02*
X79193924Y-96750771D01*
X79193924Y-96750771D02*
X79241543Y-96846009D01*
X79241543Y-96846009D02*
X79241543Y-96941247D01*
X79241543Y-96941247D02*
X78765353Y-97036485D01*
X79670115Y-97369819D02*
X79670115Y-96703152D01*
X79670115Y-96893628D02*
X79717734Y-96798390D01*
X79717734Y-96798390D02*
X79765353Y-96750771D01*
X79765353Y-96750771D02*
X79860591Y-96703152D01*
X79860591Y-96703152D02*
X79955829Y-96703152D01*
X80289163Y-97274580D02*
X80336782Y-97322200D01*
X80336782Y-97322200D02*
X80289163Y-97369819D01*
X80289163Y-97369819D02*
X80241544Y-97322200D01*
X80241544Y-97322200D02*
X80289163Y-97274580D01*
X80289163Y-97274580D02*
X80289163Y-97369819D01*
X86330771Y-62170116D02*
X86283152Y-62217735D01*
X86283152Y-62217735D02*
X86140295Y-62312973D01*
X86140295Y-62312973D02*
X86045057Y-62360592D01*
X86045057Y-62360592D02*
X85902200Y-62408211D01*
X85902200Y-62408211D02*
X85664104Y-62455830D01*
X85664104Y-62455830D02*
X85473628Y-62455830D01*
X85473628Y-62455830D02*
X85235533Y-62408211D01*
X85235533Y-62408211D02*
X85092676Y-62360592D01*
X85092676Y-62360592D02*
X84997438Y-62312973D01*
X84997438Y-62312973D02*
X84854580Y-62217735D01*
X84854580Y-62217735D02*
X84806961Y-62170116D01*
X85902200Y-61360592D02*
X85949819Y-61455830D01*
X85949819Y-61455830D02*
X85949819Y-61646306D01*
X85949819Y-61646306D02*
X85902200Y-61741544D01*
X85902200Y-61741544D02*
X85854580Y-61789163D01*
X85854580Y-61789163D02*
X85759342Y-61836782D01*
X85759342Y-61836782D02*
X85473628Y-61836782D01*
X85473628Y-61836782D02*
X85378390Y-61789163D01*
X85378390Y-61789163D02*
X85330771Y-61741544D01*
X85330771Y-61741544D02*
X85283152Y-61646306D01*
X85283152Y-61646306D02*
X85283152Y-61455830D01*
X85283152Y-61455830D02*
X85330771Y-61360592D01*
X86330771Y-61027258D02*
X86283152Y-60979639D01*
X86283152Y-60979639D02*
X86140295Y-60884401D01*
X86140295Y-60884401D02*
X86045057Y-60836782D01*
X86045057Y-60836782D02*
X85902200Y-60789163D01*
X85902200Y-60789163D02*
X85664104Y-60741544D01*
X85664104Y-60741544D02*
X85473628Y-60741544D01*
X85473628Y-60741544D02*
X85235533Y-60789163D01*
X85235533Y-60789163D02*
X85092676Y-60836782D01*
X85092676Y-60836782D02*
X84997438Y-60884401D01*
X84997438Y-60884401D02*
X84854580Y-60979639D01*
X84854580Y-60979639D02*
X84806961Y-61027258D01*
X85854580Y-58932020D02*
X85902200Y-58979639D01*
X85902200Y-58979639D02*
X85949819Y-59122496D01*
X85949819Y-59122496D02*
X85949819Y-59217734D01*
X85949819Y-59217734D02*
X85902200Y-59360591D01*
X85902200Y-59360591D02*
X85806961Y-59455829D01*
X85806961Y-59455829D02*
X85711723Y-59503448D01*
X85711723Y-59503448D02*
X85521247Y-59551067D01*
X85521247Y-59551067D02*
X85378390Y-59551067D01*
X85378390Y-59551067D02*
X85187914Y-59503448D01*
X85187914Y-59503448D02*
X85092676Y-59455829D01*
X85092676Y-59455829D02*
X84997438Y-59360591D01*
X84997438Y-59360591D02*
X84949819Y-59217734D01*
X84949819Y-59217734D02*
X84949819Y-59122496D01*
X84949819Y-59122496D02*
X84997438Y-58979639D01*
X84997438Y-58979639D02*
X85045057Y-58932020D01*
X85949819Y-58360591D02*
X85902200Y-58455829D01*
X85902200Y-58455829D02*
X85854580Y-58503448D01*
X85854580Y-58503448D02*
X85759342Y-58551067D01*
X85759342Y-58551067D02*
X85473628Y-58551067D01*
X85473628Y-58551067D02*
X85378390Y-58503448D01*
X85378390Y-58503448D02*
X85330771Y-58455829D01*
X85330771Y-58455829D02*
X85283152Y-58360591D01*
X85283152Y-58360591D02*
X85283152Y-58217734D01*
X85283152Y-58217734D02*
X85330771Y-58122496D01*
X85330771Y-58122496D02*
X85378390Y-58074877D01*
X85378390Y-58074877D02*
X85473628Y-58027258D01*
X85473628Y-58027258D02*
X85759342Y-58027258D01*
X85759342Y-58027258D02*
X85854580Y-58074877D01*
X85854580Y-58074877D02*
X85902200Y-58122496D01*
X85902200Y-58122496D02*
X85949819Y-58217734D01*
X85949819Y-58217734D02*
X85949819Y-58360591D01*
X85283152Y-57598686D02*
X86283152Y-57598686D01*
X85330771Y-57598686D02*
X85283152Y-57503448D01*
X85283152Y-57503448D02*
X85283152Y-57312972D01*
X85283152Y-57312972D02*
X85330771Y-57217734D01*
X85330771Y-57217734D02*
X85378390Y-57170115D01*
X85378390Y-57170115D02*
X85473628Y-57122496D01*
X85473628Y-57122496D02*
X85759342Y-57122496D01*
X85759342Y-57122496D02*
X85854580Y-57170115D01*
X85854580Y-57170115D02*
X85902200Y-57217734D01*
X85902200Y-57217734D02*
X85949819Y-57312972D01*
X85949819Y-57312972D02*
X85949819Y-57503448D01*
X85949819Y-57503448D02*
X85902200Y-57598686D01*
X85283152Y-56789162D02*
X85949819Y-56551067D01*
X85283152Y-56312972D02*
X85949819Y-56551067D01*
X85949819Y-56551067D02*
X86187914Y-56646305D01*
X86187914Y-56646305D02*
X86235533Y-56693924D01*
X86235533Y-56693924D02*
X86283152Y-56789162D01*
X85949819Y-55932019D02*
X85283152Y-55932019D01*
X85473628Y-55932019D02*
X85378390Y-55884400D01*
X85378390Y-55884400D02*
X85330771Y-55836781D01*
X85330771Y-55836781D02*
X85283152Y-55741543D01*
X85283152Y-55741543D02*
X85283152Y-55646305D01*
X85949819Y-55312971D02*
X85283152Y-55312971D01*
X84949819Y-55312971D02*
X84997438Y-55360590D01*
X84997438Y-55360590D02*
X85045057Y-55312971D01*
X85045057Y-55312971D02*
X84997438Y-55265352D01*
X84997438Y-55265352D02*
X84949819Y-55312971D01*
X84949819Y-55312971D02*
X85045057Y-55312971D01*
X85283152Y-54408210D02*
X86092676Y-54408210D01*
X86092676Y-54408210D02*
X86187914Y-54455829D01*
X86187914Y-54455829D02*
X86235533Y-54503448D01*
X86235533Y-54503448D02*
X86283152Y-54598686D01*
X86283152Y-54598686D02*
X86283152Y-54741543D01*
X86283152Y-54741543D02*
X86235533Y-54836781D01*
X85902200Y-54408210D02*
X85949819Y-54503448D01*
X85949819Y-54503448D02*
X85949819Y-54693924D01*
X85949819Y-54693924D02*
X85902200Y-54789162D01*
X85902200Y-54789162D02*
X85854580Y-54836781D01*
X85854580Y-54836781D02*
X85759342Y-54884400D01*
X85759342Y-54884400D02*
X85473628Y-54884400D01*
X85473628Y-54884400D02*
X85378390Y-54836781D01*
X85378390Y-54836781D02*
X85330771Y-54789162D01*
X85330771Y-54789162D02*
X85283152Y-54693924D01*
X85283152Y-54693924D02*
X85283152Y-54503448D01*
X85283152Y-54503448D02*
X85330771Y-54408210D01*
X85949819Y-53932019D02*
X84949819Y-53932019D01*
X85949819Y-53503448D02*
X85426009Y-53503448D01*
X85426009Y-53503448D02*
X85330771Y-53551067D01*
X85330771Y-53551067D02*
X85283152Y-53646305D01*
X85283152Y-53646305D02*
X85283152Y-53789162D01*
X85283152Y-53789162D02*
X85330771Y-53884400D01*
X85330771Y-53884400D02*
X85378390Y-53932019D01*
X85283152Y-53170114D02*
X85283152Y-52789162D01*
X84949819Y-53027257D02*
X85806961Y-53027257D01*
X85806961Y-53027257D02*
X85902200Y-52979638D01*
X85902200Y-52979638D02*
X85949819Y-52884400D01*
X85949819Y-52884400D02*
X85949819Y-52789162D01*
X85902200Y-51741542D02*
X85949819Y-51598685D01*
X85949819Y-51598685D02*
X85949819Y-51360590D01*
X85949819Y-51360590D02*
X85902200Y-51265352D01*
X85902200Y-51265352D02*
X85854580Y-51217733D01*
X85854580Y-51217733D02*
X85759342Y-51170114D01*
X85759342Y-51170114D02*
X85664104Y-51170114D01*
X85664104Y-51170114D02*
X85568866Y-51217733D01*
X85568866Y-51217733D02*
X85521247Y-51265352D01*
X85521247Y-51265352D02*
X85473628Y-51360590D01*
X85473628Y-51360590D02*
X85426009Y-51551066D01*
X85426009Y-51551066D02*
X85378390Y-51646304D01*
X85378390Y-51646304D02*
X85330771Y-51693923D01*
X85330771Y-51693923D02*
X85235533Y-51741542D01*
X85235533Y-51741542D02*
X85140295Y-51741542D01*
X85140295Y-51741542D02*
X85045057Y-51693923D01*
X85045057Y-51693923D02*
X84997438Y-51646304D01*
X84997438Y-51646304D02*
X84949819Y-51551066D01*
X84949819Y-51551066D02*
X84949819Y-51312971D01*
X84949819Y-51312971D02*
X84997438Y-51170114D01*
X85283152Y-50884399D02*
X85283152Y-50503447D01*
X84949819Y-50741542D02*
X85806961Y-50741542D01*
X85806961Y-50741542D02*
X85902200Y-50693923D01*
X85902200Y-50693923D02*
X85949819Y-50598685D01*
X85949819Y-50598685D02*
X85949819Y-50503447D01*
X85949819Y-50027256D02*
X85902200Y-50122494D01*
X85902200Y-50122494D02*
X85854580Y-50170113D01*
X85854580Y-50170113D02*
X85759342Y-50217732D01*
X85759342Y-50217732D02*
X85473628Y-50217732D01*
X85473628Y-50217732D02*
X85378390Y-50170113D01*
X85378390Y-50170113D02*
X85330771Y-50122494D01*
X85330771Y-50122494D02*
X85283152Y-50027256D01*
X85283152Y-50027256D02*
X85283152Y-49884399D01*
X85283152Y-49884399D02*
X85330771Y-49789161D01*
X85330771Y-49789161D02*
X85378390Y-49741542D01*
X85378390Y-49741542D02*
X85473628Y-49693923D01*
X85473628Y-49693923D02*
X85759342Y-49693923D01*
X85759342Y-49693923D02*
X85854580Y-49741542D01*
X85854580Y-49741542D02*
X85902200Y-49789161D01*
X85902200Y-49789161D02*
X85949819Y-49884399D01*
X85949819Y-49884399D02*
X85949819Y-50027256D01*
X85949819Y-49265351D02*
X85283152Y-49265351D01*
X85473628Y-49265351D02*
X85378390Y-49217732D01*
X85378390Y-49217732D02*
X85330771Y-49170113D01*
X85330771Y-49170113D02*
X85283152Y-49074875D01*
X85283152Y-49074875D02*
X85283152Y-48979637D01*
X85902200Y-48693922D02*
X85949819Y-48598684D01*
X85949819Y-48598684D02*
X85949819Y-48408208D01*
X85949819Y-48408208D02*
X85902200Y-48312970D01*
X85902200Y-48312970D02*
X85806961Y-48265351D01*
X85806961Y-48265351D02*
X85759342Y-48265351D01*
X85759342Y-48265351D02*
X85664104Y-48312970D01*
X85664104Y-48312970D02*
X85616485Y-48408208D01*
X85616485Y-48408208D02*
X85616485Y-48551065D01*
X85616485Y-48551065D02*
X85568866Y-48646303D01*
X85568866Y-48646303D02*
X85473628Y-48693922D01*
X85473628Y-48693922D02*
X85426009Y-48693922D01*
X85426009Y-48693922D02*
X85330771Y-48646303D01*
X85330771Y-48646303D02*
X85283152Y-48551065D01*
X85283152Y-48551065D02*
X85283152Y-48408208D01*
X85283152Y-48408208D02*
X85330771Y-48312970D01*
X85949819Y-47836779D02*
X84949819Y-47836779D01*
X85568866Y-47741541D02*
X85949819Y-47455827D01*
X85283152Y-47455827D02*
X85664104Y-47836779D01*
X85902200Y-46646303D02*
X85949819Y-46741541D01*
X85949819Y-46741541D02*
X85949819Y-46932017D01*
X85949819Y-46932017D02*
X85902200Y-47027255D01*
X85902200Y-47027255D02*
X85806961Y-47074874D01*
X85806961Y-47074874D02*
X85426009Y-47074874D01*
X85426009Y-47074874D02*
X85330771Y-47027255D01*
X85330771Y-47027255D02*
X85283152Y-46932017D01*
X85283152Y-46932017D02*
X85283152Y-46741541D01*
X85283152Y-46741541D02*
X85330771Y-46646303D01*
X85330771Y-46646303D02*
X85426009Y-46598684D01*
X85426009Y-46598684D02*
X85521247Y-46598684D01*
X85521247Y-46598684D02*
X85616485Y-47074874D01*
X85283152Y-45741541D02*
X86092676Y-45741541D01*
X86092676Y-45741541D02*
X86187914Y-45789160D01*
X86187914Y-45789160D02*
X86235533Y-45836779D01*
X86235533Y-45836779D02*
X86283152Y-45932017D01*
X86283152Y-45932017D02*
X86283152Y-46074874D01*
X86283152Y-46074874D02*
X86235533Y-46170112D01*
X85902200Y-45741541D02*
X85949819Y-45836779D01*
X85949819Y-45836779D02*
X85949819Y-46027255D01*
X85949819Y-46027255D02*
X85902200Y-46122493D01*
X85902200Y-46122493D02*
X85854580Y-46170112D01*
X85854580Y-46170112D02*
X85759342Y-46217731D01*
X85759342Y-46217731D02*
X85473628Y-46217731D01*
X85473628Y-46217731D02*
X85378390Y-46170112D01*
X85378390Y-46170112D02*
X85330771Y-46122493D01*
X85330771Y-46122493D02*
X85283152Y-46027255D01*
X85283152Y-46027255D02*
X85283152Y-45836779D01*
X85283152Y-45836779D02*
X85330771Y-45741541D01*
X85283152Y-44836779D02*
X86092676Y-44836779D01*
X86092676Y-44836779D02*
X86187914Y-44884398D01*
X86187914Y-44884398D02*
X86235533Y-44932017D01*
X86235533Y-44932017D02*
X86283152Y-45027255D01*
X86283152Y-45027255D02*
X86283152Y-45170112D01*
X86283152Y-45170112D02*
X86235533Y-45265350D01*
X85902200Y-44836779D02*
X85949819Y-44932017D01*
X85949819Y-44932017D02*
X85949819Y-45122493D01*
X85949819Y-45122493D02*
X85902200Y-45217731D01*
X85902200Y-45217731D02*
X85854580Y-45265350D01*
X85854580Y-45265350D02*
X85759342Y-45312969D01*
X85759342Y-45312969D02*
X85473628Y-45312969D01*
X85473628Y-45312969D02*
X85378390Y-45265350D01*
X85378390Y-45265350D02*
X85330771Y-45217731D01*
X85330771Y-45217731D02*
X85283152Y-45122493D01*
X85283152Y-45122493D02*
X85283152Y-44932017D01*
X85283152Y-44932017D02*
X85330771Y-44836779D01*
X58836779Y-37626121D02*
X59170112Y-37626121D01*
X59312969Y-38149931D02*
X58836779Y-38149931D01*
X58836779Y-38149931D02*
X58836779Y-37149931D01*
X58836779Y-37149931D02*
X59312969Y-37149931D01*
X59741541Y-38149931D02*
X59741541Y-37483264D01*
X59741541Y-37149931D02*
X59693922Y-37197550D01*
X59693922Y-37197550D02*
X59741541Y-37245169D01*
X59741541Y-37245169D02*
X59789160Y-37197550D01*
X59789160Y-37197550D02*
X59741541Y-37149931D01*
X59741541Y-37149931D02*
X59741541Y-37245169D01*
X60074874Y-37483264D02*
X60455826Y-37483264D01*
X60217731Y-37149931D02*
X60217731Y-38007073D01*
X60217731Y-38007073D02*
X60265350Y-38102312D01*
X60265350Y-38102312D02*
X60360588Y-38149931D01*
X60360588Y-38149931D02*
X60455826Y-38149931D01*
X60789160Y-38149931D02*
X60789160Y-37149931D01*
X61217731Y-38149931D02*
X61217731Y-37626121D01*
X61217731Y-37626121D02*
X61170112Y-37530883D01*
X61170112Y-37530883D02*
X61074874Y-37483264D01*
X61074874Y-37483264D02*
X60932017Y-37483264D01*
X60932017Y-37483264D02*
X60836779Y-37530883D01*
X60836779Y-37530883D02*
X60789160Y-37578502D01*
X62074874Y-38102312D02*
X61979636Y-38149931D01*
X61979636Y-38149931D02*
X61789160Y-38149931D01*
X61789160Y-38149931D02*
X61693922Y-38102312D01*
X61693922Y-38102312D02*
X61646303Y-38007073D01*
X61646303Y-38007073D02*
X61646303Y-37626121D01*
X61646303Y-37626121D02*
X61693922Y-37530883D01*
X61693922Y-37530883D02*
X61789160Y-37483264D01*
X61789160Y-37483264D02*
X61979636Y-37483264D01*
X61979636Y-37483264D02*
X62074874Y-37530883D01*
X62074874Y-37530883D02*
X62122493Y-37626121D01*
X62122493Y-37626121D02*
X62122493Y-37721359D01*
X62122493Y-37721359D02*
X61646303Y-37816597D01*
X62551065Y-38149931D02*
X62551065Y-37483264D01*
X62551065Y-37673740D02*
X62598684Y-37578502D01*
X62598684Y-37578502D02*
X62646303Y-37530883D01*
X62646303Y-37530883D02*
X62741541Y-37483264D01*
X62741541Y-37483264D02*
X62836779Y-37483264D01*
X64360589Y-38149931D02*
X64360589Y-37149931D01*
X64360589Y-38102312D02*
X64265351Y-38149931D01*
X64265351Y-38149931D02*
X64074875Y-38149931D01*
X64074875Y-38149931D02*
X63979637Y-38102312D01*
X63979637Y-38102312D02*
X63932018Y-38054692D01*
X63932018Y-38054692D02*
X63884399Y-37959454D01*
X63884399Y-37959454D02*
X63884399Y-37673740D01*
X63884399Y-37673740D02*
X63932018Y-37578502D01*
X63932018Y-37578502D02*
X63979637Y-37530883D01*
X63979637Y-37530883D02*
X64074875Y-37483264D01*
X64074875Y-37483264D02*
X64265351Y-37483264D01*
X64265351Y-37483264D02*
X64360589Y-37530883D01*
X64836780Y-38149931D02*
X64836780Y-37483264D01*
X64836780Y-37673740D02*
X64884399Y-37578502D01*
X64884399Y-37578502D02*
X64932018Y-37530883D01*
X64932018Y-37530883D02*
X65027256Y-37483264D01*
X65027256Y-37483264D02*
X65122494Y-37483264D01*
X65598685Y-38149931D02*
X65503447Y-38102312D01*
X65503447Y-38102312D02*
X65455828Y-38054692D01*
X65455828Y-38054692D02*
X65408209Y-37959454D01*
X65408209Y-37959454D02*
X65408209Y-37673740D01*
X65408209Y-37673740D02*
X65455828Y-37578502D01*
X65455828Y-37578502D02*
X65503447Y-37530883D01*
X65503447Y-37530883D02*
X65598685Y-37483264D01*
X65598685Y-37483264D02*
X65741542Y-37483264D01*
X65741542Y-37483264D02*
X65836780Y-37530883D01*
X65836780Y-37530883D02*
X65884399Y-37578502D01*
X65884399Y-37578502D02*
X65932018Y-37673740D01*
X65932018Y-37673740D02*
X65932018Y-37959454D01*
X65932018Y-37959454D02*
X65884399Y-38054692D01*
X65884399Y-38054692D02*
X65836780Y-38102312D01*
X65836780Y-38102312D02*
X65741542Y-38149931D01*
X65741542Y-38149931D02*
X65598685Y-38149931D01*
X66360590Y-37483264D02*
X66360590Y-38483264D01*
X66360590Y-37530883D02*
X66455828Y-37483264D01*
X66455828Y-37483264D02*
X66646304Y-37483264D01*
X66646304Y-37483264D02*
X66741542Y-37530883D01*
X66741542Y-37530883D02*
X66789161Y-37578502D01*
X66789161Y-37578502D02*
X66836780Y-37673740D01*
X66836780Y-37673740D02*
X66836780Y-37959454D01*
X66836780Y-37959454D02*
X66789161Y-38054692D01*
X66789161Y-38054692D02*
X66741542Y-38102312D01*
X66741542Y-38102312D02*
X66646304Y-38149931D01*
X66646304Y-38149931D02*
X66455828Y-38149931D01*
X66455828Y-38149931D02*
X66360590Y-38102312D01*
X67932019Y-37483264D02*
X68170114Y-38149931D01*
X68170114Y-38149931D02*
X68408209Y-37483264D01*
X68932019Y-38149931D02*
X68836781Y-38102312D01*
X68836781Y-38102312D02*
X68789162Y-38054692D01*
X68789162Y-38054692D02*
X68741543Y-37959454D01*
X68741543Y-37959454D02*
X68741543Y-37673740D01*
X68741543Y-37673740D02*
X68789162Y-37578502D01*
X68789162Y-37578502D02*
X68836781Y-37530883D01*
X68836781Y-37530883D02*
X68932019Y-37483264D01*
X68932019Y-37483264D02*
X69074876Y-37483264D01*
X69074876Y-37483264D02*
X69170114Y-37530883D01*
X69170114Y-37530883D02*
X69217733Y-37578502D01*
X69217733Y-37578502D02*
X69265352Y-37673740D01*
X69265352Y-37673740D02*
X69265352Y-37959454D01*
X69265352Y-37959454D02*
X69217733Y-38054692D01*
X69217733Y-38054692D02*
X69170114Y-38102312D01*
X69170114Y-38102312D02*
X69074876Y-38149931D01*
X69074876Y-38149931D02*
X68932019Y-38149931D01*
X69836781Y-38149931D02*
X69741543Y-38102312D01*
X69741543Y-38102312D02*
X69693924Y-38007073D01*
X69693924Y-38007073D02*
X69693924Y-37149931D01*
X70074877Y-37483264D02*
X70455829Y-37483264D01*
X70217734Y-37149931D02*
X70217734Y-38007073D01*
X70217734Y-38007073D02*
X70265353Y-38102312D01*
X70265353Y-38102312D02*
X70360591Y-38149931D01*
X70360591Y-38149931D02*
X70455829Y-38149931D01*
X71217734Y-38149931D02*
X71217734Y-37626121D01*
X71217734Y-37626121D02*
X71170115Y-37530883D01*
X71170115Y-37530883D02*
X71074877Y-37483264D01*
X71074877Y-37483264D02*
X70884401Y-37483264D01*
X70884401Y-37483264D02*
X70789163Y-37530883D01*
X71217734Y-38102312D02*
X71122496Y-38149931D01*
X71122496Y-38149931D02*
X70884401Y-38149931D01*
X70884401Y-38149931D02*
X70789163Y-38102312D01*
X70789163Y-38102312D02*
X70741544Y-38007073D01*
X70741544Y-38007073D02*
X70741544Y-37911835D01*
X70741544Y-37911835D02*
X70789163Y-37816597D01*
X70789163Y-37816597D02*
X70884401Y-37768978D01*
X70884401Y-37768978D02*
X71122496Y-37768978D01*
X71122496Y-37768978D02*
X71217734Y-37721359D01*
X72122496Y-37483264D02*
X72122496Y-38292788D01*
X72122496Y-38292788D02*
X72074877Y-38388026D01*
X72074877Y-38388026D02*
X72027258Y-38435645D01*
X72027258Y-38435645D02*
X71932020Y-38483264D01*
X71932020Y-38483264D02*
X71789163Y-38483264D01*
X71789163Y-38483264D02*
X71693925Y-38435645D01*
X72122496Y-38102312D02*
X72027258Y-38149931D01*
X72027258Y-38149931D02*
X71836782Y-38149931D01*
X71836782Y-38149931D02*
X71741544Y-38102312D01*
X71741544Y-38102312D02*
X71693925Y-38054692D01*
X71693925Y-38054692D02*
X71646306Y-37959454D01*
X71646306Y-37959454D02*
X71646306Y-37673740D01*
X71646306Y-37673740D02*
X71693925Y-37578502D01*
X71693925Y-37578502D02*
X71741544Y-37530883D01*
X71741544Y-37530883D02*
X71836782Y-37483264D01*
X71836782Y-37483264D02*
X72027258Y-37483264D01*
X72027258Y-37483264D02*
X72122496Y-37530883D01*
X72979639Y-38102312D02*
X72884401Y-38149931D01*
X72884401Y-38149931D02*
X72693925Y-38149931D01*
X72693925Y-38149931D02*
X72598687Y-38102312D01*
X72598687Y-38102312D02*
X72551068Y-38007073D01*
X72551068Y-38007073D02*
X72551068Y-37626121D01*
X72551068Y-37626121D02*
X72598687Y-37530883D01*
X72598687Y-37530883D02*
X72693925Y-37483264D01*
X72693925Y-37483264D02*
X72884401Y-37483264D01*
X72884401Y-37483264D02*
X72979639Y-37530883D01*
X72979639Y-37530883D02*
X73027258Y-37626121D01*
X73027258Y-37626121D02*
X73027258Y-37721359D01*
X73027258Y-37721359D02*
X72551068Y-37816597D01*
X74122497Y-37483264D02*
X74312973Y-38149931D01*
X74312973Y-38149931D02*
X74503449Y-37673740D01*
X74503449Y-37673740D02*
X74693925Y-38149931D01*
X74693925Y-38149931D02*
X74884401Y-37483264D01*
X75265354Y-38149931D02*
X75265354Y-37483264D01*
X75265354Y-37149931D02*
X75217735Y-37197550D01*
X75217735Y-37197550D02*
X75265354Y-37245169D01*
X75265354Y-37245169D02*
X75312973Y-37197550D01*
X75312973Y-37197550D02*
X75265354Y-37149931D01*
X75265354Y-37149931D02*
X75265354Y-37245169D01*
X75598687Y-37483264D02*
X75979639Y-37483264D01*
X75741544Y-37149931D02*
X75741544Y-38007073D01*
X75741544Y-38007073D02*
X75789163Y-38102312D01*
X75789163Y-38102312D02*
X75884401Y-38149931D01*
X75884401Y-38149931D02*
X75979639Y-38149931D01*
X76312973Y-38149931D02*
X76312973Y-37149931D01*
X76741544Y-38149931D02*
X76741544Y-37626121D01*
X76741544Y-37626121D02*
X76693925Y-37530883D01*
X76693925Y-37530883D02*
X76598687Y-37483264D01*
X76598687Y-37483264D02*
X76455830Y-37483264D01*
X76455830Y-37483264D02*
X76360592Y-37530883D01*
X76360592Y-37530883D02*
X76312973Y-37578502D01*
X78551068Y-38149931D02*
X78217735Y-37673740D01*
X77979640Y-38149931D02*
X77979640Y-37149931D01*
X77979640Y-37149931D02*
X78360592Y-37149931D01*
X78360592Y-37149931D02*
X78455830Y-37197550D01*
X78455830Y-37197550D02*
X78503449Y-37245169D01*
X78503449Y-37245169D02*
X78551068Y-37340407D01*
X78551068Y-37340407D02*
X78551068Y-37483264D01*
X78551068Y-37483264D02*
X78503449Y-37578502D01*
X78503449Y-37578502D02*
X78455830Y-37626121D01*
X78455830Y-37626121D02*
X78360592Y-37673740D01*
X78360592Y-37673740D02*
X77979640Y-37673740D01*
X79503449Y-38149931D02*
X78932021Y-38149931D01*
X79217735Y-38149931D02*
X79217735Y-37149931D01*
X79217735Y-37149931D02*
X79122497Y-37292788D01*
X79122497Y-37292788D02*
X79027259Y-37388026D01*
X79027259Y-37388026D02*
X78932021Y-37435645D01*
X59265350Y-39759875D02*
X59265350Y-39236065D01*
X59265350Y-39236065D02*
X59217731Y-39140827D01*
X59217731Y-39140827D02*
X59122493Y-39093208D01*
X59122493Y-39093208D02*
X58932017Y-39093208D01*
X58932017Y-39093208D02*
X58836779Y-39140827D01*
X59265350Y-39712256D02*
X59170112Y-39759875D01*
X59170112Y-39759875D02*
X58932017Y-39759875D01*
X58932017Y-39759875D02*
X58836779Y-39712256D01*
X58836779Y-39712256D02*
X58789160Y-39617017D01*
X58789160Y-39617017D02*
X58789160Y-39521779D01*
X58789160Y-39521779D02*
X58836779Y-39426541D01*
X58836779Y-39426541D02*
X58932017Y-39378922D01*
X58932017Y-39378922D02*
X59170112Y-39378922D01*
X59170112Y-39378922D02*
X59265350Y-39331303D01*
X59741541Y-39093208D02*
X59741541Y-39759875D01*
X59741541Y-39188446D02*
X59789160Y-39140827D01*
X59789160Y-39140827D02*
X59884398Y-39093208D01*
X59884398Y-39093208D02*
X60027255Y-39093208D01*
X60027255Y-39093208D02*
X60122493Y-39140827D01*
X60122493Y-39140827D02*
X60170112Y-39236065D01*
X60170112Y-39236065D02*
X60170112Y-39759875D01*
X61074874Y-39759875D02*
X61074874Y-38759875D01*
X61074874Y-39712256D02*
X60979636Y-39759875D01*
X60979636Y-39759875D02*
X60789160Y-39759875D01*
X60789160Y-39759875D02*
X60693922Y-39712256D01*
X60693922Y-39712256D02*
X60646303Y-39664636D01*
X60646303Y-39664636D02*
X60598684Y-39569398D01*
X60598684Y-39569398D02*
X60598684Y-39283684D01*
X60598684Y-39283684D02*
X60646303Y-39188446D01*
X60646303Y-39188446D02*
X60693922Y-39140827D01*
X60693922Y-39140827D02*
X60789160Y-39093208D01*
X60789160Y-39093208D02*
X60979636Y-39093208D01*
X60979636Y-39093208D02*
X61074874Y-39140827D01*
X62884398Y-39759875D02*
X62551065Y-39283684D01*
X62312970Y-39759875D02*
X62312970Y-38759875D01*
X62312970Y-38759875D02*
X62693922Y-38759875D01*
X62693922Y-38759875D02*
X62789160Y-38807494D01*
X62789160Y-38807494D02*
X62836779Y-38855113D01*
X62836779Y-38855113D02*
X62884398Y-38950351D01*
X62884398Y-38950351D02*
X62884398Y-39093208D01*
X62884398Y-39093208D02*
X62836779Y-39188446D01*
X62836779Y-39188446D02*
X62789160Y-39236065D01*
X62789160Y-39236065D02*
X62693922Y-39283684D01*
X62693922Y-39283684D02*
X62312970Y-39283684D01*
X63265351Y-38855113D02*
X63312970Y-38807494D01*
X63312970Y-38807494D02*
X63408208Y-38759875D01*
X63408208Y-38759875D02*
X63646303Y-38759875D01*
X63646303Y-38759875D02*
X63741541Y-38807494D01*
X63741541Y-38807494D02*
X63789160Y-38855113D01*
X63789160Y-38855113D02*
X63836779Y-38950351D01*
X63836779Y-38950351D02*
X63836779Y-39045589D01*
X63836779Y-39045589D02*
X63789160Y-39188446D01*
X63789160Y-39188446D02*
X63217732Y-39759875D01*
X63217732Y-39759875D02*
X63836779Y-39759875D01*
X64312970Y-39712256D02*
X64312970Y-39759875D01*
X64312970Y-39759875D02*
X64265351Y-39855113D01*
X64265351Y-39855113D02*
X64217732Y-39902732D01*
X65646303Y-39759875D02*
X65551065Y-39712256D01*
X65551065Y-39712256D02*
X65503446Y-39664636D01*
X65503446Y-39664636D02*
X65455827Y-39569398D01*
X65455827Y-39569398D02*
X65455827Y-39283684D01*
X65455827Y-39283684D02*
X65503446Y-39188446D01*
X65503446Y-39188446D02*
X65551065Y-39140827D01*
X65551065Y-39140827D02*
X65646303Y-39093208D01*
X65646303Y-39093208D02*
X65789160Y-39093208D01*
X65789160Y-39093208D02*
X65884398Y-39140827D01*
X65884398Y-39140827D02*
X65932017Y-39188446D01*
X65932017Y-39188446D02*
X65979636Y-39283684D01*
X65979636Y-39283684D02*
X65979636Y-39569398D01*
X65979636Y-39569398D02*
X65932017Y-39664636D01*
X65932017Y-39664636D02*
X65884398Y-39712256D01*
X65884398Y-39712256D02*
X65789160Y-39759875D01*
X65789160Y-39759875D02*
X65646303Y-39759875D01*
X66408208Y-39759875D02*
X66408208Y-39093208D01*
X66408208Y-39283684D02*
X66455827Y-39188446D01*
X66455827Y-39188446D02*
X66503446Y-39140827D01*
X66503446Y-39140827D02*
X66598684Y-39093208D01*
X66598684Y-39093208D02*
X66693922Y-39093208D01*
X68217732Y-39093208D02*
X68217732Y-39759875D01*
X67789161Y-39093208D02*
X67789161Y-39617017D01*
X67789161Y-39617017D02*
X67836780Y-39712256D01*
X67836780Y-39712256D02*
X67932018Y-39759875D01*
X67932018Y-39759875D02*
X68074875Y-39759875D01*
X68074875Y-39759875D02*
X68170113Y-39712256D01*
X68170113Y-39712256D02*
X68217732Y-39664636D01*
X68646304Y-39712256D02*
X68741542Y-39759875D01*
X68741542Y-39759875D02*
X68932018Y-39759875D01*
X68932018Y-39759875D02*
X69027256Y-39712256D01*
X69027256Y-39712256D02*
X69074875Y-39617017D01*
X69074875Y-39617017D02*
X69074875Y-39569398D01*
X69074875Y-39569398D02*
X69027256Y-39474160D01*
X69027256Y-39474160D02*
X68932018Y-39426541D01*
X68932018Y-39426541D02*
X68789161Y-39426541D01*
X68789161Y-39426541D02*
X68693923Y-39378922D01*
X68693923Y-39378922D02*
X68646304Y-39283684D01*
X68646304Y-39283684D02*
X68646304Y-39236065D01*
X68646304Y-39236065D02*
X68693923Y-39140827D01*
X68693923Y-39140827D02*
X68789161Y-39093208D01*
X68789161Y-39093208D02*
X68932018Y-39093208D01*
X68932018Y-39093208D02*
X69027256Y-39140827D01*
X69884399Y-39712256D02*
X69789161Y-39759875D01*
X69789161Y-39759875D02*
X69598685Y-39759875D01*
X69598685Y-39759875D02*
X69503447Y-39712256D01*
X69503447Y-39712256D02*
X69455828Y-39617017D01*
X69455828Y-39617017D02*
X69455828Y-39236065D01*
X69455828Y-39236065D02*
X69503447Y-39140827D01*
X69503447Y-39140827D02*
X69598685Y-39093208D01*
X69598685Y-39093208D02*
X69789161Y-39093208D01*
X69789161Y-39093208D02*
X69884399Y-39140827D01*
X69884399Y-39140827D02*
X69932018Y-39236065D01*
X69932018Y-39236065D02*
X69932018Y-39331303D01*
X69932018Y-39331303D02*
X69455828Y-39426541D01*
X71598685Y-39759875D02*
X71122495Y-39759875D01*
X71122495Y-39759875D02*
X71122495Y-38759875D01*
X71932019Y-39759875D02*
X71932019Y-38759875D01*
X71932019Y-38759875D02*
X72265352Y-39474160D01*
X72265352Y-39474160D02*
X72598685Y-38759875D01*
X72598685Y-38759875D02*
X72598685Y-39759875D01*
X72979638Y-38759875D02*
X73598685Y-38759875D01*
X73598685Y-38759875D02*
X73265352Y-39140827D01*
X73265352Y-39140827D02*
X73408209Y-39140827D01*
X73408209Y-39140827D02*
X73503447Y-39188446D01*
X73503447Y-39188446D02*
X73551066Y-39236065D01*
X73551066Y-39236065D02*
X73598685Y-39331303D01*
X73598685Y-39331303D02*
X73598685Y-39569398D01*
X73598685Y-39569398D02*
X73551066Y-39664636D01*
X73551066Y-39664636D02*
X73503447Y-39712256D01*
X73503447Y-39712256D02*
X73408209Y-39759875D01*
X73408209Y-39759875D02*
X73122495Y-39759875D01*
X73122495Y-39759875D02*
X73027257Y-39712256D01*
X73027257Y-39712256D02*
X72979638Y-39664636D01*
X74551066Y-39759875D02*
X73979638Y-39759875D01*
X74265352Y-39759875D02*
X74265352Y-38759875D01*
X74265352Y-38759875D02*
X74170114Y-38902732D01*
X74170114Y-38902732D02*
X74074876Y-38997970D01*
X74074876Y-38997970D02*
X73979638Y-39045589D01*
X74884400Y-38759875D02*
X75551066Y-38759875D01*
X75551066Y-38759875D02*
X75122495Y-39759875D01*
X76408209Y-39759875D02*
X75932019Y-39759875D01*
X75932019Y-39759875D02*
X75932019Y-38759875D01*
X77408210Y-39093208D02*
X77598686Y-39759875D01*
X77598686Y-39759875D02*
X77789162Y-39283684D01*
X77789162Y-39283684D02*
X77979638Y-39759875D01*
X77979638Y-39759875D02*
X78170114Y-39093208D01*
X78551067Y-39759875D02*
X78551067Y-39093208D01*
X78551067Y-38759875D02*
X78503448Y-38807494D01*
X78503448Y-38807494D02*
X78551067Y-38855113D01*
X78551067Y-38855113D02*
X78598686Y-38807494D01*
X78598686Y-38807494D02*
X78551067Y-38759875D01*
X78551067Y-38759875D02*
X78551067Y-38855113D01*
X78884400Y-39093208D02*
X79265352Y-39093208D01*
X79027257Y-38759875D02*
X79027257Y-39617017D01*
X79027257Y-39617017D02*
X79074876Y-39712256D01*
X79074876Y-39712256D02*
X79170114Y-39759875D01*
X79170114Y-39759875D02*
X79265352Y-39759875D01*
X79598686Y-39759875D02*
X79598686Y-38759875D01*
X80027257Y-39759875D02*
X80027257Y-39236065D01*
X80027257Y-39236065D02*
X79979638Y-39140827D01*
X79979638Y-39140827D02*
X79884400Y-39093208D01*
X79884400Y-39093208D02*
X79741543Y-39093208D01*
X79741543Y-39093208D02*
X79646305Y-39140827D01*
X79646305Y-39140827D02*
X79598686Y-39188446D01*
X59408207Y-41369819D02*
X59074874Y-40893628D01*
X58836779Y-41369819D02*
X58836779Y-40369819D01*
X58836779Y-40369819D02*
X59217731Y-40369819D01*
X59217731Y-40369819D02*
X59312969Y-40417438D01*
X59312969Y-40417438D02*
X59360588Y-40465057D01*
X59360588Y-40465057D02*
X59408207Y-40560295D01*
X59408207Y-40560295D02*
X59408207Y-40703152D01*
X59408207Y-40703152D02*
X59360588Y-40798390D01*
X59360588Y-40798390D02*
X59312969Y-40846009D01*
X59312969Y-40846009D02*
X59217731Y-40893628D01*
X59217731Y-40893628D02*
X58836779Y-40893628D01*
X59741541Y-40369819D02*
X60408207Y-40369819D01*
X60408207Y-40369819D02*
X59979636Y-41369819D01*
X61979636Y-41369819D02*
X61979636Y-40846009D01*
X61979636Y-40846009D02*
X61932017Y-40750771D01*
X61932017Y-40750771D02*
X61836779Y-40703152D01*
X61836779Y-40703152D02*
X61646303Y-40703152D01*
X61646303Y-40703152D02*
X61551065Y-40750771D01*
X61979636Y-41322200D02*
X61884398Y-41369819D01*
X61884398Y-41369819D02*
X61646303Y-41369819D01*
X61646303Y-41369819D02*
X61551065Y-41322200D01*
X61551065Y-41322200D02*
X61503446Y-41226961D01*
X61503446Y-41226961D02*
X61503446Y-41131723D01*
X61503446Y-41131723D02*
X61551065Y-41036485D01*
X61551065Y-41036485D02*
X61646303Y-40988866D01*
X61646303Y-40988866D02*
X61884398Y-40988866D01*
X61884398Y-40988866D02*
X61979636Y-40941247D01*
X62455827Y-40703152D02*
X62455827Y-41369819D01*
X62455827Y-40798390D02*
X62503446Y-40750771D01*
X62503446Y-40750771D02*
X62598684Y-40703152D01*
X62598684Y-40703152D02*
X62741541Y-40703152D01*
X62741541Y-40703152D02*
X62836779Y-40750771D01*
X62836779Y-40750771D02*
X62884398Y-40846009D01*
X62884398Y-40846009D02*
X62884398Y-41369819D01*
X63789160Y-41369819D02*
X63789160Y-40369819D01*
X63789160Y-41322200D02*
X63693922Y-41369819D01*
X63693922Y-41369819D02*
X63503446Y-41369819D01*
X63503446Y-41369819D02*
X63408208Y-41322200D01*
X63408208Y-41322200D02*
X63360589Y-41274580D01*
X63360589Y-41274580D02*
X63312970Y-41179342D01*
X63312970Y-41179342D02*
X63312970Y-40893628D01*
X63312970Y-40893628D02*
X63360589Y-40798390D01*
X63360589Y-40798390D02*
X63408208Y-40750771D01*
X63408208Y-40750771D02*
X63503446Y-40703152D01*
X63503446Y-40703152D02*
X63693922Y-40703152D01*
X63693922Y-40703152D02*
X63789160Y-40750771D01*
X65312970Y-41750771D02*
X65265351Y-41703152D01*
X65265351Y-41703152D02*
X65170113Y-41560295D01*
X65170113Y-41560295D02*
X65122494Y-41465057D01*
X65122494Y-41465057D02*
X65074875Y-41322200D01*
X65074875Y-41322200D02*
X65027256Y-41084104D01*
X65027256Y-41084104D02*
X65027256Y-40893628D01*
X65027256Y-40893628D02*
X65074875Y-40655533D01*
X65074875Y-40655533D02*
X65122494Y-40512676D01*
X65122494Y-40512676D02*
X65170113Y-40417438D01*
X65170113Y-40417438D02*
X65265351Y-40274580D01*
X65265351Y-40274580D02*
X65312970Y-40226961D01*
X65836780Y-41369819D02*
X65741542Y-41322200D01*
X65741542Y-41322200D02*
X65693923Y-41274580D01*
X65693923Y-41274580D02*
X65646304Y-41179342D01*
X65646304Y-41179342D02*
X65646304Y-40893628D01*
X65646304Y-40893628D02*
X65693923Y-40798390D01*
X65693923Y-40798390D02*
X65741542Y-40750771D01*
X65741542Y-40750771D02*
X65836780Y-40703152D01*
X65836780Y-40703152D02*
X65979637Y-40703152D01*
X65979637Y-40703152D02*
X66074875Y-40750771D01*
X66074875Y-40750771D02*
X66122494Y-40798390D01*
X66122494Y-40798390D02*
X66170113Y-40893628D01*
X66170113Y-40893628D02*
X66170113Y-41179342D01*
X66170113Y-41179342D02*
X66122494Y-41274580D01*
X66122494Y-41274580D02*
X66074875Y-41322200D01*
X66074875Y-41322200D02*
X65979637Y-41369819D01*
X65979637Y-41369819D02*
X65836780Y-41369819D01*
X66598685Y-40703152D02*
X66598685Y-41703152D01*
X66598685Y-40750771D02*
X66693923Y-40703152D01*
X66693923Y-40703152D02*
X66884399Y-40703152D01*
X66884399Y-40703152D02*
X66979637Y-40750771D01*
X66979637Y-40750771D02*
X67027256Y-40798390D01*
X67027256Y-40798390D02*
X67074875Y-40893628D01*
X67074875Y-40893628D02*
X67074875Y-41179342D01*
X67074875Y-41179342D02*
X67027256Y-41274580D01*
X67027256Y-41274580D02*
X66979637Y-41322200D01*
X66979637Y-41322200D02*
X66884399Y-41369819D01*
X66884399Y-41369819D02*
X66693923Y-41369819D01*
X66693923Y-41369819D02*
X66598685Y-41322200D01*
X67360590Y-40703152D02*
X67741542Y-40703152D01*
X67503447Y-40369819D02*
X67503447Y-41226961D01*
X67503447Y-41226961D02*
X67551066Y-41322200D01*
X67551066Y-41322200D02*
X67646304Y-41369819D01*
X67646304Y-41369819D02*
X67741542Y-41369819D01*
X68074876Y-41369819D02*
X68074876Y-40703152D01*
X68074876Y-40369819D02*
X68027257Y-40417438D01*
X68027257Y-40417438D02*
X68074876Y-40465057D01*
X68074876Y-40465057D02*
X68122495Y-40417438D01*
X68122495Y-40417438D02*
X68074876Y-40369819D01*
X68074876Y-40369819D02*
X68074876Y-40465057D01*
X68693923Y-41369819D02*
X68598685Y-41322200D01*
X68598685Y-41322200D02*
X68551066Y-41274580D01*
X68551066Y-41274580D02*
X68503447Y-41179342D01*
X68503447Y-41179342D02*
X68503447Y-40893628D01*
X68503447Y-40893628D02*
X68551066Y-40798390D01*
X68551066Y-40798390D02*
X68598685Y-40750771D01*
X68598685Y-40750771D02*
X68693923Y-40703152D01*
X68693923Y-40703152D02*
X68836780Y-40703152D01*
X68836780Y-40703152D02*
X68932018Y-40750771D01*
X68932018Y-40750771D02*
X68979637Y-40798390D01*
X68979637Y-40798390D02*
X69027256Y-40893628D01*
X69027256Y-40893628D02*
X69027256Y-41179342D01*
X69027256Y-41179342D02*
X68979637Y-41274580D01*
X68979637Y-41274580D02*
X68932018Y-41322200D01*
X68932018Y-41322200D02*
X68836780Y-41369819D01*
X68836780Y-41369819D02*
X68693923Y-41369819D01*
X69455828Y-40703152D02*
X69455828Y-41369819D01*
X69455828Y-40798390D02*
X69503447Y-40750771D01*
X69503447Y-40750771D02*
X69598685Y-40703152D01*
X69598685Y-40703152D02*
X69741542Y-40703152D01*
X69741542Y-40703152D02*
X69836780Y-40750771D01*
X69836780Y-40750771D02*
X69884399Y-40846009D01*
X69884399Y-40846009D02*
X69884399Y-41369819D01*
X70789161Y-41369819D02*
X70789161Y-40846009D01*
X70789161Y-40846009D02*
X70741542Y-40750771D01*
X70741542Y-40750771D02*
X70646304Y-40703152D01*
X70646304Y-40703152D02*
X70455828Y-40703152D01*
X70455828Y-40703152D02*
X70360590Y-40750771D01*
X70789161Y-41322200D02*
X70693923Y-41369819D01*
X70693923Y-41369819D02*
X70455828Y-41369819D01*
X70455828Y-41369819D02*
X70360590Y-41322200D01*
X70360590Y-41322200D02*
X70312971Y-41226961D01*
X70312971Y-41226961D02*
X70312971Y-41131723D01*
X70312971Y-41131723D02*
X70360590Y-41036485D01*
X70360590Y-41036485D02*
X70455828Y-40988866D01*
X70455828Y-40988866D02*
X70693923Y-40988866D01*
X70693923Y-40988866D02*
X70789161Y-40941247D01*
X71408209Y-41369819D02*
X71312971Y-41322200D01*
X71312971Y-41322200D02*
X71265352Y-41226961D01*
X71265352Y-41226961D02*
X71265352Y-40369819D01*
X71932019Y-41369819D02*
X71836781Y-41322200D01*
X71836781Y-41322200D02*
X71789162Y-41226961D01*
X71789162Y-41226961D02*
X71789162Y-40369819D01*
X72217734Y-40703152D02*
X72455829Y-41369819D01*
X72693924Y-40703152D02*
X72455829Y-41369819D01*
X72455829Y-41369819D02*
X72360591Y-41607914D01*
X72360591Y-41607914D02*
X72312972Y-41655533D01*
X72312972Y-41655533D02*
X72217734Y-41703152D01*
X72979639Y-41750771D02*
X73027258Y-41703152D01*
X73027258Y-41703152D02*
X73122496Y-41560295D01*
X73122496Y-41560295D02*
X73170115Y-41465057D01*
X73170115Y-41465057D02*
X73217734Y-41322200D01*
X73217734Y-41322200D02*
X73265353Y-41084104D01*
X73265353Y-41084104D02*
X73265353Y-40893628D01*
X73265353Y-40893628D02*
X73217734Y-40655533D01*
X73217734Y-40655533D02*
X73170115Y-40512676D01*
X73170115Y-40512676D02*
X73122496Y-40417438D01*
X73122496Y-40417438D02*
X73027258Y-40274580D01*
X73027258Y-40274580D02*
X72979639Y-40226961D01*
X75074877Y-41369819D02*
X74741544Y-40893628D01*
X74503449Y-41369819D02*
X74503449Y-40369819D01*
X74503449Y-40369819D02*
X74884401Y-40369819D01*
X74884401Y-40369819D02*
X74979639Y-40417438D01*
X74979639Y-40417438D02*
X75027258Y-40465057D01*
X75027258Y-40465057D02*
X75074877Y-40560295D01*
X75074877Y-40560295D02*
X75074877Y-40703152D01*
X75074877Y-40703152D02*
X75027258Y-40798390D01*
X75027258Y-40798390D02*
X74979639Y-40846009D01*
X74979639Y-40846009D02*
X74884401Y-40893628D01*
X74884401Y-40893628D02*
X74503449Y-40893628D01*
X75646306Y-40798390D02*
X75551068Y-40750771D01*
X75551068Y-40750771D02*
X75503449Y-40703152D01*
X75503449Y-40703152D02*
X75455830Y-40607914D01*
X75455830Y-40607914D02*
X75455830Y-40560295D01*
X75455830Y-40560295D02*
X75503449Y-40465057D01*
X75503449Y-40465057D02*
X75551068Y-40417438D01*
X75551068Y-40417438D02*
X75646306Y-40369819D01*
X75646306Y-40369819D02*
X75836782Y-40369819D01*
X75836782Y-40369819D02*
X75932020Y-40417438D01*
X75932020Y-40417438D02*
X75979639Y-40465057D01*
X75979639Y-40465057D02*
X76027258Y-40560295D01*
X76027258Y-40560295D02*
X76027258Y-40607914D01*
X76027258Y-40607914D02*
X75979639Y-40703152D01*
X75979639Y-40703152D02*
X75932020Y-40750771D01*
X75932020Y-40750771D02*
X75836782Y-40798390D01*
X75836782Y-40798390D02*
X75646306Y-40798390D01*
X75646306Y-40798390D02*
X75551068Y-40846009D01*
X75551068Y-40846009D02*
X75503449Y-40893628D01*
X75503449Y-40893628D02*
X75455830Y-40988866D01*
X75455830Y-40988866D02*
X75455830Y-41179342D01*
X75455830Y-41179342D02*
X75503449Y-41274580D01*
X75503449Y-41274580D02*
X75551068Y-41322200D01*
X75551068Y-41322200D02*
X75646306Y-41369819D01*
X75646306Y-41369819D02*
X75836782Y-41369819D01*
X75836782Y-41369819D02*
X75932020Y-41322200D01*
X75932020Y-41322200D02*
X75979639Y-41274580D01*
X75979639Y-41274580D02*
X76027258Y-41179342D01*
X76027258Y-41179342D02*
X76027258Y-40988866D01*
X76027258Y-40988866D02*
X75979639Y-40893628D01*
X75979639Y-40893628D02*
X75932020Y-40846009D01*
X75932020Y-40846009D02*
X75836782Y-40798390D01*
X76455830Y-41274580D02*
X76503449Y-41322200D01*
X76503449Y-41322200D02*
X76455830Y-41369819D01*
X76455830Y-41369819D02*
X76408211Y-41322200D01*
X76408211Y-41322200D02*
X76455830Y-41274580D01*
X76455830Y-41274580D02*
X76455830Y-41369819D01*
X89726009Y-50467618D02*
X89773628Y-50324761D01*
X89773628Y-50324761D02*
X89821247Y-50277142D01*
X89821247Y-50277142D02*
X89916485Y-50229523D01*
X89916485Y-50229523D02*
X90059342Y-50229523D01*
X90059342Y-50229523D02*
X90154580Y-50277142D01*
X90154580Y-50277142D02*
X90202200Y-50324761D01*
X90202200Y-50324761D02*
X90249819Y-50419999D01*
X90249819Y-50419999D02*
X90249819Y-50800951D01*
X90249819Y-50800951D02*
X89249819Y-50800951D01*
X89249819Y-50800951D02*
X89249819Y-50467618D01*
X89249819Y-50467618D02*
X89297438Y-50372380D01*
X89297438Y-50372380D02*
X89345057Y-50324761D01*
X89345057Y-50324761D02*
X89440295Y-50277142D01*
X89440295Y-50277142D02*
X89535533Y-50277142D01*
X89535533Y-50277142D02*
X89630771Y-50324761D01*
X89630771Y-50324761D02*
X89678390Y-50372380D01*
X89678390Y-50372380D02*
X89726009Y-50467618D01*
X89726009Y-50467618D02*
X89726009Y-50800951D01*
X89868866Y-49800951D02*
X89868866Y-49039047D01*
X90249819Y-49419999D02*
X89487914Y-49419999D01*
X60612200Y-73047618D02*
X60659819Y-72904761D01*
X60659819Y-72904761D02*
X60659819Y-72666666D01*
X60659819Y-72666666D02*
X60612200Y-72571428D01*
X60612200Y-72571428D02*
X60564580Y-72523809D01*
X60564580Y-72523809D02*
X60469342Y-72476190D01*
X60469342Y-72476190D02*
X60374104Y-72476190D01*
X60374104Y-72476190D02*
X60278866Y-72523809D01*
X60278866Y-72523809D02*
X60231247Y-72571428D01*
X60231247Y-72571428D02*
X60183628Y-72666666D01*
X60183628Y-72666666D02*
X60136009Y-72857142D01*
X60136009Y-72857142D02*
X60088390Y-72952380D01*
X60088390Y-72952380D02*
X60040771Y-72999999D01*
X60040771Y-72999999D02*
X59945533Y-73047618D01*
X59945533Y-73047618D02*
X59850295Y-73047618D01*
X59850295Y-73047618D02*
X59755057Y-72999999D01*
X59755057Y-72999999D02*
X59707438Y-72952380D01*
X59707438Y-72952380D02*
X59659819Y-72857142D01*
X59659819Y-72857142D02*
X59659819Y-72619047D01*
X59659819Y-72619047D02*
X59707438Y-72476190D01*
X60659819Y-72047618D02*
X59993152Y-72047618D01*
X59659819Y-72047618D02*
X59707438Y-72095237D01*
X59707438Y-72095237D02*
X59755057Y-72047618D01*
X59755057Y-72047618D02*
X59707438Y-71999999D01*
X59707438Y-71999999D02*
X59659819Y-72047618D01*
X59659819Y-72047618D02*
X59755057Y-72047618D01*
X59993152Y-71142857D02*
X60802676Y-71142857D01*
X60802676Y-71142857D02*
X60897914Y-71190476D01*
X60897914Y-71190476D02*
X60945533Y-71238095D01*
X60945533Y-71238095D02*
X60993152Y-71333333D01*
X60993152Y-71333333D02*
X60993152Y-71476190D01*
X60993152Y-71476190D02*
X60945533Y-71571428D01*
X60612200Y-71142857D02*
X60659819Y-71238095D01*
X60659819Y-71238095D02*
X60659819Y-71428571D01*
X60659819Y-71428571D02*
X60612200Y-71523809D01*
X60612200Y-71523809D02*
X60564580Y-71571428D01*
X60564580Y-71571428D02*
X60469342Y-71619047D01*
X60469342Y-71619047D02*
X60183628Y-71619047D01*
X60183628Y-71619047D02*
X60088390Y-71571428D01*
X60088390Y-71571428D02*
X60040771Y-71523809D01*
X60040771Y-71523809D02*
X59993152Y-71428571D01*
X59993152Y-71428571D02*
X59993152Y-71238095D01*
X59993152Y-71238095D02*
X60040771Y-71142857D01*
X60755057Y-70904762D02*
X60755057Y-70142857D01*
X60659819Y-69904761D02*
X59993152Y-69904761D01*
X59659819Y-69904761D02*
X59707438Y-69952380D01*
X59707438Y-69952380D02*
X59755057Y-69904761D01*
X59755057Y-69904761D02*
X59707438Y-69857142D01*
X59707438Y-69857142D02*
X59659819Y-69904761D01*
X59659819Y-69904761D02*
X59755057Y-69904761D01*
X59993152Y-69428571D02*
X60659819Y-69428571D01*
X60088390Y-69428571D02*
X60040771Y-69380952D01*
X60040771Y-69380952D02*
X59993152Y-69285714D01*
X59993152Y-69285714D02*
X59993152Y-69142857D01*
X59993152Y-69142857D02*
X60040771Y-69047619D01*
X60040771Y-69047619D02*
X60136009Y-69000000D01*
X60136009Y-69000000D02*
X60659819Y-69000000D01*
X83893333Y-91594819D02*
X83560000Y-91118628D01*
X83321905Y-91594819D02*
X83321905Y-90594819D01*
X83321905Y-90594819D02*
X83702857Y-90594819D01*
X83702857Y-90594819D02*
X83798095Y-90642438D01*
X83798095Y-90642438D02*
X83845714Y-90690057D01*
X83845714Y-90690057D02*
X83893333Y-90785295D01*
X83893333Y-90785295D02*
X83893333Y-90928152D01*
X83893333Y-90928152D02*
X83845714Y-91023390D01*
X83845714Y-91023390D02*
X83798095Y-91071009D01*
X83798095Y-91071009D02*
X83702857Y-91118628D01*
X83702857Y-91118628D02*
X83321905Y-91118628D01*
X84750476Y-90928152D02*
X84750476Y-91594819D01*
X84512381Y-90547200D02*
X84274286Y-91261485D01*
X84274286Y-91261485D02*
X84893333Y-91261485D01*
X79778095Y-81164819D02*
X79778095Y-81974342D01*
X79778095Y-81974342D02*
X79825714Y-82069580D01*
X79825714Y-82069580D02*
X79873333Y-82117200D01*
X79873333Y-82117200D02*
X79968571Y-82164819D01*
X79968571Y-82164819D02*
X80159047Y-82164819D01*
X80159047Y-82164819D02*
X80254285Y-82117200D01*
X80254285Y-82117200D02*
X80301904Y-82069580D01*
X80301904Y-82069580D02*
X80349523Y-81974342D01*
X80349523Y-81974342D02*
X80349523Y-81164819D01*
X81349523Y-82164819D02*
X80778095Y-82164819D01*
X81063809Y-82164819D02*
X81063809Y-81164819D01*
X81063809Y-81164819D02*
X80968571Y-81307676D01*
X80968571Y-81307676D02*
X80873333Y-81402914D01*
X80873333Y-81402914D02*
X80778095Y-81450533D01*
X60278866Y-51285713D02*
X60278866Y-50523809D01*
X60659819Y-50904761D02*
X59897914Y-50904761D01*
X60659819Y-49999999D02*
X60659819Y-49809523D01*
X60659819Y-49809523D02*
X60612200Y-49714285D01*
X60612200Y-49714285D02*
X60564580Y-49666666D01*
X60564580Y-49666666D02*
X60421723Y-49571428D01*
X60421723Y-49571428D02*
X60231247Y-49523809D01*
X60231247Y-49523809D02*
X59850295Y-49523809D01*
X59850295Y-49523809D02*
X59755057Y-49571428D01*
X59755057Y-49571428D02*
X59707438Y-49619047D01*
X59707438Y-49619047D02*
X59659819Y-49714285D01*
X59659819Y-49714285D02*
X59659819Y-49904761D01*
X59659819Y-49904761D02*
X59707438Y-49999999D01*
X59707438Y-49999999D02*
X59755057Y-50047618D01*
X59755057Y-50047618D02*
X59850295Y-50095237D01*
X59850295Y-50095237D02*
X60088390Y-50095237D01*
X60088390Y-50095237D02*
X60183628Y-50047618D01*
X60183628Y-50047618D02*
X60231247Y-49999999D01*
X60231247Y-49999999D02*
X60278866Y-49904761D01*
X60278866Y-49904761D02*
X60278866Y-49714285D01*
X60278866Y-49714285D02*
X60231247Y-49619047D01*
X60231247Y-49619047D02*
X60183628Y-49571428D01*
X60183628Y-49571428D02*
X60088390Y-49523809D01*
X59659819Y-49238094D02*
X60659819Y-48904761D01*
X60659819Y-48904761D02*
X59659819Y-48571428D01*
X66929819Y-58106666D02*
X66453628Y-58439999D01*
X66929819Y-58678094D02*
X65929819Y-58678094D01*
X65929819Y-58678094D02*
X65929819Y-58297142D01*
X65929819Y-58297142D02*
X65977438Y-58201904D01*
X65977438Y-58201904D02*
X66025057Y-58154285D01*
X66025057Y-58154285D02*
X66120295Y-58106666D01*
X66120295Y-58106666D02*
X66263152Y-58106666D01*
X66263152Y-58106666D02*
X66358390Y-58154285D01*
X66358390Y-58154285D02*
X66406009Y-58201904D01*
X66406009Y-58201904D02*
X66453628Y-58297142D01*
X66453628Y-58297142D02*
X66453628Y-58678094D01*
X65929819Y-57773332D02*
X65929819Y-57106666D01*
X65929819Y-57106666D02*
X66929819Y-57535237D01*
X66328333Y-68859580D02*
X66280714Y-68907200D01*
X66280714Y-68907200D02*
X66137857Y-68954819D01*
X66137857Y-68954819D02*
X66042619Y-68954819D01*
X66042619Y-68954819D02*
X65899762Y-68907200D01*
X65899762Y-68907200D02*
X65804524Y-68811961D01*
X65804524Y-68811961D02*
X65756905Y-68716723D01*
X65756905Y-68716723D02*
X65709286Y-68526247D01*
X65709286Y-68526247D02*
X65709286Y-68383390D01*
X65709286Y-68383390D02*
X65756905Y-68192914D01*
X65756905Y-68192914D02*
X65804524Y-68097676D01*
X65804524Y-68097676D02*
X65899762Y-68002438D01*
X65899762Y-68002438D02*
X66042619Y-67954819D01*
X66042619Y-67954819D02*
X66137857Y-67954819D01*
X66137857Y-67954819D02*
X66280714Y-68002438D01*
X66280714Y-68002438D02*
X66328333Y-68050057D01*
X66709286Y-68050057D02*
X66756905Y-68002438D01*
X66756905Y-68002438D02*
X66852143Y-67954819D01*
X66852143Y-67954819D02*
X67090238Y-67954819D01*
X67090238Y-67954819D02*
X67185476Y-68002438D01*
X67185476Y-68002438D02*
X67233095Y-68050057D01*
X67233095Y-68050057D02*
X67280714Y-68145295D01*
X67280714Y-68145295D02*
X67280714Y-68240533D01*
X67280714Y-68240533D02*
X67233095Y-68383390D01*
X67233095Y-68383390D02*
X66661667Y-68954819D01*
X66661667Y-68954819D02*
X67280714Y-68954819D01*
X90202200Y-87467618D02*
X90249819Y-87324761D01*
X90249819Y-87324761D02*
X90249819Y-87086666D01*
X90249819Y-87086666D02*
X90202200Y-86991428D01*
X90202200Y-86991428D02*
X90154580Y-86943809D01*
X90154580Y-86943809D02*
X90059342Y-86896190D01*
X90059342Y-86896190D02*
X89964104Y-86896190D01*
X89964104Y-86896190D02*
X89868866Y-86943809D01*
X89868866Y-86943809D02*
X89821247Y-86991428D01*
X89821247Y-86991428D02*
X89773628Y-87086666D01*
X89773628Y-87086666D02*
X89726009Y-87277142D01*
X89726009Y-87277142D02*
X89678390Y-87372380D01*
X89678390Y-87372380D02*
X89630771Y-87419999D01*
X89630771Y-87419999D02*
X89535533Y-87467618D01*
X89535533Y-87467618D02*
X89440295Y-87467618D01*
X89440295Y-87467618D02*
X89345057Y-87419999D01*
X89345057Y-87419999D02*
X89297438Y-87372380D01*
X89297438Y-87372380D02*
X89249819Y-87277142D01*
X89249819Y-87277142D02*
X89249819Y-87039047D01*
X89249819Y-87039047D02*
X89297438Y-86896190D01*
X90249819Y-86467618D02*
X89583152Y-86467618D01*
X89249819Y-86467618D02*
X89297438Y-86515237D01*
X89297438Y-86515237D02*
X89345057Y-86467618D01*
X89345057Y-86467618D02*
X89297438Y-86419999D01*
X89297438Y-86419999D02*
X89249819Y-86467618D01*
X89249819Y-86467618D02*
X89345057Y-86467618D01*
X89583152Y-85562857D02*
X90392676Y-85562857D01*
X90392676Y-85562857D02*
X90487914Y-85610476D01*
X90487914Y-85610476D02*
X90535533Y-85658095D01*
X90535533Y-85658095D02*
X90583152Y-85753333D01*
X90583152Y-85753333D02*
X90583152Y-85896190D01*
X90583152Y-85896190D02*
X90535533Y-85991428D01*
X90202200Y-85562857D02*
X90249819Y-85658095D01*
X90249819Y-85658095D02*
X90249819Y-85848571D01*
X90249819Y-85848571D02*
X90202200Y-85943809D01*
X90202200Y-85943809D02*
X90154580Y-85991428D01*
X90154580Y-85991428D02*
X90059342Y-86039047D01*
X90059342Y-86039047D02*
X89773628Y-86039047D01*
X89773628Y-86039047D02*
X89678390Y-85991428D01*
X89678390Y-85991428D02*
X89630771Y-85943809D01*
X89630771Y-85943809D02*
X89583152Y-85848571D01*
X89583152Y-85848571D02*
X89583152Y-85658095D01*
X89583152Y-85658095D02*
X89630771Y-85562857D01*
X90345057Y-85324762D02*
X90345057Y-84562857D01*
X90249819Y-84181904D02*
X90202200Y-84277142D01*
X90202200Y-84277142D02*
X90154580Y-84324761D01*
X90154580Y-84324761D02*
X90059342Y-84372380D01*
X90059342Y-84372380D02*
X89773628Y-84372380D01*
X89773628Y-84372380D02*
X89678390Y-84324761D01*
X89678390Y-84324761D02*
X89630771Y-84277142D01*
X89630771Y-84277142D02*
X89583152Y-84181904D01*
X89583152Y-84181904D02*
X89583152Y-84039047D01*
X89583152Y-84039047D02*
X89630771Y-83943809D01*
X89630771Y-83943809D02*
X89678390Y-83896190D01*
X89678390Y-83896190D02*
X89773628Y-83848571D01*
X89773628Y-83848571D02*
X90059342Y-83848571D01*
X90059342Y-83848571D02*
X90154580Y-83896190D01*
X90154580Y-83896190D02*
X90202200Y-83943809D01*
X90202200Y-83943809D02*
X90249819Y-84039047D01*
X90249819Y-84039047D02*
X90249819Y-84181904D01*
X89583152Y-82991428D02*
X90249819Y-82991428D01*
X89583152Y-83419999D02*
X90106961Y-83419999D01*
X90106961Y-83419999D02*
X90202200Y-83372380D01*
X90202200Y-83372380D02*
X90249819Y-83277142D01*
X90249819Y-83277142D02*
X90249819Y-83134285D01*
X90249819Y-83134285D02*
X90202200Y-83039047D01*
X90202200Y-83039047D02*
X90154580Y-82991428D01*
X89583152Y-82658094D02*
X89583152Y-82277142D01*
X89249819Y-82515237D02*
X90106961Y-82515237D01*
X90106961Y-82515237D02*
X90202200Y-82467618D01*
X90202200Y-82467618D02*
X90249819Y-82372380D01*
X90249819Y-82372380D02*
X90249819Y-82277142D01*
X94338333Y-73779580D02*
X94290714Y-73827200D01*
X94290714Y-73827200D02*
X94147857Y-73874819D01*
X94147857Y-73874819D02*
X94052619Y-73874819D01*
X94052619Y-73874819D02*
X93909762Y-73827200D01*
X93909762Y-73827200D02*
X93814524Y-73731961D01*
X93814524Y-73731961D02*
X93766905Y-73636723D01*
X93766905Y-73636723D02*
X93719286Y-73446247D01*
X93719286Y-73446247D02*
X93719286Y-73303390D01*
X93719286Y-73303390D02*
X93766905Y-73112914D01*
X93766905Y-73112914D02*
X93814524Y-73017676D01*
X93814524Y-73017676D02*
X93909762Y-72922438D01*
X93909762Y-72922438D02*
X94052619Y-72874819D01*
X94052619Y-72874819D02*
X94147857Y-72874819D01*
X94147857Y-72874819D02*
X94290714Y-72922438D01*
X94290714Y-72922438D02*
X94338333Y-72970057D01*
X95290714Y-73874819D02*
X94719286Y-73874819D01*
X95005000Y-73874819D02*
X95005000Y-72874819D01*
X95005000Y-72874819D02*
X94909762Y-73017676D01*
X94909762Y-73017676D02*
X94814524Y-73112914D01*
X94814524Y-73112914D02*
X94719286Y-73160533D01*
X66929819Y-64046666D02*
X66453628Y-64379999D01*
X66929819Y-64618094D02*
X65929819Y-64618094D01*
X65929819Y-64618094D02*
X65929819Y-64237142D01*
X65929819Y-64237142D02*
X65977438Y-64141904D01*
X65977438Y-64141904D02*
X66025057Y-64094285D01*
X66025057Y-64094285D02*
X66120295Y-64046666D01*
X66120295Y-64046666D02*
X66263152Y-64046666D01*
X66263152Y-64046666D02*
X66358390Y-64094285D01*
X66358390Y-64094285D02*
X66406009Y-64141904D01*
X66406009Y-64141904D02*
X66453628Y-64237142D01*
X66453628Y-64237142D02*
X66453628Y-64618094D01*
X66358390Y-63475237D02*
X66310771Y-63570475D01*
X66310771Y-63570475D02*
X66263152Y-63618094D01*
X66263152Y-63618094D02*
X66167914Y-63665713D01*
X66167914Y-63665713D02*
X66120295Y-63665713D01*
X66120295Y-63665713D02*
X66025057Y-63618094D01*
X66025057Y-63618094D02*
X65977438Y-63570475D01*
X65977438Y-63570475D02*
X65929819Y-63475237D01*
X65929819Y-63475237D02*
X65929819Y-63284761D01*
X65929819Y-63284761D02*
X65977438Y-63189523D01*
X65977438Y-63189523D02*
X66025057Y-63141904D01*
X66025057Y-63141904D02*
X66120295Y-63094285D01*
X66120295Y-63094285D02*
X66167914Y-63094285D01*
X66167914Y-63094285D02*
X66263152Y-63141904D01*
X66263152Y-63141904D02*
X66310771Y-63189523D01*
X66310771Y-63189523D02*
X66358390Y-63284761D01*
X66358390Y-63284761D02*
X66358390Y-63475237D01*
X66358390Y-63475237D02*
X66406009Y-63570475D01*
X66406009Y-63570475D02*
X66453628Y-63618094D01*
X66453628Y-63618094D02*
X66548866Y-63665713D01*
X66548866Y-63665713D02*
X66739342Y-63665713D01*
X66739342Y-63665713D02*
X66834580Y-63618094D01*
X66834580Y-63618094D02*
X66882200Y-63570475D01*
X66882200Y-63570475D02*
X66929819Y-63475237D01*
X66929819Y-63475237D02*
X66929819Y-63284761D01*
X66929819Y-63284761D02*
X66882200Y-63189523D01*
X66882200Y-63189523D02*
X66834580Y-63141904D01*
X66834580Y-63141904D02*
X66739342Y-63094285D01*
X66739342Y-63094285D02*
X66548866Y-63094285D01*
X66548866Y-63094285D02*
X66453628Y-63141904D01*
X66453628Y-63141904D02*
X66406009Y-63189523D01*
X66406009Y-63189523D02*
X66358390Y-63284761D01*
X60612200Y-87714285D02*
X60659819Y-87571428D01*
X60659819Y-87571428D02*
X60659819Y-87333333D01*
X60659819Y-87333333D02*
X60612200Y-87238095D01*
X60612200Y-87238095D02*
X60564580Y-87190476D01*
X60564580Y-87190476D02*
X60469342Y-87142857D01*
X60469342Y-87142857D02*
X60374104Y-87142857D01*
X60374104Y-87142857D02*
X60278866Y-87190476D01*
X60278866Y-87190476D02*
X60231247Y-87238095D01*
X60231247Y-87238095D02*
X60183628Y-87333333D01*
X60183628Y-87333333D02*
X60136009Y-87523809D01*
X60136009Y-87523809D02*
X60088390Y-87619047D01*
X60088390Y-87619047D02*
X60040771Y-87666666D01*
X60040771Y-87666666D02*
X59945533Y-87714285D01*
X59945533Y-87714285D02*
X59850295Y-87714285D01*
X59850295Y-87714285D02*
X59755057Y-87666666D01*
X59755057Y-87666666D02*
X59707438Y-87619047D01*
X59707438Y-87619047D02*
X59659819Y-87523809D01*
X59659819Y-87523809D02*
X59659819Y-87285714D01*
X59659819Y-87285714D02*
X59707438Y-87142857D01*
X60659819Y-86714285D02*
X59993152Y-86714285D01*
X59659819Y-86714285D02*
X59707438Y-86761904D01*
X59707438Y-86761904D02*
X59755057Y-86714285D01*
X59755057Y-86714285D02*
X59707438Y-86666666D01*
X59707438Y-86666666D02*
X59659819Y-86714285D01*
X59659819Y-86714285D02*
X59755057Y-86714285D01*
X59993152Y-85809524D02*
X60802676Y-85809524D01*
X60802676Y-85809524D02*
X60897914Y-85857143D01*
X60897914Y-85857143D02*
X60945533Y-85904762D01*
X60945533Y-85904762D02*
X60993152Y-86000000D01*
X60993152Y-86000000D02*
X60993152Y-86142857D01*
X60993152Y-86142857D02*
X60945533Y-86238095D01*
X60612200Y-85809524D02*
X60659819Y-85904762D01*
X60659819Y-85904762D02*
X60659819Y-86095238D01*
X60659819Y-86095238D02*
X60612200Y-86190476D01*
X60612200Y-86190476D02*
X60564580Y-86238095D01*
X60564580Y-86238095D02*
X60469342Y-86285714D01*
X60469342Y-86285714D02*
X60183628Y-86285714D01*
X60183628Y-86285714D02*
X60088390Y-86238095D01*
X60088390Y-86238095D02*
X60040771Y-86190476D01*
X60040771Y-86190476D02*
X59993152Y-86095238D01*
X59993152Y-86095238D02*
X59993152Y-85904762D01*
X59993152Y-85904762D02*
X60040771Y-85809524D01*
X60755057Y-85571429D02*
X60755057Y-84809524D01*
X59993152Y-84142857D02*
X60802676Y-84142857D01*
X60802676Y-84142857D02*
X60897914Y-84190476D01*
X60897914Y-84190476D02*
X60945533Y-84238095D01*
X60945533Y-84238095D02*
X60993152Y-84333333D01*
X60993152Y-84333333D02*
X60993152Y-84476190D01*
X60993152Y-84476190D02*
X60945533Y-84571428D01*
X60612200Y-84142857D02*
X60659819Y-84238095D01*
X60659819Y-84238095D02*
X60659819Y-84428571D01*
X60659819Y-84428571D02*
X60612200Y-84523809D01*
X60612200Y-84523809D02*
X60564580Y-84571428D01*
X60564580Y-84571428D02*
X60469342Y-84619047D01*
X60469342Y-84619047D02*
X60183628Y-84619047D01*
X60183628Y-84619047D02*
X60088390Y-84571428D01*
X60088390Y-84571428D02*
X60040771Y-84523809D01*
X60040771Y-84523809D02*
X59993152Y-84428571D01*
X59993152Y-84428571D02*
X59993152Y-84238095D01*
X59993152Y-84238095D02*
X60040771Y-84142857D01*
X59993152Y-83666666D02*
X60659819Y-83666666D01*
X60088390Y-83666666D02*
X60040771Y-83619047D01*
X60040771Y-83619047D02*
X59993152Y-83523809D01*
X59993152Y-83523809D02*
X59993152Y-83380952D01*
X59993152Y-83380952D02*
X60040771Y-83285714D01*
X60040771Y-83285714D02*
X60136009Y-83238095D01*
X60136009Y-83238095D02*
X60659819Y-83238095D01*
X60659819Y-82333333D02*
X59659819Y-82333333D01*
X60612200Y-82333333D02*
X60659819Y-82428571D01*
X60659819Y-82428571D02*
X60659819Y-82619047D01*
X60659819Y-82619047D02*
X60612200Y-82714285D01*
X60612200Y-82714285D02*
X60564580Y-82761904D01*
X60564580Y-82761904D02*
X60469342Y-82809523D01*
X60469342Y-82809523D02*
X60183628Y-82809523D01*
X60183628Y-82809523D02*
X60088390Y-82761904D01*
X60088390Y-82761904D02*
X60040771Y-82714285D01*
X60040771Y-82714285D02*
X59993152Y-82619047D01*
X59993152Y-82619047D02*
X59993152Y-82428571D01*
X59993152Y-82428571D02*
X60040771Y-82333333D01*
X76223333Y-91594819D02*
X75890000Y-91118628D01*
X75651905Y-91594819D02*
X75651905Y-90594819D01*
X75651905Y-90594819D02*
X76032857Y-90594819D01*
X76032857Y-90594819D02*
X76128095Y-90642438D01*
X76128095Y-90642438D02*
X76175714Y-90690057D01*
X76175714Y-90690057D02*
X76223333Y-90785295D01*
X76223333Y-90785295D02*
X76223333Y-90928152D01*
X76223333Y-90928152D02*
X76175714Y-91023390D01*
X76175714Y-91023390D02*
X76128095Y-91071009D01*
X76128095Y-91071009D02*
X76032857Y-91118628D01*
X76032857Y-91118628D02*
X75651905Y-91118628D01*
X77128095Y-90594819D02*
X76651905Y-90594819D01*
X76651905Y-90594819D02*
X76604286Y-91071009D01*
X76604286Y-91071009D02*
X76651905Y-91023390D01*
X76651905Y-91023390D02*
X76747143Y-90975771D01*
X76747143Y-90975771D02*
X76985238Y-90975771D01*
X76985238Y-90975771D02*
X77080476Y-91023390D01*
X77080476Y-91023390D02*
X77128095Y-91071009D01*
X77128095Y-91071009D02*
X77175714Y-91166247D01*
X77175714Y-91166247D02*
X77175714Y-91404342D01*
X77175714Y-91404342D02*
X77128095Y-91499580D01*
X77128095Y-91499580D02*
X77080476Y-91547200D01*
X77080476Y-91547200D02*
X76985238Y-91594819D01*
X76985238Y-91594819D02*
X76747143Y-91594819D01*
X76747143Y-91594819D02*
X76651905Y-91547200D01*
X76651905Y-91547200D02*
X76604286Y-91499580D01*
X56249819Y-60761904D02*
X57059342Y-60761904D01*
X57059342Y-60761904D02*
X57154580Y-60714285D01*
X57154580Y-60714285D02*
X57202200Y-60666666D01*
X57202200Y-60666666D02*
X57249819Y-60571428D01*
X57249819Y-60571428D02*
X57249819Y-60380952D01*
X57249819Y-60380952D02*
X57202200Y-60285714D01*
X57202200Y-60285714D02*
X57154580Y-60238095D01*
X57154580Y-60238095D02*
X57059342Y-60190476D01*
X57059342Y-60190476D02*
X56249819Y-60190476D01*
X56345057Y-59761904D02*
X56297438Y-59714285D01*
X56297438Y-59714285D02*
X56249819Y-59619047D01*
X56249819Y-59619047D02*
X56249819Y-59380952D01*
X56249819Y-59380952D02*
X56297438Y-59285714D01*
X56297438Y-59285714D02*
X56345057Y-59238095D01*
X56345057Y-59238095D02*
X56440295Y-59190476D01*
X56440295Y-59190476D02*
X56535533Y-59190476D01*
X56535533Y-59190476D02*
X56678390Y-59238095D01*
X56678390Y-59238095D02*
X57249819Y-59809523D01*
X57249819Y-59809523D02*
X57249819Y-59190476D01*
X67079819Y-45441666D02*
X66603628Y-45774999D01*
X67079819Y-46013094D02*
X66079819Y-46013094D01*
X66079819Y-46013094D02*
X66079819Y-45632142D01*
X66079819Y-45632142D02*
X66127438Y-45536904D01*
X66127438Y-45536904D02*
X66175057Y-45489285D01*
X66175057Y-45489285D02*
X66270295Y-45441666D01*
X66270295Y-45441666D02*
X66413152Y-45441666D01*
X66413152Y-45441666D02*
X66508390Y-45489285D01*
X66508390Y-45489285D02*
X66556009Y-45536904D01*
X66556009Y-45536904D02*
X66603628Y-45632142D01*
X66603628Y-45632142D02*
X66603628Y-46013094D01*
X67079819Y-44489285D02*
X67079819Y-45060713D01*
X67079819Y-44774999D02*
X66079819Y-44774999D01*
X66079819Y-44774999D02*
X66222676Y-44870237D01*
X66222676Y-44870237D02*
X66317914Y-44965475D01*
X66317914Y-44965475D02*
X66365533Y-45060713D01*
X66454819Y-85911904D02*
X65454819Y-85911904D01*
X66454819Y-85435714D02*
X65788152Y-85435714D01*
X65883390Y-85435714D02*
X65835771Y-85388095D01*
X65835771Y-85388095D02*
X65788152Y-85292857D01*
X65788152Y-85292857D02*
X65788152Y-85150000D01*
X65788152Y-85150000D02*
X65835771Y-85054762D01*
X65835771Y-85054762D02*
X65931009Y-85007143D01*
X65931009Y-85007143D02*
X66454819Y-85007143D01*
X65931009Y-85007143D02*
X65835771Y-84959524D01*
X65835771Y-84959524D02*
X65788152Y-84864286D01*
X65788152Y-84864286D02*
X65788152Y-84721429D01*
X65788152Y-84721429D02*
X65835771Y-84626190D01*
X65835771Y-84626190D02*
X65931009Y-84578571D01*
X65931009Y-84578571D02*
X66454819Y-84578571D01*
X65788152Y-84102381D02*
X66788152Y-84102381D01*
X65835771Y-84102381D02*
X65788152Y-84007143D01*
X65788152Y-84007143D02*
X65788152Y-83816667D01*
X65788152Y-83816667D02*
X65835771Y-83721429D01*
X65835771Y-83721429D02*
X65883390Y-83673810D01*
X65883390Y-83673810D02*
X65978628Y-83626191D01*
X65978628Y-83626191D02*
X66264342Y-83626191D01*
X66264342Y-83626191D02*
X66359580Y-83673810D01*
X66359580Y-83673810D02*
X66407200Y-83721429D01*
X66407200Y-83721429D02*
X66454819Y-83816667D01*
X66454819Y-83816667D02*
X66454819Y-84007143D01*
X66454819Y-84007143D02*
X66407200Y-84102381D01*
X66407200Y-82816667D02*
X66454819Y-82911905D01*
X66454819Y-82911905D02*
X66454819Y-83102381D01*
X66454819Y-83102381D02*
X66407200Y-83197619D01*
X66407200Y-83197619D02*
X66311961Y-83245238D01*
X66311961Y-83245238D02*
X65931009Y-83245238D01*
X65931009Y-83245238D02*
X65835771Y-83197619D01*
X65835771Y-83197619D02*
X65788152Y-83102381D01*
X65788152Y-83102381D02*
X65788152Y-82911905D01*
X65788152Y-82911905D02*
X65835771Y-82816667D01*
X65835771Y-82816667D02*
X65931009Y-82769048D01*
X65931009Y-82769048D02*
X66026247Y-82769048D01*
X66026247Y-82769048D02*
X66121485Y-83245238D01*
X66454819Y-81911905D02*
X65454819Y-81911905D01*
X66407200Y-81911905D02*
X66454819Y-82007143D01*
X66454819Y-82007143D02*
X66454819Y-82197619D01*
X66454819Y-82197619D02*
X66407200Y-82292857D01*
X66407200Y-82292857D02*
X66359580Y-82340476D01*
X66359580Y-82340476D02*
X66264342Y-82388095D01*
X66264342Y-82388095D02*
X65978628Y-82388095D01*
X65978628Y-82388095D02*
X65883390Y-82340476D01*
X65883390Y-82340476D02*
X65835771Y-82292857D01*
X65835771Y-82292857D02*
X65788152Y-82197619D01*
X65788152Y-82197619D02*
X65788152Y-82007143D01*
X65788152Y-82007143D02*
X65835771Y-81911905D01*
X66454819Y-81007143D02*
X65931009Y-81007143D01*
X65931009Y-81007143D02*
X65835771Y-81054762D01*
X65835771Y-81054762D02*
X65788152Y-81150000D01*
X65788152Y-81150000D02*
X65788152Y-81340476D01*
X65788152Y-81340476D02*
X65835771Y-81435714D01*
X66407200Y-81007143D02*
X66454819Y-81102381D01*
X66454819Y-81102381D02*
X66454819Y-81340476D01*
X66454819Y-81340476D02*
X66407200Y-81435714D01*
X66407200Y-81435714D02*
X66311961Y-81483333D01*
X66311961Y-81483333D02*
X66216723Y-81483333D01*
X66216723Y-81483333D02*
X66121485Y-81435714D01*
X66121485Y-81435714D02*
X66073866Y-81340476D01*
X66073866Y-81340476D02*
X66073866Y-81102381D01*
X66073866Y-81102381D02*
X66026247Y-81007143D01*
X65788152Y-80530952D02*
X66454819Y-80530952D01*
X65883390Y-80530952D02*
X65835771Y-80483333D01*
X65835771Y-80483333D02*
X65788152Y-80388095D01*
X65788152Y-80388095D02*
X65788152Y-80245238D01*
X65788152Y-80245238D02*
X65835771Y-80150000D01*
X65835771Y-80150000D02*
X65931009Y-80102381D01*
X65931009Y-80102381D02*
X66454819Y-80102381D01*
X66407200Y-79197619D02*
X66454819Y-79292857D01*
X66454819Y-79292857D02*
X66454819Y-79483333D01*
X66454819Y-79483333D02*
X66407200Y-79578571D01*
X66407200Y-79578571D02*
X66359580Y-79626190D01*
X66359580Y-79626190D02*
X66264342Y-79673809D01*
X66264342Y-79673809D02*
X65978628Y-79673809D01*
X65978628Y-79673809D02*
X65883390Y-79626190D01*
X65883390Y-79626190D02*
X65835771Y-79578571D01*
X65835771Y-79578571D02*
X65788152Y-79483333D01*
X65788152Y-79483333D02*
X65788152Y-79292857D01*
X65788152Y-79292857D02*
X65835771Y-79197619D01*
X66407200Y-78388095D02*
X66454819Y-78483333D01*
X66454819Y-78483333D02*
X66454819Y-78673809D01*
X66454819Y-78673809D02*
X66407200Y-78769047D01*
X66407200Y-78769047D02*
X66311961Y-78816666D01*
X66311961Y-78816666D02*
X65931009Y-78816666D01*
X65931009Y-78816666D02*
X65835771Y-78769047D01*
X65835771Y-78769047D02*
X65788152Y-78673809D01*
X65788152Y-78673809D02*
X65788152Y-78483333D01*
X65788152Y-78483333D02*
X65835771Y-78388095D01*
X65835771Y-78388095D02*
X65931009Y-78340476D01*
X65931009Y-78340476D02*
X66026247Y-78340476D01*
X66026247Y-78340476D02*
X66121485Y-78816666D01*
X71819819Y-51896666D02*
X71343628Y-52229999D01*
X71819819Y-52468094D02*
X70819819Y-52468094D01*
X70819819Y-52468094D02*
X70819819Y-52087142D01*
X70819819Y-52087142D02*
X70867438Y-51991904D01*
X70867438Y-51991904D02*
X70915057Y-51944285D01*
X70915057Y-51944285D02*
X71010295Y-51896666D01*
X71010295Y-51896666D02*
X71153152Y-51896666D01*
X71153152Y-51896666D02*
X71248390Y-51944285D01*
X71248390Y-51944285D02*
X71296009Y-51991904D01*
X71296009Y-51991904D02*
X71343628Y-52087142D01*
X71343628Y-52087142D02*
X71343628Y-52468094D01*
X70915057Y-51515713D02*
X70867438Y-51468094D01*
X70867438Y-51468094D02*
X70819819Y-51372856D01*
X70819819Y-51372856D02*
X70819819Y-51134761D01*
X70819819Y-51134761D02*
X70867438Y-51039523D01*
X70867438Y-51039523D02*
X70915057Y-50991904D01*
X70915057Y-50991904D02*
X71010295Y-50944285D01*
X71010295Y-50944285D02*
X71105533Y-50944285D01*
X71105533Y-50944285D02*
X71248390Y-50991904D01*
X71248390Y-50991904D02*
X71819819Y-51563332D01*
X71819819Y-51563332D02*
X71819819Y-50944285D01*
X97679819Y-64712857D02*
X97203628Y-65046190D01*
X97679819Y-65284285D02*
X96679819Y-65284285D01*
X96679819Y-65284285D02*
X96679819Y-64903333D01*
X96679819Y-64903333D02*
X96727438Y-64808095D01*
X96727438Y-64808095D02*
X96775057Y-64760476D01*
X96775057Y-64760476D02*
X96870295Y-64712857D01*
X96870295Y-64712857D02*
X97013152Y-64712857D01*
X97013152Y-64712857D02*
X97108390Y-64760476D01*
X97108390Y-64760476D02*
X97156009Y-64808095D01*
X97156009Y-64808095D02*
X97203628Y-64903333D01*
X97203628Y-64903333D02*
X97203628Y-65284285D01*
X97679819Y-63855714D02*
X97156009Y-63855714D01*
X97156009Y-63855714D02*
X97060771Y-63903333D01*
X97060771Y-63903333D02*
X97013152Y-63998571D01*
X97013152Y-63998571D02*
X97013152Y-64189047D01*
X97013152Y-64189047D02*
X97060771Y-64284285D01*
X97632200Y-63855714D02*
X97679819Y-63950952D01*
X97679819Y-63950952D02*
X97679819Y-64189047D01*
X97679819Y-64189047D02*
X97632200Y-64284285D01*
X97632200Y-64284285D02*
X97536961Y-64331904D01*
X97536961Y-64331904D02*
X97441723Y-64331904D01*
X97441723Y-64331904D02*
X97346485Y-64284285D01*
X97346485Y-64284285D02*
X97298866Y-64189047D01*
X97298866Y-64189047D02*
X97298866Y-63950952D01*
X97298866Y-63950952D02*
X97251247Y-63855714D01*
D12*
%TO.C,B+*%
X90795000Y-45360000D02*
X98215000Y-45360000D01*
X90795000Y-54480000D02*
X90795000Y-45360000D01*
X90795000Y-54480000D02*
X98215000Y-54480000D01*
X92942000Y-48608000D02*
X93086000Y-48752000D01*
X93194000Y-48357000D02*
X93380000Y-48544000D01*
X95629000Y-51296000D02*
X95816000Y-51483000D01*
X95924000Y-51088000D02*
X96068000Y-51232000D01*
X98215000Y-54480000D02*
X98215000Y-45360000D01*
X96565000Y-49920000D02*
G75*
G02*
X92445000Y-49920000I-2060000J0D01*
G01*
X92445000Y-49920000D02*
G75*
G02*
X96565000Y-49920000I2060000J0D01*
G01*
%TO.C,Sig_in*%
X51785000Y-66440000D02*
X51785000Y-75560000D01*
X54076000Y-69832000D02*
X53932000Y-69688000D01*
X54371000Y-69624000D02*
X54184000Y-69437000D01*
X56806000Y-72563000D02*
X56620000Y-72376000D01*
X57058000Y-72312000D02*
X56914000Y-72168000D01*
X59205000Y-66440000D02*
X51785000Y-66440000D01*
X59205000Y-66440000D02*
X59205000Y-75560000D01*
X59205000Y-75560000D02*
X51785000Y-75560000D01*
X57555000Y-71000000D02*
G75*
G02*
X53435000Y-71000000I-2060000J0D01*
G01*
X53435000Y-71000000D02*
G75*
G02*
X57555000Y-71000000I2060000J0D01*
G01*
%TO.C,R4*%
X83985225Y-87448620D02*
G75*
G02*
X83876728Y-89220000I1344775J-971380D01*
G01*
%TO.C,U1*%
X83964006Y-78480000D02*
G75*
G02*
X83335994Y-78480000I-314006J0D01*
G01*
X83335994Y-78480000D02*
G75*
G02*
X83964006Y-78480000I314006J0D01*
G01*
X84550000Y-81470000D02*
G75*
G02*
X83280000Y-82740000I-1270000J0D01*
G01*
X83280000Y-77260000D02*
G75*
G02*
X84550000Y-78530000I0J-1270000D01*
G01*
X77800000Y-82740000D02*
G75*
G02*
X76530000Y-81470000I0J1270000D01*
G01*
X76530000Y-78530000D02*
G75*
G02*
X77800000Y-77260000I1270000J0D01*
G01*
X84540000Y-78540000D02*
X84540000Y-81520000D01*
X83270000Y-82730000D02*
X77810000Y-82730000D01*
X77810000Y-77270000D02*
X83270000Y-77270000D01*
X76540000Y-81460000D02*
X76540000Y-78540000D01*
%TO.C,+9V*%
X51785000Y-45440000D02*
X51785000Y-54560000D01*
X54076000Y-48832000D02*
X53932000Y-48688000D01*
X54371000Y-48624000D02*
X54184000Y-48437000D01*
X56806000Y-51563000D02*
X56620000Y-51376000D01*
X57058000Y-51312000D02*
X56914000Y-51168000D01*
X59205000Y-45440000D02*
X51785000Y-45440000D01*
X59205000Y-45440000D02*
X59205000Y-54560000D01*
X59205000Y-54560000D02*
X51785000Y-54560000D01*
X57555000Y-50000000D02*
G75*
G02*
X53435000Y-50000000I-2060000J0D01*
G01*
X53435000Y-50000000D02*
G75*
G02*
X57555000Y-50000000I2060000J0D01*
G01*
%TO.C,R7*%
X68845000Y-57840000D02*
X68845000Y-57770000D01*
X70215000Y-59210000D02*
G75*
G02*
X67475000Y-59210000I-1370000J0D01*
G01*
X67475000Y-59210000D02*
G75*
G02*
X70215000Y-59210000I1370000J0D01*
G01*
%TO.C,C2*%
X62625000Y-69630000D02*
X62625000Y-72370000D01*
X62625000Y-69630000D02*
X70365000Y-69630000D01*
X62625000Y-72370000D02*
X70365000Y-72370000D01*
X70365000Y-69630000D02*
X70365000Y-72370000D01*
%TO.C,Sig_out*%
X90795000Y-80360000D02*
X98215000Y-80360000D01*
X90795000Y-89480000D02*
X90795000Y-80360000D01*
X90795000Y-89480000D02*
X98215000Y-89480000D01*
X92942000Y-83608000D02*
X93086000Y-83752000D01*
X93194000Y-83357000D02*
X93380000Y-83544000D01*
X95629000Y-86296000D02*
X95816000Y-86483000D01*
X95924000Y-86088000D02*
X96068000Y-86232000D01*
X98215000Y-89480000D02*
X98215000Y-80360000D01*
X96565000Y-84920000D02*
G75*
G02*
X92445000Y-84920000I-2060000J0D01*
G01*
X92445000Y-84920000D02*
G75*
G02*
X96565000Y-84920000I2060000J0D01*
G01*
%TO.C,C1*%
X90635000Y-74550000D02*
X90635000Y-77290000D01*
X90635000Y-74550000D02*
X98375000Y-74550000D01*
X90635000Y-77290000D02*
X98375000Y-77290000D01*
X98375000Y-74550000D02*
X98375000Y-77290000D01*
%TO.C,R8*%
X68845000Y-63780000D02*
X68845000Y-63710000D01*
X70215000Y-65150000D02*
G75*
G02*
X67475000Y-65150000I-1370000J0D01*
G01*
X67475000Y-65150000D02*
G75*
G02*
X70215000Y-65150000I1370000J0D01*
G01*
%TO.C,Sig_gnd*%
X51785000Y-80440000D02*
X51785000Y-89560000D01*
X54076000Y-83832000D02*
X53932000Y-83688000D01*
X54371000Y-83624000D02*
X54184000Y-83437000D01*
X56806000Y-86563000D02*
X56620000Y-86376000D01*
X57058000Y-86312000D02*
X56914000Y-86168000D01*
X59205000Y-80440000D02*
X51785000Y-80440000D01*
X59205000Y-80440000D02*
X59205000Y-89560000D01*
X59205000Y-89560000D02*
X51785000Y-89560000D01*
X57555000Y-85000000D02*
G75*
G02*
X53435000Y-85000000I-2060000J0D01*
G01*
X53435000Y-85000000D02*
G75*
G02*
X57555000Y-85000000I2060000J0D01*
G01*
%TO.C,R5*%
X76315225Y-87448620D02*
G75*
G02*
X76206728Y-89220000I1344775J-971380D01*
G01*
%TO.C,U2*%
X62205000Y-61800000D02*
X62205000Y-58200000D01*
X57755000Y-60000000D02*
G75*
G02*
X59256193Y-57643600I2600000J0D01*
G01*
X59256193Y-62356400D02*
G75*
G02*
X57755000Y-60000000I1098807J2356400D01*
G01*
X61477795Y-57675816D02*
G75*
G02*
X62205000Y-58200000I-1122795J-2324184D01*
G01*
X62205000Y-61800000D02*
G75*
G02*
X61477795Y-62324184I-1850000J1800000D01*
G01*
%TO.C,R1*%
X68995000Y-45175000D02*
X68995000Y-45105000D01*
X70365000Y-46545000D02*
G75*
G02*
X67625000Y-46545000I-1370000J0D01*
G01*
X67625000Y-46545000D02*
G75*
G02*
X70365000Y-46545000I1370000J0D01*
G01*
%TO.C,Impedance*%
X67275000Y-77530000D02*
X67275000Y-86770000D01*
X67275000Y-86770000D02*
X70715000Y-86770000D01*
X68995000Y-76840000D02*
X68995000Y-77530000D01*
X68995000Y-87460000D02*
X68995000Y-86770000D01*
X70715000Y-77530000D02*
X67275000Y-77530000D01*
X70715000Y-86770000D02*
X70715000Y-77530000D01*
%TO.C,R2*%
X68995000Y-51830000D02*
X68995000Y-51900000D01*
X70365000Y-50460000D02*
G75*
G02*
X67625000Y-50460000I-1370000J0D01*
G01*
X67625000Y-50460000D02*
G75*
G02*
X70365000Y-50460000I1370000J0D01*
G01*
%TO.C,Ra*%
X92785000Y-59950000D02*
X92785000Y-69190000D01*
X92785000Y-69190000D02*
X96225000Y-69190000D01*
X94505000Y-59260000D02*
X94505000Y-59950000D01*
X94505000Y-69880000D02*
X94505000Y-69190000D01*
X96225000Y-59950000D02*
X92785000Y-59950000D01*
X96225000Y-69190000D02*
X96225000Y-59950000D01*
%TD*%
M02*
