%TF.GenerationSoftware,KiCad,Pcbnew,8.0.8*%
%TF.CreationDate,2025-01-19T15:48:11-06:00*%
%TF.ProjectId,Block-JAN6418,426c6f63-6b2d-44a4-914e-363431382e6b,rev?*%
%TF.SameCoordinates,Original*%
%TF.FileFunction,Drillmap*%
%TF.FilePolarity,Positive*%
%FSLAX45Y45*%
G04 Gerber Fmt 4.5, Leading zero omitted, Abs format (unit mm)*
G04 Created by KiCad (PCBNEW 8.0.8) date 2025-01-19 15:48:11*
%MOMM*%
%LPD*%
G01*
G04 APERTURE LIST*
%ADD10C,0.050000*%
%ADD11C,0.200000*%
%ADD12C,0.220000*%
G04 APERTURE END LIST*
D10*
X5000000Y-3500000D02*
X9800000Y-3500000D01*
X9800000Y-9800000D01*
X5000000Y-9800000D01*
X5000000Y-3500000D01*
D11*
D12*
X5290000Y-3790000D02*
X5510000Y-4010000D01*
X5510000Y-3790000D02*
X5290000Y-4010000D01*
X5290000Y-9290000D02*
X5510000Y-9510000D01*
X5510000Y-9290000D02*
X5290000Y-9510000D01*
X9290000Y-3790000D02*
X9510000Y-4010000D01*
X9510000Y-3790000D02*
X9290000Y-4010000D01*
X9290000Y-9290000D02*
X9510000Y-9510000D01*
X9510000Y-9290000D02*
X9290000Y-9510000D01*
D11*
X5258277Y-10113984D02*
X5258277Y-9913984D01*
X5258277Y-9913984D02*
X5305896Y-9913984D01*
X5305896Y-9913984D02*
X5334467Y-9923508D01*
X5334467Y-9923508D02*
X5353515Y-9942555D01*
X5353515Y-9942555D02*
X5363039Y-9961603D01*
X5363039Y-9961603D02*
X5372563Y-9999698D01*
X5372563Y-9999698D02*
X5372563Y-10028270D01*
X5372563Y-10028270D02*
X5363039Y-10066365D01*
X5363039Y-10066365D02*
X5353515Y-10085412D01*
X5353515Y-10085412D02*
X5334467Y-10104460D01*
X5334467Y-10104460D02*
X5305896Y-10113984D01*
X5305896Y-10113984D02*
X5258277Y-10113984D01*
X5458277Y-10113984D02*
X5458277Y-9980650D01*
X5458277Y-10018746D02*
X5467801Y-9999698D01*
X5467801Y-9999698D02*
X5477324Y-9990174D01*
X5477324Y-9990174D02*
X5496372Y-9980650D01*
X5496372Y-9980650D02*
X5515420Y-9980650D01*
X5582086Y-10113984D02*
X5582086Y-9980650D01*
X5582086Y-9913984D02*
X5572563Y-9923508D01*
X5572563Y-9923508D02*
X5582086Y-9933031D01*
X5582086Y-9933031D02*
X5591610Y-9923508D01*
X5591610Y-9923508D02*
X5582086Y-9913984D01*
X5582086Y-9913984D02*
X5582086Y-9933031D01*
X5705896Y-10113984D02*
X5686848Y-10104460D01*
X5686848Y-10104460D02*
X5677324Y-10085412D01*
X5677324Y-10085412D02*
X5677324Y-9913984D01*
X5810658Y-10113984D02*
X5791610Y-10104460D01*
X5791610Y-10104460D02*
X5782086Y-10085412D01*
X5782086Y-10085412D02*
X5782086Y-9913984D01*
X6039229Y-10113984D02*
X6039229Y-9913984D01*
X6039229Y-9913984D02*
X6105896Y-10056841D01*
X6105896Y-10056841D02*
X6172562Y-9913984D01*
X6172562Y-9913984D02*
X6172562Y-10113984D01*
X6353515Y-10113984D02*
X6353515Y-10009222D01*
X6353515Y-10009222D02*
X6343991Y-9990174D01*
X6343991Y-9990174D02*
X6324943Y-9980650D01*
X6324943Y-9980650D02*
X6286848Y-9980650D01*
X6286848Y-9980650D02*
X6267801Y-9990174D01*
X6353515Y-10104460D02*
X6334467Y-10113984D01*
X6334467Y-10113984D02*
X6286848Y-10113984D01*
X6286848Y-10113984D02*
X6267801Y-10104460D01*
X6267801Y-10104460D02*
X6258277Y-10085412D01*
X6258277Y-10085412D02*
X6258277Y-10066365D01*
X6258277Y-10066365D02*
X6267801Y-10047317D01*
X6267801Y-10047317D02*
X6286848Y-10037793D01*
X6286848Y-10037793D02*
X6334467Y-10037793D01*
X6334467Y-10037793D02*
X6353515Y-10028270D01*
X6448753Y-9980650D02*
X6448753Y-10180650D01*
X6448753Y-9990174D02*
X6467801Y-9980650D01*
X6467801Y-9980650D02*
X6505896Y-9980650D01*
X6505896Y-9980650D02*
X6524943Y-9990174D01*
X6524943Y-9990174D02*
X6534467Y-9999698D01*
X6534467Y-9999698D02*
X6543991Y-10018746D01*
X6543991Y-10018746D02*
X6543991Y-10075889D01*
X6543991Y-10075889D02*
X6534467Y-10094936D01*
X6534467Y-10094936D02*
X6524943Y-10104460D01*
X6524943Y-10104460D02*
X6505896Y-10113984D01*
X6505896Y-10113984D02*
X6467801Y-10113984D01*
X6467801Y-10113984D02*
X6448753Y-10104460D01*
X6629705Y-10094936D02*
X6639229Y-10104460D01*
X6639229Y-10104460D02*
X6629705Y-10113984D01*
X6629705Y-10113984D02*
X6620182Y-10104460D01*
X6620182Y-10104460D02*
X6629705Y-10094936D01*
X6629705Y-10094936D02*
X6629705Y-10113984D01*
X6629705Y-9990174D02*
X6639229Y-9999698D01*
X6639229Y-9999698D02*
X6629705Y-10009222D01*
X6629705Y-10009222D02*
X6620182Y-9999698D01*
X6620182Y-9999698D02*
X6629705Y-9990174D01*
X6629705Y-9990174D02*
X6629705Y-10009222D01*
X4797500Y-10342500D02*
X4997500Y-10542500D01*
X4997500Y-10342500D02*
X4797500Y-10542500D01*
X5248753Y-10353031D02*
X5258277Y-10343508D01*
X5258277Y-10343508D02*
X5277324Y-10333984D01*
X5277324Y-10333984D02*
X5324944Y-10333984D01*
X5324944Y-10333984D02*
X5343991Y-10343508D01*
X5343991Y-10343508D02*
X5353515Y-10353031D01*
X5353515Y-10353031D02*
X5363039Y-10372079D01*
X5363039Y-10372079D02*
X5363039Y-10391127D01*
X5363039Y-10391127D02*
X5353515Y-10419698D01*
X5353515Y-10419698D02*
X5239229Y-10533984D01*
X5239229Y-10533984D02*
X5363039Y-10533984D01*
X5448753Y-10514936D02*
X5458277Y-10524460D01*
X5458277Y-10524460D02*
X5448753Y-10533984D01*
X5448753Y-10533984D02*
X5439229Y-10524460D01*
X5439229Y-10524460D02*
X5448753Y-10514936D01*
X5448753Y-10514936D02*
X5448753Y-10533984D01*
X5534467Y-10353031D02*
X5543991Y-10343508D01*
X5543991Y-10343508D02*
X5563039Y-10333984D01*
X5563039Y-10333984D02*
X5610658Y-10333984D01*
X5610658Y-10333984D02*
X5629705Y-10343508D01*
X5629705Y-10343508D02*
X5639229Y-10353031D01*
X5639229Y-10353031D02*
X5648753Y-10372079D01*
X5648753Y-10372079D02*
X5648753Y-10391127D01*
X5648753Y-10391127D02*
X5639229Y-10419698D01*
X5639229Y-10419698D02*
X5524944Y-10533984D01*
X5524944Y-10533984D02*
X5648753Y-10533984D01*
X5772562Y-10333984D02*
X5791610Y-10333984D01*
X5791610Y-10333984D02*
X5810658Y-10343508D01*
X5810658Y-10343508D02*
X5820182Y-10353031D01*
X5820182Y-10353031D02*
X5829705Y-10372079D01*
X5829705Y-10372079D02*
X5839229Y-10410174D01*
X5839229Y-10410174D02*
X5839229Y-10457793D01*
X5839229Y-10457793D02*
X5829705Y-10495889D01*
X5829705Y-10495889D02*
X5820182Y-10514936D01*
X5820182Y-10514936D02*
X5810658Y-10524460D01*
X5810658Y-10524460D02*
X5791610Y-10533984D01*
X5791610Y-10533984D02*
X5772562Y-10533984D01*
X5772562Y-10533984D02*
X5753515Y-10524460D01*
X5753515Y-10524460D02*
X5743991Y-10514936D01*
X5743991Y-10514936D02*
X5734467Y-10495889D01*
X5734467Y-10495889D02*
X5724943Y-10457793D01*
X5724943Y-10457793D02*
X5724943Y-10410174D01*
X5724943Y-10410174D02*
X5734467Y-10372079D01*
X5734467Y-10372079D02*
X5743991Y-10353031D01*
X5743991Y-10353031D02*
X5753515Y-10343508D01*
X5753515Y-10343508D02*
X5772562Y-10333984D01*
X5963039Y-10333984D02*
X5982086Y-10333984D01*
X5982086Y-10333984D02*
X6001134Y-10343508D01*
X6001134Y-10343508D02*
X6010658Y-10353031D01*
X6010658Y-10353031D02*
X6020182Y-10372079D01*
X6020182Y-10372079D02*
X6029705Y-10410174D01*
X6029705Y-10410174D02*
X6029705Y-10457793D01*
X6029705Y-10457793D02*
X6020182Y-10495889D01*
X6020182Y-10495889D02*
X6010658Y-10514936D01*
X6010658Y-10514936D02*
X6001134Y-10524460D01*
X6001134Y-10524460D02*
X5982086Y-10533984D01*
X5982086Y-10533984D02*
X5963039Y-10533984D01*
X5963039Y-10533984D02*
X5943991Y-10524460D01*
X5943991Y-10524460D02*
X5934467Y-10514936D01*
X5934467Y-10514936D02*
X5924943Y-10495889D01*
X5924943Y-10495889D02*
X5915420Y-10457793D01*
X5915420Y-10457793D02*
X5915420Y-10410174D01*
X5915420Y-10410174D02*
X5924943Y-10372079D01*
X5924943Y-10372079D02*
X5934467Y-10353031D01*
X5934467Y-10353031D02*
X5943991Y-10343508D01*
X5943991Y-10343508D02*
X5963039Y-10333984D01*
X6115420Y-10533984D02*
X6115420Y-10400650D01*
X6115420Y-10419698D02*
X6124943Y-10410174D01*
X6124943Y-10410174D02*
X6143991Y-10400650D01*
X6143991Y-10400650D02*
X6172563Y-10400650D01*
X6172563Y-10400650D02*
X6191610Y-10410174D01*
X6191610Y-10410174D02*
X6201134Y-10429222D01*
X6201134Y-10429222D02*
X6201134Y-10533984D01*
X6201134Y-10429222D02*
X6210658Y-10410174D01*
X6210658Y-10410174D02*
X6229705Y-10400650D01*
X6229705Y-10400650D02*
X6258277Y-10400650D01*
X6258277Y-10400650D02*
X6277324Y-10410174D01*
X6277324Y-10410174D02*
X6286848Y-10429222D01*
X6286848Y-10429222D02*
X6286848Y-10533984D01*
X6382086Y-10533984D02*
X6382086Y-10400650D01*
X6382086Y-10419698D02*
X6391610Y-10410174D01*
X6391610Y-10410174D02*
X6410658Y-10400650D01*
X6410658Y-10400650D02*
X6439229Y-10400650D01*
X6439229Y-10400650D02*
X6458277Y-10410174D01*
X6458277Y-10410174D02*
X6467801Y-10429222D01*
X6467801Y-10429222D02*
X6467801Y-10533984D01*
X6467801Y-10429222D02*
X6477324Y-10410174D01*
X6477324Y-10410174D02*
X6496372Y-10400650D01*
X6496372Y-10400650D02*
X6524943Y-10400650D01*
X6524943Y-10400650D02*
X6543991Y-10410174D01*
X6543991Y-10410174D02*
X6553515Y-10429222D01*
X6553515Y-10429222D02*
X6553515Y-10533984D01*
X6943991Y-10324460D02*
X6772563Y-10581603D01*
X7201134Y-10333984D02*
X7220182Y-10333984D01*
X7220182Y-10333984D02*
X7239229Y-10343508D01*
X7239229Y-10343508D02*
X7248753Y-10353031D01*
X7248753Y-10353031D02*
X7258277Y-10372079D01*
X7258277Y-10372079D02*
X7267801Y-10410174D01*
X7267801Y-10410174D02*
X7267801Y-10457793D01*
X7267801Y-10457793D02*
X7258277Y-10495889D01*
X7258277Y-10495889D02*
X7248753Y-10514936D01*
X7248753Y-10514936D02*
X7239229Y-10524460D01*
X7239229Y-10524460D02*
X7220182Y-10533984D01*
X7220182Y-10533984D02*
X7201134Y-10533984D01*
X7201134Y-10533984D02*
X7182086Y-10524460D01*
X7182086Y-10524460D02*
X7172563Y-10514936D01*
X7172563Y-10514936D02*
X7163039Y-10495889D01*
X7163039Y-10495889D02*
X7153515Y-10457793D01*
X7153515Y-10457793D02*
X7153515Y-10410174D01*
X7153515Y-10410174D02*
X7163039Y-10372079D01*
X7163039Y-10372079D02*
X7172563Y-10353031D01*
X7172563Y-10353031D02*
X7182086Y-10343508D01*
X7182086Y-10343508D02*
X7201134Y-10333984D01*
X7353515Y-10514936D02*
X7363039Y-10524460D01*
X7363039Y-10524460D02*
X7353515Y-10533984D01*
X7353515Y-10533984D02*
X7343991Y-10524460D01*
X7343991Y-10524460D02*
X7353515Y-10514936D01*
X7353515Y-10514936D02*
X7353515Y-10533984D01*
X7486848Y-10333984D02*
X7505896Y-10333984D01*
X7505896Y-10333984D02*
X7524944Y-10343508D01*
X7524944Y-10343508D02*
X7534467Y-10353031D01*
X7534467Y-10353031D02*
X7543991Y-10372079D01*
X7543991Y-10372079D02*
X7553515Y-10410174D01*
X7553515Y-10410174D02*
X7553515Y-10457793D01*
X7553515Y-10457793D02*
X7543991Y-10495889D01*
X7543991Y-10495889D02*
X7534467Y-10514936D01*
X7534467Y-10514936D02*
X7524944Y-10524460D01*
X7524944Y-10524460D02*
X7505896Y-10533984D01*
X7505896Y-10533984D02*
X7486848Y-10533984D01*
X7486848Y-10533984D02*
X7467801Y-10524460D01*
X7467801Y-10524460D02*
X7458277Y-10514936D01*
X7458277Y-10514936D02*
X7448753Y-10495889D01*
X7448753Y-10495889D02*
X7439229Y-10457793D01*
X7439229Y-10457793D02*
X7439229Y-10410174D01*
X7439229Y-10410174D02*
X7448753Y-10372079D01*
X7448753Y-10372079D02*
X7458277Y-10353031D01*
X7458277Y-10353031D02*
X7467801Y-10343508D01*
X7467801Y-10343508D02*
X7486848Y-10333984D01*
X7667801Y-10419698D02*
X7648753Y-10410174D01*
X7648753Y-10410174D02*
X7639229Y-10400650D01*
X7639229Y-10400650D02*
X7629706Y-10381603D01*
X7629706Y-10381603D02*
X7629706Y-10372079D01*
X7629706Y-10372079D02*
X7639229Y-10353031D01*
X7639229Y-10353031D02*
X7648753Y-10343508D01*
X7648753Y-10343508D02*
X7667801Y-10333984D01*
X7667801Y-10333984D02*
X7705896Y-10333984D01*
X7705896Y-10333984D02*
X7724944Y-10343508D01*
X7724944Y-10343508D02*
X7734467Y-10353031D01*
X7734467Y-10353031D02*
X7743991Y-10372079D01*
X7743991Y-10372079D02*
X7743991Y-10381603D01*
X7743991Y-10381603D02*
X7734467Y-10400650D01*
X7734467Y-10400650D02*
X7724944Y-10410174D01*
X7724944Y-10410174D02*
X7705896Y-10419698D01*
X7705896Y-10419698D02*
X7667801Y-10419698D01*
X7667801Y-10419698D02*
X7648753Y-10429222D01*
X7648753Y-10429222D02*
X7639229Y-10438746D01*
X7639229Y-10438746D02*
X7629706Y-10457793D01*
X7629706Y-10457793D02*
X7629706Y-10495889D01*
X7629706Y-10495889D02*
X7639229Y-10514936D01*
X7639229Y-10514936D02*
X7648753Y-10524460D01*
X7648753Y-10524460D02*
X7667801Y-10533984D01*
X7667801Y-10533984D02*
X7705896Y-10533984D01*
X7705896Y-10533984D02*
X7724944Y-10524460D01*
X7724944Y-10524460D02*
X7734467Y-10514936D01*
X7734467Y-10514936D02*
X7743991Y-10495889D01*
X7743991Y-10495889D02*
X7743991Y-10457793D01*
X7743991Y-10457793D02*
X7734467Y-10438746D01*
X7734467Y-10438746D02*
X7724944Y-10429222D01*
X7724944Y-10429222D02*
X7705896Y-10419698D01*
X7915420Y-10333984D02*
X7877325Y-10333984D01*
X7877325Y-10333984D02*
X7858277Y-10343508D01*
X7858277Y-10343508D02*
X7848753Y-10353031D01*
X7848753Y-10353031D02*
X7829706Y-10381603D01*
X7829706Y-10381603D02*
X7820182Y-10419698D01*
X7820182Y-10419698D02*
X7820182Y-10495889D01*
X7820182Y-10495889D02*
X7829706Y-10514936D01*
X7829706Y-10514936D02*
X7839229Y-10524460D01*
X7839229Y-10524460D02*
X7858277Y-10533984D01*
X7858277Y-10533984D02*
X7896372Y-10533984D01*
X7896372Y-10533984D02*
X7915420Y-10524460D01*
X7915420Y-10524460D02*
X7924944Y-10514936D01*
X7924944Y-10514936D02*
X7934467Y-10495889D01*
X7934467Y-10495889D02*
X7934467Y-10448270D01*
X7934467Y-10448270D02*
X7924944Y-10429222D01*
X7924944Y-10429222D02*
X7915420Y-10419698D01*
X7915420Y-10419698D02*
X7896372Y-10410174D01*
X7896372Y-10410174D02*
X7858277Y-10410174D01*
X7858277Y-10410174D02*
X7839229Y-10419698D01*
X7839229Y-10419698D02*
X7829706Y-10429222D01*
X7829706Y-10429222D02*
X7820182Y-10448270D01*
X8105896Y-10333984D02*
X8067801Y-10333984D01*
X8067801Y-10333984D02*
X8048753Y-10343508D01*
X8048753Y-10343508D02*
X8039229Y-10353031D01*
X8039229Y-10353031D02*
X8020182Y-10381603D01*
X8020182Y-10381603D02*
X8010658Y-10419698D01*
X8010658Y-10419698D02*
X8010658Y-10495889D01*
X8010658Y-10495889D02*
X8020182Y-10514936D01*
X8020182Y-10514936D02*
X8029706Y-10524460D01*
X8029706Y-10524460D02*
X8048753Y-10533984D01*
X8048753Y-10533984D02*
X8086848Y-10533984D01*
X8086848Y-10533984D02*
X8105896Y-10524460D01*
X8105896Y-10524460D02*
X8115420Y-10514936D01*
X8115420Y-10514936D02*
X8124944Y-10495889D01*
X8124944Y-10495889D02*
X8124944Y-10448270D01*
X8124944Y-10448270D02*
X8115420Y-10429222D01*
X8115420Y-10429222D02*
X8105896Y-10419698D01*
X8105896Y-10419698D02*
X8086848Y-10410174D01*
X8086848Y-10410174D02*
X8048753Y-10410174D01*
X8048753Y-10410174D02*
X8029706Y-10419698D01*
X8029706Y-10419698D02*
X8020182Y-10429222D01*
X8020182Y-10429222D02*
X8010658Y-10448270D01*
X8201134Y-10333984D02*
X8201134Y-10372079D01*
X8277325Y-10333984D02*
X8277325Y-10372079D01*
X8572563Y-10610174D02*
X8563039Y-10600650D01*
X8563039Y-10600650D02*
X8543991Y-10572079D01*
X8543991Y-10572079D02*
X8534468Y-10553031D01*
X8534468Y-10553031D02*
X8524944Y-10524460D01*
X8524944Y-10524460D02*
X8515420Y-10476841D01*
X8515420Y-10476841D02*
X8515420Y-10438746D01*
X8515420Y-10438746D02*
X8524944Y-10391127D01*
X8524944Y-10391127D02*
X8534468Y-10362555D01*
X8534468Y-10362555D02*
X8543991Y-10343508D01*
X8543991Y-10343508D02*
X8563039Y-10314936D01*
X8563039Y-10314936D02*
X8572563Y-10305412D01*
X8734468Y-10400650D02*
X8734468Y-10533984D01*
X8686849Y-10324460D02*
X8639230Y-10467317D01*
X8639230Y-10467317D02*
X8763039Y-10467317D01*
X8991611Y-10533984D02*
X8991611Y-10333984D01*
X9077325Y-10533984D02*
X9077325Y-10429222D01*
X9077325Y-10429222D02*
X9067801Y-10410174D01*
X9067801Y-10410174D02*
X9048753Y-10400650D01*
X9048753Y-10400650D02*
X9020182Y-10400650D01*
X9020182Y-10400650D02*
X9001134Y-10410174D01*
X9001134Y-10410174D02*
X8991611Y-10419698D01*
X9201134Y-10533984D02*
X9182087Y-10524460D01*
X9182087Y-10524460D02*
X9172563Y-10514936D01*
X9172563Y-10514936D02*
X9163039Y-10495889D01*
X9163039Y-10495889D02*
X9163039Y-10438746D01*
X9163039Y-10438746D02*
X9172563Y-10419698D01*
X9172563Y-10419698D02*
X9182087Y-10410174D01*
X9182087Y-10410174D02*
X9201134Y-10400650D01*
X9201134Y-10400650D02*
X9229706Y-10400650D01*
X9229706Y-10400650D02*
X9248753Y-10410174D01*
X9248753Y-10410174D02*
X9258277Y-10419698D01*
X9258277Y-10419698D02*
X9267801Y-10438746D01*
X9267801Y-10438746D02*
X9267801Y-10495889D01*
X9267801Y-10495889D02*
X9258277Y-10514936D01*
X9258277Y-10514936D02*
X9248753Y-10524460D01*
X9248753Y-10524460D02*
X9229706Y-10533984D01*
X9229706Y-10533984D02*
X9201134Y-10533984D01*
X9382087Y-10533984D02*
X9363039Y-10524460D01*
X9363039Y-10524460D02*
X9353515Y-10505412D01*
X9353515Y-10505412D02*
X9353515Y-10333984D01*
X9534468Y-10524460D02*
X9515420Y-10533984D01*
X9515420Y-10533984D02*
X9477325Y-10533984D01*
X9477325Y-10533984D02*
X9458277Y-10524460D01*
X9458277Y-10524460D02*
X9448753Y-10505412D01*
X9448753Y-10505412D02*
X9448753Y-10429222D01*
X9448753Y-10429222D02*
X9458277Y-10410174D01*
X9458277Y-10410174D02*
X9477325Y-10400650D01*
X9477325Y-10400650D02*
X9515420Y-10400650D01*
X9515420Y-10400650D02*
X9534468Y-10410174D01*
X9534468Y-10410174D02*
X9543992Y-10429222D01*
X9543992Y-10429222D02*
X9543992Y-10448270D01*
X9543992Y-10448270D02*
X9448753Y-10467317D01*
X9620182Y-10524460D02*
X9639230Y-10533984D01*
X9639230Y-10533984D02*
X9677325Y-10533984D01*
X9677325Y-10533984D02*
X9696373Y-10524460D01*
X9696373Y-10524460D02*
X9705896Y-10505412D01*
X9705896Y-10505412D02*
X9705896Y-10495889D01*
X9705896Y-10495889D02*
X9696373Y-10476841D01*
X9696373Y-10476841D02*
X9677325Y-10467317D01*
X9677325Y-10467317D02*
X9648753Y-10467317D01*
X9648753Y-10467317D02*
X9629706Y-10457793D01*
X9629706Y-10457793D02*
X9620182Y-10438746D01*
X9620182Y-10438746D02*
X9620182Y-10429222D01*
X9620182Y-10429222D02*
X9629706Y-10410174D01*
X9629706Y-10410174D02*
X9648753Y-10400650D01*
X9648753Y-10400650D02*
X9677325Y-10400650D01*
X9677325Y-10400650D02*
X9696373Y-10410174D01*
X9772563Y-10610174D02*
X9782087Y-10600650D01*
X9782087Y-10600650D02*
X9801134Y-10572079D01*
X9801134Y-10572079D02*
X9810658Y-10553031D01*
X9810658Y-10553031D02*
X9820182Y-10524460D01*
X9820182Y-10524460D02*
X9829706Y-10476841D01*
X9829706Y-10476841D02*
X9829706Y-10438746D01*
X9829706Y-10438746D02*
X9820182Y-10391127D01*
X9820182Y-10391127D02*
X9810658Y-10362555D01*
X9810658Y-10362555D02*
X9801134Y-10343508D01*
X9801134Y-10343508D02*
X9782087Y-10314936D01*
X9782087Y-10314936D02*
X9772563Y-10305412D01*
X10134468Y-10610174D02*
X10124944Y-10600650D01*
X10124944Y-10600650D02*
X10105896Y-10572079D01*
X10105896Y-10572079D02*
X10096373Y-10553031D01*
X10096373Y-10553031D02*
X10086849Y-10524460D01*
X10086849Y-10524460D02*
X10077325Y-10476841D01*
X10077325Y-10476841D02*
X10077325Y-10438746D01*
X10077325Y-10438746D02*
X10086849Y-10391127D01*
X10086849Y-10391127D02*
X10096373Y-10362555D01*
X10096373Y-10362555D02*
X10105896Y-10343508D01*
X10105896Y-10343508D02*
X10124944Y-10314936D01*
X10124944Y-10314936D02*
X10134468Y-10305412D01*
X10210658Y-10400650D02*
X10210658Y-10533984D01*
X10210658Y-10419698D02*
X10220182Y-10410174D01*
X10220182Y-10410174D02*
X10239230Y-10400650D01*
X10239230Y-10400650D02*
X10267801Y-10400650D01*
X10267801Y-10400650D02*
X10286849Y-10410174D01*
X10286849Y-10410174D02*
X10296373Y-10429222D01*
X10296373Y-10429222D02*
X10296373Y-10533984D01*
X10420182Y-10533984D02*
X10401134Y-10524460D01*
X10401134Y-10524460D02*
X10391611Y-10514936D01*
X10391611Y-10514936D02*
X10382087Y-10495889D01*
X10382087Y-10495889D02*
X10382087Y-10438746D01*
X10382087Y-10438746D02*
X10391611Y-10419698D01*
X10391611Y-10419698D02*
X10401134Y-10410174D01*
X10401134Y-10410174D02*
X10420182Y-10400650D01*
X10420182Y-10400650D02*
X10448754Y-10400650D01*
X10448754Y-10400650D02*
X10467801Y-10410174D01*
X10467801Y-10410174D02*
X10477325Y-10419698D01*
X10477325Y-10419698D02*
X10486849Y-10438746D01*
X10486849Y-10438746D02*
X10486849Y-10495889D01*
X10486849Y-10495889D02*
X10477325Y-10514936D01*
X10477325Y-10514936D02*
X10467801Y-10524460D01*
X10467801Y-10524460D02*
X10448754Y-10533984D01*
X10448754Y-10533984D02*
X10420182Y-10533984D01*
X10543992Y-10400650D02*
X10620182Y-10400650D01*
X10572563Y-10333984D02*
X10572563Y-10505412D01*
X10572563Y-10505412D02*
X10582087Y-10524460D01*
X10582087Y-10524460D02*
X10601134Y-10533984D01*
X10601134Y-10533984D02*
X10620182Y-10533984D01*
X10839230Y-10400650D02*
X10839230Y-10600650D01*
X10839230Y-10410174D02*
X10858277Y-10400650D01*
X10858277Y-10400650D02*
X10896373Y-10400650D01*
X10896373Y-10400650D02*
X10915420Y-10410174D01*
X10915420Y-10410174D02*
X10924944Y-10419698D01*
X10924944Y-10419698D02*
X10934468Y-10438746D01*
X10934468Y-10438746D02*
X10934468Y-10495889D01*
X10934468Y-10495889D02*
X10924944Y-10514936D01*
X10924944Y-10514936D02*
X10915420Y-10524460D01*
X10915420Y-10524460D02*
X10896373Y-10533984D01*
X10896373Y-10533984D02*
X10858277Y-10533984D01*
X10858277Y-10533984D02*
X10839230Y-10524460D01*
X11048754Y-10533984D02*
X11029706Y-10524460D01*
X11029706Y-10524460D02*
X11020182Y-10505412D01*
X11020182Y-10505412D02*
X11020182Y-10333984D01*
X11210658Y-10533984D02*
X11210658Y-10429222D01*
X11210658Y-10429222D02*
X11201134Y-10410174D01*
X11201134Y-10410174D02*
X11182087Y-10400650D01*
X11182087Y-10400650D02*
X11143992Y-10400650D01*
X11143992Y-10400650D02*
X11124944Y-10410174D01*
X11210658Y-10524460D02*
X11191611Y-10533984D01*
X11191611Y-10533984D02*
X11143992Y-10533984D01*
X11143992Y-10533984D02*
X11124944Y-10524460D01*
X11124944Y-10524460D02*
X11115420Y-10505412D01*
X11115420Y-10505412D02*
X11115420Y-10486365D01*
X11115420Y-10486365D02*
X11124944Y-10467317D01*
X11124944Y-10467317D02*
X11143992Y-10457793D01*
X11143992Y-10457793D02*
X11191611Y-10457793D01*
X11191611Y-10457793D02*
X11210658Y-10448270D01*
X11277325Y-10400650D02*
X11353515Y-10400650D01*
X11305896Y-10333984D02*
X11305896Y-10505412D01*
X11305896Y-10505412D02*
X11315420Y-10524460D01*
X11315420Y-10524460D02*
X11334468Y-10533984D01*
X11334468Y-10533984D02*
X11353515Y-10533984D01*
X11496373Y-10524460D02*
X11477325Y-10533984D01*
X11477325Y-10533984D02*
X11439230Y-10533984D01*
X11439230Y-10533984D02*
X11420182Y-10524460D01*
X11420182Y-10524460D02*
X11410658Y-10505412D01*
X11410658Y-10505412D02*
X11410658Y-10429222D01*
X11410658Y-10429222D02*
X11420182Y-10410174D01*
X11420182Y-10410174D02*
X11439230Y-10400650D01*
X11439230Y-10400650D02*
X11477325Y-10400650D01*
X11477325Y-10400650D02*
X11496373Y-10410174D01*
X11496373Y-10410174D02*
X11505896Y-10429222D01*
X11505896Y-10429222D02*
X11505896Y-10448270D01*
X11505896Y-10448270D02*
X11410658Y-10467317D01*
X11677325Y-10533984D02*
X11677325Y-10333984D01*
X11677325Y-10524460D02*
X11658277Y-10533984D01*
X11658277Y-10533984D02*
X11620182Y-10533984D01*
X11620182Y-10533984D02*
X11601134Y-10524460D01*
X11601134Y-10524460D02*
X11591611Y-10514936D01*
X11591611Y-10514936D02*
X11582087Y-10495889D01*
X11582087Y-10495889D02*
X11582087Y-10438746D01*
X11582087Y-10438746D02*
X11591611Y-10419698D01*
X11591611Y-10419698D02*
X11601134Y-10410174D01*
X11601134Y-10410174D02*
X11620182Y-10400650D01*
X11620182Y-10400650D02*
X11658277Y-10400650D01*
X11658277Y-10400650D02*
X11677325Y-10410174D01*
X11753515Y-10610174D02*
X11763039Y-10600650D01*
X11763039Y-10600650D02*
X11782087Y-10572079D01*
X11782087Y-10572079D02*
X11791611Y-10553031D01*
X11791611Y-10553031D02*
X11801134Y-10524460D01*
X11801134Y-10524460D02*
X11810658Y-10476841D01*
X11810658Y-10476841D02*
X11810658Y-10438746D01*
X11810658Y-10438746D02*
X11801134Y-10391127D01*
X11801134Y-10391127D02*
X11791611Y-10362555D01*
X11791611Y-10362555D02*
X11782087Y-10343508D01*
X11782087Y-10343508D02*
X11763039Y-10314936D01*
X11763039Y-10314936D02*
X11753515Y-10305412D01*
M02*
