%TF.GenerationSoftware,KiCad,Pcbnew,8.0.8*%
%TF.CreationDate,2025-01-19T15:48:06-06:00*%
%TF.ProjectId,Block-JAN6418,426c6f63-6b2d-44a4-914e-363431382e6b,rev?*%
%TF.SameCoordinates,Original*%
%TF.FileFunction,Soldermask,Bot*%
%TF.FilePolarity,Negative*%
%FSLAX46Y46*%
G04 Gerber Fmt 4.6, Leading zero omitted, Abs format (unit mm)*
G04 Created by KiCad (PCBNEW 8.0.8) date 2025-01-19 15:48:06*
%MOMM*%
%LPD*%
G01*
G04 APERTURE LIST*
%ADD10R,1.200000X1.200000*%
%ADD11C,1.200000*%
%ADD12R,1.800000X1.800000*%
%ADD13C,1.800000*%
%ADD14C,3.000000*%
%ADD15C,2.200000*%
%ADD16C,2.000000*%
%ADD17C,1.600000*%
%ADD18O,1.600000X1.600000*%
%ADD19R,1.500000X1.500000*%
%ADD20C,1.500000*%
%ADD21C,1.400000*%
G04 APERTURE END LIST*
D10*
%TO.C,C4*%
X58000000Y-62277401D03*
D11*
X58000000Y-63777401D03*
%TD*%
D12*
%TO.C,U1*%
X83000000Y-78452500D03*
D13*
X80460000Y-78452500D03*
X77920000Y-78452500D03*
X75380000Y-78452500D03*
X72840000Y-78452500D03*
%TD*%
D14*
%TO.C,+9V*%
X55495000Y-48452500D03*
%TD*%
D15*
%TO.C,REF\u002A\u002A*%
X94000000Y-94000000D03*
%TD*%
D16*
%TO.C,C1*%
X90000000Y-74372500D03*
X95000000Y-74372500D03*
%TD*%
D17*
%TO.C,R8*%
X63500000Y-64045000D03*
D18*
X63500000Y-61505000D03*
%TD*%
D14*
%TO.C,Sig_gnd*%
X55500000Y-71000000D03*
%TD*%
D17*
%TO.C,R5*%
X75540000Y-84952500D03*
D18*
X73000000Y-84952500D03*
%TD*%
D17*
%TO.C,R1*%
X64545000Y-48000000D03*
D18*
X62005000Y-48000000D03*
%TD*%
D17*
%TO.C,Impedance*%
X65000000Y-82850000D03*
D18*
X65000000Y-70150000D03*
%TD*%
D15*
%TO.C,REF\u002A\u002A*%
X54000000Y-39000000D03*
%TD*%
D17*
%TO.C,R2*%
X64540000Y-52000000D03*
D18*
X62000000Y-52000000D03*
%TD*%
D17*
%TO.C,Ra*%
X92500000Y-56672500D03*
D18*
X92500000Y-69372500D03*
%TD*%
D19*
%TO.C,U2*%
X58040000Y-57140000D03*
D20*
X55500000Y-57140000D03*
X52960000Y-57140000D03*
%TD*%
D14*
%TO.C,Sig_out*%
X92500000Y-83372500D03*
%TD*%
D16*
%TO.C,C2*%
X62500000Y-86000000D03*
X67500000Y-86000000D03*
%TD*%
D17*
%TO.C,R7*%
X63500000Y-58545000D03*
D18*
X63500000Y-56005000D03*
%TD*%
D15*
%TO.C,REF\u002A\u002A*%
X94000000Y-39000000D03*
%TD*%
D17*
%TO.C,R4*%
X83040000Y-84952500D03*
D18*
X80500000Y-84952500D03*
%TD*%
D14*
%TO.C,B+*%
X92500000Y-48372500D03*
%TD*%
%TO.C,Sig_in*%
X55500000Y-83500000D03*
%TD*%
D15*
%TO.C,REF\u002A\u002A*%
X54000000Y-94000000D03*
%TD*%
D21*
%TO.C,C3*%
X53000000Y-61750000D03*
X53000000Y-64250000D03*
%TD*%
M02*
