%TF.GenerationSoftware,KiCad,Pcbnew,8.0.5*%
%TF.CreationDate,2024-10-10T08:50:52-05:00*%
%TF.ProjectId,Block-JAN6418,426c6f63-6b2d-44a4-914e-363431382e6b,rev?*%
%TF.SameCoordinates,Original*%
%TF.FileFunction,Legend,Top*%
%TF.FilePolarity,Positive*%
%FSLAX46Y46*%
G04 Gerber Fmt 4.6, Leading zero omitted, Abs format (unit mm)*
G04 Created by KiCad (PCBNEW 8.0.5) date 2024-10-10 08:50:52*
%MOMM*%
%LPD*%
G01*
G04 APERTURE LIST*
%ADD10C,0.150000*%
%ADD11C,0.100000*%
%ADD12C,0.120000*%
G04 APERTURE END LIST*
D10*
X75170112Y-93626121D02*
X74836779Y-93626121D01*
X74836779Y-94149931D02*
X74836779Y-93149931D01*
X74836779Y-93149931D02*
X75312969Y-93149931D01*
X75836779Y-94149931D02*
X75741541Y-94102312D01*
X75741541Y-94102312D02*
X75693922Y-94054692D01*
X75693922Y-94054692D02*
X75646303Y-93959454D01*
X75646303Y-93959454D02*
X75646303Y-93673740D01*
X75646303Y-93673740D02*
X75693922Y-93578502D01*
X75693922Y-93578502D02*
X75741541Y-93530883D01*
X75741541Y-93530883D02*
X75836779Y-93483264D01*
X75836779Y-93483264D02*
X75979636Y-93483264D01*
X75979636Y-93483264D02*
X76074874Y-93530883D01*
X76074874Y-93530883D02*
X76122493Y-93578502D01*
X76122493Y-93578502D02*
X76170112Y-93673740D01*
X76170112Y-93673740D02*
X76170112Y-93959454D01*
X76170112Y-93959454D02*
X76122493Y-94054692D01*
X76122493Y-94054692D02*
X76074874Y-94102312D01*
X76074874Y-94102312D02*
X75979636Y-94149931D01*
X75979636Y-94149931D02*
X75836779Y-94149931D01*
X76598684Y-94149931D02*
X76598684Y-93483264D01*
X76598684Y-93673740D02*
X76646303Y-93578502D01*
X76646303Y-93578502D02*
X76693922Y-93530883D01*
X76693922Y-93530883D02*
X76789160Y-93483264D01*
X76789160Y-93483264D02*
X76884398Y-93483264D01*
X77836780Y-93483264D02*
X78217732Y-93483264D01*
X77979637Y-93149931D02*
X77979637Y-94007073D01*
X77979637Y-94007073D02*
X78027256Y-94102312D01*
X78027256Y-94102312D02*
X78122494Y-94149931D01*
X78122494Y-94149931D02*
X78217732Y-94149931D01*
X78551066Y-94149931D02*
X78551066Y-93483264D01*
X78551066Y-93673740D02*
X78598685Y-93578502D01*
X78598685Y-93578502D02*
X78646304Y-93530883D01*
X78646304Y-93530883D02*
X78741542Y-93483264D01*
X78741542Y-93483264D02*
X78836780Y-93483264D01*
X79170114Y-94149931D02*
X79170114Y-93483264D01*
X79170114Y-93149931D02*
X79122495Y-93197550D01*
X79122495Y-93197550D02*
X79170114Y-93245169D01*
X79170114Y-93245169D02*
X79217733Y-93197550D01*
X79217733Y-93197550D02*
X79170114Y-93149931D01*
X79170114Y-93149931D02*
X79170114Y-93245169D01*
X79789161Y-94149931D02*
X79693923Y-94102312D01*
X79693923Y-94102312D02*
X79646304Y-94054692D01*
X79646304Y-94054692D02*
X79598685Y-93959454D01*
X79598685Y-93959454D02*
X79598685Y-93673740D01*
X79598685Y-93673740D02*
X79646304Y-93578502D01*
X79646304Y-93578502D02*
X79693923Y-93530883D01*
X79693923Y-93530883D02*
X79789161Y-93483264D01*
X79789161Y-93483264D02*
X79932018Y-93483264D01*
X79932018Y-93483264D02*
X80027256Y-93530883D01*
X80027256Y-93530883D02*
X80074875Y-93578502D01*
X80074875Y-93578502D02*
X80122494Y-93673740D01*
X80122494Y-93673740D02*
X80122494Y-93959454D01*
X80122494Y-93959454D02*
X80074875Y-94054692D01*
X80074875Y-94054692D02*
X80027256Y-94102312D01*
X80027256Y-94102312D02*
X79932018Y-94149931D01*
X79932018Y-94149931D02*
X79789161Y-94149931D01*
X80979637Y-94149931D02*
X80979637Y-93149931D01*
X80979637Y-94102312D02*
X80884399Y-94149931D01*
X80884399Y-94149931D02*
X80693923Y-94149931D01*
X80693923Y-94149931D02*
X80598685Y-94102312D01*
X80598685Y-94102312D02*
X80551066Y-94054692D01*
X80551066Y-94054692D02*
X80503447Y-93959454D01*
X80503447Y-93959454D02*
X80503447Y-93673740D01*
X80503447Y-93673740D02*
X80551066Y-93578502D01*
X80551066Y-93578502D02*
X80598685Y-93530883D01*
X80598685Y-93530883D02*
X80693923Y-93483264D01*
X80693923Y-93483264D02*
X80884399Y-93483264D01*
X80884399Y-93483264D02*
X80979637Y-93530883D01*
X81836780Y-94102312D02*
X81741542Y-94149931D01*
X81741542Y-94149931D02*
X81551066Y-94149931D01*
X81551066Y-94149931D02*
X81455828Y-94102312D01*
X81455828Y-94102312D02*
X81408209Y-94007073D01*
X81408209Y-94007073D02*
X81408209Y-93626121D01*
X81408209Y-93626121D02*
X81455828Y-93530883D01*
X81455828Y-93530883D02*
X81551066Y-93483264D01*
X81551066Y-93483264D02*
X81741542Y-93483264D01*
X81741542Y-93483264D02*
X81836780Y-93530883D01*
X81836780Y-93530883D02*
X81884399Y-93626121D01*
X81884399Y-93626121D02*
X81884399Y-93721359D01*
X81884399Y-93721359D02*
X81408209Y-93816597D01*
X83074876Y-94149931D02*
X83074876Y-93483264D01*
X83074876Y-93578502D02*
X83122495Y-93530883D01*
X83122495Y-93530883D02*
X83217733Y-93483264D01*
X83217733Y-93483264D02*
X83360590Y-93483264D01*
X83360590Y-93483264D02*
X83455828Y-93530883D01*
X83455828Y-93530883D02*
X83503447Y-93626121D01*
X83503447Y-93626121D02*
X83503447Y-94149931D01*
X83503447Y-93626121D02*
X83551066Y-93530883D01*
X83551066Y-93530883D02*
X83646304Y-93483264D01*
X83646304Y-93483264D02*
X83789161Y-93483264D01*
X83789161Y-93483264D02*
X83884400Y-93530883D01*
X83884400Y-93530883D02*
X83932019Y-93626121D01*
X83932019Y-93626121D02*
X83932019Y-94149931D01*
X84551066Y-94149931D02*
X84455828Y-94102312D01*
X84455828Y-94102312D02*
X84408209Y-94054692D01*
X84408209Y-94054692D02*
X84360590Y-93959454D01*
X84360590Y-93959454D02*
X84360590Y-93673740D01*
X84360590Y-93673740D02*
X84408209Y-93578502D01*
X84408209Y-93578502D02*
X84455828Y-93530883D01*
X84455828Y-93530883D02*
X84551066Y-93483264D01*
X84551066Y-93483264D02*
X84693923Y-93483264D01*
X84693923Y-93483264D02*
X84789161Y-93530883D01*
X84789161Y-93530883D02*
X84836780Y-93578502D01*
X84836780Y-93578502D02*
X84884399Y-93673740D01*
X84884399Y-93673740D02*
X84884399Y-93959454D01*
X84884399Y-93959454D02*
X84836780Y-94054692D01*
X84836780Y-94054692D02*
X84789161Y-94102312D01*
X84789161Y-94102312D02*
X84693923Y-94149931D01*
X84693923Y-94149931D02*
X84551066Y-94149931D01*
X85741542Y-94149931D02*
X85741542Y-93149931D01*
X85741542Y-94102312D02*
X85646304Y-94149931D01*
X85646304Y-94149931D02*
X85455828Y-94149931D01*
X85455828Y-94149931D02*
X85360590Y-94102312D01*
X85360590Y-94102312D02*
X85312971Y-94054692D01*
X85312971Y-94054692D02*
X85265352Y-93959454D01*
X85265352Y-93959454D02*
X85265352Y-93673740D01*
X85265352Y-93673740D02*
X85312971Y-93578502D01*
X85312971Y-93578502D02*
X85360590Y-93530883D01*
X85360590Y-93530883D02*
X85455828Y-93483264D01*
X85455828Y-93483264D02*
X85646304Y-93483264D01*
X85646304Y-93483264D02*
X85741542Y-93530883D01*
X86598685Y-94102312D02*
X86503447Y-94149931D01*
X86503447Y-94149931D02*
X86312971Y-94149931D01*
X86312971Y-94149931D02*
X86217733Y-94102312D01*
X86217733Y-94102312D02*
X86170114Y-94007073D01*
X86170114Y-94007073D02*
X86170114Y-93626121D01*
X86170114Y-93626121D02*
X86217733Y-93530883D01*
X86217733Y-93530883D02*
X86312971Y-93483264D01*
X86312971Y-93483264D02*
X86503447Y-93483264D01*
X86503447Y-93483264D02*
X86598685Y-93530883D01*
X86598685Y-93530883D02*
X86646304Y-93626121D01*
X86646304Y-93626121D02*
X86646304Y-93721359D01*
X86646304Y-93721359D02*
X86170114Y-93816597D01*
X87122495Y-94102312D02*
X87122495Y-94149931D01*
X87122495Y-94149931D02*
X87074876Y-94245169D01*
X87074876Y-94245169D02*
X87027257Y-94292788D01*
X88312971Y-94149931D02*
X88312971Y-93483264D01*
X88312971Y-93149931D02*
X88265352Y-93197550D01*
X88265352Y-93197550D02*
X88312971Y-93245169D01*
X88312971Y-93245169D02*
X88360590Y-93197550D01*
X88360590Y-93197550D02*
X88312971Y-93149931D01*
X88312971Y-93149931D02*
X88312971Y-93245169D01*
X88789161Y-93483264D02*
X88789161Y-94149931D01*
X88789161Y-93578502D02*
X88836780Y-93530883D01*
X88836780Y-93530883D02*
X88932018Y-93483264D01*
X88932018Y-93483264D02*
X89074875Y-93483264D01*
X89074875Y-93483264D02*
X89170113Y-93530883D01*
X89170113Y-93530883D02*
X89217732Y-93626121D01*
X89217732Y-93626121D02*
X89217732Y-94149931D01*
X89646304Y-94102312D02*
X89741542Y-94149931D01*
X89741542Y-94149931D02*
X89932018Y-94149931D01*
X89932018Y-94149931D02*
X90027256Y-94102312D01*
X90027256Y-94102312D02*
X90074875Y-94007073D01*
X90074875Y-94007073D02*
X90074875Y-93959454D01*
X90074875Y-93959454D02*
X90027256Y-93864216D01*
X90027256Y-93864216D02*
X89932018Y-93816597D01*
X89932018Y-93816597D02*
X89789161Y-93816597D01*
X89789161Y-93816597D02*
X89693923Y-93768978D01*
X89693923Y-93768978D02*
X89646304Y-93673740D01*
X89646304Y-93673740D02*
X89646304Y-93626121D01*
X89646304Y-93626121D02*
X89693923Y-93530883D01*
X89693923Y-93530883D02*
X89789161Y-93483264D01*
X89789161Y-93483264D02*
X89932018Y-93483264D01*
X89932018Y-93483264D02*
X90027256Y-93530883D01*
X90360590Y-93483264D02*
X90741542Y-93483264D01*
X90503447Y-93149931D02*
X90503447Y-94007073D01*
X90503447Y-94007073D02*
X90551066Y-94102312D01*
X90551066Y-94102312D02*
X90646304Y-94149931D01*
X90646304Y-94149931D02*
X90741542Y-94149931D01*
X91503447Y-94149931D02*
X91503447Y-93626121D01*
X91503447Y-93626121D02*
X91455828Y-93530883D01*
X91455828Y-93530883D02*
X91360590Y-93483264D01*
X91360590Y-93483264D02*
X91170114Y-93483264D01*
X91170114Y-93483264D02*
X91074876Y-93530883D01*
X91503447Y-94102312D02*
X91408209Y-94149931D01*
X91408209Y-94149931D02*
X91170114Y-94149931D01*
X91170114Y-94149931D02*
X91074876Y-94102312D01*
X91074876Y-94102312D02*
X91027257Y-94007073D01*
X91027257Y-94007073D02*
X91027257Y-93911835D01*
X91027257Y-93911835D02*
X91074876Y-93816597D01*
X91074876Y-93816597D02*
X91170114Y-93768978D01*
X91170114Y-93768978D02*
X91408209Y-93768978D01*
X91408209Y-93768978D02*
X91503447Y-93721359D01*
X92122495Y-94149931D02*
X92027257Y-94102312D01*
X92027257Y-94102312D02*
X91979638Y-94007073D01*
X91979638Y-94007073D02*
X91979638Y-93149931D01*
X92646305Y-94149931D02*
X92551067Y-94102312D01*
X92551067Y-94102312D02*
X92503448Y-94007073D01*
X92503448Y-94007073D02*
X92503448Y-93149931D01*
X94217734Y-94149931D02*
X94217734Y-93626121D01*
X94217734Y-93626121D02*
X94170115Y-93530883D01*
X94170115Y-93530883D02*
X94074877Y-93483264D01*
X94074877Y-93483264D02*
X93884401Y-93483264D01*
X93884401Y-93483264D02*
X93789163Y-93530883D01*
X94217734Y-94102312D02*
X94122496Y-94149931D01*
X94122496Y-94149931D02*
X93884401Y-94149931D01*
X93884401Y-94149931D02*
X93789163Y-94102312D01*
X93789163Y-94102312D02*
X93741544Y-94007073D01*
X93741544Y-94007073D02*
X93741544Y-93911835D01*
X93741544Y-93911835D02*
X93789163Y-93816597D01*
X93789163Y-93816597D02*
X93884401Y-93768978D01*
X93884401Y-93768978D02*
X94122496Y-93768978D01*
X94122496Y-93768978D02*
X94217734Y-93721359D01*
X95455830Y-93483264D02*
X95455830Y-94340407D01*
X95455830Y-94340407D02*
X95408211Y-94435645D01*
X95408211Y-94435645D02*
X95312973Y-94483264D01*
X95312973Y-94483264D02*
X95265354Y-94483264D01*
X95455830Y-93149931D02*
X95408211Y-93197550D01*
X95408211Y-93197550D02*
X95455830Y-93245169D01*
X95455830Y-93245169D02*
X95503449Y-93197550D01*
X95503449Y-93197550D02*
X95455830Y-93149931D01*
X95455830Y-93149931D02*
X95455830Y-93245169D01*
X96360591Y-93483264D02*
X96360591Y-94149931D01*
X95932020Y-93483264D02*
X95932020Y-94007073D01*
X95932020Y-94007073D02*
X95979639Y-94102312D01*
X95979639Y-94102312D02*
X96074877Y-94149931D01*
X96074877Y-94149931D02*
X96217734Y-94149931D01*
X96217734Y-94149931D02*
X96312972Y-94102312D01*
X96312972Y-94102312D02*
X96360591Y-94054692D01*
X96836782Y-94149931D02*
X96836782Y-93483264D01*
X96836782Y-93578502D02*
X96884401Y-93530883D01*
X96884401Y-93530883D02*
X96979639Y-93483264D01*
X96979639Y-93483264D02*
X97122496Y-93483264D01*
X97122496Y-93483264D02*
X97217734Y-93530883D01*
X97217734Y-93530883D02*
X97265353Y-93626121D01*
X97265353Y-93626121D02*
X97265353Y-94149931D01*
X97265353Y-93626121D02*
X97312972Y-93530883D01*
X97312972Y-93530883D02*
X97408210Y-93483264D01*
X97408210Y-93483264D02*
X97551067Y-93483264D01*
X97551067Y-93483264D02*
X97646306Y-93530883D01*
X97646306Y-93530883D02*
X97693925Y-93626121D01*
X97693925Y-93626121D02*
X97693925Y-94149931D01*
X98170115Y-93483264D02*
X98170115Y-94483264D01*
X98170115Y-93530883D02*
X98265353Y-93483264D01*
X98265353Y-93483264D02*
X98455829Y-93483264D01*
X98455829Y-93483264D02*
X98551067Y-93530883D01*
X98551067Y-93530883D02*
X98598686Y-93578502D01*
X98598686Y-93578502D02*
X98646305Y-93673740D01*
X98646305Y-93673740D02*
X98646305Y-93959454D01*
X98646305Y-93959454D02*
X98598686Y-94054692D01*
X98598686Y-94054692D02*
X98551067Y-94102312D01*
X98551067Y-94102312D02*
X98455829Y-94149931D01*
X98455829Y-94149931D02*
X98265353Y-94149931D01*
X98265353Y-94149931D02*
X98170115Y-94102312D01*
X99455829Y-94102312D02*
X99360591Y-94149931D01*
X99360591Y-94149931D02*
X99170115Y-94149931D01*
X99170115Y-94149931D02*
X99074877Y-94102312D01*
X99074877Y-94102312D02*
X99027258Y-94007073D01*
X99027258Y-94007073D02*
X99027258Y-93626121D01*
X99027258Y-93626121D02*
X99074877Y-93530883D01*
X99074877Y-93530883D02*
X99170115Y-93483264D01*
X99170115Y-93483264D02*
X99360591Y-93483264D01*
X99360591Y-93483264D02*
X99455829Y-93530883D01*
X99455829Y-93530883D02*
X99503448Y-93626121D01*
X99503448Y-93626121D02*
X99503448Y-93721359D01*
X99503448Y-93721359D02*
X99027258Y-93816597D01*
X99932020Y-94149931D02*
X99932020Y-93483264D01*
X99932020Y-93673740D02*
X99979639Y-93578502D01*
X99979639Y-93578502D02*
X100027258Y-93530883D01*
X100027258Y-93530883D02*
X100122496Y-93483264D01*
X100122496Y-93483264D02*
X100217734Y-93483264D01*
X101312973Y-94149931D02*
X101312973Y-93483264D01*
X101312973Y-93149931D02*
X101265354Y-93197550D01*
X101265354Y-93197550D02*
X101312973Y-93245169D01*
X101312973Y-93245169D02*
X101360592Y-93197550D01*
X101360592Y-93197550D02*
X101312973Y-93149931D01*
X101312973Y-93149931D02*
X101312973Y-93245169D01*
X101789163Y-93483264D02*
X101789163Y-94149931D01*
X101789163Y-93578502D02*
X101836782Y-93530883D01*
X101836782Y-93530883D02*
X101932020Y-93483264D01*
X101932020Y-93483264D02*
X102074877Y-93483264D01*
X102074877Y-93483264D02*
X102170115Y-93530883D01*
X102170115Y-93530883D02*
X102217734Y-93626121D01*
X102217734Y-93626121D02*
X102217734Y-94149931D01*
X104027258Y-94149931D02*
X103693925Y-93673740D01*
X103455830Y-94149931D02*
X103455830Y-93149931D01*
X103455830Y-93149931D02*
X103836782Y-93149931D01*
X103836782Y-93149931D02*
X103932020Y-93197550D01*
X103932020Y-93197550D02*
X103979639Y-93245169D01*
X103979639Y-93245169D02*
X104027258Y-93340407D01*
X104027258Y-93340407D02*
X104027258Y-93483264D01*
X104027258Y-93483264D02*
X103979639Y-93578502D01*
X103979639Y-93578502D02*
X103932020Y-93626121D01*
X103932020Y-93626121D02*
X103836782Y-93673740D01*
X103836782Y-93673740D02*
X103455830Y-93673740D01*
X104884401Y-93483264D02*
X104884401Y-94149931D01*
X104646306Y-93102312D02*
X104408211Y-93816597D01*
X104408211Y-93816597D02*
X105027258Y-93816597D01*
X105408211Y-94054692D02*
X105455830Y-94102312D01*
X105455830Y-94102312D02*
X105408211Y-94149931D01*
X105408211Y-94149931D02*
X105360592Y-94102312D01*
X105360592Y-94102312D02*
X105408211Y-94054692D01*
X105408211Y-94054692D02*
X105408211Y-94149931D01*
X75170112Y-95236065D02*
X74836779Y-95236065D01*
X74836779Y-95759875D02*
X74836779Y-94759875D01*
X74836779Y-94759875D02*
X75312969Y-94759875D01*
X75836779Y-95759875D02*
X75741541Y-95712256D01*
X75741541Y-95712256D02*
X75693922Y-95664636D01*
X75693922Y-95664636D02*
X75646303Y-95569398D01*
X75646303Y-95569398D02*
X75646303Y-95283684D01*
X75646303Y-95283684D02*
X75693922Y-95188446D01*
X75693922Y-95188446D02*
X75741541Y-95140827D01*
X75741541Y-95140827D02*
X75836779Y-95093208D01*
X75836779Y-95093208D02*
X75979636Y-95093208D01*
X75979636Y-95093208D02*
X76074874Y-95140827D01*
X76074874Y-95140827D02*
X76122493Y-95188446D01*
X76122493Y-95188446D02*
X76170112Y-95283684D01*
X76170112Y-95283684D02*
X76170112Y-95569398D01*
X76170112Y-95569398D02*
X76122493Y-95664636D01*
X76122493Y-95664636D02*
X76074874Y-95712256D01*
X76074874Y-95712256D02*
X75979636Y-95759875D01*
X75979636Y-95759875D02*
X75836779Y-95759875D01*
X76598684Y-95759875D02*
X76598684Y-95093208D01*
X76598684Y-95283684D02*
X76646303Y-95188446D01*
X76646303Y-95188446D02*
X76693922Y-95140827D01*
X76693922Y-95140827D02*
X76789160Y-95093208D01*
X76789160Y-95093208D02*
X76884398Y-95093208D01*
X77979637Y-95093208D02*
X77979637Y-96093208D01*
X77979637Y-95140827D02*
X78074875Y-95093208D01*
X78074875Y-95093208D02*
X78265351Y-95093208D01*
X78265351Y-95093208D02*
X78360589Y-95140827D01*
X78360589Y-95140827D02*
X78408208Y-95188446D01*
X78408208Y-95188446D02*
X78455827Y-95283684D01*
X78455827Y-95283684D02*
X78455827Y-95569398D01*
X78455827Y-95569398D02*
X78408208Y-95664636D01*
X78408208Y-95664636D02*
X78360589Y-95712256D01*
X78360589Y-95712256D02*
X78265351Y-95759875D01*
X78265351Y-95759875D02*
X78074875Y-95759875D01*
X78074875Y-95759875D02*
X77979637Y-95712256D01*
X79265351Y-95712256D02*
X79170113Y-95759875D01*
X79170113Y-95759875D02*
X78979637Y-95759875D01*
X78979637Y-95759875D02*
X78884399Y-95712256D01*
X78884399Y-95712256D02*
X78836780Y-95617017D01*
X78836780Y-95617017D02*
X78836780Y-95236065D01*
X78836780Y-95236065D02*
X78884399Y-95140827D01*
X78884399Y-95140827D02*
X78979637Y-95093208D01*
X78979637Y-95093208D02*
X79170113Y-95093208D01*
X79170113Y-95093208D02*
X79265351Y-95140827D01*
X79265351Y-95140827D02*
X79312970Y-95236065D01*
X79312970Y-95236065D02*
X79312970Y-95331303D01*
X79312970Y-95331303D02*
X78836780Y-95426541D01*
X79741542Y-95093208D02*
X79741542Y-95759875D01*
X79741542Y-95188446D02*
X79789161Y-95140827D01*
X79789161Y-95140827D02*
X79884399Y-95093208D01*
X79884399Y-95093208D02*
X80027256Y-95093208D01*
X80027256Y-95093208D02*
X80122494Y-95140827D01*
X80122494Y-95140827D02*
X80170113Y-95236065D01*
X80170113Y-95236065D02*
X80170113Y-95759875D01*
X80503447Y-95093208D02*
X80884399Y-95093208D01*
X80646304Y-94759875D02*
X80646304Y-95617017D01*
X80646304Y-95617017D02*
X80693923Y-95712256D01*
X80693923Y-95712256D02*
X80789161Y-95759875D01*
X80789161Y-95759875D02*
X80884399Y-95759875D01*
X81360590Y-95759875D02*
X81265352Y-95712256D01*
X81265352Y-95712256D02*
X81217733Y-95664636D01*
X81217733Y-95664636D02*
X81170114Y-95569398D01*
X81170114Y-95569398D02*
X81170114Y-95283684D01*
X81170114Y-95283684D02*
X81217733Y-95188446D01*
X81217733Y-95188446D02*
X81265352Y-95140827D01*
X81265352Y-95140827D02*
X81360590Y-95093208D01*
X81360590Y-95093208D02*
X81503447Y-95093208D01*
X81503447Y-95093208D02*
X81598685Y-95140827D01*
X81598685Y-95140827D02*
X81646304Y-95188446D01*
X81646304Y-95188446D02*
X81693923Y-95283684D01*
X81693923Y-95283684D02*
X81693923Y-95569398D01*
X81693923Y-95569398D02*
X81646304Y-95664636D01*
X81646304Y-95664636D02*
X81598685Y-95712256D01*
X81598685Y-95712256D02*
X81503447Y-95759875D01*
X81503447Y-95759875D02*
X81360590Y-95759875D01*
X82551066Y-95759875D02*
X82551066Y-94759875D01*
X82551066Y-95712256D02*
X82455828Y-95759875D01*
X82455828Y-95759875D02*
X82265352Y-95759875D01*
X82265352Y-95759875D02*
X82170114Y-95712256D01*
X82170114Y-95712256D02*
X82122495Y-95664636D01*
X82122495Y-95664636D02*
X82074876Y-95569398D01*
X82074876Y-95569398D02*
X82074876Y-95283684D01*
X82074876Y-95283684D02*
X82122495Y-95188446D01*
X82122495Y-95188446D02*
X82170114Y-95140827D01*
X82170114Y-95140827D02*
X82265352Y-95093208D01*
X82265352Y-95093208D02*
X82455828Y-95093208D01*
X82455828Y-95093208D02*
X82551066Y-95140827D01*
X83408209Y-95712256D02*
X83312971Y-95759875D01*
X83312971Y-95759875D02*
X83122495Y-95759875D01*
X83122495Y-95759875D02*
X83027257Y-95712256D01*
X83027257Y-95712256D02*
X82979638Y-95617017D01*
X82979638Y-95617017D02*
X82979638Y-95236065D01*
X82979638Y-95236065D02*
X83027257Y-95140827D01*
X83027257Y-95140827D02*
X83122495Y-95093208D01*
X83122495Y-95093208D02*
X83312971Y-95093208D01*
X83312971Y-95093208D02*
X83408209Y-95140827D01*
X83408209Y-95140827D02*
X83455828Y-95236065D01*
X83455828Y-95236065D02*
X83455828Y-95331303D01*
X83455828Y-95331303D02*
X82979638Y-95426541D01*
X84646305Y-95759875D02*
X84646305Y-95093208D01*
X84646305Y-95188446D02*
X84693924Y-95140827D01*
X84693924Y-95140827D02*
X84789162Y-95093208D01*
X84789162Y-95093208D02*
X84932019Y-95093208D01*
X84932019Y-95093208D02*
X85027257Y-95140827D01*
X85027257Y-95140827D02*
X85074876Y-95236065D01*
X85074876Y-95236065D02*
X85074876Y-95759875D01*
X85074876Y-95236065D02*
X85122495Y-95140827D01*
X85122495Y-95140827D02*
X85217733Y-95093208D01*
X85217733Y-95093208D02*
X85360590Y-95093208D01*
X85360590Y-95093208D02*
X85455829Y-95140827D01*
X85455829Y-95140827D02*
X85503448Y-95236065D01*
X85503448Y-95236065D02*
X85503448Y-95759875D01*
X86122495Y-95759875D02*
X86027257Y-95712256D01*
X86027257Y-95712256D02*
X85979638Y-95664636D01*
X85979638Y-95664636D02*
X85932019Y-95569398D01*
X85932019Y-95569398D02*
X85932019Y-95283684D01*
X85932019Y-95283684D02*
X85979638Y-95188446D01*
X85979638Y-95188446D02*
X86027257Y-95140827D01*
X86027257Y-95140827D02*
X86122495Y-95093208D01*
X86122495Y-95093208D02*
X86265352Y-95093208D01*
X86265352Y-95093208D02*
X86360590Y-95140827D01*
X86360590Y-95140827D02*
X86408209Y-95188446D01*
X86408209Y-95188446D02*
X86455828Y-95283684D01*
X86455828Y-95283684D02*
X86455828Y-95569398D01*
X86455828Y-95569398D02*
X86408209Y-95664636D01*
X86408209Y-95664636D02*
X86360590Y-95712256D01*
X86360590Y-95712256D02*
X86265352Y-95759875D01*
X86265352Y-95759875D02*
X86122495Y-95759875D01*
X87312971Y-95759875D02*
X87312971Y-94759875D01*
X87312971Y-95712256D02*
X87217733Y-95759875D01*
X87217733Y-95759875D02*
X87027257Y-95759875D01*
X87027257Y-95759875D02*
X86932019Y-95712256D01*
X86932019Y-95712256D02*
X86884400Y-95664636D01*
X86884400Y-95664636D02*
X86836781Y-95569398D01*
X86836781Y-95569398D02*
X86836781Y-95283684D01*
X86836781Y-95283684D02*
X86884400Y-95188446D01*
X86884400Y-95188446D02*
X86932019Y-95140827D01*
X86932019Y-95140827D02*
X87027257Y-95093208D01*
X87027257Y-95093208D02*
X87217733Y-95093208D01*
X87217733Y-95093208D02*
X87312971Y-95140827D01*
X88170114Y-95712256D02*
X88074876Y-95759875D01*
X88074876Y-95759875D02*
X87884400Y-95759875D01*
X87884400Y-95759875D02*
X87789162Y-95712256D01*
X87789162Y-95712256D02*
X87741543Y-95617017D01*
X87741543Y-95617017D02*
X87741543Y-95236065D01*
X87741543Y-95236065D02*
X87789162Y-95140827D01*
X87789162Y-95140827D02*
X87884400Y-95093208D01*
X87884400Y-95093208D02*
X88074876Y-95093208D01*
X88074876Y-95093208D02*
X88170114Y-95140827D01*
X88170114Y-95140827D02*
X88217733Y-95236065D01*
X88217733Y-95236065D02*
X88217733Y-95331303D01*
X88217733Y-95331303D02*
X87741543Y-95426541D01*
X88693924Y-95712256D02*
X88693924Y-95759875D01*
X88693924Y-95759875D02*
X88646305Y-95855113D01*
X88646305Y-95855113D02*
X88598686Y-95902732D01*
X89884400Y-95759875D02*
X89884400Y-95093208D01*
X89884400Y-94759875D02*
X89836781Y-94807494D01*
X89836781Y-94807494D02*
X89884400Y-94855113D01*
X89884400Y-94855113D02*
X89932019Y-94807494D01*
X89932019Y-94807494D02*
X89884400Y-94759875D01*
X89884400Y-94759875D02*
X89884400Y-94855113D01*
X90360590Y-95093208D02*
X90360590Y-95759875D01*
X90360590Y-95188446D02*
X90408209Y-95140827D01*
X90408209Y-95140827D02*
X90503447Y-95093208D01*
X90503447Y-95093208D02*
X90646304Y-95093208D01*
X90646304Y-95093208D02*
X90741542Y-95140827D01*
X90741542Y-95140827D02*
X90789161Y-95236065D01*
X90789161Y-95236065D02*
X90789161Y-95759875D01*
X91217733Y-95712256D02*
X91312971Y-95759875D01*
X91312971Y-95759875D02*
X91503447Y-95759875D01*
X91503447Y-95759875D02*
X91598685Y-95712256D01*
X91598685Y-95712256D02*
X91646304Y-95617017D01*
X91646304Y-95617017D02*
X91646304Y-95569398D01*
X91646304Y-95569398D02*
X91598685Y-95474160D01*
X91598685Y-95474160D02*
X91503447Y-95426541D01*
X91503447Y-95426541D02*
X91360590Y-95426541D01*
X91360590Y-95426541D02*
X91265352Y-95378922D01*
X91265352Y-95378922D02*
X91217733Y-95283684D01*
X91217733Y-95283684D02*
X91217733Y-95236065D01*
X91217733Y-95236065D02*
X91265352Y-95140827D01*
X91265352Y-95140827D02*
X91360590Y-95093208D01*
X91360590Y-95093208D02*
X91503447Y-95093208D01*
X91503447Y-95093208D02*
X91598685Y-95140827D01*
X91932019Y-95093208D02*
X92312971Y-95093208D01*
X92074876Y-94759875D02*
X92074876Y-95617017D01*
X92074876Y-95617017D02*
X92122495Y-95712256D01*
X92122495Y-95712256D02*
X92217733Y-95759875D01*
X92217733Y-95759875D02*
X92312971Y-95759875D01*
X93074876Y-95759875D02*
X93074876Y-95236065D01*
X93074876Y-95236065D02*
X93027257Y-95140827D01*
X93027257Y-95140827D02*
X92932019Y-95093208D01*
X92932019Y-95093208D02*
X92741543Y-95093208D01*
X92741543Y-95093208D02*
X92646305Y-95140827D01*
X93074876Y-95712256D02*
X92979638Y-95759875D01*
X92979638Y-95759875D02*
X92741543Y-95759875D01*
X92741543Y-95759875D02*
X92646305Y-95712256D01*
X92646305Y-95712256D02*
X92598686Y-95617017D01*
X92598686Y-95617017D02*
X92598686Y-95521779D01*
X92598686Y-95521779D02*
X92646305Y-95426541D01*
X92646305Y-95426541D02*
X92741543Y-95378922D01*
X92741543Y-95378922D02*
X92979638Y-95378922D01*
X92979638Y-95378922D02*
X93074876Y-95331303D01*
X93693924Y-95759875D02*
X93598686Y-95712256D01*
X93598686Y-95712256D02*
X93551067Y-95617017D01*
X93551067Y-95617017D02*
X93551067Y-94759875D01*
X94217734Y-95759875D02*
X94122496Y-95712256D01*
X94122496Y-95712256D02*
X94074877Y-95617017D01*
X94074877Y-95617017D02*
X94074877Y-94759875D01*
X95360592Y-95759875D02*
X95360592Y-95093208D01*
X95360592Y-95283684D02*
X95408211Y-95188446D01*
X95408211Y-95188446D02*
X95455830Y-95140827D01*
X95455830Y-95140827D02*
X95551068Y-95093208D01*
X95551068Y-95093208D02*
X95646306Y-95093208D01*
X96360592Y-95712256D02*
X96265354Y-95759875D01*
X96265354Y-95759875D02*
X96074878Y-95759875D01*
X96074878Y-95759875D02*
X95979640Y-95712256D01*
X95979640Y-95712256D02*
X95932021Y-95617017D01*
X95932021Y-95617017D02*
X95932021Y-95236065D01*
X95932021Y-95236065D02*
X95979640Y-95140827D01*
X95979640Y-95140827D02*
X96074878Y-95093208D01*
X96074878Y-95093208D02*
X96265354Y-95093208D01*
X96265354Y-95093208D02*
X96360592Y-95140827D01*
X96360592Y-95140827D02*
X96408211Y-95236065D01*
X96408211Y-95236065D02*
X96408211Y-95331303D01*
X96408211Y-95331303D02*
X95932021Y-95426541D01*
X96789164Y-95712256D02*
X96884402Y-95759875D01*
X96884402Y-95759875D02*
X97074878Y-95759875D01*
X97074878Y-95759875D02*
X97170116Y-95712256D01*
X97170116Y-95712256D02*
X97217735Y-95617017D01*
X97217735Y-95617017D02*
X97217735Y-95569398D01*
X97217735Y-95569398D02*
X97170116Y-95474160D01*
X97170116Y-95474160D02*
X97074878Y-95426541D01*
X97074878Y-95426541D02*
X96932021Y-95426541D01*
X96932021Y-95426541D02*
X96836783Y-95378922D01*
X96836783Y-95378922D02*
X96789164Y-95283684D01*
X96789164Y-95283684D02*
X96789164Y-95236065D01*
X96789164Y-95236065D02*
X96836783Y-95140827D01*
X96836783Y-95140827D02*
X96932021Y-95093208D01*
X96932021Y-95093208D02*
X97074878Y-95093208D01*
X97074878Y-95093208D02*
X97170116Y-95140827D01*
X97646307Y-95759875D02*
X97646307Y-95093208D01*
X97646307Y-94759875D02*
X97598688Y-94807494D01*
X97598688Y-94807494D02*
X97646307Y-94855113D01*
X97646307Y-94855113D02*
X97693926Y-94807494D01*
X97693926Y-94807494D02*
X97646307Y-94759875D01*
X97646307Y-94759875D02*
X97646307Y-94855113D01*
X98074878Y-95712256D02*
X98170116Y-95759875D01*
X98170116Y-95759875D02*
X98360592Y-95759875D01*
X98360592Y-95759875D02*
X98455830Y-95712256D01*
X98455830Y-95712256D02*
X98503449Y-95617017D01*
X98503449Y-95617017D02*
X98503449Y-95569398D01*
X98503449Y-95569398D02*
X98455830Y-95474160D01*
X98455830Y-95474160D02*
X98360592Y-95426541D01*
X98360592Y-95426541D02*
X98217735Y-95426541D01*
X98217735Y-95426541D02*
X98122497Y-95378922D01*
X98122497Y-95378922D02*
X98074878Y-95283684D01*
X98074878Y-95283684D02*
X98074878Y-95236065D01*
X98074878Y-95236065D02*
X98122497Y-95140827D01*
X98122497Y-95140827D02*
X98217735Y-95093208D01*
X98217735Y-95093208D02*
X98360592Y-95093208D01*
X98360592Y-95093208D02*
X98455830Y-95140827D01*
X98789164Y-95093208D02*
X99170116Y-95093208D01*
X98932021Y-94759875D02*
X98932021Y-95617017D01*
X98932021Y-95617017D02*
X98979640Y-95712256D01*
X98979640Y-95712256D02*
X99074878Y-95759875D01*
X99074878Y-95759875D02*
X99170116Y-95759875D01*
X99646307Y-95759875D02*
X99551069Y-95712256D01*
X99551069Y-95712256D02*
X99503450Y-95664636D01*
X99503450Y-95664636D02*
X99455831Y-95569398D01*
X99455831Y-95569398D02*
X99455831Y-95283684D01*
X99455831Y-95283684D02*
X99503450Y-95188446D01*
X99503450Y-95188446D02*
X99551069Y-95140827D01*
X99551069Y-95140827D02*
X99646307Y-95093208D01*
X99646307Y-95093208D02*
X99789164Y-95093208D01*
X99789164Y-95093208D02*
X99884402Y-95140827D01*
X99884402Y-95140827D02*
X99932021Y-95188446D01*
X99932021Y-95188446D02*
X99979640Y-95283684D01*
X99979640Y-95283684D02*
X99979640Y-95569398D01*
X99979640Y-95569398D02*
X99932021Y-95664636D01*
X99932021Y-95664636D02*
X99884402Y-95712256D01*
X99884402Y-95712256D02*
X99789164Y-95759875D01*
X99789164Y-95759875D02*
X99646307Y-95759875D01*
X100408212Y-95759875D02*
X100408212Y-95093208D01*
X100408212Y-95283684D02*
X100455831Y-95188446D01*
X100455831Y-95188446D02*
X100503450Y-95140827D01*
X100503450Y-95140827D02*
X100598688Y-95093208D01*
X100598688Y-95093208D02*
X100693926Y-95093208D01*
X100979641Y-95712256D02*
X101074879Y-95759875D01*
X101074879Y-95759875D02*
X101265355Y-95759875D01*
X101265355Y-95759875D02*
X101360593Y-95712256D01*
X101360593Y-95712256D02*
X101408212Y-95617017D01*
X101408212Y-95617017D02*
X101408212Y-95569398D01*
X101408212Y-95569398D02*
X101360593Y-95474160D01*
X101360593Y-95474160D02*
X101265355Y-95426541D01*
X101265355Y-95426541D02*
X101122498Y-95426541D01*
X101122498Y-95426541D02*
X101027260Y-95378922D01*
X101027260Y-95378922D02*
X100979641Y-95283684D01*
X100979641Y-95283684D02*
X100979641Y-95236065D01*
X100979641Y-95236065D02*
X101027260Y-95140827D01*
X101027260Y-95140827D02*
X101122498Y-95093208D01*
X101122498Y-95093208D02*
X101265355Y-95093208D01*
X101265355Y-95093208D02*
X101360593Y-95140827D01*
X103170117Y-95759875D02*
X102836784Y-95283684D01*
X102598689Y-95759875D02*
X102598689Y-94759875D01*
X102598689Y-94759875D02*
X102979641Y-94759875D01*
X102979641Y-94759875D02*
X103074879Y-94807494D01*
X103074879Y-94807494D02*
X103122498Y-94855113D01*
X103122498Y-94855113D02*
X103170117Y-94950351D01*
X103170117Y-94950351D02*
X103170117Y-95093208D01*
X103170117Y-95093208D02*
X103122498Y-95188446D01*
X103122498Y-95188446D02*
X103074879Y-95236065D01*
X103074879Y-95236065D02*
X102979641Y-95283684D01*
X102979641Y-95283684D02*
X102598689Y-95283684D01*
X104027260Y-95093208D02*
X104027260Y-95759875D01*
X103789165Y-94712256D02*
X103551070Y-95426541D01*
X103551070Y-95426541D02*
X104170117Y-95426541D01*
X75265350Y-97369819D02*
X75265350Y-96846009D01*
X75265350Y-96846009D02*
X75217731Y-96750771D01*
X75217731Y-96750771D02*
X75122493Y-96703152D01*
X75122493Y-96703152D02*
X74932017Y-96703152D01*
X74932017Y-96703152D02*
X74836779Y-96750771D01*
X75265350Y-97322200D02*
X75170112Y-97369819D01*
X75170112Y-97369819D02*
X74932017Y-97369819D01*
X74932017Y-97369819D02*
X74836779Y-97322200D01*
X74836779Y-97322200D02*
X74789160Y-97226961D01*
X74789160Y-97226961D02*
X74789160Y-97131723D01*
X74789160Y-97131723D02*
X74836779Y-97036485D01*
X74836779Y-97036485D02*
X74932017Y-96988866D01*
X74932017Y-96988866D02*
X75170112Y-96988866D01*
X75170112Y-96988866D02*
X75265350Y-96941247D01*
X75741541Y-96703152D02*
X75741541Y-97369819D01*
X75741541Y-96798390D02*
X75789160Y-96750771D01*
X75789160Y-96750771D02*
X75884398Y-96703152D01*
X75884398Y-96703152D02*
X76027255Y-96703152D01*
X76027255Y-96703152D02*
X76122493Y-96750771D01*
X76122493Y-96750771D02*
X76170112Y-96846009D01*
X76170112Y-96846009D02*
X76170112Y-97369819D01*
X77074874Y-97369819D02*
X77074874Y-96369819D01*
X77074874Y-97322200D02*
X76979636Y-97369819D01*
X76979636Y-97369819D02*
X76789160Y-97369819D01*
X76789160Y-97369819D02*
X76693922Y-97322200D01*
X76693922Y-97322200D02*
X76646303Y-97274580D01*
X76646303Y-97274580D02*
X76598684Y-97179342D01*
X76598684Y-97179342D02*
X76598684Y-96893628D01*
X76598684Y-96893628D02*
X76646303Y-96798390D01*
X76646303Y-96798390D02*
X76693922Y-96750771D01*
X76693922Y-96750771D02*
X76789160Y-96703152D01*
X76789160Y-96703152D02*
X76979636Y-96703152D01*
X76979636Y-96703152D02*
X77074874Y-96750771D01*
X78884398Y-97369819D02*
X78551065Y-96893628D01*
X78312970Y-97369819D02*
X78312970Y-96369819D01*
X78312970Y-96369819D02*
X78693922Y-96369819D01*
X78693922Y-96369819D02*
X78789160Y-96417438D01*
X78789160Y-96417438D02*
X78836779Y-96465057D01*
X78836779Y-96465057D02*
X78884398Y-96560295D01*
X78884398Y-96560295D02*
X78884398Y-96703152D01*
X78884398Y-96703152D02*
X78836779Y-96798390D01*
X78836779Y-96798390D02*
X78789160Y-96846009D01*
X78789160Y-96846009D02*
X78693922Y-96893628D01*
X78693922Y-96893628D02*
X78312970Y-96893628D01*
X79789160Y-96369819D02*
X79312970Y-96369819D01*
X79312970Y-96369819D02*
X79265351Y-96846009D01*
X79265351Y-96846009D02*
X79312970Y-96798390D01*
X79312970Y-96798390D02*
X79408208Y-96750771D01*
X79408208Y-96750771D02*
X79646303Y-96750771D01*
X79646303Y-96750771D02*
X79741541Y-96798390D01*
X79741541Y-96798390D02*
X79789160Y-96846009D01*
X79789160Y-96846009D02*
X79836779Y-96941247D01*
X79836779Y-96941247D02*
X79836779Y-97179342D01*
X79836779Y-97179342D02*
X79789160Y-97274580D01*
X79789160Y-97274580D02*
X79741541Y-97322200D01*
X79741541Y-97322200D02*
X79646303Y-97369819D01*
X79646303Y-97369819D02*
X79408208Y-97369819D01*
X79408208Y-97369819D02*
X79312970Y-97322200D01*
X79312970Y-97322200D02*
X79265351Y-97274580D01*
X80312970Y-97322200D02*
X80312970Y-97369819D01*
X80312970Y-97369819D02*
X80265351Y-97465057D01*
X80265351Y-97465057D02*
X80217732Y-97512676D01*
X81646303Y-97369819D02*
X81551065Y-97322200D01*
X81551065Y-97322200D02*
X81503446Y-97274580D01*
X81503446Y-97274580D02*
X81455827Y-97179342D01*
X81455827Y-97179342D02*
X81455827Y-96893628D01*
X81455827Y-96893628D02*
X81503446Y-96798390D01*
X81503446Y-96798390D02*
X81551065Y-96750771D01*
X81551065Y-96750771D02*
X81646303Y-96703152D01*
X81646303Y-96703152D02*
X81789160Y-96703152D01*
X81789160Y-96703152D02*
X81884398Y-96750771D01*
X81884398Y-96750771D02*
X81932017Y-96798390D01*
X81932017Y-96798390D02*
X81979636Y-96893628D01*
X81979636Y-96893628D02*
X81979636Y-97179342D01*
X81979636Y-97179342D02*
X81932017Y-97274580D01*
X81932017Y-97274580D02*
X81884398Y-97322200D01*
X81884398Y-97322200D02*
X81789160Y-97369819D01*
X81789160Y-97369819D02*
X81646303Y-97369819D01*
X82408208Y-97369819D02*
X82408208Y-96703152D01*
X82408208Y-96893628D02*
X82455827Y-96798390D01*
X82455827Y-96798390D02*
X82503446Y-96750771D01*
X82503446Y-96750771D02*
X82598684Y-96703152D01*
X82598684Y-96703152D02*
X82693922Y-96703152D01*
X84217732Y-97369819D02*
X84217732Y-96846009D01*
X84217732Y-96846009D02*
X84170113Y-96750771D01*
X84170113Y-96750771D02*
X84074875Y-96703152D01*
X84074875Y-96703152D02*
X83884399Y-96703152D01*
X83884399Y-96703152D02*
X83789161Y-96750771D01*
X84217732Y-97322200D02*
X84122494Y-97369819D01*
X84122494Y-97369819D02*
X83884399Y-97369819D01*
X83884399Y-97369819D02*
X83789161Y-97322200D01*
X83789161Y-97322200D02*
X83741542Y-97226961D01*
X83741542Y-97226961D02*
X83741542Y-97131723D01*
X83741542Y-97131723D02*
X83789161Y-97036485D01*
X83789161Y-97036485D02*
X83884399Y-96988866D01*
X83884399Y-96988866D02*
X84122494Y-96988866D01*
X84122494Y-96988866D02*
X84217732Y-96941247D01*
X85455828Y-96703152D02*
X85455828Y-97703152D01*
X85455828Y-96750771D02*
X85551066Y-96703152D01*
X85551066Y-96703152D02*
X85741542Y-96703152D01*
X85741542Y-96703152D02*
X85836780Y-96750771D01*
X85836780Y-96750771D02*
X85884399Y-96798390D01*
X85884399Y-96798390D02*
X85932018Y-96893628D01*
X85932018Y-96893628D02*
X85932018Y-97179342D01*
X85932018Y-97179342D02*
X85884399Y-97274580D01*
X85884399Y-97274580D02*
X85836780Y-97322200D01*
X85836780Y-97322200D02*
X85741542Y-97369819D01*
X85741542Y-97369819D02*
X85551066Y-97369819D01*
X85551066Y-97369819D02*
X85455828Y-97322200D01*
X86503447Y-97369819D02*
X86408209Y-97322200D01*
X86408209Y-97322200D02*
X86360590Y-97274580D01*
X86360590Y-97274580D02*
X86312971Y-97179342D01*
X86312971Y-97179342D02*
X86312971Y-96893628D01*
X86312971Y-96893628D02*
X86360590Y-96798390D01*
X86360590Y-96798390D02*
X86408209Y-96750771D01*
X86408209Y-96750771D02*
X86503447Y-96703152D01*
X86503447Y-96703152D02*
X86646304Y-96703152D01*
X86646304Y-96703152D02*
X86741542Y-96750771D01*
X86741542Y-96750771D02*
X86789161Y-96798390D01*
X86789161Y-96798390D02*
X86836780Y-96893628D01*
X86836780Y-96893628D02*
X86836780Y-97179342D01*
X86836780Y-97179342D02*
X86789161Y-97274580D01*
X86789161Y-97274580D02*
X86741542Y-97322200D01*
X86741542Y-97322200D02*
X86646304Y-97369819D01*
X86646304Y-97369819D02*
X86503447Y-97369819D01*
X87122495Y-96703152D02*
X87503447Y-96703152D01*
X87265352Y-96369819D02*
X87265352Y-97226961D01*
X87265352Y-97226961D02*
X87312971Y-97322200D01*
X87312971Y-97322200D02*
X87408209Y-97369819D01*
X87408209Y-97369819D02*
X87503447Y-97369819D01*
X88217733Y-97322200D02*
X88122495Y-97369819D01*
X88122495Y-97369819D02*
X87932019Y-97369819D01*
X87932019Y-97369819D02*
X87836781Y-97322200D01*
X87836781Y-97322200D02*
X87789162Y-97226961D01*
X87789162Y-97226961D02*
X87789162Y-96846009D01*
X87789162Y-96846009D02*
X87836781Y-96750771D01*
X87836781Y-96750771D02*
X87932019Y-96703152D01*
X87932019Y-96703152D02*
X88122495Y-96703152D01*
X88122495Y-96703152D02*
X88217733Y-96750771D01*
X88217733Y-96750771D02*
X88265352Y-96846009D01*
X88265352Y-96846009D02*
X88265352Y-96941247D01*
X88265352Y-96941247D02*
X87789162Y-97036485D01*
X88693924Y-96703152D02*
X88693924Y-97369819D01*
X88693924Y-96798390D02*
X88741543Y-96750771D01*
X88741543Y-96750771D02*
X88836781Y-96703152D01*
X88836781Y-96703152D02*
X88979638Y-96703152D01*
X88979638Y-96703152D02*
X89074876Y-96750771D01*
X89074876Y-96750771D02*
X89122495Y-96846009D01*
X89122495Y-96846009D02*
X89122495Y-97369819D01*
X89455829Y-96703152D02*
X89836781Y-96703152D01*
X89598686Y-96369819D02*
X89598686Y-97226961D01*
X89598686Y-97226961D02*
X89646305Y-97322200D01*
X89646305Y-97322200D02*
X89741543Y-97369819D01*
X89741543Y-97369819D02*
X89836781Y-97369819D01*
X90170115Y-97369819D02*
X90170115Y-96703152D01*
X90170115Y-96369819D02*
X90122496Y-96417438D01*
X90122496Y-96417438D02*
X90170115Y-96465057D01*
X90170115Y-96465057D02*
X90217734Y-96417438D01*
X90217734Y-96417438D02*
X90170115Y-96369819D01*
X90170115Y-96369819D02*
X90170115Y-96465057D01*
X90789162Y-97369819D02*
X90693924Y-97322200D01*
X90693924Y-97322200D02*
X90646305Y-97274580D01*
X90646305Y-97274580D02*
X90598686Y-97179342D01*
X90598686Y-97179342D02*
X90598686Y-96893628D01*
X90598686Y-96893628D02*
X90646305Y-96798390D01*
X90646305Y-96798390D02*
X90693924Y-96750771D01*
X90693924Y-96750771D02*
X90789162Y-96703152D01*
X90789162Y-96703152D02*
X90932019Y-96703152D01*
X90932019Y-96703152D02*
X91027257Y-96750771D01*
X91027257Y-96750771D02*
X91074876Y-96798390D01*
X91074876Y-96798390D02*
X91122495Y-96893628D01*
X91122495Y-96893628D02*
X91122495Y-97179342D01*
X91122495Y-97179342D02*
X91074876Y-97274580D01*
X91074876Y-97274580D02*
X91027257Y-97322200D01*
X91027257Y-97322200D02*
X90932019Y-97369819D01*
X90932019Y-97369819D02*
X90789162Y-97369819D01*
X91551067Y-97369819D02*
X91551067Y-96703152D01*
X91551067Y-96798390D02*
X91598686Y-96750771D01*
X91598686Y-96750771D02*
X91693924Y-96703152D01*
X91693924Y-96703152D02*
X91836781Y-96703152D01*
X91836781Y-96703152D02*
X91932019Y-96750771D01*
X91932019Y-96750771D02*
X91979638Y-96846009D01*
X91979638Y-96846009D02*
X91979638Y-97369819D01*
X91979638Y-96846009D02*
X92027257Y-96750771D01*
X92027257Y-96750771D02*
X92122495Y-96703152D01*
X92122495Y-96703152D02*
X92265352Y-96703152D01*
X92265352Y-96703152D02*
X92360591Y-96750771D01*
X92360591Y-96750771D02*
X92408210Y-96846009D01*
X92408210Y-96846009D02*
X92408210Y-97369819D01*
X93265352Y-97322200D02*
X93170114Y-97369819D01*
X93170114Y-97369819D02*
X92979638Y-97369819D01*
X92979638Y-97369819D02*
X92884400Y-97322200D01*
X92884400Y-97322200D02*
X92836781Y-97226961D01*
X92836781Y-97226961D02*
X92836781Y-96846009D01*
X92836781Y-96846009D02*
X92884400Y-96750771D01*
X92884400Y-96750771D02*
X92979638Y-96703152D01*
X92979638Y-96703152D02*
X93170114Y-96703152D01*
X93170114Y-96703152D02*
X93265352Y-96750771D01*
X93265352Y-96750771D02*
X93312971Y-96846009D01*
X93312971Y-96846009D02*
X93312971Y-96941247D01*
X93312971Y-96941247D02*
X92836781Y-97036485D01*
X93598686Y-96703152D02*
X93979638Y-96703152D01*
X93741543Y-96369819D02*
X93741543Y-97226961D01*
X93741543Y-97226961D02*
X93789162Y-97322200D01*
X93789162Y-97322200D02*
X93884400Y-97369819D01*
X93884400Y-97369819D02*
X93979638Y-97369819D01*
X94693924Y-97322200D02*
X94598686Y-97369819D01*
X94598686Y-97369819D02*
X94408210Y-97369819D01*
X94408210Y-97369819D02*
X94312972Y-97322200D01*
X94312972Y-97322200D02*
X94265353Y-97226961D01*
X94265353Y-97226961D02*
X94265353Y-96846009D01*
X94265353Y-96846009D02*
X94312972Y-96750771D01*
X94312972Y-96750771D02*
X94408210Y-96703152D01*
X94408210Y-96703152D02*
X94598686Y-96703152D01*
X94598686Y-96703152D02*
X94693924Y-96750771D01*
X94693924Y-96750771D02*
X94741543Y-96846009D01*
X94741543Y-96846009D02*
X94741543Y-96941247D01*
X94741543Y-96941247D02*
X94265353Y-97036485D01*
X95170115Y-97369819D02*
X95170115Y-96703152D01*
X95170115Y-96893628D02*
X95217734Y-96798390D01*
X95217734Y-96798390D02*
X95265353Y-96750771D01*
X95265353Y-96750771D02*
X95360591Y-96703152D01*
X95360591Y-96703152D02*
X95455829Y-96703152D01*
X95789163Y-97274580D02*
X95836782Y-97322200D01*
X95836782Y-97322200D02*
X95789163Y-97369819D01*
X95789163Y-97369819D02*
X95741544Y-97322200D01*
X95741544Y-97322200D02*
X95789163Y-97274580D01*
X95789163Y-97274580D02*
X95789163Y-97369819D01*
X58836779Y-37626121D02*
X59170112Y-37626121D01*
X59312969Y-38149931D02*
X58836779Y-38149931D01*
X58836779Y-38149931D02*
X58836779Y-37149931D01*
X58836779Y-37149931D02*
X59312969Y-37149931D01*
X59741541Y-38149931D02*
X59741541Y-37483264D01*
X59741541Y-37149931D02*
X59693922Y-37197550D01*
X59693922Y-37197550D02*
X59741541Y-37245169D01*
X59741541Y-37245169D02*
X59789160Y-37197550D01*
X59789160Y-37197550D02*
X59741541Y-37149931D01*
X59741541Y-37149931D02*
X59741541Y-37245169D01*
X60074874Y-37483264D02*
X60455826Y-37483264D01*
X60217731Y-37149931D02*
X60217731Y-38007073D01*
X60217731Y-38007073D02*
X60265350Y-38102312D01*
X60265350Y-38102312D02*
X60360588Y-38149931D01*
X60360588Y-38149931D02*
X60455826Y-38149931D01*
X60789160Y-38149931D02*
X60789160Y-37149931D01*
X61217731Y-38149931D02*
X61217731Y-37626121D01*
X61217731Y-37626121D02*
X61170112Y-37530883D01*
X61170112Y-37530883D02*
X61074874Y-37483264D01*
X61074874Y-37483264D02*
X60932017Y-37483264D01*
X60932017Y-37483264D02*
X60836779Y-37530883D01*
X60836779Y-37530883D02*
X60789160Y-37578502D01*
X62074874Y-38102312D02*
X61979636Y-38149931D01*
X61979636Y-38149931D02*
X61789160Y-38149931D01*
X61789160Y-38149931D02*
X61693922Y-38102312D01*
X61693922Y-38102312D02*
X61646303Y-38007073D01*
X61646303Y-38007073D02*
X61646303Y-37626121D01*
X61646303Y-37626121D02*
X61693922Y-37530883D01*
X61693922Y-37530883D02*
X61789160Y-37483264D01*
X61789160Y-37483264D02*
X61979636Y-37483264D01*
X61979636Y-37483264D02*
X62074874Y-37530883D01*
X62074874Y-37530883D02*
X62122493Y-37626121D01*
X62122493Y-37626121D02*
X62122493Y-37721359D01*
X62122493Y-37721359D02*
X61646303Y-37816597D01*
X62551065Y-38149931D02*
X62551065Y-37483264D01*
X62551065Y-37673740D02*
X62598684Y-37578502D01*
X62598684Y-37578502D02*
X62646303Y-37530883D01*
X62646303Y-37530883D02*
X62741541Y-37483264D01*
X62741541Y-37483264D02*
X62836779Y-37483264D01*
X64360589Y-38149931D02*
X64360589Y-37149931D01*
X64360589Y-38102312D02*
X64265351Y-38149931D01*
X64265351Y-38149931D02*
X64074875Y-38149931D01*
X64074875Y-38149931D02*
X63979637Y-38102312D01*
X63979637Y-38102312D02*
X63932018Y-38054692D01*
X63932018Y-38054692D02*
X63884399Y-37959454D01*
X63884399Y-37959454D02*
X63884399Y-37673740D01*
X63884399Y-37673740D02*
X63932018Y-37578502D01*
X63932018Y-37578502D02*
X63979637Y-37530883D01*
X63979637Y-37530883D02*
X64074875Y-37483264D01*
X64074875Y-37483264D02*
X64265351Y-37483264D01*
X64265351Y-37483264D02*
X64360589Y-37530883D01*
X64836780Y-38149931D02*
X64836780Y-37483264D01*
X64836780Y-37673740D02*
X64884399Y-37578502D01*
X64884399Y-37578502D02*
X64932018Y-37530883D01*
X64932018Y-37530883D02*
X65027256Y-37483264D01*
X65027256Y-37483264D02*
X65122494Y-37483264D01*
X65598685Y-38149931D02*
X65503447Y-38102312D01*
X65503447Y-38102312D02*
X65455828Y-38054692D01*
X65455828Y-38054692D02*
X65408209Y-37959454D01*
X65408209Y-37959454D02*
X65408209Y-37673740D01*
X65408209Y-37673740D02*
X65455828Y-37578502D01*
X65455828Y-37578502D02*
X65503447Y-37530883D01*
X65503447Y-37530883D02*
X65598685Y-37483264D01*
X65598685Y-37483264D02*
X65741542Y-37483264D01*
X65741542Y-37483264D02*
X65836780Y-37530883D01*
X65836780Y-37530883D02*
X65884399Y-37578502D01*
X65884399Y-37578502D02*
X65932018Y-37673740D01*
X65932018Y-37673740D02*
X65932018Y-37959454D01*
X65932018Y-37959454D02*
X65884399Y-38054692D01*
X65884399Y-38054692D02*
X65836780Y-38102312D01*
X65836780Y-38102312D02*
X65741542Y-38149931D01*
X65741542Y-38149931D02*
X65598685Y-38149931D01*
X66360590Y-37483264D02*
X66360590Y-38483264D01*
X66360590Y-37530883D02*
X66455828Y-37483264D01*
X66455828Y-37483264D02*
X66646304Y-37483264D01*
X66646304Y-37483264D02*
X66741542Y-37530883D01*
X66741542Y-37530883D02*
X66789161Y-37578502D01*
X66789161Y-37578502D02*
X66836780Y-37673740D01*
X66836780Y-37673740D02*
X66836780Y-37959454D01*
X66836780Y-37959454D02*
X66789161Y-38054692D01*
X66789161Y-38054692D02*
X66741542Y-38102312D01*
X66741542Y-38102312D02*
X66646304Y-38149931D01*
X66646304Y-38149931D02*
X66455828Y-38149931D01*
X66455828Y-38149931D02*
X66360590Y-38102312D01*
X67932019Y-37483264D02*
X68170114Y-38149931D01*
X68170114Y-38149931D02*
X68408209Y-37483264D01*
X68932019Y-38149931D02*
X68836781Y-38102312D01*
X68836781Y-38102312D02*
X68789162Y-38054692D01*
X68789162Y-38054692D02*
X68741543Y-37959454D01*
X68741543Y-37959454D02*
X68741543Y-37673740D01*
X68741543Y-37673740D02*
X68789162Y-37578502D01*
X68789162Y-37578502D02*
X68836781Y-37530883D01*
X68836781Y-37530883D02*
X68932019Y-37483264D01*
X68932019Y-37483264D02*
X69074876Y-37483264D01*
X69074876Y-37483264D02*
X69170114Y-37530883D01*
X69170114Y-37530883D02*
X69217733Y-37578502D01*
X69217733Y-37578502D02*
X69265352Y-37673740D01*
X69265352Y-37673740D02*
X69265352Y-37959454D01*
X69265352Y-37959454D02*
X69217733Y-38054692D01*
X69217733Y-38054692D02*
X69170114Y-38102312D01*
X69170114Y-38102312D02*
X69074876Y-38149931D01*
X69074876Y-38149931D02*
X68932019Y-38149931D01*
X69836781Y-38149931D02*
X69741543Y-38102312D01*
X69741543Y-38102312D02*
X69693924Y-38007073D01*
X69693924Y-38007073D02*
X69693924Y-37149931D01*
X70074877Y-37483264D02*
X70455829Y-37483264D01*
X70217734Y-37149931D02*
X70217734Y-38007073D01*
X70217734Y-38007073D02*
X70265353Y-38102312D01*
X70265353Y-38102312D02*
X70360591Y-38149931D01*
X70360591Y-38149931D02*
X70455829Y-38149931D01*
X71217734Y-38149931D02*
X71217734Y-37626121D01*
X71217734Y-37626121D02*
X71170115Y-37530883D01*
X71170115Y-37530883D02*
X71074877Y-37483264D01*
X71074877Y-37483264D02*
X70884401Y-37483264D01*
X70884401Y-37483264D02*
X70789163Y-37530883D01*
X71217734Y-38102312D02*
X71122496Y-38149931D01*
X71122496Y-38149931D02*
X70884401Y-38149931D01*
X70884401Y-38149931D02*
X70789163Y-38102312D01*
X70789163Y-38102312D02*
X70741544Y-38007073D01*
X70741544Y-38007073D02*
X70741544Y-37911835D01*
X70741544Y-37911835D02*
X70789163Y-37816597D01*
X70789163Y-37816597D02*
X70884401Y-37768978D01*
X70884401Y-37768978D02*
X71122496Y-37768978D01*
X71122496Y-37768978D02*
X71217734Y-37721359D01*
X72122496Y-37483264D02*
X72122496Y-38292788D01*
X72122496Y-38292788D02*
X72074877Y-38388026D01*
X72074877Y-38388026D02*
X72027258Y-38435645D01*
X72027258Y-38435645D02*
X71932020Y-38483264D01*
X71932020Y-38483264D02*
X71789163Y-38483264D01*
X71789163Y-38483264D02*
X71693925Y-38435645D01*
X72122496Y-38102312D02*
X72027258Y-38149931D01*
X72027258Y-38149931D02*
X71836782Y-38149931D01*
X71836782Y-38149931D02*
X71741544Y-38102312D01*
X71741544Y-38102312D02*
X71693925Y-38054692D01*
X71693925Y-38054692D02*
X71646306Y-37959454D01*
X71646306Y-37959454D02*
X71646306Y-37673740D01*
X71646306Y-37673740D02*
X71693925Y-37578502D01*
X71693925Y-37578502D02*
X71741544Y-37530883D01*
X71741544Y-37530883D02*
X71836782Y-37483264D01*
X71836782Y-37483264D02*
X72027258Y-37483264D01*
X72027258Y-37483264D02*
X72122496Y-37530883D01*
X72979639Y-38102312D02*
X72884401Y-38149931D01*
X72884401Y-38149931D02*
X72693925Y-38149931D01*
X72693925Y-38149931D02*
X72598687Y-38102312D01*
X72598687Y-38102312D02*
X72551068Y-38007073D01*
X72551068Y-38007073D02*
X72551068Y-37626121D01*
X72551068Y-37626121D02*
X72598687Y-37530883D01*
X72598687Y-37530883D02*
X72693925Y-37483264D01*
X72693925Y-37483264D02*
X72884401Y-37483264D01*
X72884401Y-37483264D02*
X72979639Y-37530883D01*
X72979639Y-37530883D02*
X73027258Y-37626121D01*
X73027258Y-37626121D02*
X73027258Y-37721359D01*
X73027258Y-37721359D02*
X72551068Y-37816597D01*
X74122497Y-37483264D02*
X74312973Y-38149931D01*
X74312973Y-38149931D02*
X74503449Y-37673740D01*
X74503449Y-37673740D02*
X74693925Y-38149931D01*
X74693925Y-38149931D02*
X74884401Y-37483264D01*
X75265354Y-38149931D02*
X75265354Y-37483264D01*
X75265354Y-37149931D02*
X75217735Y-37197550D01*
X75217735Y-37197550D02*
X75265354Y-37245169D01*
X75265354Y-37245169D02*
X75312973Y-37197550D01*
X75312973Y-37197550D02*
X75265354Y-37149931D01*
X75265354Y-37149931D02*
X75265354Y-37245169D01*
X75598687Y-37483264D02*
X75979639Y-37483264D01*
X75741544Y-37149931D02*
X75741544Y-38007073D01*
X75741544Y-38007073D02*
X75789163Y-38102312D01*
X75789163Y-38102312D02*
X75884401Y-38149931D01*
X75884401Y-38149931D02*
X75979639Y-38149931D01*
X76312973Y-38149931D02*
X76312973Y-37149931D01*
X76741544Y-38149931D02*
X76741544Y-37626121D01*
X76741544Y-37626121D02*
X76693925Y-37530883D01*
X76693925Y-37530883D02*
X76598687Y-37483264D01*
X76598687Y-37483264D02*
X76455830Y-37483264D01*
X76455830Y-37483264D02*
X76360592Y-37530883D01*
X76360592Y-37530883D02*
X76312973Y-37578502D01*
X78551068Y-38149931D02*
X78217735Y-37673740D01*
X77979640Y-38149931D02*
X77979640Y-37149931D01*
X77979640Y-37149931D02*
X78360592Y-37149931D01*
X78360592Y-37149931D02*
X78455830Y-37197550D01*
X78455830Y-37197550D02*
X78503449Y-37245169D01*
X78503449Y-37245169D02*
X78551068Y-37340407D01*
X78551068Y-37340407D02*
X78551068Y-37483264D01*
X78551068Y-37483264D02*
X78503449Y-37578502D01*
X78503449Y-37578502D02*
X78455830Y-37626121D01*
X78455830Y-37626121D02*
X78360592Y-37673740D01*
X78360592Y-37673740D02*
X77979640Y-37673740D01*
X79503449Y-38149931D02*
X78932021Y-38149931D01*
X79217735Y-38149931D02*
X79217735Y-37149931D01*
X79217735Y-37149931D02*
X79122497Y-37292788D01*
X79122497Y-37292788D02*
X79027259Y-37388026D01*
X79027259Y-37388026D02*
X78932021Y-37435645D01*
X59265350Y-39759875D02*
X59265350Y-39236065D01*
X59265350Y-39236065D02*
X59217731Y-39140827D01*
X59217731Y-39140827D02*
X59122493Y-39093208D01*
X59122493Y-39093208D02*
X58932017Y-39093208D01*
X58932017Y-39093208D02*
X58836779Y-39140827D01*
X59265350Y-39712256D02*
X59170112Y-39759875D01*
X59170112Y-39759875D02*
X58932017Y-39759875D01*
X58932017Y-39759875D02*
X58836779Y-39712256D01*
X58836779Y-39712256D02*
X58789160Y-39617017D01*
X58789160Y-39617017D02*
X58789160Y-39521779D01*
X58789160Y-39521779D02*
X58836779Y-39426541D01*
X58836779Y-39426541D02*
X58932017Y-39378922D01*
X58932017Y-39378922D02*
X59170112Y-39378922D01*
X59170112Y-39378922D02*
X59265350Y-39331303D01*
X59741541Y-39093208D02*
X59741541Y-39759875D01*
X59741541Y-39188446D02*
X59789160Y-39140827D01*
X59789160Y-39140827D02*
X59884398Y-39093208D01*
X59884398Y-39093208D02*
X60027255Y-39093208D01*
X60027255Y-39093208D02*
X60122493Y-39140827D01*
X60122493Y-39140827D02*
X60170112Y-39236065D01*
X60170112Y-39236065D02*
X60170112Y-39759875D01*
X61074874Y-39759875D02*
X61074874Y-38759875D01*
X61074874Y-39712256D02*
X60979636Y-39759875D01*
X60979636Y-39759875D02*
X60789160Y-39759875D01*
X60789160Y-39759875D02*
X60693922Y-39712256D01*
X60693922Y-39712256D02*
X60646303Y-39664636D01*
X60646303Y-39664636D02*
X60598684Y-39569398D01*
X60598684Y-39569398D02*
X60598684Y-39283684D01*
X60598684Y-39283684D02*
X60646303Y-39188446D01*
X60646303Y-39188446D02*
X60693922Y-39140827D01*
X60693922Y-39140827D02*
X60789160Y-39093208D01*
X60789160Y-39093208D02*
X60979636Y-39093208D01*
X60979636Y-39093208D02*
X61074874Y-39140827D01*
X62884398Y-39759875D02*
X62551065Y-39283684D01*
X62312970Y-39759875D02*
X62312970Y-38759875D01*
X62312970Y-38759875D02*
X62693922Y-38759875D01*
X62693922Y-38759875D02*
X62789160Y-38807494D01*
X62789160Y-38807494D02*
X62836779Y-38855113D01*
X62836779Y-38855113D02*
X62884398Y-38950351D01*
X62884398Y-38950351D02*
X62884398Y-39093208D01*
X62884398Y-39093208D02*
X62836779Y-39188446D01*
X62836779Y-39188446D02*
X62789160Y-39236065D01*
X62789160Y-39236065D02*
X62693922Y-39283684D01*
X62693922Y-39283684D02*
X62312970Y-39283684D01*
X63265351Y-38855113D02*
X63312970Y-38807494D01*
X63312970Y-38807494D02*
X63408208Y-38759875D01*
X63408208Y-38759875D02*
X63646303Y-38759875D01*
X63646303Y-38759875D02*
X63741541Y-38807494D01*
X63741541Y-38807494D02*
X63789160Y-38855113D01*
X63789160Y-38855113D02*
X63836779Y-38950351D01*
X63836779Y-38950351D02*
X63836779Y-39045589D01*
X63836779Y-39045589D02*
X63789160Y-39188446D01*
X63789160Y-39188446D02*
X63217732Y-39759875D01*
X63217732Y-39759875D02*
X63836779Y-39759875D01*
X64312970Y-39712256D02*
X64312970Y-39759875D01*
X64312970Y-39759875D02*
X64265351Y-39855113D01*
X64265351Y-39855113D02*
X64217732Y-39902732D01*
X65646303Y-39759875D02*
X65551065Y-39712256D01*
X65551065Y-39712256D02*
X65503446Y-39664636D01*
X65503446Y-39664636D02*
X65455827Y-39569398D01*
X65455827Y-39569398D02*
X65455827Y-39283684D01*
X65455827Y-39283684D02*
X65503446Y-39188446D01*
X65503446Y-39188446D02*
X65551065Y-39140827D01*
X65551065Y-39140827D02*
X65646303Y-39093208D01*
X65646303Y-39093208D02*
X65789160Y-39093208D01*
X65789160Y-39093208D02*
X65884398Y-39140827D01*
X65884398Y-39140827D02*
X65932017Y-39188446D01*
X65932017Y-39188446D02*
X65979636Y-39283684D01*
X65979636Y-39283684D02*
X65979636Y-39569398D01*
X65979636Y-39569398D02*
X65932017Y-39664636D01*
X65932017Y-39664636D02*
X65884398Y-39712256D01*
X65884398Y-39712256D02*
X65789160Y-39759875D01*
X65789160Y-39759875D02*
X65646303Y-39759875D01*
X66408208Y-39759875D02*
X66408208Y-39093208D01*
X66408208Y-39283684D02*
X66455827Y-39188446D01*
X66455827Y-39188446D02*
X66503446Y-39140827D01*
X66503446Y-39140827D02*
X66598684Y-39093208D01*
X66598684Y-39093208D02*
X66693922Y-39093208D01*
X68217732Y-39093208D02*
X68217732Y-39759875D01*
X67789161Y-39093208D02*
X67789161Y-39617017D01*
X67789161Y-39617017D02*
X67836780Y-39712256D01*
X67836780Y-39712256D02*
X67932018Y-39759875D01*
X67932018Y-39759875D02*
X68074875Y-39759875D01*
X68074875Y-39759875D02*
X68170113Y-39712256D01*
X68170113Y-39712256D02*
X68217732Y-39664636D01*
X68646304Y-39712256D02*
X68741542Y-39759875D01*
X68741542Y-39759875D02*
X68932018Y-39759875D01*
X68932018Y-39759875D02*
X69027256Y-39712256D01*
X69027256Y-39712256D02*
X69074875Y-39617017D01*
X69074875Y-39617017D02*
X69074875Y-39569398D01*
X69074875Y-39569398D02*
X69027256Y-39474160D01*
X69027256Y-39474160D02*
X68932018Y-39426541D01*
X68932018Y-39426541D02*
X68789161Y-39426541D01*
X68789161Y-39426541D02*
X68693923Y-39378922D01*
X68693923Y-39378922D02*
X68646304Y-39283684D01*
X68646304Y-39283684D02*
X68646304Y-39236065D01*
X68646304Y-39236065D02*
X68693923Y-39140827D01*
X68693923Y-39140827D02*
X68789161Y-39093208D01*
X68789161Y-39093208D02*
X68932018Y-39093208D01*
X68932018Y-39093208D02*
X69027256Y-39140827D01*
X69884399Y-39712256D02*
X69789161Y-39759875D01*
X69789161Y-39759875D02*
X69598685Y-39759875D01*
X69598685Y-39759875D02*
X69503447Y-39712256D01*
X69503447Y-39712256D02*
X69455828Y-39617017D01*
X69455828Y-39617017D02*
X69455828Y-39236065D01*
X69455828Y-39236065D02*
X69503447Y-39140827D01*
X69503447Y-39140827D02*
X69598685Y-39093208D01*
X69598685Y-39093208D02*
X69789161Y-39093208D01*
X69789161Y-39093208D02*
X69884399Y-39140827D01*
X69884399Y-39140827D02*
X69932018Y-39236065D01*
X69932018Y-39236065D02*
X69932018Y-39331303D01*
X69932018Y-39331303D02*
X69455828Y-39426541D01*
X71598685Y-39759875D02*
X71122495Y-39759875D01*
X71122495Y-39759875D02*
X71122495Y-38759875D01*
X71932019Y-39759875D02*
X71932019Y-38759875D01*
X71932019Y-38759875D02*
X72265352Y-39474160D01*
X72265352Y-39474160D02*
X72598685Y-38759875D01*
X72598685Y-38759875D02*
X72598685Y-39759875D01*
X72979638Y-38759875D02*
X73598685Y-38759875D01*
X73598685Y-38759875D02*
X73265352Y-39140827D01*
X73265352Y-39140827D02*
X73408209Y-39140827D01*
X73408209Y-39140827D02*
X73503447Y-39188446D01*
X73503447Y-39188446D02*
X73551066Y-39236065D01*
X73551066Y-39236065D02*
X73598685Y-39331303D01*
X73598685Y-39331303D02*
X73598685Y-39569398D01*
X73598685Y-39569398D02*
X73551066Y-39664636D01*
X73551066Y-39664636D02*
X73503447Y-39712256D01*
X73503447Y-39712256D02*
X73408209Y-39759875D01*
X73408209Y-39759875D02*
X73122495Y-39759875D01*
X73122495Y-39759875D02*
X73027257Y-39712256D01*
X73027257Y-39712256D02*
X72979638Y-39664636D01*
X74551066Y-39759875D02*
X73979638Y-39759875D01*
X74265352Y-39759875D02*
X74265352Y-38759875D01*
X74265352Y-38759875D02*
X74170114Y-38902732D01*
X74170114Y-38902732D02*
X74074876Y-38997970D01*
X74074876Y-38997970D02*
X73979638Y-39045589D01*
X74884400Y-38759875D02*
X75551066Y-38759875D01*
X75551066Y-38759875D02*
X75122495Y-39759875D01*
X76408209Y-39759875D02*
X75932019Y-39759875D01*
X75932019Y-39759875D02*
X75932019Y-38759875D01*
X77408210Y-39093208D02*
X77598686Y-39759875D01*
X77598686Y-39759875D02*
X77789162Y-39283684D01*
X77789162Y-39283684D02*
X77979638Y-39759875D01*
X77979638Y-39759875D02*
X78170114Y-39093208D01*
X78551067Y-39759875D02*
X78551067Y-39093208D01*
X78551067Y-38759875D02*
X78503448Y-38807494D01*
X78503448Y-38807494D02*
X78551067Y-38855113D01*
X78551067Y-38855113D02*
X78598686Y-38807494D01*
X78598686Y-38807494D02*
X78551067Y-38759875D01*
X78551067Y-38759875D02*
X78551067Y-38855113D01*
X78884400Y-39093208D02*
X79265352Y-39093208D01*
X79027257Y-38759875D02*
X79027257Y-39617017D01*
X79027257Y-39617017D02*
X79074876Y-39712256D01*
X79074876Y-39712256D02*
X79170114Y-39759875D01*
X79170114Y-39759875D02*
X79265352Y-39759875D01*
X79598686Y-39759875D02*
X79598686Y-38759875D01*
X80027257Y-39759875D02*
X80027257Y-39236065D01*
X80027257Y-39236065D02*
X79979638Y-39140827D01*
X79979638Y-39140827D02*
X79884400Y-39093208D01*
X79884400Y-39093208D02*
X79741543Y-39093208D01*
X79741543Y-39093208D02*
X79646305Y-39140827D01*
X79646305Y-39140827D02*
X79598686Y-39188446D01*
X59408207Y-41369819D02*
X59074874Y-40893628D01*
X58836779Y-41369819D02*
X58836779Y-40369819D01*
X58836779Y-40369819D02*
X59217731Y-40369819D01*
X59217731Y-40369819D02*
X59312969Y-40417438D01*
X59312969Y-40417438D02*
X59360588Y-40465057D01*
X59360588Y-40465057D02*
X59408207Y-40560295D01*
X59408207Y-40560295D02*
X59408207Y-40703152D01*
X59408207Y-40703152D02*
X59360588Y-40798390D01*
X59360588Y-40798390D02*
X59312969Y-40846009D01*
X59312969Y-40846009D02*
X59217731Y-40893628D01*
X59217731Y-40893628D02*
X58836779Y-40893628D01*
X59741541Y-40369819D02*
X60408207Y-40369819D01*
X60408207Y-40369819D02*
X59979636Y-41369819D01*
X61979636Y-41369819D02*
X61979636Y-40846009D01*
X61979636Y-40846009D02*
X61932017Y-40750771D01*
X61932017Y-40750771D02*
X61836779Y-40703152D01*
X61836779Y-40703152D02*
X61646303Y-40703152D01*
X61646303Y-40703152D02*
X61551065Y-40750771D01*
X61979636Y-41322200D02*
X61884398Y-41369819D01*
X61884398Y-41369819D02*
X61646303Y-41369819D01*
X61646303Y-41369819D02*
X61551065Y-41322200D01*
X61551065Y-41322200D02*
X61503446Y-41226961D01*
X61503446Y-41226961D02*
X61503446Y-41131723D01*
X61503446Y-41131723D02*
X61551065Y-41036485D01*
X61551065Y-41036485D02*
X61646303Y-40988866D01*
X61646303Y-40988866D02*
X61884398Y-40988866D01*
X61884398Y-40988866D02*
X61979636Y-40941247D01*
X62455827Y-40703152D02*
X62455827Y-41369819D01*
X62455827Y-40798390D02*
X62503446Y-40750771D01*
X62503446Y-40750771D02*
X62598684Y-40703152D01*
X62598684Y-40703152D02*
X62741541Y-40703152D01*
X62741541Y-40703152D02*
X62836779Y-40750771D01*
X62836779Y-40750771D02*
X62884398Y-40846009D01*
X62884398Y-40846009D02*
X62884398Y-41369819D01*
X63789160Y-41369819D02*
X63789160Y-40369819D01*
X63789160Y-41322200D02*
X63693922Y-41369819D01*
X63693922Y-41369819D02*
X63503446Y-41369819D01*
X63503446Y-41369819D02*
X63408208Y-41322200D01*
X63408208Y-41322200D02*
X63360589Y-41274580D01*
X63360589Y-41274580D02*
X63312970Y-41179342D01*
X63312970Y-41179342D02*
X63312970Y-40893628D01*
X63312970Y-40893628D02*
X63360589Y-40798390D01*
X63360589Y-40798390D02*
X63408208Y-40750771D01*
X63408208Y-40750771D02*
X63503446Y-40703152D01*
X63503446Y-40703152D02*
X63693922Y-40703152D01*
X63693922Y-40703152D02*
X63789160Y-40750771D01*
X65312970Y-41750771D02*
X65265351Y-41703152D01*
X65265351Y-41703152D02*
X65170113Y-41560295D01*
X65170113Y-41560295D02*
X65122494Y-41465057D01*
X65122494Y-41465057D02*
X65074875Y-41322200D01*
X65074875Y-41322200D02*
X65027256Y-41084104D01*
X65027256Y-41084104D02*
X65027256Y-40893628D01*
X65027256Y-40893628D02*
X65074875Y-40655533D01*
X65074875Y-40655533D02*
X65122494Y-40512676D01*
X65122494Y-40512676D02*
X65170113Y-40417438D01*
X65170113Y-40417438D02*
X65265351Y-40274580D01*
X65265351Y-40274580D02*
X65312970Y-40226961D01*
X65836780Y-41369819D02*
X65741542Y-41322200D01*
X65741542Y-41322200D02*
X65693923Y-41274580D01*
X65693923Y-41274580D02*
X65646304Y-41179342D01*
X65646304Y-41179342D02*
X65646304Y-40893628D01*
X65646304Y-40893628D02*
X65693923Y-40798390D01*
X65693923Y-40798390D02*
X65741542Y-40750771D01*
X65741542Y-40750771D02*
X65836780Y-40703152D01*
X65836780Y-40703152D02*
X65979637Y-40703152D01*
X65979637Y-40703152D02*
X66074875Y-40750771D01*
X66074875Y-40750771D02*
X66122494Y-40798390D01*
X66122494Y-40798390D02*
X66170113Y-40893628D01*
X66170113Y-40893628D02*
X66170113Y-41179342D01*
X66170113Y-41179342D02*
X66122494Y-41274580D01*
X66122494Y-41274580D02*
X66074875Y-41322200D01*
X66074875Y-41322200D02*
X65979637Y-41369819D01*
X65979637Y-41369819D02*
X65836780Y-41369819D01*
X66598685Y-40703152D02*
X66598685Y-41703152D01*
X66598685Y-40750771D02*
X66693923Y-40703152D01*
X66693923Y-40703152D02*
X66884399Y-40703152D01*
X66884399Y-40703152D02*
X66979637Y-40750771D01*
X66979637Y-40750771D02*
X67027256Y-40798390D01*
X67027256Y-40798390D02*
X67074875Y-40893628D01*
X67074875Y-40893628D02*
X67074875Y-41179342D01*
X67074875Y-41179342D02*
X67027256Y-41274580D01*
X67027256Y-41274580D02*
X66979637Y-41322200D01*
X66979637Y-41322200D02*
X66884399Y-41369819D01*
X66884399Y-41369819D02*
X66693923Y-41369819D01*
X66693923Y-41369819D02*
X66598685Y-41322200D01*
X67360590Y-40703152D02*
X67741542Y-40703152D01*
X67503447Y-40369819D02*
X67503447Y-41226961D01*
X67503447Y-41226961D02*
X67551066Y-41322200D01*
X67551066Y-41322200D02*
X67646304Y-41369819D01*
X67646304Y-41369819D02*
X67741542Y-41369819D01*
X68074876Y-41369819D02*
X68074876Y-40703152D01*
X68074876Y-40369819D02*
X68027257Y-40417438D01*
X68027257Y-40417438D02*
X68074876Y-40465057D01*
X68074876Y-40465057D02*
X68122495Y-40417438D01*
X68122495Y-40417438D02*
X68074876Y-40369819D01*
X68074876Y-40369819D02*
X68074876Y-40465057D01*
X68693923Y-41369819D02*
X68598685Y-41322200D01*
X68598685Y-41322200D02*
X68551066Y-41274580D01*
X68551066Y-41274580D02*
X68503447Y-41179342D01*
X68503447Y-41179342D02*
X68503447Y-40893628D01*
X68503447Y-40893628D02*
X68551066Y-40798390D01*
X68551066Y-40798390D02*
X68598685Y-40750771D01*
X68598685Y-40750771D02*
X68693923Y-40703152D01*
X68693923Y-40703152D02*
X68836780Y-40703152D01*
X68836780Y-40703152D02*
X68932018Y-40750771D01*
X68932018Y-40750771D02*
X68979637Y-40798390D01*
X68979637Y-40798390D02*
X69027256Y-40893628D01*
X69027256Y-40893628D02*
X69027256Y-41179342D01*
X69027256Y-41179342D02*
X68979637Y-41274580D01*
X68979637Y-41274580D02*
X68932018Y-41322200D01*
X68932018Y-41322200D02*
X68836780Y-41369819D01*
X68836780Y-41369819D02*
X68693923Y-41369819D01*
X69455828Y-40703152D02*
X69455828Y-41369819D01*
X69455828Y-40798390D02*
X69503447Y-40750771D01*
X69503447Y-40750771D02*
X69598685Y-40703152D01*
X69598685Y-40703152D02*
X69741542Y-40703152D01*
X69741542Y-40703152D02*
X69836780Y-40750771D01*
X69836780Y-40750771D02*
X69884399Y-40846009D01*
X69884399Y-40846009D02*
X69884399Y-41369819D01*
X70789161Y-41369819D02*
X70789161Y-40846009D01*
X70789161Y-40846009D02*
X70741542Y-40750771D01*
X70741542Y-40750771D02*
X70646304Y-40703152D01*
X70646304Y-40703152D02*
X70455828Y-40703152D01*
X70455828Y-40703152D02*
X70360590Y-40750771D01*
X70789161Y-41322200D02*
X70693923Y-41369819D01*
X70693923Y-41369819D02*
X70455828Y-41369819D01*
X70455828Y-41369819D02*
X70360590Y-41322200D01*
X70360590Y-41322200D02*
X70312971Y-41226961D01*
X70312971Y-41226961D02*
X70312971Y-41131723D01*
X70312971Y-41131723D02*
X70360590Y-41036485D01*
X70360590Y-41036485D02*
X70455828Y-40988866D01*
X70455828Y-40988866D02*
X70693923Y-40988866D01*
X70693923Y-40988866D02*
X70789161Y-40941247D01*
X71408209Y-41369819D02*
X71312971Y-41322200D01*
X71312971Y-41322200D02*
X71265352Y-41226961D01*
X71265352Y-41226961D02*
X71265352Y-40369819D01*
X71932019Y-41369819D02*
X71836781Y-41322200D01*
X71836781Y-41322200D02*
X71789162Y-41226961D01*
X71789162Y-41226961D02*
X71789162Y-40369819D01*
X72217734Y-40703152D02*
X72455829Y-41369819D01*
X72693924Y-40703152D02*
X72455829Y-41369819D01*
X72455829Y-41369819D02*
X72360591Y-41607914D01*
X72360591Y-41607914D02*
X72312972Y-41655533D01*
X72312972Y-41655533D02*
X72217734Y-41703152D01*
X72979639Y-41750771D02*
X73027258Y-41703152D01*
X73027258Y-41703152D02*
X73122496Y-41560295D01*
X73122496Y-41560295D02*
X73170115Y-41465057D01*
X73170115Y-41465057D02*
X73217734Y-41322200D01*
X73217734Y-41322200D02*
X73265353Y-41084104D01*
X73265353Y-41084104D02*
X73265353Y-40893628D01*
X73265353Y-40893628D02*
X73217734Y-40655533D01*
X73217734Y-40655533D02*
X73170115Y-40512676D01*
X73170115Y-40512676D02*
X73122496Y-40417438D01*
X73122496Y-40417438D02*
X73027258Y-40274580D01*
X73027258Y-40274580D02*
X72979639Y-40226961D01*
X75074877Y-41369819D02*
X74741544Y-40893628D01*
X74503449Y-41369819D02*
X74503449Y-40369819D01*
X74503449Y-40369819D02*
X74884401Y-40369819D01*
X74884401Y-40369819D02*
X74979639Y-40417438D01*
X74979639Y-40417438D02*
X75027258Y-40465057D01*
X75027258Y-40465057D02*
X75074877Y-40560295D01*
X75074877Y-40560295D02*
X75074877Y-40703152D01*
X75074877Y-40703152D02*
X75027258Y-40798390D01*
X75027258Y-40798390D02*
X74979639Y-40846009D01*
X74979639Y-40846009D02*
X74884401Y-40893628D01*
X74884401Y-40893628D02*
X74503449Y-40893628D01*
X75646306Y-40798390D02*
X75551068Y-40750771D01*
X75551068Y-40750771D02*
X75503449Y-40703152D01*
X75503449Y-40703152D02*
X75455830Y-40607914D01*
X75455830Y-40607914D02*
X75455830Y-40560295D01*
X75455830Y-40560295D02*
X75503449Y-40465057D01*
X75503449Y-40465057D02*
X75551068Y-40417438D01*
X75551068Y-40417438D02*
X75646306Y-40369819D01*
X75646306Y-40369819D02*
X75836782Y-40369819D01*
X75836782Y-40369819D02*
X75932020Y-40417438D01*
X75932020Y-40417438D02*
X75979639Y-40465057D01*
X75979639Y-40465057D02*
X76027258Y-40560295D01*
X76027258Y-40560295D02*
X76027258Y-40607914D01*
X76027258Y-40607914D02*
X75979639Y-40703152D01*
X75979639Y-40703152D02*
X75932020Y-40750771D01*
X75932020Y-40750771D02*
X75836782Y-40798390D01*
X75836782Y-40798390D02*
X75646306Y-40798390D01*
X75646306Y-40798390D02*
X75551068Y-40846009D01*
X75551068Y-40846009D02*
X75503449Y-40893628D01*
X75503449Y-40893628D02*
X75455830Y-40988866D01*
X75455830Y-40988866D02*
X75455830Y-41179342D01*
X75455830Y-41179342D02*
X75503449Y-41274580D01*
X75503449Y-41274580D02*
X75551068Y-41322200D01*
X75551068Y-41322200D02*
X75646306Y-41369819D01*
X75646306Y-41369819D02*
X75836782Y-41369819D01*
X75836782Y-41369819D02*
X75932020Y-41322200D01*
X75932020Y-41322200D02*
X75979639Y-41274580D01*
X75979639Y-41274580D02*
X76027258Y-41179342D01*
X76027258Y-41179342D02*
X76027258Y-40988866D01*
X76027258Y-40988866D02*
X75979639Y-40893628D01*
X75979639Y-40893628D02*
X75932020Y-40846009D01*
X75932020Y-40846009D02*
X75836782Y-40798390D01*
X76455830Y-41274580D02*
X76503449Y-41322200D01*
X76503449Y-41322200D02*
X76455830Y-41369819D01*
X76455830Y-41369819D02*
X76408211Y-41322200D01*
X76408211Y-41322200D02*
X76455830Y-41274580D01*
X76455830Y-41274580D02*
X76455830Y-41369819D01*
D11*
X81960000Y-40520000D02*
X95460000Y-40520000D01*
X95460000Y-84020000D01*
X81960000Y-84020000D01*
X81960000Y-40520000D01*
D10*
X103244819Y-50333333D02*
X103959104Y-50333333D01*
X103959104Y-50333333D02*
X104101961Y-50380952D01*
X104101961Y-50380952D02*
X104197200Y-50476190D01*
X104197200Y-50476190D02*
X104244819Y-50619047D01*
X104244819Y-50619047D02*
X104244819Y-50714285D01*
X104244819Y-49333333D02*
X104244819Y-49904761D01*
X104244819Y-49619047D02*
X103244819Y-49619047D01*
X103244819Y-49619047D02*
X103387676Y-49714285D01*
X103387676Y-49714285D02*
X103482914Y-49809523D01*
X103482914Y-49809523D02*
X103530533Y-49904761D01*
X61164819Y-71333333D02*
X61879104Y-71333333D01*
X61879104Y-71333333D02*
X62021961Y-71380952D01*
X62021961Y-71380952D02*
X62117200Y-71476190D01*
X62117200Y-71476190D02*
X62164819Y-71619047D01*
X62164819Y-71619047D02*
X62164819Y-71714285D01*
X61164819Y-70952380D02*
X61164819Y-70333333D01*
X61164819Y-70333333D02*
X61545771Y-70666666D01*
X61545771Y-70666666D02*
X61545771Y-70523809D01*
X61545771Y-70523809D02*
X61593390Y-70428571D01*
X61593390Y-70428571D02*
X61641009Y-70380952D01*
X61641009Y-70380952D02*
X61736247Y-70333333D01*
X61736247Y-70333333D02*
X61974342Y-70333333D01*
X61974342Y-70333333D02*
X62069580Y-70380952D01*
X62069580Y-70380952D02*
X62117200Y-70428571D01*
X62117200Y-70428571D02*
X62164819Y-70523809D01*
X62164819Y-70523809D02*
X62164819Y-70809523D01*
X62164819Y-70809523D02*
X62117200Y-70904761D01*
X62117200Y-70904761D02*
X62069580Y-70952380D01*
X92273333Y-91674819D02*
X91940000Y-91198628D01*
X91701905Y-91674819D02*
X91701905Y-90674819D01*
X91701905Y-90674819D02*
X92082857Y-90674819D01*
X92082857Y-90674819D02*
X92178095Y-90722438D01*
X92178095Y-90722438D02*
X92225714Y-90770057D01*
X92225714Y-90770057D02*
X92273333Y-90865295D01*
X92273333Y-90865295D02*
X92273333Y-91008152D01*
X92273333Y-91008152D02*
X92225714Y-91103390D01*
X92225714Y-91103390D02*
X92178095Y-91151009D01*
X92178095Y-91151009D02*
X92082857Y-91198628D01*
X92082857Y-91198628D02*
X91701905Y-91198628D01*
X93130476Y-91008152D02*
X93130476Y-91674819D01*
X92892381Y-90627200D02*
X92654286Y-91341485D01*
X92654286Y-91341485D02*
X93273333Y-91341485D01*
X88158095Y-81244819D02*
X88158095Y-82054342D01*
X88158095Y-82054342D02*
X88205714Y-82149580D01*
X88205714Y-82149580D02*
X88253333Y-82197200D01*
X88253333Y-82197200D02*
X88348571Y-82244819D01*
X88348571Y-82244819D02*
X88539047Y-82244819D01*
X88539047Y-82244819D02*
X88634285Y-82197200D01*
X88634285Y-82197200D02*
X88681904Y-82149580D01*
X88681904Y-82149580D02*
X88729523Y-82054342D01*
X88729523Y-82054342D02*
X88729523Y-81244819D01*
X89729523Y-82244819D02*
X89158095Y-82244819D01*
X89443809Y-82244819D02*
X89443809Y-81244819D01*
X89443809Y-81244819D02*
X89348571Y-81387676D01*
X89348571Y-81387676D02*
X89253333Y-81482914D01*
X89253333Y-81482914D02*
X89158095Y-81530533D01*
X61164819Y-50333333D02*
X61879104Y-50333333D01*
X61879104Y-50333333D02*
X62021961Y-50380952D01*
X62021961Y-50380952D02*
X62117200Y-50476190D01*
X62117200Y-50476190D02*
X62164819Y-50619047D01*
X62164819Y-50619047D02*
X62164819Y-50714285D01*
X61164819Y-49380952D02*
X61164819Y-49857142D01*
X61164819Y-49857142D02*
X61641009Y-49904761D01*
X61641009Y-49904761D02*
X61593390Y-49857142D01*
X61593390Y-49857142D02*
X61545771Y-49761904D01*
X61545771Y-49761904D02*
X61545771Y-49523809D01*
X61545771Y-49523809D02*
X61593390Y-49428571D01*
X61593390Y-49428571D02*
X61641009Y-49380952D01*
X61641009Y-49380952D02*
X61736247Y-49333333D01*
X61736247Y-49333333D02*
X61974342Y-49333333D01*
X61974342Y-49333333D02*
X62069580Y-49380952D01*
X62069580Y-49380952D02*
X62117200Y-49428571D01*
X62117200Y-49428571D02*
X62164819Y-49523809D01*
X62164819Y-49523809D02*
X62164819Y-49761904D01*
X62164819Y-49761904D02*
X62117200Y-49857142D01*
X62117200Y-49857142D02*
X62069580Y-49904761D01*
X68434819Y-58106666D02*
X67958628Y-58439999D01*
X68434819Y-58678094D02*
X67434819Y-58678094D01*
X67434819Y-58678094D02*
X67434819Y-58297142D01*
X67434819Y-58297142D02*
X67482438Y-58201904D01*
X67482438Y-58201904D02*
X67530057Y-58154285D01*
X67530057Y-58154285D02*
X67625295Y-58106666D01*
X67625295Y-58106666D02*
X67768152Y-58106666D01*
X67768152Y-58106666D02*
X67863390Y-58154285D01*
X67863390Y-58154285D02*
X67911009Y-58201904D01*
X67911009Y-58201904D02*
X67958628Y-58297142D01*
X67958628Y-58297142D02*
X67958628Y-58678094D01*
X67434819Y-57773332D02*
X67434819Y-57106666D01*
X67434819Y-57106666D02*
X68434819Y-57535237D01*
X67833333Y-68859580D02*
X67785714Y-68907200D01*
X67785714Y-68907200D02*
X67642857Y-68954819D01*
X67642857Y-68954819D02*
X67547619Y-68954819D01*
X67547619Y-68954819D02*
X67404762Y-68907200D01*
X67404762Y-68907200D02*
X67309524Y-68811961D01*
X67309524Y-68811961D02*
X67261905Y-68716723D01*
X67261905Y-68716723D02*
X67214286Y-68526247D01*
X67214286Y-68526247D02*
X67214286Y-68383390D01*
X67214286Y-68383390D02*
X67261905Y-68192914D01*
X67261905Y-68192914D02*
X67309524Y-68097676D01*
X67309524Y-68097676D02*
X67404762Y-68002438D01*
X67404762Y-68002438D02*
X67547619Y-67954819D01*
X67547619Y-67954819D02*
X67642857Y-67954819D01*
X67642857Y-67954819D02*
X67785714Y-68002438D01*
X67785714Y-68002438D02*
X67833333Y-68050057D01*
X68214286Y-68050057D02*
X68261905Y-68002438D01*
X68261905Y-68002438D02*
X68357143Y-67954819D01*
X68357143Y-67954819D02*
X68595238Y-67954819D01*
X68595238Y-67954819D02*
X68690476Y-68002438D01*
X68690476Y-68002438D02*
X68738095Y-68050057D01*
X68738095Y-68050057D02*
X68785714Y-68145295D01*
X68785714Y-68145295D02*
X68785714Y-68240533D01*
X68785714Y-68240533D02*
X68738095Y-68383390D01*
X68738095Y-68383390D02*
X68166667Y-68954819D01*
X68166667Y-68954819D02*
X68785714Y-68954819D01*
X103244819Y-85333333D02*
X103959104Y-85333333D01*
X103959104Y-85333333D02*
X104101961Y-85380952D01*
X104101961Y-85380952D02*
X104197200Y-85476190D01*
X104197200Y-85476190D02*
X104244819Y-85619047D01*
X104244819Y-85619047D02*
X104244819Y-85714285D01*
X103578152Y-84428571D02*
X104244819Y-84428571D01*
X103197200Y-84666666D02*
X103911485Y-84904761D01*
X103911485Y-84904761D02*
X103911485Y-84285714D01*
X108333333Y-73859580D02*
X108285714Y-73907200D01*
X108285714Y-73907200D02*
X108142857Y-73954819D01*
X108142857Y-73954819D02*
X108047619Y-73954819D01*
X108047619Y-73954819D02*
X107904762Y-73907200D01*
X107904762Y-73907200D02*
X107809524Y-73811961D01*
X107809524Y-73811961D02*
X107761905Y-73716723D01*
X107761905Y-73716723D02*
X107714286Y-73526247D01*
X107714286Y-73526247D02*
X107714286Y-73383390D01*
X107714286Y-73383390D02*
X107761905Y-73192914D01*
X107761905Y-73192914D02*
X107809524Y-73097676D01*
X107809524Y-73097676D02*
X107904762Y-73002438D01*
X107904762Y-73002438D02*
X108047619Y-72954819D01*
X108047619Y-72954819D02*
X108142857Y-72954819D01*
X108142857Y-72954819D02*
X108285714Y-73002438D01*
X108285714Y-73002438D02*
X108333333Y-73050057D01*
X109285714Y-73954819D02*
X108714286Y-73954819D01*
X109000000Y-73954819D02*
X109000000Y-72954819D01*
X109000000Y-72954819D02*
X108904762Y-73097676D01*
X108904762Y-73097676D02*
X108809524Y-73192914D01*
X108809524Y-73192914D02*
X108714286Y-73240533D01*
X68434819Y-64046666D02*
X67958628Y-64379999D01*
X68434819Y-64618094D02*
X67434819Y-64618094D01*
X67434819Y-64618094D02*
X67434819Y-64237142D01*
X67434819Y-64237142D02*
X67482438Y-64141904D01*
X67482438Y-64141904D02*
X67530057Y-64094285D01*
X67530057Y-64094285D02*
X67625295Y-64046666D01*
X67625295Y-64046666D02*
X67768152Y-64046666D01*
X67768152Y-64046666D02*
X67863390Y-64094285D01*
X67863390Y-64094285D02*
X67911009Y-64141904D01*
X67911009Y-64141904D02*
X67958628Y-64237142D01*
X67958628Y-64237142D02*
X67958628Y-64618094D01*
X67863390Y-63475237D02*
X67815771Y-63570475D01*
X67815771Y-63570475D02*
X67768152Y-63618094D01*
X67768152Y-63618094D02*
X67672914Y-63665713D01*
X67672914Y-63665713D02*
X67625295Y-63665713D01*
X67625295Y-63665713D02*
X67530057Y-63618094D01*
X67530057Y-63618094D02*
X67482438Y-63570475D01*
X67482438Y-63570475D02*
X67434819Y-63475237D01*
X67434819Y-63475237D02*
X67434819Y-63284761D01*
X67434819Y-63284761D02*
X67482438Y-63189523D01*
X67482438Y-63189523D02*
X67530057Y-63141904D01*
X67530057Y-63141904D02*
X67625295Y-63094285D01*
X67625295Y-63094285D02*
X67672914Y-63094285D01*
X67672914Y-63094285D02*
X67768152Y-63141904D01*
X67768152Y-63141904D02*
X67815771Y-63189523D01*
X67815771Y-63189523D02*
X67863390Y-63284761D01*
X67863390Y-63284761D02*
X67863390Y-63475237D01*
X67863390Y-63475237D02*
X67911009Y-63570475D01*
X67911009Y-63570475D02*
X67958628Y-63618094D01*
X67958628Y-63618094D02*
X68053866Y-63665713D01*
X68053866Y-63665713D02*
X68244342Y-63665713D01*
X68244342Y-63665713D02*
X68339580Y-63618094D01*
X68339580Y-63618094D02*
X68387200Y-63570475D01*
X68387200Y-63570475D02*
X68434819Y-63475237D01*
X68434819Y-63475237D02*
X68434819Y-63284761D01*
X68434819Y-63284761D02*
X68387200Y-63189523D01*
X68387200Y-63189523D02*
X68339580Y-63141904D01*
X68339580Y-63141904D02*
X68244342Y-63094285D01*
X68244342Y-63094285D02*
X68053866Y-63094285D01*
X68053866Y-63094285D02*
X67958628Y-63141904D01*
X67958628Y-63141904D02*
X67911009Y-63189523D01*
X67911009Y-63189523D02*
X67863390Y-63284761D01*
X61164819Y-85333333D02*
X61879104Y-85333333D01*
X61879104Y-85333333D02*
X62021961Y-85380952D01*
X62021961Y-85380952D02*
X62117200Y-85476190D01*
X62117200Y-85476190D02*
X62164819Y-85619047D01*
X62164819Y-85619047D02*
X62164819Y-85714285D01*
X61260057Y-84904761D02*
X61212438Y-84857142D01*
X61212438Y-84857142D02*
X61164819Y-84761904D01*
X61164819Y-84761904D02*
X61164819Y-84523809D01*
X61164819Y-84523809D02*
X61212438Y-84428571D01*
X61212438Y-84428571D02*
X61260057Y-84380952D01*
X61260057Y-84380952D02*
X61355295Y-84333333D01*
X61355295Y-84333333D02*
X61450533Y-84333333D01*
X61450533Y-84333333D02*
X61593390Y-84380952D01*
X61593390Y-84380952D02*
X62164819Y-84952380D01*
X62164819Y-84952380D02*
X62164819Y-84333333D01*
X84603333Y-91674819D02*
X84270000Y-91198628D01*
X84031905Y-91674819D02*
X84031905Y-90674819D01*
X84031905Y-90674819D02*
X84412857Y-90674819D01*
X84412857Y-90674819D02*
X84508095Y-90722438D01*
X84508095Y-90722438D02*
X84555714Y-90770057D01*
X84555714Y-90770057D02*
X84603333Y-90865295D01*
X84603333Y-90865295D02*
X84603333Y-91008152D01*
X84603333Y-91008152D02*
X84555714Y-91103390D01*
X84555714Y-91103390D02*
X84508095Y-91151009D01*
X84508095Y-91151009D02*
X84412857Y-91198628D01*
X84412857Y-91198628D02*
X84031905Y-91198628D01*
X85508095Y-90674819D02*
X85031905Y-90674819D01*
X85031905Y-90674819D02*
X84984286Y-91151009D01*
X84984286Y-91151009D02*
X85031905Y-91103390D01*
X85031905Y-91103390D02*
X85127143Y-91055771D01*
X85127143Y-91055771D02*
X85365238Y-91055771D01*
X85365238Y-91055771D02*
X85460476Y-91103390D01*
X85460476Y-91103390D02*
X85508095Y-91151009D01*
X85508095Y-91151009D02*
X85555714Y-91246247D01*
X85555714Y-91246247D02*
X85555714Y-91484342D01*
X85555714Y-91484342D02*
X85508095Y-91579580D01*
X85508095Y-91579580D02*
X85460476Y-91627200D01*
X85460476Y-91627200D02*
X85365238Y-91674819D01*
X85365238Y-91674819D02*
X85127143Y-91674819D01*
X85127143Y-91674819D02*
X85031905Y-91627200D01*
X85031905Y-91627200D02*
X84984286Y-91579580D01*
X57044819Y-61411904D02*
X57854342Y-61411904D01*
X57854342Y-61411904D02*
X57949580Y-61364285D01*
X57949580Y-61364285D02*
X57997200Y-61316666D01*
X57997200Y-61316666D02*
X58044819Y-61221428D01*
X58044819Y-61221428D02*
X58044819Y-61030952D01*
X58044819Y-61030952D02*
X57997200Y-60935714D01*
X57997200Y-60935714D02*
X57949580Y-60888095D01*
X57949580Y-60888095D02*
X57854342Y-60840476D01*
X57854342Y-60840476D02*
X57044819Y-60840476D01*
X57140057Y-60411904D02*
X57092438Y-60364285D01*
X57092438Y-60364285D02*
X57044819Y-60269047D01*
X57044819Y-60269047D02*
X57044819Y-60030952D01*
X57044819Y-60030952D02*
X57092438Y-59935714D01*
X57092438Y-59935714D02*
X57140057Y-59888095D01*
X57140057Y-59888095D02*
X57235295Y-59840476D01*
X57235295Y-59840476D02*
X57330533Y-59840476D01*
X57330533Y-59840476D02*
X57473390Y-59888095D01*
X57473390Y-59888095D02*
X58044819Y-60459523D01*
X58044819Y-60459523D02*
X58044819Y-59840476D01*
X68584819Y-45441666D02*
X68108628Y-45774999D01*
X68584819Y-46013094D02*
X67584819Y-46013094D01*
X67584819Y-46013094D02*
X67584819Y-45632142D01*
X67584819Y-45632142D02*
X67632438Y-45536904D01*
X67632438Y-45536904D02*
X67680057Y-45489285D01*
X67680057Y-45489285D02*
X67775295Y-45441666D01*
X67775295Y-45441666D02*
X67918152Y-45441666D01*
X67918152Y-45441666D02*
X68013390Y-45489285D01*
X68013390Y-45489285D02*
X68061009Y-45536904D01*
X68061009Y-45536904D02*
X68108628Y-45632142D01*
X68108628Y-45632142D02*
X68108628Y-46013094D01*
X68584819Y-44489285D02*
X68584819Y-45060713D01*
X68584819Y-44774999D02*
X67584819Y-44774999D01*
X67584819Y-44774999D02*
X67727676Y-44870237D01*
X67727676Y-44870237D02*
X67822914Y-44965475D01*
X67822914Y-44965475D02*
X67870533Y-45060713D01*
X73674819Y-82316666D02*
X73198628Y-82649999D01*
X73674819Y-82888094D02*
X72674819Y-82888094D01*
X72674819Y-82888094D02*
X72674819Y-82507142D01*
X72674819Y-82507142D02*
X72722438Y-82411904D01*
X72722438Y-82411904D02*
X72770057Y-82364285D01*
X72770057Y-82364285D02*
X72865295Y-82316666D01*
X72865295Y-82316666D02*
X73008152Y-82316666D01*
X73008152Y-82316666D02*
X73103390Y-82364285D01*
X73103390Y-82364285D02*
X73151009Y-82411904D01*
X73151009Y-82411904D02*
X73198628Y-82507142D01*
X73198628Y-82507142D02*
X73198628Y-82888094D01*
X72674819Y-81459523D02*
X72674819Y-81649999D01*
X72674819Y-81649999D02*
X72722438Y-81745237D01*
X72722438Y-81745237D02*
X72770057Y-81792856D01*
X72770057Y-81792856D02*
X72912914Y-81888094D01*
X72912914Y-81888094D02*
X73103390Y-81935713D01*
X73103390Y-81935713D02*
X73484342Y-81935713D01*
X73484342Y-81935713D02*
X73579580Y-81888094D01*
X73579580Y-81888094D02*
X73627200Y-81840475D01*
X73627200Y-81840475D02*
X73674819Y-81745237D01*
X73674819Y-81745237D02*
X73674819Y-81554761D01*
X73674819Y-81554761D02*
X73627200Y-81459523D01*
X73627200Y-81459523D02*
X73579580Y-81411904D01*
X73579580Y-81411904D02*
X73484342Y-81364285D01*
X73484342Y-81364285D02*
X73246247Y-81364285D01*
X73246247Y-81364285D02*
X73151009Y-81411904D01*
X73151009Y-81411904D02*
X73103390Y-81459523D01*
X73103390Y-81459523D02*
X73055771Y-81554761D01*
X73055771Y-81554761D02*
X73055771Y-81745237D01*
X73055771Y-81745237D02*
X73103390Y-81840475D01*
X73103390Y-81840475D02*
X73151009Y-81888094D01*
X73151009Y-81888094D02*
X73246247Y-81935713D01*
X73324819Y-51896666D02*
X72848628Y-52229999D01*
X73324819Y-52468094D02*
X72324819Y-52468094D01*
X72324819Y-52468094D02*
X72324819Y-52087142D01*
X72324819Y-52087142D02*
X72372438Y-51991904D01*
X72372438Y-51991904D02*
X72420057Y-51944285D01*
X72420057Y-51944285D02*
X72515295Y-51896666D01*
X72515295Y-51896666D02*
X72658152Y-51896666D01*
X72658152Y-51896666D02*
X72753390Y-51944285D01*
X72753390Y-51944285D02*
X72801009Y-51991904D01*
X72801009Y-51991904D02*
X72848628Y-52087142D01*
X72848628Y-52087142D02*
X72848628Y-52468094D01*
X72420057Y-51515713D02*
X72372438Y-51468094D01*
X72372438Y-51468094D02*
X72324819Y-51372856D01*
X72324819Y-51372856D02*
X72324819Y-51134761D01*
X72324819Y-51134761D02*
X72372438Y-51039523D01*
X72372438Y-51039523D02*
X72420057Y-50991904D01*
X72420057Y-50991904D02*
X72515295Y-50944285D01*
X72515295Y-50944285D02*
X72610533Y-50944285D01*
X72610533Y-50944285D02*
X72753390Y-50991904D01*
X72753390Y-50991904D02*
X73324819Y-51563332D01*
X73324819Y-51563332D02*
X73324819Y-50944285D01*
X111674819Y-64816666D02*
X111198628Y-65149999D01*
X111674819Y-65388094D02*
X110674819Y-65388094D01*
X110674819Y-65388094D02*
X110674819Y-65007142D01*
X110674819Y-65007142D02*
X110722438Y-64911904D01*
X110722438Y-64911904D02*
X110770057Y-64864285D01*
X110770057Y-64864285D02*
X110865295Y-64816666D01*
X110865295Y-64816666D02*
X111008152Y-64816666D01*
X111008152Y-64816666D02*
X111103390Y-64864285D01*
X111103390Y-64864285D02*
X111151009Y-64911904D01*
X111151009Y-64911904D02*
X111198628Y-65007142D01*
X111198628Y-65007142D02*
X111198628Y-65388094D01*
X110674819Y-64483332D02*
X110674819Y-63864285D01*
X110674819Y-63864285D02*
X111055771Y-64197618D01*
X111055771Y-64197618D02*
X111055771Y-64054761D01*
X111055771Y-64054761D02*
X111103390Y-63959523D01*
X111103390Y-63959523D02*
X111151009Y-63911904D01*
X111151009Y-63911904D02*
X111246247Y-63864285D01*
X111246247Y-63864285D02*
X111484342Y-63864285D01*
X111484342Y-63864285D02*
X111579580Y-63911904D01*
X111579580Y-63911904D02*
X111627200Y-63959523D01*
X111627200Y-63959523D02*
X111674819Y-64054761D01*
X111674819Y-64054761D02*
X111674819Y-64340475D01*
X111674819Y-64340475D02*
X111627200Y-64435713D01*
X111627200Y-64435713D02*
X111579580Y-64483332D01*
D12*
%TO.C,J1*%
X104790000Y-45440000D02*
X112210000Y-45440000D01*
X104790000Y-54560000D02*
X104790000Y-45440000D01*
X104790000Y-54560000D02*
X112210000Y-54560000D01*
X106937000Y-48688000D02*
X107081000Y-48832000D01*
X107189000Y-48437000D02*
X107375000Y-48624000D01*
X109624000Y-51376000D02*
X109811000Y-51563000D01*
X109919000Y-51168000D02*
X110063000Y-51312000D01*
X112210000Y-54560000D02*
X112210000Y-45440000D01*
X110560000Y-50000000D02*
G75*
G02*
X106440000Y-50000000I-2060000J0D01*
G01*
X106440000Y-50000000D02*
G75*
G02*
X110560000Y-50000000I2060000J0D01*
G01*
%TO.C,J3*%
X59060000Y-71000000D02*
G75*
G02*
X54940000Y-71000000I-2060000J0D01*
G01*
X54940000Y-71000000D02*
G75*
G02*
X59060000Y-71000000I2060000J0D01*
G01*
X60710000Y-75560000D02*
X53290000Y-75560000D01*
X60710000Y-66440000D02*
X60710000Y-75560000D01*
X60710000Y-66440000D02*
X53290000Y-66440000D01*
X58563000Y-72312000D02*
X58419000Y-72168000D01*
X58311000Y-72563000D02*
X58125000Y-72376000D01*
X55876000Y-69624000D02*
X55689000Y-69437000D01*
X55581000Y-69832000D02*
X55437000Y-69688000D01*
X53290000Y-66440000D02*
X53290000Y-75560000D01*
%TO.C,R4*%
X92365225Y-87528620D02*
G75*
G02*
X92256728Y-89300000I1344775J-971380D01*
G01*
%TO.C,U1*%
X84920000Y-81540000D02*
X84920000Y-78620000D01*
X86190000Y-77350000D02*
X91650000Y-77350000D01*
X91650000Y-82810000D02*
X86190000Y-82810000D01*
X92920000Y-78620000D02*
X92920000Y-81600000D01*
X84910000Y-78610000D02*
G75*
G02*
X86180000Y-77340000I1270000J0D01*
G01*
X86180000Y-82820000D02*
G75*
G02*
X84910000Y-81550000I0J1270000D01*
G01*
X91660000Y-77340000D02*
G75*
G02*
X92930000Y-78610000I0J-1270000D01*
G01*
X92930000Y-81550000D02*
G75*
G02*
X91660000Y-82820000I-1270000J0D01*
G01*
X92344006Y-78560000D02*
G75*
G02*
X91715994Y-78560000I-314006J0D01*
G01*
X91715994Y-78560000D02*
G75*
G02*
X92344006Y-78560000I314006J0D01*
G01*
%TO.C,J5*%
X53290000Y-45440000D02*
X53290000Y-54560000D01*
X55581000Y-48832000D02*
X55437000Y-48688000D01*
X55876000Y-48624000D02*
X55689000Y-48437000D01*
X58311000Y-51563000D02*
X58125000Y-51376000D01*
X58563000Y-51312000D02*
X58419000Y-51168000D01*
X60710000Y-45440000D02*
X53290000Y-45440000D01*
X60710000Y-45440000D02*
X60710000Y-54560000D01*
X60710000Y-54560000D02*
X53290000Y-54560000D01*
X59060000Y-50000000D02*
G75*
G02*
X54940000Y-50000000I-2060000J0D01*
G01*
X54940000Y-50000000D02*
G75*
G02*
X59060000Y-50000000I2060000J0D01*
G01*
%TO.C,R7*%
X70350000Y-57840000D02*
X70350000Y-57770000D01*
X71720000Y-59210000D02*
G75*
G02*
X68980000Y-59210000I-1370000J0D01*
G01*
X68980000Y-59210000D02*
G75*
G02*
X71720000Y-59210000I1370000J0D01*
G01*
%TO.C,C2*%
X71870000Y-69630000D02*
X71870000Y-72370000D01*
X64130000Y-72370000D02*
X71870000Y-72370000D01*
X64130000Y-69630000D02*
X71870000Y-69630000D01*
X64130000Y-69630000D02*
X64130000Y-72370000D01*
%TO.C,J4*%
X104790000Y-80440000D02*
X112210000Y-80440000D01*
X104790000Y-89560000D02*
X104790000Y-80440000D01*
X104790000Y-89560000D02*
X112210000Y-89560000D01*
X106937000Y-83688000D02*
X107081000Y-83832000D01*
X107189000Y-83437000D02*
X107375000Y-83624000D01*
X109624000Y-86376000D02*
X109811000Y-86563000D01*
X109919000Y-86168000D02*
X110063000Y-86312000D01*
X112210000Y-89560000D02*
X112210000Y-80440000D01*
X110560000Y-85000000D02*
G75*
G02*
X106440000Y-85000000I-2060000J0D01*
G01*
X106440000Y-85000000D02*
G75*
G02*
X110560000Y-85000000I2060000J0D01*
G01*
%TO.C,C1*%
X104630000Y-74630000D02*
X104630000Y-77370000D01*
X104630000Y-74630000D02*
X112370000Y-74630000D01*
X104630000Y-77370000D02*
X112370000Y-77370000D01*
X112370000Y-74630000D02*
X112370000Y-77370000D01*
%TO.C,R8*%
X70350000Y-63780000D02*
X70350000Y-63710000D01*
X71720000Y-65150000D02*
G75*
G02*
X68980000Y-65150000I-1370000J0D01*
G01*
X68980000Y-65150000D02*
G75*
G02*
X71720000Y-65150000I1370000J0D01*
G01*
%TO.C,J2*%
X59060000Y-85000000D02*
G75*
G02*
X54940000Y-85000000I-2060000J0D01*
G01*
X54940000Y-85000000D02*
G75*
G02*
X59060000Y-85000000I2060000J0D01*
G01*
X60710000Y-89560000D02*
X53290000Y-89560000D01*
X60710000Y-80440000D02*
X60710000Y-89560000D01*
X60710000Y-80440000D02*
X53290000Y-80440000D01*
X58563000Y-86312000D02*
X58419000Y-86168000D01*
X58311000Y-86563000D02*
X58125000Y-86376000D01*
X55876000Y-83624000D02*
X55689000Y-83437000D01*
X55581000Y-83832000D02*
X55437000Y-83688000D01*
X53290000Y-80440000D02*
X53290000Y-89560000D01*
%TO.C,R5*%
X84695225Y-87528620D02*
G75*
G02*
X84586728Y-89300000I1344775J-971380D01*
G01*
%TO.C,U2*%
X63000000Y-62450000D02*
X63000000Y-58850000D01*
X58550000Y-60650000D02*
G75*
G02*
X62988478Y-58811522I2600000J0D01*
G01*
X62988478Y-62488478D02*
G75*
G02*
X58549999Y-60650000I-1838478J1838478D01*
G01*
%TO.C,R1*%
X70500000Y-45175000D02*
X70500000Y-45105000D01*
X71870000Y-46545000D02*
G75*
G02*
X69130000Y-46545000I-1370000J0D01*
G01*
X69130000Y-46545000D02*
G75*
G02*
X71870000Y-46545000I1370000J0D01*
G01*
%TO.C,R6*%
X72220000Y-86770000D02*
X72220000Y-77530000D01*
X72220000Y-77530000D02*
X68780000Y-77530000D01*
X70500000Y-87460000D02*
X70500000Y-86770000D01*
X70500000Y-76840000D02*
X70500000Y-77530000D01*
X68780000Y-86770000D02*
X72220000Y-86770000D01*
X68780000Y-77530000D02*
X68780000Y-86770000D01*
%TO.C,R2*%
X70500000Y-51830000D02*
X70500000Y-51900000D01*
X71870000Y-50460000D02*
G75*
G02*
X69130000Y-50460000I-1370000J0D01*
G01*
X69130000Y-50460000D02*
G75*
G02*
X71870000Y-50460000I1370000J0D01*
G01*
%TO.C,R3*%
X106780000Y-60030000D02*
X106780000Y-69270000D01*
X106780000Y-69270000D02*
X110220000Y-69270000D01*
X108500000Y-59340000D02*
X108500000Y-60030000D01*
X108500000Y-69960000D02*
X108500000Y-69270000D01*
X110220000Y-60030000D02*
X106780000Y-60030000D01*
X110220000Y-69270000D02*
X110220000Y-60030000D01*
%TD*%
M02*
