%TF.GenerationSoftware,KiCad,Pcbnew,8.0.8*%
%TF.CreationDate,2025-01-19T15:50:14-06:00*%
%TF.ProjectId,Block-JAN6418,426c6f63-6b2d-44a4-914e-363431382e6b,rev?*%
%TF.SameCoordinates,Original*%
%TF.FileFunction,Legend,Top*%
%TF.FilePolarity,Positive*%
%FSLAX46Y46*%
G04 Gerber Fmt 4.6, Leading zero omitted, Abs format (unit mm)*
G04 Created by KiCad (PCBNEW 8.0.8) date 2025-01-19 15:50:14*
%MOMM*%
%LPD*%
G01*
G04 APERTURE LIST*
%ADD10C,0.100000*%
%ADD11C,0.150000*%
%ADD12C,0.120000*%
G04 APERTURE END LIST*
D10*
X71000000Y-42452500D02*
X84750000Y-42452500D01*
X84750000Y-82202500D01*
X71000000Y-82202500D01*
X71000000Y-42452500D01*
D11*
X57670112Y-92126121D02*
X57336779Y-92126121D01*
X57336779Y-92649931D02*
X57336779Y-91649931D01*
X57336779Y-91649931D02*
X57812969Y-91649931D01*
X58336779Y-92649931D02*
X58241541Y-92602312D01*
X58241541Y-92602312D02*
X58193922Y-92554692D01*
X58193922Y-92554692D02*
X58146303Y-92459454D01*
X58146303Y-92459454D02*
X58146303Y-92173740D01*
X58146303Y-92173740D02*
X58193922Y-92078502D01*
X58193922Y-92078502D02*
X58241541Y-92030883D01*
X58241541Y-92030883D02*
X58336779Y-91983264D01*
X58336779Y-91983264D02*
X58479636Y-91983264D01*
X58479636Y-91983264D02*
X58574874Y-92030883D01*
X58574874Y-92030883D02*
X58622493Y-92078502D01*
X58622493Y-92078502D02*
X58670112Y-92173740D01*
X58670112Y-92173740D02*
X58670112Y-92459454D01*
X58670112Y-92459454D02*
X58622493Y-92554692D01*
X58622493Y-92554692D02*
X58574874Y-92602312D01*
X58574874Y-92602312D02*
X58479636Y-92649931D01*
X58479636Y-92649931D02*
X58336779Y-92649931D01*
X59098684Y-92649931D02*
X59098684Y-91983264D01*
X59098684Y-92173740D02*
X59146303Y-92078502D01*
X59146303Y-92078502D02*
X59193922Y-92030883D01*
X59193922Y-92030883D02*
X59289160Y-91983264D01*
X59289160Y-91983264D02*
X59384398Y-91983264D01*
X60336780Y-91983264D02*
X60717732Y-91983264D01*
X60479637Y-91649931D02*
X60479637Y-92507073D01*
X60479637Y-92507073D02*
X60527256Y-92602312D01*
X60527256Y-92602312D02*
X60622494Y-92649931D01*
X60622494Y-92649931D02*
X60717732Y-92649931D01*
X61051066Y-92649931D02*
X61051066Y-91983264D01*
X61051066Y-92173740D02*
X61098685Y-92078502D01*
X61098685Y-92078502D02*
X61146304Y-92030883D01*
X61146304Y-92030883D02*
X61241542Y-91983264D01*
X61241542Y-91983264D02*
X61336780Y-91983264D01*
X61670114Y-92649931D02*
X61670114Y-91983264D01*
X61670114Y-91649931D02*
X61622495Y-91697550D01*
X61622495Y-91697550D02*
X61670114Y-91745169D01*
X61670114Y-91745169D02*
X61717733Y-91697550D01*
X61717733Y-91697550D02*
X61670114Y-91649931D01*
X61670114Y-91649931D02*
X61670114Y-91745169D01*
X62289161Y-92649931D02*
X62193923Y-92602312D01*
X62193923Y-92602312D02*
X62146304Y-92554692D01*
X62146304Y-92554692D02*
X62098685Y-92459454D01*
X62098685Y-92459454D02*
X62098685Y-92173740D01*
X62098685Y-92173740D02*
X62146304Y-92078502D01*
X62146304Y-92078502D02*
X62193923Y-92030883D01*
X62193923Y-92030883D02*
X62289161Y-91983264D01*
X62289161Y-91983264D02*
X62432018Y-91983264D01*
X62432018Y-91983264D02*
X62527256Y-92030883D01*
X62527256Y-92030883D02*
X62574875Y-92078502D01*
X62574875Y-92078502D02*
X62622494Y-92173740D01*
X62622494Y-92173740D02*
X62622494Y-92459454D01*
X62622494Y-92459454D02*
X62574875Y-92554692D01*
X62574875Y-92554692D02*
X62527256Y-92602312D01*
X62527256Y-92602312D02*
X62432018Y-92649931D01*
X62432018Y-92649931D02*
X62289161Y-92649931D01*
X63479637Y-92649931D02*
X63479637Y-91649931D01*
X63479637Y-92602312D02*
X63384399Y-92649931D01*
X63384399Y-92649931D02*
X63193923Y-92649931D01*
X63193923Y-92649931D02*
X63098685Y-92602312D01*
X63098685Y-92602312D02*
X63051066Y-92554692D01*
X63051066Y-92554692D02*
X63003447Y-92459454D01*
X63003447Y-92459454D02*
X63003447Y-92173740D01*
X63003447Y-92173740D02*
X63051066Y-92078502D01*
X63051066Y-92078502D02*
X63098685Y-92030883D01*
X63098685Y-92030883D02*
X63193923Y-91983264D01*
X63193923Y-91983264D02*
X63384399Y-91983264D01*
X63384399Y-91983264D02*
X63479637Y-92030883D01*
X64336780Y-92602312D02*
X64241542Y-92649931D01*
X64241542Y-92649931D02*
X64051066Y-92649931D01*
X64051066Y-92649931D02*
X63955828Y-92602312D01*
X63955828Y-92602312D02*
X63908209Y-92507073D01*
X63908209Y-92507073D02*
X63908209Y-92126121D01*
X63908209Y-92126121D02*
X63955828Y-92030883D01*
X63955828Y-92030883D02*
X64051066Y-91983264D01*
X64051066Y-91983264D02*
X64241542Y-91983264D01*
X64241542Y-91983264D02*
X64336780Y-92030883D01*
X64336780Y-92030883D02*
X64384399Y-92126121D01*
X64384399Y-92126121D02*
X64384399Y-92221359D01*
X64384399Y-92221359D02*
X63908209Y-92316597D01*
X65574876Y-92649931D02*
X65574876Y-91983264D01*
X65574876Y-92078502D02*
X65622495Y-92030883D01*
X65622495Y-92030883D02*
X65717733Y-91983264D01*
X65717733Y-91983264D02*
X65860590Y-91983264D01*
X65860590Y-91983264D02*
X65955828Y-92030883D01*
X65955828Y-92030883D02*
X66003447Y-92126121D01*
X66003447Y-92126121D02*
X66003447Y-92649931D01*
X66003447Y-92126121D02*
X66051066Y-92030883D01*
X66051066Y-92030883D02*
X66146304Y-91983264D01*
X66146304Y-91983264D02*
X66289161Y-91983264D01*
X66289161Y-91983264D02*
X66384400Y-92030883D01*
X66384400Y-92030883D02*
X66432019Y-92126121D01*
X66432019Y-92126121D02*
X66432019Y-92649931D01*
X67051066Y-92649931D02*
X66955828Y-92602312D01*
X66955828Y-92602312D02*
X66908209Y-92554692D01*
X66908209Y-92554692D02*
X66860590Y-92459454D01*
X66860590Y-92459454D02*
X66860590Y-92173740D01*
X66860590Y-92173740D02*
X66908209Y-92078502D01*
X66908209Y-92078502D02*
X66955828Y-92030883D01*
X66955828Y-92030883D02*
X67051066Y-91983264D01*
X67051066Y-91983264D02*
X67193923Y-91983264D01*
X67193923Y-91983264D02*
X67289161Y-92030883D01*
X67289161Y-92030883D02*
X67336780Y-92078502D01*
X67336780Y-92078502D02*
X67384399Y-92173740D01*
X67384399Y-92173740D02*
X67384399Y-92459454D01*
X67384399Y-92459454D02*
X67336780Y-92554692D01*
X67336780Y-92554692D02*
X67289161Y-92602312D01*
X67289161Y-92602312D02*
X67193923Y-92649931D01*
X67193923Y-92649931D02*
X67051066Y-92649931D01*
X68241542Y-92649931D02*
X68241542Y-91649931D01*
X68241542Y-92602312D02*
X68146304Y-92649931D01*
X68146304Y-92649931D02*
X67955828Y-92649931D01*
X67955828Y-92649931D02*
X67860590Y-92602312D01*
X67860590Y-92602312D02*
X67812971Y-92554692D01*
X67812971Y-92554692D02*
X67765352Y-92459454D01*
X67765352Y-92459454D02*
X67765352Y-92173740D01*
X67765352Y-92173740D02*
X67812971Y-92078502D01*
X67812971Y-92078502D02*
X67860590Y-92030883D01*
X67860590Y-92030883D02*
X67955828Y-91983264D01*
X67955828Y-91983264D02*
X68146304Y-91983264D01*
X68146304Y-91983264D02*
X68241542Y-92030883D01*
X69098685Y-92602312D02*
X69003447Y-92649931D01*
X69003447Y-92649931D02*
X68812971Y-92649931D01*
X68812971Y-92649931D02*
X68717733Y-92602312D01*
X68717733Y-92602312D02*
X68670114Y-92507073D01*
X68670114Y-92507073D02*
X68670114Y-92126121D01*
X68670114Y-92126121D02*
X68717733Y-92030883D01*
X68717733Y-92030883D02*
X68812971Y-91983264D01*
X68812971Y-91983264D02*
X69003447Y-91983264D01*
X69003447Y-91983264D02*
X69098685Y-92030883D01*
X69098685Y-92030883D02*
X69146304Y-92126121D01*
X69146304Y-92126121D02*
X69146304Y-92221359D01*
X69146304Y-92221359D02*
X68670114Y-92316597D01*
X69622495Y-92602312D02*
X69622495Y-92649931D01*
X69622495Y-92649931D02*
X69574876Y-92745169D01*
X69574876Y-92745169D02*
X69527257Y-92792788D01*
X70812971Y-92649931D02*
X70812971Y-91983264D01*
X70812971Y-91649931D02*
X70765352Y-91697550D01*
X70765352Y-91697550D02*
X70812971Y-91745169D01*
X70812971Y-91745169D02*
X70860590Y-91697550D01*
X70860590Y-91697550D02*
X70812971Y-91649931D01*
X70812971Y-91649931D02*
X70812971Y-91745169D01*
X71289161Y-91983264D02*
X71289161Y-92649931D01*
X71289161Y-92078502D02*
X71336780Y-92030883D01*
X71336780Y-92030883D02*
X71432018Y-91983264D01*
X71432018Y-91983264D02*
X71574875Y-91983264D01*
X71574875Y-91983264D02*
X71670113Y-92030883D01*
X71670113Y-92030883D02*
X71717732Y-92126121D01*
X71717732Y-92126121D02*
X71717732Y-92649931D01*
X72146304Y-92602312D02*
X72241542Y-92649931D01*
X72241542Y-92649931D02*
X72432018Y-92649931D01*
X72432018Y-92649931D02*
X72527256Y-92602312D01*
X72527256Y-92602312D02*
X72574875Y-92507073D01*
X72574875Y-92507073D02*
X72574875Y-92459454D01*
X72574875Y-92459454D02*
X72527256Y-92364216D01*
X72527256Y-92364216D02*
X72432018Y-92316597D01*
X72432018Y-92316597D02*
X72289161Y-92316597D01*
X72289161Y-92316597D02*
X72193923Y-92268978D01*
X72193923Y-92268978D02*
X72146304Y-92173740D01*
X72146304Y-92173740D02*
X72146304Y-92126121D01*
X72146304Y-92126121D02*
X72193923Y-92030883D01*
X72193923Y-92030883D02*
X72289161Y-91983264D01*
X72289161Y-91983264D02*
X72432018Y-91983264D01*
X72432018Y-91983264D02*
X72527256Y-92030883D01*
X72860590Y-91983264D02*
X73241542Y-91983264D01*
X73003447Y-91649931D02*
X73003447Y-92507073D01*
X73003447Y-92507073D02*
X73051066Y-92602312D01*
X73051066Y-92602312D02*
X73146304Y-92649931D01*
X73146304Y-92649931D02*
X73241542Y-92649931D01*
X74003447Y-92649931D02*
X74003447Y-92126121D01*
X74003447Y-92126121D02*
X73955828Y-92030883D01*
X73955828Y-92030883D02*
X73860590Y-91983264D01*
X73860590Y-91983264D02*
X73670114Y-91983264D01*
X73670114Y-91983264D02*
X73574876Y-92030883D01*
X74003447Y-92602312D02*
X73908209Y-92649931D01*
X73908209Y-92649931D02*
X73670114Y-92649931D01*
X73670114Y-92649931D02*
X73574876Y-92602312D01*
X73574876Y-92602312D02*
X73527257Y-92507073D01*
X73527257Y-92507073D02*
X73527257Y-92411835D01*
X73527257Y-92411835D02*
X73574876Y-92316597D01*
X73574876Y-92316597D02*
X73670114Y-92268978D01*
X73670114Y-92268978D02*
X73908209Y-92268978D01*
X73908209Y-92268978D02*
X74003447Y-92221359D01*
X74622495Y-92649931D02*
X74527257Y-92602312D01*
X74527257Y-92602312D02*
X74479638Y-92507073D01*
X74479638Y-92507073D02*
X74479638Y-91649931D01*
X75146305Y-92649931D02*
X75051067Y-92602312D01*
X75051067Y-92602312D02*
X75003448Y-92507073D01*
X75003448Y-92507073D02*
X75003448Y-91649931D01*
X76717734Y-92649931D02*
X76717734Y-92126121D01*
X76717734Y-92126121D02*
X76670115Y-92030883D01*
X76670115Y-92030883D02*
X76574877Y-91983264D01*
X76574877Y-91983264D02*
X76384401Y-91983264D01*
X76384401Y-91983264D02*
X76289163Y-92030883D01*
X76717734Y-92602312D02*
X76622496Y-92649931D01*
X76622496Y-92649931D02*
X76384401Y-92649931D01*
X76384401Y-92649931D02*
X76289163Y-92602312D01*
X76289163Y-92602312D02*
X76241544Y-92507073D01*
X76241544Y-92507073D02*
X76241544Y-92411835D01*
X76241544Y-92411835D02*
X76289163Y-92316597D01*
X76289163Y-92316597D02*
X76384401Y-92268978D01*
X76384401Y-92268978D02*
X76622496Y-92268978D01*
X76622496Y-92268978D02*
X76717734Y-92221359D01*
X77955830Y-91983264D02*
X77955830Y-92840407D01*
X77955830Y-92840407D02*
X77908211Y-92935645D01*
X77908211Y-92935645D02*
X77812973Y-92983264D01*
X77812973Y-92983264D02*
X77765354Y-92983264D01*
X77955830Y-91649931D02*
X77908211Y-91697550D01*
X77908211Y-91697550D02*
X77955830Y-91745169D01*
X77955830Y-91745169D02*
X78003449Y-91697550D01*
X78003449Y-91697550D02*
X77955830Y-91649931D01*
X77955830Y-91649931D02*
X77955830Y-91745169D01*
X78860591Y-91983264D02*
X78860591Y-92649931D01*
X78432020Y-91983264D02*
X78432020Y-92507073D01*
X78432020Y-92507073D02*
X78479639Y-92602312D01*
X78479639Y-92602312D02*
X78574877Y-92649931D01*
X78574877Y-92649931D02*
X78717734Y-92649931D01*
X78717734Y-92649931D02*
X78812972Y-92602312D01*
X78812972Y-92602312D02*
X78860591Y-92554692D01*
X79336782Y-92649931D02*
X79336782Y-91983264D01*
X79336782Y-92078502D02*
X79384401Y-92030883D01*
X79384401Y-92030883D02*
X79479639Y-91983264D01*
X79479639Y-91983264D02*
X79622496Y-91983264D01*
X79622496Y-91983264D02*
X79717734Y-92030883D01*
X79717734Y-92030883D02*
X79765353Y-92126121D01*
X79765353Y-92126121D02*
X79765353Y-92649931D01*
X79765353Y-92126121D02*
X79812972Y-92030883D01*
X79812972Y-92030883D02*
X79908210Y-91983264D01*
X79908210Y-91983264D02*
X80051067Y-91983264D01*
X80051067Y-91983264D02*
X80146306Y-92030883D01*
X80146306Y-92030883D02*
X80193925Y-92126121D01*
X80193925Y-92126121D02*
X80193925Y-92649931D01*
X80670115Y-91983264D02*
X80670115Y-92983264D01*
X80670115Y-92030883D02*
X80765353Y-91983264D01*
X80765353Y-91983264D02*
X80955829Y-91983264D01*
X80955829Y-91983264D02*
X81051067Y-92030883D01*
X81051067Y-92030883D02*
X81098686Y-92078502D01*
X81098686Y-92078502D02*
X81146305Y-92173740D01*
X81146305Y-92173740D02*
X81146305Y-92459454D01*
X81146305Y-92459454D02*
X81098686Y-92554692D01*
X81098686Y-92554692D02*
X81051067Y-92602312D01*
X81051067Y-92602312D02*
X80955829Y-92649931D01*
X80955829Y-92649931D02*
X80765353Y-92649931D01*
X80765353Y-92649931D02*
X80670115Y-92602312D01*
X81955829Y-92602312D02*
X81860591Y-92649931D01*
X81860591Y-92649931D02*
X81670115Y-92649931D01*
X81670115Y-92649931D02*
X81574877Y-92602312D01*
X81574877Y-92602312D02*
X81527258Y-92507073D01*
X81527258Y-92507073D02*
X81527258Y-92126121D01*
X81527258Y-92126121D02*
X81574877Y-92030883D01*
X81574877Y-92030883D02*
X81670115Y-91983264D01*
X81670115Y-91983264D02*
X81860591Y-91983264D01*
X81860591Y-91983264D02*
X81955829Y-92030883D01*
X81955829Y-92030883D02*
X82003448Y-92126121D01*
X82003448Y-92126121D02*
X82003448Y-92221359D01*
X82003448Y-92221359D02*
X81527258Y-92316597D01*
X82432020Y-92649931D02*
X82432020Y-91983264D01*
X82432020Y-92173740D02*
X82479639Y-92078502D01*
X82479639Y-92078502D02*
X82527258Y-92030883D01*
X82527258Y-92030883D02*
X82622496Y-91983264D01*
X82622496Y-91983264D02*
X82717734Y-91983264D01*
X83812973Y-92649931D02*
X83812973Y-91983264D01*
X83812973Y-91649931D02*
X83765354Y-91697550D01*
X83765354Y-91697550D02*
X83812973Y-91745169D01*
X83812973Y-91745169D02*
X83860592Y-91697550D01*
X83860592Y-91697550D02*
X83812973Y-91649931D01*
X83812973Y-91649931D02*
X83812973Y-91745169D01*
X84289163Y-91983264D02*
X84289163Y-92649931D01*
X84289163Y-92078502D02*
X84336782Y-92030883D01*
X84336782Y-92030883D02*
X84432020Y-91983264D01*
X84432020Y-91983264D02*
X84574877Y-91983264D01*
X84574877Y-91983264D02*
X84670115Y-92030883D01*
X84670115Y-92030883D02*
X84717734Y-92126121D01*
X84717734Y-92126121D02*
X84717734Y-92649931D01*
X86527258Y-92649931D02*
X86193925Y-92173740D01*
X85955830Y-92649931D02*
X85955830Y-91649931D01*
X85955830Y-91649931D02*
X86336782Y-91649931D01*
X86336782Y-91649931D02*
X86432020Y-91697550D01*
X86432020Y-91697550D02*
X86479639Y-91745169D01*
X86479639Y-91745169D02*
X86527258Y-91840407D01*
X86527258Y-91840407D02*
X86527258Y-91983264D01*
X86527258Y-91983264D02*
X86479639Y-92078502D01*
X86479639Y-92078502D02*
X86432020Y-92126121D01*
X86432020Y-92126121D02*
X86336782Y-92173740D01*
X86336782Y-92173740D02*
X85955830Y-92173740D01*
X87384401Y-91983264D02*
X87384401Y-92649931D01*
X87146306Y-91602312D02*
X86908211Y-92316597D01*
X86908211Y-92316597D02*
X87527258Y-92316597D01*
X87908211Y-92554692D02*
X87955830Y-92602312D01*
X87955830Y-92602312D02*
X87908211Y-92649931D01*
X87908211Y-92649931D02*
X87860592Y-92602312D01*
X87860592Y-92602312D02*
X87908211Y-92554692D01*
X87908211Y-92554692D02*
X87908211Y-92649931D01*
X57670112Y-93736065D02*
X57336779Y-93736065D01*
X57336779Y-94259875D02*
X57336779Y-93259875D01*
X57336779Y-93259875D02*
X57812969Y-93259875D01*
X58336779Y-94259875D02*
X58241541Y-94212256D01*
X58241541Y-94212256D02*
X58193922Y-94164636D01*
X58193922Y-94164636D02*
X58146303Y-94069398D01*
X58146303Y-94069398D02*
X58146303Y-93783684D01*
X58146303Y-93783684D02*
X58193922Y-93688446D01*
X58193922Y-93688446D02*
X58241541Y-93640827D01*
X58241541Y-93640827D02*
X58336779Y-93593208D01*
X58336779Y-93593208D02*
X58479636Y-93593208D01*
X58479636Y-93593208D02*
X58574874Y-93640827D01*
X58574874Y-93640827D02*
X58622493Y-93688446D01*
X58622493Y-93688446D02*
X58670112Y-93783684D01*
X58670112Y-93783684D02*
X58670112Y-94069398D01*
X58670112Y-94069398D02*
X58622493Y-94164636D01*
X58622493Y-94164636D02*
X58574874Y-94212256D01*
X58574874Y-94212256D02*
X58479636Y-94259875D01*
X58479636Y-94259875D02*
X58336779Y-94259875D01*
X59098684Y-94259875D02*
X59098684Y-93593208D01*
X59098684Y-93783684D02*
X59146303Y-93688446D01*
X59146303Y-93688446D02*
X59193922Y-93640827D01*
X59193922Y-93640827D02*
X59289160Y-93593208D01*
X59289160Y-93593208D02*
X59384398Y-93593208D01*
X60479637Y-93593208D02*
X60479637Y-94593208D01*
X60479637Y-93640827D02*
X60574875Y-93593208D01*
X60574875Y-93593208D02*
X60765351Y-93593208D01*
X60765351Y-93593208D02*
X60860589Y-93640827D01*
X60860589Y-93640827D02*
X60908208Y-93688446D01*
X60908208Y-93688446D02*
X60955827Y-93783684D01*
X60955827Y-93783684D02*
X60955827Y-94069398D01*
X60955827Y-94069398D02*
X60908208Y-94164636D01*
X60908208Y-94164636D02*
X60860589Y-94212256D01*
X60860589Y-94212256D02*
X60765351Y-94259875D01*
X60765351Y-94259875D02*
X60574875Y-94259875D01*
X60574875Y-94259875D02*
X60479637Y-94212256D01*
X61765351Y-94212256D02*
X61670113Y-94259875D01*
X61670113Y-94259875D02*
X61479637Y-94259875D01*
X61479637Y-94259875D02*
X61384399Y-94212256D01*
X61384399Y-94212256D02*
X61336780Y-94117017D01*
X61336780Y-94117017D02*
X61336780Y-93736065D01*
X61336780Y-93736065D02*
X61384399Y-93640827D01*
X61384399Y-93640827D02*
X61479637Y-93593208D01*
X61479637Y-93593208D02*
X61670113Y-93593208D01*
X61670113Y-93593208D02*
X61765351Y-93640827D01*
X61765351Y-93640827D02*
X61812970Y-93736065D01*
X61812970Y-93736065D02*
X61812970Y-93831303D01*
X61812970Y-93831303D02*
X61336780Y-93926541D01*
X62241542Y-93593208D02*
X62241542Y-94259875D01*
X62241542Y-93688446D02*
X62289161Y-93640827D01*
X62289161Y-93640827D02*
X62384399Y-93593208D01*
X62384399Y-93593208D02*
X62527256Y-93593208D01*
X62527256Y-93593208D02*
X62622494Y-93640827D01*
X62622494Y-93640827D02*
X62670113Y-93736065D01*
X62670113Y-93736065D02*
X62670113Y-94259875D01*
X63003447Y-93593208D02*
X63384399Y-93593208D01*
X63146304Y-93259875D02*
X63146304Y-94117017D01*
X63146304Y-94117017D02*
X63193923Y-94212256D01*
X63193923Y-94212256D02*
X63289161Y-94259875D01*
X63289161Y-94259875D02*
X63384399Y-94259875D01*
X63860590Y-94259875D02*
X63765352Y-94212256D01*
X63765352Y-94212256D02*
X63717733Y-94164636D01*
X63717733Y-94164636D02*
X63670114Y-94069398D01*
X63670114Y-94069398D02*
X63670114Y-93783684D01*
X63670114Y-93783684D02*
X63717733Y-93688446D01*
X63717733Y-93688446D02*
X63765352Y-93640827D01*
X63765352Y-93640827D02*
X63860590Y-93593208D01*
X63860590Y-93593208D02*
X64003447Y-93593208D01*
X64003447Y-93593208D02*
X64098685Y-93640827D01*
X64098685Y-93640827D02*
X64146304Y-93688446D01*
X64146304Y-93688446D02*
X64193923Y-93783684D01*
X64193923Y-93783684D02*
X64193923Y-94069398D01*
X64193923Y-94069398D02*
X64146304Y-94164636D01*
X64146304Y-94164636D02*
X64098685Y-94212256D01*
X64098685Y-94212256D02*
X64003447Y-94259875D01*
X64003447Y-94259875D02*
X63860590Y-94259875D01*
X65051066Y-94259875D02*
X65051066Y-93259875D01*
X65051066Y-94212256D02*
X64955828Y-94259875D01*
X64955828Y-94259875D02*
X64765352Y-94259875D01*
X64765352Y-94259875D02*
X64670114Y-94212256D01*
X64670114Y-94212256D02*
X64622495Y-94164636D01*
X64622495Y-94164636D02*
X64574876Y-94069398D01*
X64574876Y-94069398D02*
X64574876Y-93783684D01*
X64574876Y-93783684D02*
X64622495Y-93688446D01*
X64622495Y-93688446D02*
X64670114Y-93640827D01*
X64670114Y-93640827D02*
X64765352Y-93593208D01*
X64765352Y-93593208D02*
X64955828Y-93593208D01*
X64955828Y-93593208D02*
X65051066Y-93640827D01*
X65908209Y-94212256D02*
X65812971Y-94259875D01*
X65812971Y-94259875D02*
X65622495Y-94259875D01*
X65622495Y-94259875D02*
X65527257Y-94212256D01*
X65527257Y-94212256D02*
X65479638Y-94117017D01*
X65479638Y-94117017D02*
X65479638Y-93736065D01*
X65479638Y-93736065D02*
X65527257Y-93640827D01*
X65527257Y-93640827D02*
X65622495Y-93593208D01*
X65622495Y-93593208D02*
X65812971Y-93593208D01*
X65812971Y-93593208D02*
X65908209Y-93640827D01*
X65908209Y-93640827D02*
X65955828Y-93736065D01*
X65955828Y-93736065D02*
X65955828Y-93831303D01*
X65955828Y-93831303D02*
X65479638Y-93926541D01*
X67146305Y-94259875D02*
X67146305Y-93593208D01*
X67146305Y-93688446D02*
X67193924Y-93640827D01*
X67193924Y-93640827D02*
X67289162Y-93593208D01*
X67289162Y-93593208D02*
X67432019Y-93593208D01*
X67432019Y-93593208D02*
X67527257Y-93640827D01*
X67527257Y-93640827D02*
X67574876Y-93736065D01*
X67574876Y-93736065D02*
X67574876Y-94259875D01*
X67574876Y-93736065D02*
X67622495Y-93640827D01*
X67622495Y-93640827D02*
X67717733Y-93593208D01*
X67717733Y-93593208D02*
X67860590Y-93593208D01*
X67860590Y-93593208D02*
X67955829Y-93640827D01*
X67955829Y-93640827D02*
X68003448Y-93736065D01*
X68003448Y-93736065D02*
X68003448Y-94259875D01*
X68622495Y-94259875D02*
X68527257Y-94212256D01*
X68527257Y-94212256D02*
X68479638Y-94164636D01*
X68479638Y-94164636D02*
X68432019Y-94069398D01*
X68432019Y-94069398D02*
X68432019Y-93783684D01*
X68432019Y-93783684D02*
X68479638Y-93688446D01*
X68479638Y-93688446D02*
X68527257Y-93640827D01*
X68527257Y-93640827D02*
X68622495Y-93593208D01*
X68622495Y-93593208D02*
X68765352Y-93593208D01*
X68765352Y-93593208D02*
X68860590Y-93640827D01*
X68860590Y-93640827D02*
X68908209Y-93688446D01*
X68908209Y-93688446D02*
X68955828Y-93783684D01*
X68955828Y-93783684D02*
X68955828Y-94069398D01*
X68955828Y-94069398D02*
X68908209Y-94164636D01*
X68908209Y-94164636D02*
X68860590Y-94212256D01*
X68860590Y-94212256D02*
X68765352Y-94259875D01*
X68765352Y-94259875D02*
X68622495Y-94259875D01*
X69812971Y-94259875D02*
X69812971Y-93259875D01*
X69812971Y-94212256D02*
X69717733Y-94259875D01*
X69717733Y-94259875D02*
X69527257Y-94259875D01*
X69527257Y-94259875D02*
X69432019Y-94212256D01*
X69432019Y-94212256D02*
X69384400Y-94164636D01*
X69384400Y-94164636D02*
X69336781Y-94069398D01*
X69336781Y-94069398D02*
X69336781Y-93783684D01*
X69336781Y-93783684D02*
X69384400Y-93688446D01*
X69384400Y-93688446D02*
X69432019Y-93640827D01*
X69432019Y-93640827D02*
X69527257Y-93593208D01*
X69527257Y-93593208D02*
X69717733Y-93593208D01*
X69717733Y-93593208D02*
X69812971Y-93640827D01*
X70670114Y-94212256D02*
X70574876Y-94259875D01*
X70574876Y-94259875D02*
X70384400Y-94259875D01*
X70384400Y-94259875D02*
X70289162Y-94212256D01*
X70289162Y-94212256D02*
X70241543Y-94117017D01*
X70241543Y-94117017D02*
X70241543Y-93736065D01*
X70241543Y-93736065D02*
X70289162Y-93640827D01*
X70289162Y-93640827D02*
X70384400Y-93593208D01*
X70384400Y-93593208D02*
X70574876Y-93593208D01*
X70574876Y-93593208D02*
X70670114Y-93640827D01*
X70670114Y-93640827D02*
X70717733Y-93736065D01*
X70717733Y-93736065D02*
X70717733Y-93831303D01*
X70717733Y-93831303D02*
X70241543Y-93926541D01*
X71193924Y-94212256D02*
X71193924Y-94259875D01*
X71193924Y-94259875D02*
X71146305Y-94355113D01*
X71146305Y-94355113D02*
X71098686Y-94402732D01*
X72384400Y-94259875D02*
X72384400Y-93593208D01*
X72384400Y-93259875D02*
X72336781Y-93307494D01*
X72336781Y-93307494D02*
X72384400Y-93355113D01*
X72384400Y-93355113D02*
X72432019Y-93307494D01*
X72432019Y-93307494D02*
X72384400Y-93259875D01*
X72384400Y-93259875D02*
X72384400Y-93355113D01*
X72860590Y-93593208D02*
X72860590Y-94259875D01*
X72860590Y-93688446D02*
X72908209Y-93640827D01*
X72908209Y-93640827D02*
X73003447Y-93593208D01*
X73003447Y-93593208D02*
X73146304Y-93593208D01*
X73146304Y-93593208D02*
X73241542Y-93640827D01*
X73241542Y-93640827D02*
X73289161Y-93736065D01*
X73289161Y-93736065D02*
X73289161Y-94259875D01*
X73717733Y-94212256D02*
X73812971Y-94259875D01*
X73812971Y-94259875D02*
X74003447Y-94259875D01*
X74003447Y-94259875D02*
X74098685Y-94212256D01*
X74098685Y-94212256D02*
X74146304Y-94117017D01*
X74146304Y-94117017D02*
X74146304Y-94069398D01*
X74146304Y-94069398D02*
X74098685Y-93974160D01*
X74098685Y-93974160D02*
X74003447Y-93926541D01*
X74003447Y-93926541D02*
X73860590Y-93926541D01*
X73860590Y-93926541D02*
X73765352Y-93878922D01*
X73765352Y-93878922D02*
X73717733Y-93783684D01*
X73717733Y-93783684D02*
X73717733Y-93736065D01*
X73717733Y-93736065D02*
X73765352Y-93640827D01*
X73765352Y-93640827D02*
X73860590Y-93593208D01*
X73860590Y-93593208D02*
X74003447Y-93593208D01*
X74003447Y-93593208D02*
X74098685Y-93640827D01*
X74432019Y-93593208D02*
X74812971Y-93593208D01*
X74574876Y-93259875D02*
X74574876Y-94117017D01*
X74574876Y-94117017D02*
X74622495Y-94212256D01*
X74622495Y-94212256D02*
X74717733Y-94259875D01*
X74717733Y-94259875D02*
X74812971Y-94259875D01*
X75574876Y-94259875D02*
X75574876Y-93736065D01*
X75574876Y-93736065D02*
X75527257Y-93640827D01*
X75527257Y-93640827D02*
X75432019Y-93593208D01*
X75432019Y-93593208D02*
X75241543Y-93593208D01*
X75241543Y-93593208D02*
X75146305Y-93640827D01*
X75574876Y-94212256D02*
X75479638Y-94259875D01*
X75479638Y-94259875D02*
X75241543Y-94259875D01*
X75241543Y-94259875D02*
X75146305Y-94212256D01*
X75146305Y-94212256D02*
X75098686Y-94117017D01*
X75098686Y-94117017D02*
X75098686Y-94021779D01*
X75098686Y-94021779D02*
X75146305Y-93926541D01*
X75146305Y-93926541D02*
X75241543Y-93878922D01*
X75241543Y-93878922D02*
X75479638Y-93878922D01*
X75479638Y-93878922D02*
X75574876Y-93831303D01*
X76193924Y-94259875D02*
X76098686Y-94212256D01*
X76098686Y-94212256D02*
X76051067Y-94117017D01*
X76051067Y-94117017D02*
X76051067Y-93259875D01*
X76717734Y-94259875D02*
X76622496Y-94212256D01*
X76622496Y-94212256D02*
X76574877Y-94117017D01*
X76574877Y-94117017D02*
X76574877Y-93259875D01*
X77860592Y-94259875D02*
X77860592Y-93593208D01*
X77860592Y-93783684D02*
X77908211Y-93688446D01*
X77908211Y-93688446D02*
X77955830Y-93640827D01*
X77955830Y-93640827D02*
X78051068Y-93593208D01*
X78051068Y-93593208D02*
X78146306Y-93593208D01*
X78860592Y-94212256D02*
X78765354Y-94259875D01*
X78765354Y-94259875D02*
X78574878Y-94259875D01*
X78574878Y-94259875D02*
X78479640Y-94212256D01*
X78479640Y-94212256D02*
X78432021Y-94117017D01*
X78432021Y-94117017D02*
X78432021Y-93736065D01*
X78432021Y-93736065D02*
X78479640Y-93640827D01*
X78479640Y-93640827D02*
X78574878Y-93593208D01*
X78574878Y-93593208D02*
X78765354Y-93593208D01*
X78765354Y-93593208D02*
X78860592Y-93640827D01*
X78860592Y-93640827D02*
X78908211Y-93736065D01*
X78908211Y-93736065D02*
X78908211Y-93831303D01*
X78908211Y-93831303D02*
X78432021Y-93926541D01*
X79289164Y-94212256D02*
X79384402Y-94259875D01*
X79384402Y-94259875D02*
X79574878Y-94259875D01*
X79574878Y-94259875D02*
X79670116Y-94212256D01*
X79670116Y-94212256D02*
X79717735Y-94117017D01*
X79717735Y-94117017D02*
X79717735Y-94069398D01*
X79717735Y-94069398D02*
X79670116Y-93974160D01*
X79670116Y-93974160D02*
X79574878Y-93926541D01*
X79574878Y-93926541D02*
X79432021Y-93926541D01*
X79432021Y-93926541D02*
X79336783Y-93878922D01*
X79336783Y-93878922D02*
X79289164Y-93783684D01*
X79289164Y-93783684D02*
X79289164Y-93736065D01*
X79289164Y-93736065D02*
X79336783Y-93640827D01*
X79336783Y-93640827D02*
X79432021Y-93593208D01*
X79432021Y-93593208D02*
X79574878Y-93593208D01*
X79574878Y-93593208D02*
X79670116Y-93640827D01*
X80146307Y-94259875D02*
X80146307Y-93593208D01*
X80146307Y-93259875D02*
X80098688Y-93307494D01*
X80098688Y-93307494D02*
X80146307Y-93355113D01*
X80146307Y-93355113D02*
X80193926Y-93307494D01*
X80193926Y-93307494D02*
X80146307Y-93259875D01*
X80146307Y-93259875D02*
X80146307Y-93355113D01*
X80574878Y-94212256D02*
X80670116Y-94259875D01*
X80670116Y-94259875D02*
X80860592Y-94259875D01*
X80860592Y-94259875D02*
X80955830Y-94212256D01*
X80955830Y-94212256D02*
X81003449Y-94117017D01*
X81003449Y-94117017D02*
X81003449Y-94069398D01*
X81003449Y-94069398D02*
X80955830Y-93974160D01*
X80955830Y-93974160D02*
X80860592Y-93926541D01*
X80860592Y-93926541D02*
X80717735Y-93926541D01*
X80717735Y-93926541D02*
X80622497Y-93878922D01*
X80622497Y-93878922D02*
X80574878Y-93783684D01*
X80574878Y-93783684D02*
X80574878Y-93736065D01*
X80574878Y-93736065D02*
X80622497Y-93640827D01*
X80622497Y-93640827D02*
X80717735Y-93593208D01*
X80717735Y-93593208D02*
X80860592Y-93593208D01*
X80860592Y-93593208D02*
X80955830Y-93640827D01*
X81289164Y-93593208D02*
X81670116Y-93593208D01*
X81432021Y-93259875D02*
X81432021Y-94117017D01*
X81432021Y-94117017D02*
X81479640Y-94212256D01*
X81479640Y-94212256D02*
X81574878Y-94259875D01*
X81574878Y-94259875D02*
X81670116Y-94259875D01*
X82146307Y-94259875D02*
X82051069Y-94212256D01*
X82051069Y-94212256D02*
X82003450Y-94164636D01*
X82003450Y-94164636D02*
X81955831Y-94069398D01*
X81955831Y-94069398D02*
X81955831Y-93783684D01*
X81955831Y-93783684D02*
X82003450Y-93688446D01*
X82003450Y-93688446D02*
X82051069Y-93640827D01*
X82051069Y-93640827D02*
X82146307Y-93593208D01*
X82146307Y-93593208D02*
X82289164Y-93593208D01*
X82289164Y-93593208D02*
X82384402Y-93640827D01*
X82384402Y-93640827D02*
X82432021Y-93688446D01*
X82432021Y-93688446D02*
X82479640Y-93783684D01*
X82479640Y-93783684D02*
X82479640Y-94069398D01*
X82479640Y-94069398D02*
X82432021Y-94164636D01*
X82432021Y-94164636D02*
X82384402Y-94212256D01*
X82384402Y-94212256D02*
X82289164Y-94259875D01*
X82289164Y-94259875D02*
X82146307Y-94259875D01*
X82908212Y-94259875D02*
X82908212Y-93593208D01*
X82908212Y-93783684D02*
X82955831Y-93688446D01*
X82955831Y-93688446D02*
X83003450Y-93640827D01*
X83003450Y-93640827D02*
X83098688Y-93593208D01*
X83098688Y-93593208D02*
X83193926Y-93593208D01*
X83479641Y-94212256D02*
X83574879Y-94259875D01*
X83574879Y-94259875D02*
X83765355Y-94259875D01*
X83765355Y-94259875D02*
X83860593Y-94212256D01*
X83860593Y-94212256D02*
X83908212Y-94117017D01*
X83908212Y-94117017D02*
X83908212Y-94069398D01*
X83908212Y-94069398D02*
X83860593Y-93974160D01*
X83860593Y-93974160D02*
X83765355Y-93926541D01*
X83765355Y-93926541D02*
X83622498Y-93926541D01*
X83622498Y-93926541D02*
X83527260Y-93878922D01*
X83527260Y-93878922D02*
X83479641Y-93783684D01*
X83479641Y-93783684D02*
X83479641Y-93736065D01*
X83479641Y-93736065D02*
X83527260Y-93640827D01*
X83527260Y-93640827D02*
X83622498Y-93593208D01*
X83622498Y-93593208D02*
X83765355Y-93593208D01*
X83765355Y-93593208D02*
X83860593Y-93640827D01*
X85670117Y-94259875D02*
X85336784Y-93783684D01*
X85098689Y-94259875D02*
X85098689Y-93259875D01*
X85098689Y-93259875D02*
X85479641Y-93259875D01*
X85479641Y-93259875D02*
X85574879Y-93307494D01*
X85574879Y-93307494D02*
X85622498Y-93355113D01*
X85622498Y-93355113D02*
X85670117Y-93450351D01*
X85670117Y-93450351D02*
X85670117Y-93593208D01*
X85670117Y-93593208D02*
X85622498Y-93688446D01*
X85622498Y-93688446D02*
X85574879Y-93736065D01*
X85574879Y-93736065D02*
X85479641Y-93783684D01*
X85479641Y-93783684D02*
X85098689Y-93783684D01*
X86527260Y-93593208D02*
X86527260Y-94259875D01*
X86289165Y-93212256D02*
X86051070Y-93926541D01*
X86051070Y-93926541D02*
X86670117Y-93926541D01*
X57765350Y-95869819D02*
X57765350Y-95346009D01*
X57765350Y-95346009D02*
X57717731Y-95250771D01*
X57717731Y-95250771D02*
X57622493Y-95203152D01*
X57622493Y-95203152D02*
X57432017Y-95203152D01*
X57432017Y-95203152D02*
X57336779Y-95250771D01*
X57765350Y-95822200D02*
X57670112Y-95869819D01*
X57670112Y-95869819D02*
X57432017Y-95869819D01*
X57432017Y-95869819D02*
X57336779Y-95822200D01*
X57336779Y-95822200D02*
X57289160Y-95726961D01*
X57289160Y-95726961D02*
X57289160Y-95631723D01*
X57289160Y-95631723D02*
X57336779Y-95536485D01*
X57336779Y-95536485D02*
X57432017Y-95488866D01*
X57432017Y-95488866D02*
X57670112Y-95488866D01*
X57670112Y-95488866D02*
X57765350Y-95441247D01*
X58241541Y-95203152D02*
X58241541Y-95869819D01*
X58241541Y-95298390D02*
X58289160Y-95250771D01*
X58289160Y-95250771D02*
X58384398Y-95203152D01*
X58384398Y-95203152D02*
X58527255Y-95203152D01*
X58527255Y-95203152D02*
X58622493Y-95250771D01*
X58622493Y-95250771D02*
X58670112Y-95346009D01*
X58670112Y-95346009D02*
X58670112Y-95869819D01*
X59574874Y-95869819D02*
X59574874Y-94869819D01*
X59574874Y-95822200D02*
X59479636Y-95869819D01*
X59479636Y-95869819D02*
X59289160Y-95869819D01*
X59289160Y-95869819D02*
X59193922Y-95822200D01*
X59193922Y-95822200D02*
X59146303Y-95774580D01*
X59146303Y-95774580D02*
X59098684Y-95679342D01*
X59098684Y-95679342D02*
X59098684Y-95393628D01*
X59098684Y-95393628D02*
X59146303Y-95298390D01*
X59146303Y-95298390D02*
X59193922Y-95250771D01*
X59193922Y-95250771D02*
X59289160Y-95203152D01*
X59289160Y-95203152D02*
X59479636Y-95203152D01*
X59479636Y-95203152D02*
X59574874Y-95250771D01*
X61384398Y-95869819D02*
X61051065Y-95393628D01*
X60812970Y-95869819D02*
X60812970Y-94869819D01*
X60812970Y-94869819D02*
X61193922Y-94869819D01*
X61193922Y-94869819D02*
X61289160Y-94917438D01*
X61289160Y-94917438D02*
X61336779Y-94965057D01*
X61336779Y-94965057D02*
X61384398Y-95060295D01*
X61384398Y-95060295D02*
X61384398Y-95203152D01*
X61384398Y-95203152D02*
X61336779Y-95298390D01*
X61336779Y-95298390D02*
X61289160Y-95346009D01*
X61289160Y-95346009D02*
X61193922Y-95393628D01*
X61193922Y-95393628D02*
X60812970Y-95393628D01*
X62289160Y-94869819D02*
X61812970Y-94869819D01*
X61812970Y-94869819D02*
X61765351Y-95346009D01*
X61765351Y-95346009D02*
X61812970Y-95298390D01*
X61812970Y-95298390D02*
X61908208Y-95250771D01*
X61908208Y-95250771D02*
X62146303Y-95250771D01*
X62146303Y-95250771D02*
X62241541Y-95298390D01*
X62241541Y-95298390D02*
X62289160Y-95346009D01*
X62289160Y-95346009D02*
X62336779Y-95441247D01*
X62336779Y-95441247D02*
X62336779Y-95679342D01*
X62336779Y-95679342D02*
X62289160Y-95774580D01*
X62289160Y-95774580D02*
X62241541Y-95822200D01*
X62241541Y-95822200D02*
X62146303Y-95869819D01*
X62146303Y-95869819D02*
X61908208Y-95869819D01*
X61908208Y-95869819D02*
X61812970Y-95822200D01*
X61812970Y-95822200D02*
X61765351Y-95774580D01*
X62812970Y-95822200D02*
X62812970Y-95869819D01*
X62812970Y-95869819D02*
X62765351Y-95965057D01*
X62765351Y-95965057D02*
X62717732Y-96012676D01*
X64146303Y-95869819D02*
X64051065Y-95822200D01*
X64051065Y-95822200D02*
X64003446Y-95774580D01*
X64003446Y-95774580D02*
X63955827Y-95679342D01*
X63955827Y-95679342D02*
X63955827Y-95393628D01*
X63955827Y-95393628D02*
X64003446Y-95298390D01*
X64003446Y-95298390D02*
X64051065Y-95250771D01*
X64051065Y-95250771D02*
X64146303Y-95203152D01*
X64146303Y-95203152D02*
X64289160Y-95203152D01*
X64289160Y-95203152D02*
X64384398Y-95250771D01*
X64384398Y-95250771D02*
X64432017Y-95298390D01*
X64432017Y-95298390D02*
X64479636Y-95393628D01*
X64479636Y-95393628D02*
X64479636Y-95679342D01*
X64479636Y-95679342D02*
X64432017Y-95774580D01*
X64432017Y-95774580D02*
X64384398Y-95822200D01*
X64384398Y-95822200D02*
X64289160Y-95869819D01*
X64289160Y-95869819D02*
X64146303Y-95869819D01*
X64908208Y-95869819D02*
X64908208Y-95203152D01*
X64908208Y-95393628D02*
X64955827Y-95298390D01*
X64955827Y-95298390D02*
X65003446Y-95250771D01*
X65003446Y-95250771D02*
X65098684Y-95203152D01*
X65098684Y-95203152D02*
X65193922Y-95203152D01*
X66717732Y-95869819D02*
X66717732Y-95346009D01*
X66717732Y-95346009D02*
X66670113Y-95250771D01*
X66670113Y-95250771D02*
X66574875Y-95203152D01*
X66574875Y-95203152D02*
X66384399Y-95203152D01*
X66384399Y-95203152D02*
X66289161Y-95250771D01*
X66717732Y-95822200D02*
X66622494Y-95869819D01*
X66622494Y-95869819D02*
X66384399Y-95869819D01*
X66384399Y-95869819D02*
X66289161Y-95822200D01*
X66289161Y-95822200D02*
X66241542Y-95726961D01*
X66241542Y-95726961D02*
X66241542Y-95631723D01*
X66241542Y-95631723D02*
X66289161Y-95536485D01*
X66289161Y-95536485D02*
X66384399Y-95488866D01*
X66384399Y-95488866D02*
X66622494Y-95488866D01*
X66622494Y-95488866D02*
X66717732Y-95441247D01*
X67955828Y-95203152D02*
X67955828Y-96203152D01*
X67955828Y-95250771D02*
X68051066Y-95203152D01*
X68051066Y-95203152D02*
X68241542Y-95203152D01*
X68241542Y-95203152D02*
X68336780Y-95250771D01*
X68336780Y-95250771D02*
X68384399Y-95298390D01*
X68384399Y-95298390D02*
X68432018Y-95393628D01*
X68432018Y-95393628D02*
X68432018Y-95679342D01*
X68432018Y-95679342D02*
X68384399Y-95774580D01*
X68384399Y-95774580D02*
X68336780Y-95822200D01*
X68336780Y-95822200D02*
X68241542Y-95869819D01*
X68241542Y-95869819D02*
X68051066Y-95869819D01*
X68051066Y-95869819D02*
X67955828Y-95822200D01*
X69003447Y-95869819D02*
X68908209Y-95822200D01*
X68908209Y-95822200D02*
X68860590Y-95774580D01*
X68860590Y-95774580D02*
X68812971Y-95679342D01*
X68812971Y-95679342D02*
X68812971Y-95393628D01*
X68812971Y-95393628D02*
X68860590Y-95298390D01*
X68860590Y-95298390D02*
X68908209Y-95250771D01*
X68908209Y-95250771D02*
X69003447Y-95203152D01*
X69003447Y-95203152D02*
X69146304Y-95203152D01*
X69146304Y-95203152D02*
X69241542Y-95250771D01*
X69241542Y-95250771D02*
X69289161Y-95298390D01*
X69289161Y-95298390D02*
X69336780Y-95393628D01*
X69336780Y-95393628D02*
X69336780Y-95679342D01*
X69336780Y-95679342D02*
X69289161Y-95774580D01*
X69289161Y-95774580D02*
X69241542Y-95822200D01*
X69241542Y-95822200D02*
X69146304Y-95869819D01*
X69146304Y-95869819D02*
X69003447Y-95869819D01*
X69622495Y-95203152D02*
X70003447Y-95203152D01*
X69765352Y-94869819D02*
X69765352Y-95726961D01*
X69765352Y-95726961D02*
X69812971Y-95822200D01*
X69812971Y-95822200D02*
X69908209Y-95869819D01*
X69908209Y-95869819D02*
X70003447Y-95869819D01*
X70717733Y-95822200D02*
X70622495Y-95869819D01*
X70622495Y-95869819D02*
X70432019Y-95869819D01*
X70432019Y-95869819D02*
X70336781Y-95822200D01*
X70336781Y-95822200D02*
X70289162Y-95726961D01*
X70289162Y-95726961D02*
X70289162Y-95346009D01*
X70289162Y-95346009D02*
X70336781Y-95250771D01*
X70336781Y-95250771D02*
X70432019Y-95203152D01*
X70432019Y-95203152D02*
X70622495Y-95203152D01*
X70622495Y-95203152D02*
X70717733Y-95250771D01*
X70717733Y-95250771D02*
X70765352Y-95346009D01*
X70765352Y-95346009D02*
X70765352Y-95441247D01*
X70765352Y-95441247D02*
X70289162Y-95536485D01*
X71193924Y-95203152D02*
X71193924Y-95869819D01*
X71193924Y-95298390D02*
X71241543Y-95250771D01*
X71241543Y-95250771D02*
X71336781Y-95203152D01*
X71336781Y-95203152D02*
X71479638Y-95203152D01*
X71479638Y-95203152D02*
X71574876Y-95250771D01*
X71574876Y-95250771D02*
X71622495Y-95346009D01*
X71622495Y-95346009D02*
X71622495Y-95869819D01*
X71955829Y-95203152D02*
X72336781Y-95203152D01*
X72098686Y-94869819D02*
X72098686Y-95726961D01*
X72098686Y-95726961D02*
X72146305Y-95822200D01*
X72146305Y-95822200D02*
X72241543Y-95869819D01*
X72241543Y-95869819D02*
X72336781Y-95869819D01*
X72670115Y-95869819D02*
X72670115Y-95203152D01*
X72670115Y-94869819D02*
X72622496Y-94917438D01*
X72622496Y-94917438D02*
X72670115Y-94965057D01*
X72670115Y-94965057D02*
X72717734Y-94917438D01*
X72717734Y-94917438D02*
X72670115Y-94869819D01*
X72670115Y-94869819D02*
X72670115Y-94965057D01*
X73289162Y-95869819D02*
X73193924Y-95822200D01*
X73193924Y-95822200D02*
X73146305Y-95774580D01*
X73146305Y-95774580D02*
X73098686Y-95679342D01*
X73098686Y-95679342D02*
X73098686Y-95393628D01*
X73098686Y-95393628D02*
X73146305Y-95298390D01*
X73146305Y-95298390D02*
X73193924Y-95250771D01*
X73193924Y-95250771D02*
X73289162Y-95203152D01*
X73289162Y-95203152D02*
X73432019Y-95203152D01*
X73432019Y-95203152D02*
X73527257Y-95250771D01*
X73527257Y-95250771D02*
X73574876Y-95298390D01*
X73574876Y-95298390D02*
X73622495Y-95393628D01*
X73622495Y-95393628D02*
X73622495Y-95679342D01*
X73622495Y-95679342D02*
X73574876Y-95774580D01*
X73574876Y-95774580D02*
X73527257Y-95822200D01*
X73527257Y-95822200D02*
X73432019Y-95869819D01*
X73432019Y-95869819D02*
X73289162Y-95869819D01*
X74051067Y-95869819D02*
X74051067Y-95203152D01*
X74051067Y-95298390D02*
X74098686Y-95250771D01*
X74098686Y-95250771D02*
X74193924Y-95203152D01*
X74193924Y-95203152D02*
X74336781Y-95203152D01*
X74336781Y-95203152D02*
X74432019Y-95250771D01*
X74432019Y-95250771D02*
X74479638Y-95346009D01*
X74479638Y-95346009D02*
X74479638Y-95869819D01*
X74479638Y-95346009D02*
X74527257Y-95250771D01*
X74527257Y-95250771D02*
X74622495Y-95203152D01*
X74622495Y-95203152D02*
X74765352Y-95203152D01*
X74765352Y-95203152D02*
X74860591Y-95250771D01*
X74860591Y-95250771D02*
X74908210Y-95346009D01*
X74908210Y-95346009D02*
X74908210Y-95869819D01*
X75765352Y-95822200D02*
X75670114Y-95869819D01*
X75670114Y-95869819D02*
X75479638Y-95869819D01*
X75479638Y-95869819D02*
X75384400Y-95822200D01*
X75384400Y-95822200D02*
X75336781Y-95726961D01*
X75336781Y-95726961D02*
X75336781Y-95346009D01*
X75336781Y-95346009D02*
X75384400Y-95250771D01*
X75384400Y-95250771D02*
X75479638Y-95203152D01*
X75479638Y-95203152D02*
X75670114Y-95203152D01*
X75670114Y-95203152D02*
X75765352Y-95250771D01*
X75765352Y-95250771D02*
X75812971Y-95346009D01*
X75812971Y-95346009D02*
X75812971Y-95441247D01*
X75812971Y-95441247D02*
X75336781Y-95536485D01*
X76098686Y-95203152D02*
X76479638Y-95203152D01*
X76241543Y-94869819D02*
X76241543Y-95726961D01*
X76241543Y-95726961D02*
X76289162Y-95822200D01*
X76289162Y-95822200D02*
X76384400Y-95869819D01*
X76384400Y-95869819D02*
X76479638Y-95869819D01*
X77193924Y-95822200D02*
X77098686Y-95869819D01*
X77098686Y-95869819D02*
X76908210Y-95869819D01*
X76908210Y-95869819D02*
X76812972Y-95822200D01*
X76812972Y-95822200D02*
X76765353Y-95726961D01*
X76765353Y-95726961D02*
X76765353Y-95346009D01*
X76765353Y-95346009D02*
X76812972Y-95250771D01*
X76812972Y-95250771D02*
X76908210Y-95203152D01*
X76908210Y-95203152D02*
X77098686Y-95203152D01*
X77098686Y-95203152D02*
X77193924Y-95250771D01*
X77193924Y-95250771D02*
X77241543Y-95346009D01*
X77241543Y-95346009D02*
X77241543Y-95441247D01*
X77241543Y-95441247D02*
X76765353Y-95536485D01*
X77670115Y-95869819D02*
X77670115Y-95203152D01*
X77670115Y-95393628D02*
X77717734Y-95298390D01*
X77717734Y-95298390D02*
X77765353Y-95250771D01*
X77765353Y-95250771D02*
X77860591Y-95203152D01*
X77860591Y-95203152D02*
X77955829Y-95203152D01*
X78289163Y-95774580D02*
X78336782Y-95822200D01*
X78336782Y-95822200D02*
X78289163Y-95869819D01*
X78289163Y-95869819D02*
X78241544Y-95822200D01*
X78241544Y-95822200D02*
X78289163Y-95774580D01*
X78289163Y-95774580D02*
X78289163Y-95869819D01*
D10*
X73155074Y-75872419D02*
X72678884Y-75872419D01*
X72678884Y-75872419D02*
X72631265Y-76348609D01*
X72631265Y-76348609D02*
X72678884Y-76300990D01*
X72678884Y-76300990D02*
X72774122Y-76253371D01*
X72774122Y-76253371D02*
X73012217Y-76253371D01*
X73012217Y-76253371D02*
X73107455Y-76300990D01*
X73107455Y-76300990D02*
X73155074Y-76348609D01*
X73155074Y-76348609D02*
X73202693Y-76443847D01*
X73202693Y-76443847D02*
X73202693Y-76681942D01*
X73202693Y-76681942D02*
X73155074Y-76777180D01*
X73155074Y-76777180D02*
X73107455Y-76824800D01*
X73107455Y-76824800D02*
X73012217Y-76872419D01*
X73012217Y-76872419D02*
X72774122Y-76872419D01*
X72774122Y-76872419D02*
X72678884Y-76824800D01*
X72678884Y-76824800D02*
X72631265Y-76777180D01*
X83457419Y-74214285D02*
X84171704Y-74214285D01*
X84171704Y-74214285D02*
X84314561Y-74261904D01*
X84314561Y-74261904D02*
X84409800Y-74357142D01*
X84409800Y-74357142D02*
X84457419Y-74499999D01*
X84457419Y-74499999D02*
X84457419Y-74595237D01*
X84171704Y-73785713D02*
X84171704Y-73309523D01*
X84457419Y-73880951D02*
X83457419Y-73547618D01*
X83457419Y-73547618D02*
X84457419Y-73214285D01*
X84457419Y-72880951D02*
X83457419Y-72880951D01*
X83457419Y-72880951D02*
X84457419Y-72309523D01*
X84457419Y-72309523D02*
X83457419Y-72309523D01*
X83457419Y-71404761D02*
X83457419Y-71595237D01*
X83457419Y-71595237D02*
X83505038Y-71690475D01*
X83505038Y-71690475D02*
X83552657Y-71738094D01*
X83552657Y-71738094D02*
X83695514Y-71833332D01*
X83695514Y-71833332D02*
X83885990Y-71880951D01*
X83885990Y-71880951D02*
X84266942Y-71880951D01*
X84266942Y-71880951D02*
X84362180Y-71833332D01*
X84362180Y-71833332D02*
X84409800Y-71785713D01*
X84409800Y-71785713D02*
X84457419Y-71690475D01*
X84457419Y-71690475D02*
X84457419Y-71499999D01*
X84457419Y-71499999D02*
X84409800Y-71404761D01*
X84409800Y-71404761D02*
X84362180Y-71357142D01*
X84362180Y-71357142D02*
X84266942Y-71309523D01*
X84266942Y-71309523D02*
X84028847Y-71309523D01*
X84028847Y-71309523D02*
X83933609Y-71357142D01*
X83933609Y-71357142D02*
X83885990Y-71404761D01*
X83885990Y-71404761D02*
X83838371Y-71499999D01*
X83838371Y-71499999D02*
X83838371Y-71690475D01*
X83838371Y-71690475D02*
X83885990Y-71785713D01*
X83885990Y-71785713D02*
X83933609Y-71833332D01*
X83933609Y-71833332D02*
X84028847Y-71880951D01*
X83790752Y-70452380D02*
X84457419Y-70452380D01*
X83409800Y-70690475D02*
X84124085Y-70928570D01*
X84124085Y-70928570D02*
X84124085Y-70309523D01*
X84457419Y-69404761D02*
X84457419Y-69976189D01*
X84457419Y-69690475D02*
X83457419Y-69690475D01*
X83457419Y-69690475D02*
X83600276Y-69785713D01*
X83600276Y-69785713D02*
X83695514Y-69880951D01*
X83695514Y-69880951D02*
X83743133Y-69976189D01*
X83885990Y-68833332D02*
X83838371Y-68928570D01*
X83838371Y-68928570D02*
X83790752Y-68976189D01*
X83790752Y-68976189D02*
X83695514Y-69023808D01*
X83695514Y-69023808D02*
X83647895Y-69023808D01*
X83647895Y-69023808D02*
X83552657Y-68976189D01*
X83552657Y-68976189D02*
X83505038Y-68928570D01*
X83505038Y-68928570D02*
X83457419Y-68833332D01*
X83457419Y-68833332D02*
X83457419Y-68642856D01*
X83457419Y-68642856D02*
X83505038Y-68547618D01*
X83505038Y-68547618D02*
X83552657Y-68499999D01*
X83552657Y-68499999D02*
X83647895Y-68452380D01*
X83647895Y-68452380D02*
X83695514Y-68452380D01*
X83695514Y-68452380D02*
X83790752Y-68499999D01*
X83790752Y-68499999D02*
X83838371Y-68547618D01*
X83838371Y-68547618D02*
X83885990Y-68642856D01*
X83885990Y-68642856D02*
X83885990Y-68833332D01*
X83885990Y-68833332D02*
X83933609Y-68928570D01*
X83933609Y-68928570D02*
X83981228Y-68976189D01*
X83981228Y-68976189D02*
X84076466Y-69023808D01*
X84076466Y-69023808D02*
X84266942Y-69023808D01*
X84266942Y-69023808D02*
X84362180Y-68976189D01*
X84362180Y-68976189D02*
X84409800Y-68928570D01*
X84409800Y-68928570D02*
X84457419Y-68833332D01*
X84457419Y-68833332D02*
X84457419Y-68642856D01*
X84457419Y-68642856D02*
X84409800Y-68547618D01*
X84409800Y-68547618D02*
X84362180Y-68499999D01*
X84362180Y-68499999D02*
X84266942Y-68452380D01*
X84266942Y-68452380D02*
X84076466Y-68452380D01*
X84076466Y-68452380D02*
X83981228Y-68499999D01*
X83981228Y-68499999D02*
X83933609Y-68547618D01*
X83933609Y-68547618D02*
X83885990Y-68642856D01*
X83327693Y-76872419D02*
X82756265Y-76872419D01*
X83041979Y-76872419D02*
X83041979Y-75872419D01*
X83041979Y-75872419D02*
X82946741Y-76015276D01*
X82946741Y-76015276D02*
X82851503Y-76110514D01*
X82851503Y-76110514D02*
X82756265Y-76158133D01*
D11*
X86835771Y-60622616D02*
X86788152Y-60670235D01*
X86788152Y-60670235D02*
X86645295Y-60765473D01*
X86645295Y-60765473D02*
X86550057Y-60813092D01*
X86550057Y-60813092D02*
X86407200Y-60860711D01*
X86407200Y-60860711D02*
X86169104Y-60908330D01*
X86169104Y-60908330D02*
X85978628Y-60908330D01*
X85978628Y-60908330D02*
X85740533Y-60860711D01*
X85740533Y-60860711D02*
X85597676Y-60813092D01*
X85597676Y-60813092D02*
X85502438Y-60765473D01*
X85502438Y-60765473D02*
X85359580Y-60670235D01*
X85359580Y-60670235D02*
X85311961Y-60622616D01*
X86407200Y-59813092D02*
X86454819Y-59908330D01*
X86454819Y-59908330D02*
X86454819Y-60098806D01*
X86454819Y-60098806D02*
X86407200Y-60194044D01*
X86407200Y-60194044D02*
X86359580Y-60241663D01*
X86359580Y-60241663D02*
X86264342Y-60289282D01*
X86264342Y-60289282D02*
X85978628Y-60289282D01*
X85978628Y-60289282D02*
X85883390Y-60241663D01*
X85883390Y-60241663D02*
X85835771Y-60194044D01*
X85835771Y-60194044D02*
X85788152Y-60098806D01*
X85788152Y-60098806D02*
X85788152Y-59908330D01*
X85788152Y-59908330D02*
X85835771Y-59813092D01*
X86835771Y-59479758D02*
X86788152Y-59432139D01*
X86788152Y-59432139D02*
X86645295Y-59336901D01*
X86645295Y-59336901D02*
X86550057Y-59289282D01*
X86550057Y-59289282D02*
X86407200Y-59241663D01*
X86407200Y-59241663D02*
X86169104Y-59194044D01*
X86169104Y-59194044D02*
X85978628Y-59194044D01*
X85978628Y-59194044D02*
X85740533Y-59241663D01*
X85740533Y-59241663D02*
X85597676Y-59289282D01*
X85597676Y-59289282D02*
X85502438Y-59336901D01*
X85502438Y-59336901D02*
X85359580Y-59432139D01*
X85359580Y-59432139D02*
X85311961Y-59479758D01*
X86359580Y-57384520D02*
X86407200Y-57432139D01*
X86407200Y-57432139D02*
X86454819Y-57574996D01*
X86454819Y-57574996D02*
X86454819Y-57670234D01*
X86454819Y-57670234D02*
X86407200Y-57813091D01*
X86407200Y-57813091D02*
X86311961Y-57908329D01*
X86311961Y-57908329D02*
X86216723Y-57955948D01*
X86216723Y-57955948D02*
X86026247Y-58003567D01*
X86026247Y-58003567D02*
X85883390Y-58003567D01*
X85883390Y-58003567D02*
X85692914Y-57955948D01*
X85692914Y-57955948D02*
X85597676Y-57908329D01*
X85597676Y-57908329D02*
X85502438Y-57813091D01*
X85502438Y-57813091D02*
X85454819Y-57670234D01*
X85454819Y-57670234D02*
X85454819Y-57574996D01*
X85454819Y-57574996D02*
X85502438Y-57432139D01*
X85502438Y-57432139D02*
X85550057Y-57384520D01*
X86454819Y-56813091D02*
X86407200Y-56908329D01*
X86407200Y-56908329D02*
X86359580Y-56955948D01*
X86359580Y-56955948D02*
X86264342Y-57003567D01*
X86264342Y-57003567D02*
X85978628Y-57003567D01*
X85978628Y-57003567D02*
X85883390Y-56955948D01*
X85883390Y-56955948D02*
X85835771Y-56908329D01*
X85835771Y-56908329D02*
X85788152Y-56813091D01*
X85788152Y-56813091D02*
X85788152Y-56670234D01*
X85788152Y-56670234D02*
X85835771Y-56574996D01*
X85835771Y-56574996D02*
X85883390Y-56527377D01*
X85883390Y-56527377D02*
X85978628Y-56479758D01*
X85978628Y-56479758D02*
X86264342Y-56479758D01*
X86264342Y-56479758D02*
X86359580Y-56527377D01*
X86359580Y-56527377D02*
X86407200Y-56574996D01*
X86407200Y-56574996D02*
X86454819Y-56670234D01*
X86454819Y-56670234D02*
X86454819Y-56813091D01*
X85788152Y-56051186D02*
X86788152Y-56051186D01*
X85835771Y-56051186D02*
X85788152Y-55955948D01*
X85788152Y-55955948D02*
X85788152Y-55765472D01*
X85788152Y-55765472D02*
X85835771Y-55670234D01*
X85835771Y-55670234D02*
X85883390Y-55622615D01*
X85883390Y-55622615D02*
X85978628Y-55574996D01*
X85978628Y-55574996D02*
X86264342Y-55574996D01*
X86264342Y-55574996D02*
X86359580Y-55622615D01*
X86359580Y-55622615D02*
X86407200Y-55670234D01*
X86407200Y-55670234D02*
X86454819Y-55765472D01*
X86454819Y-55765472D02*
X86454819Y-55955948D01*
X86454819Y-55955948D02*
X86407200Y-56051186D01*
X85788152Y-55241662D02*
X86454819Y-55003567D01*
X85788152Y-54765472D02*
X86454819Y-55003567D01*
X86454819Y-55003567D02*
X86692914Y-55098805D01*
X86692914Y-55098805D02*
X86740533Y-55146424D01*
X86740533Y-55146424D02*
X86788152Y-55241662D01*
X86454819Y-54384519D02*
X85788152Y-54384519D01*
X85978628Y-54384519D02*
X85883390Y-54336900D01*
X85883390Y-54336900D02*
X85835771Y-54289281D01*
X85835771Y-54289281D02*
X85788152Y-54194043D01*
X85788152Y-54194043D02*
X85788152Y-54098805D01*
X86454819Y-53765471D02*
X85788152Y-53765471D01*
X85454819Y-53765471D02*
X85502438Y-53813090D01*
X85502438Y-53813090D02*
X85550057Y-53765471D01*
X85550057Y-53765471D02*
X85502438Y-53717852D01*
X85502438Y-53717852D02*
X85454819Y-53765471D01*
X85454819Y-53765471D02*
X85550057Y-53765471D01*
X85788152Y-52860710D02*
X86597676Y-52860710D01*
X86597676Y-52860710D02*
X86692914Y-52908329D01*
X86692914Y-52908329D02*
X86740533Y-52955948D01*
X86740533Y-52955948D02*
X86788152Y-53051186D01*
X86788152Y-53051186D02*
X86788152Y-53194043D01*
X86788152Y-53194043D02*
X86740533Y-53289281D01*
X86407200Y-52860710D02*
X86454819Y-52955948D01*
X86454819Y-52955948D02*
X86454819Y-53146424D01*
X86454819Y-53146424D02*
X86407200Y-53241662D01*
X86407200Y-53241662D02*
X86359580Y-53289281D01*
X86359580Y-53289281D02*
X86264342Y-53336900D01*
X86264342Y-53336900D02*
X85978628Y-53336900D01*
X85978628Y-53336900D02*
X85883390Y-53289281D01*
X85883390Y-53289281D02*
X85835771Y-53241662D01*
X85835771Y-53241662D02*
X85788152Y-53146424D01*
X85788152Y-53146424D02*
X85788152Y-52955948D01*
X85788152Y-52955948D02*
X85835771Y-52860710D01*
X86454819Y-52384519D02*
X85454819Y-52384519D01*
X86454819Y-51955948D02*
X85931009Y-51955948D01*
X85931009Y-51955948D02*
X85835771Y-52003567D01*
X85835771Y-52003567D02*
X85788152Y-52098805D01*
X85788152Y-52098805D02*
X85788152Y-52241662D01*
X85788152Y-52241662D02*
X85835771Y-52336900D01*
X85835771Y-52336900D02*
X85883390Y-52384519D01*
X85788152Y-51622614D02*
X85788152Y-51241662D01*
X85454819Y-51479757D02*
X86311961Y-51479757D01*
X86311961Y-51479757D02*
X86407200Y-51432138D01*
X86407200Y-51432138D02*
X86454819Y-51336900D01*
X86454819Y-51336900D02*
X86454819Y-51241662D01*
X86407200Y-50194042D02*
X86454819Y-50051185D01*
X86454819Y-50051185D02*
X86454819Y-49813090D01*
X86454819Y-49813090D02*
X86407200Y-49717852D01*
X86407200Y-49717852D02*
X86359580Y-49670233D01*
X86359580Y-49670233D02*
X86264342Y-49622614D01*
X86264342Y-49622614D02*
X86169104Y-49622614D01*
X86169104Y-49622614D02*
X86073866Y-49670233D01*
X86073866Y-49670233D02*
X86026247Y-49717852D01*
X86026247Y-49717852D02*
X85978628Y-49813090D01*
X85978628Y-49813090D02*
X85931009Y-50003566D01*
X85931009Y-50003566D02*
X85883390Y-50098804D01*
X85883390Y-50098804D02*
X85835771Y-50146423D01*
X85835771Y-50146423D02*
X85740533Y-50194042D01*
X85740533Y-50194042D02*
X85645295Y-50194042D01*
X85645295Y-50194042D02*
X85550057Y-50146423D01*
X85550057Y-50146423D02*
X85502438Y-50098804D01*
X85502438Y-50098804D02*
X85454819Y-50003566D01*
X85454819Y-50003566D02*
X85454819Y-49765471D01*
X85454819Y-49765471D02*
X85502438Y-49622614D01*
X85788152Y-49336899D02*
X85788152Y-48955947D01*
X85454819Y-49194042D02*
X86311961Y-49194042D01*
X86311961Y-49194042D02*
X86407200Y-49146423D01*
X86407200Y-49146423D02*
X86454819Y-49051185D01*
X86454819Y-49051185D02*
X86454819Y-48955947D01*
X86454819Y-48479756D02*
X86407200Y-48574994D01*
X86407200Y-48574994D02*
X86359580Y-48622613D01*
X86359580Y-48622613D02*
X86264342Y-48670232D01*
X86264342Y-48670232D02*
X85978628Y-48670232D01*
X85978628Y-48670232D02*
X85883390Y-48622613D01*
X85883390Y-48622613D02*
X85835771Y-48574994D01*
X85835771Y-48574994D02*
X85788152Y-48479756D01*
X85788152Y-48479756D02*
X85788152Y-48336899D01*
X85788152Y-48336899D02*
X85835771Y-48241661D01*
X85835771Y-48241661D02*
X85883390Y-48194042D01*
X85883390Y-48194042D02*
X85978628Y-48146423D01*
X85978628Y-48146423D02*
X86264342Y-48146423D01*
X86264342Y-48146423D02*
X86359580Y-48194042D01*
X86359580Y-48194042D02*
X86407200Y-48241661D01*
X86407200Y-48241661D02*
X86454819Y-48336899D01*
X86454819Y-48336899D02*
X86454819Y-48479756D01*
X86454819Y-47717851D02*
X85788152Y-47717851D01*
X85978628Y-47717851D02*
X85883390Y-47670232D01*
X85883390Y-47670232D02*
X85835771Y-47622613D01*
X85835771Y-47622613D02*
X85788152Y-47527375D01*
X85788152Y-47527375D02*
X85788152Y-47432137D01*
X86407200Y-47146422D02*
X86454819Y-47051184D01*
X86454819Y-47051184D02*
X86454819Y-46860708D01*
X86454819Y-46860708D02*
X86407200Y-46765470D01*
X86407200Y-46765470D02*
X86311961Y-46717851D01*
X86311961Y-46717851D02*
X86264342Y-46717851D01*
X86264342Y-46717851D02*
X86169104Y-46765470D01*
X86169104Y-46765470D02*
X86121485Y-46860708D01*
X86121485Y-46860708D02*
X86121485Y-47003565D01*
X86121485Y-47003565D02*
X86073866Y-47098803D01*
X86073866Y-47098803D02*
X85978628Y-47146422D01*
X85978628Y-47146422D02*
X85931009Y-47146422D01*
X85931009Y-47146422D02*
X85835771Y-47098803D01*
X85835771Y-47098803D02*
X85788152Y-47003565D01*
X85788152Y-47003565D02*
X85788152Y-46860708D01*
X85788152Y-46860708D02*
X85835771Y-46765470D01*
X86454819Y-46289279D02*
X85454819Y-46289279D01*
X86073866Y-46194041D02*
X86454819Y-45908327D01*
X85788152Y-45908327D02*
X86169104Y-46289279D01*
X86407200Y-45098803D02*
X86454819Y-45194041D01*
X86454819Y-45194041D02*
X86454819Y-45384517D01*
X86454819Y-45384517D02*
X86407200Y-45479755D01*
X86407200Y-45479755D02*
X86311961Y-45527374D01*
X86311961Y-45527374D02*
X85931009Y-45527374D01*
X85931009Y-45527374D02*
X85835771Y-45479755D01*
X85835771Y-45479755D02*
X85788152Y-45384517D01*
X85788152Y-45384517D02*
X85788152Y-45194041D01*
X85788152Y-45194041D02*
X85835771Y-45098803D01*
X85835771Y-45098803D02*
X85931009Y-45051184D01*
X85931009Y-45051184D02*
X86026247Y-45051184D01*
X86026247Y-45051184D02*
X86121485Y-45527374D01*
X85788152Y-44194041D02*
X86597676Y-44194041D01*
X86597676Y-44194041D02*
X86692914Y-44241660D01*
X86692914Y-44241660D02*
X86740533Y-44289279D01*
X86740533Y-44289279D02*
X86788152Y-44384517D01*
X86788152Y-44384517D02*
X86788152Y-44527374D01*
X86788152Y-44527374D02*
X86740533Y-44622612D01*
X86407200Y-44194041D02*
X86454819Y-44289279D01*
X86454819Y-44289279D02*
X86454819Y-44479755D01*
X86454819Y-44479755D02*
X86407200Y-44574993D01*
X86407200Y-44574993D02*
X86359580Y-44622612D01*
X86359580Y-44622612D02*
X86264342Y-44670231D01*
X86264342Y-44670231D02*
X85978628Y-44670231D01*
X85978628Y-44670231D02*
X85883390Y-44622612D01*
X85883390Y-44622612D02*
X85835771Y-44574993D01*
X85835771Y-44574993D02*
X85788152Y-44479755D01*
X85788152Y-44479755D02*
X85788152Y-44289279D01*
X85788152Y-44289279D02*
X85835771Y-44194041D01*
X85788152Y-43289279D02*
X86597676Y-43289279D01*
X86597676Y-43289279D02*
X86692914Y-43336898D01*
X86692914Y-43336898D02*
X86740533Y-43384517D01*
X86740533Y-43384517D02*
X86788152Y-43479755D01*
X86788152Y-43479755D02*
X86788152Y-43622612D01*
X86788152Y-43622612D02*
X86740533Y-43717850D01*
X86407200Y-43289279D02*
X86454819Y-43384517D01*
X86454819Y-43384517D02*
X86454819Y-43574993D01*
X86454819Y-43574993D02*
X86407200Y-43670231D01*
X86407200Y-43670231D02*
X86359580Y-43717850D01*
X86359580Y-43717850D02*
X86264342Y-43765469D01*
X86264342Y-43765469D02*
X85978628Y-43765469D01*
X85978628Y-43765469D02*
X85883390Y-43717850D01*
X85883390Y-43717850D02*
X85835771Y-43670231D01*
X85835771Y-43670231D02*
X85788152Y-43574993D01*
X85788152Y-43574993D02*
X85788152Y-43384517D01*
X85788152Y-43384517D02*
X85835771Y-43289279D01*
X57336779Y-37626121D02*
X57670112Y-37626121D01*
X57812969Y-38149931D02*
X57336779Y-38149931D01*
X57336779Y-38149931D02*
X57336779Y-37149931D01*
X57336779Y-37149931D02*
X57812969Y-37149931D01*
X58241541Y-38149931D02*
X58241541Y-37483264D01*
X58241541Y-37149931D02*
X58193922Y-37197550D01*
X58193922Y-37197550D02*
X58241541Y-37245169D01*
X58241541Y-37245169D02*
X58289160Y-37197550D01*
X58289160Y-37197550D02*
X58241541Y-37149931D01*
X58241541Y-37149931D02*
X58241541Y-37245169D01*
X58574874Y-37483264D02*
X58955826Y-37483264D01*
X58717731Y-37149931D02*
X58717731Y-38007073D01*
X58717731Y-38007073D02*
X58765350Y-38102312D01*
X58765350Y-38102312D02*
X58860588Y-38149931D01*
X58860588Y-38149931D02*
X58955826Y-38149931D01*
X59289160Y-38149931D02*
X59289160Y-37149931D01*
X59717731Y-38149931D02*
X59717731Y-37626121D01*
X59717731Y-37626121D02*
X59670112Y-37530883D01*
X59670112Y-37530883D02*
X59574874Y-37483264D01*
X59574874Y-37483264D02*
X59432017Y-37483264D01*
X59432017Y-37483264D02*
X59336779Y-37530883D01*
X59336779Y-37530883D02*
X59289160Y-37578502D01*
X60574874Y-38102312D02*
X60479636Y-38149931D01*
X60479636Y-38149931D02*
X60289160Y-38149931D01*
X60289160Y-38149931D02*
X60193922Y-38102312D01*
X60193922Y-38102312D02*
X60146303Y-38007073D01*
X60146303Y-38007073D02*
X60146303Y-37626121D01*
X60146303Y-37626121D02*
X60193922Y-37530883D01*
X60193922Y-37530883D02*
X60289160Y-37483264D01*
X60289160Y-37483264D02*
X60479636Y-37483264D01*
X60479636Y-37483264D02*
X60574874Y-37530883D01*
X60574874Y-37530883D02*
X60622493Y-37626121D01*
X60622493Y-37626121D02*
X60622493Y-37721359D01*
X60622493Y-37721359D02*
X60146303Y-37816597D01*
X61051065Y-38149931D02*
X61051065Y-37483264D01*
X61051065Y-37673740D02*
X61098684Y-37578502D01*
X61098684Y-37578502D02*
X61146303Y-37530883D01*
X61146303Y-37530883D02*
X61241541Y-37483264D01*
X61241541Y-37483264D02*
X61336779Y-37483264D01*
X62860589Y-38149931D02*
X62860589Y-37149931D01*
X62860589Y-38102312D02*
X62765351Y-38149931D01*
X62765351Y-38149931D02*
X62574875Y-38149931D01*
X62574875Y-38149931D02*
X62479637Y-38102312D01*
X62479637Y-38102312D02*
X62432018Y-38054692D01*
X62432018Y-38054692D02*
X62384399Y-37959454D01*
X62384399Y-37959454D02*
X62384399Y-37673740D01*
X62384399Y-37673740D02*
X62432018Y-37578502D01*
X62432018Y-37578502D02*
X62479637Y-37530883D01*
X62479637Y-37530883D02*
X62574875Y-37483264D01*
X62574875Y-37483264D02*
X62765351Y-37483264D01*
X62765351Y-37483264D02*
X62860589Y-37530883D01*
X63336780Y-38149931D02*
X63336780Y-37483264D01*
X63336780Y-37673740D02*
X63384399Y-37578502D01*
X63384399Y-37578502D02*
X63432018Y-37530883D01*
X63432018Y-37530883D02*
X63527256Y-37483264D01*
X63527256Y-37483264D02*
X63622494Y-37483264D01*
X64098685Y-38149931D02*
X64003447Y-38102312D01*
X64003447Y-38102312D02*
X63955828Y-38054692D01*
X63955828Y-38054692D02*
X63908209Y-37959454D01*
X63908209Y-37959454D02*
X63908209Y-37673740D01*
X63908209Y-37673740D02*
X63955828Y-37578502D01*
X63955828Y-37578502D02*
X64003447Y-37530883D01*
X64003447Y-37530883D02*
X64098685Y-37483264D01*
X64098685Y-37483264D02*
X64241542Y-37483264D01*
X64241542Y-37483264D02*
X64336780Y-37530883D01*
X64336780Y-37530883D02*
X64384399Y-37578502D01*
X64384399Y-37578502D02*
X64432018Y-37673740D01*
X64432018Y-37673740D02*
X64432018Y-37959454D01*
X64432018Y-37959454D02*
X64384399Y-38054692D01*
X64384399Y-38054692D02*
X64336780Y-38102312D01*
X64336780Y-38102312D02*
X64241542Y-38149931D01*
X64241542Y-38149931D02*
X64098685Y-38149931D01*
X64860590Y-37483264D02*
X64860590Y-38483264D01*
X64860590Y-37530883D02*
X64955828Y-37483264D01*
X64955828Y-37483264D02*
X65146304Y-37483264D01*
X65146304Y-37483264D02*
X65241542Y-37530883D01*
X65241542Y-37530883D02*
X65289161Y-37578502D01*
X65289161Y-37578502D02*
X65336780Y-37673740D01*
X65336780Y-37673740D02*
X65336780Y-37959454D01*
X65336780Y-37959454D02*
X65289161Y-38054692D01*
X65289161Y-38054692D02*
X65241542Y-38102312D01*
X65241542Y-38102312D02*
X65146304Y-38149931D01*
X65146304Y-38149931D02*
X64955828Y-38149931D01*
X64955828Y-38149931D02*
X64860590Y-38102312D01*
X66432019Y-37483264D02*
X66670114Y-38149931D01*
X66670114Y-38149931D02*
X66908209Y-37483264D01*
X67432019Y-38149931D02*
X67336781Y-38102312D01*
X67336781Y-38102312D02*
X67289162Y-38054692D01*
X67289162Y-38054692D02*
X67241543Y-37959454D01*
X67241543Y-37959454D02*
X67241543Y-37673740D01*
X67241543Y-37673740D02*
X67289162Y-37578502D01*
X67289162Y-37578502D02*
X67336781Y-37530883D01*
X67336781Y-37530883D02*
X67432019Y-37483264D01*
X67432019Y-37483264D02*
X67574876Y-37483264D01*
X67574876Y-37483264D02*
X67670114Y-37530883D01*
X67670114Y-37530883D02*
X67717733Y-37578502D01*
X67717733Y-37578502D02*
X67765352Y-37673740D01*
X67765352Y-37673740D02*
X67765352Y-37959454D01*
X67765352Y-37959454D02*
X67717733Y-38054692D01*
X67717733Y-38054692D02*
X67670114Y-38102312D01*
X67670114Y-38102312D02*
X67574876Y-38149931D01*
X67574876Y-38149931D02*
X67432019Y-38149931D01*
X68336781Y-38149931D02*
X68241543Y-38102312D01*
X68241543Y-38102312D02*
X68193924Y-38007073D01*
X68193924Y-38007073D02*
X68193924Y-37149931D01*
X68574877Y-37483264D02*
X68955829Y-37483264D01*
X68717734Y-37149931D02*
X68717734Y-38007073D01*
X68717734Y-38007073D02*
X68765353Y-38102312D01*
X68765353Y-38102312D02*
X68860591Y-38149931D01*
X68860591Y-38149931D02*
X68955829Y-38149931D01*
X69717734Y-38149931D02*
X69717734Y-37626121D01*
X69717734Y-37626121D02*
X69670115Y-37530883D01*
X69670115Y-37530883D02*
X69574877Y-37483264D01*
X69574877Y-37483264D02*
X69384401Y-37483264D01*
X69384401Y-37483264D02*
X69289163Y-37530883D01*
X69717734Y-38102312D02*
X69622496Y-38149931D01*
X69622496Y-38149931D02*
X69384401Y-38149931D01*
X69384401Y-38149931D02*
X69289163Y-38102312D01*
X69289163Y-38102312D02*
X69241544Y-38007073D01*
X69241544Y-38007073D02*
X69241544Y-37911835D01*
X69241544Y-37911835D02*
X69289163Y-37816597D01*
X69289163Y-37816597D02*
X69384401Y-37768978D01*
X69384401Y-37768978D02*
X69622496Y-37768978D01*
X69622496Y-37768978D02*
X69717734Y-37721359D01*
X70622496Y-37483264D02*
X70622496Y-38292788D01*
X70622496Y-38292788D02*
X70574877Y-38388026D01*
X70574877Y-38388026D02*
X70527258Y-38435645D01*
X70527258Y-38435645D02*
X70432020Y-38483264D01*
X70432020Y-38483264D02*
X70289163Y-38483264D01*
X70289163Y-38483264D02*
X70193925Y-38435645D01*
X70622496Y-38102312D02*
X70527258Y-38149931D01*
X70527258Y-38149931D02*
X70336782Y-38149931D01*
X70336782Y-38149931D02*
X70241544Y-38102312D01*
X70241544Y-38102312D02*
X70193925Y-38054692D01*
X70193925Y-38054692D02*
X70146306Y-37959454D01*
X70146306Y-37959454D02*
X70146306Y-37673740D01*
X70146306Y-37673740D02*
X70193925Y-37578502D01*
X70193925Y-37578502D02*
X70241544Y-37530883D01*
X70241544Y-37530883D02*
X70336782Y-37483264D01*
X70336782Y-37483264D02*
X70527258Y-37483264D01*
X70527258Y-37483264D02*
X70622496Y-37530883D01*
X71479639Y-38102312D02*
X71384401Y-38149931D01*
X71384401Y-38149931D02*
X71193925Y-38149931D01*
X71193925Y-38149931D02*
X71098687Y-38102312D01*
X71098687Y-38102312D02*
X71051068Y-38007073D01*
X71051068Y-38007073D02*
X71051068Y-37626121D01*
X71051068Y-37626121D02*
X71098687Y-37530883D01*
X71098687Y-37530883D02*
X71193925Y-37483264D01*
X71193925Y-37483264D02*
X71384401Y-37483264D01*
X71384401Y-37483264D02*
X71479639Y-37530883D01*
X71479639Y-37530883D02*
X71527258Y-37626121D01*
X71527258Y-37626121D02*
X71527258Y-37721359D01*
X71527258Y-37721359D02*
X71051068Y-37816597D01*
X72622497Y-37483264D02*
X72812973Y-38149931D01*
X72812973Y-38149931D02*
X73003449Y-37673740D01*
X73003449Y-37673740D02*
X73193925Y-38149931D01*
X73193925Y-38149931D02*
X73384401Y-37483264D01*
X73765354Y-38149931D02*
X73765354Y-37483264D01*
X73765354Y-37149931D02*
X73717735Y-37197550D01*
X73717735Y-37197550D02*
X73765354Y-37245169D01*
X73765354Y-37245169D02*
X73812973Y-37197550D01*
X73812973Y-37197550D02*
X73765354Y-37149931D01*
X73765354Y-37149931D02*
X73765354Y-37245169D01*
X74098687Y-37483264D02*
X74479639Y-37483264D01*
X74241544Y-37149931D02*
X74241544Y-38007073D01*
X74241544Y-38007073D02*
X74289163Y-38102312D01*
X74289163Y-38102312D02*
X74384401Y-38149931D01*
X74384401Y-38149931D02*
X74479639Y-38149931D01*
X74812973Y-38149931D02*
X74812973Y-37149931D01*
X75241544Y-38149931D02*
X75241544Y-37626121D01*
X75241544Y-37626121D02*
X75193925Y-37530883D01*
X75193925Y-37530883D02*
X75098687Y-37483264D01*
X75098687Y-37483264D02*
X74955830Y-37483264D01*
X74955830Y-37483264D02*
X74860592Y-37530883D01*
X74860592Y-37530883D02*
X74812973Y-37578502D01*
X77051068Y-38149931D02*
X76717735Y-37673740D01*
X76479640Y-38149931D02*
X76479640Y-37149931D01*
X76479640Y-37149931D02*
X76860592Y-37149931D01*
X76860592Y-37149931D02*
X76955830Y-37197550D01*
X76955830Y-37197550D02*
X77003449Y-37245169D01*
X77003449Y-37245169D02*
X77051068Y-37340407D01*
X77051068Y-37340407D02*
X77051068Y-37483264D01*
X77051068Y-37483264D02*
X77003449Y-37578502D01*
X77003449Y-37578502D02*
X76955830Y-37626121D01*
X76955830Y-37626121D02*
X76860592Y-37673740D01*
X76860592Y-37673740D02*
X76479640Y-37673740D01*
X78003449Y-38149931D02*
X77432021Y-38149931D01*
X77717735Y-38149931D02*
X77717735Y-37149931D01*
X77717735Y-37149931D02*
X77622497Y-37292788D01*
X77622497Y-37292788D02*
X77527259Y-37388026D01*
X77527259Y-37388026D02*
X77432021Y-37435645D01*
X57765350Y-39759875D02*
X57765350Y-39236065D01*
X57765350Y-39236065D02*
X57717731Y-39140827D01*
X57717731Y-39140827D02*
X57622493Y-39093208D01*
X57622493Y-39093208D02*
X57432017Y-39093208D01*
X57432017Y-39093208D02*
X57336779Y-39140827D01*
X57765350Y-39712256D02*
X57670112Y-39759875D01*
X57670112Y-39759875D02*
X57432017Y-39759875D01*
X57432017Y-39759875D02*
X57336779Y-39712256D01*
X57336779Y-39712256D02*
X57289160Y-39617017D01*
X57289160Y-39617017D02*
X57289160Y-39521779D01*
X57289160Y-39521779D02*
X57336779Y-39426541D01*
X57336779Y-39426541D02*
X57432017Y-39378922D01*
X57432017Y-39378922D02*
X57670112Y-39378922D01*
X57670112Y-39378922D02*
X57765350Y-39331303D01*
X58241541Y-39093208D02*
X58241541Y-39759875D01*
X58241541Y-39188446D02*
X58289160Y-39140827D01*
X58289160Y-39140827D02*
X58384398Y-39093208D01*
X58384398Y-39093208D02*
X58527255Y-39093208D01*
X58527255Y-39093208D02*
X58622493Y-39140827D01*
X58622493Y-39140827D02*
X58670112Y-39236065D01*
X58670112Y-39236065D02*
X58670112Y-39759875D01*
X59574874Y-39759875D02*
X59574874Y-38759875D01*
X59574874Y-39712256D02*
X59479636Y-39759875D01*
X59479636Y-39759875D02*
X59289160Y-39759875D01*
X59289160Y-39759875D02*
X59193922Y-39712256D01*
X59193922Y-39712256D02*
X59146303Y-39664636D01*
X59146303Y-39664636D02*
X59098684Y-39569398D01*
X59098684Y-39569398D02*
X59098684Y-39283684D01*
X59098684Y-39283684D02*
X59146303Y-39188446D01*
X59146303Y-39188446D02*
X59193922Y-39140827D01*
X59193922Y-39140827D02*
X59289160Y-39093208D01*
X59289160Y-39093208D02*
X59479636Y-39093208D01*
X59479636Y-39093208D02*
X59574874Y-39140827D01*
X61384398Y-39759875D02*
X61051065Y-39283684D01*
X60812970Y-39759875D02*
X60812970Y-38759875D01*
X60812970Y-38759875D02*
X61193922Y-38759875D01*
X61193922Y-38759875D02*
X61289160Y-38807494D01*
X61289160Y-38807494D02*
X61336779Y-38855113D01*
X61336779Y-38855113D02*
X61384398Y-38950351D01*
X61384398Y-38950351D02*
X61384398Y-39093208D01*
X61384398Y-39093208D02*
X61336779Y-39188446D01*
X61336779Y-39188446D02*
X61289160Y-39236065D01*
X61289160Y-39236065D02*
X61193922Y-39283684D01*
X61193922Y-39283684D02*
X60812970Y-39283684D01*
X61765351Y-38855113D02*
X61812970Y-38807494D01*
X61812970Y-38807494D02*
X61908208Y-38759875D01*
X61908208Y-38759875D02*
X62146303Y-38759875D01*
X62146303Y-38759875D02*
X62241541Y-38807494D01*
X62241541Y-38807494D02*
X62289160Y-38855113D01*
X62289160Y-38855113D02*
X62336779Y-38950351D01*
X62336779Y-38950351D02*
X62336779Y-39045589D01*
X62336779Y-39045589D02*
X62289160Y-39188446D01*
X62289160Y-39188446D02*
X61717732Y-39759875D01*
X61717732Y-39759875D02*
X62336779Y-39759875D01*
X62812970Y-39712256D02*
X62812970Y-39759875D01*
X62812970Y-39759875D02*
X62765351Y-39855113D01*
X62765351Y-39855113D02*
X62717732Y-39902732D01*
X64193922Y-38759875D02*
X64384398Y-38759875D01*
X64384398Y-38759875D02*
X64479636Y-38807494D01*
X64479636Y-38807494D02*
X64574874Y-38902732D01*
X64574874Y-38902732D02*
X64622493Y-39093208D01*
X64622493Y-39093208D02*
X64622493Y-39426541D01*
X64622493Y-39426541D02*
X64574874Y-39617017D01*
X64574874Y-39617017D02*
X64479636Y-39712256D01*
X64479636Y-39712256D02*
X64384398Y-39759875D01*
X64384398Y-39759875D02*
X64193922Y-39759875D01*
X64193922Y-39759875D02*
X64098684Y-39712256D01*
X64098684Y-39712256D02*
X64003446Y-39617017D01*
X64003446Y-39617017D02*
X63955827Y-39426541D01*
X63955827Y-39426541D02*
X63955827Y-39093208D01*
X63955827Y-39093208D02*
X64003446Y-38902732D01*
X64003446Y-38902732D02*
X64098684Y-38807494D01*
X64098684Y-38807494D02*
X64193922Y-38759875D01*
X65622493Y-39759875D02*
X65289160Y-39283684D01*
X65051065Y-39759875D02*
X65051065Y-38759875D01*
X65051065Y-38759875D02*
X65432017Y-38759875D01*
X65432017Y-38759875D02*
X65527255Y-38807494D01*
X65527255Y-38807494D02*
X65574874Y-38855113D01*
X65574874Y-38855113D02*
X65622493Y-38950351D01*
X65622493Y-38950351D02*
X65622493Y-39093208D01*
X65622493Y-39093208D02*
X65574874Y-39188446D01*
X65574874Y-39188446D02*
X65527255Y-39236065D01*
X65527255Y-39236065D02*
X65432017Y-39283684D01*
X65432017Y-39283684D02*
X65051065Y-39283684D01*
X67241541Y-39093208D02*
X67241541Y-39759875D01*
X66812970Y-39093208D02*
X66812970Y-39617017D01*
X66812970Y-39617017D02*
X66860589Y-39712256D01*
X66860589Y-39712256D02*
X66955827Y-39759875D01*
X66955827Y-39759875D02*
X67098684Y-39759875D01*
X67098684Y-39759875D02*
X67193922Y-39712256D01*
X67193922Y-39712256D02*
X67241541Y-39664636D01*
X67670113Y-39712256D02*
X67765351Y-39759875D01*
X67765351Y-39759875D02*
X67955827Y-39759875D01*
X67955827Y-39759875D02*
X68051065Y-39712256D01*
X68051065Y-39712256D02*
X68098684Y-39617017D01*
X68098684Y-39617017D02*
X68098684Y-39569398D01*
X68098684Y-39569398D02*
X68051065Y-39474160D01*
X68051065Y-39474160D02*
X67955827Y-39426541D01*
X67955827Y-39426541D02*
X67812970Y-39426541D01*
X67812970Y-39426541D02*
X67717732Y-39378922D01*
X67717732Y-39378922D02*
X67670113Y-39283684D01*
X67670113Y-39283684D02*
X67670113Y-39236065D01*
X67670113Y-39236065D02*
X67717732Y-39140827D01*
X67717732Y-39140827D02*
X67812970Y-39093208D01*
X67812970Y-39093208D02*
X67955827Y-39093208D01*
X67955827Y-39093208D02*
X68051065Y-39140827D01*
X68908208Y-39712256D02*
X68812970Y-39759875D01*
X68812970Y-39759875D02*
X68622494Y-39759875D01*
X68622494Y-39759875D02*
X68527256Y-39712256D01*
X68527256Y-39712256D02*
X68479637Y-39617017D01*
X68479637Y-39617017D02*
X68479637Y-39236065D01*
X68479637Y-39236065D02*
X68527256Y-39140827D01*
X68527256Y-39140827D02*
X68622494Y-39093208D01*
X68622494Y-39093208D02*
X68812970Y-39093208D01*
X68812970Y-39093208D02*
X68908208Y-39140827D01*
X68908208Y-39140827D02*
X68955827Y-39236065D01*
X68955827Y-39236065D02*
X68955827Y-39331303D01*
X68955827Y-39331303D02*
X68479637Y-39426541D01*
X70622494Y-39759875D02*
X70146304Y-39759875D01*
X70146304Y-39759875D02*
X70146304Y-38759875D01*
X70955828Y-39759875D02*
X70955828Y-38759875D01*
X70955828Y-38759875D02*
X71289161Y-39474160D01*
X71289161Y-39474160D02*
X71622494Y-38759875D01*
X71622494Y-38759875D02*
X71622494Y-39759875D01*
X72003447Y-38759875D02*
X72622494Y-38759875D01*
X72622494Y-38759875D02*
X72289161Y-39140827D01*
X72289161Y-39140827D02*
X72432018Y-39140827D01*
X72432018Y-39140827D02*
X72527256Y-39188446D01*
X72527256Y-39188446D02*
X72574875Y-39236065D01*
X72574875Y-39236065D02*
X72622494Y-39331303D01*
X72622494Y-39331303D02*
X72622494Y-39569398D01*
X72622494Y-39569398D02*
X72574875Y-39664636D01*
X72574875Y-39664636D02*
X72527256Y-39712256D01*
X72527256Y-39712256D02*
X72432018Y-39759875D01*
X72432018Y-39759875D02*
X72146304Y-39759875D01*
X72146304Y-39759875D02*
X72051066Y-39712256D01*
X72051066Y-39712256D02*
X72003447Y-39664636D01*
X73574875Y-39759875D02*
X73003447Y-39759875D01*
X73289161Y-39759875D02*
X73289161Y-38759875D01*
X73289161Y-38759875D02*
X73193923Y-38902732D01*
X73193923Y-38902732D02*
X73098685Y-38997970D01*
X73098685Y-38997970D02*
X73003447Y-39045589D01*
X73908209Y-38759875D02*
X74574875Y-38759875D01*
X74574875Y-38759875D02*
X74146304Y-39759875D01*
X75432018Y-39759875D02*
X74955828Y-39759875D01*
X74955828Y-39759875D02*
X74955828Y-38759875D01*
X76432019Y-39093208D02*
X76622495Y-39759875D01*
X76622495Y-39759875D02*
X76812971Y-39283684D01*
X76812971Y-39283684D02*
X77003447Y-39759875D01*
X77003447Y-39759875D02*
X77193923Y-39093208D01*
X77574876Y-39759875D02*
X77574876Y-39093208D01*
X77574876Y-38759875D02*
X77527257Y-38807494D01*
X77527257Y-38807494D02*
X77574876Y-38855113D01*
X77574876Y-38855113D02*
X77622495Y-38807494D01*
X77622495Y-38807494D02*
X77574876Y-38759875D01*
X77574876Y-38759875D02*
X77574876Y-38855113D01*
X77908209Y-39093208D02*
X78289161Y-39093208D01*
X78051066Y-38759875D02*
X78051066Y-39617017D01*
X78051066Y-39617017D02*
X78098685Y-39712256D01*
X78098685Y-39712256D02*
X78193923Y-39759875D01*
X78193923Y-39759875D02*
X78289161Y-39759875D01*
X78622495Y-39759875D02*
X78622495Y-38759875D01*
X79051066Y-39759875D02*
X79051066Y-39236065D01*
X79051066Y-39236065D02*
X79003447Y-39140827D01*
X79003447Y-39140827D02*
X78908209Y-39093208D01*
X78908209Y-39093208D02*
X78765352Y-39093208D01*
X78765352Y-39093208D02*
X78670114Y-39140827D01*
X78670114Y-39140827D02*
X78622495Y-39188446D01*
X57908207Y-41369819D02*
X57574874Y-40893628D01*
X57336779Y-41369819D02*
X57336779Y-40369819D01*
X57336779Y-40369819D02*
X57717731Y-40369819D01*
X57717731Y-40369819D02*
X57812969Y-40417438D01*
X57812969Y-40417438D02*
X57860588Y-40465057D01*
X57860588Y-40465057D02*
X57908207Y-40560295D01*
X57908207Y-40560295D02*
X57908207Y-40703152D01*
X57908207Y-40703152D02*
X57860588Y-40798390D01*
X57860588Y-40798390D02*
X57812969Y-40846009D01*
X57812969Y-40846009D02*
X57717731Y-40893628D01*
X57717731Y-40893628D02*
X57336779Y-40893628D01*
X58241541Y-40369819D02*
X58908207Y-40369819D01*
X58908207Y-40369819D02*
X58479636Y-41369819D01*
X60479636Y-41369819D02*
X60479636Y-40846009D01*
X60479636Y-40846009D02*
X60432017Y-40750771D01*
X60432017Y-40750771D02*
X60336779Y-40703152D01*
X60336779Y-40703152D02*
X60146303Y-40703152D01*
X60146303Y-40703152D02*
X60051065Y-40750771D01*
X60479636Y-41322200D02*
X60384398Y-41369819D01*
X60384398Y-41369819D02*
X60146303Y-41369819D01*
X60146303Y-41369819D02*
X60051065Y-41322200D01*
X60051065Y-41322200D02*
X60003446Y-41226961D01*
X60003446Y-41226961D02*
X60003446Y-41131723D01*
X60003446Y-41131723D02*
X60051065Y-41036485D01*
X60051065Y-41036485D02*
X60146303Y-40988866D01*
X60146303Y-40988866D02*
X60384398Y-40988866D01*
X60384398Y-40988866D02*
X60479636Y-40941247D01*
X60955827Y-40703152D02*
X60955827Y-41369819D01*
X60955827Y-40798390D02*
X61003446Y-40750771D01*
X61003446Y-40750771D02*
X61098684Y-40703152D01*
X61098684Y-40703152D02*
X61241541Y-40703152D01*
X61241541Y-40703152D02*
X61336779Y-40750771D01*
X61336779Y-40750771D02*
X61384398Y-40846009D01*
X61384398Y-40846009D02*
X61384398Y-41369819D01*
X62289160Y-41369819D02*
X62289160Y-40369819D01*
X62289160Y-41322200D02*
X62193922Y-41369819D01*
X62193922Y-41369819D02*
X62003446Y-41369819D01*
X62003446Y-41369819D02*
X61908208Y-41322200D01*
X61908208Y-41322200D02*
X61860589Y-41274580D01*
X61860589Y-41274580D02*
X61812970Y-41179342D01*
X61812970Y-41179342D02*
X61812970Y-40893628D01*
X61812970Y-40893628D02*
X61860589Y-40798390D01*
X61860589Y-40798390D02*
X61908208Y-40750771D01*
X61908208Y-40750771D02*
X62003446Y-40703152D01*
X62003446Y-40703152D02*
X62193922Y-40703152D01*
X62193922Y-40703152D02*
X62289160Y-40750771D01*
X63812970Y-41750771D02*
X63765351Y-41703152D01*
X63765351Y-41703152D02*
X63670113Y-41560295D01*
X63670113Y-41560295D02*
X63622494Y-41465057D01*
X63622494Y-41465057D02*
X63574875Y-41322200D01*
X63574875Y-41322200D02*
X63527256Y-41084104D01*
X63527256Y-41084104D02*
X63527256Y-40893628D01*
X63527256Y-40893628D02*
X63574875Y-40655533D01*
X63574875Y-40655533D02*
X63622494Y-40512676D01*
X63622494Y-40512676D02*
X63670113Y-40417438D01*
X63670113Y-40417438D02*
X63765351Y-40274580D01*
X63765351Y-40274580D02*
X63812970Y-40226961D01*
X64336780Y-41369819D02*
X64241542Y-41322200D01*
X64241542Y-41322200D02*
X64193923Y-41274580D01*
X64193923Y-41274580D02*
X64146304Y-41179342D01*
X64146304Y-41179342D02*
X64146304Y-40893628D01*
X64146304Y-40893628D02*
X64193923Y-40798390D01*
X64193923Y-40798390D02*
X64241542Y-40750771D01*
X64241542Y-40750771D02*
X64336780Y-40703152D01*
X64336780Y-40703152D02*
X64479637Y-40703152D01*
X64479637Y-40703152D02*
X64574875Y-40750771D01*
X64574875Y-40750771D02*
X64622494Y-40798390D01*
X64622494Y-40798390D02*
X64670113Y-40893628D01*
X64670113Y-40893628D02*
X64670113Y-41179342D01*
X64670113Y-41179342D02*
X64622494Y-41274580D01*
X64622494Y-41274580D02*
X64574875Y-41322200D01*
X64574875Y-41322200D02*
X64479637Y-41369819D01*
X64479637Y-41369819D02*
X64336780Y-41369819D01*
X65098685Y-40703152D02*
X65098685Y-41703152D01*
X65098685Y-40750771D02*
X65193923Y-40703152D01*
X65193923Y-40703152D02*
X65384399Y-40703152D01*
X65384399Y-40703152D02*
X65479637Y-40750771D01*
X65479637Y-40750771D02*
X65527256Y-40798390D01*
X65527256Y-40798390D02*
X65574875Y-40893628D01*
X65574875Y-40893628D02*
X65574875Y-41179342D01*
X65574875Y-41179342D02*
X65527256Y-41274580D01*
X65527256Y-41274580D02*
X65479637Y-41322200D01*
X65479637Y-41322200D02*
X65384399Y-41369819D01*
X65384399Y-41369819D02*
X65193923Y-41369819D01*
X65193923Y-41369819D02*
X65098685Y-41322200D01*
X65860590Y-40703152D02*
X66241542Y-40703152D01*
X66003447Y-40369819D02*
X66003447Y-41226961D01*
X66003447Y-41226961D02*
X66051066Y-41322200D01*
X66051066Y-41322200D02*
X66146304Y-41369819D01*
X66146304Y-41369819D02*
X66241542Y-41369819D01*
X66574876Y-41369819D02*
X66574876Y-40703152D01*
X66574876Y-40369819D02*
X66527257Y-40417438D01*
X66527257Y-40417438D02*
X66574876Y-40465057D01*
X66574876Y-40465057D02*
X66622495Y-40417438D01*
X66622495Y-40417438D02*
X66574876Y-40369819D01*
X66574876Y-40369819D02*
X66574876Y-40465057D01*
X67193923Y-41369819D02*
X67098685Y-41322200D01*
X67098685Y-41322200D02*
X67051066Y-41274580D01*
X67051066Y-41274580D02*
X67003447Y-41179342D01*
X67003447Y-41179342D02*
X67003447Y-40893628D01*
X67003447Y-40893628D02*
X67051066Y-40798390D01*
X67051066Y-40798390D02*
X67098685Y-40750771D01*
X67098685Y-40750771D02*
X67193923Y-40703152D01*
X67193923Y-40703152D02*
X67336780Y-40703152D01*
X67336780Y-40703152D02*
X67432018Y-40750771D01*
X67432018Y-40750771D02*
X67479637Y-40798390D01*
X67479637Y-40798390D02*
X67527256Y-40893628D01*
X67527256Y-40893628D02*
X67527256Y-41179342D01*
X67527256Y-41179342D02*
X67479637Y-41274580D01*
X67479637Y-41274580D02*
X67432018Y-41322200D01*
X67432018Y-41322200D02*
X67336780Y-41369819D01*
X67336780Y-41369819D02*
X67193923Y-41369819D01*
X67955828Y-40703152D02*
X67955828Y-41369819D01*
X67955828Y-40798390D02*
X68003447Y-40750771D01*
X68003447Y-40750771D02*
X68098685Y-40703152D01*
X68098685Y-40703152D02*
X68241542Y-40703152D01*
X68241542Y-40703152D02*
X68336780Y-40750771D01*
X68336780Y-40750771D02*
X68384399Y-40846009D01*
X68384399Y-40846009D02*
X68384399Y-41369819D01*
X69289161Y-41369819D02*
X69289161Y-40846009D01*
X69289161Y-40846009D02*
X69241542Y-40750771D01*
X69241542Y-40750771D02*
X69146304Y-40703152D01*
X69146304Y-40703152D02*
X68955828Y-40703152D01*
X68955828Y-40703152D02*
X68860590Y-40750771D01*
X69289161Y-41322200D02*
X69193923Y-41369819D01*
X69193923Y-41369819D02*
X68955828Y-41369819D01*
X68955828Y-41369819D02*
X68860590Y-41322200D01*
X68860590Y-41322200D02*
X68812971Y-41226961D01*
X68812971Y-41226961D02*
X68812971Y-41131723D01*
X68812971Y-41131723D02*
X68860590Y-41036485D01*
X68860590Y-41036485D02*
X68955828Y-40988866D01*
X68955828Y-40988866D02*
X69193923Y-40988866D01*
X69193923Y-40988866D02*
X69289161Y-40941247D01*
X69908209Y-41369819D02*
X69812971Y-41322200D01*
X69812971Y-41322200D02*
X69765352Y-41226961D01*
X69765352Y-41226961D02*
X69765352Y-40369819D01*
X70432019Y-41369819D02*
X70336781Y-41322200D01*
X70336781Y-41322200D02*
X70289162Y-41226961D01*
X70289162Y-41226961D02*
X70289162Y-40369819D01*
X70717734Y-40703152D02*
X70955829Y-41369819D01*
X71193924Y-40703152D02*
X70955829Y-41369819D01*
X70955829Y-41369819D02*
X70860591Y-41607914D01*
X70860591Y-41607914D02*
X70812972Y-41655533D01*
X70812972Y-41655533D02*
X70717734Y-41703152D01*
X71479639Y-41750771D02*
X71527258Y-41703152D01*
X71527258Y-41703152D02*
X71622496Y-41560295D01*
X71622496Y-41560295D02*
X71670115Y-41465057D01*
X71670115Y-41465057D02*
X71717734Y-41322200D01*
X71717734Y-41322200D02*
X71765353Y-41084104D01*
X71765353Y-41084104D02*
X71765353Y-40893628D01*
X71765353Y-40893628D02*
X71717734Y-40655533D01*
X71717734Y-40655533D02*
X71670115Y-40512676D01*
X71670115Y-40512676D02*
X71622496Y-40417438D01*
X71622496Y-40417438D02*
X71527258Y-40274580D01*
X71527258Y-40274580D02*
X71479639Y-40226961D01*
X73574877Y-41369819D02*
X73241544Y-40893628D01*
X73003449Y-41369819D02*
X73003449Y-40369819D01*
X73003449Y-40369819D02*
X73384401Y-40369819D01*
X73384401Y-40369819D02*
X73479639Y-40417438D01*
X73479639Y-40417438D02*
X73527258Y-40465057D01*
X73527258Y-40465057D02*
X73574877Y-40560295D01*
X73574877Y-40560295D02*
X73574877Y-40703152D01*
X73574877Y-40703152D02*
X73527258Y-40798390D01*
X73527258Y-40798390D02*
X73479639Y-40846009D01*
X73479639Y-40846009D02*
X73384401Y-40893628D01*
X73384401Y-40893628D02*
X73003449Y-40893628D01*
X74146306Y-40798390D02*
X74051068Y-40750771D01*
X74051068Y-40750771D02*
X74003449Y-40703152D01*
X74003449Y-40703152D02*
X73955830Y-40607914D01*
X73955830Y-40607914D02*
X73955830Y-40560295D01*
X73955830Y-40560295D02*
X74003449Y-40465057D01*
X74003449Y-40465057D02*
X74051068Y-40417438D01*
X74051068Y-40417438D02*
X74146306Y-40369819D01*
X74146306Y-40369819D02*
X74336782Y-40369819D01*
X74336782Y-40369819D02*
X74432020Y-40417438D01*
X74432020Y-40417438D02*
X74479639Y-40465057D01*
X74479639Y-40465057D02*
X74527258Y-40560295D01*
X74527258Y-40560295D02*
X74527258Y-40607914D01*
X74527258Y-40607914D02*
X74479639Y-40703152D01*
X74479639Y-40703152D02*
X74432020Y-40750771D01*
X74432020Y-40750771D02*
X74336782Y-40798390D01*
X74336782Y-40798390D02*
X74146306Y-40798390D01*
X74146306Y-40798390D02*
X74051068Y-40846009D01*
X74051068Y-40846009D02*
X74003449Y-40893628D01*
X74003449Y-40893628D02*
X73955830Y-40988866D01*
X73955830Y-40988866D02*
X73955830Y-41179342D01*
X73955830Y-41179342D02*
X74003449Y-41274580D01*
X74003449Y-41274580D02*
X74051068Y-41322200D01*
X74051068Y-41322200D02*
X74146306Y-41369819D01*
X74146306Y-41369819D02*
X74336782Y-41369819D01*
X74336782Y-41369819D02*
X74432020Y-41322200D01*
X74432020Y-41322200D02*
X74479639Y-41274580D01*
X74479639Y-41274580D02*
X74527258Y-41179342D01*
X74527258Y-41179342D02*
X74527258Y-40988866D01*
X74527258Y-40988866D02*
X74479639Y-40893628D01*
X74479639Y-40893628D02*
X74432020Y-40846009D01*
X74432020Y-40846009D02*
X74336782Y-40798390D01*
X74955830Y-41274580D02*
X75003449Y-41322200D01*
X75003449Y-41322200D02*
X74955830Y-41369819D01*
X74955830Y-41369819D02*
X74908211Y-41322200D01*
X74908211Y-41322200D02*
X74955830Y-41274580D01*
X74955830Y-41274580D02*
X74955830Y-41369819D01*
X85241541Y-39203152D02*
X85479636Y-39869819D01*
X85479636Y-39869819D02*
X85717731Y-39203152D01*
X86289160Y-38869819D02*
X86384398Y-38869819D01*
X86384398Y-38869819D02*
X86479636Y-38917438D01*
X86479636Y-38917438D02*
X86527255Y-38965057D01*
X86527255Y-38965057D02*
X86574874Y-39060295D01*
X86574874Y-39060295D02*
X86622493Y-39250771D01*
X86622493Y-39250771D02*
X86622493Y-39488866D01*
X86622493Y-39488866D02*
X86574874Y-39679342D01*
X86574874Y-39679342D02*
X86527255Y-39774580D01*
X86527255Y-39774580D02*
X86479636Y-39822200D01*
X86479636Y-39822200D02*
X86384398Y-39869819D01*
X86384398Y-39869819D02*
X86289160Y-39869819D01*
X86289160Y-39869819D02*
X86193922Y-39822200D01*
X86193922Y-39822200D02*
X86146303Y-39774580D01*
X86146303Y-39774580D02*
X86098684Y-39679342D01*
X86098684Y-39679342D02*
X86051065Y-39488866D01*
X86051065Y-39488866D02*
X86051065Y-39250771D01*
X86051065Y-39250771D02*
X86098684Y-39060295D01*
X86098684Y-39060295D02*
X86146303Y-38965057D01*
X86146303Y-38965057D02*
X86193922Y-38917438D01*
X86193922Y-38917438D02*
X86289160Y-38869819D01*
X87051065Y-39774580D02*
X87098684Y-39822200D01*
X87098684Y-39822200D02*
X87051065Y-39869819D01*
X87051065Y-39869819D02*
X87003446Y-39822200D01*
X87003446Y-39822200D02*
X87051065Y-39774580D01*
X87051065Y-39774580D02*
X87051065Y-39869819D01*
X87432017Y-38869819D02*
X88051064Y-38869819D01*
X88051064Y-38869819D02*
X87717731Y-39250771D01*
X87717731Y-39250771D02*
X87860588Y-39250771D01*
X87860588Y-39250771D02*
X87955826Y-39298390D01*
X87955826Y-39298390D02*
X88003445Y-39346009D01*
X88003445Y-39346009D02*
X88051064Y-39441247D01*
X88051064Y-39441247D02*
X88051064Y-39679342D01*
X88051064Y-39679342D02*
X88003445Y-39774580D01*
X88003445Y-39774580D02*
X87955826Y-39822200D01*
X87955826Y-39822200D02*
X87860588Y-39869819D01*
X87860588Y-39869819D02*
X87574874Y-39869819D01*
X87574874Y-39869819D02*
X87479636Y-39822200D01*
X87479636Y-39822200D02*
X87432017Y-39774580D01*
X87721009Y-48920118D02*
X87768628Y-48777261D01*
X87768628Y-48777261D02*
X87816247Y-48729642D01*
X87816247Y-48729642D02*
X87911485Y-48682023D01*
X87911485Y-48682023D02*
X88054342Y-48682023D01*
X88054342Y-48682023D02*
X88149580Y-48729642D01*
X88149580Y-48729642D02*
X88197200Y-48777261D01*
X88197200Y-48777261D02*
X88244819Y-48872499D01*
X88244819Y-48872499D02*
X88244819Y-49253451D01*
X88244819Y-49253451D02*
X87244819Y-49253451D01*
X87244819Y-49253451D02*
X87244819Y-48920118D01*
X87244819Y-48920118D02*
X87292438Y-48824880D01*
X87292438Y-48824880D02*
X87340057Y-48777261D01*
X87340057Y-48777261D02*
X87435295Y-48729642D01*
X87435295Y-48729642D02*
X87530533Y-48729642D01*
X87530533Y-48729642D02*
X87625771Y-48777261D01*
X87625771Y-48777261D02*
X87673390Y-48824880D01*
X87673390Y-48824880D02*
X87721009Y-48920118D01*
X87721009Y-48920118D02*
X87721009Y-49253451D01*
X87863866Y-48253451D02*
X87863866Y-47491547D01*
X88244819Y-47872499D02*
X87482914Y-47872499D01*
X60612200Y-71500118D02*
X60659819Y-71357261D01*
X60659819Y-71357261D02*
X60659819Y-71119166D01*
X60659819Y-71119166D02*
X60612200Y-71023928D01*
X60612200Y-71023928D02*
X60564580Y-70976309D01*
X60564580Y-70976309D02*
X60469342Y-70928690D01*
X60469342Y-70928690D02*
X60374104Y-70928690D01*
X60374104Y-70928690D02*
X60278866Y-70976309D01*
X60278866Y-70976309D02*
X60231247Y-71023928D01*
X60231247Y-71023928D02*
X60183628Y-71119166D01*
X60183628Y-71119166D02*
X60136009Y-71309642D01*
X60136009Y-71309642D02*
X60088390Y-71404880D01*
X60088390Y-71404880D02*
X60040771Y-71452499D01*
X60040771Y-71452499D02*
X59945533Y-71500118D01*
X59945533Y-71500118D02*
X59850295Y-71500118D01*
X59850295Y-71500118D02*
X59755057Y-71452499D01*
X59755057Y-71452499D02*
X59707438Y-71404880D01*
X59707438Y-71404880D02*
X59659819Y-71309642D01*
X59659819Y-71309642D02*
X59659819Y-71071547D01*
X59659819Y-71071547D02*
X59707438Y-70928690D01*
X60659819Y-70500118D02*
X59993152Y-70500118D01*
X59659819Y-70500118D02*
X59707438Y-70547737D01*
X59707438Y-70547737D02*
X59755057Y-70500118D01*
X59755057Y-70500118D02*
X59707438Y-70452499D01*
X59707438Y-70452499D02*
X59659819Y-70500118D01*
X59659819Y-70500118D02*
X59755057Y-70500118D01*
X59993152Y-69595357D02*
X60802676Y-69595357D01*
X60802676Y-69595357D02*
X60897914Y-69642976D01*
X60897914Y-69642976D02*
X60945533Y-69690595D01*
X60945533Y-69690595D02*
X60993152Y-69785833D01*
X60993152Y-69785833D02*
X60993152Y-69928690D01*
X60993152Y-69928690D02*
X60945533Y-70023928D01*
X60612200Y-69595357D02*
X60659819Y-69690595D01*
X60659819Y-69690595D02*
X60659819Y-69881071D01*
X60659819Y-69881071D02*
X60612200Y-69976309D01*
X60612200Y-69976309D02*
X60564580Y-70023928D01*
X60564580Y-70023928D02*
X60469342Y-70071547D01*
X60469342Y-70071547D02*
X60183628Y-70071547D01*
X60183628Y-70071547D02*
X60088390Y-70023928D01*
X60088390Y-70023928D02*
X60040771Y-69976309D01*
X60040771Y-69976309D02*
X59993152Y-69881071D01*
X59993152Y-69881071D02*
X59993152Y-69690595D01*
X59993152Y-69690595D02*
X60040771Y-69595357D01*
X60755057Y-69357262D02*
X60755057Y-68595357D01*
X60659819Y-68357261D02*
X59993152Y-68357261D01*
X59659819Y-68357261D02*
X59707438Y-68404880D01*
X59707438Y-68404880D02*
X59755057Y-68357261D01*
X59755057Y-68357261D02*
X59707438Y-68309642D01*
X59707438Y-68309642D02*
X59659819Y-68357261D01*
X59659819Y-68357261D02*
X59755057Y-68357261D01*
X59993152Y-67881071D02*
X60659819Y-67881071D01*
X60088390Y-67881071D02*
X60040771Y-67833452D01*
X60040771Y-67833452D02*
X59993152Y-67738214D01*
X59993152Y-67738214D02*
X59993152Y-67595357D01*
X59993152Y-67595357D02*
X60040771Y-67500119D01*
X60040771Y-67500119D02*
X60136009Y-67452500D01*
X60136009Y-67452500D02*
X60659819Y-67452500D01*
X81603333Y-88127319D02*
X81270000Y-87651128D01*
X81031905Y-88127319D02*
X81031905Y-87127319D01*
X81031905Y-87127319D02*
X81412857Y-87127319D01*
X81412857Y-87127319D02*
X81508095Y-87174938D01*
X81508095Y-87174938D02*
X81555714Y-87222557D01*
X81555714Y-87222557D02*
X81603333Y-87317795D01*
X81603333Y-87317795D02*
X81603333Y-87460652D01*
X81603333Y-87460652D02*
X81555714Y-87555890D01*
X81555714Y-87555890D02*
X81508095Y-87603509D01*
X81508095Y-87603509D02*
X81412857Y-87651128D01*
X81412857Y-87651128D02*
X81031905Y-87651128D01*
X82460476Y-87460652D02*
X82460476Y-88127319D01*
X82222381Y-87079700D02*
X81984286Y-87793985D01*
X81984286Y-87793985D02*
X82603333Y-87793985D01*
X77158095Y-79617319D02*
X77158095Y-80426842D01*
X77158095Y-80426842D02*
X77205714Y-80522080D01*
X77205714Y-80522080D02*
X77253333Y-80569700D01*
X77253333Y-80569700D02*
X77348571Y-80617319D01*
X77348571Y-80617319D02*
X77539047Y-80617319D01*
X77539047Y-80617319D02*
X77634285Y-80569700D01*
X77634285Y-80569700D02*
X77681904Y-80522080D01*
X77681904Y-80522080D02*
X77729523Y-80426842D01*
X77729523Y-80426842D02*
X77729523Y-79617319D01*
X78729523Y-80617319D02*
X78158095Y-80617319D01*
X78443809Y-80617319D02*
X78443809Y-79617319D01*
X78443809Y-79617319D02*
X78348571Y-79760176D01*
X78348571Y-79760176D02*
X78253333Y-79855414D01*
X78253333Y-79855414D02*
X78158095Y-79903033D01*
X60278866Y-49738213D02*
X60278866Y-48976309D01*
X60659819Y-49357261D02*
X59897914Y-49357261D01*
X60659819Y-48452499D02*
X60659819Y-48262023D01*
X60659819Y-48262023D02*
X60612200Y-48166785D01*
X60612200Y-48166785D02*
X60564580Y-48119166D01*
X60564580Y-48119166D02*
X60421723Y-48023928D01*
X60421723Y-48023928D02*
X60231247Y-47976309D01*
X60231247Y-47976309D02*
X59850295Y-47976309D01*
X59850295Y-47976309D02*
X59755057Y-48023928D01*
X59755057Y-48023928D02*
X59707438Y-48071547D01*
X59707438Y-48071547D02*
X59659819Y-48166785D01*
X59659819Y-48166785D02*
X59659819Y-48357261D01*
X59659819Y-48357261D02*
X59707438Y-48452499D01*
X59707438Y-48452499D02*
X59755057Y-48500118D01*
X59755057Y-48500118D02*
X59850295Y-48547737D01*
X59850295Y-48547737D02*
X60088390Y-48547737D01*
X60088390Y-48547737D02*
X60183628Y-48500118D01*
X60183628Y-48500118D02*
X60231247Y-48452499D01*
X60231247Y-48452499D02*
X60278866Y-48357261D01*
X60278866Y-48357261D02*
X60278866Y-48166785D01*
X60278866Y-48166785D02*
X60231247Y-48071547D01*
X60231247Y-48071547D02*
X60183628Y-48023928D01*
X60183628Y-48023928D02*
X60088390Y-47976309D01*
X59659819Y-47690594D02*
X60659819Y-47357261D01*
X60659819Y-47357261D02*
X59659819Y-47023928D01*
X62063333Y-59777319D02*
X61730000Y-59301128D01*
X61491905Y-59777319D02*
X61491905Y-58777319D01*
X61491905Y-58777319D02*
X61872857Y-58777319D01*
X61872857Y-58777319D02*
X61968095Y-58824938D01*
X61968095Y-58824938D02*
X62015714Y-58872557D01*
X62015714Y-58872557D02*
X62063333Y-58967795D01*
X62063333Y-58967795D02*
X62063333Y-59110652D01*
X62063333Y-59110652D02*
X62015714Y-59205890D01*
X62015714Y-59205890D02*
X61968095Y-59253509D01*
X61968095Y-59253509D02*
X61872857Y-59301128D01*
X61872857Y-59301128D02*
X61491905Y-59301128D01*
X62396667Y-58777319D02*
X63063333Y-58777319D01*
X63063333Y-58777319D02*
X62634762Y-59777319D01*
X64833333Y-67312080D02*
X64785714Y-67359700D01*
X64785714Y-67359700D02*
X64642857Y-67407319D01*
X64642857Y-67407319D02*
X64547619Y-67407319D01*
X64547619Y-67407319D02*
X64404762Y-67359700D01*
X64404762Y-67359700D02*
X64309524Y-67264461D01*
X64309524Y-67264461D02*
X64261905Y-67169223D01*
X64261905Y-67169223D02*
X64214286Y-66978747D01*
X64214286Y-66978747D02*
X64214286Y-66835890D01*
X64214286Y-66835890D02*
X64261905Y-66645414D01*
X64261905Y-66645414D02*
X64309524Y-66550176D01*
X64309524Y-66550176D02*
X64404762Y-66454938D01*
X64404762Y-66454938D02*
X64547619Y-66407319D01*
X64547619Y-66407319D02*
X64642857Y-66407319D01*
X64642857Y-66407319D02*
X64785714Y-66454938D01*
X64785714Y-66454938D02*
X64833333Y-66502557D01*
X65214286Y-66502557D02*
X65261905Y-66454938D01*
X65261905Y-66454938D02*
X65357143Y-66407319D01*
X65357143Y-66407319D02*
X65595238Y-66407319D01*
X65595238Y-66407319D02*
X65690476Y-66454938D01*
X65690476Y-66454938D02*
X65738095Y-66502557D01*
X65738095Y-66502557D02*
X65785714Y-66597795D01*
X65785714Y-66597795D02*
X65785714Y-66693033D01*
X65785714Y-66693033D02*
X65738095Y-66835890D01*
X65738095Y-66835890D02*
X65166667Y-67407319D01*
X65166667Y-67407319D02*
X65785714Y-67407319D01*
X88197200Y-85920118D02*
X88244819Y-85777261D01*
X88244819Y-85777261D02*
X88244819Y-85539166D01*
X88244819Y-85539166D02*
X88197200Y-85443928D01*
X88197200Y-85443928D02*
X88149580Y-85396309D01*
X88149580Y-85396309D02*
X88054342Y-85348690D01*
X88054342Y-85348690D02*
X87959104Y-85348690D01*
X87959104Y-85348690D02*
X87863866Y-85396309D01*
X87863866Y-85396309D02*
X87816247Y-85443928D01*
X87816247Y-85443928D02*
X87768628Y-85539166D01*
X87768628Y-85539166D02*
X87721009Y-85729642D01*
X87721009Y-85729642D02*
X87673390Y-85824880D01*
X87673390Y-85824880D02*
X87625771Y-85872499D01*
X87625771Y-85872499D02*
X87530533Y-85920118D01*
X87530533Y-85920118D02*
X87435295Y-85920118D01*
X87435295Y-85920118D02*
X87340057Y-85872499D01*
X87340057Y-85872499D02*
X87292438Y-85824880D01*
X87292438Y-85824880D02*
X87244819Y-85729642D01*
X87244819Y-85729642D02*
X87244819Y-85491547D01*
X87244819Y-85491547D02*
X87292438Y-85348690D01*
X88244819Y-84920118D02*
X87578152Y-84920118D01*
X87244819Y-84920118D02*
X87292438Y-84967737D01*
X87292438Y-84967737D02*
X87340057Y-84920118D01*
X87340057Y-84920118D02*
X87292438Y-84872499D01*
X87292438Y-84872499D02*
X87244819Y-84920118D01*
X87244819Y-84920118D02*
X87340057Y-84920118D01*
X87578152Y-84015357D02*
X88387676Y-84015357D01*
X88387676Y-84015357D02*
X88482914Y-84062976D01*
X88482914Y-84062976D02*
X88530533Y-84110595D01*
X88530533Y-84110595D02*
X88578152Y-84205833D01*
X88578152Y-84205833D02*
X88578152Y-84348690D01*
X88578152Y-84348690D02*
X88530533Y-84443928D01*
X88197200Y-84015357D02*
X88244819Y-84110595D01*
X88244819Y-84110595D02*
X88244819Y-84301071D01*
X88244819Y-84301071D02*
X88197200Y-84396309D01*
X88197200Y-84396309D02*
X88149580Y-84443928D01*
X88149580Y-84443928D02*
X88054342Y-84491547D01*
X88054342Y-84491547D02*
X87768628Y-84491547D01*
X87768628Y-84491547D02*
X87673390Y-84443928D01*
X87673390Y-84443928D02*
X87625771Y-84396309D01*
X87625771Y-84396309D02*
X87578152Y-84301071D01*
X87578152Y-84301071D02*
X87578152Y-84110595D01*
X87578152Y-84110595D02*
X87625771Y-84015357D01*
X88340057Y-83777262D02*
X88340057Y-83015357D01*
X88244819Y-82634404D02*
X88197200Y-82729642D01*
X88197200Y-82729642D02*
X88149580Y-82777261D01*
X88149580Y-82777261D02*
X88054342Y-82824880D01*
X88054342Y-82824880D02*
X87768628Y-82824880D01*
X87768628Y-82824880D02*
X87673390Y-82777261D01*
X87673390Y-82777261D02*
X87625771Y-82729642D01*
X87625771Y-82729642D02*
X87578152Y-82634404D01*
X87578152Y-82634404D02*
X87578152Y-82491547D01*
X87578152Y-82491547D02*
X87625771Y-82396309D01*
X87625771Y-82396309D02*
X87673390Y-82348690D01*
X87673390Y-82348690D02*
X87768628Y-82301071D01*
X87768628Y-82301071D02*
X88054342Y-82301071D01*
X88054342Y-82301071D02*
X88149580Y-82348690D01*
X88149580Y-82348690D02*
X88197200Y-82396309D01*
X88197200Y-82396309D02*
X88244819Y-82491547D01*
X88244819Y-82491547D02*
X88244819Y-82634404D01*
X87578152Y-81443928D02*
X88244819Y-81443928D01*
X87578152Y-81872499D02*
X88101961Y-81872499D01*
X88101961Y-81872499D02*
X88197200Y-81824880D01*
X88197200Y-81824880D02*
X88244819Y-81729642D01*
X88244819Y-81729642D02*
X88244819Y-81586785D01*
X88244819Y-81586785D02*
X88197200Y-81491547D01*
X88197200Y-81491547D02*
X88149580Y-81443928D01*
X87578152Y-81110594D02*
X87578152Y-80729642D01*
X87244819Y-80967737D02*
X88101961Y-80967737D01*
X88101961Y-80967737D02*
X88197200Y-80920118D01*
X88197200Y-80920118D02*
X88244819Y-80824880D01*
X88244819Y-80824880D02*
X88244819Y-80729642D01*
X92333333Y-72232080D02*
X92285714Y-72279700D01*
X92285714Y-72279700D02*
X92142857Y-72327319D01*
X92142857Y-72327319D02*
X92047619Y-72327319D01*
X92047619Y-72327319D02*
X91904762Y-72279700D01*
X91904762Y-72279700D02*
X91809524Y-72184461D01*
X91809524Y-72184461D02*
X91761905Y-72089223D01*
X91761905Y-72089223D02*
X91714286Y-71898747D01*
X91714286Y-71898747D02*
X91714286Y-71755890D01*
X91714286Y-71755890D02*
X91761905Y-71565414D01*
X91761905Y-71565414D02*
X91809524Y-71470176D01*
X91809524Y-71470176D02*
X91904762Y-71374938D01*
X91904762Y-71374938D02*
X92047619Y-71327319D01*
X92047619Y-71327319D02*
X92142857Y-71327319D01*
X92142857Y-71327319D02*
X92285714Y-71374938D01*
X92285714Y-71374938D02*
X92333333Y-71422557D01*
X93285714Y-72327319D02*
X92714286Y-72327319D01*
X93000000Y-72327319D02*
X93000000Y-71327319D01*
X93000000Y-71327319D02*
X92904762Y-71470176D01*
X92904762Y-71470176D02*
X92809524Y-71565414D01*
X92809524Y-71565414D02*
X92714286Y-71613033D01*
X65454819Y-62894166D02*
X64978628Y-63227499D01*
X65454819Y-63465594D02*
X64454819Y-63465594D01*
X64454819Y-63465594D02*
X64454819Y-63084642D01*
X64454819Y-63084642D02*
X64502438Y-62989404D01*
X64502438Y-62989404D02*
X64550057Y-62941785D01*
X64550057Y-62941785D02*
X64645295Y-62894166D01*
X64645295Y-62894166D02*
X64788152Y-62894166D01*
X64788152Y-62894166D02*
X64883390Y-62941785D01*
X64883390Y-62941785D02*
X64931009Y-62989404D01*
X64931009Y-62989404D02*
X64978628Y-63084642D01*
X64978628Y-63084642D02*
X64978628Y-63465594D01*
X64883390Y-62322737D02*
X64835771Y-62417975D01*
X64835771Y-62417975D02*
X64788152Y-62465594D01*
X64788152Y-62465594D02*
X64692914Y-62513213D01*
X64692914Y-62513213D02*
X64645295Y-62513213D01*
X64645295Y-62513213D02*
X64550057Y-62465594D01*
X64550057Y-62465594D02*
X64502438Y-62417975D01*
X64502438Y-62417975D02*
X64454819Y-62322737D01*
X64454819Y-62322737D02*
X64454819Y-62132261D01*
X64454819Y-62132261D02*
X64502438Y-62037023D01*
X64502438Y-62037023D02*
X64550057Y-61989404D01*
X64550057Y-61989404D02*
X64645295Y-61941785D01*
X64645295Y-61941785D02*
X64692914Y-61941785D01*
X64692914Y-61941785D02*
X64788152Y-61989404D01*
X64788152Y-61989404D02*
X64835771Y-62037023D01*
X64835771Y-62037023D02*
X64883390Y-62132261D01*
X64883390Y-62132261D02*
X64883390Y-62322737D01*
X64883390Y-62322737D02*
X64931009Y-62417975D01*
X64931009Y-62417975D02*
X64978628Y-62465594D01*
X64978628Y-62465594D02*
X65073866Y-62513213D01*
X65073866Y-62513213D02*
X65264342Y-62513213D01*
X65264342Y-62513213D02*
X65359580Y-62465594D01*
X65359580Y-62465594D02*
X65407200Y-62417975D01*
X65407200Y-62417975D02*
X65454819Y-62322737D01*
X65454819Y-62322737D02*
X65454819Y-62132261D01*
X65454819Y-62132261D02*
X65407200Y-62037023D01*
X65407200Y-62037023D02*
X65359580Y-61989404D01*
X65359580Y-61989404D02*
X65264342Y-61941785D01*
X65264342Y-61941785D02*
X65073866Y-61941785D01*
X65073866Y-61941785D02*
X64978628Y-61989404D01*
X64978628Y-61989404D02*
X64931009Y-62037023D01*
X64931009Y-62037023D02*
X64883390Y-62132261D01*
X60612200Y-86166785D02*
X60659819Y-86023928D01*
X60659819Y-86023928D02*
X60659819Y-85785833D01*
X60659819Y-85785833D02*
X60612200Y-85690595D01*
X60612200Y-85690595D02*
X60564580Y-85642976D01*
X60564580Y-85642976D02*
X60469342Y-85595357D01*
X60469342Y-85595357D02*
X60374104Y-85595357D01*
X60374104Y-85595357D02*
X60278866Y-85642976D01*
X60278866Y-85642976D02*
X60231247Y-85690595D01*
X60231247Y-85690595D02*
X60183628Y-85785833D01*
X60183628Y-85785833D02*
X60136009Y-85976309D01*
X60136009Y-85976309D02*
X60088390Y-86071547D01*
X60088390Y-86071547D02*
X60040771Y-86119166D01*
X60040771Y-86119166D02*
X59945533Y-86166785D01*
X59945533Y-86166785D02*
X59850295Y-86166785D01*
X59850295Y-86166785D02*
X59755057Y-86119166D01*
X59755057Y-86119166D02*
X59707438Y-86071547D01*
X59707438Y-86071547D02*
X59659819Y-85976309D01*
X59659819Y-85976309D02*
X59659819Y-85738214D01*
X59659819Y-85738214D02*
X59707438Y-85595357D01*
X60659819Y-85166785D02*
X59993152Y-85166785D01*
X59659819Y-85166785D02*
X59707438Y-85214404D01*
X59707438Y-85214404D02*
X59755057Y-85166785D01*
X59755057Y-85166785D02*
X59707438Y-85119166D01*
X59707438Y-85119166D02*
X59659819Y-85166785D01*
X59659819Y-85166785D02*
X59755057Y-85166785D01*
X59993152Y-84262024D02*
X60802676Y-84262024D01*
X60802676Y-84262024D02*
X60897914Y-84309643D01*
X60897914Y-84309643D02*
X60945533Y-84357262D01*
X60945533Y-84357262D02*
X60993152Y-84452500D01*
X60993152Y-84452500D02*
X60993152Y-84595357D01*
X60993152Y-84595357D02*
X60945533Y-84690595D01*
X60612200Y-84262024D02*
X60659819Y-84357262D01*
X60659819Y-84357262D02*
X60659819Y-84547738D01*
X60659819Y-84547738D02*
X60612200Y-84642976D01*
X60612200Y-84642976D02*
X60564580Y-84690595D01*
X60564580Y-84690595D02*
X60469342Y-84738214D01*
X60469342Y-84738214D02*
X60183628Y-84738214D01*
X60183628Y-84738214D02*
X60088390Y-84690595D01*
X60088390Y-84690595D02*
X60040771Y-84642976D01*
X60040771Y-84642976D02*
X59993152Y-84547738D01*
X59993152Y-84547738D02*
X59993152Y-84357262D01*
X59993152Y-84357262D02*
X60040771Y-84262024D01*
X60755057Y-84023929D02*
X60755057Y-83262024D01*
X59993152Y-82595357D02*
X60802676Y-82595357D01*
X60802676Y-82595357D02*
X60897914Y-82642976D01*
X60897914Y-82642976D02*
X60945533Y-82690595D01*
X60945533Y-82690595D02*
X60993152Y-82785833D01*
X60993152Y-82785833D02*
X60993152Y-82928690D01*
X60993152Y-82928690D02*
X60945533Y-83023928D01*
X60612200Y-82595357D02*
X60659819Y-82690595D01*
X60659819Y-82690595D02*
X60659819Y-82881071D01*
X60659819Y-82881071D02*
X60612200Y-82976309D01*
X60612200Y-82976309D02*
X60564580Y-83023928D01*
X60564580Y-83023928D02*
X60469342Y-83071547D01*
X60469342Y-83071547D02*
X60183628Y-83071547D01*
X60183628Y-83071547D02*
X60088390Y-83023928D01*
X60088390Y-83023928D02*
X60040771Y-82976309D01*
X60040771Y-82976309D02*
X59993152Y-82881071D01*
X59993152Y-82881071D02*
X59993152Y-82690595D01*
X59993152Y-82690595D02*
X60040771Y-82595357D01*
X59993152Y-82119166D02*
X60659819Y-82119166D01*
X60088390Y-82119166D02*
X60040771Y-82071547D01*
X60040771Y-82071547D02*
X59993152Y-81976309D01*
X59993152Y-81976309D02*
X59993152Y-81833452D01*
X59993152Y-81833452D02*
X60040771Y-81738214D01*
X60040771Y-81738214D02*
X60136009Y-81690595D01*
X60136009Y-81690595D02*
X60659819Y-81690595D01*
X60659819Y-80785833D02*
X59659819Y-80785833D01*
X60612200Y-80785833D02*
X60659819Y-80881071D01*
X60659819Y-80881071D02*
X60659819Y-81071547D01*
X60659819Y-81071547D02*
X60612200Y-81166785D01*
X60612200Y-81166785D02*
X60564580Y-81214404D01*
X60564580Y-81214404D02*
X60469342Y-81262023D01*
X60469342Y-81262023D02*
X60183628Y-81262023D01*
X60183628Y-81262023D02*
X60088390Y-81214404D01*
X60088390Y-81214404D02*
X60040771Y-81166785D01*
X60040771Y-81166785D02*
X59993152Y-81071547D01*
X59993152Y-81071547D02*
X59993152Y-80881071D01*
X59993152Y-80881071D02*
X60040771Y-80785833D01*
X74103333Y-88127319D02*
X73770000Y-87651128D01*
X73531905Y-88127319D02*
X73531905Y-87127319D01*
X73531905Y-87127319D02*
X73912857Y-87127319D01*
X73912857Y-87127319D02*
X74008095Y-87174938D01*
X74008095Y-87174938D02*
X74055714Y-87222557D01*
X74055714Y-87222557D02*
X74103333Y-87317795D01*
X74103333Y-87317795D02*
X74103333Y-87460652D01*
X74103333Y-87460652D02*
X74055714Y-87555890D01*
X74055714Y-87555890D02*
X74008095Y-87603509D01*
X74008095Y-87603509D02*
X73912857Y-87651128D01*
X73912857Y-87651128D02*
X73531905Y-87651128D01*
X75008095Y-87127319D02*
X74531905Y-87127319D01*
X74531905Y-87127319D02*
X74484286Y-87603509D01*
X74484286Y-87603509D02*
X74531905Y-87555890D01*
X74531905Y-87555890D02*
X74627143Y-87508271D01*
X74627143Y-87508271D02*
X74865238Y-87508271D01*
X74865238Y-87508271D02*
X74960476Y-87555890D01*
X74960476Y-87555890D02*
X75008095Y-87603509D01*
X75008095Y-87603509D02*
X75055714Y-87698747D01*
X75055714Y-87698747D02*
X75055714Y-87936842D01*
X75055714Y-87936842D02*
X75008095Y-88032080D01*
X75008095Y-88032080D02*
X74960476Y-88079700D01*
X74960476Y-88079700D02*
X74865238Y-88127319D01*
X74865238Y-88127319D02*
X74627143Y-88127319D01*
X74627143Y-88127319D02*
X74531905Y-88079700D01*
X74531905Y-88079700D02*
X74484286Y-88032080D01*
X51254819Y-59714404D02*
X52064342Y-59714404D01*
X52064342Y-59714404D02*
X52159580Y-59666785D01*
X52159580Y-59666785D02*
X52207200Y-59619166D01*
X52207200Y-59619166D02*
X52254819Y-59523928D01*
X52254819Y-59523928D02*
X52254819Y-59333452D01*
X52254819Y-59333452D02*
X52207200Y-59238214D01*
X52207200Y-59238214D02*
X52159580Y-59190595D01*
X52159580Y-59190595D02*
X52064342Y-59142976D01*
X52064342Y-59142976D02*
X51254819Y-59142976D01*
X51350057Y-58714404D02*
X51302438Y-58666785D01*
X51302438Y-58666785D02*
X51254819Y-58571547D01*
X51254819Y-58571547D02*
X51254819Y-58333452D01*
X51254819Y-58333452D02*
X51302438Y-58238214D01*
X51302438Y-58238214D02*
X51350057Y-58190595D01*
X51350057Y-58190595D02*
X51445295Y-58142976D01*
X51445295Y-58142976D02*
X51540533Y-58142976D01*
X51540533Y-58142976D02*
X51683390Y-58190595D01*
X51683390Y-58190595D02*
X52254819Y-58762023D01*
X52254819Y-58762023D02*
X52254819Y-58142976D01*
X63608333Y-44657319D02*
X63275000Y-44181128D01*
X63036905Y-44657319D02*
X63036905Y-43657319D01*
X63036905Y-43657319D02*
X63417857Y-43657319D01*
X63417857Y-43657319D02*
X63513095Y-43704938D01*
X63513095Y-43704938D02*
X63560714Y-43752557D01*
X63560714Y-43752557D02*
X63608333Y-43847795D01*
X63608333Y-43847795D02*
X63608333Y-43990652D01*
X63608333Y-43990652D02*
X63560714Y-44085890D01*
X63560714Y-44085890D02*
X63513095Y-44133509D01*
X63513095Y-44133509D02*
X63417857Y-44181128D01*
X63417857Y-44181128D02*
X63036905Y-44181128D01*
X64560714Y-44657319D02*
X63989286Y-44657319D01*
X64275000Y-44657319D02*
X64275000Y-43657319D01*
X64275000Y-43657319D02*
X64179762Y-43800176D01*
X64179762Y-43800176D02*
X64084524Y-43895414D01*
X64084524Y-43895414D02*
X63989286Y-43943033D01*
X64959819Y-83714404D02*
X63959819Y-83714404D01*
X64959819Y-83238214D02*
X64293152Y-83238214D01*
X64388390Y-83238214D02*
X64340771Y-83190595D01*
X64340771Y-83190595D02*
X64293152Y-83095357D01*
X64293152Y-83095357D02*
X64293152Y-82952500D01*
X64293152Y-82952500D02*
X64340771Y-82857262D01*
X64340771Y-82857262D02*
X64436009Y-82809643D01*
X64436009Y-82809643D02*
X64959819Y-82809643D01*
X64436009Y-82809643D02*
X64340771Y-82762024D01*
X64340771Y-82762024D02*
X64293152Y-82666786D01*
X64293152Y-82666786D02*
X64293152Y-82523929D01*
X64293152Y-82523929D02*
X64340771Y-82428690D01*
X64340771Y-82428690D02*
X64436009Y-82381071D01*
X64436009Y-82381071D02*
X64959819Y-82381071D01*
X64293152Y-81904881D02*
X65293152Y-81904881D01*
X64340771Y-81904881D02*
X64293152Y-81809643D01*
X64293152Y-81809643D02*
X64293152Y-81619167D01*
X64293152Y-81619167D02*
X64340771Y-81523929D01*
X64340771Y-81523929D02*
X64388390Y-81476310D01*
X64388390Y-81476310D02*
X64483628Y-81428691D01*
X64483628Y-81428691D02*
X64769342Y-81428691D01*
X64769342Y-81428691D02*
X64864580Y-81476310D01*
X64864580Y-81476310D02*
X64912200Y-81523929D01*
X64912200Y-81523929D02*
X64959819Y-81619167D01*
X64959819Y-81619167D02*
X64959819Y-81809643D01*
X64959819Y-81809643D02*
X64912200Y-81904881D01*
X64912200Y-80619167D02*
X64959819Y-80714405D01*
X64959819Y-80714405D02*
X64959819Y-80904881D01*
X64959819Y-80904881D02*
X64912200Y-81000119D01*
X64912200Y-81000119D02*
X64816961Y-81047738D01*
X64816961Y-81047738D02*
X64436009Y-81047738D01*
X64436009Y-81047738D02*
X64340771Y-81000119D01*
X64340771Y-81000119D02*
X64293152Y-80904881D01*
X64293152Y-80904881D02*
X64293152Y-80714405D01*
X64293152Y-80714405D02*
X64340771Y-80619167D01*
X64340771Y-80619167D02*
X64436009Y-80571548D01*
X64436009Y-80571548D02*
X64531247Y-80571548D01*
X64531247Y-80571548D02*
X64626485Y-81047738D01*
X64959819Y-79714405D02*
X63959819Y-79714405D01*
X64912200Y-79714405D02*
X64959819Y-79809643D01*
X64959819Y-79809643D02*
X64959819Y-80000119D01*
X64959819Y-80000119D02*
X64912200Y-80095357D01*
X64912200Y-80095357D02*
X64864580Y-80142976D01*
X64864580Y-80142976D02*
X64769342Y-80190595D01*
X64769342Y-80190595D02*
X64483628Y-80190595D01*
X64483628Y-80190595D02*
X64388390Y-80142976D01*
X64388390Y-80142976D02*
X64340771Y-80095357D01*
X64340771Y-80095357D02*
X64293152Y-80000119D01*
X64293152Y-80000119D02*
X64293152Y-79809643D01*
X64293152Y-79809643D02*
X64340771Y-79714405D01*
X64959819Y-78809643D02*
X64436009Y-78809643D01*
X64436009Y-78809643D02*
X64340771Y-78857262D01*
X64340771Y-78857262D02*
X64293152Y-78952500D01*
X64293152Y-78952500D02*
X64293152Y-79142976D01*
X64293152Y-79142976D02*
X64340771Y-79238214D01*
X64912200Y-78809643D02*
X64959819Y-78904881D01*
X64959819Y-78904881D02*
X64959819Y-79142976D01*
X64959819Y-79142976D02*
X64912200Y-79238214D01*
X64912200Y-79238214D02*
X64816961Y-79285833D01*
X64816961Y-79285833D02*
X64721723Y-79285833D01*
X64721723Y-79285833D02*
X64626485Y-79238214D01*
X64626485Y-79238214D02*
X64578866Y-79142976D01*
X64578866Y-79142976D02*
X64578866Y-78904881D01*
X64578866Y-78904881D02*
X64531247Y-78809643D01*
X64293152Y-78333452D02*
X64959819Y-78333452D01*
X64388390Y-78333452D02*
X64340771Y-78285833D01*
X64340771Y-78285833D02*
X64293152Y-78190595D01*
X64293152Y-78190595D02*
X64293152Y-78047738D01*
X64293152Y-78047738D02*
X64340771Y-77952500D01*
X64340771Y-77952500D02*
X64436009Y-77904881D01*
X64436009Y-77904881D02*
X64959819Y-77904881D01*
X64912200Y-77000119D02*
X64959819Y-77095357D01*
X64959819Y-77095357D02*
X64959819Y-77285833D01*
X64959819Y-77285833D02*
X64912200Y-77381071D01*
X64912200Y-77381071D02*
X64864580Y-77428690D01*
X64864580Y-77428690D02*
X64769342Y-77476309D01*
X64769342Y-77476309D02*
X64483628Y-77476309D01*
X64483628Y-77476309D02*
X64388390Y-77428690D01*
X64388390Y-77428690D02*
X64340771Y-77381071D01*
X64340771Y-77381071D02*
X64293152Y-77285833D01*
X64293152Y-77285833D02*
X64293152Y-77095357D01*
X64293152Y-77095357D02*
X64340771Y-77000119D01*
X64912200Y-76190595D02*
X64959819Y-76285833D01*
X64959819Y-76285833D02*
X64959819Y-76476309D01*
X64959819Y-76476309D02*
X64912200Y-76571547D01*
X64912200Y-76571547D02*
X64816961Y-76619166D01*
X64816961Y-76619166D02*
X64436009Y-76619166D01*
X64436009Y-76619166D02*
X64340771Y-76571547D01*
X64340771Y-76571547D02*
X64293152Y-76476309D01*
X64293152Y-76476309D02*
X64293152Y-76285833D01*
X64293152Y-76285833D02*
X64340771Y-76190595D01*
X64340771Y-76190595D02*
X64436009Y-76142976D01*
X64436009Y-76142976D02*
X64531247Y-76142976D01*
X64531247Y-76142976D02*
X64626485Y-76619166D01*
X67869819Y-51844166D02*
X67393628Y-52177499D01*
X67869819Y-52415594D02*
X66869819Y-52415594D01*
X66869819Y-52415594D02*
X66869819Y-52034642D01*
X66869819Y-52034642D02*
X66917438Y-51939404D01*
X66917438Y-51939404D02*
X66965057Y-51891785D01*
X66965057Y-51891785D02*
X67060295Y-51844166D01*
X67060295Y-51844166D02*
X67203152Y-51844166D01*
X67203152Y-51844166D02*
X67298390Y-51891785D01*
X67298390Y-51891785D02*
X67346009Y-51939404D01*
X67346009Y-51939404D02*
X67393628Y-52034642D01*
X67393628Y-52034642D02*
X67393628Y-52415594D01*
X66965057Y-51463213D02*
X66917438Y-51415594D01*
X66917438Y-51415594D02*
X66869819Y-51320356D01*
X66869819Y-51320356D02*
X66869819Y-51082261D01*
X66869819Y-51082261D02*
X66917438Y-50987023D01*
X66917438Y-50987023D02*
X66965057Y-50939404D01*
X66965057Y-50939404D02*
X67060295Y-50891785D01*
X67060295Y-50891785D02*
X67155533Y-50891785D01*
X67155533Y-50891785D02*
X67298390Y-50939404D01*
X67298390Y-50939404D02*
X67869819Y-51510832D01*
X67869819Y-51510832D02*
X67869819Y-50891785D01*
X95674819Y-63165357D02*
X95198628Y-63498690D01*
X95674819Y-63736785D02*
X94674819Y-63736785D01*
X94674819Y-63736785D02*
X94674819Y-63355833D01*
X94674819Y-63355833D02*
X94722438Y-63260595D01*
X94722438Y-63260595D02*
X94770057Y-63212976D01*
X94770057Y-63212976D02*
X94865295Y-63165357D01*
X94865295Y-63165357D02*
X95008152Y-63165357D01*
X95008152Y-63165357D02*
X95103390Y-63212976D01*
X95103390Y-63212976D02*
X95151009Y-63260595D01*
X95151009Y-63260595D02*
X95198628Y-63355833D01*
X95198628Y-63355833D02*
X95198628Y-63736785D01*
X95674819Y-62308214D02*
X95151009Y-62308214D01*
X95151009Y-62308214D02*
X95055771Y-62355833D01*
X95055771Y-62355833D02*
X95008152Y-62451071D01*
X95008152Y-62451071D02*
X95008152Y-62641547D01*
X95008152Y-62641547D02*
X95055771Y-62736785D01*
X95627200Y-62308214D02*
X95674819Y-62403452D01*
X95674819Y-62403452D02*
X95674819Y-62641547D01*
X95674819Y-62641547D02*
X95627200Y-62736785D01*
X95627200Y-62736785D02*
X95531961Y-62784404D01*
X95531961Y-62784404D02*
X95436723Y-62784404D01*
X95436723Y-62784404D02*
X95341485Y-62736785D01*
X95341485Y-62736785D02*
X95293866Y-62641547D01*
X95293866Y-62641547D02*
X95293866Y-62403452D01*
X95293866Y-62403452D02*
X95246247Y-62308214D01*
D12*
%TO.C,B+*%
X88790000Y-43812500D02*
X96210000Y-43812500D01*
X88790000Y-52932500D02*
X88790000Y-43812500D01*
X88790000Y-52932500D02*
X96210000Y-52932500D01*
X90937000Y-47060500D02*
X91081000Y-47204500D01*
X91189000Y-46809500D02*
X91375000Y-46996500D01*
X93624000Y-49748500D02*
X93811000Y-49935500D01*
X93919000Y-49540500D02*
X94063000Y-49684500D01*
X96210000Y-52932500D02*
X96210000Y-43812500D01*
X94560000Y-48372500D02*
G75*
G02*
X90440000Y-48372500I-2060000J0D01*
G01*
X90440000Y-48372500D02*
G75*
G02*
X94560000Y-48372500I2060000J0D01*
G01*
%TO.C,Sig_in*%
X51785000Y-64892500D02*
X51785000Y-74012500D01*
X54076000Y-68284500D02*
X53932000Y-68140500D01*
X54371000Y-68076500D02*
X54184000Y-67889500D01*
X56806000Y-71015500D02*
X56620000Y-70828500D01*
X57058000Y-70764500D02*
X56914000Y-70620500D01*
X59205000Y-64892500D02*
X51785000Y-64892500D01*
X59205000Y-64892500D02*
X59205000Y-74012500D01*
X59205000Y-74012500D02*
X51785000Y-74012500D01*
X57555000Y-69452500D02*
G75*
G02*
X53435000Y-69452500I-2060000J0D01*
G01*
X53435000Y-69452500D02*
G75*
G02*
X57555000Y-69452500I2060000J0D01*
G01*
%TO.C,R4*%
X81695225Y-83981120D02*
G75*
G02*
X81586728Y-85752500I1344775J-971380D01*
G01*
%TO.C,U1*%
X73920000Y-79912500D02*
X73920000Y-76992500D01*
X75190000Y-75722500D02*
X80650000Y-75722500D01*
X80650000Y-81182500D02*
X75190000Y-81182500D01*
X81920000Y-76992500D02*
X81920000Y-79972500D01*
X73910000Y-76982500D02*
G75*
G02*
X75180000Y-75712500I1270000J0D01*
G01*
X75180000Y-81192500D02*
G75*
G02*
X73910000Y-79922500I0J1270000D01*
G01*
X80660000Y-75712500D02*
G75*
G02*
X81930000Y-76982500I0J-1270000D01*
G01*
X81930000Y-79922500D02*
G75*
G02*
X80660000Y-81192500I-1270000J0D01*
G01*
X81344006Y-76932500D02*
G75*
G02*
X80715994Y-76932500I-314006J0D01*
G01*
X80715994Y-76932500D02*
G75*
G02*
X81344006Y-76932500I314006J0D01*
G01*
%TO.C,+9V*%
X51785000Y-43892500D02*
X51785000Y-53012500D01*
X54076000Y-47284500D02*
X53932000Y-47140500D01*
X54371000Y-47076500D02*
X54184000Y-46889500D01*
X56806000Y-50015500D02*
X56620000Y-49828500D01*
X57058000Y-49764500D02*
X56914000Y-49620500D01*
X59205000Y-43892500D02*
X51785000Y-43892500D01*
X59205000Y-43892500D02*
X59205000Y-53012500D01*
X59205000Y-53012500D02*
X51785000Y-53012500D01*
X57555000Y-48452500D02*
G75*
G02*
X53435000Y-48452500I-2060000J0D01*
G01*
X53435000Y-48452500D02*
G75*
G02*
X57555000Y-48452500I2060000J0D01*
G01*
%TO.C,R7*%
X62130000Y-56952500D02*
X62060000Y-56952500D01*
X64870000Y-56952500D02*
G75*
G02*
X62130000Y-56952500I-1370000J0D01*
G01*
X62130000Y-56952500D02*
G75*
G02*
X64870000Y-56952500I1370000J0D01*
G01*
%TO.C,C2*%
X61130000Y-68082500D02*
X61130000Y-70822500D01*
X61130000Y-68082500D02*
X68870000Y-68082500D01*
X61130000Y-70822500D02*
X68870000Y-70822500D01*
X68870000Y-68082500D02*
X68870000Y-70822500D01*
%TO.C,Sig_out*%
X88790000Y-78812500D02*
X96210000Y-78812500D01*
X88790000Y-87932500D02*
X88790000Y-78812500D01*
X88790000Y-87932500D02*
X96210000Y-87932500D01*
X90937000Y-82060500D02*
X91081000Y-82204500D01*
X91189000Y-81809500D02*
X91375000Y-81996500D01*
X93624000Y-84748500D02*
X93811000Y-84935500D01*
X93919000Y-84540500D02*
X94063000Y-84684500D01*
X96210000Y-87932500D02*
X96210000Y-78812500D01*
X94560000Y-83372500D02*
G75*
G02*
X90440000Y-83372500I-2060000J0D01*
G01*
X90440000Y-83372500D02*
G75*
G02*
X94560000Y-83372500I2060000J0D01*
G01*
%TO.C,C1*%
X88630000Y-73002500D02*
X88630000Y-75742500D01*
X88630000Y-73002500D02*
X96370000Y-73002500D01*
X88630000Y-75742500D02*
X96370000Y-75742500D01*
X96370000Y-73002500D02*
X96370000Y-75742500D01*
%TO.C,R8*%
X62500000Y-62627500D02*
X62500000Y-62557500D01*
X63870000Y-63997500D02*
G75*
G02*
X61130000Y-63997500I-1370000J0D01*
G01*
X61130000Y-63997500D02*
G75*
G02*
X63870000Y-63997500I1370000J0D01*
G01*
%TO.C,Sig_gnd*%
X51785000Y-78892500D02*
X51785000Y-88012500D01*
X54076000Y-82284500D02*
X53932000Y-82140500D01*
X54371000Y-82076500D02*
X54184000Y-81889500D01*
X56806000Y-85015500D02*
X56620000Y-84828500D01*
X57058000Y-84764500D02*
X56914000Y-84620500D01*
X59205000Y-78892500D02*
X51785000Y-78892500D01*
X59205000Y-78892500D02*
X59205000Y-88012500D01*
X59205000Y-88012500D02*
X51785000Y-88012500D01*
X57555000Y-83452500D02*
G75*
G02*
X53435000Y-83452500I-2060000J0D01*
G01*
X53435000Y-83452500D02*
G75*
G02*
X57555000Y-83452500I2060000J0D01*
G01*
%TO.C,R5*%
X74195225Y-83981120D02*
G75*
G02*
X74086728Y-85752500I1344775J-971380D01*
G01*
%TO.C,U2*%
X57210000Y-60752500D02*
X57210000Y-57152500D01*
X52760000Y-58952500D02*
G75*
G02*
X54261193Y-56596100I2600000J0D01*
G01*
X54261193Y-61308900D02*
G75*
G02*
X52760000Y-58952500I1098807J2356400D01*
G01*
X56482795Y-56628316D02*
G75*
G02*
X57210000Y-57152500I-1122795J-2324184D01*
G01*
X57210000Y-60752500D02*
G75*
G02*
X56482795Y-61276684I-1850000J1800000D01*
G01*
%TO.C,R1*%
X63675000Y-46452500D02*
X63605000Y-46452500D01*
X66415000Y-46452500D02*
G75*
G02*
X63675000Y-46452500I-1370000J0D01*
G01*
X63675000Y-46452500D02*
G75*
G02*
X66415000Y-46452500I1370000J0D01*
G01*
%TO.C,Impedance*%
X65780000Y-75332500D02*
X65780000Y-84572500D01*
X65780000Y-84572500D02*
X69220000Y-84572500D01*
X67500000Y-74642500D02*
X67500000Y-75332500D01*
X67500000Y-85262500D02*
X67500000Y-84572500D01*
X69220000Y-75332500D02*
X65780000Y-75332500D01*
X69220000Y-84572500D02*
X69220000Y-75332500D01*
%TO.C,R2*%
X65045000Y-51777500D02*
X65045000Y-51847500D01*
X66415000Y-50407500D02*
G75*
G02*
X63675000Y-50407500I-1370000J0D01*
G01*
X63675000Y-50407500D02*
G75*
G02*
X66415000Y-50407500I1370000J0D01*
G01*
%TO.C,Ra*%
X90780000Y-58402500D02*
X90780000Y-67642500D01*
X90780000Y-67642500D02*
X94220000Y-67642500D01*
X92500000Y-57712500D02*
X92500000Y-58402500D01*
X92500000Y-68332500D02*
X92500000Y-67642500D01*
X94220000Y-58402500D02*
X90780000Y-58402500D01*
X94220000Y-67642500D02*
X94220000Y-58402500D01*
%TD*%
M02*
