M48
; DRILL file {KiCad 8.0.8} date 2025-01-19T15:48:09-0600
; FORMAT={-:-/ absolute / metric / decimal}
; #@! TF.CreationDate,2025-01-19T15:48:09-06:00
; #@! TF.GenerationSoftware,Kicad,Pcbnew,8.0.8
; #@! TF.FileFunction,Plated,1,2,PTH
FMAT,2
METRIC
; #@! TA.AperFunction,Plated,PTH,ComponentDrill
T1C0.600
; #@! TA.AperFunction,Plated,PTH,ComponentDrill
T2C0.700
; #@! TA.AperFunction,Plated,PTH,ViaDrill
T3C0.750
; #@! TA.AperFunction,Plated,PTH,ComponentDrill
T4C0.800
; #@! TA.AperFunction,Plated,PTH,ComponentDrill
T5C1.000
; #@! TA.AperFunction,Plated,PTH,ComponentDrill
T6C1.500
%
G90
G05
T1
X58.0Y-62.277
X58.0Y-63.777
T2
X53.0Y-61.75
X53.0Y-64.25
T3
X53.5Y-71.0
X54.0Y-69.5
X54.0Y-72.5
X55.5Y-69.0
X55.5Y-73.0
X57.0Y-69.5
X57.0Y-72.5
X57.5Y-71.0
T4
X52.96Y-57.14
X55.5Y-57.14
X58.04Y-57.14
X62.0Y-52.0
X62.005Y-48.0
X63.5Y-56.005
X63.5Y-58.545
X63.5Y-61.505
X63.5Y-64.045
X64.54Y-52.0
X64.545Y-48.0
X65.0Y-70.15
X65.0Y-82.85
X72.84Y-78.453
X73.0Y-84.953
X75.38Y-78.453
X75.54Y-84.953
X77.92Y-78.453
X80.46Y-78.453
X80.5Y-84.953
X83.0Y-78.453
X83.04Y-84.953
X92.5Y-56.672
X92.5Y-69.373
T5
X62.5Y-86.0
X67.5Y-86.0
X90.0Y-74.373
X95.0Y-74.373
T6
X55.495Y-48.453
X55.5Y-71.0
X55.5Y-83.5
X92.5Y-48.372
X92.5Y-83.373
M30
