%TF.GenerationSoftware,KiCad,Pcbnew,8.0.5*%
%TF.CreationDate,2024-10-10T08:51:13-05:00*%
%TF.ProjectId,Block-JAN6418,426c6f63-6b2d-44a4-914e-363431382e6b,rev?*%
%TF.SameCoordinates,Original*%
%TF.FileFunction,Drillmap*%
%TF.FilePolarity,Positive*%
%FSLAX45Y45*%
G04 Gerber Fmt 4.5, Leading zero omitted, Abs format (unit mm)*
G04 Created by KiCad (PCBNEW 8.0.5) date 2024-10-10 08:51:13*
%MOMM*%
%LPD*%
G01*
G04 APERTURE LIST*
%ADD10C,0.050000*%
%ADD11C,0.200000*%
G04 APERTURE END LIST*
D10*
X11150000Y-4000000D02*
G75*
G02*
X10850000Y-4000000I-150000J0D01*
G01*
X10850000Y-4000000D02*
G75*
G02*
X11150000Y-4000000I150000J0D01*
G01*
X5650000Y-4000000D02*
G75*
G02*
X5350000Y-4000000I-150000J0D01*
G01*
X5350000Y-4000000D02*
G75*
G02*
X5650000Y-4000000I150000J0D01*
G01*
X11150000Y-9500000D02*
G75*
G02*
X10850000Y-9500000I-150000J0D01*
G01*
X10850000Y-9500000D02*
G75*
G02*
X11150000Y-9500000I150000J0D01*
G01*
X5650000Y-9500000D02*
G75*
G02*
X5350000Y-9500000I-150000J0D01*
G01*
X5350000Y-9500000D02*
G75*
G02*
X5650000Y-9500000I150000J0D01*
G01*
X5000000Y-3500000D02*
X11500000Y-3500000D01*
X11500000Y-10000000D01*
X5000000Y-10000000D01*
X5000000Y-3500000D01*
D11*
X5258277Y-10313984D02*
X5258277Y-10113984D01*
X5258277Y-10113984D02*
X5305896Y-10113984D01*
X5305896Y-10113984D02*
X5334467Y-10123508D01*
X5334467Y-10123508D02*
X5353515Y-10142555D01*
X5353515Y-10142555D02*
X5363039Y-10161603D01*
X5363039Y-10161603D02*
X5372563Y-10199698D01*
X5372563Y-10199698D02*
X5372563Y-10228270D01*
X5372563Y-10228270D02*
X5363039Y-10266365D01*
X5363039Y-10266365D02*
X5353515Y-10285412D01*
X5353515Y-10285412D02*
X5334467Y-10304460D01*
X5334467Y-10304460D02*
X5305896Y-10313984D01*
X5305896Y-10313984D02*
X5258277Y-10313984D01*
X5458277Y-10313984D02*
X5458277Y-10180650D01*
X5458277Y-10218746D02*
X5467801Y-10199698D01*
X5467801Y-10199698D02*
X5477324Y-10190174D01*
X5477324Y-10190174D02*
X5496372Y-10180650D01*
X5496372Y-10180650D02*
X5515420Y-10180650D01*
X5582086Y-10313984D02*
X5582086Y-10180650D01*
X5582086Y-10113984D02*
X5572563Y-10123508D01*
X5572563Y-10123508D02*
X5582086Y-10133031D01*
X5582086Y-10133031D02*
X5591610Y-10123508D01*
X5591610Y-10123508D02*
X5582086Y-10113984D01*
X5582086Y-10113984D02*
X5582086Y-10133031D01*
X5705896Y-10313984D02*
X5686848Y-10304460D01*
X5686848Y-10304460D02*
X5677324Y-10285412D01*
X5677324Y-10285412D02*
X5677324Y-10113984D01*
X5810658Y-10313984D02*
X5791610Y-10304460D01*
X5791610Y-10304460D02*
X5782086Y-10285412D01*
X5782086Y-10285412D02*
X5782086Y-10113984D01*
X6039229Y-10313984D02*
X6039229Y-10113984D01*
X6039229Y-10113984D02*
X6105896Y-10256841D01*
X6105896Y-10256841D02*
X6172562Y-10113984D01*
X6172562Y-10113984D02*
X6172562Y-10313984D01*
X6353515Y-10313984D02*
X6353515Y-10209222D01*
X6353515Y-10209222D02*
X6343991Y-10190174D01*
X6343991Y-10190174D02*
X6324943Y-10180650D01*
X6324943Y-10180650D02*
X6286848Y-10180650D01*
X6286848Y-10180650D02*
X6267801Y-10190174D01*
X6353515Y-10304460D02*
X6334467Y-10313984D01*
X6334467Y-10313984D02*
X6286848Y-10313984D01*
X6286848Y-10313984D02*
X6267801Y-10304460D01*
X6267801Y-10304460D02*
X6258277Y-10285412D01*
X6258277Y-10285412D02*
X6258277Y-10266365D01*
X6258277Y-10266365D02*
X6267801Y-10247317D01*
X6267801Y-10247317D02*
X6286848Y-10237793D01*
X6286848Y-10237793D02*
X6334467Y-10237793D01*
X6334467Y-10237793D02*
X6353515Y-10228270D01*
X6448753Y-10180650D02*
X6448753Y-10380650D01*
X6448753Y-10190174D02*
X6467801Y-10180650D01*
X6467801Y-10180650D02*
X6505896Y-10180650D01*
X6505896Y-10180650D02*
X6524943Y-10190174D01*
X6524943Y-10190174D02*
X6534467Y-10199698D01*
X6534467Y-10199698D02*
X6543991Y-10218746D01*
X6543991Y-10218746D02*
X6543991Y-10275889D01*
X6543991Y-10275889D02*
X6534467Y-10294936D01*
X6534467Y-10294936D02*
X6524943Y-10304460D01*
X6524943Y-10304460D02*
X6505896Y-10313984D01*
X6505896Y-10313984D02*
X6467801Y-10313984D01*
X6467801Y-10313984D02*
X6448753Y-10304460D01*
X6629705Y-10294936D02*
X6639229Y-10304460D01*
X6639229Y-10304460D02*
X6629705Y-10313984D01*
X6629705Y-10313984D02*
X6620182Y-10304460D01*
X6620182Y-10304460D02*
X6629705Y-10294936D01*
X6629705Y-10294936D02*
X6629705Y-10313984D01*
X6629705Y-10190174D02*
X6639229Y-10199698D01*
X6639229Y-10199698D02*
X6629705Y-10209222D01*
X6629705Y-10209222D02*
X6620182Y-10199698D01*
X6620182Y-10199698D02*
X6629705Y-10190174D01*
X6629705Y-10190174D02*
X6629705Y-10209222D01*
M02*
