%TF.GenerationSoftware,KiCad,Pcbnew,8.0.5*%
%TF.CreationDate,2024-10-10T08:51:13-05:00*%
%TF.ProjectId,Block-JAN6418,426c6f63-6b2d-44a4-914e-363431382e6b,rev?*%
%TF.SameCoordinates,Original*%
%TF.FileFunction,Drillmap*%
%TF.FilePolarity,Positive*%
%FSLAX45Y45*%
G04 Gerber Fmt 4.5, Leading zero omitted, Abs format (unit mm)*
G04 Created by KiCad (PCBNEW 8.0.5) date 2024-10-10 08:51:13*
%MOMM*%
%LPD*%
G01*
G04 APERTURE LIST*
%ADD10C,0.050000*%
%ADD11C,0.200000*%
%ADD12C,0.100000*%
%ADD13C,0.150000*%
G04 APERTURE END LIST*
D10*
X11150000Y-4000000D02*
G75*
G02*
X10850000Y-4000000I-150000J0D01*
G01*
X10850000Y-4000000D02*
G75*
G02*
X11150000Y-4000000I150000J0D01*
G01*
X5650000Y-4000000D02*
G75*
G02*
X5350000Y-4000000I-150000J0D01*
G01*
X5350000Y-4000000D02*
G75*
G02*
X5650000Y-4000000I150000J0D01*
G01*
X11150000Y-9500000D02*
G75*
G02*
X10850000Y-9500000I-150000J0D01*
G01*
X10850000Y-9500000D02*
G75*
G02*
X11150000Y-9500000I150000J0D01*
G01*
X5650000Y-9500000D02*
G75*
G02*
X5350000Y-9500000I-150000J0D01*
G01*
X5350000Y-9500000D02*
G75*
G02*
X5650000Y-9500000I150000J0D01*
G01*
X5000000Y-3500000D02*
X11500000Y-3500000D01*
X11500000Y-10000000D01*
X5000000Y-10000000D01*
X5000000Y-3500000D01*
D11*
D12*
X6077500Y-5900500D02*
X6152500Y-5975500D01*
X6152500Y-5900500D02*
X6077500Y-5975500D01*
X6077500Y-6027500D02*
X6152500Y-6102500D01*
X6152500Y-6027500D02*
X6077500Y-6102500D01*
X6077500Y-6154500D02*
X6152500Y-6229500D01*
X6152500Y-6154500D02*
X6077500Y-6229500D01*
X7075000Y-5667000D02*
G75*
G02*
X6995000Y-5667000I-40000J0D01*
G01*
X6995000Y-5667000D02*
G75*
G02*
X7075000Y-5667000I40000J0D01*
G01*
X7075000Y-5921000D02*
G75*
G02*
X6995000Y-5921000I-40000J0D01*
G01*
X6995000Y-5921000D02*
G75*
G02*
X7075000Y-5921000I40000J0D01*
G01*
X7075000Y-6261000D02*
G75*
G02*
X6995000Y-6261000I-40000J0D01*
G01*
X6995000Y-6261000D02*
G75*
G02*
X7075000Y-6261000I40000J0D01*
G01*
X7075000Y-6515000D02*
G75*
G02*
X6995000Y-6515000I-40000J0D01*
G01*
X6995000Y-6515000D02*
G75*
G02*
X7075000Y-6515000I40000J0D01*
G01*
X7090000Y-4400500D02*
G75*
G02*
X7010000Y-4400500I-40000J0D01*
G01*
X7010000Y-4400500D02*
G75*
G02*
X7090000Y-4400500I40000J0D01*
G01*
X7090000Y-4654500D02*
G75*
G02*
X7010000Y-4654500I-40000J0D01*
G01*
X7010000Y-4654500D02*
G75*
G02*
X7090000Y-4654500I40000J0D01*
G01*
X7090000Y-5046000D02*
G75*
G02*
X7010000Y-5046000I-40000J0D01*
G01*
X7010000Y-5046000D02*
G75*
G02*
X7090000Y-5046000I40000J0D01*
G01*
X7090000Y-5300000D02*
G75*
G02*
X7010000Y-5300000I-40000J0D01*
G01*
X7010000Y-5300000D02*
G75*
G02*
X7090000Y-5300000I40000J0D01*
G01*
X7090000Y-7580000D02*
G75*
G02*
X7010000Y-7580000I-40000J0D01*
G01*
X7010000Y-7580000D02*
G75*
G02*
X7090000Y-7580000I40000J0D01*
G01*
X7090000Y-8850000D02*
G75*
G02*
X7010000Y-8850000I-40000J0D01*
G01*
X7010000Y-8850000D02*
G75*
G02*
X7090000Y-8850000I40000J0D01*
G01*
X8390000Y-8850000D02*
G75*
G02*
X8310000Y-8850000I-40000J0D01*
G01*
X8310000Y-8850000D02*
G75*
G02*
X8390000Y-8850000I40000J0D01*
G01*
X8424000Y-8008000D02*
G75*
G02*
X8344000Y-8008000I-40000J0D01*
G01*
X8344000Y-8008000D02*
G75*
G02*
X8424000Y-8008000I40000J0D01*
G01*
X8644000Y-8850000D02*
G75*
G02*
X8564000Y-8850000I-40000J0D01*
G01*
X8564000Y-8850000D02*
G75*
G02*
X8644000Y-8850000I40000J0D01*
G01*
X8678000Y-8008000D02*
G75*
G02*
X8598000Y-8008000I-40000J0D01*
G01*
X8598000Y-8008000D02*
G75*
G02*
X8678000Y-8008000I40000J0D01*
G01*
X8932000Y-8008000D02*
G75*
G02*
X8852000Y-8008000I-40000J0D01*
G01*
X8852000Y-8008000D02*
G75*
G02*
X8932000Y-8008000I40000J0D01*
G01*
X9157000Y-8850000D02*
G75*
G02*
X9077000Y-8850000I-40000J0D01*
G01*
X9077000Y-8850000D02*
G75*
G02*
X9157000Y-8850000I40000J0D01*
G01*
X9186000Y-8008000D02*
G75*
G02*
X9106000Y-8008000I-40000J0D01*
G01*
X9106000Y-8008000D02*
G75*
G02*
X9186000Y-8008000I40000J0D01*
G01*
X9411000Y-8850000D02*
G75*
G02*
X9331000Y-8850000I-40000J0D01*
G01*
X9331000Y-8850000D02*
G75*
G02*
X9411000Y-8850000I40000J0D01*
G01*
X9440000Y-8008000D02*
G75*
G02*
X9360000Y-8008000I-40000J0D01*
G01*
X9360000Y-8008000D02*
G75*
G02*
X9440000Y-8008000I40000J0D01*
G01*
X10890000Y-5830000D02*
G75*
G02*
X10810000Y-5830000I-40000J0D01*
G01*
X10810000Y-5830000D02*
G75*
G02*
X10890000Y-5830000I40000J0D01*
G01*
X10890000Y-7100000D02*
G75*
G02*
X10810000Y-7100000I-40000J0D01*
G01*
X10810000Y-7100000D02*
G75*
G02*
X10890000Y-7100000I40000J0D01*
G01*
X6550000Y-7050000D02*
X6550000Y-7150000D01*
X6500000Y-7100000D02*
X6600000Y-7100000D01*
X7050000Y-7050000D02*
X7050000Y-7150000D01*
X7000000Y-7100000D02*
X7100000Y-7100000D01*
X10600000Y-7550000D02*
X10600000Y-7650000D01*
X10550000Y-7600000D02*
X10650000Y-7600000D01*
X11100000Y-7550000D02*
X11100000Y-7650000D01*
X11050000Y-7600000D02*
X11150000Y-7600000D01*
D13*
X5753033Y-5053034D02*
X5753033Y-4946967D01*
X5646966Y-4946967D01*
X5646966Y-5053034D01*
X5753033Y-5053034D01*
X5753033Y-7153033D02*
X5753033Y-7046966D01*
X5646966Y-7046966D01*
X5646966Y-7153033D01*
X5753033Y-7153033D01*
X5753033Y-8553034D02*
X5753033Y-8446967D01*
X5646966Y-8446967D01*
X5646966Y-8553034D01*
X5753033Y-8553034D01*
X10903034Y-5053034D02*
X10903034Y-4946967D01*
X10796967Y-4946967D01*
X10796967Y-5053034D01*
X10903034Y-5053034D01*
X10903034Y-8553034D02*
X10903034Y-8446967D01*
X10796967Y-8446967D01*
X10796967Y-8553034D01*
X10903034Y-8553034D01*
D11*
X5258277Y-10313984D02*
X5258277Y-10113984D01*
X5258277Y-10113984D02*
X5305896Y-10113984D01*
X5305896Y-10113984D02*
X5334467Y-10123508D01*
X5334467Y-10123508D02*
X5353515Y-10142555D01*
X5353515Y-10142555D02*
X5363039Y-10161603D01*
X5363039Y-10161603D02*
X5372563Y-10199698D01*
X5372563Y-10199698D02*
X5372563Y-10228270D01*
X5372563Y-10228270D02*
X5363039Y-10266365D01*
X5363039Y-10266365D02*
X5353515Y-10285412D01*
X5353515Y-10285412D02*
X5334467Y-10304460D01*
X5334467Y-10304460D02*
X5305896Y-10313984D01*
X5305896Y-10313984D02*
X5258277Y-10313984D01*
X5458277Y-10313984D02*
X5458277Y-10180650D01*
X5458277Y-10218746D02*
X5467801Y-10199698D01*
X5467801Y-10199698D02*
X5477324Y-10190174D01*
X5477324Y-10190174D02*
X5496372Y-10180650D01*
X5496372Y-10180650D02*
X5515420Y-10180650D01*
X5582086Y-10313984D02*
X5582086Y-10180650D01*
X5582086Y-10113984D02*
X5572563Y-10123508D01*
X5572563Y-10123508D02*
X5582086Y-10133031D01*
X5582086Y-10133031D02*
X5591610Y-10123508D01*
X5591610Y-10123508D02*
X5582086Y-10113984D01*
X5582086Y-10113984D02*
X5582086Y-10133031D01*
X5705896Y-10313984D02*
X5686848Y-10304460D01*
X5686848Y-10304460D02*
X5677324Y-10285412D01*
X5677324Y-10285412D02*
X5677324Y-10113984D01*
X5810658Y-10313984D02*
X5791610Y-10304460D01*
X5791610Y-10304460D02*
X5782086Y-10285412D01*
X5782086Y-10285412D02*
X5782086Y-10113984D01*
X6039229Y-10313984D02*
X6039229Y-10113984D01*
X6039229Y-10113984D02*
X6105896Y-10256841D01*
X6105896Y-10256841D02*
X6172562Y-10113984D01*
X6172562Y-10113984D02*
X6172562Y-10313984D01*
X6353515Y-10313984D02*
X6353515Y-10209222D01*
X6353515Y-10209222D02*
X6343991Y-10190174D01*
X6343991Y-10190174D02*
X6324943Y-10180650D01*
X6324943Y-10180650D02*
X6286848Y-10180650D01*
X6286848Y-10180650D02*
X6267801Y-10190174D01*
X6353515Y-10304460D02*
X6334467Y-10313984D01*
X6334467Y-10313984D02*
X6286848Y-10313984D01*
X6286848Y-10313984D02*
X6267801Y-10304460D01*
X6267801Y-10304460D02*
X6258277Y-10285412D01*
X6258277Y-10285412D02*
X6258277Y-10266365D01*
X6258277Y-10266365D02*
X6267801Y-10247317D01*
X6267801Y-10247317D02*
X6286848Y-10237793D01*
X6286848Y-10237793D02*
X6334467Y-10237793D01*
X6334467Y-10237793D02*
X6353515Y-10228270D01*
X6448753Y-10180650D02*
X6448753Y-10380650D01*
X6448753Y-10190174D02*
X6467801Y-10180650D01*
X6467801Y-10180650D02*
X6505896Y-10180650D01*
X6505896Y-10180650D02*
X6524943Y-10190174D01*
X6524943Y-10190174D02*
X6534467Y-10199698D01*
X6534467Y-10199698D02*
X6543991Y-10218746D01*
X6543991Y-10218746D02*
X6543991Y-10275889D01*
X6543991Y-10275889D02*
X6534467Y-10294936D01*
X6534467Y-10294936D02*
X6524943Y-10304460D01*
X6524943Y-10304460D02*
X6505896Y-10313984D01*
X6505896Y-10313984D02*
X6467801Y-10313984D01*
X6467801Y-10313984D02*
X6448753Y-10304460D01*
X6629705Y-10294936D02*
X6639229Y-10304460D01*
X6639229Y-10304460D02*
X6629705Y-10313984D01*
X6629705Y-10313984D02*
X6620182Y-10304460D01*
X6620182Y-10304460D02*
X6629705Y-10294936D01*
X6629705Y-10294936D02*
X6629705Y-10313984D01*
X6629705Y-10190174D02*
X6639229Y-10199698D01*
X6639229Y-10199698D02*
X6629705Y-10209222D01*
X6629705Y-10209222D02*
X6620182Y-10199698D01*
X6620182Y-10199698D02*
X6629705Y-10190174D01*
X6629705Y-10190174D02*
X6629705Y-10209222D01*
D12*
X4922500Y-10605000D02*
X4997500Y-10680000D01*
X4997500Y-10605000D02*
X4922500Y-10680000D01*
D11*
X5296372Y-10533984D02*
X5315420Y-10533984D01*
X5315420Y-10533984D02*
X5334467Y-10543508D01*
X5334467Y-10543508D02*
X5343991Y-10553031D01*
X5343991Y-10553031D02*
X5353515Y-10572079D01*
X5353515Y-10572079D02*
X5363039Y-10610174D01*
X5363039Y-10610174D02*
X5363039Y-10657793D01*
X5363039Y-10657793D02*
X5353515Y-10695889D01*
X5353515Y-10695889D02*
X5343991Y-10714936D01*
X5343991Y-10714936D02*
X5334467Y-10724460D01*
X5334467Y-10724460D02*
X5315420Y-10733984D01*
X5315420Y-10733984D02*
X5296372Y-10733984D01*
X5296372Y-10733984D02*
X5277324Y-10724460D01*
X5277324Y-10724460D02*
X5267801Y-10714936D01*
X5267801Y-10714936D02*
X5258277Y-10695889D01*
X5258277Y-10695889D02*
X5248753Y-10657793D01*
X5248753Y-10657793D02*
X5248753Y-10610174D01*
X5248753Y-10610174D02*
X5258277Y-10572079D01*
X5258277Y-10572079D02*
X5267801Y-10553031D01*
X5267801Y-10553031D02*
X5277324Y-10543508D01*
X5277324Y-10543508D02*
X5296372Y-10533984D01*
X5448753Y-10714936D02*
X5458277Y-10724460D01*
X5458277Y-10724460D02*
X5448753Y-10733984D01*
X5448753Y-10733984D02*
X5439229Y-10724460D01*
X5439229Y-10724460D02*
X5448753Y-10714936D01*
X5448753Y-10714936D02*
X5448753Y-10733984D01*
X5524944Y-10533984D02*
X5658277Y-10533984D01*
X5658277Y-10533984D02*
X5572563Y-10733984D01*
X5829705Y-10533984D02*
X5734467Y-10533984D01*
X5734467Y-10533984D02*
X5724943Y-10629222D01*
X5724943Y-10629222D02*
X5734467Y-10619698D01*
X5734467Y-10619698D02*
X5753515Y-10610174D01*
X5753515Y-10610174D02*
X5801134Y-10610174D01*
X5801134Y-10610174D02*
X5820182Y-10619698D01*
X5820182Y-10619698D02*
X5829705Y-10629222D01*
X5829705Y-10629222D02*
X5839229Y-10648270D01*
X5839229Y-10648270D02*
X5839229Y-10695889D01*
X5839229Y-10695889D02*
X5829705Y-10714936D01*
X5829705Y-10714936D02*
X5820182Y-10724460D01*
X5820182Y-10724460D02*
X5801134Y-10733984D01*
X5801134Y-10733984D02*
X5753515Y-10733984D01*
X5753515Y-10733984D02*
X5734467Y-10724460D01*
X5734467Y-10724460D02*
X5724943Y-10714936D01*
X5963039Y-10533984D02*
X5982086Y-10533984D01*
X5982086Y-10533984D02*
X6001134Y-10543508D01*
X6001134Y-10543508D02*
X6010658Y-10553031D01*
X6010658Y-10553031D02*
X6020182Y-10572079D01*
X6020182Y-10572079D02*
X6029705Y-10610174D01*
X6029705Y-10610174D02*
X6029705Y-10657793D01*
X6029705Y-10657793D02*
X6020182Y-10695889D01*
X6020182Y-10695889D02*
X6010658Y-10714936D01*
X6010658Y-10714936D02*
X6001134Y-10724460D01*
X6001134Y-10724460D02*
X5982086Y-10733984D01*
X5982086Y-10733984D02*
X5963039Y-10733984D01*
X5963039Y-10733984D02*
X5943991Y-10724460D01*
X5943991Y-10724460D02*
X5934467Y-10714936D01*
X5934467Y-10714936D02*
X5924943Y-10695889D01*
X5924943Y-10695889D02*
X5915420Y-10657793D01*
X5915420Y-10657793D02*
X5915420Y-10610174D01*
X5915420Y-10610174D02*
X5924943Y-10572079D01*
X5924943Y-10572079D02*
X5934467Y-10553031D01*
X5934467Y-10553031D02*
X5943991Y-10543508D01*
X5943991Y-10543508D02*
X5963039Y-10533984D01*
X6115420Y-10733984D02*
X6115420Y-10600650D01*
X6115420Y-10619698D02*
X6124943Y-10610174D01*
X6124943Y-10610174D02*
X6143991Y-10600650D01*
X6143991Y-10600650D02*
X6172563Y-10600650D01*
X6172563Y-10600650D02*
X6191610Y-10610174D01*
X6191610Y-10610174D02*
X6201134Y-10629222D01*
X6201134Y-10629222D02*
X6201134Y-10733984D01*
X6201134Y-10629222D02*
X6210658Y-10610174D01*
X6210658Y-10610174D02*
X6229705Y-10600650D01*
X6229705Y-10600650D02*
X6258277Y-10600650D01*
X6258277Y-10600650D02*
X6277324Y-10610174D01*
X6277324Y-10610174D02*
X6286848Y-10629222D01*
X6286848Y-10629222D02*
X6286848Y-10733984D01*
X6382086Y-10733984D02*
X6382086Y-10600650D01*
X6382086Y-10619698D02*
X6391610Y-10610174D01*
X6391610Y-10610174D02*
X6410658Y-10600650D01*
X6410658Y-10600650D02*
X6439229Y-10600650D01*
X6439229Y-10600650D02*
X6458277Y-10610174D01*
X6458277Y-10610174D02*
X6467801Y-10629222D01*
X6467801Y-10629222D02*
X6467801Y-10733984D01*
X6467801Y-10629222D02*
X6477324Y-10610174D01*
X6477324Y-10610174D02*
X6496372Y-10600650D01*
X6496372Y-10600650D02*
X6524943Y-10600650D01*
X6524943Y-10600650D02*
X6543991Y-10610174D01*
X6543991Y-10610174D02*
X6553515Y-10629222D01*
X6553515Y-10629222D02*
X6553515Y-10733984D01*
X6943991Y-10524460D02*
X6772563Y-10781603D01*
X7201134Y-10533984D02*
X7220182Y-10533984D01*
X7220182Y-10533984D02*
X7239229Y-10543508D01*
X7239229Y-10543508D02*
X7248753Y-10553031D01*
X7248753Y-10553031D02*
X7258277Y-10572079D01*
X7258277Y-10572079D02*
X7267801Y-10610174D01*
X7267801Y-10610174D02*
X7267801Y-10657793D01*
X7267801Y-10657793D02*
X7258277Y-10695889D01*
X7258277Y-10695889D02*
X7248753Y-10714936D01*
X7248753Y-10714936D02*
X7239229Y-10724460D01*
X7239229Y-10724460D02*
X7220182Y-10733984D01*
X7220182Y-10733984D02*
X7201134Y-10733984D01*
X7201134Y-10733984D02*
X7182086Y-10724460D01*
X7182086Y-10724460D02*
X7172563Y-10714936D01*
X7172563Y-10714936D02*
X7163039Y-10695889D01*
X7163039Y-10695889D02*
X7153515Y-10657793D01*
X7153515Y-10657793D02*
X7153515Y-10610174D01*
X7153515Y-10610174D02*
X7163039Y-10572079D01*
X7163039Y-10572079D02*
X7172563Y-10553031D01*
X7172563Y-10553031D02*
X7182086Y-10543508D01*
X7182086Y-10543508D02*
X7201134Y-10533984D01*
X7353515Y-10714936D02*
X7363039Y-10724460D01*
X7363039Y-10724460D02*
X7353515Y-10733984D01*
X7353515Y-10733984D02*
X7343991Y-10724460D01*
X7343991Y-10724460D02*
X7353515Y-10714936D01*
X7353515Y-10714936D02*
X7353515Y-10733984D01*
X7486848Y-10533984D02*
X7505896Y-10533984D01*
X7505896Y-10533984D02*
X7524944Y-10543508D01*
X7524944Y-10543508D02*
X7534467Y-10553031D01*
X7534467Y-10553031D02*
X7543991Y-10572079D01*
X7543991Y-10572079D02*
X7553515Y-10610174D01*
X7553515Y-10610174D02*
X7553515Y-10657793D01*
X7553515Y-10657793D02*
X7543991Y-10695889D01*
X7543991Y-10695889D02*
X7534467Y-10714936D01*
X7534467Y-10714936D02*
X7524944Y-10724460D01*
X7524944Y-10724460D02*
X7505896Y-10733984D01*
X7505896Y-10733984D02*
X7486848Y-10733984D01*
X7486848Y-10733984D02*
X7467801Y-10724460D01*
X7467801Y-10724460D02*
X7458277Y-10714936D01*
X7458277Y-10714936D02*
X7448753Y-10695889D01*
X7448753Y-10695889D02*
X7439229Y-10657793D01*
X7439229Y-10657793D02*
X7439229Y-10610174D01*
X7439229Y-10610174D02*
X7448753Y-10572079D01*
X7448753Y-10572079D02*
X7458277Y-10553031D01*
X7458277Y-10553031D02*
X7467801Y-10543508D01*
X7467801Y-10543508D02*
X7486848Y-10533984D01*
X7629706Y-10553031D02*
X7639229Y-10543508D01*
X7639229Y-10543508D02*
X7658277Y-10533984D01*
X7658277Y-10533984D02*
X7705896Y-10533984D01*
X7705896Y-10533984D02*
X7724944Y-10543508D01*
X7724944Y-10543508D02*
X7734467Y-10553031D01*
X7734467Y-10553031D02*
X7743991Y-10572079D01*
X7743991Y-10572079D02*
X7743991Y-10591127D01*
X7743991Y-10591127D02*
X7734467Y-10619698D01*
X7734467Y-10619698D02*
X7620182Y-10733984D01*
X7620182Y-10733984D02*
X7743991Y-10733984D01*
X7839229Y-10733984D02*
X7877325Y-10733984D01*
X7877325Y-10733984D02*
X7896372Y-10724460D01*
X7896372Y-10724460D02*
X7905896Y-10714936D01*
X7905896Y-10714936D02*
X7924944Y-10686365D01*
X7924944Y-10686365D02*
X7934467Y-10648270D01*
X7934467Y-10648270D02*
X7934467Y-10572079D01*
X7934467Y-10572079D02*
X7924944Y-10553031D01*
X7924944Y-10553031D02*
X7915420Y-10543508D01*
X7915420Y-10543508D02*
X7896372Y-10533984D01*
X7896372Y-10533984D02*
X7858277Y-10533984D01*
X7858277Y-10533984D02*
X7839229Y-10543508D01*
X7839229Y-10543508D02*
X7829706Y-10553031D01*
X7829706Y-10553031D02*
X7820182Y-10572079D01*
X7820182Y-10572079D02*
X7820182Y-10619698D01*
X7820182Y-10619698D02*
X7829706Y-10638746D01*
X7829706Y-10638746D02*
X7839229Y-10648270D01*
X7839229Y-10648270D02*
X7858277Y-10657793D01*
X7858277Y-10657793D02*
X7896372Y-10657793D01*
X7896372Y-10657793D02*
X7915420Y-10648270D01*
X7915420Y-10648270D02*
X7924944Y-10638746D01*
X7924944Y-10638746D02*
X7934467Y-10619698D01*
X8115420Y-10533984D02*
X8020182Y-10533984D01*
X8020182Y-10533984D02*
X8010658Y-10629222D01*
X8010658Y-10629222D02*
X8020182Y-10619698D01*
X8020182Y-10619698D02*
X8039229Y-10610174D01*
X8039229Y-10610174D02*
X8086848Y-10610174D01*
X8086848Y-10610174D02*
X8105896Y-10619698D01*
X8105896Y-10619698D02*
X8115420Y-10629222D01*
X8115420Y-10629222D02*
X8124944Y-10648270D01*
X8124944Y-10648270D02*
X8124944Y-10695889D01*
X8124944Y-10695889D02*
X8115420Y-10714936D01*
X8115420Y-10714936D02*
X8105896Y-10724460D01*
X8105896Y-10724460D02*
X8086848Y-10733984D01*
X8086848Y-10733984D02*
X8039229Y-10733984D01*
X8039229Y-10733984D02*
X8020182Y-10724460D01*
X8020182Y-10724460D02*
X8010658Y-10714936D01*
X8201134Y-10533984D02*
X8201134Y-10572079D01*
X8277325Y-10533984D02*
X8277325Y-10572079D01*
X8572563Y-10810174D02*
X8563039Y-10800650D01*
X8563039Y-10800650D02*
X8543991Y-10772079D01*
X8543991Y-10772079D02*
X8534468Y-10753031D01*
X8534468Y-10753031D02*
X8524944Y-10724460D01*
X8524944Y-10724460D02*
X8515420Y-10676841D01*
X8515420Y-10676841D02*
X8515420Y-10638746D01*
X8515420Y-10638746D02*
X8524944Y-10591127D01*
X8524944Y-10591127D02*
X8534468Y-10562555D01*
X8534468Y-10562555D02*
X8543991Y-10543508D01*
X8543991Y-10543508D02*
X8563039Y-10514936D01*
X8563039Y-10514936D02*
X8572563Y-10505412D01*
X8629706Y-10533984D02*
X8753515Y-10533984D01*
X8753515Y-10533984D02*
X8686849Y-10610174D01*
X8686849Y-10610174D02*
X8715420Y-10610174D01*
X8715420Y-10610174D02*
X8734468Y-10619698D01*
X8734468Y-10619698D02*
X8743991Y-10629222D01*
X8743991Y-10629222D02*
X8753515Y-10648270D01*
X8753515Y-10648270D02*
X8753515Y-10695889D01*
X8753515Y-10695889D02*
X8743991Y-10714936D01*
X8743991Y-10714936D02*
X8734468Y-10724460D01*
X8734468Y-10724460D02*
X8715420Y-10733984D01*
X8715420Y-10733984D02*
X8658277Y-10733984D01*
X8658277Y-10733984D02*
X8639230Y-10724460D01*
X8639230Y-10724460D02*
X8629706Y-10714936D01*
X8991611Y-10733984D02*
X8991611Y-10533984D01*
X9077325Y-10733984D02*
X9077325Y-10629222D01*
X9077325Y-10629222D02*
X9067801Y-10610174D01*
X9067801Y-10610174D02*
X9048753Y-10600650D01*
X9048753Y-10600650D02*
X9020182Y-10600650D01*
X9020182Y-10600650D02*
X9001134Y-10610174D01*
X9001134Y-10610174D02*
X8991611Y-10619698D01*
X9201134Y-10733984D02*
X9182087Y-10724460D01*
X9182087Y-10724460D02*
X9172563Y-10714936D01*
X9172563Y-10714936D02*
X9163039Y-10695889D01*
X9163039Y-10695889D02*
X9163039Y-10638746D01*
X9163039Y-10638746D02*
X9172563Y-10619698D01*
X9172563Y-10619698D02*
X9182087Y-10610174D01*
X9182087Y-10610174D02*
X9201134Y-10600650D01*
X9201134Y-10600650D02*
X9229706Y-10600650D01*
X9229706Y-10600650D02*
X9248753Y-10610174D01*
X9248753Y-10610174D02*
X9258277Y-10619698D01*
X9258277Y-10619698D02*
X9267801Y-10638746D01*
X9267801Y-10638746D02*
X9267801Y-10695889D01*
X9267801Y-10695889D02*
X9258277Y-10714936D01*
X9258277Y-10714936D02*
X9248753Y-10724460D01*
X9248753Y-10724460D02*
X9229706Y-10733984D01*
X9229706Y-10733984D02*
X9201134Y-10733984D01*
X9382087Y-10733984D02*
X9363039Y-10724460D01*
X9363039Y-10724460D02*
X9353515Y-10705412D01*
X9353515Y-10705412D02*
X9353515Y-10533984D01*
X9534468Y-10724460D02*
X9515420Y-10733984D01*
X9515420Y-10733984D02*
X9477325Y-10733984D01*
X9477325Y-10733984D02*
X9458277Y-10724460D01*
X9458277Y-10724460D02*
X9448753Y-10705412D01*
X9448753Y-10705412D02*
X9448753Y-10629222D01*
X9448753Y-10629222D02*
X9458277Y-10610174D01*
X9458277Y-10610174D02*
X9477325Y-10600650D01*
X9477325Y-10600650D02*
X9515420Y-10600650D01*
X9515420Y-10600650D02*
X9534468Y-10610174D01*
X9534468Y-10610174D02*
X9543992Y-10629222D01*
X9543992Y-10629222D02*
X9543992Y-10648270D01*
X9543992Y-10648270D02*
X9448753Y-10667317D01*
X9620182Y-10724460D02*
X9639230Y-10733984D01*
X9639230Y-10733984D02*
X9677325Y-10733984D01*
X9677325Y-10733984D02*
X9696373Y-10724460D01*
X9696373Y-10724460D02*
X9705896Y-10705412D01*
X9705896Y-10705412D02*
X9705896Y-10695889D01*
X9705896Y-10695889D02*
X9696373Y-10676841D01*
X9696373Y-10676841D02*
X9677325Y-10667317D01*
X9677325Y-10667317D02*
X9648753Y-10667317D01*
X9648753Y-10667317D02*
X9629706Y-10657793D01*
X9629706Y-10657793D02*
X9620182Y-10638746D01*
X9620182Y-10638746D02*
X9620182Y-10629222D01*
X9620182Y-10629222D02*
X9629706Y-10610174D01*
X9629706Y-10610174D02*
X9648753Y-10600650D01*
X9648753Y-10600650D02*
X9677325Y-10600650D01*
X9677325Y-10600650D02*
X9696373Y-10610174D01*
X9772563Y-10810174D02*
X9782087Y-10800650D01*
X9782087Y-10800650D02*
X9801134Y-10772079D01*
X9801134Y-10772079D02*
X9810658Y-10753031D01*
X9810658Y-10753031D02*
X9820182Y-10724460D01*
X9820182Y-10724460D02*
X9829706Y-10676841D01*
X9829706Y-10676841D02*
X9829706Y-10638746D01*
X9829706Y-10638746D02*
X9820182Y-10591127D01*
X9820182Y-10591127D02*
X9810658Y-10562555D01*
X9810658Y-10562555D02*
X9801134Y-10543508D01*
X9801134Y-10543508D02*
X9782087Y-10514936D01*
X9782087Y-10514936D02*
X9772563Y-10505412D01*
D12*
X4997500Y-10906500D02*
G75*
G02*
X4917500Y-10906500I-40000J0D01*
G01*
X4917500Y-10906500D02*
G75*
G02*
X4997500Y-10906500I40000J0D01*
G01*
D11*
X5296372Y-10797984D02*
X5315420Y-10797984D01*
X5315420Y-10797984D02*
X5334467Y-10807508D01*
X5334467Y-10807508D02*
X5343991Y-10817031D01*
X5343991Y-10817031D02*
X5353515Y-10836079D01*
X5353515Y-10836079D02*
X5363039Y-10874174D01*
X5363039Y-10874174D02*
X5363039Y-10921793D01*
X5363039Y-10921793D02*
X5353515Y-10959889D01*
X5353515Y-10959889D02*
X5343991Y-10978936D01*
X5343991Y-10978936D02*
X5334467Y-10988460D01*
X5334467Y-10988460D02*
X5315420Y-10997984D01*
X5315420Y-10997984D02*
X5296372Y-10997984D01*
X5296372Y-10997984D02*
X5277324Y-10988460D01*
X5277324Y-10988460D02*
X5267801Y-10978936D01*
X5267801Y-10978936D02*
X5258277Y-10959889D01*
X5258277Y-10959889D02*
X5248753Y-10921793D01*
X5248753Y-10921793D02*
X5248753Y-10874174D01*
X5248753Y-10874174D02*
X5258277Y-10836079D01*
X5258277Y-10836079D02*
X5267801Y-10817031D01*
X5267801Y-10817031D02*
X5277324Y-10807508D01*
X5277324Y-10807508D02*
X5296372Y-10797984D01*
X5448753Y-10978936D02*
X5458277Y-10988460D01*
X5458277Y-10988460D02*
X5448753Y-10997984D01*
X5448753Y-10997984D02*
X5439229Y-10988460D01*
X5439229Y-10988460D02*
X5448753Y-10978936D01*
X5448753Y-10978936D02*
X5448753Y-10997984D01*
X5572563Y-10883698D02*
X5553515Y-10874174D01*
X5553515Y-10874174D02*
X5543991Y-10864650D01*
X5543991Y-10864650D02*
X5534467Y-10845603D01*
X5534467Y-10845603D02*
X5534467Y-10836079D01*
X5534467Y-10836079D02*
X5543991Y-10817031D01*
X5543991Y-10817031D02*
X5553515Y-10807508D01*
X5553515Y-10807508D02*
X5572563Y-10797984D01*
X5572563Y-10797984D02*
X5610658Y-10797984D01*
X5610658Y-10797984D02*
X5629705Y-10807508D01*
X5629705Y-10807508D02*
X5639229Y-10817031D01*
X5639229Y-10817031D02*
X5648753Y-10836079D01*
X5648753Y-10836079D02*
X5648753Y-10845603D01*
X5648753Y-10845603D02*
X5639229Y-10864650D01*
X5639229Y-10864650D02*
X5629705Y-10874174D01*
X5629705Y-10874174D02*
X5610658Y-10883698D01*
X5610658Y-10883698D02*
X5572563Y-10883698D01*
X5572563Y-10883698D02*
X5553515Y-10893222D01*
X5553515Y-10893222D02*
X5543991Y-10902746D01*
X5543991Y-10902746D02*
X5534467Y-10921793D01*
X5534467Y-10921793D02*
X5534467Y-10959889D01*
X5534467Y-10959889D02*
X5543991Y-10978936D01*
X5543991Y-10978936D02*
X5553515Y-10988460D01*
X5553515Y-10988460D02*
X5572563Y-10997984D01*
X5572563Y-10997984D02*
X5610658Y-10997984D01*
X5610658Y-10997984D02*
X5629705Y-10988460D01*
X5629705Y-10988460D02*
X5639229Y-10978936D01*
X5639229Y-10978936D02*
X5648753Y-10959889D01*
X5648753Y-10959889D02*
X5648753Y-10921793D01*
X5648753Y-10921793D02*
X5639229Y-10902746D01*
X5639229Y-10902746D02*
X5629705Y-10893222D01*
X5629705Y-10893222D02*
X5610658Y-10883698D01*
X5772562Y-10797984D02*
X5791610Y-10797984D01*
X5791610Y-10797984D02*
X5810658Y-10807508D01*
X5810658Y-10807508D02*
X5820182Y-10817031D01*
X5820182Y-10817031D02*
X5829705Y-10836079D01*
X5829705Y-10836079D02*
X5839229Y-10874174D01*
X5839229Y-10874174D02*
X5839229Y-10921793D01*
X5839229Y-10921793D02*
X5829705Y-10959889D01*
X5829705Y-10959889D02*
X5820182Y-10978936D01*
X5820182Y-10978936D02*
X5810658Y-10988460D01*
X5810658Y-10988460D02*
X5791610Y-10997984D01*
X5791610Y-10997984D02*
X5772562Y-10997984D01*
X5772562Y-10997984D02*
X5753515Y-10988460D01*
X5753515Y-10988460D02*
X5743991Y-10978936D01*
X5743991Y-10978936D02*
X5734467Y-10959889D01*
X5734467Y-10959889D02*
X5724943Y-10921793D01*
X5724943Y-10921793D02*
X5724943Y-10874174D01*
X5724943Y-10874174D02*
X5734467Y-10836079D01*
X5734467Y-10836079D02*
X5743991Y-10817031D01*
X5743991Y-10817031D02*
X5753515Y-10807508D01*
X5753515Y-10807508D02*
X5772562Y-10797984D01*
X5963039Y-10797984D02*
X5982086Y-10797984D01*
X5982086Y-10797984D02*
X6001134Y-10807508D01*
X6001134Y-10807508D02*
X6010658Y-10817031D01*
X6010658Y-10817031D02*
X6020182Y-10836079D01*
X6020182Y-10836079D02*
X6029705Y-10874174D01*
X6029705Y-10874174D02*
X6029705Y-10921793D01*
X6029705Y-10921793D02*
X6020182Y-10959889D01*
X6020182Y-10959889D02*
X6010658Y-10978936D01*
X6010658Y-10978936D02*
X6001134Y-10988460D01*
X6001134Y-10988460D02*
X5982086Y-10997984D01*
X5982086Y-10997984D02*
X5963039Y-10997984D01*
X5963039Y-10997984D02*
X5943991Y-10988460D01*
X5943991Y-10988460D02*
X5934467Y-10978936D01*
X5934467Y-10978936D02*
X5924943Y-10959889D01*
X5924943Y-10959889D02*
X5915420Y-10921793D01*
X5915420Y-10921793D02*
X5915420Y-10874174D01*
X5915420Y-10874174D02*
X5924943Y-10836079D01*
X5924943Y-10836079D02*
X5934467Y-10817031D01*
X5934467Y-10817031D02*
X5943991Y-10807508D01*
X5943991Y-10807508D02*
X5963039Y-10797984D01*
X6115420Y-10997984D02*
X6115420Y-10864650D01*
X6115420Y-10883698D02*
X6124943Y-10874174D01*
X6124943Y-10874174D02*
X6143991Y-10864650D01*
X6143991Y-10864650D02*
X6172563Y-10864650D01*
X6172563Y-10864650D02*
X6191610Y-10874174D01*
X6191610Y-10874174D02*
X6201134Y-10893222D01*
X6201134Y-10893222D02*
X6201134Y-10997984D01*
X6201134Y-10893222D02*
X6210658Y-10874174D01*
X6210658Y-10874174D02*
X6229705Y-10864650D01*
X6229705Y-10864650D02*
X6258277Y-10864650D01*
X6258277Y-10864650D02*
X6277324Y-10874174D01*
X6277324Y-10874174D02*
X6286848Y-10893222D01*
X6286848Y-10893222D02*
X6286848Y-10997984D01*
X6382086Y-10997984D02*
X6382086Y-10864650D01*
X6382086Y-10883698D02*
X6391610Y-10874174D01*
X6391610Y-10874174D02*
X6410658Y-10864650D01*
X6410658Y-10864650D02*
X6439229Y-10864650D01*
X6439229Y-10864650D02*
X6458277Y-10874174D01*
X6458277Y-10874174D02*
X6467801Y-10893222D01*
X6467801Y-10893222D02*
X6467801Y-10997984D01*
X6467801Y-10893222D02*
X6477324Y-10874174D01*
X6477324Y-10874174D02*
X6496372Y-10864650D01*
X6496372Y-10864650D02*
X6524943Y-10864650D01*
X6524943Y-10864650D02*
X6543991Y-10874174D01*
X6543991Y-10874174D02*
X6553515Y-10893222D01*
X6553515Y-10893222D02*
X6553515Y-10997984D01*
X6943991Y-10788460D02*
X6772563Y-11045603D01*
X7201134Y-10797984D02*
X7220182Y-10797984D01*
X7220182Y-10797984D02*
X7239229Y-10807508D01*
X7239229Y-10807508D02*
X7248753Y-10817031D01*
X7248753Y-10817031D02*
X7258277Y-10836079D01*
X7258277Y-10836079D02*
X7267801Y-10874174D01*
X7267801Y-10874174D02*
X7267801Y-10921793D01*
X7267801Y-10921793D02*
X7258277Y-10959889D01*
X7258277Y-10959889D02*
X7248753Y-10978936D01*
X7248753Y-10978936D02*
X7239229Y-10988460D01*
X7239229Y-10988460D02*
X7220182Y-10997984D01*
X7220182Y-10997984D02*
X7201134Y-10997984D01*
X7201134Y-10997984D02*
X7182086Y-10988460D01*
X7182086Y-10988460D02*
X7172563Y-10978936D01*
X7172563Y-10978936D02*
X7163039Y-10959889D01*
X7163039Y-10959889D02*
X7153515Y-10921793D01*
X7153515Y-10921793D02*
X7153515Y-10874174D01*
X7153515Y-10874174D02*
X7163039Y-10836079D01*
X7163039Y-10836079D02*
X7172563Y-10817031D01*
X7172563Y-10817031D02*
X7182086Y-10807508D01*
X7182086Y-10807508D02*
X7201134Y-10797984D01*
X7353515Y-10978936D02*
X7363039Y-10988460D01*
X7363039Y-10988460D02*
X7353515Y-10997984D01*
X7353515Y-10997984D02*
X7343991Y-10988460D01*
X7343991Y-10988460D02*
X7353515Y-10978936D01*
X7353515Y-10978936D02*
X7353515Y-10997984D01*
X7486848Y-10797984D02*
X7505896Y-10797984D01*
X7505896Y-10797984D02*
X7524944Y-10807508D01*
X7524944Y-10807508D02*
X7534467Y-10817031D01*
X7534467Y-10817031D02*
X7543991Y-10836079D01*
X7543991Y-10836079D02*
X7553515Y-10874174D01*
X7553515Y-10874174D02*
X7553515Y-10921793D01*
X7553515Y-10921793D02*
X7543991Y-10959889D01*
X7543991Y-10959889D02*
X7534467Y-10978936D01*
X7534467Y-10978936D02*
X7524944Y-10988460D01*
X7524944Y-10988460D02*
X7505896Y-10997984D01*
X7505896Y-10997984D02*
X7486848Y-10997984D01*
X7486848Y-10997984D02*
X7467801Y-10988460D01*
X7467801Y-10988460D02*
X7458277Y-10978936D01*
X7458277Y-10978936D02*
X7448753Y-10959889D01*
X7448753Y-10959889D02*
X7439229Y-10921793D01*
X7439229Y-10921793D02*
X7439229Y-10874174D01*
X7439229Y-10874174D02*
X7448753Y-10836079D01*
X7448753Y-10836079D02*
X7458277Y-10817031D01*
X7458277Y-10817031D02*
X7467801Y-10807508D01*
X7467801Y-10807508D02*
X7486848Y-10797984D01*
X7620182Y-10797984D02*
X7743991Y-10797984D01*
X7743991Y-10797984D02*
X7677325Y-10874174D01*
X7677325Y-10874174D02*
X7705896Y-10874174D01*
X7705896Y-10874174D02*
X7724944Y-10883698D01*
X7724944Y-10883698D02*
X7734467Y-10893222D01*
X7734467Y-10893222D02*
X7743991Y-10912270D01*
X7743991Y-10912270D02*
X7743991Y-10959889D01*
X7743991Y-10959889D02*
X7734467Y-10978936D01*
X7734467Y-10978936D02*
X7724944Y-10988460D01*
X7724944Y-10988460D02*
X7705896Y-10997984D01*
X7705896Y-10997984D02*
X7648753Y-10997984D01*
X7648753Y-10997984D02*
X7629706Y-10988460D01*
X7629706Y-10988460D02*
X7620182Y-10978936D01*
X7934467Y-10997984D02*
X7820182Y-10997984D01*
X7877325Y-10997984D02*
X7877325Y-10797984D01*
X7877325Y-10797984D02*
X7858277Y-10826555D01*
X7858277Y-10826555D02*
X7839229Y-10845603D01*
X7839229Y-10845603D02*
X7820182Y-10855127D01*
X8115420Y-10797984D02*
X8020182Y-10797984D01*
X8020182Y-10797984D02*
X8010658Y-10893222D01*
X8010658Y-10893222D02*
X8020182Y-10883698D01*
X8020182Y-10883698D02*
X8039229Y-10874174D01*
X8039229Y-10874174D02*
X8086848Y-10874174D01*
X8086848Y-10874174D02*
X8105896Y-10883698D01*
X8105896Y-10883698D02*
X8115420Y-10893222D01*
X8115420Y-10893222D02*
X8124944Y-10912270D01*
X8124944Y-10912270D02*
X8124944Y-10959889D01*
X8124944Y-10959889D02*
X8115420Y-10978936D01*
X8115420Y-10978936D02*
X8105896Y-10988460D01*
X8105896Y-10988460D02*
X8086848Y-10997984D01*
X8086848Y-10997984D02*
X8039229Y-10997984D01*
X8039229Y-10997984D02*
X8020182Y-10988460D01*
X8020182Y-10988460D02*
X8010658Y-10978936D01*
X8201134Y-10797984D02*
X8201134Y-10836079D01*
X8277325Y-10797984D02*
X8277325Y-10836079D01*
X8572563Y-11074174D02*
X8563039Y-11064650D01*
X8563039Y-11064650D02*
X8543991Y-11036079D01*
X8543991Y-11036079D02*
X8534468Y-11017031D01*
X8534468Y-11017031D02*
X8524944Y-10988460D01*
X8524944Y-10988460D02*
X8515420Y-10940841D01*
X8515420Y-10940841D02*
X8515420Y-10902746D01*
X8515420Y-10902746D02*
X8524944Y-10855127D01*
X8524944Y-10855127D02*
X8534468Y-10826555D01*
X8534468Y-10826555D02*
X8543991Y-10807508D01*
X8543991Y-10807508D02*
X8563039Y-10778936D01*
X8563039Y-10778936D02*
X8572563Y-10769412D01*
X8639230Y-10817031D02*
X8648753Y-10807508D01*
X8648753Y-10807508D02*
X8667801Y-10797984D01*
X8667801Y-10797984D02*
X8715420Y-10797984D01*
X8715420Y-10797984D02*
X8734468Y-10807508D01*
X8734468Y-10807508D02*
X8743991Y-10817031D01*
X8743991Y-10817031D02*
X8753515Y-10836079D01*
X8753515Y-10836079D02*
X8753515Y-10855127D01*
X8753515Y-10855127D02*
X8743991Y-10883698D01*
X8743991Y-10883698D02*
X8629706Y-10997984D01*
X8629706Y-10997984D02*
X8753515Y-10997984D01*
X8943991Y-10997984D02*
X8829706Y-10997984D01*
X8886849Y-10997984D02*
X8886849Y-10797984D01*
X8886849Y-10797984D02*
X8867801Y-10826555D01*
X8867801Y-10826555D02*
X8848753Y-10845603D01*
X8848753Y-10845603D02*
X8829706Y-10855127D01*
X9182087Y-10997984D02*
X9182087Y-10797984D01*
X9267801Y-10997984D02*
X9267801Y-10893222D01*
X9267801Y-10893222D02*
X9258277Y-10874174D01*
X9258277Y-10874174D02*
X9239230Y-10864650D01*
X9239230Y-10864650D02*
X9210658Y-10864650D01*
X9210658Y-10864650D02*
X9191611Y-10874174D01*
X9191611Y-10874174D02*
X9182087Y-10883698D01*
X9391611Y-10997984D02*
X9372563Y-10988460D01*
X9372563Y-10988460D02*
X9363039Y-10978936D01*
X9363039Y-10978936D02*
X9353515Y-10959889D01*
X9353515Y-10959889D02*
X9353515Y-10902746D01*
X9353515Y-10902746D02*
X9363039Y-10883698D01*
X9363039Y-10883698D02*
X9372563Y-10874174D01*
X9372563Y-10874174D02*
X9391611Y-10864650D01*
X9391611Y-10864650D02*
X9420182Y-10864650D01*
X9420182Y-10864650D02*
X9439230Y-10874174D01*
X9439230Y-10874174D02*
X9448753Y-10883698D01*
X9448753Y-10883698D02*
X9458277Y-10902746D01*
X9458277Y-10902746D02*
X9458277Y-10959889D01*
X9458277Y-10959889D02*
X9448753Y-10978936D01*
X9448753Y-10978936D02*
X9439230Y-10988460D01*
X9439230Y-10988460D02*
X9420182Y-10997984D01*
X9420182Y-10997984D02*
X9391611Y-10997984D01*
X9572563Y-10997984D02*
X9553515Y-10988460D01*
X9553515Y-10988460D02*
X9543992Y-10969412D01*
X9543992Y-10969412D02*
X9543992Y-10797984D01*
X9724944Y-10988460D02*
X9705896Y-10997984D01*
X9705896Y-10997984D02*
X9667801Y-10997984D01*
X9667801Y-10997984D02*
X9648753Y-10988460D01*
X9648753Y-10988460D02*
X9639230Y-10969412D01*
X9639230Y-10969412D02*
X9639230Y-10893222D01*
X9639230Y-10893222D02*
X9648753Y-10874174D01*
X9648753Y-10874174D02*
X9667801Y-10864650D01*
X9667801Y-10864650D02*
X9705896Y-10864650D01*
X9705896Y-10864650D02*
X9724944Y-10874174D01*
X9724944Y-10874174D02*
X9734468Y-10893222D01*
X9734468Y-10893222D02*
X9734468Y-10912270D01*
X9734468Y-10912270D02*
X9639230Y-10931317D01*
X9810658Y-10988460D02*
X9829706Y-10997984D01*
X9829706Y-10997984D02*
X9867801Y-10997984D01*
X9867801Y-10997984D02*
X9886849Y-10988460D01*
X9886849Y-10988460D02*
X9896373Y-10969412D01*
X9896373Y-10969412D02*
X9896373Y-10959889D01*
X9896373Y-10959889D02*
X9886849Y-10940841D01*
X9886849Y-10940841D02*
X9867801Y-10931317D01*
X9867801Y-10931317D02*
X9839230Y-10931317D01*
X9839230Y-10931317D02*
X9820182Y-10921793D01*
X9820182Y-10921793D02*
X9810658Y-10902746D01*
X9810658Y-10902746D02*
X9810658Y-10893222D01*
X9810658Y-10893222D02*
X9820182Y-10874174D01*
X9820182Y-10874174D02*
X9839230Y-10864650D01*
X9839230Y-10864650D02*
X9867801Y-10864650D01*
X9867801Y-10864650D02*
X9886849Y-10874174D01*
X9963039Y-11074174D02*
X9972563Y-11064650D01*
X9972563Y-11064650D02*
X9991611Y-11036079D01*
X9991611Y-11036079D02*
X10001134Y-11017031D01*
X10001134Y-11017031D02*
X10010658Y-10988460D01*
X10010658Y-10988460D02*
X10020182Y-10940841D01*
X10020182Y-10940841D02*
X10020182Y-10902746D01*
X10020182Y-10902746D02*
X10010658Y-10855127D01*
X10010658Y-10855127D02*
X10001134Y-10826555D01*
X10001134Y-10826555D02*
X9991611Y-10807508D01*
X9991611Y-10807508D02*
X9972563Y-10778936D01*
X9972563Y-10778936D02*
X9963039Y-10769412D01*
D12*
X4947500Y-11120500D02*
X4947500Y-11220500D01*
X4897500Y-11170500D02*
X4997500Y-11170500D01*
D11*
X5363039Y-11261984D02*
X5248753Y-11261984D01*
X5305896Y-11261984D02*
X5305896Y-11061984D01*
X5305896Y-11061984D02*
X5286848Y-11090555D01*
X5286848Y-11090555D02*
X5267801Y-11109603D01*
X5267801Y-11109603D02*
X5248753Y-11119127D01*
X5448753Y-11242936D02*
X5458277Y-11252460D01*
X5458277Y-11252460D02*
X5448753Y-11261984D01*
X5448753Y-11261984D02*
X5439229Y-11252460D01*
X5439229Y-11252460D02*
X5448753Y-11242936D01*
X5448753Y-11242936D02*
X5448753Y-11261984D01*
X5582086Y-11061984D02*
X5601134Y-11061984D01*
X5601134Y-11061984D02*
X5620182Y-11071508D01*
X5620182Y-11071508D02*
X5629705Y-11081031D01*
X5629705Y-11081031D02*
X5639229Y-11100079D01*
X5639229Y-11100079D02*
X5648753Y-11138174D01*
X5648753Y-11138174D02*
X5648753Y-11185793D01*
X5648753Y-11185793D02*
X5639229Y-11223888D01*
X5639229Y-11223888D02*
X5629705Y-11242936D01*
X5629705Y-11242936D02*
X5620182Y-11252460D01*
X5620182Y-11252460D02*
X5601134Y-11261984D01*
X5601134Y-11261984D02*
X5582086Y-11261984D01*
X5582086Y-11261984D02*
X5563039Y-11252460D01*
X5563039Y-11252460D02*
X5553515Y-11242936D01*
X5553515Y-11242936D02*
X5543991Y-11223888D01*
X5543991Y-11223888D02*
X5534467Y-11185793D01*
X5534467Y-11185793D02*
X5534467Y-11138174D01*
X5534467Y-11138174D02*
X5543991Y-11100079D01*
X5543991Y-11100079D02*
X5553515Y-11081031D01*
X5553515Y-11081031D02*
X5563039Y-11071508D01*
X5563039Y-11071508D02*
X5582086Y-11061984D01*
X5772562Y-11061984D02*
X5791610Y-11061984D01*
X5791610Y-11061984D02*
X5810658Y-11071508D01*
X5810658Y-11071508D02*
X5820182Y-11081031D01*
X5820182Y-11081031D02*
X5829705Y-11100079D01*
X5829705Y-11100079D02*
X5839229Y-11138174D01*
X5839229Y-11138174D02*
X5839229Y-11185793D01*
X5839229Y-11185793D02*
X5829705Y-11223888D01*
X5829705Y-11223888D02*
X5820182Y-11242936D01*
X5820182Y-11242936D02*
X5810658Y-11252460D01*
X5810658Y-11252460D02*
X5791610Y-11261984D01*
X5791610Y-11261984D02*
X5772562Y-11261984D01*
X5772562Y-11261984D02*
X5753515Y-11252460D01*
X5753515Y-11252460D02*
X5743991Y-11242936D01*
X5743991Y-11242936D02*
X5734467Y-11223888D01*
X5734467Y-11223888D02*
X5724943Y-11185793D01*
X5724943Y-11185793D02*
X5724943Y-11138174D01*
X5724943Y-11138174D02*
X5734467Y-11100079D01*
X5734467Y-11100079D02*
X5743991Y-11081031D01*
X5743991Y-11081031D02*
X5753515Y-11071508D01*
X5753515Y-11071508D02*
X5772562Y-11061984D01*
X5963039Y-11061984D02*
X5982086Y-11061984D01*
X5982086Y-11061984D02*
X6001134Y-11071508D01*
X6001134Y-11071508D02*
X6010658Y-11081031D01*
X6010658Y-11081031D02*
X6020182Y-11100079D01*
X6020182Y-11100079D02*
X6029705Y-11138174D01*
X6029705Y-11138174D02*
X6029705Y-11185793D01*
X6029705Y-11185793D02*
X6020182Y-11223888D01*
X6020182Y-11223888D02*
X6010658Y-11242936D01*
X6010658Y-11242936D02*
X6001134Y-11252460D01*
X6001134Y-11252460D02*
X5982086Y-11261984D01*
X5982086Y-11261984D02*
X5963039Y-11261984D01*
X5963039Y-11261984D02*
X5943991Y-11252460D01*
X5943991Y-11252460D02*
X5934467Y-11242936D01*
X5934467Y-11242936D02*
X5924943Y-11223888D01*
X5924943Y-11223888D02*
X5915420Y-11185793D01*
X5915420Y-11185793D02*
X5915420Y-11138174D01*
X5915420Y-11138174D02*
X5924943Y-11100079D01*
X5924943Y-11100079D02*
X5934467Y-11081031D01*
X5934467Y-11081031D02*
X5943991Y-11071508D01*
X5943991Y-11071508D02*
X5963039Y-11061984D01*
X6115420Y-11261984D02*
X6115420Y-11128650D01*
X6115420Y-11147698D02*
X6124943Y-11138174D01*
X6124943Y-11138174D02*
X6143991Y-11128650D01*
X6143991Y-11128650D02*
X6172563Y-11128650D01*
X6172563Y-11128650D02*
X6191610Y-11138174D01*
X6191610Y-11138174D02*
X6201134Y-11157222D01*
X6201134Y-11157222D02*
X6201134Y-11261984D01*
X6201134Y-11157222D02*
X6210658Y-11138174D01*
X6210658Y-11138174D02*
X6229705Y-11128650D01*
X6229705Y-11128650D02*
X6258277Y-11128650D01*
X6258277Y-11128650D02*
X6277324Y-11138174D01*
X6277324Y-11138174D02*
X6286848Y-11157222D01*
X6286848Y-11157222D02*
X6286848Y-11261984D01*
X6382086Y-11261984D02*
X6382086Y-11128650D01*
X6382086Y-11147698D02*
X6391610Y-11138174D01*
X6391610Y-11138174D02*
X6410658Y-11128650D01*
X6410658Y-11128650D02*
X6439229Y-11128650D01*
X6439229Y-11128650D02*
X6458277Y-11138174D01*
X6458277Y-11138174D02*
X6467801Y-11157222D01*
X6467801Y-11157222D02*
X6467801Y-11261984D01*
X6467801Y-11157222D02*
X6477324Y-11138174D01*
X6477324Y-11138174D02*
X6496372Y-11128650D01*
X6496372Y-11128650D02*
X6524943Y-11128650D01*
X6524943Y-11128650D02*
X6543991Y-11138174D01*
X6543991Y-11138174D02*
X6553515Y-11157222D01*
X6553515Y-11157222D02*
X6553515Y-11261984D01*
X6943991Y-11052460D02*
X6772563Y-11309603D01*
X7201134Y-11061984D02*
X7220182Y-11061984D01*
X7220182Y-11061984D02*
X7239229Y-11071508D01*
X7239229Y-11071508D02*
X7248753Y-11081031D01*
X7248753Y-11081031D02*
X7258277Y-11100079D01*
X7258277Y-11100079D02*
X7267801Y-11138174D01*
X7267801Y-11138174D02*
X7267801Y-11185793D01*
X7267801Y-11185793D02*
X7258277Y-11223888D01*
X7258277Y-11223888D02*
X7248753Y-11242936D01*
X7248753Y-11242936D02*
X7239229Y-11252460D01*
X7239229Y-11252460D02*
X7220182Y-11261984D01*
X7220182Y-11261984D02*
X7201134Y-11261984D01*
X7201134Y-11261984D02*
X7182086Y-11252460D01*
X7182086Y-11252460D02*
X7172563Y-11242936D01*
X7172563Y-11242936D02*
X7163039Y-11223888D01*
X7163039Y-11223888D02*
X7153515Y-11185793D01*
X7153515Y-11185793D02*
X7153515Y-11138174D01*
X7153515Y-11138174D02*
X7163039Y-11100079D01*
X7163039Y-11100079D02*
X7172563Y-11081031D01*
X7172563Y-11081031D02*
X7182086Y-11071508D01*
X7182086Y-11071508D02*
X7201134Y-11061984D01*
X7353515Y-11242936D02*
X7363039Y-11252460D01*
X7363039Y-11252460D02*
X7353515Y-11261984D01*
X7353515Y-11261984D02*
X7343991Y-11252460D01*
X7343991Y-11252460D02*
X7353515Y-11242936D01*
X7353515Y-11242936D02*
X7353515Y-11261984D01*
X7486848Y-11061984D02*
X7505896Y-11061984D01*
X7505896Y-11061984D02*
X7524944Y-11071508D01*
X7524944Y-11071508D02*
X7534467Y-11081031D01*
X7534467Y-11081031D02*
X7543991Y-11100079D01*
X7543991Y-11100079D02*
X7553515Y-11138174D01*
X7553515Y-11138174D02*
X7553515Y-11185793D01*
X7553515Y-11185793D02*
X7543991Y-11223888D01*
X7543991Y-11223888D02*
X7534467Y-11242936D01*
X7534467Y-11242936D02*
X7524944Y-11252460D01*
X7524944Y-11252460D02*
X7505896Y-11261984D01*
X7505896Y-11261984D02*
X7486848Y-11261984D01*
X7486848Y-11261984D02*
X7467801Y-11252460D01*
X7467801Y-11252460D02*
X7458277Y-11242936D01*
X7458277Y-11242936D02*
X7448753Y-11223888D01*
X7448753Y-11223888D02*
X7439229Y-11185793D01*
X7439229Y-11185793D02*
X7439229Y-11138174D01*
X7439229Y-11138174D02*
X7448753Y-11100079D01*
X7448753Y-11100079D02*
X7458277Y-11081031D01*
X7458277Y-11081031D02*
X7467801Y-11071508D01*
X7467801Y-11071508D02*
X7486848Y-11061984D01*
X7620182Y-11061984D02*
X7743991Y-11061984D01*
X7743991Y-11061984D02*
X7677325Y-11138174D01*
X7677325Y-11138174D02*
X7705896Y-11138174D01*
X7705896Y-11138174D02*
X7724944Y-11147698D01*
X7724944Y-11147698D02*
X7734467Y-11157222D01*
X7734467Y-11157222D02*
X7743991Y-11176270D01*
X7743991Y-11176270D02*
X7743991Y-11223888D01*
X7743991Y-11223888D02*
X7734467Y-11242936D01*
X7734467Y-11242936D02*
X7724944Y-11252460D01*
X7724944Y-11252460D02*
X7705896Y-11261984D01*
X7705896Y-11261984D02*
X7648753Y-11261984D01*
X7648753Y-11261984D02*
X7629706Y-11252460D01*
X7629706Y-11252460D02*
X7620182Y-11242936D01*
X7839229Y-11261984D02*
X7877325Y-11261984D01*
X7877325Y-11261984D02*
X7896372Y-11252460D01*
X7896372Y-11252460D02*
X7905896Y-11242936D01*
X7905896Y-11242936D02*
X7924944Y-11214365D01*
X7924944Y-11214365D02*
X7934467Y-11176270D01*
X7934467Y-11176270D02*
X7934467Y-11100079D01*
X7934467Y-11100079D02*
X7924944Y-11081031D01*
X7924944Y-11081031D02*
X7915420Y-11071508D01*
X7915420Y-11071508D02*
X7896372Y-11061984D01*
X7896372Y-11061984D02*
X7858277Y-11061984D01*
X7858277Y-11061984D02*
X7839229Y-11071508D01*
X7839229Y-11071508D02*
X7829706Y-11081031D01*
X7829706Y-11081031D02*
X7820182Y-11100079D01*
X7820182Y-11100079D02*
X7820182Y-11147698D01*
X7820182Y-11147698D02*
X7829706Y-11166746D01*
X7829706Y-11166746D02*
X7839229Y-11176270D01*
X7839229Y-11176270D02*
X7858277Y-11185793D01*
X7858277Y-11185793D02*
X7896372Y-11185793D01*
X7896372Y-11185793D02*
X7915420Y-11176270D01*
X7915420Y-11176270D02*
X7924944Y-11166746D01*
X7924944Y-11166746D02*
X7934467Y-11147698D01*
X8105896Y-11128650D02*
X8105896Y-11261984D01*
X8058277Y-11052460D02*
X8010658Y-11195317D01*
X8010658Y-11195317D02*
X8134467Y-11195317D01*
X8201134Y-11061984D02*
X8201134Y-11100079D01*
X8277325Y-11061984D02*
X8277325Y-11100079D01*
X8572563Y-11338174D02*
X8563039Y-11328650D01*
X8563039Y-11328650D02*
X8543991Y-11300079D01*
X8543991Y-11300079D02*
X8534468Y-11281031D01*
X8534468Y-11281031D02*
X8524944Y-11252460D01*
X8524944Y-11252460D02*
X8515420Y-11204841D01*
X8515420Y-11204841D02*
X8515420Y-11166746D01*
X8515420Y-11166746D02*
X8524944Y-11119127D01*
X8524944Y-11119127D02*
X8534468Y-11090555D01*
X8534468Y-11090555D02*
X8543991Y-11071508D01*
X8543991Y-11071508D02*
X8563039Y-11042936D01*
X8563039Y-11042936D02*
X8572563Y-11033412D01*
X8734468Y-11128650D02*
X8734468Y-11261984D01*
X8686849Y-11052460D02*
X8639230Y-11195317D01*
X8639230Y-11195317D02*
X8763039Y-11195317D01*
X8991611Y-11261984D02*
X8991611Y-11061984D01*
X9077325Y-11261984D02*
X9077325Y-11157222D01*
X9077325Y-11157222D02*
X9067801Y-11138174D01*
X9067801Y-11138174D02*
X9048753Y-11128650D01*
X9048753Y-11128650D02*
X9020182Y-11128650D01*
X9020182Y-11128650D02*
X9001134Y-11138174D01*
X9001134Y-11138174D02*
X8991611Y-11147698D01*
X9201134Y-11261984D02*
X9182087Y-11252460D01*
X9182087Y-11252460D02*
X9172563Y-11242936D01*
X9172563Y-11242936D02*
X9163039Y-11223888D01*
X9163039Y-11223888D02*
X9163039Y-11166746D01*
X9163039Y-11166746D02*
X9172563Y-11147698D01*
X9172563Y-11147698D02*
X9182087Y-11138174D01*
X9182087Y-11138174D02*
X9201134Y-11128650D01*
X9201134Y-11128650D02*
X9229706Y-11128650D01*
X9229706Y-11128650D02*
X9248753Y-11138174D01*
X9248753Y-11138174D02*
X9258277Y-11147698D01*
X9258277Y-11147698D02*
X9267801Y-11166746D01*
X9267801Y-11166746D02*
X9267801Y-11223888D01*
X9267801Y-11223888D02*
X9258277Y-11242936D01*
X9258277Y-11242936D02*
X9248753Y-11252460D01*
X9248753Y-11252460D02*
X9229706Y-11261984D01*
X9229706Y-11261984D02*
X9201134Y-11261984D01*
X9382087Y-11261984D02*
X9363039Y-11252460D01*
X9363039Y-11252460D02*
X9353515Y-11233412D01*
X9353515Y-11233412D02*
X9353515Y-11061984D01*
X9534468Y-11252460D02*
X9515420Y-11261984D01*
X9515420Y-11261984D02*
X9477325Y-11261984D01*
X9477325Y-11261984D02*
X9458277Y-11252460D01*
X9458277Y-11252460D02*
X9448753Y-11233412D01*
X9448753Y-11233412D02*
X9448753Y-11157222D01*
X9448753Y-11157222D02*
X9458277Y-11138174D01*
X9458277Y-11138174D02*
X9477325Y-11128650D01*
X9477325Y-11128650D02*
X9515420Y-11128650D01*
X9515420Y-11128650D02*
X9534468Y-11138174D01*
X9534468Y-11138174D02*
X9543992Y-11157222D01*
X9543992Y-11157222D02*
X9543992Y-11176270D01*
X9543992Y-11176270D02*
X9448753Y-11195317D01*
X9620182Y-11252460D02*
X9639230Y-11261984D01*
X9639230Y-11261984D02*
X9677325Y-11261984D01*
X9677325Y-11261984D02*
X9696373Y-11252460D01*
X9696373Y-11252460D02*
X9705896Y-11233412D01*
X9705896Y-11233412D02*
X9705896Y-11223888D01*
X9705896Y-11223888D02*
X9696373Y-11204841D01*
X9696373Y-11204841D02*
X9677325Y-11195317D01*
X9677325Y-11195317D02*
X9648753Y-11195317D01*
X9648753Y-11195317D02*
X9629706Y-11185793D01*
X9629706Y-11185793D02*
X9620182Y-11166746D01*
X9620182Y-11166746D02*
X9620182Y-11157222D01*
X9620182Y-11157222D02*
X9629706Y-11138174D01*
X9629706Y-11138174D02*
X9648753Y-11128650D01*
X9648753Y-11128650D02*
X9677325Y-11128650D01*
X9677325Y-11128650D02*
X9696373Y-11138174D01*
X9772563Y-11338174D02*
X9782087Y-11328650D01*
X9782087Y-11328650D02*
X9801134Y-11300079D01*
X9801134Y-11300079D02*
X9810658Y-11281031D01*
X9810658Y-11281031D02*
X9820182Y-11252460D01*
X9820182Y-11252460D02*
X9829706Y-11204841D01*
X9829706Y-11204841D02*
X9829706Y-11166746D01*
X9829706Y-11166746D02*
X9820182Y-11119127D01*
X9820182Y-11119127D02*
X9810658Y-11090555D01*
X9810658Y-11090555D02*
X9801134Y-11071508D01*
X9801134Y-11071508D02*
X9782087Y-11042936D01*
X9782087Y-11042936D02*
X9772563Y-11033412D01*
D13*
X4975534Y-11487533D02*
X4975534Y-11381466D01*
X4869467Y-11381466D01*
X4869467Y-11487533D01*
X4975534Y-11487533D01*
D11*
X5363039Y-11525984D02*
X5248753Y-11525984D01*
X5305896Y-11525984D02*
X5305896Y-11325984D01*
X5305896Y-11325984D02*
X5286848Y-11354555D01*
X5286848Y-11354555D02*
X5267801Y-11373603D01*
X5267801Y-11373603D02*
X5248753Y-11383127D01*
X5448753Y-11506936D02*
X5458277Y-11516460D01*
X5458277Y-11516460D02*
X5448753Y-11525984D01*
X5448753Y-11525984D02*
X5439229Y-11516460D01*
X5439229Y-11516460D02*
X5448753Y-11506936D01*
X5448753Y-11506936D02*
X5448753Y-11525984D01*
X5639229Y-11325984D02*
X5543991Y-11325984D01*
X5543991Y-11325984D02*
X5534467Y-11421222D01*
X5534467Y-11421222D02*
X5543991Y-11411698D01*
X5543991Y-11411698D02*
X5563039Y-11402174D01*
X5563039Y-11402174D02*
X5610658Y-11402174D01*
X5610658Y-11402174D02*
X5629705Y-11411698D01*
X5629705Y-11411698D02*
X5639229Y-11421222D01*
X5639229Y-11421222D02*
X5648753Y-11440269D01*
X5648753Y-11440269D02*
X5648753Y-11487888D01*
X5648753Y-11487888D02*
X5639229Y-11506936D01*
X5639229Y-11506936D02*
X5629705Y-11516460D01*
X5629705Y-11516460D02*
X5610658Y-11525984D01*
X5610658Y-11525984D02*
X5563039Y-11525984D01*
X5563039Y-11525984D02*
X5543991Y-11516460D01*
X5543991Y-11516460D02*
X5534467Y-11506936D01*
X5772562Y-11325984D02*
X5791610Y-11325984D01*
X5791610Y-11325984D02*
X5810658Y-11335508D01*
X5810658Y-11335508D02*
X5820182Y-11345031D01*
X5820182Y-11345031D02*
X5829705Y-11364079D01*
X5829705Y-11364079D02*
X5839229Y-11402174D01*
X5839229Y-11402174D02*
X5839229Y-11449793D01*
X5839229Y-11449793D02*
X5829705Y-11487888D01*
X5829705Y-11487888D02*
X5820182Y-11506936D01*
X5820182Y-11506936D02*
X5810658Y-11516460D01*
X5810658Y-11516460D02*
X5791610Y-11525984D01*
X5791610Y-11525984D02*
X5772562Y-11525984D01*
X5772562Y-11525984D02*
X5753515Y-11516460D01*
X5753515Y-11516460D02*
X5743991Y-11506936D01*
X5743991Y-11506936D02*
X5734467Y-11487888D01*
X5734467Y-11487888D02*
X5724943Y-11449793D01*
X5724943Y-11449793D02*
X5724943Y-11402174D01*
X5724943Y-11402174D02*
X5734467Y-11364079D01*
X5734467Y-11364079D02*
X5743991Y-11345031D01*
X5743991Y-11345031D02*
X5753515Y-11335508D01*
X5753515Y-11335508D02*
X5772562Y-11325984D01*
X5963039Y-11325984D02*
X5982086Y-11325984D01*
X5982086Y-11325984D02*
X6001134Y-11335508D01*
X6001134Y-11335508D02*
X6010658Y-11345031D01*
X6010658Y-11345031D02*
X6020182Y-11364079D01*
X6020182Y-11364079D02*
X6029705Y-11402174D01*
X6029705Y-11402174D02*
X6029705Y-11449793D01*
X6029705Y-11449793D02*
X6020182Y-11487888D01*
X6020182Y-11487888D02*
X6010658Y-11506936D01*
X6010658Y-11506936D02*
X6001134Y-11516460D01*
X6001134Y-11516460D02*
X5982086Y-11525984D01*
X5982086Y-11525984D02*
X5963039Y-11525984D01*
X5963039Y-11525984D02*
X5943991Y-11516460D01*
X5943991Y-11516460D02*
X5934467Y-11506936D01*
X5934467Y-11506936D02*
X5924943Y-11487888D01*
X5924943Y-11487888D02*
X5915420Y-11449793D01*
X5915420Y-11449793D02*
X5915420Y-11402174D01*
X5915420Y-11402174D02*
X5924943Y-11364079D01*
X5924943Y-11364079D02*
X5934467Y-11345031D01*
X5934467Y-11345031D02*
X5943991Y-11335508D01*
X5943991Y-11335508D02*
X5963039Y-11325984D01*
X6115420Y-11525984D02*
X6115420Y-11392650D01*
X6115420Y-11411698D02*
X6124943Y-11402174D01*
X6124943Y-11402174D02*
X6143991Y-11392650D01*
X6143991Y-11392650D02*
X6172563Y-11392650D01*
X6172563Y-11392650D02*
X6191610Y-11402174D01*
X6191610Y-11402174D02*
X6201134Y-11421222D01*
X6201134Y-11421222D02*
X6201134Y-11525984D01*
X6201134Y-11421222D02*
X6210658Y-11402174D01*
X6210658Y-11402174D02*
X6229705Y-11392650D01*
X6229705Y-11392650D02*
X6258277Y-11392650D01*
X6258277Y-11392650D02*
X6277324Y-11402174D01*
X6277324Y-11402174D02*
X6286848Y-11421222D01*
X6286848Y-11421222D02*
X6286848Y-11525984D01*
X6382086Y-11525984D02*
X6382086Y-11392650D01*
X6382086Y-11411698D02*
X6391610Y-11402174D01*
X6391610Y-11402174D02*
X6410658Y-11392650D01*
X6410658Y-11392650D02*
X6439229Y-11392650D01*
X6439229Y-11392650D02*
X6458277Y-11402174D01*
X6458277Y-11402174D02*
X6467801Y-11421222D01*
X6467801Y-11421222D02*
X6467801Y-11525984D01*
X6467801Y-11421222D02*
X6477324Y-11402174D01*
X6477324Y-11402174D02*
X6496372Y-11392650D01*
X6496372Y-11392650D02*
X6524943Y-11392650D01*
X6524943Y-11392650D02*
X6543991Y-11402174D01*
X6543991Y-11402174D02*
X6553515Y-11421222D01*
X6553515Y-11421222D02*
X6553515Y-11525984D01*
X6943991Y-11316460D02*
X6772563Y-11573603D01*
X7201134Y-11325984D02*
X7220182Y-11325984D01*
X7220182Y-11325984D02*
X7239229Y-11335508D01*
X7239229Y-11335508D02*
X7248753Y-11345031D01*
X7248753Y-11345031D02*
X7258277Y-11364079D01*
X7258277Y-11364079D02*
X7267801Y-11402174D01*
X7267801Y-11402174D02*
X7267801Y-11449793D01*
X7267801Y-11449793D02*
X7258277Y-11487888D01*
X7258277Y-11487888D02*
X7248753Y-11506936D01*
X7248753Y-11506936D02*
X7239229Y-11516460D01*
X7239229Y-11516460D02*
X7220182Y-11525984D01*
X7220182Y-11525984D02*
X7201134Y-11525984D01*
X7201134Y-11525984D02*
X7182086Y-11516460D01*
X7182086Y-11516460D02*
X7172563Y-11506936D01*
X7172563Y-11506936D02*
X7163039Y-11487888D01*
X7163039Y-11487888D02*
X7153515Y-11449793D01*
X7153515Y-11449793D02*
X7153515Y-11402174D01*
X7153515Y-11402174D02*
X7163039Y-11364079D01*
X7163039Y-11364079D02*
X7172563Y-11345031D01*
X7172563Y-11345031D02*
X7182086Y-11335508D01*
X7182086Y-11335508D02*
X7201134Y-11325984D01*
X7353515Y-11506936D02*
X7363039Y-11516460D01*
X7363039Y-11516460D02*
X7353515Y-11525984D01*
X7353515Y-11525984D02*
X7343991Y-11516460D01*
X7343991Y-11516460D02*
X7353515Y-11506936D01*
X7353515Y-11506936D02*
X7353515Y-11525984D01*
X7486848Y-11325984D02*
X7505896Y-11325984D01*
X7505896Y-11325984D02*
X7524944Y-11335508D01*
X7524944Y-11335508D02*
X7534467Y-11345031D01*
X7534467Y-11345031D02*
X7543991Y-11364079D01*
X7543991Y-11364079D02*
X7553515Y-11402174D01*
X7553515Y-11402174D02*
X7553515Y-11449793D01*
X7553515Y-11449793D02*
X7543991Y-11487888D01*
X7543991Y-11487888D02*
X7534467Y-11506936D01*
X7534467Y-11506936D02*
X7524944Y-11516460D01*
X7524944Y-11516460D02*
X7505896Y-11525984D01*
X7505896Y-11525984D02*
X7486848Y-11525984D01*
X7486848Y-11525984D02*
X7467801Y-11516460D01*
X7467801Y-11516460D02*
X7458277Y-11506936D01*
X7458277Y-11506936D02*
X7448753Y-11487888D01*
X7448753Y-11487888D02*
X7439229Y-11449793D01*
X7439229Y-11449793D02*
X7439229Y-11402174D01*
X7439229Y-11402174D02*
X7448753Y-11364079D01*
X7448753Y-11364079D02*
X7458277Y-11345031D01*
X7458277Y-11345031D02*
X7467801Y-11335508D01*
X7467801Y-11335508D02*
X7486848Y-11325984D01*
X7734467Y-11325984D02*
X7639229Y-11325984D01*
X7639229Y-11325984D02*
X7629706Y-11421222D01*
X7629706Y-11421222D02*
X7639229Y-11411698D01*
X7639229Y-11411698D02*
X7658277Y-11402174D01*
X7658277Y-11402174D02*
X7705896Y-11402174D01*
X7705896Y-11402174D02*
X7724944Y-11411698D01*
X7724944Y-11411698D02*
X7734467Y-11421222D01*
X7734467Y-11421222D02*
X7743991Y-11440269D01*
X7743991Y-11440269D02*
X7743991Y-11487888D01*
X7743991Y-11487888D02*
X7734467Y-11506936D01*
X7734467Y-11506936D02*
X7724944Y-11516460D01*
X7724944Y-11516460D02*
X7705896Y-11525984D01*
X7705896Y-11525984D02*
X7658277Y-11525984D01*
X7658277Y-11525984D02*
X7639229Y-11516460D01*
X7639229Y-11516460D02*
X7629706Y-11506936D01*
X7839229Y-11525984D02*
X7877325Y-11525984D01*
X7877325Y-11525984D02*
X7896372Y-11516460D01*
X7896372Y-11516460D02*
X7905896Y-11506936D01*
X7905896Y-11506936D02*
X7924944Y-11478365D01*
X7924944Y-11478365D02*
X7934467Y-11440269D01*
X7934467Y-11440269D02*
X7934467Y-11364079D01*
X7934467Y-11364079D02*
X7924944Y-11345031D01*
X7924944Y-11345031D02*
X7915420Y-11335508D01*
X7915420Y-11335508D02*
X7896372Y-11325984D01*
X7896372Y-11325984D02*
X7858277Y-11325984D01*
X7858277Y-11325984D02*
X7839229Y-11335508D01*
X7839229Y-11335508D02*
X7829706Y-11345031D01*
X7829706Y-11345031D02*
X7820182Y-11364079D01*
X7820182Y-11364079D02*
X7820182Y-11411698D01*
X7820182Y-11411698D02*
X7829706Y-11430746D01*
X7829706Y-11430746D02*
X7839229Y-11440269D01*
X7839229Y-11440269D02*
X7858277Y-11449793D01*
X7858277Y-11449793D02*
X7896372Y-11449793D01*
X7896372Y-11449793D02*
X7915420Y-11440269D01*
X7915420Y-11440269D02*
X7924944Y-11430746D01*
X7924944Y-11430746D02*
X7934467Y-11411698D01*
X8124944Y-11525984D02*
X8010658Y-11525984D01*
X8067801Y-11525984D02*
X8067801Y-11325984D01*
X8067801Y-11325984D02*
X8048753Y-11354555D01*
X8048753Y-11354555D02*
X8029706Y-11373603D01*
X8029706Y-11373603D02*
X8010658Y-11383127D01*
X8201134Y-11325984D02*
X8201134Y-11364079D01*
X8277325Y-11325984D02*
X8277325Y-11364079D01*
X8572563Y-11602174D02*
X8563039Y-11592650D01*
X8563039Y-11592650D02*
X8543991Y-11564079D01*
X8543991Y-11564079D02*
X8534468Y-11545031D01*
X8534468Y-11545031D02*
X8524944Y-11516460D01*
X8524944Y-11516460D02*
X8515420Y-11468841D01*
X8515420Y-11468841D02*
X8515420Y-11430746D01*
X8515420Y-11430746D02*
X8524944Y-11383127D01*
X8524944Y-11383127D02*
X8534468Y-11354555D01*
X8534468Y-11354555D02*
X8543991Y-11335508D01*
X8543991Y-11335508D02*
X8563039Y-11306936D01*
X8563039Y-11306936D02*
X8572563Y-11297412D01*
X8743991Y-11325984D02*
X8648753Y-11325984D01*
X8648753Y-11325984D02*
X8639230Y-11421222D01*
X8639230Y-11421222D02*
X8648753Y-11411698D01*
X8648753Y-11411698D02*
X8667801Y-11402174D01*
X8667801Y-11402174D02*
X8715420Y-11402174D01*
X8715420Y-11402174D02*
X8734468Y-11411698D01*
X8734468Y-11411698D02*
X8743991Y-11421222D01*
X8743991Y-11421222D02*
X8753515Y-11440269D01*
X8753515Y-11440269D02*
X8753515Y-11487888D01*
X8753515Y-11487888D02*
X8743991Y-11506936D01*
X8743991Y-11506936D02*
X8734468Y-11516460D01*
X8734468Y-11516460D02*
X8715420Y-11525984D01*
X8715420Y-11525984D02*
X8667801Y-11525984D01*
X8667801Y-11525984D02*
X8648753Y-11516460D01*
X8648753Y-11516460D02*
X8639230Y-11506936D01*
X8991611Y-11525984D02*
X8991611Y-11325984D01*
X9077325Y-11525984D02*
X9077325Y-11421222D01*
X9077325Y-11421222D02*
X9067801Y-11402174D01*
X9067801Y-11402174D02*
X9048753Y-11392650D01*
X9048753Y-11392650D02*
X9020182Y-11392650D01*
X9020182Y-11392650D02*
X9001134Y-11402174D01*
X9001134Y-11402174D02*
X8991611Y-11411698D01*
X9201134Y-11525984D02*
X9182087Y-11516460D01*
X9182087Y-11516460D02*
X9172563Y-11506936D01*
X9172563Y-11506936D02*
X9163039Y-11487888D01*
X9163039Y-11487888D02*
X9163039Y-11430746D01*
X9163039Y-11430746D02*
X9172563Y-11411698D01*
X9172563Y-11411698D02*
X9182087Y-11402174D01*
X9182087Y-11402174D02*
X9201134Y-11392650D01*
X9201134Y-11392650D02*
X9229706Y-11392650D01*
X9229706Y-11392650D02*
X9248753Y-11402174D01*
X9248753Y-11402174D02*
X9258277Y-11411698D01*
X9258277Y-11411698D02*
X9267801Y-11430746D01*
X9267801Y-11430746D02*
X9267801Y-11487888D01*
X9267801Y-11487888D02*
X9258277Y-11506936D01*
X9258277Y-11506936D02*
X9248753Y-11516460D01*
X9248753Y-11516460D02*
X9229706Y-11525984D01*
X9229706Y-11525984D02*
X9201134Y-11525984D01*
X9382087Y-11525984D02*
X9363039Y-11516460D01*
X9363039Y-11516460D02*
X9353515Y-11497412D01*
X9353515Y-11497412D02*
X9353515Y-11325984D01*
X9534468Y-11516460D02*
X9515420Y-11525984D01*
X9515420Y-11525984D02*
X9477325Y-11525984D01*
X9477325Y-11525984D02*
X9458277Y-11516460D01*
X9458277Y-11516460D02*
X9448753Y-11497412D01*
X9448753Y-11497412D02*
X9448753Y-11421222D01*
X9448753Y-11421222D02*
X9458277Y-11402174D01*
X9458277Y-11402174D02*
X9477325Y-11392650D01*
X9477325Y-11392650D02*
X9515420Y-11392650D01*
X9515420Y-11392650D02*
X9534468Y-11402174D01*
X9534468Y-11402174D02*
X9543992Y-11421222D01*
X9543992Y-11421222D02*
X9543992Y-11440269D01*
X9543992Y-11440269D02*
X9448753Y-11459317D01*
X9620182Y-11516460D02*
X9639230Y-11525984D01*
X9639230Y-11525984D02*
X9677325Y-11525984D01*
X9677325Y-11525984D02*
X9696373Y-11516460D01*
X9696373Y-11516460D02*
X9705896Y-11497412D01*
X9705896Y-11497412D02*
X9705896Y-11487888D01*
X9705896Y-11487888D02*
X9696373Y-11468841D01*
X9696373Y-11468841D02*
X9677325Y-11459317D01*
X9677325Y-11459317D02*
X9648753Y-11459317D01*
X9648753Y-11459317D02*
X9629706Y-11449793D01*
X9629706Y-11449793D02*
X9620182Y-11430746D01*
X9620182Y-11430746D02*
X9620182Y-11421222D01*
X9620182Y-11421222D02*
X9629706Y-11402174D01*
X9629706Y-11402174D02*
X9648753Y-11392650D01*
X9648753Y-11392650D02*
X9677325Y-11392650D01*
X9677325Y-11392650D02*
X9696373Y-11402174D01*
X9772563Y-11602174D02*
X9782087Y-11592650D01*
X9782087Y-11592650D02*
X9801134Y-11564079D01*
X9801134Y-11564079D02*
X9810658Y-11545031D01*
X9810658Y-11545031D02*
X9820182Y-11516460D01*
X9820182Y-11516460D02*
X9829706Y-11468841D01*
X9829706Y-11468841D02*
X9829706Y-11430746D01*
X9829706Y-11430746D02*
X9820182Y-11383127D01*
X9820182Y-11383127D02*
X9810658Y-11354555D01*
X9810658Y-11354555D02*
X9801134Y-11335508D01*
X9801134Y-11335508D02*
X9782087Y-11306936D01*
X9782087Y-11306936D02*
X9772563Y-11297412D01*
M02*
