%TF.GenerationSoftware,KiCad,Pcbnew,8.0.8*%
%TF.CreationDate,2025-01-19T15:50:18-06:00*%
%TF.ProjectId,Block-JAN6418,426c6f63-6b2d-44a4-914e-363431382e6b,rev?*%
%TF.SameCoordinates,Original*%
%TF.FileFunction,Drillmap*%
%TF.FilePolarity,Positive*%
%FSLAX45Y45*%
G04 Gerber Fmt 4.5, Leading zero omitted, Abs format (unit mm)*
G04 Created by KiCad (PCBNEW 8.0.8) date 2025-01-19 15:50:18*
%MOMM*%
%LPD*%
G01*
G04 APERTURE LIST*
%ADD10C,0.050000*%
%ADD11C,0.200000*%
%ADD12C,0.100000*%
%ADD13C,0.150000*%
G04 APERTURE END LIST*
D10*
X5000000Y-3500000D02*
X9800000Y-3500000D01*
X9800000Y-9800000D01*
X5000000Y-9800000D01*
X5000000Y-3500000D01*
D11*
D12*
X5496000Y-5601250D02*
X5576000Y-5681250D01*
X5576000Y-5601250D02*
X5496000Y-5681250D01*
X5496000Y-5855250D02*
X5576000Y-5935250D01*
X5576000Y-5855250D02*
X5496000Y-5935250D01*
X5496000Y-6109250D02*
X5576000Y-6189250D01*
X5576000Y-6109250D02*
X5496000Y-6189250D01*
X6056000Y-5655250D02*
X6136000Y-5735250D01*
X6136000Y-5655250D02*
X6056000Y-5735250D01*
X6210000Y-6105750D02*
X6290000Y-6185750D01*
X6290000Y-6105750D02*
X6210000Y-6185750D01*
X6210000Y-6359750D02*
X6290000Y-6439750D01*
X6290000Y-6359750D02*
X6210000Y-6439750D01*
X6210500Y-4605250D02*
X6290500Y-4685250D01*
X6290500Y-4605250D02*
X6210500Y-4685250D01*
X6310000Y-5655250D02*
X6390000Y-5735250D01*
X6390000Y-5655250D02*
X6310000Y-5735250D01*
X6464500Y-4605250D02*
X6544500Y-4685250D01*
X6544500Y-4605250D02*
X6464500Y-4685250D01*
X6464500Y-5000750D02*
X6544500Y-5080750D01*
X6544500Y-5000750D02*
X6464500Y-5080750D01*
X6464500Y-5254750D02*
X6544500Y-5334750D01*
X6544500Y-5254750D02*
X6464500Y-5334750D01*
X6710000Y-7320250D02*
X6790000Y-7400250D01*
X6790000Y-7320250D02*
X6710000Y-7400250D01*
X6710000Y-8590250D02*
X6790000Y-8670250D01*
X6790000Y-8590250D02*
X6710000Y-8670250D01*
X7244000Y-7805250D02*
X7324000Y-7885250D01*
X7324000Y-7805250D02*
X7244000Y-7885250D01*
X7260000Y-8455250D02*
X7340000Y-8535250D01*
X7340000Y-8455250D02*
X7260000Y-8535250D01*
X7498000Y-7805250D02*
X7578000Y-7885250D01*
X7578000Y-7805250D02*
X7498000Y-7885250D01*
X7514000Y-8455250D02*
X7594000Y-8535250D01*
X7594000Y-8455250D02*
X7514000Y-8535250D01*
X7752000Y-7805250D02*
X7832000Y-7885250D01*
X7832000Y-7805250D02*
X7752000Y-7885250D01*
X8006000Y-7805250D02*
X8086000Y-7885250D01*
X8086000Y-7805250D02*
X8006000Y-7885250D01*
X8010000Y-8455250D02*
X8090000Y-8535250D01*
X8090000Y-8455250D02*
X8010000Y-8535250D01*
X8260000Y-7805250D02*
X8340000Y-7885250D01*
X8340000Y-7805250D02*
X8260000Y-7885250D01*
X8264000Y-8455250D02*
X8344000Y-8535250D01*
X8344000Y-8455250D02*
X8264000Y-8535250D01*
X9210000Y-5627250D02*
X9290000Y-5707250D01*
X9290000Y-5627250D02*
X9210000Y-5707250D01*
X9210000Y-6897250D02*
X9290000Y-6977250D01*
X9290000Y-6897250D02*
X9210000Y-6977250D01*
X6300000Y-6945250D02*
G75*
G02*
X6200000Y-6945250I-50000J0D01*
G01*
X6200000Y-6945250D02*
G75*
G02*
X6300000Y-6945250I50000J0D01*
G01*
X6800000Y-6945250D02*
G75*
G02*
X6700000Y-6945250I-50000J0D01*
G01*
X6700000Y-6945250D02*
G75*
G02*
X6800000Y-6945250I50000J0D01*
G01*
X9050000Y-7437250D02*
G75*
G02*
X8950000Y-7437250I-50000J0D01*
G01*
X8950000Y-7437250D02*
G75*
G02*
X9050000Y-7437250I50000J0D01*
G01*
X9550000Y-7437250D02*
G75*
G02*
X9450000Y-7437250I-50000J0D01*
G01*
X9450000Y-7437250D02*
G75*
G02*
X9550000Y-7437250I50000J0D01*
G01*
D13*
X5549500Y-4770250D02*
X5549500Y-4920250D01*
X5474500Y-4845250D02*
X5624500Y-4845250D01*
X5549500Y-6870250D02*
X5549500Y-7020250D01*
X5474500Y-6945250D02*
X5624500Y-6945250D01*
X5549500Y-8270250D02*
X5549500Y-8420250D01*
X5474500Y-8345250D02*
X5624500Y-8345250D01*
X9250000Y-4762250D02*
X9250000Y-4912250D01*
X9175000Y-4837250D02*
X9325000Y-4837250D01*
X9250000Y-8262250D02*
X9250000Y-8412250D01*
X9175000Y-8337250D02*
X9325000Y-8337250D01*
D11*
X5258277Y-10113984D02*
X5258277Y-9913984D01*
X5258277Y-9913984D02*
X5305896Y-9913984D01*
X5305896Y-9913984D02*
X5334467Y-9923508D01*
X5334467Y-9923508D02*
X5353515Y-9942555D01*
X5353515Y-9942555D02*
X5363039Y-9961603D01*
X5363039Y-9961603D02*
X5372563Y-9999698D01*
X5372563Y-9999698D02*
X5372563Y-10028270D01*
X5372563Y-10028270D02*
X5363039Y-10066365D01*
X5363039Y-10066365D02*
X5353515Y-10085412D01*
X5353515Y-10085412D02*
X5334467Y-10104460D01*
X5334467Y-10104460D02*
X5305896Y-10113984D01*
X5305896Y-10113984D02*
X5258277Y-10113984D01*
X5458277Y-10113984D02*
X5458277Y-9980650D01*
X5458277Y-10018746D02*
X5467801Y-9999698D01*
X5467801Y-9999698D02*
X5477324Y-9990174D01*
X5477324Y-9990174D02*
X5496372Y-9980650D01*
X5496372Y-9980650D02*
X5515420Y-9980650D01*
X5582086Y-10113984D02*
X5582086Y-9980650D01*
X5582086Y-9913984D02*
X5572563Y-9923508D01*
X5572563Y-9923508D02*
X5582086Y-9933031D01*
X5582086Y-9933031D02*
X5591610Y-9923508D01*
X5591610Y-9923508D02*
X5582086Y-9913984D01*
X5582086Y-9913984D02*
X5582086Y-9933031D01*
X5705896Y-10113984D02*
X5686848Y-10104460D01*
X5686848Y-10104460D02*
X5677324Y-10085412D01*
X5677324Y-10085412D02*
X5677324Y-9913984D01*
X5810658Y-10113984D02*
X5791610Y-10104460D01*
X5791610Y-10104460D02*
X5782086Y-10085412D01*
X5782086Y-10085412D02*
X5782086Y-9913984D01*
X6039229Y-10113984D02*
X6039229Y-9913984D01*
X6039229Y-9913984D02*
X6105896Y-10056841D01*
X6105896Y-10056841D02*
X6172562Y-9913984D01*
X6172562Y-9913984D02*
X6172562Y-10113984D01*
X6353515Y-10113984D02*
X6353515Y-10009222D01*
X6353515Y-10009222D02*
X6343991Y-9990174D01*
X6343991Y-9990174D02*
X6324943Y-9980650D01*
X6324943Y-9980650D02*
X6286848Y-9980650D01*
X6286848Y-9980650D02*
X6267801Y-9990174D01*
X6353515Y-10104460D02*
X6334467Y-10113984D01*
X6334467Y-10113984D02*
X6286848Y-10113984D01*
X6286848Y-10113984D02*
X6267801Y-10104460D01*
X6267801Y-10104460D02*
X6258277Y-10085412D01*
X6258277Y-10085412D02*
X6258277Y-10066365D01*
X6258277Y-10066365D02*
X6267801Y-10047317D01*
X6267801Y-10047317D02*
X6286848Y-10037793D01*
X6286848Y-10037793D02*
X6334467Y-10037793D01*
X6334467Y-10037793D02*
X6353515Y-10028270D01*
X6448753Y-9980650D02*
X6448753Y-10180650D01*
X6448753Y-9990174D02*
X6467801Y-9980650D01*
X6467801Y-9980650D02*
X6505896Y-9980650D01*
X6505896Y-9980650D02*
X6524943Y-9990174D01*
X6524943Y-9990174D02*
X6534467Y-9999698D01*
X6534467Y-9999698D02*
X6543991Y-10018746D01*
X6543991Y-10018746D02*
X6543991Y-10075889D01*
X6543991Y-10075889D02*
X6534467Y-10094936D01*
X6534467Y-10094936D02*
X6524943Y-10104460D01*
X6524943Y-10104460D02*
X6505896Y-10113984D01*
X6505896Y-10113984D02*
X6467801Y-10113984D01*
X6467801Y-10113984D02*
X6448753Y-10104460D01*
X6629705Y-10094936D02*
X6639229Y-10104460D01*
X6639229Y-10104460D02*
X6629705Y-10113984D01*
X6629705Y-10113984D02*
X6620182Y-10104460D01*
X6620182Y-10104460D02*
X6629705Y-10094936D01*
X6629705Y-10094936D02*
X6629705Y-10113984D01*
X6629705Y-9990174D02*
X6639229Y-9999698D01*
X6639229Y-9999698D02*
X6629705Y-10009222D01*
X6629705Y-10009222D02*
X6620182Y-9999698D01*
X6620182Y-9999698D02*
X6629705Y-9990174D01*
X6629705Y-9990174D02*
X6629705Y-10009222D01*
D12*
X4917500Y-10402500D02*
X4997500Y-10482500D01*
X4997500Y-10402500D02*
X4917500Y-10482500D01*
D11*
X5296372Y-10333984D02*
X5315420Y-10333984D01*
X5315420Y-10333984D02*
X5334467Y-10343508D01*
X5334467Y-10343508D02*
X5343991Y-10353031D01*
X5343991Y-10353031D02*
X5353515Y-10372079D01*
X5353515Y-10372079D02*
X5363039Y-10410174D01*
X5363039Y-10410174D02*
X5363039Y-10457793D01*
X5363039Y-10457793D02*
X5353515Y-10495889D01*
X5353515Y-10495889D02*
X5343991Y-10514936D01*
X5343991Y-10514936D02*
X5334467Y-10524460D01*
X5334467Y-10524460D02*
X5315420Y-10533984D01*
X5315420Y-10533984D02*
X5296372Y-10533984D01*
X5296372Y-10533984D02*
X5277324Y-10524460D01*
X5277324Y-10524460D02*
X5267801Y-10514936D01*
X5267801Y-10514936D02*
X5258277Y-10495889D01*
X5258277Y-10495889D02*
X5248753Y-10457793D01*
X5248753Y-10457793D02*
X5248753Y-10410174D01*
X5248753Y-10410174D02*
X5258277Y-10372079D01*
X5258277Y-10372079D02*
X5267801Y-10353031D01*
X5267801Y-10353031D02*
X5277324Y-10343508D01*
X5277324Y-10343508D02*
X5296372Y-10333984D01*
X5448753Y-10514936D02*
X5458277Y-10524460D01*
X5458277Y-10524460D02*
X5448753Y-10533984D01*
X5448753Y-10533984D02*
X5439229Y-10524460D01*
X5439229Y-10524460D02*
X5448753Y-10514936D01*
X5448753Y-10514936D02*
X5448753Y-10533984D01*
X5572563Y-10419698D02*
X5553515Y-10410174D01*
X5553515Y-10410174D02*
X5543991Y-10400650D01*
X5543991Y-10400650D02*
X5534467Y-10381603D01*
X5534467Y-10381603D02*
X5534467Y-10372079D01*
X5534467Y-10372079D02*
X5543991Y-10353031D01*
X5543991Y-10353031D02*
X5553515Y-10343508D01*
X5553515Y-10343508D02*
X5572563Y-10333984D01*
X5572563Y-10333984D02*
X5610658Y-10333984D01*
X5610658Y-10333984D02*
X5629705Y-10343508D01*
X5629705Y-10343508D02*
X5639229Y-10353031D01*
X5639229Y-10353031D02*
X5648753Y-10372079D01*
X5648753Y-10372079D02*
X5648753Y-10381603D01*
X5648753Y-10381603D02*
X5639229Y-10400650D01*
X5639229Y-10400650D02*
X5629705Y-10410174D01*
X5629705Y-10410174D02*
X5610658Y-10419698D01*
X5610658Y-10419698D02*
X5572563Y-10419698D01*
X5572563Y-10419698D02*
X5553515Y-10429222D01*
X5553515Y-10429222D02*
X5543991Y-10438746D01*
X5543991Y-10438746D02*
X5534467Y-10457793D01*
X5534467Y-10457793D02*
X5534467Y-10495889D01*
X5534467Y-10495889D02*
X5543991Y-10514936D01*
X5543991Y-10514936D02*
X5553515Y-10524460D01*
X5553515Y-10524460D02*
X5572563Y-10533984D01*
X5572563Y-10533984D02*
X5610658Y-10533984D01*
X5610658Y-10533984D02*
X5629705Y-10524460D01*
X5629705Y-10524460D02*
X5639229Y-10514936D01*
X5639229Y-10514936D02*
X5648753Y-10495889D01*
X5648753Y-10495889D02*
X5648753Y-10457793D01*
X5648753Y-10457793D02*
X5639229Y-10438746D01*
X5639229Y-10438746D02*
X5629705Y-10429222D01*
X5629705Y-10429222D02*
X5610658Y-10419698D01*
X5772562Y-10333984D02*
X5791610Y-10333984D01*
X5791610Y-10333984D02*
X5810658Y-10343508D01*
X5810658Y-10343508D02*
X5820182Y-10353031D01*
X5820182Y-10353031D02*
X5829705Y-10372079D01*
X5829705Y-10372079D02*
X5839229Y-10410174D01*
X5839229Y-10410174D02*
X5839229Y-10457793D01*
X5839229Y-10457793D02*
X5829705Y-10495889D01*
X5829705Y-10495889D02*
X5820182Y-10514936D01*
X5820182Y-10514936D02*
X5810658Y-10524460D01*
X5810658Y-10524460D02*
X5791610Y-10533984D01*
X5791610Y-10533984D02*
X5772562Y-10533984D01*
X5772562Y-10533984D02*
X5753515Y-10524460D01*
X5753515Y-10524460D02*
X5743991Y-10514936D01*
X5743991Y-10514936D02*
X5734467Y-10495889D01*
X5734467Y-10495889D02*
X5724943Y-10457793D01*
X5724943Y-10457793D02*
X5724943Y-10410174D01*
X5724943Y-10410174D02*
X5734467Y-10372079D01*
X5734467Y-10372079D02*
X5743991Y-10353031D01*
X5743991Y-10353031D02*
X5753515Y-10343508D01*
X5753515Y-10343508D02*
X5772562Y-10333984D01*
X5963039Y-10333984D02*
X5982086Y-10333984D01*
X5982086Y-10333984D02*
X6001134Y-10343508D01*
X6001134Y-10343508D02*
X6010658Y-10353031D01*
X6010658Y-10353031D02*
X6020182Y-10372079D01*
X6020182Y-10372079D02*
X6029705Y-10410174D01*
X6029705Y-10410174D02*
X6029705Y-10457793D01*
X6029705Y-10457793D02*
X6020182Y-10495889D01*
X6020182Y-10495889D02*
X6010658Y-10514936D01*
X6010658Y-10514936D02*
X6001134Y-10524460D01*
X6001134Y-10524460D02*
X5982086Y-10533984D01*
X5982086Y-10533984D02*
X5963039Y-10533984D01*
X5963039Y-10533984D02*
X5943991Y-10524460D01*
X5943991Y-10524460D02*
X5934467Y-10514936D01*
X5934467Y-10514936D02*
X5924943Y-10495889D01*
X5924943Y-10495889D02*
X5915420Y-10457793D01*
X5915420Y-10457793D02*
X5915420Y-10410174D01*
X5915420Y-10410174D02*
X5924943Y-10372079D01*
X5924943Y-10372079D02*
X5934467Y-10353031D01*
X5934467Y-10353031D02*
X5943991Y-10343508D01*
X5943991Y-10343508D02*
X5963039Y-10333984D01*
X6115420Y-10533984D02*
X6115420Y-10400650D01*
X6115420Y-10419698D02*
X6124943Y-10410174D01*
X6124943Y-10410174D02*
X6143991Y-10400650D01*
X6143991Y-10400650D02*
X6172563Y-10400650D01*
X6172563Y-10400650D02*
X6191610Y-10410174D01*
X6191610Y-10410174D02*
X6201134Y-10429222D01*
X6201134Y-10429222D02*
X6201134Y-10533984D01*
X6201134Y-10429222D02*
X6210658Y-10410174D01*
X6210658Y-10410174D02*
X6229705Y-10400650D01*
X6229705Y-10400650D02*
X6258277Y-10400650D01*
X6258277Y-10400650D02*
X6277324Y-10410174D01*
X6277324Y-10410174D02*
X6286848Y-10429222D01*
X6286848Y-10429222D02*
X6286848Y-10533984D01*
X6382086Y-10533984D02*
X6382086Y-10400650D01*
X6382086Y-10419698D02*
X6391610Y-10410174D01*
X6391610Y-10410174D02*
X6410658Y-10400650D01*
X6410658Y-10400650D02*
X6439229Y-10400650D01*
X6439229Y-10400650D02*
X6458277Y-10410174D01*
X6458277Y-10410174D02*
X6467801Y-10429222D01*
X6467801Y-10429222D02*
X6467801Y-10533984D01*
X6467801Y-10429222D02*
X6477324Y-10410174D01*
X6477324Y-10410174D02*
X6496372Y-10400650D01*
X6496372Y-10400650D02*
X6524943Y-10400650D01*
X6524943Y-10400650D02*
X6543991Y-10410174D01*
X6543991Y-10410174D02*
X6553515Y-10429222D01*
X6553515Y-10429222D02*
X6553515Y-10533984D01*
X6943991Y-10324460D02*
X6772563Y-10581603D01*
X7201134Y-10333984D02*
X7220182Y-10333984D01*
X7220182Y-10333984D02*
X7239229Y-10343508D01*
X7239229Y-10343508D02*
X7248753Y-10353031D01*
X7248753Y-10353031D02*
X7258277Y-10372079D01*
X7258277Y-10372079D02*
X7267801Y-10410174D01*
X7267801Y-10410174D02*
X7267801Y-10457793D01*
X7267801Y-10457793D02*
X7258277Y-10495889D01*
X7258277Y-10495889D02*
X7248753Y-10514936D01*
X7248753Y-10514936D02*
X7239229Y-10524460D01*
X7239229Y-10524460D02*
X7220182Y-10533984D01*
X7220182Y-10533984D02*
X7201134Y-10533984D01*
X7201134Y-10533984D02*
X7182086Y-10524460D01*
X7182086Y-10524460D02*
X7172563Y-10514936D01*
X7172563Y-10514936D02*
X7163039Y-10495889D01*
X7163039Y-10495889D02*
X7153515Y-10457793D01*
X7153515Y-10457793D02*
X7153515Y-10410174D01*
X7153515Y-10410174D02*
X7163039Y-10372079D01*
X7163039Y-10372079D02*
X7172563Y-10353031D01*
X7172563Y-10353031D02*
X7182086Y-10343508D01*
X7182086Y-10343508D02*
X7201134Y-10333984D01*
X7353515Y-10514936D02*
X7363039Y-10524460D01*
X7363039Y-10524460D02*
X7353515Y-10533984D01*
X7353515Y-10533984D02*
X7343991Y-10524460D01*
X7343991Y-10524460D02*
X7353515Y-10514936D01*
X7353515Y-10514936D02*
X7353515Y-10533984D01*
X7486848Y-10333984D02*
X7505896Y-10333984D01*
X7505896Y-10333984D02*
X7524944Y-10343508D01*
X7524944Y-10343508D02*
X7534467Y-10353031D01*
X7534467Y-10353031D02*
X7543991Y-10372079D01*
X7543991Y-10372079D02*
X7553515Y-10410174D01*
X7553515Y-10410174D02*
X7553515Y-10457793D01*
X7553515Y-10457793D02*
X7543991Y-10495889D01*
X7543991Y-10495889D02*
X7534467Y-10514936D01*
X7534467Y-10514936D02*
X7524944Y-10524460D01*
X7524944Y-10524460D02*
X7505896Y-10533984D01*
X7505896Y-10533984D02*
X7486848Y-10533984D01*
X7486848Y-10533984D02*
X7467801Y-10524460D01*
X7467801Y-10524460D02*
X7458277Y-10514936D01*
X7458277Y-10514936D02*
X7448753Y-10495889D01*
X7448753Y-10495889D02*
X7439229Y-10457793D01*
X7439229Y-10457793D02*
X7439229Y-10410174D01*
X7439229Y-10410174D02*
X7448753Y-10372079D01*
X7448753Y-10372079D02*
X7458277Y-10353031D01*
X7458277Y-10353031D02*
X7467801Y-10343508D01*
X7467801Y-10343508D02*
X7486848Y-10333984D01*
X7620182Y-10333984D02*
X7743991Y-10333984D01*
X7743991Y-10333984D02*
X7677325Y-10410174D01*
X7677325Y-10410174D02*
X7705896Y-10410174D01*
X7705896Y-10410174D02*
X7724944Y-10419698D01*
X7724944Y-10419698D02*
X7734467Y-10429222D01*
X7734467Y-10429222D02*
X7743991Y-10448270D01*
X7743991Y-10448270D02*
X7743991Y-10495889D01*
X7743991Y-10495889D02*
X7734467Y-10514936D01*
X7734467Y-10514936D02*
X7724944Y-10524460D01*
X7724944Y-10524460D02*
X7705896Y-10533984D01*
X7705896Y-10533984D02*
X7648753Y-10533984D01*
X7648753Y-10533984D02*
X7629706Y-10524460D01*
X7629706Y-10524460D02*
X7620182Y-10514936D01*
X7934467Y-10533984D02*
X7820182Y-10533984D01*
X7877325Y-10533984D02*
X7877325Y-10333984D01*
X7877325Y-10333984D02*
X7858277Y-10362555D01*
X7858277Y-10362555D02*
X7839229Y-10381603D01*
X7839229Y-10381603D02*
X7820182Y-10391127D01*
X8115420Y-10333984D02*
X8020182Y-10333984D01*
X8020182Y-10333984D02*
X8010658Y-10429222D01*
X8010658Y-10429222D02*
X8020182Y-10419698D01*
X8020182Y-10419698D02*
X8039229Y-10410174D01*
X8039229Y-10410174D02*
X8086848Y-10410174D01*
X8086848Y-10410174D02*
X8105896Y-10419698D01*
X8105896Y-10419698D02*
X8115420Y-10429222D01*
X8115420Y-10429222D02*
X8124944Y-10448270D01*
X8124944Y-10448270D02*
X8124944Y-10495889D01*
X8124944Y-10495889D02*
X8115420Y-10514936D01*
X8115420Y-10514936D02*
X8105896Y-10524460D01*
X8105896Y-10524460D02*
X8086848Y-10533984D01*
X8086848Y-10533984D02*
X8039229Y-10533984D01*
X8039229Y-10533984D02*
X8020182Y-10524460D01*
X8020182Y-10524460D02*
X8010658Y-10514936D01*
X8201134Y-10333984D02*
X8201134Y-10372079D01*
X8277325Y-10333984D02*
X8277325Y-10372079D01*
X8572563Y-10610174D02*
X8563039Y-10600650D01*
X8563039Y-10600650D02*
X8543991Y-10572079D01*
X8543991Y-10572079D02*
X8534468Y-10553031D01*
X8534468Y-10553031D02*
X8524944Y-10524460D01*
X8524944Y-10524460D02*
X8515420Y-10476841D01*
X8515420Y-10476841D02*
X8515420Y-10438746D01*
X8515420Y-10438746D02*
X8524944Y-10391127D01*
X8524944Y-10391127D02*
X8534468Y-10362555D01*
X8534468Y-10362555D02*
X8543991Y-10343508D01*
X8543991Y-10343508D02*
X8563039Y-10314936D01*
X8563039Y-10314936D02*
X8572563Y-10305412D01*
X8639230Y-10353031D02*
X8648753Y-10343508D01*
X8648753Y-10343508D02*
X8667801Y-10333984D01*
X8667801Y-10333984D02*
X8715420Y-10333984D01*
X8715420Y-10333984D02*
X8734468Y-10343508D01*
X8734468Y-10343508D02*
X8743991Y-10353031D01*
X8743991Y-10353031D02*
X8753515Y-10372079D01*
X8753515Y-10372079D02*
X8753515Y-10391127D01*
X8753515Y-10391127D02*
X8743991Y-10419698D01*
X8743991Y-10419698D02*
X8629706Y-10533984D01*
X8629706Y-10533984D02*
X8753515Y-10533984D01*
X8924944Y-10400650D02*
X8924944Y-10533984D01*
X8877325Y-10324460D02*
X8829706Y-10467317D01*
X8829706Y-10467317D02*
X8953515Y-10467317D01*
X9182087Y-10533984D02*
X9182087Y-10333984D01*
X9267801Y-10533984D02*
X9267801Y-10429222D01*
X9267801Y-10429222D02*
X9258277Y-10410174D01*
X9258277Y-10410174D02*
X9239230Y-10400650D01*
X9239230Y-10400650D02*
X9210658Y-10400650D01*
X9210658Y-10400650D02*
X9191611Y-10410174D01*
X9191611Y-10410174D02*
X9182087Y-10419698D01*
X9391611Y-10533984D02*
X9372563Y-10524460D01*
X9372563Y-10524460D02*
X9363039Y-10514936D01*
X9363039Y-10514936D02*
X9353515Y-10495889D01*
X9353515Y-10495889D02*
X9353515Y-10438746D01*
X9353515Y-10438746D02*
X9363039Y-10419698D01*
X9363039Y-10419698D02*
X9372563Y-10410174D01*
X9372563Y-10410174D02*
X9391611Y-10400650D01*
X9391611Y-10400650D02*
X9420182Y-10400650D01*
X9420182Y-10400650D02*
X9439230Y-10410174D01*
X9439230Y-10410174D02*
X9448753Y-10419698D01*
X9448753Y-10419698D02*
X9458277Y-10438746D01*
X9458277Y-10438746D02*
X9458277Y-10495889D01*
X9458277Y-10495889D02*
X9448753Y-10514936D01*
X9448753Y-10514936D02*
X9439230Y-10524460D01*
X9439230Y-10524460D02*
X9420182Y-10533984D01*
X9420182Y-10533984D02*
X9391611Y-10533984D01*
X9572563Y-10533984D02*
X9553515Y-10524460D01*
X9553515Y-10524460D02*
X9543992Y-10505412D01*
X9543992Y-10505412D02*
X9543992Y-10333984D01*
X9724944Y-10524460D02*
X9705896Y-10533984D01*
X9705896Y-10533984D02*
X9667801Y-10533984D01*
X9667801Y-10533984D02*
X9648753Y-10524460D01*
X9648753Y-10524460D02*
X9639230Y-10505412D01*
X9639230Y-10505412D02*
X9639230Y-10429222D01*
X9639230Y-10429222D02*
X9648753Y-10410174D01*
X9648753Y-10410174D02*
X9667801Y-10400650D01*
X9667801Y-10400650D02*
X9705896Y-10400650D01*
X9705896Y-10400650D02*
X9724944Y-10410174D01*
X9724944Y-10410174D02*
X9734468Y-10429222D01*
X9734468Y-10429222D02*
X9734468Y-10448270D01*
X9734468Y-10448270D02*
X9639230Y-10467317D01*
X9810658Y-10524460D02*
X9829706Y-10533984D01*
X9829706Y-10533984D02*
X9867801Y-10533984D01*
X9867801Y-10533984D02*
X9886849Y-10524460D01*
X9886849Y-10524460D02*
X9896373Y-10505412D01*
X9896373Y-10505412D02*
X9896373Y-10495889D01*
X9896373Y-10495889D02*
X9886849Y-10476841D01*
X9886849Y-10476841D02*
X9867801Y-10467317D01*
X9867801Y-10467317D02*
X9839230Y-10467317D01*
X9839230Y-10467317D02*
X9820182Y-10457793D01*
X9820182Y-10457793D02*
X9810658Y-10438746D01*
X9810658Y-10438746D02*
X9810658Y-10429222D01*
X9810658Y-10429222D02*
X9820182Y-10410174D01*
X9820182Y-10410174D02*
X9839230Y-10400650D01*
X9839230Y-10400650D02*
X9867801Y-10400650D01*
X9867801Y-10400650D02*
X9886849Y-10410174D01*
X9963039Y-10610174D02*
X9972563Y-10600650D01*
X9972563Y-10600650D02*
X9991611Y-10572079D01*
X9991611Y-10572079D02*
X10001134Y-10553031D01*
X10001134Y-10553031D02*
X10010658Y-10524460D01*
X10010658Y-10524460D02*
X10020182Y-10476841D01*
X10020182Y-10476841D02*
X10020182Y-10438746D01*
X10020182Y-10438746D02*
X10010658Y-10391127D01*
X10010658Y-10391127D02*
X10001134Y-10362555D01*
X10001134Y-10362555D02*
X9991611Y-10343508D01*
X9991611Y-10343508D02*
X9972563Y-10314936D01*
X9972563Y-10314936D02*
X9963039Y-10305412D01*
D12*
X4997500Y-10706500D02*
G75*
G02*
X4897500Y-10706500I-50000J0D01*
G01*
X4897500Y-10706500D02*
G75*
G02*
X4997500Y-10706500I50000J0D01*
G01*
D11*
X5363039Y-10797984D02*
X5248753Y-10797984D01*
X5305896Y-10797984D02*
X5305896Y-10597984D01*
X5305896Y-10597984D02*
X5286848Y-10626555D01*
X5286848Y-10626555D02*
X5267801Y-10645603D01*
X5267801Y-10645603D02*
X5248753Y-10655127D01*
X5448753Y-10778936D02*
X5458277Y-10788460D01*
X5458277Y-10788460D02*
X5448753Y-10797984D01*
X5448753Y-10797984D02*
X5439229Y-10788460D01*
X5439229Y-10788460D02*
X5448753Y-10778936D01*
X5448753Y-10778936D02*
X5448753Y-10797984D01*
X5582086Y-10597984D02*
X5601134Y-10597984D01*
X5601134Y-10597984D02*
X5620182Y-10607508D01*
X5620182Y-10607508D02*
X5629705Y-10617031D01*
X5629705Y-10617031D02*
X5639229Y-10636079D01*
X5639229Y-10636079D02*
X5648753Y-10674174D01*
X5648753Y-10674174D02*
X5648753Y-10721793D01*
X5648753Y-10721793D02*
X5639229Y-10759889D01*
X5639229Y-10759889D02*
X5629705Y-10778936D01*
X5629705Y-10778936D02*
X5620182Y-10788460D01*
X5620182Y-10788460D02*
X5601134Y-10797984D01*
X5601134Y-10797984D02*
X5582086Y-10797984D01*
X5582086Y-10797984D02*
X5563039Y-10788460D01*
X5563039Y-10788460D02*
X5553515Y-10778936D01*
X5553515Y-10778936D02*
X5543991Y-10759889D01*
X5543991Y-10759889D02*
X5534467Y-10721793D01*
X5534467Y-10721793D02*
X5534467Y-10674174D01*
X5534467Y-10674174D02*
X5543991Y-10636079D01*
X5543991Y-10636079D02*
X5553515Y-10617031D01*
X5553515Y-10617031D02*
X5563039Y-10607508D01*
X5563039Y-10607508D02*
X5582086Y-10597984D01*
X5772562Y-10597984D02*
X5791610Y-10597984D01*
X5791610Y-10597984D02*
X5810658Y-10607508D01*
X5810658Y-10607508D02*
X5820182Y-10617031D01*
X5820182Y-10617031D02*
X5829705Y-10636079D01*
X5829705Y-10636079D02*
X5839229Y-10674174D01*
X5839229Y-10674174D02*
X5839229Y-10721793D01*
X5839229Y-10721793D02*
X5829705Y-10759889D01*
X5829705Y-10759889D02*
X5820182Y-10778936D01*
X5820182Y-10778936D02*
X5810658Y-10788460D01*
X5810658Y-10788460D02*
X5791610Y-10797984D01*
X5791610Y-10797984D02*
X5772562Y-10797984D01*
X5772562Y-10797984D02*
X5753515Y-10788460D01*
X5753515Y-10788460D02*
X5743991Y-10778936D01*
X5743991Y-10778936D02*
X5734467Y-10759889D01*
X5734467Y-10759889D02*
X5724943Y-10721793D01*
X5724943Y-10721793D02*
X5724943Y-10674174D01*
X5724943Y-10674174D02*
X5734467Y-10636079D01*
X5734467Y-10636079D02*
X5743991Y-10617031D01*
X5743991Y-10617031D02*
X5753515Y-10607508D01*
X5753515Y-10607508D02*
X5772562Y-10597984D01*
X5963039Y-10597984D02*
X5982086Y-10597984D01*
X5982086Y-10597984D02*
X6001134Y-10607508D01*
X6001134Y-10607508D02*
X6010658Y-10617031D01*
X6010658Y-10617031D02*
X6020182Y-10636079D01*
X6020182Y-10636079D02*
X6029705Y-10674174D01*
X6029705Y-10674174D02*
X6029705Y-10721793D01*
X6029705Y-10721793D02*
X6020182Y-10759889D01*
X6020182Y-10759889D02*
X6010658Y-10778936D01*
X6010658Y-10778936D02*
X6001134Y-10788460D01*
X6001134Y-10788460D02*
X5982086Y-10797984D01*
X5982086Y-10797984D02*
X5963039Y-10797984D01*
X5963039Y-10797984D02*
X5943991Y-10788460D01*
X5943991Y-10788460D02*
X5934467Y-10778936D01*
X5934467Y-10778936D02*
X5924943Y-10759889D01*
X5924943Y-10759889D02*
X5915420Y-10721793D01*
X5915420Y-10721793D02*
X5915420Y-10674174D01*
X5915420Y-10674174D02*
X5924943Y-10636079D01*
X5924943Y-10636079D02*
X5934467Y-10617031D01*
X5934467Y-10617031D02*
X5943991Y-10607508D01*
X5943991Y-10607508D02*
X5963039Y-10597984D01*
X6115420Y-10797984D02*
X6115420Y-10664650D01*
X6115420Y-10683698D02*
X6124943Y-10674174D01*
X6124943Y-10674174D02*
X6143991Y-10664650D01*
X6143991Y-10664650D02*
X6172563Y-10664650D01*
X6172563Y-10664650D02*
X6191610Y-10674174D01*
X6191610Y-10674174D02*
X6201134Y-10693222D01*
X6201134Y-10693222D02*
X6201134Y-10797984D01*
X6201134Y-10693222D02*
X6210658Y-10674174D01*
X6210658Y-10674174D02*
X6229705Y-10664650D01*
X6229705Y-10664650D02*
X6258277Y-10664650D01*
X6258277Y-10664650D02*
X6277324Y-10674174D01*
X6277324Y-10674174D02*
X6286848Y-10693222D01*
X6286848Y-10693222D02*
X6286848Y-10797984D01*
X6382086Y-10797984D02*
X6382086Y-10664650D01*
X6382086Y-10683698D02*
X6391610Y-10674174D01*
X6391610Y-10674174D02*
X6410658Y-10664650D01*
X6410658Y-10664650D02*
X6439229Y-10664650D01*
X6439229Y-10664650D02*
X6458277Y-10674174D01*
X6458277Y-10674174D02*
X6467801Y-10693222D01*
X6467801Y-10693222D02*
X6467801Y-10797984D01*
X6467801Y-10693222D02*
X6477324Y-10674174D01*
X6477324Y-10674174D02*
X6496372Y-10664650D01*
X6496372Y-10664650D02*
X6524943Y-10664650D01*
X6524943Y-10664650D02*
X6543991Y-10674174D01*
X6543991Y-10674174D02*
X6553515Y-10693222D01*
X6553515Y-10693222D02*
X6553515Y-10797984D01*
X6943991Y-10588460D02*
X6772563Y-10845603D01*
X7201134Y-10597984D02*
X7220182Y-10597984D01*
X7220182Y-10597984D02*
X7239229Y-10607508D01*
X7239229Y-10607508D02*
X7248753Y-10617031D01*
X7248753Y-10617031D02*
X7258277Y-10636079D01*
X7258277Y-10636079D02*
X7267801Y-10674174D01*
X7267801Y-10674174D02*
X7267801Y-10721793D01*
X7267801Y-10721793D02*
X7258277Y-10759889D01*
X7258277Y-10759889D02*
X7248753Y-10778936D01*
X7248753Y-10778936D02*
X7239229Y-10788460D01*
X7239229Y-10788460D02*
X7220182Y-10797984D01*
X7220182Y-10797984D02*
X7201134Y-10797984D01*
X7201134Y-10797984D02*
X7182086Y-10788460D01*
X7182086Y-10788460D02*
X7172563Y-10778936D01*
X7172563Y-10778936D02*
X7163039Y-10759889D01*
X7163039Y-10759889D02*
X7153515Y-10721793D01*
X7153515Y-10721793D02*
X7153515Y-10674174D01*
X7153515Y-10674174D02*
X7163039Y-10636079D01*
X7163039Y-10636079D02*
X7172563Y-10617031D01*
X7172563Y-10617031D02*
X7182086Y-10607508D01*
X7182086Y-10607508D02*
X7201134Y-10597984D01*
X7353515Y-10778936D02*
X7363039Y-10788460D01*
X7363039Y-10788460D02*
X7353515Y-10797984D01*
X7353515Y-10797984D02*
X7343991Y-10788460D01*
X7343991Y-10788460D02*
X7353515Y-10778936D01*
X7353515Y-10778936D02*
X7353515Y-10797984D01*
X7486848Y-10597984D02*
X7505896Y-10597984D01*
X7505896Y-10597984D02*
X7524944Y-10607508D01*
X7524944Y-10607508D02*
X7534467Y-10617031D01*
X7534467Y-10617031D02*
X7543991Y-10636079D01*
X7543991Y-10636079D02*
X7553515Y-10674174D01*
X7553515Y-10674174D02*
X7553515Y-10721793D01*
X7553515Y-10721793D02*
X7543991Y-10759889D01*
X7543991Y-10759889D02*
X7534467Y-10778936D01*
X7534467Y-10778936D02*
X7524944Y-10788460D01*
X7524944Y-10788460D02*
X7505896Y-10797984D01*
X7505896Y-10797984D02*
X7486848Y-10797984D01*
X7486848Y-10797984D02*
X7467801Y-10788460D01*
X7467801Y-10788460D02*
X7458277Y-10778936D01*
X7458277Y-10778936D02*
X7448753Y-10759889D01*
X7448753Y-10759889D02*
X7439229Y-10721793D01*
X7439229Y-10721793D02*
X7439229Y-10674174D01*
X7439229Y-10674174D02*
X7448753Y-10636079D01*
X7448753Y-10636079D02*
X7458277Y-10617031D01*
X7458277Y-10617031D02*
X7467801Y-10607508D01*
X7467801Y-10607508D02*
X7486848Y-10597984D01*
X7620182Y-10597984D02*
X7743991Y-10597984D01*
X7743991Y-10597984D02*
X7677325Y-10674174D01*
X7677325Y-10674174D02*
X7705896Y-10674174D01*
X7705896Y-10674174D02*
X7724944Y-10683698D01*
X7724944Y-10683698D02*
X7734467Y-10693222D01*
X7734467Y-10693222D02*
X7743991Y-10712270D01*
X7743991Y-10712270D02*
X7743991Y-10759889D01*
X7743991Y-10759889D02*
X7734467Y-10778936D01*
X7734467Y-10778936D02*
X7724944Y-10788460D01*
X7724944Y-10788460D02*
X7705896Y-10797984D01*
X7705896Y-10797984D02*
X7648753Y-10797984D01*
X7648753Y-10797984D02*
X7629706Y-10788460D01*
X7629706Y-10788460D02*
X7620182Y-10778936D01*
X7839229Y-10797984D02*
X7877325Y-10797984D01*
X7877325Y-10797984D02*
X7896372Y-10788460D01*
X7896372Y-10788460D02*
X7905896Y-10778936D01*
X7905896Y-10778936D02*
X7924944Y-10750365D01*
X7924944Y-10750365D02*
X7934467Y-10712270D01*
X7934467Y-10712270D02*
X7934467Y-10636079D01*
X7934467Y-10636079D02*
X7924944Y-10617031D01*
X7924944Y-10617031D02*
X7915420Y-10607508D01*
X7915420Y-10607508D02*
X7896372Y-10597984D01*
X7896372Y-10597984D02*
X7858277Y-10597984D01*
X7858277Y-10597984D02*
X7839229Y-10607508D01*
X7839229Y-10607508D02*
X7829706Y-10617031D01*
X7829706Y-10617031D02*
X7820182Y-10636079D01*
X7820182Y-10636079D02*
X7820182Y-10683698D01*
X7820182Y-10683698D02*
X7829706Y-10702746D01*
X7829706Y-10702746D02*
X7839229Y-10712270D01*
X7839229Y-10712270D02*
X7858277Y-10721793D01*
X7858277Y-10721793D02*
X7896372Y-10721793D01*
X7896372Y-10721793D02*
X7915420Y-10712270D01*
X7915420Y-10712270D02*
X7924944Y-10702746D01*
X7924944Y-10702746D02*
X7934467Y-10683698D01*
X8105896Y-10664650D02*
X8105896Y-10797984D01*
X8058277Y-10588460D02*
X8010658Y-10731317D01*
X8010658Y-10731317D02*
X8134467Y-10731317D01*
X8201134Y-10597984D02*
X8201134Y-10636079D01*
X8277325Y-10597984D02*
X8277325Y-10636079D01*
X8572563Y-10874174D02*
X8563039Y-10864650D01*
X8563039Y-10864650D02*
X8543991Y-10836079D01*
X8543991Y-10836079D02*
X8534468Y-10817031D01*
X8534468Y-10817031D02*
X8524944Y-10788460D01*
X8524944Y-10788460D02*
X8515420Y-10740841D01*
X8515420Y-10740841D02*
X8515420Y-10702746D01*
X8515420Y-10702746D02*
X8524944Y-10655127D01*
X8524944Y-10655127D02*
X8534468Y-10626555D01*
X8534468Y-10626555D02*
X8543991Y-10607508D01*
X8543991Y-10607508D02*
X8563039Y-10578936D01*
X8563039Y-10578936D02*
X8572563Y-10569412D01*
X8734468Y-10664650D02*
X8734468Y-10797984D01*
X8686849Y-10588460D02*
X8639230Y-10731317D01*
X8639230Y-10731317D02*
X8763039Y-10731317D01*
X8991611Y-10797984D02*
X8991611Y-10597984D01*
X9077325Y-10797984D02*
X9077325Y-10693222D01*
X9077325Y-10693222D02*
X9067801Y-10674174D01*
X9067801Y-10674174D02*
X9048753Y-10664650D01*
X9048753Y-10664650D02*
X9020182Y-10664650D01*
X9020182Y-10664650D02*
X9001134Y-10674174D01*
X9001134Y-10674174D02*
X8991611Y-10683698D01*
X9201134Y-10797984D02*
X9182087Y-10788460D01*
X9182087Y-10788460D02*
X9172563Y-10778936D01*
X9172563Y-10778936D02*
X9163039Y-10759889D01*
X9163039Y-10759889D02*
X9163039Y-10702746D01*
X9163039Y-10702746D02*
X9172563Y-10683698D01*
X9172563Y-10683698D02*
X9182087Y-10674174D01*
X9182087Y-10674174D02*
X9201134Y-10664650D01*
X9201134Y-10664650D02*
X9229706Y-10664650D01*
X9229706Y-10664650D02*
X9248753Y-10674174D01*
X9248753Y-10674174D02*
X9258277Y-10683698D01*
X9258277Y-10683698D02*
X9267801Y-10702746D01*
X9267801Y-10702746D02*
X9267801Y-10759889D01*
X9267801Y-10759889D02*
X9258277Y-10778936D01*
X9258277Y-10778936D02*
X9248753Y-10788460D01*
X9248753Y-10788460D02*
X9229706Y-10797984D01*
X9229706Y-10797984D02*
X9201134Y-10797984D01*
X9382087Y-10797984D02*
X9363039Y-10788460D01*
X9363039Y-10788460D02*
X9353515Y-10769412D01*
X9353515Y-10769412D02*
X9353515Y-10597984D01*
X9534468Y-10788460D02*
X9515420Y-10797984D01*
X9515420Y-10797984D02*
X9477325Y-10797984D01*
X9477325Y-10797984D02*
X9458277Y-10788460D01*
X9458277Y-10788460D02*
X9448753Y-10769412D01*
X9448753Y-10769412D02*
X9448753Y-10693222D01*
X9448753Y-10693222D02*
X9458277Y-10674174D01*
X9458277Y-10674174D02*
X9477325Y-10664650D01*
X9477325Y-10664650D02*
X9515420Y-10664650D01*
X9515420Y-10664650D02*
X9534468Y-10674174D01*
X9534468Y-10674174D02*
X9543992Y-10693222D01*
X9543992Y-10693222D02*
X9543992Y-10712270D01*
X9543992Y-10712270D02*
X9448753Y-10731317D01*
X9620182Y-10788460D02*
X9639230Y-10797984D01*
X9639230Y-10797984D02*
X9677325Y-10797984D01*
X9677325Y-10797984D02*
X9696373Y-10788460D01*
X9696373Y-10788460D02*
X9705896Y-10769412D01*
X9705896Y-10769412D02*
X9705896Y-10759889D01*
X9705896Y-10759889D02*
X9696373Y-10740841D01*
X9696373Y-10740841D02*
X9677325Y-10731317D01*
X9677325Y-10731317D02*
X9648753Y-10731317D01*
X9648753Y-10731317D02*
X9629706Y-10721793D01*
X9629706Y-10721793D02*
X9620182Y-10702746D01*
X9620182Y-10702746D02*
X9620182Y-10693222D01*
X9620182Y-10693222D02*
X9629706Y-10674174D01*
X9629706Y-10674174D02*
X9648753Y-10664650D01*
X9648753Y-10664650D02*
X9677325Y-10664650D01*
X9677325Y-10664650D02*
X9696373Y-10674174D01*
X9772563Y-10874174D02*
X9782087Y-10864650D01*
X9782087Y-10864650D02*
X9801134Y-10836079D01*
X9801134Y-10836079D02*
X9810658Y-10817031D01*
X9810658Y-10817031D02*
X9820182Y-10788460D01*
X9820182Y-10788460D02*
X9829706Y-10740841D01*
X9829706Y-10740841D02*
X9829706Y-10702746D01*
X9829706Y-10702746D02*
X9820182Y-10655127D01*
X9820182Y-10655127D02*
X9810658Y-10626555D01*
X9810658Y-10626555D02*
X9801134Y-10607508D01*
X9801134Y-10607508D02*
X9782087Y-10578936D01*
X9782087Y-10578936D02*
X9772563Y-10569412D01*
D13*
X4922500Y-10895500D02*
X4922500Y-11045500D01*
X4847500Y-10970500D02*
X4997500Y-10970500D01*
D11*
X5363039Y-11061984D02*
X5248753Y-11061984D01*
X5305896Y-11061984D02*
X5305896Y-10861984D01*
X5305896Y-10861984D02*
X5286848Y-10890555D01*
X5286848Y-10890555D02*
X5267801Y-10909603D01*
X5267801Y-10909603D02*
X5248753Y-10919127D01*
X5448753Y-11042936D02*
X5458277Y-11052460D01*
X5458277Y-11052460D02*
X5448753Y-11061984D01*
X5448753Y-11061984D02*
X5439229Y-11052460D01*
X5439229Y-11052460D02*
X5448753Y-11042936D01*
X5448753Y-11042936D02*
X5448753Y-11061984D01*
X5639229Y-10861984D02*
X5543991Y-10861984D01*
X5543991Y-10861984D02*
X5534467Y-10957222D01*
X5534467Y-10957222D02*
X5543991Y-10947698D01*
X5543991Y-10947698D02*
X5563039Y-10938174D01*
X5563039Y-10938174D02*
X5610658Y-10938174D01*
X5610658Y-10938174D02*
X5629705Y-10947698D01*
X5629705Y-10947698D02*
X5639229Y-10957222D01*
X5639229Y-10957222D02*
X5648753Y-10976270D01*
X5648753Y-10976270D02*
X5648753Y-11023889D01*
X5648753Y-11023889D02*
X5639229Y-11042936D01*
X5639229Y-11042936D02*
X5629705Y-11052460D01*
X5629705Y-11052460D02*
X5610658Y-11061984D01*
X5610658Y-11061984D02*
X5563039Y-11061984D01*
X5563039Y-11061984D02*
X5543991Y-11052460D01*
X5543991Y-11052460D02*
X5534467Y-11042936D01*
X5772562Y-10861984D02*
X5791610Y-10861984D01*
X5791610Y-10861984D02*
X5810658Y-10871508D01*
X5810658Y-10871508D02*
X5820182Y-10881031D01*
X5820182Y-10881031D02*
X5829705Y-10900079D01*
X5829705Y-10900079D02*
X5839229Y-10938174D01*
X5839229Y-10938174D02*
X5839229Y-10985793D01*
X5839229Y-10985793D02*
X5829705Y-11023889D01*
X5829705Y-11023889D02*
X5820182Y-11042936D01*
X5820182Y-11042936D02*
X5810658Y-11052460D01*
X5810658Y-11052460D02*
X5791610Y-11061984D01*
X5791610Y-11061984D02*
X5772562Y-11061984D01*
X5772562Y-11061984D02*
X5753515Y-11052460D01*
X5753515Y-11052460D02*
X5743991Y-11042936D01*
X5743991Y-11042936D02*
X5734467Y-11023889D01*
X5734467Y-11023889D02*
X5724943Y-10985793D01*
X5724943Y-10985793D02*
X5724943Y-10938174D01*
X5724943Y-10938174D02*
X5734467Y-10900079D01*
X5734467Y-10900079D02*
X5743991Y-10881031D01*
X5743991Y-10881031D02*
X5753515Y-10871508D01*
X5753515Y-10871508D02*
X5772562Y-10861984D01*
X5963039Y-10861984D02*
X5982086Y-10861984D01*
X5982086Y-10861984D02*
X6001134Y-10871508D01*
X6001134Y-10871508D02*
X6010658Y-10881031D01*
X6010658Y-10881031D02*
X6020182Y-10900079D01*
X6020182Y-10900079D02*
X6029705Y-10938174D01*
X6029705Y-10938174D02*
X6029705Y-10985793D01*
X6029705Y-10985793D02*
X6020182Y-11023889D01*
X6020182Y-11023889D02*
X6010658Y-11042936D01*
X6010658Y-11042936D02*
X6001134Y-11052460D01*
X6001134Y-11052460D02*
X5982086Y-11061984D01*
X5982086Y-11061984D02*
X5963039Y-11061984D01*
X5963039Y-11061984D02*
X5943991Y-11052460D01*
X5943991Y-11052460D02*
X5934467Y-11042936D01*
X5934467Y-11042936D02*
X5924943Y-11023889D01*
X5924943Y-11023889D02*
X5915420Y-10985793D01*
X5915420Y-10985793D02*
X5915420Y-10938174D01*
X5915420Y-10938174D02*
X5924943Y-10900079D01*
X5924943Y-10900079D02*
X5934467Y-10881031D01*
X5934467Y-10881031D02*
X5943991Y-10871508D01*
X5943991Y-10871508D02*
X5963039Y-10861984D01*
X6115420Y-11061984D02*
X6115420Y-10928650D01*
X6115420Y-10947698D02*
X6124943Y-10938174D01*
X6124943Y-10938174D02*
X6143991Y-10928650D01*
X6143991Y-10928650D02*
X6172563Y-10928650D01*
X6172563Y-10928650D02*
X6191610Y-10938174D01*
X6191610Y-10938174D02*
X6201134Y-10957222D01*
X6201134Y-10957222D02*
X6201134Y-11061984D01*
X6201134Y-10957222D02*
X6210658Y-10938174D01*
X6210658Y-10938174D02*
X6229705Y-10928650D01*
X6229705Y-10928650D02*
X6258277Y-10928650D01*
X6258277Y-10928650D02*
X6277324Y-10938174D01*
X6277324Y-10938174D02*
X6286848Y-10957222D01*
X6286848Y-10957222D02*
X6286848Y-11061984D01*
X6382086Y-11061984D02*
X6382086Y-10928650D01*
X6382086Y-10947698D02*
X6391610Y-10938174D01*
X6391610Y-10938174D02*
X6410658Y-10928650D01*
X6410658Y-10928650D02*
X6439229Y-10928650D01*
X6439229Y-10928650D02*
X6458277Y-10938174D01*
X6458277Y-10938174D02*
X6467801Y-10957222D01*
X6467801Y-10957222D02*
X6467801Y-11061984D01*
X6467801Y-10957222D02*
X6477324Y-10938174D01*
X6477324Y-10938174D02*
X6496372Y-10928650D01*
X6496372Y-10928650D02*
X6524943Y-10928650D01*
X6524943Y-10928650D02*
X6543991Y-10938174D01*
X6543991Y-10938174D02*
X6553515Y-10957222D01*
X6553515Y-10957222D02*
X6553515Y-11061984D01*
X6943991Y-10852460D02*
X6772563Y-11109603D01*
X7201134Y-10861984D02*
X7220182Y-10861984D01*
X7220182Y-10861984D02*
X7239229Y-10871508D01*
X7239229Y-10871508D02*
X7248753Y-10881031D01*
X7248753Y-10881031D02*
X7258277Y-10900079D01*
X7258277Y-10900079D02*
X7267801Y-10938174D01*
X7267801Y-10938174D02*
X7267801Y-10985793D01*
X7267801Y-10985793D02*
X7258277Y-11023889D01*
X7258277Y-11023889D02*
X7248753Y-11042936D01*
X7248753Y-11042936D02*
X7239229Y-11052460D01*
X7239229Y-11052460D02*
X7220182Y-11061984D01*
X7220182Y-11061984D02*
X7201134Y-11061984D01*
X7201134Y-11061984D02*
X7182086Y-11052460D01*
X7182086Y-11052460D02*
X7172563Y-11042936D01*
X7172563Y-11042936D02*
X7163039Y-11023889D01*
X7163039Y-11023889D02*
X7153515Y-10985793D01*
X7153515Y-10985793D02*
X7153515Y-10938174D01*
X7153515Y-10938174D02*
X7163039Y-10900079D01*
X7163039Y-10900079D02*
X7172563Y-10881031D01*
X7172563Y-10881031D02*
X7182086Y-10871508D01*
X7182086Y-10871508D02*
X7201134Y-10861984D01*
X7353515Y-11042936D02*
X7363039Y-11052460D01*
X7363039Y-11052460D02*
X7353515Y-11061984D01*
X7353515Y-11061984D02*
X7343991Y-11052460D01*
X7343991Y-11052460D02*
X7353515Y-11042936D01*
X7353515Y-11042936D02*
X7353515Y-11061984D01*
X7486848Y-10861984D02*
X7505896Y-10861984D01*
X7505896Y-10861984D02*
X7524944Y-10871508D01*
X7524944Y-10871508D02*
X7534467Y-10881031D01*
X7534467Y-10881031D02*
X7543991Y-10900079D01*
X7543991Y-10900079D02*
X7553515Y-10938174D01*
X7553515Y-10938174D02*
X7553515Y-10985793D01*
X7553515Y-10985793D02*
X7543991Y-11023889D01*
X7543991Y-11023889D02*
X7534467Y-11042936D01*
X7534467Y-11042936D02*
X7524944Y-11052460D01*
X7524944Y-11052460D02*
X7505896Y-11061984D01*
X7505896Y-11061984D02*
X7486848Y-11061984D01*
X7486848Y-11061984D02*
X7467801Y-11052460D01*
X7467801Y-11052460D02*
X7458277Y-11042936D01*
X7458277Y-11042936D02*
X7448753Y-11023889D01*
X7448753Y-11023889D02*
X7439229Y-10985793D01*
X7439229Y-10985793D02*
X7439229Y-10938174D01*
X7439229Y-10938174D02*
X7448753Y-10900079D01*
X7448753Y-10900079D02*
X7458277Y-10881031D01*
X7458277Y-10881031D02*
X7467801Y-10871508D01*
X7467801Y-10871508D02*
X7486848Y-10861984D01*
X7734467Y-10861984D02*
X7639229Y-10861984D01*
X7639229Y-10861984D02*
X7629706Y-10957222D01*
X7629706Y-10957222D02*
X7639229Y-10947698D01*
X7639229Y-10947698D02*
X7658277Y-10938174D01*
X7658277Y-10938174D02*
X7705896Y-10938174D01*
X7705896Y-10938174D02*
X7724944Y-10947698D01*
X7724944Y-10947698D02*
X7734467Y-10957222D01*
X7734467Y-10957222D02*
X7743991Y-10976270D01*
X7743991Y-10976270D02*
X7743991Y-11023889D01*
X7743991Y-11023889D02*
X7734467Y-11042936D01*
X7734467Y-11042936D02*
X7724944Y-11052460D01*
X7724944Y-11052460D02*
X7705896Y-11061984D01*
X7705896Y-11061984D02*
X7658277Y-11061984D01*
X7658277Y-11061984D02*
X7639229Y-11052460D01*
X7639229Y-11052460D02*
X7629706Y-11042936D01*
X7839229Y-11061984D02*
X7877325Y-11061984D01*
X7877325Y-11061984D02*
X7896372Y-11052460D01*
X7896372Y-11052460D02*
X7905896Y-11042936D01*
X7905896Y-11042936D02*
X7924944Y-11014365D01*
X7924944Y-11014365D02*
X7934467Y-10976270D01*
X7934467Y-10976270D02*
X7934467Y-10900079D01*
X7934467Y-10900079D02*
X7924944Y-10881031D01*
X7924944Y-10881031D02*
X7915420Y-10871508D01*
X7915420Y-10871508D02*
X7896372Y-10861984D01*
X7896372Y-10861984D02*
X7858277Y-10861984D01*
X7858277Y-10861984D02*
X7839229Y-10871508D01*
X7839229Y-10871508D02*
X7829706Y-10881031D01*
X7829706Y-10881031D02*
X7820182Y-10900079D01*
X7820182Y-10900079D02*
X7820182Y-10947698D01*
X7820182Y-10947698D02*
X7829706Y-10966746D01*
X7829706Y-10966746D02*
X7839229Y-10976270D01*
X7839229Y-10976270D02*
X7858277Y-10985793D01*
X7858277Y-10985793D02*
X7896372Y-10985793D01*
X7896372Y-10985793D02*
X7915420Y-10976270D01*
X7915420Y-10976270D02*
X7924944Y-10966746D01*
X7924944Y-10966746D02*
X7934467Y-10947698D01*
X8124944Y-11061984D02*
X8010658Y-11061984D01*
X8067801Y-11061984D02*
X8067801Y-10861984D01*
X8067801Y-10861984D02*
X8048753Y-10890555D01*
X8048753Y-10890555D02*
X8029706Y-10909603D01*
X8029706Y-10909603D02*
X8010658Y-10919127D01*
X8201134Y-10861984D02*
X8201134Y-10900079D01*
X8277325Y-10861984D02*
X8277325Y-10900079D01*
X8572563Y-11138174D02*
X8563039Y-11128650D01*
X8563039Y-11128650D02*
X8543991Y-11100079D01*
X8543991Y-11100079D02*
X8534468Y-11081031D01*
X8534468Y-11081031D02*
X8524944Y-11052460D01*
X8524944Y-11052460D02*
X8515420Y-11004841D01*
X8515420Y-11004841D02*
X8515420Y-10966746D01*
X8515420Y-10966746D02*
X8524944Y-10919127D01*
X8524944Y-10919127D02*
X8534468Y-10890555D01*
X8534468Y-10890555D02*
X8543991Y-10871508D01*
X8543991Y-10871508D02*
X8563039Y-10842936D01*
X8563039Y-10842936D02*
X8572563Y-10833412D01*
X8743991Y-10861984D02*
X8648753Y-10861984D01*
X8648753Y-10861984D02*
X8639230Y-10957222D01*
X8639230Y-10957222D02*
X8648753Y-10947698D01*
X8648753Y-10947698D02*
X8667801Y-10938174D01*
X8667801Y-10938174D02*
X8715420Y-10938174D01*
X8715420Y-10938174D02*
X8734468Y-10947698D01*
X8734468Y-10947698D02*
X8743991Y-10957222D01*
X8743991Y-10957222D02*
X8753515Y-10976270D01*
X8753515Y-10976270D02*
X8753515Y-11023889D01*
X8753515Y-11023889D02*
X8743991Y-11042936D01*
X8743991Y-11042936D02*
X8734468Y-11052460D01*
X8734468Y-11052460D02*
X8715420Y-11061984D01*
X8715420Y-11061984D02*
X8667801Y-11061984D01*
X8667801Y-11061984D02*
X8648753Y-11052460D01*
X8648753Y-11052460D02*
X8639230Y-11042936D01*
X8991611Y-11061984D02*
X8991611Y-10861984D01*
X9077325Y-11061984D02*
X9077325Y-10957222D01*
X9077325Y-10957222D02*
X9067801Y-10938174D01*
X9067801Y-10938174D02*
X9048753Y-10928650D01*
X9048753Y-10928650D02*
X9020182Y-10928650D01*
X9020182Y-10928650D02*
X9001134Y-10938174D01*
X9001134Y-10938174D02*
X8991611Y-10947698D01*
X9201134Y-11061984D02*
X9182087Y-11052460D01*
X9182087Y-11052460D02*
X9172563Y-11042936D01*
X9172563Y-11042936D02*
X9163039Y-11023889D01*
X9163039Y-11023889D02*
X9163039Y-10966746D01*
X9163039Y-10966746D02*
X9172563Y-10947698D01*
X9172563Y-10947698D02*
X9182087Y-10938174D01*
X9182087Y-10938174D02*
X9201134Y-10928650D01*
X9201134Y-10928650D02*
X9229706Y-10928650D01*
X9229706Y-10928650D02*
X9248753Y-10938174D01*
X9248753Y-10938174D02*
X9258277Y-10947698D01*
X9258277Y-10947698D02*
X9267801Y-10966746D01*
X9267801Y-10966746D02*
X9267801Y-11023889D01*
X9267801Y-11023889D02*
X9258277Y-11042936D01*
X9258277Y-11042936D02*
X9248753Y-11052460D01*
X9248753Y-11052460D02*
X9229706Y-11061984D01*
X9229706Y-11061984D02*
X9201134Y-11061984D01*
X9382087Y-11061984D02*
X9363039Y-11052460D01*
X9363039Y-11052460D02*
X9353515Y-11033412D01*
X9353515Y-11033412D02*
X9353515Y-10861984D01*
X9534468Y-11052460D02*
X9515420Y-11061984D01*
X9515420Y-11061984D02*
X9477325Y-11061984D01*
X9477325Y-11061984D02*
X9458277Y-11052460D01*
X9458277Y-11052460D02*
X9448753Y-11033412D01*
X9448753Y-11033412D02*
X9448753Y-10957222D01*
X9448753Y-10957222D02*
X9458277Y-10938174D01*
X9458277Y-10938174D02*
X9477325Y-10928650D01*
X9477325Y-10928650D02*
X9515420Y-10928650D01*
X9515420Y-10928650D02*
X9534468Y-10938174D01*
X9534468Y-10938174D02*
X9543992Y-10957222D01*
X9543992Y-10957222D02*
X9543992Y-10976270D01*
X9543992Y-10976270D02*
X9448753Y-10995317D01*
X9620182Y-11052460D02*
X9639230Y-11061984D01*
X9639230Y-11061984D02*
X9677325Y-11061984D01*
X9677325Y-11061984D02*
X9696373Y-11052460D01*
X9696373Y-11052460D02*
X9705896Y-11033412D01*
X9705896Y-11033412D02*
X9705896Y-11023889D01*
X9705896Y-11023889D02*
X9696373Y-11004841D01*
X9696373Y-11004841D02*
X9677325Y-10995317D01*
X9677325Y-10995317D02*
X9648753Y-10995317D01*
X9648753Y-10995317D02*
X9629706Y-10985793D01*
X9629706Y-10985793D02*
X9620182Y-10966746D01*
X9620182Y-10966746D02*
X9620182Y-10957222D01*
X9620182Y-10957222D02*
X9629706Y-10938174D01*
X9629706Y-10938174D02*
X9648753Y-10928650D01*
X9648753Y-10928650D02*
X9677325Y-10928650D01*
X9677325Y-10928650D02*
X9696373Y-10938174D01*
X9772563Y-11138174D02*
X9782087Y-11128650D01*
X9782087Y-11128650D02*
X9801134Y-11100079D01*
X9801134Y-11100079D02*
X9810658Y-11081031D01*
X9810658Y-11081031D02*
X9820182Y-11052460D01*
X9820182Y-11052460D02*
X9829706Y-11004841D01*
X9829706Y-11004841D02*
X9829706Y-10966746D01*
X9829706Y-10966746D02*
X9820182Y-10919127D01*
X9820182Y-10919127D02*
X9810658Y-10890555D01*
X9810658Y-10890555D02*
X9801134Y-10871508D01*
X9801134Y-10871508D02*
X9782087Y-10842936D01*
X9782087Y-10842936D02*
X9772563Y-10833412D01*
M02*
