M48
; DRILL file {KiCad 9.0.0-rc3} date 2025-02-26T11:37:19-0600
; FORMAT={-:-/ absolute / metric / decimal}
; #@! TF.CreationDate,2025-02-26T11:37:19-06:00
; #@! TF.GenerationSoftware,Kicad,Pcbnew,9.0.0-rc3
; #@! TF.FileFunction,Plated,1,2,PTH
FMAT,2
METRIC
; #@! TA.AperFunction,Plated,PTH,ViaDrill
T1C0.300
; #@! TA.AperFunction,Plated,PTH,ComponentDrill
T2C0.700
; #@! TA.AperFunction,Plated,PTH,ComponentDrill
T3C0.800
; #@! TA.AperFunction,Plated,PTH,ComponentDrill
T4C1.000
; #@! TA.AperFunction,Plated,PTH,ComponentDrill
T5C1.500
%
G90
G05
T1
X2.5Y-23.0
X2.5Y-27.0
X2.5Y-32.5
X2.5Y-35.5
X2.5Y-37.5
X3.5Y-29.5
X5.5Y-29.5
X5.96Y-45.5
X5.96Y-49.5
X6.5Y-23.0
X6.5Y-27.0
X6.5Y-32.5
X6.5Y-35.5
X6.5Y-37.5
X8.5Y-55.5
X9.71Y-44.0
X9.71Y-51.25
X9.96Y-47.5
X10.0Y-35.5
X10.0Y-37.5
X11.0Y-58.0
X13.5Y-35.5
X13.5Y-37.5
X13.5Y-55.5
X16.0Y-42.5
X16.0Y-45.0
X18.5Y-35.5
X23.0Y-43.0
X24.5Y-36.5
X25.5Y-40.5
X25.5Y-43.5
X25.5Y-47.0
X28.25Y-40.5
X28.25Y-43.5
X28.25Y-46.5
X28.5Y-51.0
X29.0Y-36.5
X31.0Y-40.5
X31.0Y-43.5
X31.0Y-46.5
X32.0Y-53.5
X32.0Y-57.5
X33.0Y-35.5
X33.0Y-38.5
X33.0Y-48.5
X33.0Y-51.5
X36.0Y-35.5
X36.0Y-38.5
X36.0Y-48.5
X36.0Y-51.5
X36.0Y-53.5
X36.0Y-57.5
X38.5Y-23.0
X38.5Y-27.0
X39.0Y-30.5
X39.0Y-33.5
X39.0Y-35.5
X39.0Y-38.5
X42.0Y-30.5
X42.0Y-33.5
X42.0Y-35.5
X42.0Y-38.5
X42.5Y-23.0
X42.5Y-27.0
T2
X21.5Y-43.75
X21.5Y-46.25
T3
X8.46Y-45.5
X8.46Y-49.5
X11.0Y-45.5
X11.0Y-49.5
X15.0Y-36.65
X15.0Y-49.35
X19.34Y-38.5
X21.88Y-38.5
X24.42Y-38.5
X24.46Y-49.0
X26.96Y-38.5
X27.0Y-44.953
X27.0Y-49.0
X29.5Y-38.5
X29.54Y-44.953
X34.5Y-37.3
X34.5Y-50.0
T4
X4.5Y-31.5
X4.5Y-36.5
X40.5Y-32.0
X40.5Y-37.0
T5
X4.5Y-25.0
X11.0Y-55.5
X22.5Y-55.5
X34.0Y-55.5
X40.5Y-25.0
M30
