%TF.GenerationSoftware,KiCad,Pcbnew,8.0.8*%
%TF.CreationDate,2025-01-19T15:48:06-06:00*%
%TF.ProjectId,Block-JAN6418,426c6f63-6b2d-44a4-914e-363431382e6b,rev?*%
%TF.SameCoordinates,Original*%
%TF.FileFunction,Copper,L2,Bot*%
%TF.FilePolarity,Positive*%
%FSLAX46Y46*%
G04 Gerber Fmt 4.6, Leading zero omitted, Abs format (unit mm)*
G04 Created by KiCad (PCBNEW 8.0.8) date 2025-01-19 15:48:06*
%MOMM*%
%LPD*%
G01*
G04 APERTURE LIST*
%TA.AperFunction,ComponentPad*%
%ADD10R,1.200000X1.200000*%
%TD*%
%TA.AperFunction,ComponentPad*%
%ADD11C,1.200000*%
%TD*%
%TA.AperFunction,ComponentPad*%
%ADD12R,1.800000X1.800000*%
%TD*%
%TA.AperFunction,ComponentPad*%
%ADD13C,1.800000*%
%TD*%
%TA.AperFunction,ComponentPad*%
%ADD14C,3.000000*%
%TD*%
%TA.AperFunction,ComponentPad*%
%ADD15C,2.000000*%
%TD*%
%TA.AperFunction,ComponentPad*%
%ADD16C,1.600000*%
%TD*%
%TA.AperFunction,ComponentPad*%
%ADD17O,1.600000X1.600000*%
%TD*%
%TA.AperFunction,ComponentPad*%
%ADD18R,1.500000X1.500000*%
%TD*%
%TA.AperFunction,ComponentPad*%
%ADD19C,1.500000*%
%TD*%
%TA.AperFunction,ComponentPad*%
%ADD20C,1.400000*%
%TD*%
%TA.AperFunction,ViaPad*%
%ADD21C,1.000000*%
%TD*%
%TA.AperFunction,Conductor*%
%ADD22C,1.000000*%
%TD*%
G04 APERTURE END LIST*
D10*
%TO.P,C4,1*%
%TO.N,Net-(U2-VO)*%
X58000000Y-62277401D03*
D11*
%TO.P,C4,2*%
%TO.N,GND*%
X58000000Y-63777401D03*
%TD*%
D12*
%TO.P,U1,1,P*%
%TO.N,Net-(U1A-P)*%
X83000000Y-78452500D03*
D13*
%TO.P,U1,2,G2*%
%TO.N,Net-(U1A-G2)*%
X80460000Y-78452500D03*
%TO.P,U1,3,F+\u002CG3*%
%TO.N,Net-(U2-VO)*%
X77920000Y-78452500D03*
%TO.P,U1,4,G1*%
%TO.N,Net-(U1A-G1)*%
X75380000Y-78452500D03*
%TO.P,U1,5,F+\u002CG3*%
%TO.N,GND*%
X72840000Y-78452500D03*
%TD*%
D14*
%TO.P,+9V,1,Pin_1*%
%TO.N,+9V*%
X55495000Y-48452500D03*
%TD*%
D15*
%TO.P,C1,1*%
%TO.N,Net-(U1A-P)*%
X90000000Y-74372500D03*
%TO.P,C1,2*%
%TO.N,Net-(J4-Pin_1)*%
X95000000Y-74372500D03*
%TD*%
D16*
%TO.P,R8,1*%
%TO.N,GND*%
X63500000Y-64045000D03*
D17*
%TO.P,R8,2*%
%TO.N,Net-(U2-ADJ)*%
X63500000Y-61505000D03*
%TD*%
D14*
%TO.P,Sig_gnd,1,Pin_1*%
%TO.N,GND*%
X55500000Y-71000000D03*
%TD*%
D16*
%TO.P,R5,1*%
%TO.N,Net-(U1A-G2)*%
X75540000Y-84952500D03*
D17*
%TO.P,R5,2*%
%TO.N,GND*%
X73000000Y-84952500D03*
%TD*%
D16*
%TO.P,R1,1*%
%TO.N,Net-(R1-Pad1)*%
X64545000Y-48000000D03*
D17*
%TO.P,R1,2*%
%TO.N,+9V*%
X62005000Y-48000000D03*
%TD*%
D16*
%TO.P,Impedance,1*%
%TO.N,Net-(U1A-G1)*%
X65000000Y-82850000D03*
D17*
%TO.P,Impedance,2*%
%TO.N,GND*%
X65000000Y-70150000D03*
%TD*%
D16*
%TO.P,R2,1*%
%TO.N,Net-(R1-Pad1)*%
X64540000Y-52000000D03*
D17*
%TO.P,R2,2*%
%TO.N,Net-(U2-VO)*%
X62000000Y-52000000D03*
%TD*%
D16*
%TO.P,Ra,1*%
%TO.N,Net-(J1-Pin_1)*%
X92500000Y-56672500D03*
D17*
%TO.P,Ra,2*%
%TO.N,Net-(U1A-P)*%
X92500000Y-69372500D03*
%TD*%
D18*
%TO.P,U2,1,ADJ*%
%TO.N,Net-(U2-ADJ)*%
X58040000Y-57140000D03*
D19*
%TO.P,U2,2,VO*%
%TO.N,Net-(U2-VO)*%
X55500000Y-57140000D03*
%TO.P,U2,3,VI*%
%TO.N,+9V*%
X52960000Y-57140000D03*
%TD*%
D14*
%TO.P,Sig_out,1,Pin_1*%
%TO.N,Net-(J4-Pin_1)*%
X92500000Y-83372500D03*
%TD*%
D15*
%TO.P,C2,1*%
%TO.N,Net-(J3-Pin_1)*%
X62500000Y-86000000D03*
%TO.P,C2,2*%
%TO.N,Net-(U1A-G1)*%
X67500000Y-86000000D03*
%TD*%
D16*
%TO.P,R7,1*%
%TO.N,Net-(U2-ADJ)*%
X63500000Y-58545000D03*
D17*
%TO.P,R7,2*%
%TO.N,Net-(U2-VO)*%
X63500000Y-56005000D03*
%TD*%
D16*
%TO.P,R4,1*%
%TO.N,Net-(U1A-P)*%
X83040000Y-84952500D03*
D17*
%TO.P,R4,2*%
%TO.N,Net-(U1A-G2)*%
X80500000Y-84952500D03*
%TD*%
D14*
%TO.P,B+,1,Pin_1*%
%TO.N,Net-(J1-Pin_1)*%
X92500000Y-48372500D03*
%TD*%
%TO.P,Sig_in,1,Pin_1*%
%TO.N,Net-(J3-Pin_1)*%
X55500000Y-83500000D03*
%TD*%
D20*
%TO.P,C3,1*%
%TO.N,+9V*%
X53000000Y-61750000D03*
%TO.P,C3,2*%
%TO.N,GND*%
X53000000Y-64250000D03*
%TD*%
D21*
%TO.N,GND*%
X57500000Y-71000000D03*
X55500000Y-73000000D03*
X54000000Y-72500000D03*
X57000000Y-72500000D03*
X57000000Y-69500000D03*
X54000000Y-69500000D03*
X55500000Y-69000000D03*
X53500000Y-71000000D03*
%TD*%
D22*
%TO.N,GND*%
X57000000Y-69500000D02*
X57000000Y-70500000D01*
X57000000Y-70500000D02*
X57500000Y-71000000D01*
X57000000Y-72500000D02*
X57000000Y-71500000D01*
X57000000Y-71500000D02*
X57500000Y-71000000D01*
X57000000Y-72500000D02*
X56000000Y-72500000D01*
X56000000Y-72500000D02*
X55500000Y-73000000D01*
X54000000Y-72500000D02*
X55000000Y-72500000D01*
X55000000Y-72500000D02*
X55500000Y-73000000D01*
X54000000Y-72500000D02*
X54000000Y-71500000D01*
X54000000Y-71500000D02*
X53500000Y-71000000D01*
X54000000Y-69500000D02*
X54000000Y-70500000D01*
X54000000Y-70500000D02*
X53500000Y-71000000D01*
X54000000Y-69500000D02*
X55000000Y-69500000D01*
X55000000Y-69500000D02*
X55500000Y-69000000D01*
X57000000Y-69500000D02*
X56000000Y-69500000D01*
X56000000Y-69500000D02*
X55500000Y-69000000D01*
%TO.N,Net-(U2-VO)*%
X63500000Y-56005000D02*
X63500000Y-55000000D01*
X63500000Y-55000000D02*
X62000000Y-53500000D01*
X62000000Y-53500000D02*
X62000000Y-52000000D01*
X55500000Y-57140000D02*
X55500000Y-55500000D01*
X60505000Y-56005000D02*
X63500000Y-56005000D01*
X55500000Y-55500000D02*
X56500000Y-54500000D01*
X56500000Y-54500000D02*
X59000000Y-54500000D01*
X59000000Y-54500000D02*
X60505000Y-56005000D01*
%TO.N,Net-(U2-ADJ)*%
X63500000Y-58545000D02*
X59445000Y-58545000D01*
X59445000Y-58545000D02*
X58040000Y-57140000D01*
X63500000Y-61505000D02*
X63500000Y-58545000D01*
%TO.N,Net-(R1-Pad1)*%
X64540000Y-52000000D02*
X64540000Y-48005000D01*
%TO.N,Net-(U2-VO)*%
X55500000Y-57140000D02*
X55500000Y-59777401D01*
X55500000Y-59777401D02*
X58000000Y-62277401D01*
%TO.N,+9V*%
X52960000Y-57140000D02*
X52960000Y-61710000D01*
X52960000Y-57140000D02*
X52960000Y-50987500D01*
X52960000Y-50987500D02*
X55495000Y-48452500D01*
X62005000Y-48000000D02*
X55947500Y-48000000D01*
%TO.N,Net-(J1-Pin_1)*%
X92500000Y-56672500D02*
X92500000Y-48372500D01*
%TO.N,Net-(J4-Pin_1)*%
X95000000Y-80872500D02*
X92500000Y-83372500D01*
X95000000Y-74372500D02*
X95000000Y-80872500D01*
%TO.N,Net-(U1A-G2)*%
X80460000Y-78452500D02*
X80460000Y-84912500D01*
X75540000Y-84952500D02*
X80500000Y-84952500D01*
%TO.N,Net-(U1A-P)*%
X83000000Y-78452500D02*
X83000000Y-84912500D01*
X90000000Y-74372500D02*
X90000000Y-71872500D01*
X83000000Y-78452500D02*
X87080000Y-74372500D01*
X87080000Y-74372500D02*
X90000000Y-74372500D01*
X90000000Y-71872500D02*
X92500000Y-69372500D01*
%TO.N,Net-(U1A-G1)*%
X75380000Y-78452500D02*
X75380000Y-80120000D01*
X75380000Y-80120000D02*
X74000000Y-81500000D01*
X74000000Y-81500000D02*
X72000000Y-81500000D01*
%TO.N,Net-(J3-Pin_1)*%
X58000000Y-86000000D02*
X55500000Y-83500000D01*
%TO.N,Net-(U1A-G1)*%
X67500000Y-86000000D02*
X67500000Y-85350000D01*
%TO.N,Net-(J3-Pin_1)*%
X62500000Y-86000000D02*
X58000000Y-86000000D01*
%TO.N,Net-(U1A-G1)*%
X72000000Y-81500000D02*
X67500000Y-86000000D01*
X67500000Y-85350000D02*
X65000000Y-82850000D01*
%TO.N,Net-(U2-VO)*%
X77920000Y-76920000D02*
X77000000Y-76000000D01*
X77000000Y-76000000D02*
X65500000Y-76000000D01*
X65500000Y-76000000D02*
X60500000Y-71000000D01*
X77920000Y-78452500D02*
X77920000Y-76920000D01*
X60500000Y-71000000D02*
X60500000Y-63500000D01*
X60500000Y-63500000D02*
X59277401Y-62277401D01*
X59277401Y-62277401D02*
X58000000Y-62277401D01*
%TD*%
M02*
