%TF.GenerationSoftware,KiCad,Pcbnew,8.0.8*%
%TF.CreationDate,2025-01-19T15:48:11-06:00*%
%TF.ProjectId,Block-JAN6418,426c6f63-6b2d-44a4-914e-363431382e6b,rev?*%
%TF.SameCoordinates,Original*%
%TF.FileFunction,Drillmap*%
%TF.FilePolarity,Positive*%
%FSLAX45Y45*%
G04 Gerber Fmt 4.5, Leading zero omitted, Abs format (unit mm)*
G04 Created by KiCad (PCBNEW 8.0.8) date 2025-01-19 15:48:11*
%MOMM*%
%LPD*%
G01*
G04 APERTURE LIST*
%ADD10C,0.050000*%
%ADD11C,0.200000*%
%ADD12C,0.100000*%
%ADD13C,0.150000*%
G04 APERTURE END LIST*
D10*
X5000000Y-3500000D02*
X9800000Y-3500000D01*
X9800000Y-9800000D01*
X5000000Y-9800000D01*
X5000000Y-3500000D01*
D11*
D12*
X5770000Y-6197740D02*
X5830000Y-6257740D01*
X5830000Y-6197740D02*
X5770000Y-6257740D01*
X5770000Y-6347740D02*
X5830000Y-6407740D01*
X5830000Y-6347740D02*
X5770000Y-6407740D01*
X5335000Y-6175000D02*
G75*
G02*
X5265000Y-6175000I-35000J0D01*
G01*
X5265000Y-6175000D02*
G75*
G02*
X5335000Y-6175000I35000J0D01*
G01*
X5335000Y-6425000D02*
G75*
G02*
X5265000Y-6425000I-35000J0D01*
G01*
X5265000Y-6425000D02*
G75*
G02*
X5335000Y-6425000I35000J0D01*
G01*
X5350000Y-7062500D02*
X5350000Y-7137500D01*
X5312500Y-7100000D02*
X5387500Y-7100000D01*
X5400000Y-6912500D02*
X5400000Y-6987500D01*
X5362500Y-6950000D02*
X5437500Y-6950000D01*
X5400000Y-7212500D02*
X5400000Y-7287500D01*
X5362500Y-7250000D02*
X5437500Y-7250000D01*
X5550000Y-6862500D02*
X5550000Y-6937500D01*
X5512500Y-6900000D02*
X5587500Y-6900000D01*
X5550000Y-7262500D02*
X5550000Y-7337500D01*
X5512500Y-7300000D02*
X5587500Y-7300000D01*
X5700000Y-6912500D02*
X5700000Y-6987500D01*
X5662500Y-6950000D02*
X5737500Y-6950000D01*
X5700000Y-7212500D02*
X5700000Y-7287500D01*
X5662500Y-7250000D02*
X5737500Y-7250000D01*
X5750000Y-7062500D02*
X5750000Y-7137500D01*
X5712500Y-7100000D02*
X5787500Y-7100000D01*
X5324285Y-5742284D02*
X5324285Y-5685715D01*
X5267716Y-5685715D01*
X5267716Y-5742284D01*
X5324285Y-5742284D01*
X5578285Y-5742284D02*
X5578285Y-5685715D01*
X5521716Y-5685715D01*
X5521716Y-5742284D01*
X5578285Y-5742284D01*
X5832284Y-5742284D02*
X5832284Y-5685715D01*
X5775715Y-5685715D01*
X5775715Y-5742284D01*
X5832284Y-5742284D01*
X6228284Y-5228285D02*
X6228284Y-5171716D01*
X6171715Y-5171716D01*
X6171715Y-5228285D01*
X6228284Y-5228285D01*
X6228784Y-4828285D02*
X6228784Y-4771716D01*
X6172215Y-4771716D01*
X6172215Y-4828285D01*
X6228784Y-4828285D01*
X6378284Y-5628784D02*
X6378284Y-5572216D01*
X6321715Y-5572216D01*
X6321715Y-5628784D01*
X6378284Y-5628784D01*
X6378284Y-5882784D02*
X6378284Y-5826215D01*
X6321715Y-5826215D01*
X6321715Y-5882784D01*
X6378284Y-5882784D01*
X6378284Y-6178784D02*
X6378284Y-6122215D01*
X6321715Y-6122215D01*
X6321715Y-6178784D01*
X6378284Y-6178784D01*
X6378284Y-6432784D02*
X6378284Y-6376215D01*
X6321715Y-6376215D01*
X6321715Y-6432784D01*
X6378284Y-6432784D01*
X6482284Y-5228285D02*
X6482284Y-5171716D01*
X6425715Y-5171716D01*
X6425715Y-5228285D01*
X6482284Y-5228285D01*
X6482784Y-4828285D02*
X6482784Y-4771716D01*
X6426215Y-4771716D01*
X6426215Y-4828285D01*
X6482784Y-4828285D01*
X6528284Y-7043284D02*
X6528284Y-6986715D01*
X6471715Y-6986715D01*
X6471715Y-7043284D01*
X6528284Y-7043284D01*
X6528284Y-8313284D02*
X6528284Y-8256715D01*
X6471715Y-8256715D01*
X6471715Y-8313284D01*
X6528284Y-8313284D01*
X7312284Y-7873534D02*
X7312284Y-7816965D01*
X7255715Y-7816965D01*
X7255715Y-7873534D01*
X7312284Y-7873534D01*
X7328284Y-8523535D02*
X7328284Y-8466966D01*
X7271715Y-8466966D01*
X7271715Y-8523535D01*
X7328284Y-8523535D01*
X7566284Y-7873534D02*
X7566284Y-7816965D01*
X7509715Y-7816965D01*
X7509715Y-7873534D01*
X7566284Y-7873534D01*
X7582284Y-8523535D02*
X7582284Y-8466966D01*
X7525715Y-8466966D01*
X7525715Y-8523535D01*
X7582284Y-8523535D01*
X7820284Y-7873534D02*
X7820284Y-7816965D01*
X7763715Y-7816965D01*
X7763715Y-7873534D01*
X7820284Y-7873534D01*
X8074284Y-7873534D02*
X8074284Y-7816965D01*
X8017715Y-7816965D01*
X8017715Y-7873534D01*
X8074284Y-7873534D01*
X8078284Y-8523535D02*
X8078284Y-8466966D01*
X8021715Y-8466966D01*
X8021715Y-8523535D01*
X8078284Y-8523535D01*
X8328284Y-7873534D02*
X8328284Y-7816965D01*
X8271715Y-7816965D01*
X8271715Y-7873534D01*
X8328284Y-7873534D01*
X8332284Y-8523535D02*
X8332284Y-8466966D01*
X8275715Y-8466966D01*
X8275715Y-8523535D01*
X8332284Y-8523535D01*
X9278285Y-5695534D02*
X9278285Y-5638965D01*
X9221716Y-5638965D01*
X9221716Y-5695534D01*
X9278285Y-5695534D01*
X9278285Y-6965534D02*
X9278285Y-6908965D01*
X9221716Y-6908965D01*
X9221716Y-6965534D01*
X9278285Y-6965534D01*
X6250000Y-8650000D02*
X6300000Y-8600000D01*
X6250000Y-8550000D01*
X6200000Y-8600000D01*
X6250000Y-8650000D01*
X6750000Y-8650000D02*
X6800000Y-8600000D01*
X6750000Y-8550000D01*
X6700000Y-8600000D01*
X6750000Y-8650000D01*
X9000000Y-7487250D02*
X9050000Y-7437250D01*
X9000000Y-7387250D01*
X8950000Y-7437250D01*
X9000000Y-7487250D01*
X9500000Y-7487250D02*
X9550000Y-7437250D01*
X9500000Y-7387250D01*
X9450000Y-7437250D01*
X9500000Y-7487250D01*
D13*
X5474500Y-4770250D02*
X5624500Y-4920250D01*
X5624500Y-4770250D02*
X5474500Y-4920250D01*
X5624500Y-4845250D02*
G75*
G02*
X5474500Y-4845250I-75000J0D01*
G01*
X5474500Y-4845250D02*
G75*
G02*
X5624500Y-4845250I75000J0D01*
G01*
X5475000Y-7025000D02*
X5625000Y-7175000D01*
X5625000Y-7025000D02*
X5475000Y-7175000D01*
X5625000Y-7100000D02*
G75*
G02*
X5475000Y-7100000I-75000J0D01*
G01*
X5475000Y-7100000D02*
G75*
G02*
X5625000Y-7100000I75000J0D01*
G01*
X5475000Y-8275000D02*
X5625000Y-8425000D01*
X5625000Y-8275000D02*
X5475000Y-8425000D01*
X5625000Y-8350000D02*
G75*
G02*
X5475000Y-8350000I-75000J0D01*
G01*
X5475000Y-8350000D02*
G75*
G02*
X5625000Y-8350000I75000J0D01*
G01*
X9175000Y-4762250D02*
X9325000Y-4912250D01*
X9325000Y-4762250D02*
X9175000Y-4912250D01*
X9325000Y-4837250D02*
G75*
G02*
X9175000Y-4837250I-75000J0D01*
G01*
X9175000Y-4837250D02*
G75*
G02*
X9325000Y-4837250I75000J0D01*
G01*
X9175000Y-8262250D02*
X9325000Y-8412250D01*
X9325000Y-8262250D02*
X9175000Y-8412250D01*
X9325000Y-8337250D02*
G75*
G02*
X9175000Y-8337250I-75000J0D01*
G01*
X9175000Y-8337250D02*
G75*
G02*
X9325000Y-8337250I75000J0D01*
G01*
D11*
X5258277Y-10113984D02*
X5258277Y-9913984D01*
X5258277Y-9913984D02*
X5305896Y-9913984D01*
X5305896Y-9913984D02*
X5334467Y-9923508D01*
X5334467Y-9923508D02*
X5353515Y-9942555D01*
X5353515Y-9942555D02*
X5363039Y-9961603D01*
X5363039Y-9961603D02*
X5372563Y-9999698D01*
X5372563Y-9999698D02*
X5372563Y-10028270D01*
X5372563Y-10028270D02*
X5363039Y-10066365D01*
X5363039Y-10066365D02*
X5353515Y-10085412D01*
X5353515Y-10085412D02*
X5334467Y-10104460D01*
X5334467Y-10104460D02*
X5305896Y-10113984D01*
X5305896Y-10113984D02*
X5258277Y-10113984D01*
X5458277Y-10113984D02*
X5458277Y-9980650D01*
X5458277Y-10018746D02*
X5467801Y-9999698D01*
X5467801Y-9999698D02*
X5477324Y-9990174D01*
X5477324Y-9990174D02*
X5496372Y-9980650D01*
X5496372Y-9980650D02*
X5515420Y-9980650D01*
X5582086Y-10113984D02*
X5582086Y-9980650D01*
X5582086Y-9913984D02*
X5572563Y-9923508D01*
X5572563Y-9923508D02*
X5582086Y-9933031D01*
X5582086Y-9933031D02*
X5591610Y-9923508D01*
X5591610Y-9923508D02*
X5582086Y-9913984D01*
X5582086Y-9913984D02*
X5582086Y-9933031D01*
X5705896Y-10113984D02*
X5686848Y-10104460D01*
X5686848Y-10104460D02*
X5677324Y-10085412D01*
X5677324Y-10085412D02*
X5677324Y-9913984D01*
X5810658Y-10113984D02*
X5791610Y-10104460D01*
X5791610Y-10104460D02*
X5782086Y-10085412D01*
X5782086Y-10085412D02*
X5782086Y-9913984D01*
X6039229Y-10113984D02*
X6039229Y-9913984D01*
X6039229Y-9913984D02*
X6105896Y-10056841D01*
X6105896Y-10056841D02*
X6172562Y-9913984D01*
X6172562Y-9913984D02*
X6172562Y-10113984D01*
X6353515Y-10113984D02*
X6353515Y-10009222D01*
X6353515Y-10009222D02*
X6343991Y-9990174D01*
X6343991Y-9990174D02*
X6324943Y-9980650D01*
X6324943Y-9980650D02*
X6286848Y-9980650D01*
X6286848Y-9980650D02*
X6267801Y-9990174D01*
X6353515Y-10104460D02*
X6334467Y-10113984D01*
X6334467Y-10113984D02*
X6286848Y-10113984D01*
X6286848Y-10113984D02*
X6267801Y-10104460D01*
X6267801Y-10104460D02*
X6258277Y-10085412D01*
X6258277Y-10085412D02*
X6258277Y-10066365D01*
X6258277Y-10066365D02*
X6267801Y-10047317D01*
X6267801Y-10047317D02*
X6286848Y-10037793D01*
X6286848Y-10037793D02*
X6334467Y-10037793D01*
X6334467Y-10037793D02*
X6353515Y-10028270D01*
X6448753Y-9980650D02*
X6448753Y-10180650D01*
X6448753Y-9990174D02*
X6467801Y-9980650D01*
X6467801Y-9980650D02*
X6505896Y-9980650D01*
X6505896Y-9980650D02*
X6524943Y-9990174D01*
X6524943Y-9990174D02*
X6534467Y-9999698D01*
X6534467Y-9999698D02*
X6543991Y-10018746D01*
X6543991Y-10018746D02*
X6543991Y-10075889D01*
X6543991Y-10075889D02*
X6534467Y-10094936D01*
X6534467Y-10094936D02*
X6524943Y-10104460D01*
X6524943Y-10104460D02*
X6505896Y-10113984D01*
X6505896Y-10113984D02*
X6467801Y-10113984D01*
X6467801Y-10113984D02*
X6448753Y-10104460D01*
X6629705Y-10094936D02*
X6639229Y-10104460D01*
X6639229Y-10104460D02*
X6629705Y-10113984D01*
X6629705Y-10113984D02*
X6620182Y-10104460D01*
X6620182Y-10104460D02*
X6629705Y-10094936D01*
X6629705Y-10094936D02*
X6629705Y-10113984D01*
X6629705Y-9990174D02*
X6639229Y-9999698D01*
X6639229Y-9999698D02*
X6629705Y-10009222D01*
X6629705Y-10009222D02*
X6620182Y-9999698D01*
X6620182Y-9999698D02*
X6629705Y-9990174D01*
X6629705Y-9990174D02*
X6629705Y-10009222D01*
D12*
X4937500Y-10412500D02*
X4997500Y-10472500D01*
X4997500Y-10412500D02*
X4937500Y-10472500D01*
D11*
X5296372Y-10333984D02*
X5315420Y-10333984D01*
X5315420Y-10333984D02*
X5334467Y-10343508D01*
X5334467Y-10343508D02*
X5343991Y-10353031D01*
X5343991Y-10353031D02*
X5353515Y-10372079D01*
X5353515Y-10372079D02*
X5363039Y-10410174D01*
X5363039Y-10410174D02*
X5363039Y-10457793D01*
X5363039Y-10457793D02*
X5353515Y-10495889D01*
X5353515Y-10495889D02*
X5343991Y-10514936D01*
X5343991Y-10514936D02*
X5334467Y-10524460D01*
X5334467Y-10524460D02*
X5315420Y-10533984D01*
X5315420Y-10533984D02*
X5296372Y-10533984D01*
X5296372Y-10533984D02*
X5277324Y-10524460D01*
X5277324Y-10524460D02*
X5267801Y-10514936D01*
X5267801Y-10514936D02*
X5258277Y-10495889D01*
X5258277Y-10495889D02*
X5248753Y-10457793D01*
X5248753Y-10457793D02*
X5248753Y-10410174D01*
X5248753Y-10410174D02*
X5258277Y-10372079D01*
X5258277Y-10372079D02*
X5267801Y-10353031D01*
X5267801Y-10353031D02*
X5277324Y-10343508D01*
X5277324Y-10343508D02*
X5296372Y-10333984D01*
X5448753Y-10514936D02*
X5458277Y-10524460D01*
X5458277Y-10524460D02*
X5448753Y-10533984D01*
X5448753Y-10533984D02*
X5439229Y-10524460D01*
X5439229Y-10524460D02*
X5448753Y-10514936D01*
X5448753Y-10514936D02*
X5448753Y-10533984D01*
X5629705Y-10333984D02*
X5591610Y-10333984D01*
X5591610Y-10333984D02*
X5572563Y-10343508D01*
X5572563Y-10343508D02*
X5563039Y-10353031D01*
X5563039Y-10353031D02*
X5543991Y-10381603D01*
X5543991Y-10381603D02*
X5534467Y-10419698D01*
X5534467Y-10419698D02*
X5534467Y-10495889D01*
X5534467Y-10495889D02*
X5543991Y-10514936D01*
X5543991Y-10514936D02*
X5553515Y-10524460D01*
X5553515Y-10524460D02*
X5572563Y-10533984D01*
X5572563Y-10533984D02*
X5610658Y-10533984D01*
X5610658Y-10533984D02*
X5629705Y-10524460D01*
X5629705Y-10524460D02*
X5639229Y-10514936D01*
X5639229Y-10514936D02*
X5648753Y-10495889D01*
X5648753Y-10495889D02*
X5648753Y-10448270D01*
X5648753Y-10448270D02*
X5639229Y-10429222D01*
X5639229Y-10429222D02*
X5629705Y-10419698D01*
X5629705Y-10419698D02*
X5610658Y-10410174D01*
X5610658Y-10410174D02*
X5572563Y-10410174D01*
X5572563Y-10410174D02*
X5553515Y-10419698D01*
X5553515Y-10419698D02*
X5543991Y-10429222D01*
X5543991Y-10429222D02*
X5534467Y-10448270D01*
X5772562Y-10333984D02*
X5791610Y-10333984D01*
X5791610Y-10333984D02*
X5810658Y-10343508D01*
X5810658Y-10343508D02*
X5820182Y-10353031D01*
X5820182Y-10353031D02*
X5829705Y-10372079D01*
X5829705Y-10372079D02*
X5839229Y-10410174D01*
X5839229Y-10410174D02*
X5839229Y-10457793D01*
X5839229Y-10457793D02*
X5829705Y-10495889D01*
X5829705Y-10495889D02*
X5820182Y-10514936D01*
X5820182Y-10514936D02*
X5810658Y-10524460D01*
X5810658Y-10524460D02*
X5791610Y-10533984D01*
X5791610Y-10533984D02*
X5772562Y-10533984D01*
X5772562Y-10533984D02*
X5753515Y-10524460D01*
X5753515Y-10524460D02*
X5743991Y-10514936D01*
X5743991Y-10514936D02*
X5734467Y-10495889D01*
X5734467Y-10495889D02*
X5724943Y-10457793D01*
X5724943Y-10457793D02*
X5724943Y-10410174D01*
X5724943Y-10410174D02*
X5734467Y-10372079D01*
X5734467Y-10372079D02*
X5743991Y-10353031D01*
X5743991Y-10353031D02*
X5753515Y-10343508D01*
X5753515Y-10343508D02*
X5772562Y-10333984D01*
X5963039Y-10333984D02*
X5982086Y-10333984D01*
X5982086Y-10333984D02*
X6001134Y-10343508D01*
X6001134Y-10343508D02*
X6010658Y-10353031D01*
X6010658Y-10353031D02*
X6020182Y-10372079D01*
X6020182Y-10372079D02*
X6029705Y-10410174D01*
X6029705Y-10410174D02*
X6029705Y-10457793D01*
X6029705Y-10457793D02*
X6020182Y-10495889D01*
X6020182Y-10495889D02*
X6010658Y-10514936D01*
X6010658Y-10514936D02*
X6001134Y-10524460D01*
X6001134Y-10524460D02*
X5982086Y-10533984D01*
X5982086Y-10533984D02*
X5963039Y-10533984D01*
X5963039Y-10533984D02*
X5943991Y-10524460D01*
X5943991Y-10524460D02*
X5934467Y-10514936D01*
X5934467Y-10514936D02*
X5924943Y-10495889D01*
X5924943Y-10495889D02*
X5915420Y-10457793D01*
X5915420Y-10457793D02*
X5915420Y-10410174D01*
X5915420Y-10410174D02*
X5924943Y-10372079D01*
X5924943Y-10372079D02*
X5934467Y-10353031D01*
X5934467Y-10353031D02*
X5943991Y-10343508D01*
X5943991Y-10343508D02*
X5963039Y-10333984D01*
X6115420Y-10533984D02*
X6115420Y-10400650D01*
X6115420Y-10419698D02*
X6124943Y-10410174D01*
X6124943Y-10410174D02*
X6143991Y-10400650D01*
X6143991Y-10400650D02*
X6172563Y-10400650D01*
X6172563Y-10400650D02*
X6191610Y-10410174D01*
X6191610Y-10410174D02*
X6201134Y-10429222D01*
X6201134Y-10429222D02*
X6201134Y-10533984D01*
X6201134Y-10429222D02*
X6210658Y-10410174D01*
X6210658Y-10410174D02*
X6229705Y-10400650D01*
X6229705Y-10400650D02*
X6258277Y-10400650D01*
X6258277Y-10400650D02*
X6277324Y-10410174D01*
X6277324Y-10410174D02*
X6286848Y-10429222D01*
X6286848Y-10429222D02*
X6286848Y-10533984D01*
X6382086Y-10533984D02*
X6382086Y-10400650D01*
X6382086Y-10419698D02*
X6391610Y-10410174D01*
X6391610Y-10410174D02*
X6410658Y-10400650D01*
X6410658Y-10400650D02*
X6439229Y-10400650D01*
X6439229Y-10400650D02*
X6458277Y-10410174D01*
X6458277Y-10410174D02*
X6467801Y-10429222D01*
X6467801Y-10429222D02*
X6467801Y-10533984D01*
X6467801Y-10429222D02*
X6477324Y-10410174D01*
X6477324Y-10410174D02*
X6496372Y-10400650D01*
X6496372Y-10400650D02*
X6524943Y-10400650D01*
X6524943Y-10400650D02*
X6543991Y-10410174D01*
X6543991Y-10410174D02*
X6553515Y-10429222D01*
X6553515Y-10429222D02*
X6553515Y-10533984D01*
X6943991Y-10324460D02*
X6772563Y-10581603D01*
X7201134Y-10333984D02*
X7220182Y-10333984D01*
X7220182Y-10333984D02*
X7239229Y-10343508D01*
X7239229Y-10343508D02*
X7248753Y-10353031D01*
X7248753Y-10353031D02*
X7258277Y-10372079D01*
X7258277Y-10372079D02*
X7267801Y-10410174D01*
X7267801Y-10410174D02*
X7267801Y-10457793D01*
X7267801Y-10457793D02*
X7258277Y-10495889D01*
X7258277Y-10495889D02*
X7248753Y-10514936D01*
X7248753Y-10514936D02*
X7239229Y-10524460D01*
X7239229Y-10524460D02*
X7220182Y-10533984D01*
X7220182Y-10533984D02*
X7201134Y-10533984D01*
X7201134Y-10533984D02*
X7182086Y-10524460D01*
X7182086Y-10524460D02*
X7172563Y-10514936D01*
X7172563Y-10514936D02*
X7163039Y-10495889D01*
X7163039Y-10495889D02*
X7153515Y-10457793D01*
X7153515Y-10457793D02*
X7153515Y-10410174D01*
X7153515Y-10410174D02*
X7163039Y-10372079D01*
X7163039Y-10372079D02*
X7172563Y-10353031D01*
X7172563Y-10353031D02*
X7182086Y-10343508D01*
X7182086Y-10343508D02*
X7201134Y-10333984D01*
X7353515Y-10514936D02*
X7363039Y-10524460D01*
X7363039Y-10524460D02*
X7353515Y-10533984D01*
X7353515Y-10533984D02*
X7343991Y-10524460D01*
X7343991Y-10524460D02*
X7353515Y-10514936D01*
X7353515Y-10514936D02*
X7353515Y-10533984D01*
X7486848Y-10333984D02*
X7505896Y-10333984D01*
X7505896Y-10333984D02*
X7524944Y-10343508D01*
X7524944Y-10343508D02*
X7534467Y-10353031D01*
X7534467Y-10353031D02*
X7543991Y-10372079D01*
X7543991Y-10372079D02*
X7553515Y-10410174D01*
X7553515Y-10410174D02*
X7553515Y-10457793D01*
X7553515Y-10457793D02*
X7543991Y-10495889D01*
X7543991Y-10495889D02*
X7534467Y-10514936D01*
X7534467Y-10514936D02*
X7524944Y-10524460D01*
X7524944Y-10524460D02*
X7505896Y-10533984D01*
X7505896Y-10533984D02*
X7486848Y-10533984D01*
X7486848Y-10533984D02*
X7467801Y-10524460D01*
X7467801Y-10524460D02*
X7458277Y-10514936D01*
X7458277Y-10514936D02*
X7448753Y-10495889D01*
X7448753Y-10495889D02*
X7439229Y-10457793D01*
X7439229Y-10457793D02*
X7439229Y-10410174D01*
X7439229Y-10410174D02*
X7448753Y-10372079D01*
X7448753Y-10372079D02*
X7458277Y-10353031D01*
X7458277Y-10353031D02*
X7467801Y-10343508D01*
X7467801Y-10343508D02*
X7486848Y-10333984D01*
X7629706Y-10353031D02*
X7639229Y-10343508D01*
X7639229Y-10343508D02*
X7658277Y-10333984D01*
X7658277Y-10333984D02*
X7705896Y-10333984D01*
X7705896Y-10333984D02*
X7724944Y-10343508D01*
X7724944Y-10343508D02*
X7734467Y-10353031D01*
X7734467Y-10353031D02*
X7743991Y-10372079D01*
X7743991Y-10372079D02*
X7743991Y-10391127D01*
X7743991Y-10391127D02*
X7734467Y-10419698D01*
X7734467Y-10419698D02*
X7620182Y-10533984D01*
X7620182Y-10533984D02*
X7743991Y-10533984D01*
X7810658Y-10333984D02*
X7934467Y-10333984D01*
X7934467Y-10333984D02*
X7867801Y-10410174D01*
X7867801Y-10410174D02*
X7896372Y-10410174D01*
X7896372Y-10410174D02*
X7915420Y-10419698D01*
X7915420Y-10419698D02*
X7924944Y-10429222D01*
X7924944Y-10429222D02*
X7934467Y-10448270D01*
X7934467Y-10448270D02*
X7934467Y-10495889D01*
X7934467Y-10495889D02*
X7924944Y-10514936D01*
X7924944Y-10514936D02*
X7915420Y-10524460D01*
X7915420Y-10524460D02*
X7896372Y-10533984D01*
X7896372Y-10533984D02*
X7839229Y-10533984D01*
X7839229Y-10533984D02*
X7820182Y-10524460D01*
X7820182Y-10524460D02*
X7810658Y-10514936D01*
X8105896Y-10333984D02*
X8067801Y-10333984D01*
X8067801Y-10333984D02*
X8048753Y-10343508D01*
X8048753Y-10343508D02*
X8039229Y-10353031D01*
X8039229Y-10353031D02*
X8020182Y-10381603D01*
X8020182Y-10381603D02*
X8010658Y-10419698D01*
X8010658Y-10419698D02*
X8010658Y-10495889D01*
X8010658Y-10495889D02*
X8020182Y-10514936D01*
X8020182Y-10514936D02*
X8029706Y-10524460D01*
X8029706Y-10524460D02*
X8048753Y-10533984D01*
X8048753Y-10533984D02*
X8086848Y-10533984D01*
X8086848Y-10533984D02*
X8105896Y-10524460D01*
X8105896Y-10524460D02*
X8115420Y-10514936D01*
X8115420Y-10514936D02*
X8124944Y-10495889D01*
X8124944Y-10495889D02*
X8124944Y-10448270D01*
X8124944Y-10448270D02*
X8115420Y-10429222D01*
X8115420Y-10429222D02*
X8105896Y-10419698D01*
X8105896Y-10419698D02*
X8086848Y-10410174D01*
X8086848Y-10410174D02*
X8048753Y-10410174D01*
X8048753Y-10410174D02*
X8029706Y-10419698D01*
X8029706Y-10419698D02*
X8020182Y-10429222D01*
X8020182Y-10429222D02*
X8010658Y-10448270D01*
X8201134Y-10333984D02*
X8201134Y-10372079D01*
X8277325Y-10333984D02*
X8277325Y-10372079D01*
X8572563Y-10610174D02*
X8563039Y-10600650D01*
X8563039Y-10600650D02*
X8543991Y-10572079D01*
X8543991Y-10572079D02*
X8534468Y-10553031D01*
X8534468Y-10553031D02*
X8524944Y-10524460D01*
X8524944Y-10524460D02*
X8515420Y-10476841D01*
X8515420Y-10476841D02*
X8515420Y-10438746D01*
X8515420Y-10438746D02*
X8524944Y-10391127D01*
X8524944Y-10391127D02*
X8534468Y-10362555D01*
X8534468Y-10362555D02*
X8543991Y-10343508D01*
X8543991Y-10343508D02*
X8563039Y-10314936D01*
X8563039Y-10314936D02*
X8572563Y-10305412D01*
X8639230Y-10353031D02*
X8648753Y-10343508D01*
X8648753Y-10343508D02*
X8667801Y-10333984D01*
X8667801Y-10333984D02*
X8715420Y-10333984D01*
X8715420Y-10333984D02*
X8734468Y-10343508D01*
X8734468Y-10343508D02*
X8743991Y-10353031D01*
X8743991Y-10353031D02*
X8753515Y-10372079D01*
X8753515Y-10372079D02*
X8753515Y-10391127D01*
X8753515Y-10391127D02*
X8743991Y-10419698D01*
X8743991Y-10419698D02*
X8629706Y-10533984D01*
X8629706Y-10533984D02*
X8753515Y-10533984D01*
X8991611Y-10533984D02*
X8991611Y-10333984D01*
X9077325Y-10533984D02*
X9077325Y-10429222D01*
X9077325Y-10429222D02*
X9067801Y-10410174D01*
X9067801Y-10410174D02*
X9048753Y-10400650D01*
X9048753Y-10400650D02*
X9020182Y-10400650D01*
X9020182Y-10400650D02*
X9001134Y-10410174D01*
X9001134Y-10410174D02*
X8991611Y-10419698D01*
X9201134Y-10533984D02*
X9182087Y-10524460D01*
X9182087Y-10524460D02*
X9172563Y-10514936D01*
X9172563Y-10514936D02*
X9163039Y-10495889D01*
X9163039Y-10495889D02*
X9163039Y-10438746D01*
X9163039Y-10438746D02*
X9172563Y-10419698D01*
X9172563Y-10419698D02*
X9182087Y-10410174D01*
X9182087Y-10410174D02*
X9201134Y-10400650D01*
X9201134Y-10400650D02*
X9229706Y-10400650D01*
X9229706Y-10400650D02*
X9248753Y-10410174D01*
X9248753Y-10410174D02*
X9258277Y-10419698D01*
X9258277Y-10419698D02*
X9267801Y-10438746D01*
X9267801Y-10438746D02*
X9267801Y-10495889D01*
X9267801Y-10495889D02*
X9258277Y-10514936D01*
X9258277Y-10514936D02*
X9248753Y-10524460D01*
X9248753Y-10524460D02*
X9229706Y-10533984D01*
X9229706Y-10533984D02*
X9201134Y-10533984D01*
X9382087Y-10533984D02*
X9363039Y-10524460D01*
X9363039Y-10524460D02*
X9353515Y-10505412D01*
X9353515Y-10505412D02*
X9353515Y-10333984D01*
X9534468Y-10524460D02*
X9515420Y-10533984D01*
X9515420Y-10533984D02*
X9477325Y-10533984D01*
X9477325Y-10533984D02*
X9458277Y-10524460D01*
X9458277Y-10524460D02*
X9448753Y-10505412D01*
X9448753Y-10505412D02*
X9448753Y-10429222D01*
X9448753Y-10429222D02*
X9458277Y-10410174D01*
X9458277Y-10410174D02*
X9477325Y-10400650D01*
X9477325Y-10400650D02*
X9515420Y-10400650D01*
X9515420Y-10400650D02*
X9534468Y-10410174D01*
X9534468Y-10410174D02*
X9543992Y-10429222D01*
X9543992Y-10429222D02*
X9543992Y-10448270D01*
X9543992Y-10448270D02*
X9448753Y-10467317D01*
X9620182Y-10524460D02*
X9639230Y-10533984D01*
X9639230Y-10533984D02*
X9677325Y-10533984D01*
X9677325Y-10533984D02*
X9696373Y-10524460D01*
X9696373Y-10524460D02*
X9705896Y-10505412D01*
X9705896Y-10505412D02*
X9705896Y-10495889D01*
X9705896Y-10495889D02*
X9696373Y-10476841D01*
X9696373Y-10476841D02*
X9677325Y-10467317D01*
X9677325Y-10467317D02*
X9648753Y-10467317D01*
X9648753Y-10467317D02*
X9629706Y-10457793D01*
X9629706Y-10457793D02*
X9620182Y-10438746D01*
X9620182Y-10438746D02*
X9620182Y-10429222D01*
X9620182Y-10429222D02*
X9629706Y-10410174D01*
X9629706Y-10410174D02*
X9648753Y-10400650D01*
X9648753Y-10400650D02*
X9677325Y-10400650D01*
X9677325Y-10400650D02*
X9696373Y-10410174D01*
X9772563Y-10610174D02*
X9782087Y-10600650D01*
X9782087Y-10600650D02*
X9801134Y-10572079D01*
X9801134Y-10572079D02*
X9810658Y-10553031D01*
X9810658Y-10553031D02*
X9820182Y-10524460D01*
X9820182Y-10524460D02*
X9829706Y-10476841D01*
X9829706Y-10476841D02*
X9829706Y-10438746D01*
X9829706Y-10438746D02*
X9820182Y-10391127D01*
X9820182Y-10391127D02*
X9810658Y-10362555D01*
X9810658Y-10362555D02*
X9801134Y-10343508D01*
X9801134Y-10343508D02*
X9782087Y-10314936D01*
X9782087Y-10314936D02*
X9772563Y-10305412D01*
D12*
X4997500Y-10706500D02*
G75*
G02*
X4927500Y-10706500I-35000J0D01*
G01*
X4927500Y-10706500D02*
G75*
G02*
X4997500Y-10706500I35000J0D01*
G01*
D11*
X5296372Y-10597984D02*
X5315420Y-10597984D01*
X5315420Y-10597984D02*
X5334467Y-10607508D01*
X5334467Y-10607508D02*
X5343991Y-10617031D01*
X5343991Y-10617031D02*
X5353515Y-10636079D01*
X5353515Y-10636079D02*
X5363039Y-10674174D01*
X5363039Y-10674174D02*
X5363039Y-10721793D01*
X5363039Y-10721793D02*
X5353515Y-10759889D01*
X5353515Y-10759889D02*
X5343991Y-10778936D01*
X5343991Y-10778936D02*
X5334467Y-10788460D01*
X5334467Y-10788460D02*
X5315420Y-10797984D01*
X5315420Y-10797984D02*
X5296372Y-10797984D01*
X5296372Y-10797984D02*
X5277324Y-10788460D01*
X5277324Y-10788460D02*
X5267801Y-10778936D01*
X5267801Y-10778936D02*
X5258277Y-10759889D01*
X5258277Y-10759889D02*
X5248753Y-10721793D01*
X5248753Y-10721793D02*
X5248753Y-10674174D01*
X5248753Y-10674174D02*
X5258277Y-10636079D01*
X5258277Y-10636079D02*
X5267801Y-10617031D01*
X5267801Y-10617031D02*
X5277324Y-10607508D01*
X5277324Y-10607508D02*
X5296372Y-10597984D01*
X5448753Y-10778936D02*
X5458277Y-10788460D01*
X5458277Y-10788460D02*
X5448753Y-10797984D01*
X5448753Y-10797984D02*
X5439229Y-10788460D01*
X5439229Y-10788460D02*
X5448753Y-10778936D01*
X5448753Y-10778936D02*
X5448753Y-10797984D01*
X5524944Y-10597984D02*
X5658277Y-10597984D01*
X5658277Y-10597984D02*
X5572563Y-10797984D01*
X5772562Y-10597984D02*
X5791610Y-10597984D01*
X5791610Y-10597984D02*
X5810658Y-10607508D01*
X5810658Y-10607508D02*
X5820182Y-10617031D01*
X5820182Y-10617031D02*
X5829705Y-10636079D01*
X5829705Y-10636079D02*
X5839229Y-10674174D01*
X5839229Y-10674174D02*
X5839229Y-10721793D01*
X5839229Y-10721793D02*
X5829705Y-10759889D01*
X5829705Y-10759889D02*
X5820182Y-10778936D01*
X5820182Y-10778936D02*
X5810658Y-10788460D01*
X5810658Y-10788460D02*
X5791610Y-10797984D01*
X5791610Y-10797984D02*
X5772562Y-10797984D01*
X5772562Y-10797984D02*
X5753515Y-10788460D01*
X5753515Y-10788460D02*
X5743991Y-10778936D01*
X5743991Y-10778936D02*
X5734467Y-10759889D01*
X5734467Y-10759889D02*
X5724943Y-10721793D01*
X5724943Y-10721793D02*
X5724943Y-10674174D01*
X5724943Y-10674174D02*
X5734467Y-10636079D01*
X5734467Y-10636079D02*
X5743991Y-10617031D01*
X5743991Y-10617031D02*
X5753515Y-10607508D01*
X5753515Y-10607508D02*
X5772562Y-10597984D01*
X5963039Y-10597984D02*
X5982086Y-10597984D01*
X5982086Y-10597984D02*
X6001134Y-10607508D01*
X6001134Y-10607508D02*
X6010658Y-10617031D01*
X6010658Y-10617031D02*
X6020182Y-10636079D01*
X6020182Y-10636079D02*
X6029705Y-10674174D01*
X6029705Y-10674174D02*
X6029705Y-10721793D01*
X6029705Y-10721793D02*
X6020182Y-10759889D01*
X6020182Y-10759889D02*
X6010658Y-10778936D01*
X6010658Y-10778936D02*
X6001134Y-10788460D01*
X6001134Y-10788460D02*
X5982086Y-10797984D01*
X5982086Y-10797984D02*
X5963039Y-10797984D01*
X5963039Y-10797984D02*
X5943991Y-10788460D01*
X5943991Y-10788460D02*
X5934467Y-10778936D01*
X5934467Y-10778936D02*
X5924943Y-10759889D01*
X5924943Y-10759889D02*
X5915420Y-10721793D01*
X5915420Y-10721793D02*
X5915420Y-10674174D01*
X5915420Y-10674174D02*
X5924943Y-10636079D01*
X5924943Y-10636079D02*
X5934467Y-10617031D01*
X5934467Y-10617031D02*
X5943991Y-10607508D01*
X5943991Y-10607508D02*
X5963039Y-10597984D01*
X6115420Y-10797984D02*
X6115420Y-10664650D01*
X6115420Y-10683698D02*
X6124943Y-10674174D01*
X6124943Y-10674174D02*
X6143991Y-10664650D01*
X6143991Y-10664650D02*
X6172563Y-10664650D01*
X6172563Y-10664650D02*
X6191610Y-10674174D01*
X6191610Y-10674174D02*
X6201134Y-10693222D01*
X6201134Y-10693222D02*
X6201134Y-10797984D01*
X6201134Y-10693222D02*
X6210658Y-10674174D01*
X6210658Y-10674174D02*
X6229705Y-10664650D01*
X6229705Y-10664650D02*
X6258277Y-10664650D01*
X6258277Y-10664650D02*
X6277324Y-10674174D01*
X6277324Y-10674174D02*
X6286848Y-10693222D01*
X6286848Y-10693222D02*
X6286848Y-10797984D01*
X6382086Y-10797984D02*
X6382086Y-10664650D01*
X6382086Y-10683698D02*
X6391610Y-10674174D01*
X6391610Y-10674174D02*
X6410658Y-10664650D01*
X6410658Y-10664650D02*
X6439229Y-10664650D01*
X6439229Y-10664650D02*
X6458277Y-10674174D01*
X6458277Y-10674174D02*
X6467801Y-10693222D01*
X6467801Y-10693222D02*
X6467801Y-10797984D01*
X6467801Y-10693222D02*
X6477324Y-10674174D01*
X6477324Y-10674174D02*
X6496372Y-10664650D01*
X6496372Y-10664650D02*
X6524943Y-10664650D01*
X6524943Y-10664650D02*
X6543991Y-10674174D01*
X6543991Y-10674174D02*
X6553515Y-10693222D01*
X6553515Y-10693222D02*
X6553515Y-10797984D01*
X6943991Y-10588460D02*
X6772563Y-10845603D01*
X7201134Y-10597984D02*
X7220182Y-10597984D01*
X7220182Y-10597984D02*
X7239229Y-10607508D01*
X7239229Y-10607508D02*
X7248753Y-10617031D01*
X7248753Y-10617031D02*
X7258277Y-10636079D01*
X7258277Y-10636079D02*
X7267801Y-10674174D01*
X7267801Y-10674174D02*
X7267801Y-10721793D01*
X7267801Y-10721793D02*
X7258277Y-10759889D01*
X7258277Y-10759889D02*
X7248753Y-10778936D01*
X7248753Y-10778936D02*
X7239229Y-10788460D01*
X7239229Y-10788460D02*
X7220182Y-10797984D01*
X7220182Y-10797984D02*
X7201134Y-10797984D01*
X7201134Y-10797984D02*
X7182086Y-10788460D01*
X7182086Y-10788460D02*
X7172563Y-10778936D01*
X7172563Y-10778936D02*
X7163039Y-10759889D01*
X7163039Y-10759889D02*
X7153515Y-10721793D01*
X7153515Y-10721793D02*
X7153515Y-10674174D01*
X7153515Y-10674174D02*
X7163039Y-10636079D01*
X7163039Y-10636079D02*
X7172563Y-10617031D01*
X7172563Y-10617031D02*
X7182086Y-10607508D01*
X7182086Y-10607508D02*
X7201134Y-10597984D01*
X7353515Y-10778936D02*
X7363039Y-10788460D01*
X7363039Y-10788460D02*
X7353515Y-10797984D01*
X7353515Y-10797984D02*
X7343991Y-10788460D01*
X7343991Y-10788460D02*
X7353515Y-10778936D01*
X7353515Y-10778936D02*
X7353515Y-10797984D01*
X7486848Y-10597984D02*
X7505896Y-10597984D01*
X7505896Y-10597984D02*
X7524944Y-10607508D01*
X7524944Y-10607508D02*
X7534467Y-10617031D01*
X7534467Y-10617031D02*
X7543991Y-10636079D01*
X7543991Y-10636079D02*
X7553515Y-10674174D01*
X7553515Y-10674174D02*
X7553515Y-10721793D01*
X7553515Y-10721793D02*
X7543991Y-10759889D01*
X7543991Y-10759889D02*
X7534467Y-10778936D01*
X7534467Y-10778936D02*
X7524944Y-10788460D01*
X7524944Y-10788460D02*
X7505896Y-10797984D01*
X7505896Y-10797984D02*
X7486848Y-10797984D01*
X7486848Y-10797984D02*
X7467801Y-10788460D01*
X7467801Y-10788460D02*
X7458277Y-10778936D01*
X7458277Y-10778936D02*
X7448753Y-10759889D01*
X7448753Y-10759889D02*
X7439229Y-10721793D01*
X7439229Y-10721793D02*
X7439229Y-10674174D01*
X7439229Y-10674174D02*
X7448753Y-10636079D01*
X7448753Y-10636079D02*
X7458277Y-10617031D01*
X7458277Y-10617031D02*
X7467801Y-10607508D01*
X7467801Y-10607508D02*
X7486848Y-10597984D01*
X7629706Y-10617031D02*
X7639229Y-10607508D01*
X7639229Y-10607508D02*
X7658277Y-10597984D01*
X7658277Y-10597984D02*
X7705896Y-10597984D01*
X7705896Y-10597984D02*
X7724944Y-10607508D01*
X7724944Y-10607508D02*
X7734467Y-10617031D01*
X7734467Y-10617031D02*
X7743991Y-10636079D01*
X7743991Y-10636079D02*
X7743991Y-10655127D01*
X7743991Y-10655127D02*
X7734467Y-10683698D01*
X7734467Y-10683698D02*
X7620182Y-10797984D01*
X7620182Y-10797984D02*
X7743991Y-10797984D01*
X7810658Y-10597984D02*
X7943991Y-10597984D01*
X7943991Y-10597984D02*
X7858277Y-10797984D01*
X8105896Y-10597984D02*
X8067801Y-10597984D01*
X8067801Y-10597984D02*
X8048753Y-10607508D01*
X8048753Y-10607508D02*
X8039229Y-10617031D01*
X8039229Y-10617031D02*
X8020182Y-10645603D01*
X8020182Y-10645603D02*
X8010658Y-10683698D01*
X8010658Y-10683698D02*
X8010658Y-10759889D01*
X8010658Y-10759889D02*
X8020182Y-10778936D01*
X8020182Y-10778936D02*
X8029706Y-10788460D01*
X8029706Y-10788460D02*
X8048753Y-10797984D01*
X8048753Y-10797984D02*
X8086848Y-10797984D01*
X8086848Y-10797984D02*
X8105896Y-10788460D01*
X8105896Y-10788460D02*
X8115420Y-10778936D01*
X8115420Y-10778936D02*
X8124944Y-10759889D01*
X8124944Y-10759889D02*
X8124944Y-10712270D01*
X8124944Y-10712270D02*
X8115420Y-10693222D01*
X8115420Y-10693222D02*
X8105896Y-10683698D01*
X8105896Y-10683698D02*
X8086848Y-10674174D01*
X8086848Y-10674174D02*
X8048753Y-10674174D01*
X8048753Y-10674174D02*
X8029706Y-10683698D01*
X8029706Y-10683698D02*
X8020182Y-10693222D01*
X8020182Y-10693222D02*
X8010658Y-10712270D01*
X8201134Y-10597984D02*
X8201134Y-10636079D01*
X8277325Y-10597984D02*
X8277325Y-10636079D01*
X8572563Y-10874174D02*
X8563039Y-10864650D01*
X8563039Y-10864650D02*
X8543991Y-10836079D01*
X8543991Y-10836079D02*
X8534468Y-10817031D01*
X8534468Y-10817031D02*
X8524944Y-10788460D01*
X8524944Y-10788460D02*
X8515420Y-10740841D01*
X8515420Y-10740841D02*
X8515420Y-10702746D01*
X8515420Y-10702746D02*
X8524944Y-10655127D01*
X8524944Y-10655127D02*
X8534468Y-10626555D01*
X8534468Y-10626555D02*
X8543991Y-10607508D01*
X8543991Y-10607508D02*
X8563039Y-10578936D01*
X8563039Y-10578936D02*
X8572563Y-10569412D01*
X8639230Y-10617031D02*
X8648753Y-10607508D01*
X8648753Y-10607508D02*
X8667801Y-10597984D01*
X8667801Y-10597984D02*
X8715420Y-10597984D01*
X8715420Y-10597984D02*
X8734468Y-10607508D01*
X8734468Y-10607508D02*
X8743991Y-10617031D01*
X8743991Y-10617031D02*
X8753515Y-10636079D01*
X8753515Y-10636079D02*
X8753515Y-10655127D01*
X8753515Y-10655127D02*
X8743991Y-10683698D01*
X8743991Y-10683698D02*
X8629706Y-10797984D01*
X8629706Y-10797984D02*
X8753515Y-10797984D01*
X8991611Y-10797984D02*
X8991611Y-10597984D01*
X9077325Y-10797984D02*
X9077325Y-10693222D01*
X9077325Y-10693222D02*
X9067801Y-10674174D01*
X9067801Y-10674174D02*
X9048753Y-10664650D01*
X9048753Y-10664650D02*
X9020182Y-10664650D01*
X9020182Y-10664650D02*
X9001134Y-10674174D01*
X9001134Y-10674174D02*
X8991611Y-10683698D01*
X9201134Y-10797984D02*
X9182087Y-10788460D01*
X9182087Y-10788460D02*
X9172563Y-10778936D01*
X9172563Y-10778936D02*
X9163039Y-10759889D01*
X9163039Y-10759889D02*
X9163039Y-10702746D01*
X9163039Y-10702746D02*
X9172563Y-10683698D01*
X9172563Y-10683698D02*
X9182087Y-10674174D01*
X9182087Y-10674174D02*
X9201134Y-10664650D01*
X9201134Y-10664650D02*
X9229706Y-10664650D01*
X9229706Y-10664650D02*
X9248753Y-10674174D01*
X9248753Y-10674174D02*
X9258277Y-10683698D01*
X9258277Y-10683698D02*
X9267801Y-10702746D01*
X9267801Y-10702746D02*
X9267801Y-10759889D01*
X9267801Y-10759889D02*
X9258277Y-10778936D01*
X9258277Y-10778936D02*
X9248753Y-10788460D01*
X9248753Y-10788460D02*
X9229706Y-10797984D01*
X9229706Y-10797984D02*
X9201134Y-10797984D01*
X9382087Y-10797984D02*
X9363039Y-10788460D01*
X9363039Y-10788460D02*
X9353515Y-10769412D01*
X9353515Y-10769412D02*
X9353515Y-10597984D01*
X9534468Y-10788460D02*
X9515420Y-10797984D01*
X9515420Y-10797984D02*
X9477325Y-10797984D01*
X9477325Y-10797984D02*
X9458277Y-10788460D01*
X9458277Y-10788460D02*
X9448753Y-10769412D01*
X9448753Y-10769412D02*
X9448753Y-10693222D01*
X9448753Y-10693222D02*
X9458277Y-10674174D01*
X9458277Y-10674174D02*
X9477325Y-10664650D01*
X9477325Y-10664650D02*
X9515420Y-10664650D01*
X9515420Y-10664650D02*
X9534468Y-10674174D01*
X9534468Y-10674174D02*
X9543992Y-10693222D01*
X9543992Y-10693222D02*
X9543992Y-10712270D01*
X9543992Y-10712270D02*
X9448753Y-10731317D01*
X9620182Y-10788460D02*
X9639230Y-10797984D01*
X9639230Y-10797984D02*
X9677325Y-10797984D01*
X9677325Y-10797984D02*
X9696373Y-10788460D01*
X9696373Y-10788460D02*
X9705896Y-10769412D01*
X9705896Y-10769412D02*
X9705896Y-10759889D01*
X9705896Y-10759889D02*
X9696373Y-10740841D01*
X9696373Y-10740841D02*
X9677325Y-10731317D01*
X9677325Y-10731317D02*
X9648753Y-10731317D01*
X9648753Y-10731317D02*
X9629706Y-10721793D01*
X9629706Y-10721793D02*
X9620182Y-10702746D01*
X9620182Y-10702746D02*
X9620182Y-10693222D01*
X9620182Y-10693222D02*
X9629706Y-10674174D01*
X9629706Y-10674174D02*
X9648753Y-10664650D01*
X9648753Y-10664650D02*
X9677325Y-10664650D01*
X9677325Y-10664650D02*
X9696373Y-10674174D01*
X9772563Y-10874174D02*
X9782087Y-10864650D01*
X9782087Y-10864650D02*
X9801134Y-10836079D01*
X9801134Y-10836079D02*
X9810658Y-10817031D01*
X9810658Y-10817031D02*
X9820182Y-10788460D01*
X9820182Y-10788460D02*
X9829706Y-10740841D01*
X9829706Y-10740841D02*
X9829706Y-10702746D01*
X9829706Y-10702746D02*
X9820182Y-10655127D01*
X9820182Y-10655127D02*
X9810658Y-10626555D01*
X9810658Y-10626555D02*
X9801134Y-10607508D01*
X9801134Y-10607508D02*
X9782087Y-10578936D01*
X9782087Y-10578936D02*
X9772563Y-10569412D01*
D12*
X4960000Y-10933000D02*
X4960000Y-11008000D01*
X4922500Y-10970500D02*
X4997500Y-10970500D01*
D11*
X5296372Y-10861984D02*
X5315420Y-10861984D01*
X5315420Y-10861984D02*
X5334467Y-10871508D01*
X5334467Y-10871508D02*
X5343991Y-10881031D01*
X5343991Y-10881031D02*
X5353515Y-10900079D01*
X5353515Y-10900079D02*
X5363039Y-10938174D01*
X5363039Y-10938174D02*
X5363039Y-10985793D01*
X5363039Y-10985793D02*
X5353515Y-11023889D01*
X5353515Y-11023889D02*
X5343991Y-11042936D01*
X5343991Y-11042936D02*
X5334467Y-11052460D01*
X5334467Y-11052460D02*
X5315420Y-11061984D01*
X5315420Y-11061984D02*
X5296372Y-11061984D01*
X5296372Y-11061984D02*
X5277324Y-11052460D01*
X5277324Y-11052460D02*
X5267801Y-11042936D01*
X5267801Y-11042936D02*
X5258277Y-11023889D01*
X5258277Y-11023889D02*
X5248753Y-10985793D01*
X5248753Y-10985793D02*
X5248753Y-10938174D01*
X5248753Y-10938174D02*
X5258277Y-10900079D01*
X5258277Y-10900079D02*
X5267801Y-10881031D01*
X5267801Y-10881031D02*
X5277324Y-10871508D01*
X5277324Y-10871508D02*
X5296372Y-10861984D01*
X5448753Y-11042936D02*
X5458277Y-11052460D01*
X5458277Y-11052460D02*
X5448753Y-11061984D01*
X5448753Y-11061984D02*
X5439229Y-11052460D01*
X5439229Y-11052460D02*
X5448753Y-11042936D01*
X5448753Y-11042936D02*
X5448753Y-11061984D01*
X5524944Y-10861984D02*
X5658277Y-10861984D01*
X5658277Y-10861984D02*
X5572563Y-11061984D01*
X5829705Y-10861984D02*
X5734467Y-10861984D01*
X5734467Y-10861984D02*
X5724943Y-10957222D01*
X5724943Y-10957222D02*
X5734467Y-10947698D01*
X5734467Y-10947698D02*
X5753515Y-10938174D01*
X5753515Y-10938174D02*
X5801134Y-10938174D01*
X5801134Y-10938174D02*
X5820182Y-10947698D01*
X5820182Y-10947698D02*
X5829705Y-10957222D01*
X5829705Y-10957222D02*
X5839229Y-10976270D01*
X5839229Y-10976270D02*
X5839229Y-11023889D01*
X5839229Y-11023889D02*
X5829705Y-11042936D01*
X5829705Y-11042936D02*
X5820182Y-11052460D01*
X5820182Y-11052460D02*
X5801134Y-11061984D01*
X5801134Y-11061984D02*
X5753515Y-11061984D01*
X5753515Y-11061984D02*
X5734467Y-11052460D01*
X5734467Y-11052460D02*
X5724943Y-11042936D01*
X5963039Y-10861984D02*
X5982086Y-10861984D01*
X5982086Y-10861984D02*
X6001134Y-10871508D01*
X6001134Y-10871508D02*
X6010658Y-10881031D01*
X6010658Y-10881031D02*
X6020182Y-10900079D01*
X6020182Y-10900079D02*
X6029705Y-10938174D01*
X6029705Y-10938174D02*
X6029705Y-10985793D01*
X6029705Y-10985793D02*
X6020182Y-11023889D01*
X6020182Y-11023889D02*
X6010658Y-11042936D01*
X6010658Y-11042936D02*
X6001134Y-11052460D01*
X6001134Y-11052460D02*
X5982086Y-11061984D01*
X5982086Y-11061984D02*
X5963039Y-11061984D01*
X5963039Y-11061984D02*
X5943991Y-11052460D01*
X5943991Y-11052460D02*
X5934467Y-11042936D01*
X5934467Y-11042936D02*
X5924943Y-11023889D01*
X5924943Y-11023889D02*
X5915420Y-10985793D01*
X5915420Y-10985793D02*
X5915420Y-10938174D01*
X5915420Y-10938174D02*
X5924943Y-10900079D01*
X5924943Y-10900079D02*
X5934467Y-10881031D01*
X5934467Y-10881031D02*
X5943991Y-10871508D01*
X5943991Y-10871508D02*
X5963039Y-10861984D01*
X6115420Y-11061984D02*
X6115420Y-10928650D01*
X6115420Y-10947698D02*
X6124943Y-10938174D01*
X6124943Y-10938174D02*
X6143991Y-10928650D01*
X6143991Y-10928650D02*
X6172563Y-10928650D01*
X6172563Y-10928650D02*
X6191610Y-10938174D01*
X6191610Y-10938174D02*
X6201134Y-10957222D01*
X6201134Y-10957222D02*
X6201134Y-11061984D01*
X6201134Y-10957222D02*
X6210658Y-10938174D01*
X6210658Y-10938174D02*
X6229705Y-10928650D01*
X6229705Y-10928650D02*
X6258277Y-10928650D01*
X6258277Y-10928650D02*
X6277324Y-10938174D01*
X6277324Y-10938174D02*
X6286848Y-10957222D01*
X6286848Y-10957222D02*
X6286848Y-11061984D01*
X6382086Y-11061984D02*
X6382086Y-10928650D01*
X6382086Y-10947698D02*
X6391610Y-10938174D01*
X6391610Y-10938174D02*
X6410658Y-10928650D01*
X6410658Y-10928650D02*
X6439229Y-10928650D01*
X6439229Y-10928650D02*
X6458277Y-10938174D01*
X6458277Y-10938174D02*
X6467801Y-10957222D01*
X6467801Y-10957222D02*
X6467801Y-11061984D01*
X6467801Y-10957222D02*
X6477324Y-10938174D01*
X6477324Y-10938174D02*
X6496372Y-10928650D01*
X6496372Y-10928650D02*
X6524943Y-10928650D01*
X6524943Y-10928650D02*
X6543991Y-10938174D01*
X6543991Y-10938174D02*
X6553515Y-10957222D01*
X6553515Y-10957222D02*
X6553515Y-11061984D01*
X6943991Y-10852460D02*
X6772563Y-11109603D01*
X7201134Y-10861984D02*
X7220182Y-10861984D01*
X7220182Y-10861984D02*
X7239229Y-10871508D01*
X7239229Y-10871508D02*
X7248753Y-10881031D01*
X7248753Y-10881031D02*
X7258277Y-10900079D01*
X7258277Y-10900079D02*
X7267801Y-10938174D01*
X7267801Y-10938174D02*
X7267801Y-10985793D01*
X7267801Y-10985793D02*
X7258277Y-11023889D01*
X7258277Y-11023889D02*
X7248753Y-11042936D01*
X7248753Y-11042936D02*
X7239229Y-11052460D01*
X7239229Y-11052460D02*
X7220182Y-11061984D01*
X7220182Y-11061984D02*
X7201134Y-11061984D01*
X7201134Y-11061984D02*
X7182086Y-11052460D01*
X7182086Y-11052460D02*
X7172563Y-11042936D01*
X7172563Y-11042936D02*
X7163039Y-11023889D01*
X7163039Y-11023889D02*
X7153515Y-10985793D01*
X7153515Y-10985793D02*
X7153515Y-10938174D01*
X7153515Y-10938174D02*
X7163039Y-10900079D01*
X7163039Y-10900079D02*
X7172563Y-10881031D01*
X7172563Y-10881031D02*
X7182086Y-10871508D01*
X7182086Y-10871508D02*
X7201134Y-10861984D01*
X7353515Y-11042936D02*
X7363039Y-11052460D01*
X7363039Y-11052460D02*
X7353515Y-11061984D01*
X7353515Y-11061984D02*
X7343991Y-11052460D01*
X7343991Y-11052460D02*
X7353515Y-11042936D01*
X7353515Y-11042936D02*
X7353515Y-11061984D01*
X7486848Y-10861984D02*
X7505896Y-10861984D01*
X7505896Y-10861984D02*
X7524944Y-10871508D01*
X7524944Y-10871508D02*
X7534467Y-10881031D01*
X7534467Y-10881031D02*
X7543991Y-10900079D01*
X7543991Y-10900079D02*
X7553515Y-10938174D01*
X7553515Y-10938174D02*
X7553515Y-10985793D01*
X7553515Y-10985793D02*
X7543991Y-11023889D01*
X7543991Y-11023889D02*
X7534467Y-11042936D01*
X7534467Y-11042936D02*
X7524944Y-11052460D01*
X7524944Y-11052460D02*
X7505896Y-11061984D01*
X7505896Y-11061984D02*
X7486848Y-11061984D01*
X7486848Y-11061984D02*
X7467801Y-11052460D01*
X7467801Y-11052460D02*
X7458277Y-11042936D01*
X7458277Y-11042936D02*
X7448753Y-11023889D01*
X7448753Y-11023889D02*
X7439229Y-10985793D01*
X7439229Y-10985793D02*
X7439229Y-10938174D01*
X7439229Y-10938174D02*
X7448753Y-10900079D01*
X7448753Y-10900079D02*
X7458277Y-10881031D01*
X7458277Y-10881031D02*
X7467801Y-10871508D01*
X7467801Y-10871508D02*
X7486848Y-10861984D01*
X7629706Y-10881031D02*
X7639229Y-10871508D01*
X7639229Y-10871508D02*
X7658277Y-10861984D01*
X7658277Y-10861984D02*
X7705896Y-10861984D01*
X7705896Y-10861984D02*
X7724944Y-10871508D01*
X7724944Y-10871508D02*
X7734467Y-10881031D01*
X7734467Y-10881031D02*
X7743991Y-10900079D01*
X7743991Y-10900079D02*
X7743991Y-10919127D01*
X7743991Y-10919127D02*
X7734467Y-10947698D01*
X7734467Y-10947698D02*
X7620182Y-11061984D01*
X7620182Y-11061984D02*
X7743991Y-11061984D01*
X7839229Y-11061984D02*
X7877325Y-11061984D01*
X7877325Y-11061984D02*
X7896372Y-11052460D01*
X7896372Y-11052460D02*
X7905896Y-11042936D01*
X7905896Y-11042936D02*
X7924944Y-11014365D01*
X7924944Y-11014365D02*
X7934467Y-10976270D01*
X7934467Y-10976270D02*
X7934467Y-10900079D01*
X7934467Y-10900079D02*
X7924944Y-10881031D01*
X7924944Y-10881031D02*
X7915420Y-10871508D01*
X7915420Y-10871508D02*
X7896372Y-10861984D01*
X7896372Y-10861984D02*
X7858277Y-10861984D01*
X7858277Y-10861984D02*
X7839229Y-10871508D01*
X7839229Y-10871508D02*
X7829706Y-10881031D01*
X7829706Y-10881031D02*
X7820182Y-10900079D01*
X7820182Y-10900079D02*
X7820182Y-10947698D01*
X7820182Y-10947698D02*
X7829706Y-10966746D01*
X7829706Y-10966746D02*
X7839229Y-10976270D01*
X7839229Y-10976270D02*
X7858277Y-10985793D01*
X7858277Y-10985793D02*
X7896372Y-10985793D01*
X7896372Y-10985793D02*
X7915420Y-10976270D01*
X7915420Y-10976270D02*
X7924944Y-10966746D01*
X7924944Y-10966746D02*
X7934467Y-10947698D01*
X8115420Y-10861984D02*
X8020182Y-10861984D01*
X8020182Y-10861984D02*
X8010658Y-10957222D01*
X8010658Y-10957222D02*
X8020182Y-10947698D01*
X8020182Y-10947698D02*
X8039229Y-10938174D01*
X8039229Y-10938174D02*
X8086848Y-10938174D01*
X8086848Y-10938174D02*
X8105896Y-10947698D01*
X8105896Y-10947698D02*
X8115420Y-10957222D01*
X8115420Y-10957222D02*
X8124944Y-10976270D01*
X8124944Y-10976270D02*
X8124944Y-11023889D01*
X8124944Y-11023889D02*
X8115420Y-11042936D01*
X8115420Y-11042936D02*
X8105896Y-11052460D01*
X8105896Y-11052460D02*
X8086848Y-11061984D01*
X8086848Y-11061984D02*
X8039229Y-11061984D01*
X8039229Y-11061984D02*
X8020182Y-11052460D01*
X8020182Y-11052460D02*
X8010658Y-11042936D01*
X8201134Y-10861984D02*
X8201134Y-10900079D01*
X8277325Y-10861984D02*
X8277325Y-10900079D01*
X8572563Y-11138174D02*
X8563039Y-11128650D01*
X8563039Y-11128650D02*
X8543991Y-11100079D01*
X8543991Y-11100079D02*
X8534468Y-11081031D01*
X8534468Y-11081031D02*
X8524944Y-11052460D01*
X8524944Y-11052460D02*
X8515420Y-11004841D01*
X8515420Y-11004841D02*
X8515420Y-10966746D01*
X8515420Y-10966746D02*
X8524944Y-10919127D01*
X8524944Y-10919127D02*
X8534468Y-10890555D01*
X8534468Y-10890555D02*
X8543991Y-10871508D01*
X8543991Y-10871508D02*
X8563039Y-10842936D01*
X8563039Y-10842936D02*
X8572563Y-10833412D01*
X8677325Y-10947698D02*
X8658277Y-10938174D01*
X8658277Y-10938174D02*
X8648753Y-10928650D01*
X8648753Y-10928650D02*
X8639230Y-10909603D01*
X8639230Y-10909603D02*
X8639230Y-10900079D01*
X8639230Y-10900079D02*
X8648753Y-10881031D01*
X8648753Y-10881031D02*
X8658277Y-10871508D01*
X8658277Y-10871508D02*
X8677325Y-10861984D01*
X8677325Y-10861984D02*
X8715420Y-10861984D01*
X8715420Y-10861984D02*
X8734468Y-10871508D01*
X8734468Y-10871508D02*
X8743991Y-10881031D01*
X8743991Y-10881031D02*
X8753515Y-10900079D01*
X8753515Y-10900079D02*
X8753515Y-10909603D01*
X8753515Y-10909603D02*
X8743991Y-10928650D01*
X8743991Y-10928650D02*
X8734468Y-10938174D01*
X8734468Y-10938174D02*
X8715420Y-10947698D01*
X8715420Y-10947698D02*
X8677325Y-10947698D01*
X8677325Y-10947698D02*
X8658277Y-10957222D01*
X8658277Y-10957222D02*
X8648753Y-10966746D01*
X8648753Y-10966746D02*
X8639230Y-10985793D01*
X8639230Y-10985793D02*
X8639230Y-11023889D01*
X8639230Y-11023889D02*
X8648753Y-11042936D01*
X8648753Y-11042936D02*
X8658277Y-11052460D01*
X8658277Y-11052460D02*
X8677325Y-11061984D01*
X8677325Y-11061984D02*
X8715420Y-11061984D01*
X8715420Y-11061984D02*
X8734468Y-11052460D01*
X8734468Y-11052460D02*
X8743991Y-11042936D01*
X8743991Y-11042936D02*
X8753515Y-11023889D01*
X8753515Y-11023889D02*
X8753515Y-10985793D01*
X8753515Y-10985793D02*
X8743991Y-10966746D01*
X8743991Y-10966746D02*
X8734468Y-10957222D01*
X8734468Y-10957222D02*
X8715420Y-10947698D01*
X8991611Y-11061984D02*
X8991611Y-10861984D01*
X9077325Y-11061984D02*
X9077325Y-10957222D01*
X9077325Y-10957222D02*
X9067801Y-10938174D01*
X9067801Y-10938174D02*
X9048753Y-10928650D01*
X9048753Y-10928650D02*
X9020182Y-10928650D01*
X9020182Y-10928650D02*
X9001134Y-10938174D01*
X9001134Y-10938174D02*
X8991611Y-10947698D01*
X9201134Y-11061984D02*
X9182087Y-11052460D01*
X9182087Y-11052460D02*
X9172563Y-11042936D01*
X9172563Y-11042936D02*
X9163039Y-11023889D01*
X9163039Y-11023889D02*
X9163039Y-10966746D01*
X9163039Y-10966746D02*
X9172563Y-10947698D01*
X9172563Y-10947698D02*
X9182087Y-10938174D01*
X9182087Y-10938174D02*
X9201134Y-10928650D01*
X9201134Y-10928650D02*
X9229706Y-10928650D01*
X9229706Y-10928650D02*
X9248753Y-10938174D01*
X9248753Y-10938174D02*
X9258277Y-10947698D01*
X9258277Y-10947698D02*
X9267801Y-10966746D01*
X9267801Y-10966746D02*
X9267801Y-11023889D01*
X9267801Y-11023889D02*
X9258277Y-11042936D01*
X9258277Y-11042936D02*
X9248753Y-11052460D01*
X9248753Y-11052460D02*
X9229706Y-11061984D01*
X9229706Y-11061984D02*
X9201134Y-11061984D01*
X9382087Y-11061984D02*
X9363039Y-11052460D01*
X9363039Y-11052460D02*
X9353515Y-11033412D01*
X9353515Y-11033412D02*
X9353515Y-10861984D01*
X9534468Y-11052460D02*
X9515420Y-11061984D01*
X9515420Y-11061984D02*
X9477325Y-11061984D01*
X9477325Y-11061984D02*
X9458277Y-11052460D01*
X9458277Y-11052460D02*
X9448753Y-11033412D01*
X9448753Y-11033412D02*
X9448753Y-10957222D01*
X9448753Y-10957222D02*
X9458277Y-10938174D01*
X9458277Y-10938174D02*
X9477325Y-10928650D01*
X9477325Y-10928650D02*
X9515420Y-10928650D01*
X9515420Y-10928650D02*
X9534468Y-10938174D01*
X9534468Y-10938174D02*
X9543992Y-10957222D01*
X9543992Y-10957222D02*
X9543992Y-10976270D01*
X9543992Y-10976270D02*
X9448753Y-10995317D01*
X9620182Y-11052460D02*
X9639230Y-11061984D01*
X9639230Y-11061984D02*
X9677325Y-11061984D01*
X9677325Y-11061984D02*
X9696373Y-11052460D01*
X9696373Y-11052460D02*
X9705896Y-11033412D01*
X9705896Y-11033412D02*
X9705896Y-11023889D01*
X9705896Y-11023889D02*
X9696373Y-11004841D01*
X9696373Y-11004841D02*
X9677325Y-10995317D01*
X9677325Y-10995317D02*
X9648753Y-10995317D01*
X9648753Y-10995317D02*
X9629706Y-10985793D01*
X9629706Y-10985793D02*
X9620182Y-10966746D01*
X9620182Y-10966746D02*
X9620182Y-10957222D01*
X9620182Y-10957222D02*
X9629706Y-10938174D01*
X9629706Y-10938174D02*
X9648753Y-10928650D01*
X9648753Y-10928650D02*
X9677325Y-10928650D01*
X9677325Y-10928650D02*
X9696373Y-10938174D01*
X9772563Y-11138174D02*
X9782087Y-11128650D01*
X9782087Y-11128650D02*
X9801134Y-11100079D01*
X9801134Y-11100079D02*
X9810658Y-11081031D01*
X9810658Y-11081031D02*
X9820182Y-11052460D01*
X9820182Y-11052460D02*
X9829706Y-11004841D01*
X9829706Y-11004841D02*
X9829706Y-10966746D01*
X9829706Y-10966746D02*
X9820182Y-10919127D01*
X9820182Y-10919127D02*
X9810658Y-10890555D01*
X9810658Y-10890555D02*
X9801134Y-10871508D01*
X9801134Y-10871508D02*
X9782087Y-10842936D01*
X9782087Y-10842936D02*
X9772563Y-10833412D01*
D12*
X4985785Y-11262784D02*
X4985785Y-11206215D01*
X4929216Y-11206215D01*
X4929216Y-11262784D01*
X4985785Y-11262784D01*
D11*
X5296372Y-11125984D02*
X5315420Y-11125984D01*
X5315420Y-11125984D02*
X5334467Y-11135508D01*
X5334467Y-11135508D02*
X5343991Y-11145031D01*
X5343991Y-11145031D02*
X5353515Y-11164079D01*
X5353515Y-11164079D02*
X5363039Y-11202174D01*
X5363039Y-11202174D02*
X5363039Y-11249793D01*
X5363039Y-11249793D02*
X5353515Y-11287888D01*
X5353515Y-11287888D02*
X5343991Y-11306936D01*
X5343991Y-11306936D02*
X5334467Y-11316460D01*
X5334467Y-11316460D02*
X5315420Y-11325984D01*
X5315420Y-11325984D02*
X5296372Y-11325984D01*
X5296372Y-11325984D02*
X5277324Y-11316460D01*
X5277324Y-11316460D02*
X5267801Y-11306936D01*
X5267801Y-11306936D02*
X5258277Y-11287888D01*
X5258277Y-11287888D02*
X5248753Y-11249793D01*
X5248753Y-11249793D02*
X5248753Y-11202174D01*
X5248753Y-11202174D02*
X5258277Y-11164079D01*
X5258277Y-11164079D02*
X5267801Y-11145031D01*
X5267801Y-11145031D02*
X5277324Y-11135508D01*
X5277324Y-11135508D02*
X5296372Y-11125984D01*
X5448753Y-11306936D02*
X5458277Y-11316460D01*
X5458277Y-11316460D02*
X5448753Y-11325984D01*
X5448753Y-11325984D02*
X5439229Y-11316460D01*
X5439229Y-11316460D02*
X5448753Y-11306936D01*
X5448753Y-11306936D02*
X5448753Y-11325984D01*
X5572563Y-11211698D02*
X5553515Y-11202174D01*
X5553515Y-11202174D02*
X5543991Y-11192650D01*
X5543991Y-11192650D02*
X5534467Y-11173603D01*
X5534467Y-11173603D02*
X5534467Y-11164079D01*
X5534467Y-11164079D02*
X5543991Y-11145031D01*
X5543991Y-11145031D02*
X5553515Y-11135508D01*
X5553515Y-11135508D02*
X5572563Y-11125984D01*
X5572563Y-11125984D02*
X5610658Y-11125984D01*
X5610658Y-11125984D02*
X5629705Y-11135508D01*
X5629705Y-11135508D02*
X5639229Y-11145031D01*
X5639229Y-11145031D02*
X5648753Y-11164079D01*
X5648753Y-11164079D02*
X5648753Y-11173603D01*
X5648753Y-11173603D02*
X5639229Y-11192650D01*
X5639229Y-11192650D02*
X5629705Y-11202174D01*
X5629705Y-11202174D02*
X5610658Y-11211698D01*
X5610658Y-11211698D02*
X5572563Y-11211698D01*
X5572563Y-11211698D02*
X5553515Y-11221222D01*
X5553515Y-11221222D02*
X5543991Y-11230746D01*
X5543991Y-11230746D02*
X5534467Y-11249793D01*
X5534467Y-11249793D02*
X5534467Y-11287888D01*
X5534467Y-11287888D02*
X5543991Y-11306936D01*
X5543991Y-11306936D02*
X5553515Y-11316460D01*
X5553515Y-11316460D02*
X5572563Y-11325984D01*
X5572563Y-11325984D02*
X5610658Y-11325984D01*
X5610658Y-11325984D02*
X5629705Y-11316460D01*
X5629705Y-11316460D02*
X5639229Y-11306936D01*
X5639229Y-11306936D02*
X5648753Y-11287888D01*
X5648753Y-11287888D02*
X5648753Y-11249793D01*
X5648753Y-11249793D02*
X5639229Y-11230746D01*
X5639229Y-11230746D02*
X5629705Y-11221222D01*
X5629705Y-11221222D02*
X5610658Y-11211698D01*
X5772562Y-11125984D02*
X5791610Y-11125984D01*
X5791610Y-11125984D02*
X5810658Y-11135508D01*
X5810658Y-11135508D02*
X5820182Y-11145031D01*
X5820182Y-11145031D02*
X5829705Y-11164079D01*
X5829705Y-11164079D02*
X5839229Y-11202174D01*
X5839229Y-11202174D02*
X5839229Y-11249793D01*
X5839229Y-11249793D02*
X5829705Y-11287888D01*
X5829705Y-11287888D02*
X5820182Y-11306936D01*
X5820182Y-11306936D02*
X5810658Y-11316460D01*
X5810658Y-11316460D02*
X5791610Y-11325984D01*
X5791610Y-11325984D02*
X5772562Y-11325984D01*
X5772562Y-11325984D02*
X5753515Y-11316460D01*
X5753515Y-11316460D02*
X5743991Y-11306936D01*
X5743991Y-11306936D02*
X5734467Y-11287888D01*
X5734467Y-11287888D02*
X5724943Y-11249793D01*
X5724943Y-11249793D02*
X5724943Y-11202174D01*
X5724943Y-11202174D02*
X5734467Y-11164079D01*
X5734467Y-11164079D02*
X5743991Y-11145031D01*
X5743991Y-11145031D02*
X5753515Y-11135508D01*
X5753515Y-11135508D02*
X5772562Y-11125984D01*
X5963039Y-11125984D02*
X5982086Y-11125984D01*
X5982086Y-11125984D02*
X6001134Y-11135508D01*
X6001134Y-11135508D02*
X6010658Y-11145031D01*
X6010658Y-11145031D02*
X6020182Y-11164079D01*
X6020182Y-11164079D02*
X6029705Y-11202174D01*
X6029705Y-11202174D02*
X6029705Y-11249793D01*
X6029705Y-11249793D02*
X6020182Y-11287888D01*
X6020182Y-11287888D02*
X6010658Y-11306936D01*
X6010658Y-11306936D02*
X6001134Y-11316460D01*
X6001134Y-11316460D02*
X5982086Y-11325984D01*
X5982086Y-11325984D02*
X5963039Y-11325984D01*
X5963039Y-11325984D02*
X5943991Y-11316460D01*
X5943991Y-11316460D02*
X5934467Y-11306936D01*
X5934467Y-11306936D02*
X5924943Y-11287888D01*
X5924943Y-11287888D02*
X5915420Y-11249793D01*
X5915420Y-11249793D02*
X5915420Y-11202174D01*
X5915420Y-11202174D02*
X5924943Y-11164079D01*
X5924943Y-11164079D02*
X5934467Y-11145031D01*
X5934467Y-11145031D02*
X5943991Y-11135508D01*
X5943991Y-11135508D02*
X5963039Y-11125984D01*
X6115420Y-11325984D02*
X6115420Y-11192650D01*
X6115420Y-11211698D02*
X6124943Y-11202174D01*
X6124943Y-11202174D02*
X6143991Y-11192650D01*
X6143991Y-11192650D02*
X6172563Y-11192650D01*
X6172563Y-11192650D02*
X6191610Y-11202174D01*
X6191610Y-11202174D02*
X6201134Y-11221222D01*
X6201134Y-11221222D02*
X6201134Y-11325984D01*
X6201134Y-11221222D02*
X6210658Y-11202174D01*
X6210658Y-11202174D02*
X6229705Y-11192650D01*
X6229705Y-11192650D02*
X6258277Y-11192650D01*
X6258277Y-11192650D02*
X6277324Y-11202174D01*
X6277324Y-11202174D02*
X6286848Y-11221222D01*
X6286848Y-11221222D02*
X6286848Y-11325984D01*
X6382086Y-11325984D02*
X6382086Y-11192650D01*
X6382086Y-11211698D02*
X6391610Y-11202174D01*
X6391610Y-11202174D02*
X6410658Y-11192650D01*
X6410658Y-11192650D02*
X6439229Y-11192650D01*
X6439229Y-11192650D02*
X6458277Y-11202174D01*
X6458277Y-11202174D02*
X6467801Y-11221222D01*
X6467801Y-11221222D02*
X6467801Y-11325984D01*
X6467801Y-11221222D02*
X6477324Y-11202174D01*
X6477324Y-11202174D02*
X6496372Y-11192650D01*
X6496372Y-11192650D02*
X6524943Y-11192650D01*
X6524943Y-11192650D02*
X6543991Y-11202174D01*
X6543991Y-11202174D02*
X6553515Y-11221222D01*
X6553515Y-11221222D02*
X6553515Y-11325984D01*
X6943991Y-11116460D02*
X6772563Y-11373603D01*
X7201134Y-11125984D02*
X7220182Y-11125984D01*
X7220182Y-11125984D02*
X7239229Y-11135508D01*
X7239229Y-11135508D02*
X7248753Y-11145031D01*
X7248753Y-11145031D02*
X7258277Y-11164079D01*
X7258277Y-11164079D02*
X7267801Y-11202174D01*
X7267801Y-11202174D02*
X7267801Y-11249793D01*
X7267801Y-11249793D02*
X7258277Y-11287888D01*
X7258277Y-11287888D02*
X7248753Y-11306936D01*
X7248753Y-11306936D02*
X7239229Y-11316460D01*
X7239229Y-11316460D02*
X7220182Y-11325984D01*
X7220182Y-11325984D02*
X7201134Y-11325984D01*
X7201134Y-11325984D02*
X7182086Y-11316460D01*
X7182086Y-11316460D02*
X7172563Y-11306936D01*
X7172563Y-11306936D02*
X7163039Y-11287888D01*
X7163039Y-11287888D02*
X7153515Y-11249793D01*
X7153515Y-11249793D02*
X7153515Y-11202174D01*
X7153515Y-11202174D02*
X7163039Y-11164079D01*
X7163039Y-11164079D02*
X7172563Y-11145031D01*
X7172563Y-11145031D02*
X7182086Y-11135508D01*
X7182086Y-11135508D02*
X7201134Y-11125984D01*
X7353515Y-11306936D02*
X7363039Y-11316460D01*
X7363039Y-11316460D02*
X7353515Y-11325984D01*
X7353515Y-11325984D02*
X7343991Y-11316460D01*
X7343991Y-11316460D02*
X7353515Y-11306936D01*
X7353515Y-11306936D02*
X7353515Y-11325984D01*
X7486848Y-11125984D02*
X7505896Y-11125984D01*
X7505896Y-11125984D02*
X7524944Y-11135508D01*
X7524944Y-11135508D02*
X7534467Y-11145031D01*
X7534467Y-11145031D02*
X7543991Y-11164079D01*
X7543991Y-11164079D02*
X7553515Y-11202174D01*
X7553515Y-11202174D02*
X7553515Y-11249793D01*
X7553515Y-11249793D02*
X7543991Y-11287888D01*
X7543991Y-11287888D02*
X7534467Y-11306936D01*
X7534467Y-11306936D02*
X7524944Y-11316460D01*
X7524944Y-11316460D02*
X7505896Y-11325984D01*
X7505896Y-11325984D02*
X7486848Y-11325984D01*
X7486848Y-11325984D02*
X7467801Y-11316460D01*
X7467801Y-11316460D02*
X7458277Y-11306936D01*
X7458277Y-11306936D02*
X7448753Y-11287888D01*
X7448753Y-11287888D02*
X7439229Y-11249793D01*
X7439229Y-11249793D02*
X7439229Y-11202174D01*
X7439229Y-11202174D02*
X7448753Y-11164079D01*
X7448753Y-11164079D02*
X7458277Y-11145031D01*
X7458277Y-11145031D02*
X7467801Y-11135508D01*
X7467801Y-11135508D02*
X7486848Y-11125984D01*
X7620182Y-11125984D02*
X7743991Y-11125984D01*
X7743991Y-11125984D02*
X7677325Y-11202174D01*
X7677325Y-11202174D02*
X7705896Y-11202174D01*
X7705896Y-11202174D02*
X7724944Y-11211698D01*
X7724944Y-11211698D02*
X7734467Y-11221222D01*
X7734467Y-11221222D02*
X7743991Y-11240269D01*
X7743991Y-11240269D02*
X7743991Y-11287888D01*
X7743991Y-11287888D02*
X7734467Y-11306936D01*
X7734467Y-11306936D02*
X7724944Y-11316460D01*
X7724944Y-11316460D02*
X7705896Y-11325984D01*
X7705896Y-11325984D02*
X7648753Y-11325984D01*
X7648753Y-11325984D02*
X7629706Y-11316460D01*
X7629706Y-11316460D02*
X7620182Y-11306936D01*
X7934467Y-11325984D02*
X7820182Y-11325984D01*
X7877325Y-11325984D02*
X7877325Y-11125984D01*
X7877325Y-11125984D02*
X7858277Y-11154555D01*
X7858277Y-11154555D02*
X7839229Y-11173603D01*
X7839229Y-11173603D02*
X7820182Y-11183127D01*
X8115420Y-11125984D02*
X8020182Y-11125984D01*
X8020182Y-11125984D02*
X8010658Y-11221222D01*
X8010658Y-11221222D02*
X8020182Y-11211698D01*
X8020182Y-11211698D02*
X8039229Y-11202174D01*
X8039229Y-11202174D02*
X8086848Y-11202174D01*
X8086848Y-11202174D02*
X8105896Y-11211698D01*
X8105896Y-11211698D02*
X8115420Y-11221222D01*
X8115420Y-11221222D02*
X8124944Y-11240269D01*
X8124944Y-11240269D02*
X8124944Y-11287888D01*
X8124944Y-11287888D02*
X8115420Y-11306936D01*
X8115420Y-11306936D02*
X8105896Y-11316460D01*
X8105896Y-11316460D02*
X8086848Y-11325984D01*
X8086848Y-11325984D02*
X8039229Y-11325984D01*
X8039229Y-11325984D02*
X8020182Y-11316460D01*
X8020182Y-11316460D02*
X8010658Y-11306936D01*
X8201134Y-11125984D02*
X8201134Y-11164079D01*
X8277325Y-11125984D02*
X8277325Y-11164079D01*
X8572563Y-11402174D02*
X8563039Y-11392650D01*
X8563039Y-11392650D02*
X8543991Y-11364079D01*
X8543991Y-11364079D02*
X8534468Y-11345031D01*
X8534468Y-11345031D02*
X8524944Y-11316460D01*
X8524944Y-11316460D02*
X8515420Y-11268841D01*
X8515420Y-11268841D02*
X8515420Y-11230746D01*
X8515420Y-11230746D02*
X8524944Y-11183127D01*
X8524944Y-11183127D02*
X8534468Y-11154555D01*
X8534468Y-11154555D02*
X8543991Y-11135508D01*
X8543991Y-11135508D02*
X8563039Y-11106936D01*
X8563039Y-11106936D02*
X8572563Y-11097412D01*
X8639230Y-11145031D02*
X8648753Y-11135508D01*
X8648753Y-11135508D02*
X8667801Y-11125984D01*
X8667801Y-11125984D02*
X8715420Y-11125984D01*
X8715420Y-11125984D02*
X8734468Y-11135508D01*
X8734468Y-11135508D02*
X8743991Y-11145031D01*
X8743991Y-11145031D02*
X8753515Y-11164079D01*
X8753515Y-11164079D02*
X8753515Y-11183127D01*
X8753515Y-11183127D02*
X8743991Y-11211698D01*
X8743991Y-11211698D02*
X8629706Y-11325984D01*
X8629706Y-11325984D02*
X8753515Y-11325984D01*
X8924944Y-11192650D02*
X8924944Y-11325984D01*
X8877325Y-11116460D02*
X8829706Y-11259317D01*
X8829706Y-11259317D02*
X8953515Y-11259317D01*
X9182087Y-11325984D02*
X9182087Y-11125984D01*
X9267801Y-11325984D02*
X9267801Y-11221222D01*
X9267801Y-11221222D02*
X9258277Y-11202174D01*
X9258277Y-11202174D02*
X9239230Y-11192650D01*
X9239230Y-11192650D02*
X9210658Y-11192650D01*
X9210658Y-11192650D02*
X9191611Y-11202174D01*
X9191611Y-11202174D02*
X9182087Y-11211698D01*
X9391611Y-11325984D02*
X9372563Y-11316460D01*
X9372563Y-11316460D02*
X9363039Y-11306936D01*
X9363039Y-11306936D02*
X9353515Y-11287888D01*
X9353515Y-11287888D02*
X9353515Y-11230746D01*
X9353515Y-11230746D02*
X9363039Y-11211698D01*
X9363039Y-11211698D02*
X9372563Y-11202174D01*
X9372563Y-11202174D02*
X9391611Y-11192650D01*
X9391611Y-11192650D02*
X9420182Y-11192650D01*
X9420182Y-11192650D02*
X9439230Y-11202174D01*
X9439230Y-11202174D02*
X9448753Y-11211698D01*
X9448753Y-11211698D02*
X9458277Y-11230746D01*
X9458277Y-11230746D02*
X9458277Y-11287888D01*
X9458277Y-11287888D02*
X9448753Y-11306936D01*
X9448753Y-11306936D02*
X9439230Y-11316460D01*
X9439230Y-11316460D02*
X9420182Y-11325984D01*
X9420182Y-11325984D02*
X9391611Y-11325984D01*
X9572563Y-11325984D02*
X9553515Y-11316460D01*
X9553515Y-11316460D02*
X9543992Y-11297412D01*
X9543992Y-11297412D02*
X9543992Y-11125984D01*
X9724944Y-11316460D02*
X9705896Y-11325984D01*
X9705896Y-11325984D02*
X9667801Y-11325984D01*
X9667801Y-11325984D02*
X9648753Y-11316460D01*
X9648753Y-11316460D02*
X9639230Y-11297412D01*
X9639230Y-11297412D02*
X9639230Y-11221222D01*
X9639230Y-11221222D02*
X9648753Y-11202174D01*
X9648753Y-11202174D02*
X9667801Y-11192650D01*
X9667801Y-11192650D02*
X9705896Y-11192650D01*
X9705896Y-11192650D02*
X9724944Y-11202174D01*
X9724944Y-11202174D02*
X9734468Y-11221222D01*
X9734468Y-11221222D02*
X9734468Y-11240269D01*
X9734468Y-11240269D02*
X9639230Y-11259317D01*
X9810658Y-11316460D02*
X9829706Y-11325984D01*
X9829706Y-11325984D02*
X9867801Y-11325984D01*
X9867801Y-11325984D02*
X9886849Y-11316460D01*
X9886849Y-11316460D02*
X9896373Y-11297412D01*
X9896373Y-11297412D02*
X9896373Y-11287888D01*
X9896373Y-11287888D02*
X9886849Y-11268841D01*
X9886849Y-11268841D02*
X9867801Y-11259317D01*
X9867801Y-11259317D02*
X9839230Y-11259317D01*
X9839230Y-11259317D02*
X9820182Y-11249793D01*
X9820182Y-11249793D02*
X9810658Y-11230746D01*
X9810658Y-11230746D02*
X9810658Y-11221222D01*
X9810658Y-11221222D02*
X9820182Y-11202174D01*
X9820182Y-11202174D02*
X9839230Y-11192650D01*
X9839230Y-11192650D02*
X9867801Y-11192650D01*
X9867801Y-11192650D02*
X9886849Y-11202174D01*
X9963039Y-11402174D02*
X9972563Y-11392650D01*
X9972563Y-11392650D02*
X9991611Y-11364079D01*
X9991611Y-11364079D02*
X10001134Y-11345031D01*
X10001134Y-11345031D02*
X10010658Y-11316460D01*
X10010658Y-11316460D02*
X10020182Y-11268841D01*
X10020182Y-11268841D02*
X10020182Y-11230746D01*
X10020182Y-11230746D02*
X10010658Y-11183127D01*
X10010658Y-11183127D02*
X10001134Y-11154555D01*
X10001134Y-11154555D02*
X9991611Y-11135508D01*
X9991611Y-11135508D02*
X9972563Y-11106936D01*
X9972563Y-11106936D02*
X9963039Y-11097412D01*
D12*
X4947500Y-11548500D02*
X4997500Y-11498500D01*
X4947500Y-11448500D01*
X4897500Y-11498500D01*
X4947500Y-11548500D01*
D11*
X5363039Y-11589984D02*
X5248753Y-11589984D01*
X5305896Y-11589984D02*
X5305896Y-11389984D01*
X5305896Y-11389984D02*
X5286848Y-11418555D01*
X5286848Y-11418555D02*
X5267801Y-11437603D01*
X5267801Y-11437603D02*
X5248753Y-11447127D01*
X5448753Y-11570936D02*
X5458277Y-11580460D01*
X5458277Y-11580460D02*
X5448753Y-11589984D01*
X5448753Y-11589984D02*
X5439229Y-11580460D01*
X5439229Y-11580460D02*
X5448753Y-11570936D01*
X5448753Y-11570936D02*
X5448753Y-11589984D01*
X5582086Y-11389984D02*
X5601134Y-11389984D01*
X5601134Y-11389984D02*
X5620182Y-11399508D01*
X5620182Y-11399508D02*
X5629705Y-11409031D01*
X5629705Y-11409031D02*
X5639229Y-11428079D01*
X5639229Y-11428079D02*
X5648753Y-11466174D01*
X5648753Y-11466174D02*
X5648753Y-11513793D01*
X5648753Y-11513793D02*
X5639229Y-11551888D01*
X5639229Y-11551888D02*
X5629705Y-11570936D01*
X5629705Y-11570936D02*
X5620182Y-11580460D01*
X5620182Y-11580460D02*
X5601134Y-11589984D01*
X5601134Y-11589984D02*
X5582086Y-11589984D01*
X5582086Y-11589984D02*
X5563039Y-11580460D01*
X5563039Y-11580460D02*
X5553515Y-11570936D01*
X5553515Y-11570936D02*
X5543991Y-11551888D01*
X5543991Y-11551888D02*
X5534467Y-11513793D01*
X5534467Y-11513793D02*
X5534467Y-11466174D01*
X5534467Y-11466174D02*
X5543991Y-11428079D01*
X5543991Y-11428079D02*
X5553515Y-11409031D01*
X5553515Y-11409031D02*
X5563039Y-11399508D01*
X5563039Y-11399508D02*
X5582086Y-11389984D01*
X5772562Y-11389984D02*
X5791610Y-11389984D01*
X5791610Y-11389984D02*
X5810658Y-11399508D01*
X5810658Y-11399508D02*
X5820182Y-11409031D01*
X5820182Y-11409031D02*
X5829705Y-11428079D01*
X5829705Y-11428079D02*
X5839229Y-11466174D01*
X5839229Y-11466174D02*
X5839229Y-11513793D01*
X5839229Y-11513793D02*
X5829705Y-11551888D01*
X5829705Y-11551888D02*
X5820182Y-11570936D01*
X5820182Y-11570936D02*
X5810658Y-11580460D01*
X5810658Y-11580460D02*
X5791610Y-11589984D01*
X5791610Y-11589984D02*
X5772562Y-11589984D01*
X5772562Y-11589984D02*
X5753515Y-11580460D01*
X5753515Y-11580460D02*
X5743991Y-11570936D01*
X5743991Y-11570936D02*
X5734467Y-11551888D01*
X5734467Y-11551888D02*
X5724943Y-11513793D01*
X5724943Y-11513793D02*
X5724943Y-11466174D01*
X5724943Y-11466174D02*
X5734467Y-11428079D01*
X5734467Y-11428079D02*
X5743991Y-11409031D01*
X5743991Y-11409031D02*
X5753515Y-11399508D01*
X5753515Y-11399508D02*
X5772562Y-11389984D01*
X5963039Y-11389984D02*
X5982086Y-11389984D01*
X5982086Y-11389984D02*
X6001134Y-11399508D01*
X6001134Y-11399508D02*
X6010658Y-11409031D01*
X6010658Y-11409031D02*
X6020182Y-11428079D01*
X6020182Y-11428079D02*
X6029705Y-11466174D01*
X6029705Y-11466174D02*
X6029705Y-11513793D01*
X6029705Y-11513793D02*
X6020182Y-11551888D01*
X6020182Y-11551888D02*
X6010658Y-11570936D01*
X6010658Y-11570936D02*
X6001134Y-11580460D01*
X6001134Y-11580460D02*
X5982086Y-11589984D01*
X5982086Y-11589984D02*
X5963039Y-11589984D01*
X5963039Y-11589984D02*
X5943991Y-11580460D01*
X5943991Y-11580460D02*
X5934467Y-11570936D01*
X5934467Y-11570936D02*
X5924943Y-11551888D01*
X5924943Y-11551888D02*
X5915420Y-11513793D01*
X5915420Y-11513793D02*
X5915420Y-11466174D01*
X5915420Y-11466174D02*
X5924943Y-11428079D01*
X5924943Y-11428079D02*
X5934467Y-11409031D01*
X5934467Y-11409031D02*
X5943991Y-11399508D01*
X5943991Y-11399508D02*
X5963039Y-11389984D01*
X6115420Y-11589984D02*
X6115420Y-11456650D01*
X6115420Y-11475698D02*
X6124943Y-11466174D01*
X6124943Y-11466174D02*
X6143991Y-11456650D01*
X6143991Y-11456650D02*
X6172563Y-11456650D01*
X6172563Y-11456650D02*
X6191610Y-11466174D01*
X6191610Y-11466174D02*
X6201134Y-11485222D01*
X6201134Y-11485222D02*
X6201134Y-11589984D01*
X6201134Y-11485222D02*
X6210658Y-11466174D01*
X6210658Y-11466174D02*
X6229705Y-11456650D01*
X6229705Y-11456650D02*
X6258277Y-11456650D01*
X6258277Y-11456650D02*
X6277324Y-11466174D01*
X6277324Y-11466174D02*
X6286848Y-11485222D01*
X6286848Y-11485222D02*
X6286848Y-11589984D01*
X6382086Y-11589984D02*
X6382086Y-11456650D01*
X6382086Y-11475698D02*
X6391610Y-11466174D01*
X6391610Y-11466174D02*
X6410658Y-11456650D01*
X6410658Y-11456650D02*
X6439229Y-11456650D01*
X6439229Y-11456650D02*
X6458277Y-11466174D01*
X6458277Y-11466174D02*
X6467801Y-11485222D01*
X6467801Y-11485222D02*
X6467801Y-11589984D01*
X6467801Y-11485222D02*
X6477324Y-11466174D01*
X6477324Y-11466174D02*
X6496372Y-11456650D01*
X6496372Y-11456650D02*
X6524943Y-11456650D01*
X6524943Y-11456650D02*
X6543991Y-11466174D01*
X6543991Y-11466174D02*
X6553515Y-11485222D01*
X6553515Y-11485222D02*
X6553515Y-11589984D01*
X6943991Y-11380460D02*
X6772563Y-11637603D01*
X7201134Y-11389984D02*
X7220182Y-11389984D01*
X7220182Y-11389984D02*
X7239229Y-11399508D01*
X7239229Y-11399508D02*
X7248753Y-11409031D01*
X7248753Y-11409031D02*
X7258277Y-11428079D01*
X7258277Y-11428079D02*
X7267801Y-11466174D01*
X7267801Y-11466174D02*
X7267801Y-11513793D01*
X7267801Y-11513793D02*
X7258277Y-11551888D01*
X7258277Y-11551888D02*
X7248753Y-11570936D01*
X7248753Y-11570936D02*
X7239229Y-11580460D01*
X7239229Y-11580460D02*
X7220182Y-11589984D01*
X7220182Y-11589984D02*
X7201134Y-11589984D01*
X7201134Y-11589984D02*
X7182086Y-11580460D01*
X7182086Y-11580460D02*
X7172563Y-11570936D01*
X7172563Y-11570936D02*
X7163039Y-11551888D01*
X7163039Y-11551888D02*
X7153515Y-11513793D01*
X7153515Y-11513793D02*
X7153515Y-11466174D01*
X7153515Y-11466174D02*
X7163039Y-11428079D01*
X7163039Y-11428079D02*
X7172563Y-11409031D01*
X7172563Y-11409031D02*
X7182086Y-11399508D01*
X7182086Y-11399508D02*
X7201134Y-11389984D01*
X7353515Y-11570936D02*
X7363039Y-11580460D01*
X7363039Y-11580460D02*
X7353515Y-11589984D01*
X7353515Y-11589984D02*
X7343991Y-11580460D01*
X7343991Y-11580460D02*
X7353515Y-11570936D01*
X7353515Y-11570936D02*
X7353515Y-11589984D01*
X7486848Y-11389984D02*
X7505896Y-11389984D01*
X7505896Y-11389984D02*
X7524944Y-11399508D01*
X7524944Y-11399508D02*
X7534467Y-11409031D01*
X7534467Y-11409031D02*
X7543991Y-11428079D01*
X7543991Y-11428079D02*
X7553515Y-11466174D01*
X7553515Y-11466174D02*
X7553515Y-11513793D01*
X7553515Y-11513793D02*
X7543991Y-11551888D01*
X7543991Y-11551888D02*
X7534467Y-11570936D01*
X7534467Y-11570936D02*
X7524944Y-11580460D01*
X7524944Y-11580460D02*
X7505896Y-11589984D01*
X7505896Y-11589984D02*
X7486848Y-11589984D01*
X7486848Y-11589984D02*
X7467801Y-11580460D01*
X7467801Y-11580460D02*
X7458277Y-11570936D01*
X7458277Y-11570936D02*
X7448753Y-11551888D01*
X7448753Y-11551888D02*
X7439229Y-11513793D01*
X7439229Y-11513793D02*
X7439229Y-11466174D01*
X7439229Y-11466174D02*
X7448753Y-11428079D01*
X7448753Y-11428079D02*
X7458277Y-11409031D01*
X7458277Y-11409031D02*
X7467801Y-11399508D01*
X7467801Y-11399508D02*
X7486848Y-11389984D01*
X7620182Y-11389984D02*
X7743991Y-11389984D01*
X7743991Y-11389984D02*
X7677325Y-11466174D01*
X7677325Y-11466174D02*
X7705896Y-11466174D01*
X7705896Y-11466174D02*
X7724944Y-11475698D01*
X7724944Y-11475698D02*
X7734467Y-11485222D01*
X7734467Y-11485222D02*
X7743991Y-11504269D01*
X7743991Y-11504269D02*
X7743991Y-11551888D01*
X7743991Y-11551888D02*
X7734467Y-11570936D01*
X7734467Y-11570936D02*
X7724944Y-11580460D01*
X7724944Y-11580460D02*
X7705896Y-11589984D01*
X7705896Y-11589984D02*
X7648753Y-11589984D01*
X7648753Y-11589984D02*
X7629706Y-11580460D01*
X7629706Y-11580460D02*
X7620182Y-11570936D01*
X7839229Y-11589984D02*
X7877325Y-11589984D01*
X7877325Y-11589984D02*
X7896372Y-11580460D01*
X7896372Y-11580460D02*
X7905896Y-11570936D01*
X7905896Y-11570936D02*
X7924944Y-11542365D01*
X7924944Y-11542365D02*
X7934467Y-11504269D01*
X7934467Y-11504269D02*
X7934467Y-11428079D01*
X7934467Y-11428079D02*
X7924944Y-11409031D01*
X7924944Y-11409031D02*
X7915420Y-11399508D01*
X7915420Y-11399508D02*
X7896372Y-11389984D01*
X7896372Y-11389984D02*
X7858277Y-11389984D01*
X7858277Y-11389984D02*
X7839229Y-11399508D01*
X7839229Y-11399508D02*
X7829706Y-11409031D01*
X7829706Y-11409031D02*
X7820182Y-11428079D01*
X7820182Y-11428079D02*
X7820182Y-11475698D01*
X7820182Y-11475698D02*
X7829706Y-11494746D01*
X7829706Y-11494746D02*
X7839229Y-11504269D01*
X7839229Y-11504269D02*
X7858277Y-11513793D01*
X7858277Y-11513793D02*
X7896372Y-11513793D01*
X7896372Y-11513793D02*
X7915420Y-11504269D01*
X7915420Y-11504269D02*
X7924944Y-11494746D01*
X7924944Y-11494746D02*
X7934467Y-11475698D01*
X8105896Y-11456650D02*
X8105896Y-11589984D01*
X8058277Y-11380460D02*
X8010658Y-11523317D01*
X8010658Y-11523317D02*
X8134467Y-11523317D01*
X8201134Y-11389984D02*
X8201134Y-11428079D01*
X8277325Y-11389984D02*
X8277325Y-11428079D01*
X8572563Y-11666174D02*
X8563039Y-11656650D01*
X8563039Y-11656650D02*
X8543991Y-11628079D01*
X8543991Y-11628079D02*
X8534468Y-11609031D01*
X8534468Y-11609031D02*
X8524944Y-11580460D01*
X8524944Y-11580460D02*
X8515420Y-11532841D01*
X8515420Y-11532841D02*
X8515420Y-11494746D01*
X8515420Y-11494746D02*
X8524944Y-11447127D01*
X8524944Y-11447127D02*
X8534468Y-11418555D01*
X8534468Y-11418555D02*
X8543991Y-11399508D01*
X8543991Y-11399508D02*
X8563039Y-11370936D01*
X8563039Y-11370936D02*
X8572563Y-11361412D01*
X8734468Y-11456650D02*
X8734468Y-11589984D01*
X8686849Y-11380460D02*
X8639230Y-11523317D01*
X8639230Y-11523317D02*
X8763039Y-11523317D01*
X8991611Y-11589984D02*
X8991611Y-11389984D01*
X9077325Y-11589984D02*
X9077325Y-11485222D01*
X9077325Y-11485222D02*
X9067801Y-11466174D01*
X9067801Y-11466174D02*
X9048753Y-11456650D01*
X9048753Y-11456650D02*
X9020182Y-11456650D01*
X9020182Y-11456650D02*
X9001134Y-11466174D01*
X9001134Y-11466174D02*
X8991611Y-11475698D01*
X9201134Y-11589984D02*
X9182087Y-11580460D01*
X9182087Y-11580460D02*
X9172563Y-11570936D01*
X9172563Y-11570936D02*
X9163039Y-11551888D01*
X9163039Y-11551888D02*
X9163039Y-11494746D01*
X9163039Y-11494746D02*
X9172563Y-11475698D01*
X9172563Y-11475698D02*
X9182087Y-11466174D01*
X9182087Y-11466174D02*
X9201134Y-11456650D01*
X9201134Y-11456650D02*
X9229706Y-11456650D01*
X9229706Y-11456650D02*
X9248753Y-11466174D01*
X9248753Y-11466174D02*
X9258277Y-11475698D01*
X9258277Y-11475698D02*
X9267801Y-11494746D01*
X9267801Y-11494746D02*
X9267801Y-11551888D01*
X9267801Y-11551888D02*
X9258277Y-11570936D01*
X9258277Y-11570936D02*
X9248753Y-11580460D01*
X9248753Y-11580460D02*
X9229706Y-11589984D01*
X9229706Y-11589984D02*
X9201134Y-11589984D01*
X9382087Y-11589984D02*
X9363039Y-11580460D01*
X9363039Y-11580460D02*
X9353515Y-11561412D01*
X9353515Y-11561412D02*
X9353515Y-11389984D01*
X9534468Y-11580460D02*
X9515420Y-11589984D01*
X9515420Y-11589984D02*
X9477325Y-11589984D01*
X9477325Y-11589984D02*
X9458277Y-11580460D01*
X9458277Y-11580460D02*
X9448753Y-11561412D01*
X9448753Y-11561412D02*
X9448753Y-11485222D01*
X9448753Y-11485222D02*
X9458277Y-11466174D01*
X9458277Y-11466174D02*
X9477325Y-11456650D01*
X9477325Y-11456650D02*
X9515420Y-11456650D01*
X9515420Y-11456650D02*
X9534468Y-11466174D01*
X9534468Y-11466174D02*
X9543992Y-11485222D01*
X9543992Y-11485222D02*
X9543992Y-11504269D01*
X9543992Y-11504269D02*
X9448753Y-11523317D01*
X9620182Y-11580460D02*
X9639230Y-11589984D01*
X9639230Y-11589984D02*
X9677325Y-11589984D01*
X9677325Y-11589984D02*
X9696373Y-11580460D01*
X9696373Y-11580460D02*
X9705896Y-11561412D01*
X9705896Y-11561412D02*
X9705896Y-11551888D01*
X9705896Y-11551888D02*
X9696373Y-11532841D01*
X9696373Y-11532841D02*
X9677325Y-11523317D01*
X9677325Y-11523317D02*
X9648753Y-11523317D01*
X9648753Y-11523317D02*
X9629706Y-11513793D01*
X9629706Y-11513793D02*
X9620182Y-11494746D01*
X9620182Y-11494746D02*
X9620182Y-11485222D01*
X9620182Y-11485222D02*
X9629706Y-11466174D01*
X9629706Y-11466174D02*
X9648753Y-11456650D01*
X9648753Y-11456650D02*
X9677325Y-11456650D01*
X9677325Y-11456650D02*
X9696373Y-11466174D01*
X9772563Y-11666174D02*
X9782087Y-11656650D01*
X9782087Y-11656650D02*
X9801134Y-11628079D01*
X9801134Y-11628079D02*
X9810658Y-11609031D01*
X9810658Y-11609031D02*
X9820182Y-11580460D01*
X9820182Y-11580460D02*
X9829706Y-11532841D01*
X9829706Y-11532841D02*
X9829706Y-11494746D01*
X9829706Y-11494746D02*
X9820182Y-11447127D01*
X9820182Y-11447127D02*
X9810658Y-11418555D01*
X9810658Y-11418555D02*
X9801134Y-11399508D01*
X9801134Y-11399508D02*
X9782087Y-11370936D01*
X9782087Y-11370936D02*
X9772563Y-11361412D01*
D13*
X4847500Y-11687500D02*
X4997500Y-11837500D01*
X4997500Y-11687500D02*
X4847500Y-11837500D01*
X4997500Y-11762500D02*
G75*
G02*
X4847500Y-11762500I-75000J0D01*
G01*
X4847500Y-11762500D02*
G75*
G02*
X4997500Y-11762500I75000J0D01*
G01*
D11*
X5363039Y-11853984D02*
X5248753Y-11853984D01*
X5305896Y-11853984D02*
X5305896Y-11653984D01*
X5305896Y-11653984D02*
X5286848Y-11682555D01*
X5286848Y-11682555D02*
X5267801Y-11701603D01*
X5267801Y-11701603D02*
X5248753Y-11711127D01*
X5448753Y-11834936D02*
X5458277Y-11844460D01*
X5458277Y-11844460D02*
X5448753Y-11853984D01*
X5448753Y-11853984D02*
X5439229Y-11844460D01*
X5439229Y-11844460D02*
X5448753Y-11834936D01*
X5448753Y-11834936D02*
X5448753Y-11853984D01*
X5639229Y-11653984D02*
X5543991Y-11653984D01*
X5543991Y-11653984D02*
X5534467Y-11749222D01*
X5534467Y-11749222D02*
X5543991Y-11739698D01*
X5543991Y-11739698D02*
X5563039Y-11730174D01*
X5563039Y-11730174D02*
X5610658Y-11730174D01*
X5610658Y-11730174D02*
X5629705Y-11739698D01*
X5629705Y-11739698D02*
X5639229Y-11749222D01*
X5639229Y-11749222D02*
X5648753Y-11768269D01*
X5648753Y-11768269D02*
X5648753Y-11815888D01*
X5648753Y-11815888D02*
X5639229Y-11834936D01*
X5639229Y-11834936D02*
X5629705Y-11844460D01*
X5629705Y-11844460D02*
X5610658Y-11853984D01*
X5610658Y-11853984D02*
X5563039Y-11853984D01*
X5563039Y-11853984D02*
X5543991Y-11844460D01*
X5543991Y-11844460D02*
X5534467Y-11834936D01*
X5772562Y-11653984D02*
X5791610Y-11653984D01*
X5791610Y-11653984D02*
X5810658Y-11663508D01*
X5810658Y-11663508D02*
X5820182Y-11673031D01*
X5820182Y-11673031D02*
X5829705Y-11692079D01*
X5829705Y-11692079D02*
X5839229Y-11730174D01*
X5839229Y-11730174D02*
X5839229Y-11777793D01*
X5839229Y-11777793D02*
X5829705Y-11815888D01*
X5829705Y-11815888D02*
X5820182Y-11834936D01*
X5820182Y-11834936D02*
X5810658Y-11844460D01*
X5810658Y-11844460D02*
X5791610Y-11853984D01*
X5791610Y-11853984D02*
X5772562Y-11853984D01*
X5772562Y-11853984D02*
X5753515Y-11844460D01*
X5753515Y-11844460D02*
X5743991Y-11834936D01*
X5743991Y-11834936D02*
X5734467Y-11815888D01*
X5734467Y-11815888D02*
X5724943Y-11777793D01*
X5724943Y-11777793D02*
X5724943Y-11730174D01*
X5724943Y-11730174D02*
X5734467Y-11692079D01*
X5734467Y-11692079D02*
X5743991Y-11673031D01*
X5743991Y-11673031D02*
X5753515Y-11663508D01*
X5753515Y-11663508D02*
X5772562Y-11653984D01*
X5963039Y-11653984D02*
X5982086Y-11653984D01*
X5982086Y-11653984D02*
X6001134Y-11663508D01*
X6001134Y-11663508D02*
X6010658Y-11673031D01*
X6010658Y-11673031D02*
X6020182Y-11692079D01*
X6020182Y-11692079D02*
X6029705Y-11730174D01*
X6029705Y-11730174D02*
X6029705Y-11777793D01*
X6029705Y-11777793D02*
X6020182Y-11815888D01*
X6020182Y-11815888D02*
X6010658Y-11834936D01*
X6010658Y-11834936D02*
X6001134Y-11844460D01*
X6001134Y-11844460D02*
X5982086Y-11853984D01*
X5982086Y-11853984D02*
X5963039Y-11853984D01*
X5963039Y-11853984D02*
X5943991Y-11844460D01*
X5943991Y-11844460D02*
X5934467Y-11834936D01*
X5934467Y-11834936D02*
X5924943Y-11815888D01*
X5924943Y-11815888D02*
X5915420Y-11777793D01*
X5915420Y-11777793D02*
X5915420Y-11730174D01*
X5915420Y-11730174D02*
X5924943Y-11692079D01*
X5924943Y-11692079D02*
X5934467Y-11673031D01*
X5934467Y-11673031D02*
X5943991Y-11663508D01*
X5943991Y-11663508D02*
X5963039Y-11653984D01*
X6115420Y-11853984D02*
X6115420Y-11720650D01*
X6115420Y-11739698D02*
X6124943Y-11730174D01*
X6124943Y-11730174D02*
X6143991Y-11720650D01*
X6143991Y-11720650D02*
X6172563Y-11720650D01*
X6172563Y-11720650D02*
X6191610Y-11730174D01*
X6191610Y-11730174D02*
X6201134Y-11749222D01*
X6201134Y-11749222D02*
X6201134Y-11853984D01*
X6201134Y-11749222D02*
X6210658Y-11730174D01*
X6210658Y-11730174D02*
X6229705Y-11720650D01*
X6229705Y-11720650D02*
X6258277Y-11720650D01*
X6258277Y-11720650D02*
X6277324Y-11730174D01*
X6277324Y-11730174D02*
X6286848Y-11749222D01*
X6286848Y-11749222D02*
X6286848Y-11853984D01*
X6382086Y-11853984D02*
X6382086Y-11720650D01*
X6382086Y-11739698D02*
X6391610Y-11730174D01*
X6391610Y-11730174D02*
X6410658Y-11720650D01*
X6410658Y-11720650D02*
X6439229Y-11720650D01*
X6439229Y-11720650D02*
X6458277Y-11730174D01*
X6458277Y-11730174D02*
X6467801Y-11749222D01*
X6467801Y-11749222D02*
X6467801Y-11853984D01*
X6467801Y-11749222D02*
X6477324Y-11730174D01*
X6477324Y-11730174D02*
X6496372Y-11720650D01*
X6496372Y-11720650D02*
X6524943Y-11720650D01*
X6524943Y-11720650D02*
X6543991Y-11730174D01*
X6543991Y-11730174D02*
X6553515Y-11749222D01*
X6553515Y-11749222D02*
X6553515Y-11853984D01*
X6943991Y-11644460D02*
X6772563Y-11901603D01*
X7201134Y-11653984D02*
X7220182Y-11653984D01*
X7220182Y-11653984D02*
X7239229Y-11663508D01*
X7239229Y-11663508D02*
X7248753Y-11673031D01*
X7248753Y-11673031D02*
X7258277Y-11692079D01*
X7258277Y-11692079D02*
X7267801Y-11730174D01*
X7267801Y-11730174D02*
X7267801Y-11777793D01*
X7267801Y-11777793D02*
X7258277Y-11815888D01*
X7258277Y-11815888D02*
X7248753Y-11834936D01*
X7248753Y-11834936D02*
X7239229Y-11844460D01*
X7239229Y-11844460D02*
X7220182Y-11853984D01*
X7220182Y-11853984D02*
X7201134Y-11853984D01*
X7201134Y-11853984D02*
X7182086Y-11844460D01*
X7182086Y-11844460D02*
X7172563Y-11834936D01*
X7172563Y-11834936D02*
X7163039Y-11815888D01*
X7163039Y-11815888D02*
X7153515Y-11777793D01*
X7153515Y-11777793D02*
X7153515Y-11730174D01*
X7153515Y-11730174D02*
X7163039Y-11692079D01*
X7163039Y-11692079D02*
X7172563Y-11673031D01*
X7172563Y-11673031D02*
X7182086Y-11663508D01*
X7182086Y-11663508D02*
X7201134Y-11653984D01*
X7353515Y-11834936D02*
X7363039Y-11844460D01*
X7363039Y-11844460D02*
X7353515Y-11853984D01*
X7353515Y-11853984D02*
X7343991Y-11844460D01*
X7343991Y-11844460D02*
X7353515Y-11834936D01*
X7353515Y-11834936D02*
X7353515Y-11853984D01*
X7486848Y-11653984D02*
X7505896Y-11653984D01*
X7505896Y-11653984D02*
X7524944Y-11663508D01*
X7524944Y-11663508D02*
X7534467Y-11673031D01*
X7534467Y-11673031D02*
X7543991Y-11692079D01*
X7543991Y-11692079D02*
X7553515Y-11730174D01*
X7553515Y-11730174D02*
X7553515Y-11777793D01*
X7553515Y-11777793D02*
X7543991Y-11815888D01*
X7543991Y-11815888D02*
X7534467Y-11834936D01*
X7534467Y-11834936D02*
X7524944Y-11844460D01*
X7524944Y-11844460D02*
X7505896Y-11853984D01*
X7505896Y-11853984D02*
X7486848Y-11853984D01*
X7486848Y-11853984D02*
X7467801Y-11844460D01*
X7467801Y-11844460D02*
X7458277Y-11834936D01*
X7458277Y-11834936D02*
X7448753Y-11815888D01*
X7448753Y-11815888D02*
X7439229Y-11777793D01*
X7439229Y-11777793D02*
X7439229Y-11730174D01*
X7439229Y-11730174D02*
X7448753Y-11692079D01*
X7448753Y-11692079D02*
X7458277Y-11673031D01*
X7458277Y-11673031D02*
X7467801Y-11663508D01*
X7467801Y-11663508D02*
X7486848Y-11653984D01*
X7734467Y-11653984D02*
X7639229Y-11653984D01*
X7639229Y-11653984D02*
X7629706Y-11749222D01*
X7629706Y-11749222D02*
X7639229Y-11739698D01*
X7639229Y-11739698D02*
X7658277Y-11730174D01*
X7658277Y-11730174D02*
X7705896Y-11730174D01*
X7705896Y-11730174D02*
X7724944Y-11739698D01*
X7724944Y-11739698D02*
X7734467Y-11749222D01*
X7734467Y-11749222D02*
X7743991Y-11768269D01*
X7743991Y-11768269D02*
X7743991Y-11815888D01*
X7743991Y-11815888D02*
X7734467Y-11834936D01*
X7734467Y-11834936D02*
X7724944Y-11844460D01*
X7724944Y-11844460D02*
X7705896Y-11853984D01*
X7705896Y-11853984D02*
X7658277Y-11853984D01*
X7658277Y-11853984D02*
X7639229Y-11844460D01*
X7639229Y-11844460D02*
X7629706Y-11834936D01*
X7839229Y-11853984D02*
X7877325Y-11853984D01*
X7877325Y-11853984D02*
X7896372Y-11844460D01*
X7896372Y-11844460D02*
X7905896Y-11834936D01*
X7905896Y-11834936D02*
X7924944Y-11806365D01*
X7924944Y-11806365D02*
X7934467Y-11768269D01*
X7934467Y-11768269D02*
X7934467Y-11692079D01*
X7934467Y-11692079D02*
X7924944Y-11673031D01*
X7924944Y-11673031D02*
X7915420Y-11663508D01*
X7915420Y-11663508D02*
X7896372Y-11653984D01*
X7896372Y-11653984D02*
X7858277Y-11653984D01*
X7858277Y-11653984D02*
X7839229Y-11663508D01*
X7839229Y-11663508D02*
X7829706Y-11673031D01*
X7829706Y-11673031D02*
X7820182Y-11692079D01*
X7820182Y-11692079D02*
X7820182Y-11739698D01*
X7820182Y-11739698D02*
X7829706Y-11758746D01*
X7829706Y-11758746D02*
X7839229Y-11768269D01*
X7839229Y-11768269D02*
X7858277Y-11777793D01*
X7858277Y-11777793D02*
X7896372Y-11777793D01*
X7896372Y-11777793D02*
X7915420Y-11768269D01*
X7915420Y-11768269D02*
X7924944Y-11758746D01*
X7924944Y-11758746D02*
X7934467Y-11739698D01*
X8124944Y-11853984D02*
X8010658Y-11853984D01*
X8067801Y-11853984D02*
X8067801Y-11653984D01*
X8067801Y-11653984D02*
X8048753Y-11682555D01*
X8048753Y-11682555D02*
X8029706Y-11701603D01*
X8029706Y-11701603D02*
X8010658Y-11711127D01*
X8201134Y-11653984D02*
X8201134Y-11692079D01*
X8277325Y-11653984D02*
X8277325Y-11692079D01*
X8572563Y-11930174D02*
X8563039Y-11920650D01*
X8563039Y-11920650D02*
X8543991Y-11892079D01*
X8543991Y-11892079D02*
X8534468Y-11873031D01*
X8534468Y-11873031D02*
X8524944Y-11844460D01*
X8524944Y-11844460D02*
X8515420Y-11796841D01*
X8515420Y-11796841D02*
X8515420Y-11758746D01*
X8515420Y-11758746D02*
X8524944Y-11711127D01*
X8524944Y-11711127D02*
X8534468Y-11682555D01*
X8534468Y-11682555D02*
X8543991Y-11663508D01*
X8543991Y-11663508D02*
X8563039Y-11634936D01*
X8563039Y-11634936D02*
X8572563Y-11625412D01*
X8743991Y-11653984D02*
X8648753Y-11653984D01*
X8648753Y-11653984D02*
X8639230Y-11749222D01*
X8639230Y-11749222D02*
X8648753Y-11739698D01*
X8648753Y-11739698D02*
X8667801Y-11730174D01*
X8667801Y-11730174D02*
X8715420Y-11730174D01*
X8715420Y-11730174D02*
X8734468Y-11739698D01*
X8734468Y-11739698D02*
X8743991Y-11749222D01*
X8743991Y-11749222D02*
X8753515Y-11768269D01*
X8753515Y-11768269D02*
X8753515Y-11815888D01*
X8753515Y-11815888D02*
X8743991Y-11834936D01*
X8743991Y-11834936D02*
X8734468Y-11844460D01*
X8734468Y-11844460D02*
X8715420Y-11853984D01*
X8715420Y-11853984D02*
X8667801Y-11853984D01*
X8667801Y-11853984D02*
X8648753Y-11844460D01*
X8648753Y-11844460D02*
X8639230Y-11834936D01*
X8991611Y-11853984D02*
X8991611Y-11653984D01*
X9077325Y-11853984D02*
X9077325Y-11749222D01*
X9077325Y-11749222D02*
X9067801Y-11730174D01*
X9067801Y-11730174D02*
X9048753Y-11720650D01*
X9048753Y-11720650D02*
X9020182Y-11720650D01*
X9020182Y-11720650D02*
X9001134Y-11730174D01*
X9001134Y-11730174D02*
X8991611Y-11739698D01*
X9201134Y-11853984D02*
X9182087Y-11844460D01*
X9182087Y-11844460D02*
X9172563Y-11834936D01*
X9172563Y-11834936D02*
X9163039Y-11815888D01*
X9163039Y-11815888D02*
X9163039Y-11758746D01*
X9163039Y-11758746D02*
X9172563Y-11739698D01*
X9172563Y-11739698D02*
X9182087Y-11730174D01*
X9182087Y-11730174D02*
X9201134Y-11720650D01*
X9201134Y-11720650D02*
X9229706Y-11720650D01*
X9229706Y-11720650D02*
X9248753Y-11730174D01*
X9248753Y-11730174D02*
X9258277Y-11739698D01*
X9258277Y-11739698D02*
X9267801Y-11758746D01*
X9267801Y-11758746D02*
X9267801Y-11815888D01*
X9267801Y-11815888D02*
X9258277Y-11834936D01*
X9258277Y-11834936D02*
X9248753Y-11844460D01*
X9248753Y-11844460D02*
X9229706Y-11853984D01*
X9229706Y-11853984D02*
X9201134Y-11853984D01*
X9382087Y-11853984D02*
X9363039Y-11844460D01*
X9363039Y-11844460D02*
X9353515Y-11825412D01*
X9353515Y-11825412D02*
X9353515Y-11653984D01*
X9534468Y-11844460D02*
X9515420Y-11853984D01*
X9515420Y-11853984D02*
X9477325Y-11853984D01*
X9477325Y-11853984D02*
X9458277Y-11844460D01*
X9458277Y-11844460D02*
X9448753Y-11825412D01*
X9448753Y-11825412D02*
X9448753Y-11749222D01*
X9448753Y-11749222D02*
X9458277Y-11730174D01*
X9458277Y-11730174D02*
X9477325Y-11720650D01*
X9477325Y-11720650D02*
X9515420Y-11720650D01*
X9515420Y-11720650D02*
X9534468Y-11730174D01*
X9534468Y-11730174D02*
X9543992Y-11749222D01*
X9543992Y-11749222D02*
X9543992Y-11768269D01*
X9543992Y-11768269D02*
X9448753Y-11787317D01*
X9620182Y-11844460D02*
X9639230Y-11853984D01*
X9639230Y-11853984D02*
X9677325Y-11853984D01*
X9677325Y-11853984D02*
X9696373Y-11844460D01*
X9696373Y-11844460D02*
X9705896Y-11825412D01*
X9705896Y-11825412D02*
X9705896Y-11815888D01*
X9705896Y-11815888D02*
X9696373Y-11796841D01*
X9696373Y-11796841D02*
X9677325Y-11787317D01*
X9677325Y-11787317D02*
X9648753Y-11787317D01*
X9648753Y-11787317D02*
X9629706Y-11777793D01*
X9629706Y-11777793D02*
X9620182Y-11758746D01*
X9620182Y-11758746D02*
X9620182Y-11749222D01*
X9620182Y-11749222D02*
X9629706Y-11730174D01*
X9629706Y-11730174D02*
X9648753Y-11720650D01*
X9648753Y-11720650D02*
X9677325Y-11720650D01*
X9677325Y-11720650D02*
X9696373Y-11730174D01*
X9772563Y-11930174D02*
X9782087Y-11920650D01*
X9782087Y-11920650D02*
X9801134Y-11892079D01*
X9801134Y-11892079D02*
X9810658Y-11873031D01*
X9810658Y-11873031D02*
X9820182Y-11844460D01*
X9820182Y-11844460D02*
X9829706Y-11796841D01*
X9829706Y-11796841D02*
X9829706Y-11758746D01*
X9829706Y-11758746D02*
X9820182Y-11711127D01*
X9820182Y-11711127D02*
X9810658Y-11682555D01*
X9810658Y-11682555D02*
X9801134Y-11663508D01*
X9801134Y-11663508D02*
X9782087Y-11634936D01*
X9782087Y-11634936D02*
X9772563Y-11625412D01*
M02*
