M48
; DRILL file {KiCad 8.0.5} date 2024-10-17T13:51:07-0500
; FORMAT={-:-/ absolute / metric / decimal}
; #@! TF.CreationDate,2024-10-17T13:51:07-05:00
; #@! TF.GenerationSoftware,Kicad,Pcbnew,8.0.5
; #@! TF.FileFunction,Plated,1,2,PTH
FMAT,2
METRIC
; #@! TA.AperFunction,Plated,PTH,ComponentDrill
T1C0.800
; #@! TA.AperFunction,Plated,PTH,ComponentDrill
T2C1.000
; #@! TA.AperFunction,Plated,PTH,ComponentDrill
T3C1.500
%
G90
G05
T1
X60.355Y-57.46
X60.355Y-60.0
X60.355Y-62.54
X68.845Y-56.67
X68.845Y-59.21
X68.845Y-62.61
X68.845Y-65.15
X68.995Y-44.005
X68.995Y-46.545
X68.995Y-50.46
X68.995Y-53.0
X68.995Y-75.8
X68.995Y-88.5
X75.12Y-88.42
X75.46Y-80.0
X77.66Y-88.42
X78.0Y-80.0
X80.54Y-80.0
X82.79Y-88.42
X83.08Y-80.0
X85.33Y-88.42
X85.62Y-80.0
X94.505Y-58.22
X94.505Y-70.92
T2
X63.995Y-71.0
X68.995Y-71.0
X92.005Y-75.92
X97.005Y-75.92
T3
X55.495Y-50.0
X55.495Y-71.0
X55.495Y-85.0
X94.505Y-49.92
X94.505Y-84.92
M30
