M48
; DRILL file {KiCad 8.0.8} date 2025-01-19T15:50:17-0600
; FORMAT={-:-/ absolute / metric / decimal}
; #@! TF.CreationDate,2025-01-19T15:50:17-06:00
; #@! TF.GenerationSoftware,Kicad,Pcbnew,8.0.8
; #@! TF.FileFunction,Plated,1,2,PTH
FMAT,2
METRIC
; #@! TA.AperFunction,Plated,PTH,ComponentDrill
T1C0.800
; #@! TA.AperFunction,Plated,PTH,ComponentDrill
T2C1.000
; #@! TA.AperFunction,Plated,PTH,ComponentDrill
T3C1.500
%
G90
G05
T1
X55.36Y-56.412
X55.36Y-58.953
X55.36Y-61.492
X60.96Y-56.953
X62.5Y-61.457
X62.5Y-63.997
X62.505Y-46.453
X63.5Y-56.953
X65.045Y-46.453
X65.045Y-50.407
X65.045Y-52.947
X67.5Y-73.602
X67.5Y-86.302
X72.84Y-78.453
X73.0Y-84.953
X75.38Y-78.453
X75.54Y-84.953
X77.92Y-78.453
X80.46Y-78.453
X80.5Y-84.953
X83.0Y-78.453
X83.04Y-84.953
X92.5Y-56.672
X92.5Y-69.373
T2
X62.5Y-69.453
X67.5Y-69.453
X90.0Y-74.373
X95.0Y-74.373
T3
X55.495Y-48.453
X55.495Y-69.453
X55.495Y-83.453
X92.5Y-48.372
X92.5Y-83.373
M30
