%TF.GenerationSoftware,KiCad,Pcbnew,8.0.8*%
%TF.CreationDate,2025-01-19T15:48:06-06:00*%
%TF.ProjectId,Block-JAN6418,426c6f63-6b2d-44a4-914e-363431382e6b,rev?*%
%TF.SameCoordinates,Original*%
%TF.FileFunction,Copper,L1,Top*%
%TF.FilePolarity,Positive*%
%FSLAX46Y46*%
G04 Gerber Fmt 4.6, Leading zero omitted, Abs format (unit mm)*
G04 Created by KiCad (PCBNEW 8.0.8) date 2025-01-19 15:48:06*
%MOMM*%
%LPD*%
G01*
G04 APERTURE LIST*
%TA.AperFunction,ComponentPad*%
%ADD10R,1.200000X1.200000*%
%TD*%
%TA.AperFunction,ComponentPad*%
%ADD11C,1.200000*%
%TD*%
%TA.AperFunction,ComponentPad*%
%ADD12R,1.800000X1.800000*%
%TD*%
%TA.AperFunction,ComponentPad*%
%ADD13C,1.800000*%
%TD*%
%TA.AperFunction,ComponentPad*%
%ADD14C,3.000000*%
%TD*%
%TA.AperFunction,ComponentPad*%
%ADD15C,2.000000*%
%TD*%
%TA.AperFunction,ComponentPad*%
%ADD16C,1.600000*%
%TD*%
%TA.AperFunction,ComponentPad*%
%ADD17O,1.600000X1.600000*%
%TD*%
%TA.AperFunction,ComponentPad*%
%ADD18R,1.500000X1.500000*%
%TD*%
%TA.AperFunction,ComponentPad*%
%ADD19C,1.500000*%
%TD*%
%TA.AperFunction,ComponentPad*%
%ADD20C,1.400000*%
%TD*%
%TA.AperFunction,ViaPad*%
%ADD21C,1.000000*%
%TD*%
%TA.AperFunction,Conductor*%
%ADD22C,1.000000*%
%TD*%
G04 APERTURE END LIST*
D10*
%TO.P,C4,1*%
%TO.N,Net-(U2-VO)*%
X58000000Y-62277401D03*
D11*
%TO.P,C4,2*%
%TO.N,GND*%
X58000000Y-63777401D03*
%TD*%
D12*
%TO.P,U1,1,P*%
%TO.N,Net-(U1A-P)*%
X83000000Y-78452500D03*
D13*
%TO.P,U1,2,G2*%
%TO.N,Net-(U1A-G2)*%
X80460000Y-78452500D03*
%TO.P,U1,3,F+\u002CG3*%
%TO.N,Net-(U2-VO)*%
X77920000Y-78452500D03*
%TO.P,U1,4,G1*%
%TO.N,Net-(U1A-G1)*%
X75380000Y-78452500D03*
%TO.P,U1,5,F+\u002CG3*%
%TO.N,GND*%
X72840000Y-78452500D03*
%TD*%
D14*
%TO.P,+9V,1,Pin_1*%
%TO.N,+9V*%
X55495000Y-48452500D03*
%TD*%
D15*
%TO.P,C1,1*%
%TO.N,Net-(U1A-P)*%
X90000000Y-74372500D03*
%TO.P,C1,2*%
%TO.N,Net-(J4-Pin_1)*%
X95000000Y-74372500D03*
%TD*%
D16*
%TO.P,R8,1*%
%TO.N,GND*%
X63500000Y-64045000D03*
D17*
%TO.P,R8,2*%
%TO.N,Net-(U2-ADJ)*%
X63500000Y-61505000D03*
%TD*%
D14*
%TO.P,Sig_gnd,1,Pin_1*%
%TO.N,GND*%
X55500000Y-71000000D03*
%TD*%
D16*
%TO.P,R5,1*%
%TO.N,Net-(U1A-G2)*%
X75540000Y-84952500D03*
D17*
%TO.P,R5,2*%
%TO.N,GND*%
X73000000Y-84952500D03*
%TD*%
D16*
%TO.P,R1,1*%
%TO.N,Net-(R1-Pad1)*%
X64545000Y-48000000D03*
D17*
%TO.P,R1,2*%
%TO.N,+9V*%
X62005000Y-48000000D03*
%TD*%
D16*
%TO.P,Impedance,1*%
%TO.N,Net-(U1A-G1)*%
X65000000Y-82850000D03*
D17*
%TO.P,Impedance,2*%
%TO.N,GND*%
X65000000Y-70150000D03*
%TD*%
D16*
%TO.P,R2,1*%
%TO.N,Net-(R1-Pad1)*%
X64540000Y-52000000D03*
D17*
%TO.P,R2,2*%
%TO.N,Net-(U2-VO)*%
X62000000Y-52000000D03*
%TD*%
D16*
%TO.P,Ra,1*%
%TO.N,Net-(J1-Pin_1)*%
X92500000Y-56672500D03*
D17*
%TO.P,Ra,2*%
%TO.N,Net-(U1A-P)*%
X92500000Y-69372500D03*
%TD*%
D18*
%TO.P,U2,1,ADJ*%
%TO.N,Net-(U2-ADJ)*%
X58040000Y-57140000D03*
D19*
%TO.P,U2,2,VO*%
%TO.N,Net-(U2-VO)*%
X55500000Y-57140000D03*
%TO.P,U2,3,VI*%
%TO.N,+9V*%
X52960000Y-57140000D03*
%TD*%
D14*
%TO.P,Sig_out,1,Pin_1*%
%TO.N,Net-(J4-Pin_1)*%
X92500000Y-83372500D03*
%TD*%
D15*
%TO.P,C2,1*%
%TO.N,Net-(J3-Pin_1)*%
X62500000Y-86000000D03*
%TO.P,C2,2*%
%TO.N,Net-(U1A-G1)*%
X67500000Y-86000000D03*
%TD*%
D16*
%TO.P,R7,1*%
%TO.N,Net-(U2-ADJ)*%
X63500000Y-58545000D03*
D17*
%TO.P,R7,2*%
%TO.N,Net-(U2-VO)*%
X63500000Y-56005000D03*
%TD*%
D16*
%TO.P,R4,1*%
%TO.N,Net-(U1A-P)*%
X83040000Y-84952500D03*
D17*
%TO.P,R4,2*%
%TO.N,Net-(U1A-G2)*%
X80500000Y-84952500D03*
%TD*%
D14*
%TO.P,B+,1,Pin_1*%
%TO.N,Net-(J1-Pin_1)*%
X92500000Y-48372500D03*
%TD*%
%TO.P,Sig_in,1,Pin_1*%
%TO.N,Net-(J3-Pin_1)*%
X55500000Y-83500000D03*
%TD*%
D20*
%TO.P,C3,1*%
%TO.N,+9V*%
X53000000Y-61750000D03*
%TO.P,C3,2*%
%TO.N,GND*%
X53000000Y-64250000D03*
%TD*%
D21*
%TO.N,GND*%
X57500000Y-71000000D03*
X55500000Y-73000000D03*
X54000000Y-72500000D03*
X57000000Y-72500000D03*
X57000000Y-69500000D03*
X54000000Y-69500000D03*
X55500000Y-69000000D03*
X53500000Y-71000000D03*
%TD*%
D22*
%TO.N,GND*%
X55500000Y-71000000D02*
X54000000Y-69500000D01*
X55500000Y-71000000D02*
X53500000Y-71000000D01*
X55500000Y-71000000D02*
X54000000Y-72500000D01*
X55500000Y-71000000D02*
X55500000Y-73000000D01*
X55500000Y-71000000D02*
X57000000Y-72500000D01*
X55500000Y-71000000D02*
X57500000Y-71000000D01*
X55500000Y-71000000D02*
X57000000Y-69500000D01*
X55500000Y-71000000D02*
X55500000Y-69000000D01*
%TD*%
%TA.AperFunction,Conductor*%
%TO.N,GND*%
G36*
X97442539Y-35520185D02*
G01*
X97488294Y-35572989D01*
X97499500Y-35624500D01*
X97499500Y-97375500D01*
X97479815Y-97442539D01*
X97427011Y-97488294D01*
X97375500Y-97499500D01*
X50624500Y-97499500D01*
X50557461Y-97479815D01*
X50511706Y-97427011D01*
X50500500Y-97375500D01*
X50500500Y-93893713D01*
X52649500Y-93893713D01*
X52649500Y-94106286D01*
X52682753Y-94316239D01*
X52748444Y-94518414D01*
X52844951Y-94707820D01*
X52969890Y-94879786D01*
X53120213Y-95030109D01*
X53292179Y-95155048D01*
X53292181Y-95155049D01*
X53292184Y-95155051D01*
X53481588Y-95251557D01*
X53683757Y-95317246D01*
X53893713Y-95350500D01*
X53893714Y-95350500D01*
X54106286Y-95350500D01*
X54106287Y-95350500D01*
X54316243Y-95317246D01*
X54518412Y-95251557D01*
X54707816Y-95155051D01*
X54729789Y-95139086D01*
X54879786Y-95030109D01*
X54879788Y-95030106D01*
X54879792Y-95030104D01*
X55030104Y-94879792D01*
X55030106Y-94879788D01*
X55030109Y-94879786D01*
X55155048Y-94707820D01*
X55155047Y-94707820D01*
X55155051Y-94707816D01*
X55251557Y-94518412D01*
X55317246Y-94316243D01*
X55350500Y-94106287D01*
X55350500Y-93893713D01*
X92649500Y-93893713D01*
X92649500Y-94106286D01*
X92682753Y-94316239D01*
X92748444Y-94518414D01*
X92844951Y-94707820D01*
X92969890Y-94879786D01*
X93120213Y-95030109D01*
X93292179Y-95155048D01*
X93292181Y-95155049D01*
X93292184Y-95155051D01*
X93481588Y-95251557D01*
X93683757Y-95317246D01*
X93893713Y-95350500D01*
X93893714Y-95350500D01*
X94106286Y-95350500D01*
X94106287Y-95350500D01*
X94316243Y-95317246D01*
X94518412Y-95251557D01*
X94707816Y-95155051D01*
X94729789Y-95139086D01*
X94879786Y-95030109D01*
X94879788Y-95030106D01*
X94879792Y-95030104D01*
X95030104Y-94879792D01*
X95030106Y-94879788D01*
X95030109Y-94879786D01*
X95155048Y-94707820D01*
X95155047Y-94707820D01*
X95155051Y-94707816D01*
X95251557Y-94518412D01*
X95317246Y-94316243D01*
X95350500Y-94106287D01*
X95350500Y-93893713D01*
X95317246Y-93683757D01*
X95251557Y-93481588D01*
X95155051Y-93292184D01*
X95155049Y-93292181D01*
X95155048Y-93292179D01*
X95030109Y-93120213D01*
X94879786Y-92969890D01*
X94707820Y-92844951D01*
X94518414Y-92748444D01*
X94518413Y-92748443D01*
X94518412Y-92748443D01*
X94316243Y-92682754D01*
X94316241Y-92682753D01*
X94316240Y-92682753D01*
X94154957Y-92657208D01*
X94106287Y-92649500D01*
X93893713Y-92649500D01*
X93845042Y-92657208D01*
X93683760Y-92682753D01*
X93481585Y-92748444D01*
X93292179Y-92844951D01*
X93120213Y-92969890D01*
X92969890Y-93120213D01*
X92844951Y-93292179D01*
X92748444Y-93481585D01*
X92682753Y-93683760D01*
X92649500Y-93893713D01*
X55350500Y-93893713D01*
X55317246Y-93683757D01*
X55251557Y-93481588D01*
X55155051Y-93292184D01*
X55155049Y-93292181D01*
X55155048Y-93292179D01*
X55030109Y-93120213D01*
X54879786Y-92969890D01*
X54707820Y-92844951D01*
X54518414Y-92748444D01*
X54518413Y-92748443D01*
X54518412Y-92748443D01*
X54316243Y-92682754D01*
X54316241Y-92682753D01*
X54316240Y-92682753D01*
X54154957Y-92657208D01*
X54106287Y-92649500D01*
X53893713Y-92649500D01*
X53845042Y-92657208D01*
X53683760Y-92682753D01*
X53481585Y-92748444D01*
X53292179Y-92844951D01*
X53120213Y-92969890D01*
X52969890Y-93120213D01*
X52844951Y-93292179D01*
X52748444Y-93481585D01*
X52682753Y-93683760D01*
X52649500Y-93893713D01*
X50500500Y-93893713D01*
X50500500Y-85999994D01*
X60994357Y-85999994D01*
X60994357Y-86000005D01*
X61014890Y-86247812D01*
X61014892Y-86247824D01*
X61075936Y-86488881D01*
X61175826Y-86716606D01*
X61311833Y-86924782D01*
X61311836Y-86924785D01*
X61480256Y-87107738D01*
X61676491Y-87260474D01*
X61895190Y-87378828D01*
X62130386Y-87459571D01*
X62375665Y-87500500D01*
X62624335Y-87500500D01*
X62869614Y-87459571D01*
X63104810Y-87378828D01*
X63323509Y-87260474D01*
X63519744Y-87107738D01*
X63688164Y-86924785D01*
X63824173Y-86716607D01*
X63924063Y-86488881D01*
X63985108Y-86247821D01*
X64005643Y-86000000D01*
X64005643Y-85999994D01*
X65994357Y-85999994D01*
X65994357Y-86000005D01*
X66014890Y-86247812D01*
X66014892Y-86247824D01*
X66075936Y-86488881D01*
X66175826Y-86716606D01*
X66311833Y-86924782D01*
X66311836Y-86924785D01*
X66480256Y-87107738D01*
X66676491Y-87260474D01*
X66895190Y-87378828D01*
X67130386Y-87459571D01*
X67375665Y-87500500D01*
X67624335Y-87500500D01*
X67869614Y-87459571D01*
X68104810Y-87378828D01*
X68323509Y-87260474D01*
X68519744Y-87107738D01*
X68688164Y-86924785D01*
X68824173Y-86716607D01*
X68924063Y-86488881D01*
X68985108Y-86247821D01*
X69005643Y-86000000D01*
X68988351Y-85791320D01*
X68985109Y-85752187D01*
X68985107Y-85752175D01*
X68924063Y-85511118D01*
X68824173Y-85283393D01*
X68688166Y-85075217D01*
X68633418Y-85015745D01*
X68519744Y-84892262D01*
X68323509Y-84739526D01*
X68323507Y-84739525D01*
X68323506Y-84739524D01*
X68255090Y-84702499D01*
X71721127Y-84702499D01*
X71721128Y-84702500D01*
X72684314Y-84702500D01*
X72679920Y-84706894D01*
X72627259Y-84798106D01*
X72600000Y-84899839D01*
X72600000Y-85005161D01*
X72627259Y-85106894D01*
X72679920Y-85198106D01*
X72684314Y-85202500D01*
X71721128Y-85202500D01*
X71773730Y-85398817D01*
X71773734Y-85398826D01*
X71869865Y-85604982D01*
X72000342Y-85791320D01*
X72161179Y-85952157D01*
X72347517Y-86082634D01*
X72553673Y-86178765D01*
X72553682Y-86178769D01*
X72749999Y-86231372D01*
X72750000Y-86231371D01*
X72750000Y-85268186D01*
X72754394Y-85272580D01*
X72845606Y-85325241D01*
X72947339Y-85352500D01*
X73052661Y-85352500D01*
X73154394Y-85325241D01*
X73245606Y-85272580D01*
X73250000Y-85268186D01*
X73250000Y-86231372D01*
X73446317Y-86178769D01*
X73446326Y-86178765D01*
X73652482Y-86082634D01*
X73838820Y-85952157D01*
X73999657Y-85791320D01*
X74130132Y-85604984D01*
X74157341Y-85546634D01*
X74203513Y-85494195D01*
X74270707Y-85475042D01*
X74337588Y-85495257D01*
X74382106Y-85546633D01*
X74409431Y-85605232D01*
X74409432Y-85605234D01*
X74539954Y-85791641D01*
X74700858Y-85952545D01*
X74700861Y-85952547D01*
X74887266Y-86083068D01*
X75093504Y-86179239D01*
X75313308Y-86238135D01*
X75475230Y-86252301D01*
X75539998Y-86257968D01*
X75540000Y-86257968D01*
X75540002Y-86257968D01*
X75596673Y-86253009D01*
X75766692Y-86238135D01*
X75986496Y-86179239D01*
X76192734Y-86083068D01*
X76379139Y-85952547D01*
X76540047Y-85791639D01*
X76670568Y-85605234D01*
X76766739Y-85398996D01*
X76825635Y-85179192D01*
X76845468Y-84952500D01*
X76845468Y-84952498D01*
X79194532Y-84952498D01*
X79194532Y-84952501D01*
X79214364Y-85179186D01*
X79214366Y-85179197D01*
X79273258Y-85398988D01*
X79273261Y-85398997D01*
X79369431Y-85605232D01*
X79369432Y-85605234D01*
X79499954Y-85791641D01*
X79660858Y-85952545D01*
X79660861Y-85952547D01*
X79847266Y-86083068D01*
X80053504Y-86179239D01*
X80273308Y-86238135D01*
X80435230Y-86252301D01*
X80499998Y-86257968D01*
X80500000Y-86257968D01*
X80500002Y-86257968D01*
X80556673Y-86253009D01*
X80726692Y-86238135D01*
X80946496Y-86179239D01*
X81152734Y-86083068D01*
X81339139Y-85952547D01*
X81500047Y-85791639D01*
X81630568Y-85605234D01*
X81657618Y-85547224D01*
X81703790Y-85494785D01*
X81770983Y-85475633D01*
X81837865Y-85495848D01*
X81882382Y-85547225D01*
X81909429Y-85605228D01*
X81909432Y-85605234D01*
X82039954Y-85791641D01*
X82200858Y-85952545D01*
X82200861Y-85952547D01*
X82387266Y-86083068D01*
X82593504Y-86179239D01*
X82813308Y-86238135D01*
X82975230Y-86252301D01*
X83039998Y-86257968D01*
X83040000Y-86257968D01*
X83040002Y-86257968D01*
X83096673Y-86253009D01*
X83266692Y-86238135D01*
X83486496Y-86179239D01*
X83692734Y-86083068D01*
X83879139Y-85952547D01*
X84040047Y-85791639D01*
X84170568Y-85605234D01*
X84266739Y-85398996D01*
X84325635Y-85179192D01*
X84345468Y-84952500D01*
X84325635Y-84725808D01*
X84266739Y-84506004D01*
X84170568Y-84299766D01*
X84040047Y-84113361D01*
X84040045Y-84113358D01*
X83879141Y-83952454D01*
X83692734Y-83821932D01*
X83692732Y-83821931D01*
X83486497Y-83725761D01*
X83486488Y-83725758D01*
X83266697Y-83666866D01*
X83266693Y-83666865D01*
X83266692Y-83666865D01*
X83266691Y-83666864D01*
X83266686Y-83666864D01*
X83040002Y-83647032D01*
X83039998Y-83647032D01*
X82813313Y-83666864D01*
X82813302Y-83666866D01*
X82593511Y-83725758D01*
X82593502Y-83725761D01*
X82387267Y-83821931D01*
X82387265Y-83821932D01*
X82200858Y-83952454D01*
X82039954Y-84113358D01*
X81909432Y-84299765D01*
X81909431Y-84299767D01*
X81882382Y-84357775D01*
X81836209Y-84410214D01*
X81769016Y-84429366D01*
X81702135Y-84409150D01*
X81657618Y-84357775D01*
X81630568Y-84299766D01*
X81500047Y-84113361D01*
X81500045Y-84113358D01*
X81339141Y-83952454D01*
X81152734Y-83821932D01*
X81152732Y-83821931D01*
X80946497Y-83725761D01*
X80946488Y-83725758D01*
X80726697Y-83666866D01*
X80726693Y-83666865D01*
X80726692Y-83666865D01*
X80726691Y-83666864D01*
X80726686Y-83666864D01*
X80500002Y-83647032D01*
X80499998Y-83647032D01*
X80273313Y-83666864D01*
X80273302Y-83666866D01*
X80053511Y-83725758D01*
X80053502Y-83725761D01*
X79847267Y-83821931D01*
X79847265Y-83821932D01*
X79660858Y-83952454D01*
X79499954Y-84113358D01*
X79369432Y-84299765D01*
X79369431Y-84299767D01*
X79273261Y-84506002D01*
X79273258Y-84506011D01*
X79214366Y-84725802D01*
X79214364Y-84725813D01*
X79194532Y-84952498D01*
X76845468Y-84952498D01*
X76825635Y-84725808D01*
X76766739Y-84506004D01*
X76670568Y-84299766D01*
X76540047Y-84113361D01*
X76540045Y-84113358D01*
X76379141Y-83952454D01*
X76192734Y-83821932D01*
X76192732Y-83821931D01*
X75986497Y-83725761D01*
X75986488Y-83725758D01*
X75766697Y-83666866D01*
X75766693Y-83666865D01*
X75766692Y-83666865D01*
X75766691Y-83666864D01*
X75766686Y-83666864D01*
X75540002Y-83647032D01*
X75539998Y-83647032D01*
X75313313Y-83666864D01*
X75313302Y-83666866D01*
X75093511Y-83725758D01*
X75093502Y-83725761D01*
X74887267Y-83821931D01*
X74887265Y-83821932D01*
X74700858Y-83952454D01*
X74539954Y-84113358D01*
X74409433Y-84299764D01*
X74409432Y-84299766D01*
X74409315Y-84300018D01*
X74382106Y-84358367D01*
X74335933Y-84410806D01*
X74268739Y-84429957D01*
X74201858Y-84409741D01*
X74157342Y-84358365D01*
X74130135Y-84300020D01*
X74130134Y-84300018D01*
X73999657Y-84113679D01*
X73838820Y-83952842D01*
X73652482Y-83822365D01*
X73446328Y-83726234D01*
X73250000Y-83673627D01*
X73250000Y-84636814D01*
X73245606Y-84632420D01*
X73154394Y-84579759D01*
X73052661Y-84552500D01*
X72947339Y-84552500D01*
X72845606Y-84579759D01*
X72754394Y-84632420D01*
X72750000Y-84636814D01*
X72750000Y-83673627D01*
X72553671Y-83726234D01*
X72347517Y-83822365D01*
X72161179Y-83952842D01*
X72000342Y-84113679D01*
X71869865Y-84300017D01*
X71773734Y-84506173D01*
X71773730Y-84506182D01*
X71721127Y-84702499D01*
X68255090Y-84702499D01*
X68104811Y-84621172D01*
X68104802Y-84621169D01*
X67869616Y-84540429D01*
X67624335Y-84499500D01*
X67375665Y-84499500D01*
X67130383Y-84540429D01*
X66895197Y-84621169D01*
X66895188Y-84621172D01*
X66676493Y-84739524D01*
X66480257Y-84892261D01*
X66311833Y-85075217D01*
X66175826Y-85283393D01*
X66075936Y-85511118D01*
X66014892Y-85752175D01*
X66014890Y-85752187D01*
X65994357Y-85999994D01*
X64005643Y-85999994D01*
X63988351Y-85791320D01*
X63985109Y-85752187D01*
X63985107Y-85752175D01*
X63924063Y-85511118D01*
X63824173Y-85283393D01*
X63688166Y-85075217D01*
X63633418Y-85015745D01*
X63519744Y-84892262D01*
X63323509Y-84739526D01*
X63323507Y-84739525D01*
X63323506Y-84739524D01*
X63104811Y-84621172D01*
X63104802Y-84621169D01*
X62869616Y-84540429D01*
X62624335Y-84499500D01*
X62375665Y-84499500D01*
X62130383Y-84540429D01*
X61895197Y-84621169D01*
X61895188Y-84621172D01*
X61676493Y-84739524D01*
X61480257Y-84892261D01*
X61311833Y-85075217D01*
X61175826Y-85283393D01*
X61075936Y-85511118D01*
X61014892Y-85752175D01*
X61014890Y-85752187D01*
X60994357Y-85999994D01*
X50500500Y-85999994D01*
X50500500Y-83499998D01*
X53494390Y-83499998D01*
X53494390Y-83500001D01*
X53514804Y-83785433D01*
X53575628Y-84065037D01*
X53575630Y-84065043D01*
X53575631Y-84065046D01*
X53609357Y-84155468D01*
X53675635Y-84333166D01*
X53812770Y-84584309D01*
X53812775Y-84584317D01*
X53984254Y-84813387D01*
X53984270Y-84813405D01*
X54186594Y-85015729D01*
X54186612Y-85015745D01*
X54415682Y-85187224D01*
X54415690Y-85187229D01*
X54666833Y-85324364D01*
X54666832Y-85324364D01*
X54666836Y-85324365D01*
X54666839Y-85324367D01*
X54934954Y-85424369D01*
X54934960Y-85424370D01*
X54934962Y-85424371D01*
X55214566Y-85485195D01*
X55214568Y-85485195D01*
X55214572Y-85485196D01*
X55468220Y-85503337D01*
X55499999Y-85505610D01*
X55500000Y-85505610D01*
X55500001Y-85505610D01*
X55528595Y-85503564D01*
X55785428Y-85485196D01*
X55832106Y-85475042D01*
X56065037Y-85424371D01*
X56065037Y-85424370D01*
X56065046Y-85424369D01*
X56333161Y-85324367D01*
X56584315Y-85187226D01*
X56813395Y-85015739D01*
X57015739Y-84813395D01*
X57187226Y-84584315D01*
X57324367Y-84333161D01*
X57424369Y-84065046D01*
X57471139Y-83850047D01*
X57485195Y-83785433D01*
X57485195Y-83785432D01*
X57485196Y-83785428D01*
X57503564Y-83528595D01*
X57505610Y-83500001D01*
X57505610Y-83499998D01*
X57491055Y-83296496D01*
X57485196Y-83214572D01*
X57424369Y-82934954D01*
X57392682Y-82849998D01*
X63694532Y-82849998D01*
X63694532Y-82850001D01*
X63714364Y-83076686D01*
X63714366Y-83076697D01*
X63773258Y-83296488D01*
X63773261Y-83296497D01*
X63869431Y-83502732D01*
X63869432Y-83502734D01*
X63999954Y-83689141D01*
X64160858Y-83850045D01*
X64160861Y-83850047D01*
X64347266Y-83980568D01*
X64553504Y-84076739D01*
X64773308Y-84135635D01*
X64935230Y-84149801D01*
X64999998Y-84155468D01*
X65000000Y-84155468D01*
X65000002Y-84155468D01*
X65056673Y-84150509D01*
X65226692Y-84135635D01*
X65446496Y-84076739D01*
X65652734Y-83980568D01*
X65839139Y-83850047D01*
X66000047Y-83689139D01*
X66130568Y-83502734D01*
X66191298Y-83372498D01*
X90494390Y-83372498D01*
X90494390Y-83372501D01*
X90514804Y-83657933D01*
X90575628Y-83937537D01*
X90575630Y-83937543D01*
X90575631Y-83937546D01*
X90649514Y-84135633D01*
X90675635Y-84205666D01*
X90812770Y-84456809D01*
X90812775Y-84456817D01*
X90984254Y-84685887D01*
X90984270Y-84685905D01*
X91186594Y-84888229D01*
X91186612Y-84888245D01*
X91415682Y-85059724D01*
X91415690Y-85059729D01*
X91666833Y-85196864D01*
X91666832Y-85196864D01*
X91666836Y-85196865D01*
X91666839Y-85196867D01*
X91934954Y-85296869D01*
X91934960Y-85296870D01*
X91934962Y-85296871D01*
X92214566Y-85357695D01*
X92214568Y-85357695D01*
X92214572Y-85357696D01*
X92468220Y-85375837D01*
X92499999Y-85378110D01*
X92500000Y-85378110D01*
X92500001Y-85378110D01*
X92528595Y-85376064D01*
X92785428Y-85357696D01*
X92938640Y-85324367D01*
X93065037Y-85296871D01*
X93065037Y-85296870D01*
X93065046Y-85296869D01*
X93333161Y-85196867D01*
X93584315Y-85059726D01*
X93813395Y-84888239D01*
X94015739Y-84685895D01*
X94187226Y-84456815D01*
X94324367Y-84205661D01*
X94424369Y-83937546D01*
X94478406Y-83689141D01*
X94485195Y-83657933D01*
X94485195Y-83657932D01*
X94485196Y-83657928D01*
X94505610Y-83372500D01*
X94485196Y-83087072D01*
X94433624Y-82850000D01*
X94424371Y-82807462D01*
X94424370Y-82807460D01*
X94424369Y-82807454D01*
X94324367Y-82539339D01*
X94256849Y-82415690D01*
X94187229Y-82288190D01*
X94187224Y-82288182D01*
X94015745Y-82059112D01*
X94015729Y-82059094D01*
X93813405Y-81856770D01*
X93813387Y-81856754D01*
X93584317Y-81685275D01*
X93584309Y-81685270D01*
X93333166Y-81548135D01*
X93333167Y-81548135D01*
X93189071Y-81494390D01*
X93065046Y-81448131D01*
X93065043Y-81448130D01*
X93065037Y-81448128D01*
X92785433Y-81387304D01*
X92500001Y-81366890D01*
X92499999Y-81366890D01*
X92214566Y-81387304D01*
X91934962Y-81448128D01*
X91666833Y-81548135D01*
X91415690Y-81685270D01*
X91415682Y-81685275D01*
X91186612Y-81856754D01*
X91186594Y-81856770D01*
X90984270Y-82059094D01*
X90984254Y-82059112D01*
X90812775Y-82288182D01*
X90812770Y-82288190D01*
X90675635Y-82539333D01*
X90575628Y-82807462D01*
X90514804Y-83087066D01*
X90494390Y-83372498D01*
X66191298Y-83372498D01*
X66226739Y-83296496D01*
X66285635Y-83076692D01*
X66305468Y-82850000D01*
X66285635Y-82623308D01*
X66226739Y-82403504D01*
X66130568Y-82197266D01*
X66000047Y-82010861D01*
X66000045Y-82010858D01*
X65839141Y-81849954D01*
X65652734Y-81719432D01*
X65652732Y-81719431D01*
X65446497Y-81623261D01*
X65446488Y-81623258D01*
X65226697Y-81564366D01*
X65226693Y-81564365D01*
X65226692Y-81564365D01*
X65226691Y-81564364D01*
X65226686Y-81564364D01*
X65000002Y-81544532D01*
X64999998Y-81544532D01*
X64773313Y-81564364D01*
X64773302Y-81564366D01*
X64553511Y-81623258D01*
X64553502Y-81623261D01*
X64347267Y-81719431D01*
X64347265Y-81719432D01*
X64160858Y-81849954D01*
X63999954Y-82010858D01*
X63869432Y-82197265D01*
X63869431Y-82197267D01*
X63773261Y-82403502D01*
X63773258Y-82403511D01*
X63714366Y-82623302D01*
X63714364Y-82623313D01*
X63694532Y-82849998D01*
X57392682Y-82849998D01*
X57324367Y-82666839D01*
X57254746Y-82539339D01*
X57187229Y-82415690D01*
X57187224Y-82415682D01*
X57015745Y-82186612D01*
X57015729Y-82186594D01*
X56813405Y-81984270D01*
X56813387Y-81984254D01*
X56584317Y-81812775D01*
X56584309Y-81812770D01*
X56333166Y-81675635D01*
X56333167Y-81675635D01*
X56225915Y-81635632D01*
X56065046Y-81575631D01*
X56065043Y-81575630D01*
X56065037Y-81575628D01*
X55785433Y-81514804D01*
X55500001Y-81494390D01*
X55499999Y-81494390D01*
X55214566Y-81514804D01*
X54934962Y-81575628D01*
X54666833Y-81675635D01*
X54415690Y-81812770D01*
X54415682Y-81812775D01*
X54186612Y-81984254D01*
X54186594Y-81984270D01*
X53984270Y-82186594D01*
X53984254Y-82186612D01*
X53812775Y-82415682D01*
X53812770Y-82415690D01*
X53675635Y-82666833D01*
X53575628Y-82934962D01*
X53514804Y-83214566D01*
X53494390Y-83499998D01*
X50500500Y-83499998D01*
X50500500Y-78452494D01*
X71435202Y-78452494D01*
X71435202Y-78452505D01*
X71454361Y-78683718D01*
X71511317Y-78908635D01*
X71604516Y-79121109D01*
X71688811Y-79250133D01*
X72440000Y-78498945D01*
X72440000Y-78505161D01*
X72467259Y-78606894D01*
X72519920Y-78698106D01*
X72594394Y-78772580D01*
X72685606Y-78825241D01*
X72787339Y-78852500D01*
X72793553Y-78852500D01*
X72041201Y-79604851D01*
X72071649Y-79628550D01*
X72275697Y-79738976D01*
X72275706Y-79738979D01*
X72495139Y-79814311D01*
X72723993Y-79852500D01*
X72956007Y-79852500D01*
X73184860Y-79814311D01*
X73404293Y-79738979D01*
X73404301Y-79738976D01*
X73608355Y-79628547D01*
X73638797Y-79604851D01*
X73638798Y-79604850D01*
X72886448Y-78852500D01*
X72892661Y-78852500D01*
X72994394Y-78825241D01*
X73085606Y-78772580D01*
X73160080Y-78698106D01*
X73212741Y-78606894D01*
X73240000Y-78505161D01*
X73240000Y-78498948D01*
X73991186Y-79250134D01*
X74005892Y-79227626D01*
X74059038Y-79182269D01*
X74128269Y-79172845D01*
X74191605Y-79202347D01*
X74213510Y-79227626D01*
X74271016Y-79315647D01*
X74271019Y-79315651D01*
X74271021Y-79315653D01*
X74428216Y-79486413D01*
X74428219Y-79486415D01*
X74428222Y-79486418D01*
X74611365Y-79628964D01*
X74611371Y-79628968D01*
X74611374Y-79628970D01*
X74761185Y-79710044D01*
X74814652Y-79738979D01*
X74815497Y-79739436D01*
X74929487Y-79778568D01*
X75035015Y-79814797D01*
X75035017Y-79814797D01*
X75035019Y-79814798D01*
X75263951Y-79853000D01*
X75263952Y-79853000D01*
X75496048Y-79853000D01*
X75496049Y-79853000D01*
X75724981Y-79814798D01*
X75944503Y-79739436D01*
X76148626Y-79628970D01*
X76149170Y-79628547D01*
X76291212Y-79517991D01*
X76331784Y-79486413D01*
X76488979Y-79315653D01*
X76546191Y-79228082D01*
X76599337Y-79182726D01*
X76668568Y-79173302D01*
X76731904Y-79202804D01*
X76753809Y-79228083D01*
X76811016Y-79315647D01*
X76811019Y-79315651D01*
X76811021Y-79315653D01*
X76968216Y-79486413D01*
X76968219Y-79486415D01*
X76968222Y-79486418D01*
X77151365Y-79628964D01*
X77151371Y-79628968D01*
X77151374Y-79628970D01*
X77301185Y-79710044D01*
X77354652Y-79738979D01*
X77355497Y-79739436D01*
X77469487Y-79778568D01*
X77575015Y-79814797D01*
X77575017Y-79814797D01*
X77575019Y-79814798D01*
X77803951Y-79853000D01*
X77803952Y-79853000D01*
X78036048Y-79853000D01*
X78036049Y-79853000D01*
X78264981Y-79814798D01*
X78484503Y-79739436D01*
X78688626Y-79628970D01*
X78689170Y-79628547D01*
X78831212Y-79517991D01*
X78871784Y-79486413D01*
X79028979Y-79315653D01*
X79086191Y-79228082D01*
X79139337Y-79182726D01*
X79208568Y-79173302D01*
X79271904Y-79202804D01*
X79293809Y-79228083D01*
X79351016Y-79315647D01*
X79351019Y-79315651D01*
X79351021Y-79315653D01*
X79508216Y-79486413D01*
X79508219Y-79486415D01*
X79508222Y-79486418D01*
X79691365Y-79628964D01*
X79691371Y-79628968D01*
X79691374Y-79628970D01*
X79841185Y-79710044D01*
X79894652Y-79738979D01*
X79895497Y-79739436D01*
X80009487Y-79778568D01*
X80115015Y-79814797D01*
X80115017Y-79814797D01*
X80115019Y-79814798D01*
X80343951Y-79853000D01*
X80343952Y-79853000D01*
X80576048Y-79853000D01*
X80576049Y-79853000D01*
X80804981Y-79814798D01*
X81024503Y-79739436D01*
X81228626Y-79628970D01*
X81229170Y-79628547D01*
X81371212Y-79517991D01*
X81411784Y-79486413D01*
X81420130Y-79477346D01*
X81480010Y-79441354D01*
X81549849Y-79443449D01*
X81607468Y-79482969D01*
X81627544Y-79517991D01*
X81656203Y-79594830D01*
X81656206Y-79594835D01*
X81742452Y-79710044D01*
X81742455Y-79710047D01*
X81857664Y-79796293D01*
X81857671Y-79796297D01*
X81992517Y-79846591D01*
X81992516Y-79846591D01*
X81999444Y-79847335D01*
X82052127Y-79853000D01*
X83947872Y-79852999D01*
X84007483Y-79846591D01*
X84142331Y-79796296D01*
X84257546Y-79710046D01*
X84343796Y-79594831D01*
X84394091Y-79459983D01*
X84400500Y-79400373D01*
X84400499Y-77504628D01*
X84394091Y-77445017D01*
X84384233Y-77418587D01*
X84343797Y-77310171D01*
X84343793Y-77310164D01*
X84257547Y-77194955D01*
X84257544Y-77194952D01*
X84142335Y-77108706D01*
X84142328Y-77108702D01*
X84007482Y-77058408D01*
X84007483Y-77058408D01*
X83947883Y-77052001D01*
X83947881Y-77052000D01*
X83947873Y-77052000D01*
X83947864Y-77052000D01*
X82052129Y-77052000D01*
X82052123Y-77052001D01*
X81992516Y-77058408D01*
X81857671Y-77108702D01*
X81857664Y-77108706D01*
X81742455Y-77194952D01*
X81742452Y-77194955D01*
X81656206Y-77310164D01*
X81656203Y-77310170D01*
X81627544Y-77387008D01*
X81585672Y-77442941D01*
X81520208Y-77467358D01*
X81451935Y-77452506D01*
X81420135Y-77427658D01*
X81411784Y-77418587D01*
X81411778Y-77418582D01*
X81411777Y-77418581D01*
X81228634Y-77276035D01*
X81228628Y-77276031D01*
X81024504Y-77165564D01*
X81024495Y-77165561D01*
X80804984Y-77090202D01*
X80614450Y-77058408D01*
X80576049Y-77052000D01*
X80343951Y-77052000D01*
X80305550Y-77058408D01*
X80115015Y-77090202D01*
X79895504Y-77165561D01*
X79895495Y-77165564D01*
X79691371Y-77276031D01*
X79691365Y-77276035D01*
X79508222Y-77418581D01*
X79508219Y-77418584D01*
X79508216Y-77418586D01*
X79508216Y-77418587D01*
X79463319Y-77467358D01*
X79351016Y-77589352D01*
X79293809Y-77676916D01*
X79240662Y-77722273D01*
X79171431Y-77731697D01*
X79108095Y-77702195D01*
X79086191Y-77676916D01*
X79028983Y-77589352D01*
X79028980Y-77589349D01*
X79028979Y-77589347D01*
X78871784Y-77418587D01*
X78871779Y-77418583D01*
X78871777Y-77418581D01*
X78688634Y-77276035D01*
X78688628Y-77276031D01*
X78484504Y-77165564D01*
X78484495Y-77165561D01*
X78264984Y-77090202D01*
X78074450Y-77058408D01*
X78036049Y-77052000D01*
X77803951Y-77052000D01*
X77765550Y-77058408D01*
X77575015Y-77090202D01*
X77355504Y-77165561D01*
X77355495Y-77165564D01*
X77151371Y-77276031D01*
X77151365Y-77276035D01*
X76968222Y-77418581D01*
X76968219Y-77418584D01*
X76968216Y-77418586D01*
X76968216Y-77418587D01*
X76923319Y-77467358D01*
X76811016Y-77589352D01*
X76753809Y-77676916D01*
X76700662Y-77722273D01*
X76631431Y-77731697D01*
X76568095Y-77702195D01*
X76546191Y-77676916D01*
X76488983Y-77589352D01*
X76488980Y-77589349D01*
X76488979Y-77589347D01*
X76331784Y-77418587D01*
X76331779Y-77418583D01*
X76331777Y-77418581D01*
X76148634Y-77276035D01*
X76148628Y-77276031D01*
X75944504Y-77165564D01*
X75944495Y-77165561D01*
X75724984Y-77090202D01*
X75534450Y-77058408D01*
X75496049Y-77052000D01*
X75263951Y-77052000D01*
X75225550Y-77058408D01*
X75035015Y-77090202D01*
X74815504Y-77165561D01*
X74815495Y-77165564D01*
X74611371Y-77276031D01*
X74611365Y-77276035D01*
X74428222Y-77418581D01*
X74428219Y-77418584D01*
X74428216Y-77418586D01*
X74428216Y-77418587D01*
X74383320Y-77467358D01*
X74271015Y-77589354D01*
X74213509Y-77677374D01*
X74160363Y-77722730D01*
X74091132Y-77732154D01*
X74027796Y-77702652D01*
X74005892Y-77677373D01*
X73991186Y-77654864D01*
X73240000Y-78406051D01*
X73240000Y-78399839D01*
X73212741Y-78298106D01*
X73160080Y-78206894D01*
X73085606Y-78132420D01*
X72994394Y-78079759D01*
X72892661Y-78052500D01*
X72886447Y-78052500D01*
X73638797Y-77300147D01*
X73638797Y-77300145D01*
X73608360Y-77276455D01*
X73608354Y-77276451D01*
X73404302Y-77166023D01*
X73404293Y-77166020D01*
X73184860Y-77090688D01*
X72956007Y-77052500D01*
X72723993Y-77052500D01*
X72495139Y-77090688D01*
X72275706Y-77166020D01*
X72275697Y-77166023D01*
X72071650Y-77276449D01*
X72041200Y-77300147D01*
X72793554Y-78052500D01*
X72787339Y-78052500D01*
X72685606Y-78079759D01*
X72594394Y-78132420D01*
X72519920Y-78206894D01*
X72467259Y-78298106D01*
X72440000Y-78399839D01*
X72440000Y-78406053D01*
X71688812Y-77654865D01*
X71604516Y-77783891D01*
X71604514Y-77783895D01*
X71511317Y-77996364D01*
X71454361Y-78221281D01*
X71435202Y-78452494D01*
X50500500Y-78452494D01*
X50500500Y-74372494D01*
X88494357Y-74372494D01*
X88494357Y-74372505D01*
X88514890Y-74620312D01*
X88514892Y-74620324D01*
X88575936Y-74861381D01*
X88675826Y-75089106D01*
X88811833Y-75297282D01*
X88811836Y-75297285D01*
X88980256Y-75480238D01*
X89176491Y-75632974D01*
X89395190Y-75751328D01*
X89630386Y-75832071D01*
X89875665Y-75873000D01*
X90124335Y-75873000D01*
X90369614Y-75832071D01*
X90604810Y-75751328D01*
X90823509Y-75632974D01*
X91019744Y-75480238D01*
X91188164Y-75297285D01*
X91324173Y-75089107D01*
X91424063Y-74861381D01*
X91485108Y-74620321D01*
X91505643Y-74372500D01*
X91505643Y-74372494D01*
X93494357Y-74372494D01*
X93494357Y-74372505D01*
X93514890Y-74620312D01*
X93514892Y-74620324D01*
X93575936Y-74861381D01*
X93675826Y-75089106D01*
X93811833Y-75297282D01*
X93811836Y-75297285D01*
X93980256Y-75480238D01*
X94176491Y-75632974D01*
X94395190Y-75751328D01*
X94630386Y-75832071D01*
X94875665Y-75873000D01*
X95124335Y-75873000D01*
X95369614Y-75832071D01*
X95604810Y-75751328D01*
X95823509Y-75632974D01*
X96019744Y-75480238D01*
X96188164Y-75297285D01*
X96324173Y-75089107D01*
X96424063Y-74861381D01*
X96485108Y-74620321D01*
X96505643Y-74372500D01*
X96485108Y-74124679D01*
X96424063Y-73883619D01*
X96324173Y-73655893D01*
X96188166Y-73447717D01*
X96166557Y-73424244D01*
X96019744Y-73264762D01*
X95823509Y-73112026D01*
X95823507Y-73112025D01*
X95823506Y-73112024D01*
X95604811Y-72993672D01*
X95604802Y-72993669D01*
X95369616Y-72912929D01*
X95124335Y-72872000D01*
X94875665Y-72872000D01*
X94630383Y-72912929D01*
X94395197Y-72993669D01*
X94395188Y-72993672D01*
X94176493Y-73112024D01*
X93980257Y-73264761D01*
X93811833Y-73447717D01*
X93675826Y-73655893D01*
X93575936Y-73883618D01*
X93514892Y-74124675D01*
X93514890Y-74124687D01*
X93494357Y-74372494D01*
X91505643Y-74372494D01*
X91485108Y-74124679D01*
X91424063Y-73883619D01*
X91324173Y-73655893D01*
X91188166Y-73447717D01*
X91166557Y-73424244D01*
X91019744Y-73264762D01*
X90823509Y-73112026D01*
X90823507Y-73112025D01*
X90823506Y-73112024D01*
X90604811Y-72993672D01*
X90604802Y-72993669D01*
X90369616Y-72912929D01*
X90124335Y-72872000D01*
X89875665Y-72872000D01*
X89630383Y-72912929D01*
X89395197Y-72993669D01*
X89395188Y-72993672D01*
X89176493Y-73112024D01*
X88980257Y-73264761D01*
X88811833Y-73447717D01*
X88675826Y-73655893D01*
X88575936Y-73883618D01*
X88514892Y-74124675D01*
X88514890Y-74124687D01*
X88494357Y-74372494D01*
X50500500Y-74372494D01*
X50500500Y-70999998D01*
X53494891Y-70999998D01*
X53494891Y-71000001D01*
X53515300Y-71285362D01*
X53576109Y-71564895D01*
X53676091Y-71832958D01*
X53813191Y-72084038D01*
X53813196Y-72084046D01*
X53919882Y-72226562D01*
X53919883Y-72226563D01*
X54822421Y-71324024D01*
X54835359Y-71355258D01*
X54917437Y-71478097D01*
X55021903Y-71582563D01*
X55144742Y-71664641D01*
X55175974Y-71677577D01*
X54273435Y-72580115D01*
X54273436Y-72580116D01*
X54415953Y-72686803D01*
X54415961Y-72686808D01*
X54667042Y-72823908D01*
X54667041Y-72823908D01*
X54935104Y-72923890D01*
X55214637Y-72984699D01*
X55499999Y-73005109D01*
X55500001Y-73005109D01*
X55785362Y-72984699D01*
X56064895Y-72923890D01*
X56332958Y-72823908D01*
X56584038Y-72686808D01*
X56584039Y-72686807D01*
X56726563Y-72580115D01*
X55824025Y-71677578D01*
X55855258Y-71664641D01*
X55978097Y-71582563D01*
X56082563Y-71478097D01*
X56164641Y-71355258D01*
X56177578Y-71324025D01*
X57080115Y-72226563D01*
X57186807Y-72084039D01*
X57186808Y-72084038D01*
X57323908Y-71832958D01*
X57423890Y-71564895D01*
X57484699Y-71285362D01*
X57505109Y-71000001D01*
X57505109Y-70999998D01*
X57484699Y-70714637D01*
X57423890Y-70435104D01*
X57323908Y-70167041D01*
X57186808Y-69915961D01*
X57186803Y-69915953D01*
X57174860Y-69899999D01*
X63721127Y-69899999D01*
X63721128Y-69900000D01*
X64684314Y-69900000D01*
X64679920Y-69904394D01*
X64627259Y-69995606D01*
X64600000Y-70097339D01*
X64600000Y-70202661D01*
X64627259Y-70304394D01*
X64679920Y-70395606D01*
X64684314Y-70400000D01*
X63721128Y-70400000D01*
X63773730Y-70596317D01*
X63773734Y-70596326D01*
X63869865Y-70802482D01*
X64000342Y-70988820D01*
X64161179Y-71149657D01*
X64347517Y-71280134D01*
X64553673Y-71376265D01*
X64553682Y-71376269D01*
X64749999Y-71428872D01*
X64750000Y-71428871D01*
X64750000Y-70465686D01*
X64754394Y-70470080D01*
X64845606Y-70522741D01*
X64947339Y-70550000D01*
X65052661Y-70550000D01*
X65154394Y-70522741D01*
X65245606Y-70470080D01*
X65250000Y-70465686D01*
X65250000Y-71428872D01*
X65446317Y-71376269D01*
X65446326Y-71376265D01*
X65652482Y-71280134D01*
X65838820Y-71149657D01*
X65999657Y-70988820D01*
X66130134Y-70802482D01*
X66226265Y-70596326D01*
X66226269Y-70596317D01*
X66278872Y-70400000D01*
X65315686Y-70400000D01*
X65320080Y-70395606D01*
X65372741Y-70304394D01*
X65400000Y-70202661D01*
X65400000Y-70097339D01*
X65372741Y-69995606D01*
X65320080Y-69904394D01*
X65315686Y-69900000D01*
X66278872Y-69900000D01*
X66278872Y-69899999D01*
X66226269Y-69703682D01*
X66226265Y-69703673D01*
X66130134Y-69497517D01*
X66042594Y-69372498D01*
X91194532Y-69372498D01*
X91194532Y-69372501D01*
X91214364Y-69599186D01*
X91214366Y-69599197D01*
X91273258Y-69818988D01*
X91273261Y-69818997D01*
X91369431Y-70025232D01*
X91369432Y-70025234D01*
X91499954Y-70211641D01*
X91660858Y-70372545D01*
X91660861Y-70372547D01*
X91847266Y-70503068D01*
X92053504Y-70599239D01*
X92273308Y-70658135D01*
X92435230Y-70672301D01*
X92499998Y-70677968D01*
X92500000Y-70677968D01*
X92500002Y-70677968D01*
X92556673Y-70673009D01*
X92726692Y-70658135D01*
X92946496Y-70599239D01*
X93152734Y-70503068D01*
X93339139Y-70372547D01*
X93500047Y-70211639D01*
X93630568Y-70025234D01*
X93726739Y-69818996D01*
X93785635Y-69599192D01*
X93805468Y-69372500D01*
X93785635Y-69145808D01*
X93726739Y-68926004D01*
X93630568Y-68719766D01*
X93500047Y-68533361D01*
X93500045Y-68533358D01*
X93339141Y-68372454D01*
X93152734Y-68241932D01*
X93152732Y-68241931D01*
X92946497Y-68145761D01*
X92946488Y-68145758D01*
X92726697Y-68086866D01*
X92726693Y-68086865D01*
X92726692Y-68086865D01*
X92726691Y-68086864D01*
X92726686Y-68086864D01*
X92500002Y-68067032D01*
X92499998Y-68067032D01*
X92273313Y-68086864D01*
X92273302Y-68086866D01*
X92053511Y-68145758D01*
X92053502Y-68145761D01*
X91847267Y-68241931D01*
X91847265Y-68241932D01*
X91660858Y-68372454D01*
X91499954Y-68533358D01*
X91369432Y-68719765D01*
X91369431Y-68719767D01*
X91273261Y-68926002D01*
X91273258Y-68926011D01*
X91214366Y-69145802D01*
X91214364Y-69145813D01*
X91194532Y-69372498D01*
X66042594Y-69372498D01*
X65999657Y-69311179D01*
X65838820Y-69150342D01*
X65652482Y-69019865D01*
X65446328Y-68923734D01*
X65250000Y-68871127D01*
X65250000Y-69834314D01*
X65245606Y-69829920D01*
X65154394Y-69777259D01*
X65052661Y-69750000D01*
X64947339Y-69750000D01*
X64845606Y-69777259D01*
X64754394Y-69829920D01*
X64750000Y-69834314D01*
X64750000Y-68871127D01*
X64553671Y-68923734D01*
X64347517Y-69019865D01*
X64161179Y-69150342D01*
X64000342Y-69311179D01*
X63869865Y-69497517D01*
X63773734Y-69703673D01*
X63773730Y-69703682D01*
X63721127Y-69899999D01*
X57174860Y-69899999D01*
X57080116Y-69773436D01*
X57080115Y-69773435D01*
X56177577Y-70675973D01*
X56164641Y-70644742D01*
X56082563Y-70521903D01*
X55978097Y-70417437D01*
X55855258Y-70335359D01*
X55824024Y-70322421D01*
X56726563Y-69419883D01*
X56726562Y-69419882D01*
X56584046Y-69313196D01*
X56584038Y-69313191D01*
X56332957Y-69176091D01*
X56332958Y-69176091D01*
X56064895Y-69076109D01*
X55785362Y-69015300D01*
X55500001Y-68994891D01*
X55499999Y-68994891D01*
X55214637Y-69015300D01*
X54935104Y-69076109D01*
X54667041Y-69176091D01*
X54415961Y-69313191D01*
X54415953Y-69313196D01*
X54273435Y-69419882D01*
X55175975Y-70322421D01*
X55144742Y-70335359D01*
X55021903Y-70417437D01*
X54917437Y-70521903D01*
X54835359Y-70644742D01*
X54822421Y-70675974D01*
X53919882Y-69773435D01*
X53813196Y-69915953D01*
X53813191Y-69915961D01*
X53676091Y-70167041D01*
X53576109Y-70435104D01*
X53515300Y-70714637D01*
X53494891Y-70999998D01*
X50500500Y-70999998D01*
X50500500Y-65256880D01*
X52346671Y-65256880D01*
X52462823Y-65328798D01*
X52462824Y-65328799D01*
X52670195Y-65409134D01*
X52888807Y-65450000D01*
X53111193Y-65450000D01*
X53329804Y-65409134D01*
X53537177Y-65328798D01*
X53537178Y-65328797D01*
X53653327Y-65256880D01*
X53000001Y-64603554D01*
X53000000Y-64603554D01*
X52346671Y-65256880D01*
X50500500Y-65256880D01*
X50500500Y-64249999D01*
X51794859Y-64249999D01*
X51794859Y-64250000D01*
X51815378Y-64471439D01*
X51876240Y-64685350D01*
X51975364Y-64884419D01*
X51975366Y-64884421D01*
X51991138Y-64905306D01*
X52646446Y-64250000D01*
X52646446Y-64249999D01*
X52600369Y-64203922D01*
X52650000Y-64203922D01*
X52650000Y-64296078D01*
X52673852Y-64385095D01*
X52719930Y-64464905D01*
X52785095Y-64530070D01*
X52864905Y-64576148D01*
X52953922Y-64600000D01*
X53046078Y-64600000D01*
X53135095Y-64576148D01*
X53214905Y-64530070D01*
X53280070Y-64464905D01*
X53326148Y-64385095D01*
X53350000Y-64296078D01*
X53350000Y-64249999D01*
X53353554Y-64249999D01*
X53353554Y-64250000D01*
X54008860Y-64905306D01*
X54008861Y-64905306D01*
X54024631Y-64884425D01*
X54024632Y-64884422D01*
X54110668Y-64711641D01*
X57419311Y-64711641D01*
X57507585Y-64766298D01*
X57697678Y-64839940D01*
X57898072Y-64877401D01*
X58101928Y-64877401D01*
X58302322Y-64839940D01*
X58492412Y-64766300D01*
X58492416Y-64766298D01*
X58580686Y-64711642D01*
X58580686Y-64711641D01*
X58000001Y-64130954D01*
X58000000Y-64130954D01*
X57419311Y-64711641D01*
X54110668Y-64711641D01*
X54123759Y-64685350D01*
X54184621Y-64471439D01*
X54205141Y-64250000D01*
X54205141Y-64249999D01*
X54184621Y-64028560D01*
X54123759Y-63814649D01*
X54105211Y-63777400D01*
X56895287Y-63777400D01*
X56895287Y-63777401D01*
X56914096Y-63980390D01*
X56914097Y-63980393D01*
X56969883Y-64176464D01*
X56969886Y-64176470D01*
X57060751Y-64358952D01*
X57062533Y-64361312D01*
X57062534Y-64361313D01*
X57705145Y-63718701D01*
X57700000Y-63737905D01*
X57700000Y-63816897D01*
X57720444Y-63893197D01*
X57759940Y-63961606D01*
X57815795Y-64017461D01*
X57884204Y-64056957D01*
X57960504Y-64077401D01*
X58039496Y-64077401D01*
X58115796Y-64056957D01*
X58184205Y-64017461D01*
X58240060Y-63961606D01*
X58279556Y-63893197D01*
X58300000Y-63816897D01*
X58300000Y-63737905D01*
X58294854Y-63718702D01*
X58937465Y-64361313D01*
X58939247Y-64358954D01*
X58939248Y-64358952D01*
X59030113Y-64176470D01*
X59030116Y-64176464D01*
X59085902Y-63980393D01*
X59085903Y-63980390D01*
X59104713Y-63777401D01*
X59104713Y-63777400D01*
X59085903Y-63574411D01*
X59085902Y-63574409D01*
X59030115Y-63378337D01*
X59030110Y-63378326D01*
X58992311Y-63302414D01*
X58980050Y-63233629D01*
X59004045Y-63172832D01*
X59043796Y-63119732D01*
X59045228Y-63115894D01*
X59065679Y-63061060D01*
X59094091Y-62984884D01*
X59100500Y-62925274D01*
X59100499Y-61629529D01*
X59094091Y-61569918D01*
X59069877Y-61504998D01*
X62194532Y-61504998D01*
X62194532Y-61505001D01*
X62214364Y-61731686D01*
X62214366Y-61731697D01*
X62273258Y-61951488D01*
X62273261Y-61951497D01*
X62369431Y-62157732D01*
X62369432Y-62157734D01*
X62499954Y-62344141D01*
X62660858Y-62505045D01*
X62660861Y-62505047D01*
X62847266Y-62635568D01*
X62905865Y-62662893D01*
X62958305Y-62709065D01*
X62977457Y-62776258D01*
X62957242Y-62843139D01*
X62905867Y-62887657D01*
X62847513Y-62914868D01*
X62847512Y-62914868D01*
X62774526Y-62965973D01*
X62774526Y-62965974D01*
X63453553Y-63645000D01*
X63447339Y-63645000D01*
X63345606Y-63672259D01*
X63254394Y-63724920D01*
X63179920Y-63799394D01*
X63127259Y-63890606D01*
X63100000Y-63992339D01*
X63100000Y-63998552D01*
X62420974Y-63319526D01*
X62420973Y-63319526D01*
X62369868Y-63392512D01*
X62369866Y-63392516D01*
X62273734Y-63598673D01*
X62273730Y-63598682D01*
X62214860Y-63818389D01*
X62214858Y-63818400D01*
X62195034Y-64044997D01*
X62195034Y-64045002D01*
X62214858Y-64271599D01*
X62214860Y-64271610D01*
X62273730Y-64491317D01*
X62273735Y-64491331D01*
X62369863Y-64697478D01*
X62420974Y-64770472D01*
X63100000Y-64091446D01*
X63100000Y-64097661D01*
X63127259Y-64199394D01*
X63179920Y-64290606D01*
X63254394Y-64365080D01*
X63345606Y-64417741D01*
X63447339Y-64445000D01*
X63453553Y-64445000D01*
X62774526Y-65124025D01*
X62847513Y-65175132D01*
X62847521Y-65175136D01*
X63053668Y-65271264D01*
X63053682Y-65271269D01*
X63273389Y-65330139D01*
X63273400Y-65330141D01*
X63499998Y-65349966D01*
X63500002Y-65349966D01*
X63726599Y-65330141D01*
X63726610Y-65330139D01*
X63946317Y-65271269D01*
X63946331Y-65271264D01*
X64152478Y-65175136D01*
X64225471Y-65124024D01*
X63546447Y-64445000D01*
X63552661Y-64445000D01*
X63654394Y-64417741D01*
X63745606Y-64365080D01*
X63820080Y-64290606D01*
X63872741Y-64199394D01*
X63900000Y-64097661D01*
X63900000Y-64091447D01*
X64579024Y-64770471D01*
X64630136Y-64697478D01*
X64726264Y-64491331D01*
X64726269Y-64491317D01*
X64785139Y-64271610D01*
X64785141Y-64271599D01*
X64804966Y-64045002D01*
X64804966Y-64044997D01*
X64785141Y-63818400D01*
X64785139Y-63818389D01*
X64726269Y-63598682D01*
X64726264Y-63598668D01*
X64630136Y-63392521D01*
X64630132Y-63392513D01*
X64579025Y-63319526D01*
X63900000Y-63998551D01*
X63900000Y-63992339D01*
X63872741Y-63890606D01*
X63820080Y-63799394D01*
X63745606Y-63724920D01*
X63654394Y-63672259D01*
X63552661Y-63645000D01*
X63546445Y-63645000D01*
X64225472Y-62965974D01*
X64152480Y-62914864D01*
X64094134Y-62887657D01*
X64041695Y-62841484D01*
X64022543Y-62774291D01*
X64042759Y-62707410D01*
X64094134Y-62662893D01*
X64152734Y-62635568D01*
X64339139Y-62505047D01*
X64500047Y-62344139D01*
X64630568Y-62157734D01*
X64726739Y-61951496D01*
X64785635Y-61731692D01*
X64805468Y-61505000D01*
X64785635Y-61278308D01*
X64726739Y-61058504D01*
X64630568Y-60852266D01*
X64500047Y-60665861D01*
X64500045Y-60665858D01*
X64339141Y-60504954D01*
X64152734Y-60374432D01*
X64152732Y-60374431D01*
X63946497Y-60278261D01*
X63946488Y-60278258D01*
X63726697Y-60219366D01*
X63726693Y-60219365D01*
X63726692Y-60219365D01*
X63726691Y-60219364D01*
X63726686Y-60219364D01*
X63500002Y-60199532D01*
X63499998Y-60199532D01*
X63273313Y-60219364D01*
X63273302Y-60219366D01*
X63053511Y-60278258D01*
X63053502Y-60278261D01*
X62847267Y-60374431D01*
X62847265Y-60374432D01*
X62660858Y-60504954D01*
X62499954Y-60665858D01*
X62369432Y-60852265D01*
X62369431Y-60852267D01*
X62273261Y-61058502D01*
X62273258Y-61058511D01*
X62214366Y-61278302D01*
X62214364Y-61278313D01*
X62194532Y-61504998D01*
X59069877Y-61504998D01*
X59043797Y-61435072D01*
X59043793Y-61435065D01*
X58957547Y-61319856D01*
X58957544Y-61319853D01*
X58842335Y-61233607D01*
X58842328Y-61233603D01*
X58707482Y-61183309D01*
X58707483Y-61183309D01*
X58647883Y-61176902D01*
X58647881Y-61176901D01*
X58647873Y-61176901D01*
X58647864Y-61176901D01*
X57352129Y-61176901D01*
X57352123Y-61176902D01*
X57292516Y-61183309D01*
X57157671Y-61233603D01*
X57157664Y-61233607D01*
X57042455Y-61319853D01*
X57042452Y-61319856D01*
X56956206Y-61435065D01*
X56956202Y-61435072D01*
X56905908Y-61569918D01*
X56899501Y-61629517D01*
X56899501Y-61629524D01*
X56899500Y-61629536D01*
X56899500Y-62925271D01*
X56899501Y-62925277D01*
X56905908Y-62984884D01*
X56956202Y-63119729D01*
X56956206Y-63119736D01*
X56995954Y-63172832D01*
X57020372Y-63238296D01*
X57007688Y-63302414D01*
X56969888Y-63378326D01*
X56969883Y-63378337D01*
X56914097Y-63574408D01*
X56914096Y-63574411D01*
X56895287Y-63777400D01*
X54105211Y-63777400D01*
X54024633Y-63615577D01*
X54024631Y-63615574D01*
X54008860Y-63594691D01*
X53353554Y-64249999D01*
X53350000Y-64249999D01*
X53350000Y-64203922D01*
X53326148Y-64114905D01*
X53280070Y-64035095D01*
X53214905Y-63969930D01*
X53135095Y-63923852D01*
X53046078Y-63900000D01*
X52953922Y-63900000D01*
X52864905Y-63923852D01*
X52785095Y-63969930D01*
X52719930Y-64035095D01*
X52673852Y-64114905D01*
X52650000Y-64203922D01*
X52600369Y-64203922D01*
X51991138Y-63594691D01*
X51991137Y-63594691D01*
X51975369Y-63615571D01*
X51876240Y-63814649D01*
X51815378Y-64028560D01*
X51794859Y-64249999D01*
X50500500Y-64249999D01*
X50500500Y-61749999D01*
X51794357Y-61749999D01*
X51794357Y-61750000D01*
X51814884Y-61971535D01*
X51814885Y-61971537D01*
X51875769Y-62185523D01*
X51875775Y-62185538D01*
X51974938Y-62384683D01*
X51974943Y-62384691D01*
X52109020Y-62562238D01*
X52189459Y-62635567D01*
X52270082Y-62709065D01*
X52273437Y-62712123D01*
X52273439Y-62712125D01*
X52462595Y-62829245D01*
X52462597Y-62829246D01*
X52462599Y-62829247D01*
X52605587Y-62884641D01*
X52660988Y-62927213D01*
X52684579Y-62992979D01*
X52668868Y-63061060D01*
X52618844Y-63109839D01*
X52605587Y-63115893D01*
X52462833Y-63171196D01*
X52462818Y-63171204D01*
X52346672Y-63243117D01*
X52346671Y-63243118D01*
X53000000Y-63896446D01*
X53000001Y-63896446D01*
X53653327Y-63243118D01*
X53653326Y-63243117D01*
X53537181Y-63171203D01*
X53537175Y-63171200D01*
X53394412Y-63115894D01*
X53339010Y-63073321D01*
X53315420Y-63007554D01*
X53331131Y-62939474D01*
X53381155Y-62890695D01*
X53394398Y-62884646D01*
X53537401Y-62829247D01*
X53726562Y-62712124D01*
X53890981Y-62562236D01*
X54025058Y-62384689D01*
X54124229Y-62185528D01*
X54185115Y-61971536D01*
X54205643Y-61750000D01*
X54185115Y-61528464D01*
X54124229Y-61314472D01*
X54106224Y-61278313D01*
X54025061Y-61115316D01*
X54025056Y-61115308D01*
X53890979Y-60937761D01*
X53726562Y-60787876D01*
X53726560Y-60787874D01*
X53537404Y-60670754D01*
X53537398Y-60670752D01*
X53524773Y-60665861D01*
X53329940Y-60590382D01*
X53111243Y-60549500D01*
X52888757Y-60549500D01*
X52670060Y-60590382D01*
X52538864Y-60641207D01*
X52462601Y-60670752D01*
X52462595Y-60670754D01*
X52273439Y-60787874D01*
X52273437Y-60787876D01*
X52109020Y-60937761D01*
X51974943Y-61115308D01*
X51974938Y-61115316D01*
X51875775Y-61314461D01*
X51875769Y-61314476D01*
X51814885Y-61528462D01*
X51814884Y-61528464D01*
X51794357Y-61749999D01*
X50500500Y-61749999D01*
X50500500Y-57140000D01*
X51704723Y-57140000D01*
X51720928Y-57325234D01*
X51723793Y-57357975D01*
X51723793Y-57357979D01*
X51780422Y-57569322D01*
X51780424Y-57569326D01*
X51780425Y-57569330D01*
X51802382Y-57616416D01*
X51872897Y-57767638D01*
X51897705Y-57803067D01*
X51998402Y-57946877D01*
X52153123Y-58101598D01*
X52332361Y-58227102D01*
X52530670Y-58319575D01*
X52742023Y-58376207D01*
X52924926Y-58392208D01*
X52959998Y-58395277D01*
X52960000Y-58395277D01*
X52960002Y-58395277D01*
X52988254Y-58392805D01*
X53177977Y-58376207D01*
X53389330Y-58319575D01*
X53587639Y-58227102D01*
X53766877Y-58101598D01*
X53921598Y-57946877D01*
X54047102Y-57767639D01*
X54117618Y-57616414D01*
X54163790Y-57563977D01*
X54230984Y-57544825D01*
X54297865Y-57565041D01*
X54342381Y-57616414D01*
X54412898Y-57767639D01*
X54538402Y-57946877D01*
X54693123Y-58101598D01*
X54872361Y-58227102D01*
X55070670Y-58319575D01*
X55282023Y-58376207D01*
X55464926Y-58392208D01*
X55499998Y-58395277D01*
X55500000Y-58395277D01*
X55500002Y-58395277D01*
X55528254Y-58392805D01*
X55717977Y-58376207D01*
X55929330Y-58319575D01*
X56127639Y-58227102D01*
X56306877Y-58101598D01*
X56461598Y-57946877D01*
X56563928Y-57800734D01*
X56618502Y-57757112D01*
X56688000Y-57749918D01*
X56750355Y-57781441D01*
X56785769Y-57841670D01*
X56789500Y-57871858D01*
X56789500Y-57937869D01*
X56789501Y-57937876D01*
X56795908Y-57997483D01*
X56846202Y-58132328D01*
X56846206Y-58132335D01*
X56932452Y-58247544D01*
X56932455Y-58247547D01*
X57047664Y-58333793D01*
X57047671Y-58333797D01*
X57182517Y-58384091D01*
X57182516Y-58384091D01*
X57189444Y-58384835D01*
X57242127Y-58390500D01*
X58837872Y-58390499D01*
X58897483Y-58384091D01*
X59032331Y-58333796D01*
X59147546Y-58247546D01*
X59233796Y-58132331D01*
X59284091Y-57997483D01*
X59290500Y-57937873D01*
X59290499Y-56342128D01*
X59284091Y-56282517D01*
X59265136Y-56231697D01*
X59233797Y-56147671D01*
X59233793Y-56147664D01*
X59147547Y-56032455D01*
X59147544Y-56032452D01*
X59110870Y-56004998D01*
X62194532Y-56004998D01*
X62194532Y-56005001D01*
X62214364Y-56231686D01*
X62214366Y-56231697D01*
X62273258Y-56451488D01*
X62273261Y-56451497D01*
X62369431Y-56657732D01*
X62369432Y-56657734D01*
X62499954Y-56844141D01*
X62660858Y-57005045D01*
X62660861Y-57005047D01*
X62847266Y-57135568D01*
X62905275Y-57162618D01*
X62957714Y-57208791D01*
X62976866Y-57275984D01*
X62956650Y-57342865D01*
X62905275Y-57387382D01*
X62847267Y-57414431D01*
X62847265Y-57414432D01*
X62660858Y-57544954D01*
X62499954Y-57705858D01*
X62369432Y-57892265D01*
X62369431Y-57892267D01*
X62273261Y-58098502D01*
X62273258Y-58098511D01*
X62214366Y-58318302D01*
X62214364Y-58318313D01*
X62194532Y-58544998D01*
X62194532Y-58545001D01*
X62214364Y-58771686D01*
X62214366Y-58771697D01*
X62273258Y-58991488D01*
X62273261Y-58991497D01*
X62369431Y-59197732D01*
X62369432Y-59197734D01*
X62499954Y-59384141D01*
X62660858Y-59545045D01*
X62660861Y-59545047D01*
X62847266Y-59675568D01*
X63053504Y-59771739D01*
X63273308Y-59830635D01*
X63435230Y-59844801D01*
X63499998Y-59850468D01*
X63500000Y-59850468D01*
X63500002Y-59850468D01*
X63556673Y-59845509D01*
X63726692Y-59830635D01*
X63946496Y-59771739D01*
X64152734Y-59675568D01*
X64339139Y-59545047D01*
X64500047Y-59384139D01*
X64630568Y-59197734D01*
X64726739Y-58991496D01*
X64785635Y-58771692D01*
X64805468Y-58545000D01*
X64785635Y-58318308D01*
X64726739Y-58098504D01*
X64630568Y-57892266D01*
X64500047Y-57705861D01*
X64500045Y-57705858D01*
X64339141Y-57544954D01*
X64152734Y-57414432D01*
X64152728Y-57414429D01*
X64094725Y-57387382D01*
X64042285Y-57341210D01*
X64023133Y-57274017D01*
X64043348Y-57207135D01*
X64094725Y-57162618D01*
X64152734Y-57135568D01*
X64339139Y-57005047D01*
X64500047Y-56844139D01*
X64620230Y-56672498D01*
X91194532Y-56672498D01*
X91194532Y-56672501D01*
X91214364Y-56899186D01*
X91214366Y-56899197D01*
X91273258Y-57118988D01*
X91273261Y-57118997D01*
X91369431Y-57325232D01*
X91369432Y-57325234D01*
X91499954Y-57511641D01*
X91660858Y-57672545D01*
X91660861Y-57672547D01*
X91847266Y-57803068D01*
X92053504Y-57899239D01*
X92273308Y-57958135D01*
X92435230Y-57972301D01*
X92499998Y-57977968D01*
X92500000Y-57977968D01*
X92500002Y-57977968D01*
X92556673Y-57973009D01*
X92726692Y-57958135D01*
X92946496Y-57899239D01*
X93152734Y-57803068D01*
X93339139Y-57672547D01*
X93500047Y-57511639D01*
X93630568Y-57325234D01*
X93726739Y-57118996D01*
X93785635Y-56899192D01*
X93805468Y-56672500D01*
X93785635Y-56445808D01*
X93740916Y-56278915D01*
X93726741Y-56226011D01*
X93726738Y-56226002D01*
X93690211Y-56147671D01*
X93630568Y-56019766D01*
X93500047Y-55833361D01*
X93500045Y-55833358D01*
X93339141Y-55672454D01*
X93152734Y-55541932D01*
X93152732Y-55541931D01*
X92946497Y-55445761D01*
X92946488Y-55445758D01*
X92726697Y-55386866D01*
X92726693Y-55386865D01*
X92726692Y-55386865D01*
X92726691Y-55386864D01*
X92726686Y-55386864D01*
X92500002Y-55367032D01*
X92499998Y-55367032D01*
X92273313Y-55386864D01*
X92273302Y-55386866D01*
X92053511Y-55445758D01*
X92053502Y-55445761D01*
X91847267Y-55541931D01*
X91847265Y-55541932D01*
X91660858Y-55672454D01*
X91499954Y-55833358D01*
X91369432Y-56019765D01*
X91369431Y-56019767D01*
X91273261Y-56226002D01*
X91273258Y-56226011D01*
X91214366Y-56445802D01*
X91214364Y-56445813D01*
X91194532Y-56672498D01*
X64620230Y-56672498D01*
X64630568Y-56657734D01*
X64726739Y-56451496D01*
X64785635Y-56231692D01*
X64805468Y-56005000D01*
X64785635Y-55778308D01*
X64726739Y-55558504D01*
X64630568Y-55352266D01*
X64500047Y-55165861D01*
X64500045Y-55165858D01*
X64339141Y-55004954D01*
X64152734Y-54874432D01*
X64152732Y-54874431D01*
X63946497Y-54778261D01*
X63946488Y-54778258D01*
X63726697Y-54719366D01*
X63726693Y-54719365D01*
X63726692Y-54719365D01*
X63726691Y-54719364D01*
X63726686Y-54719364D01*
X63500002Y-54699532D01*
X63499998Y-54699532D01*
X63273313Y-54719364D01*
X63273302Y-54719366D01*
X63053511Y-54778258D01*
X63053502Y-54778261D01*
X62847267Y-54874431D01*
X62847265Y-54874432D01*
X62660858Y-55004954D01*
X62499954Y-55165858D01*
X62369432Y-55352265D01*
X62369431Y-55352267D01*
X62273261Y-55558502D01*
X62273258Y-55558511D01*
X62214366Y-55778302D01*
X62214364Y-55778313D01*
X62194532Y-56004998D01*
X59110870Y-56004998D01*
X59032335Y-55946206D01*
X59032328Y-55946202D01*
X58897482Y-55895908D01*
X58897483Y-55895908D01*
X58837883Y-55889501D01*
X58837881Y-55889500D01*
X58837873Y-55889500D01*
X58837864Y-55889500D01*
X57242129Y-55889500D01*
X57242123Y-55889501D01*
X57182516Y-55895908D01*
X57047671Y-55946202D01*
X57047664Y-55946206D01*
X56932455Y-56032452D01*
X56932452Y-56032455D01*
X56846206Y-56147664D01*
X56846202Y-56147671D01*
X56795908Y-56282517D01*
X56790468Y-56333121D01*
X56789501Y-56342123D01*
X56789500Y-56342135D01*
X56789500Y-56408138D01*
X56769815Y-56475177D01*
X56717011Y-56520932D01*
X56647853Y-56530876D01*
X56584297Y-56501851D01*
X56563925Y-56479261D01*
X56461599Y-56333124D01*
X56410991Y-56282516D01*
X56306877Y-56178402D01*
X56127639Y-56052898D01*
X56127640Y-56052898D01*
X56127638Y-56052897D01*
X56024917Y-56004998D01*
X55929330Y-55960425D01*
X55929326Y-55960424D01*
X55929322Y-55960422D01*
X55717977Y-55903793D01*
X55500002Y-55884723D01*
X55499998Y-55884723D01*
X55372151Y-55895908D01*
X55282023Y-55903793D01*
X55282020Y-55903793D01*
X55070677Y-55960422D01*
X55070668Y-55960426D01*
X54872361Y-56052898D01*
X54872357Y-56052900D01*
X54693121Y-56178402D01*
X54538402Y-56333121D01*
X54412900Y-56512357D01*
X54412898Y-56512361D01*
X54342382Y-56663583D01*
X54296209Y-56716022D01*
X54229016Y-56735174D01*
X54162135Y-56714958D01*
X54117618Y-56663583D01*
X54051098Y-56520932D01*
X54047102Y-56512362D01*
X54047100Y-56512359D01*
X54047099Y-56512357D01*
X53921599Y-56333124D01*
X53870991Y-56282516D01*
X53766877Y-56178402D01*
X53587639Y-56052898D01*
X53587640Y-56052898D01*
X53587638Y-56052897D01*
X53484917Y-56004998D01*
X53389330Y-55960425D01*
X53389326Y-55960424D01*
X53389322Y-55960422D01*
X53177977Y-55903793D01*
X52960002Y-55884723D01*
X52959998Y-55884723D01*
X52832151Y-55895908D01*
X52742023Y-55903793D01*
X52742020Y-55903793D01*
X52530677Y-55960422D01*
X52530668Y-55960426D01*
X52332361Y-56052898D01*
X52332357Y-56052900D01*
X52153121Y-56178402D01*
X51998402Y-56333121D01*
X51872900Y-56512357D01*
X51872898Y-56512361D01*
X51780426Y-56710668D01*
X51780422Y-56710677D01*
X51723793Y-56922020D01*
X51723793Y-56922024D01*
X51705111Y-57135570D01*
X51704723Y-57140000D01*
X50500500Y-57140000D01*
X50500500Y-51999998D01*
X60694532Y-51999998D01*
X60694532Y-52000001D01*
X60714364Y-52226686D01*
X60714366Y-52226697D01*
X60773258Y-52446488D01*
X60773261Y-52446497D01*
X60869431Y-52652732D01*
X60869432Y-52652734D01*
X60999954Y-52839141D01*
X61160858Y-53000045D01*
X61160861Y-53000047D01*
X61347266Y-53130568D01*
X61553504Y-53226739D01*
X61773308Y-53285635D01*
X61935230Y-53299801D01*
X61999998Y-53305468D01*
X62000000Y-53305468D01*
X62000002Y-53305468D01*
X62056673Y-53300509D01*
X62226692Y-53285635D01*
X62446496Y-53226739D01*
X62652734Y-53130568D01*
X62839139Y-53000047D01*
X63000047Y-52839139D01*
X63130568Y-52652734D01*
X63157618Y-52594724D01*
X63203790Y-52542285D01*
X63270983Y-52523133D01*
X63337865Y-52543348D01*
X63382382Y-52594725D01*
X63409429Y-52652728D01*
X63409432Y-52652734D01*
X63539954Y-52839141D01*
X63700858Y-53000045D01*
X63700861Y-53000047D01*
X63887266Y-53130568D01*
X64093504Y-53226739D01*
X64313308Y-53285635D01*
X64475230Y-53299801D01*
X64539998Y-53305468D01*
X64540000Y-53305468D01*
X64540002Y-53305468D01*
X64596673Y-53300509D01*
X64766692Y-53285635D01*
X64986496Y-53226739D01*
X65192734Y-53130568D01*
X65379139Y-53000047D01*
X65540047Y-52839139D01*
X65670568Y-52652734D01*
X65766739Y-52446496D01*
X65825635Y-52226692D01*
X65845468Y-52000000D01*
X65825635Y-51773308D01*
X65766739Y-51553504D01*
X65670568Y-51347266D01*
X65540047Y-51160861D01*
X65540045Y-51160858D01*
X65379141Y-50999954D01*
X65192734Y-50869432D01*
X65192732Y-50869431D01*
X64986497Y-50773261D01*
X64986488Y-50773258D01*
X64766697Y-50714366D01*
X64766693Y-50714365D01*
X64766692Y-50714365D01*
X64766691Y-50714364D01*
X64766686Y-50714364D01*
X64540002Y-50694532D01*
X64539998Y-50694532D01*
X64313313Y-50714364D01*
X64313302Y-50714366D01*
X64093511Y-50773258D01*
X64093502Y-50773261D01*
X63887267Y-50869431D01*
X63887265Y-50869432D01*
X63700858Y-50999954D01*
X63539954Y-51160858D01*
X63409432Y-51347265D01*
X63409431Y-51347267D01*
X63382382Y-51405275D01*
X63336209Y-51457714D01*
X63269016Y-51476866D01*
X63202135Y-51456650D01*
X63157618Y-51405275D01*
X63130568Y-51347267D01*
X63130567Y-51347265D01*
X63000045Y-51160858D01*
X62839141Y-50999954D01*
X62652734Y-50869432D01*
X62652732Y-50869431D01*
X62446497Y-50773261D01*
X62446488Y-50773258D01*
X62226697Y-50714366D01*
X62226693Y-50714365D01*
X62226692Y-50714365D01*
X62226691Y-50714364D01*
X62226686Y-50714364D01*
X62000002Y-50694532D01*
X61999998Y-50694532D01*
X61773313Y-50714364D01*
X61773302Y-50714366D01*
X61553511Y-50773258D01*
X61553502Y-50773261D01*
X61347267Y-50869431D01*
X61347265Y-50869432D01*
X61160858Y-50999954D01*
X60999954Y-51160858D01*
X60869432Y-51347265D01*
X60869431Y-51347267D01*
X60773261Y-51553502D01*
X60773258Y-51553511D01*
X60714366Y-51773302D01*
X60714364Y-51773313D01*
X60694532Y-51999998D01*
X50500500Y-51999998D01*
X50500500Y-48452498D01*
X53489390Y-48452498D01*
X53489390Y-48452501D01*
X53509804Y-48737933D01*
X53570628Y-49017537D01*
X53570630Y-49017543D01*
X53570631Y-49017546D01*
X53648656Y-49226738D01*
X53670635Y-49285666D01*
X53807770Y-49536809D01*
X53807775Y-49536817D01*
X53979254Y-49765887D01*
X53979270Y-49765905D01*
X54181594Y-49968229D01*
X54181612Y-49968245D01*
X54410682Y-50139724D01*
X54410690Y-50139729D01*
X54661833Y-50276864D01*
X54661832Y-50276864D01*
X54661836Y-50276865D01*
X54661839Y-50276867D01*
X54929954Y-50376869D01*
X54929960Y-50376870D01*
X54929962Y-50376871D01*
X55209566Y-50437695D01*
X55209568Y-50437695D01*
X55209572Y-50437696D01*
X55463220Y-50455837D01*
X55494999Y-50458110D01*
X55495000Y-50458110D01*
X55495001Y-50458110D01*
X55523595Y-50456064D01*
X55780428Y-50437696D01*
X56060046Y-50376869D01*
X56328161Y-50276867D01*
X56579315Y-50139726D01*
X56808395Y-49968239D01*
X57010739Y-49765895D01*
X57182226Y-49536815D01*
X57319367Y-49285661D01*
X57419369Y-49017546D01*
X57480196Y-48737928D01*
X57500610Y-48452500D01*
X57480196Y-48167072D01*
X57443851Y-47999998D01*
X60699532Y-47999998D01*
X60699532Y-48000001D01*
X60719364Y-48226686D01*
X60719366Y-48226697D01*
X60778258Y-48446488D01*
X60778261Y-48446497D01*
X60874431Y-48652732D01*
X60874432Y-48652734D01*
X61004954Y-48839141D01*
X61165858Y-49000045D01*
X61190852Y-49017546D01*
X61352266Y-49130568D01*
X61558504Y-49226739D01*
X61778308Y-49285635D01*
X61940230Y-49299801D01*
X62004998Y-49305468D01*
X62005000Y-49305468D01*
X62005002Y-49305468D01*
X62061673Y-49300509D01*
X62231692Y-49285635D01*
X62451496Y-49226739D01*
X62657734Y-49130568D01*
X62844139Y-49000047D01*
X63005047Y-48839139D01*
X63135568Y-48652734D01*
X63162618Y-48594724D01*
X63208790Y-48542285D01*
X63275983Y-48523133D01*
X63342865Y-48543348D01*
X63387382Y-48594725D01*
X63414429Y-48652728D01*
X63414432Y-48652734D01*
X63544954Y-48839141D01*
X63705858Y-49000045D01*
X63730852Y-49017546D01*
X63892266Y-49130568D01*
X64098504Y-49226739D01*
X64318308Y-49285635D01*
X64480230Y-49299801D01*
X64544998Y-49305468D01*
X64545000Y-49305468D01*
X64545002Y-49305468D01*
X64601673Y-49300509D01*
X64771692Y-49285635D01*
X64991496Y-49226739D01*
X65197734Y-49130568D01*
X65384139Y-49000047D01*
X65545047Y-48839139D01*
X65675568Y-48652734D01*
X65771739Y-48446496D01*
X65791567Y-48372498D01*
X90494390Y-48372498D01*
X90494390Y-48372501D01*
X90514804Y-48657933D01*
X90575628Y-48937537D01*
X90575630Y-48937543D01*
X90575631Y-48937546D01*
X90647625Y-49130568D01*
X90675635Y-49205666D01*
X90812770Y-49456809D01*
X90812775Y-49456817D01*
X90984254Y-49685887D01*
X90984270Y-49685905D01*
X91186594Y-49888229D01*
X91186612Y-49888245D01*
X91415682Y-50059724D01*
X91415690Y-50059729D01*
X91666833Y-50196864D01*
X91666832Y-50196864D01*
X91666836Y-50196865D01*
X91666839Y-50196867D01*
X91934954Y-50296869D01*
X91934960Y-50296870D01*
X91934962Y-50296871D01*
X92214566Y-50357695D01*
X92214568Y-50357695D01*
X92214572Y-50357696D01*
X92468220Y-50375837D01*
X92499999Y-50378110D01*
X92500000Y-50378110D01*
X92500001Y-50378110D01*
X92528595Y-50376064D01*
X92785428Y-50357696D01*
X93065046Y-50296869D01*
X93333161Y-50196867D01*
X93584315Y-50059726D01*
X93813395Y-49888239D01*
X94015739Y-49685895D01*
X94187226Y-49456815D01*
X94324367Y-49205661D01*
X94424369Y-48937546D01*
X94485196Y-48657928D01*
X94505610Y-48372500D01*
X94485196Y-48087072D01*
X94466254Y-47999998D01*
X94424371Y-47807462D01*
X94424370Y-47807460D01*
X94424369Y-47807454D01*
X94324367Y-47539339D01*
X94251162Y-47405275D01*
X94187229Y-47288190D01*
X94187224Y-47288182D01*
X94015745Y-47059112D01*
X94015729Y-47059094D01*
X93813405Y-46856770D01*
X93813387Y-46856754D01*
X93584317Y-46685275D01*
X93584309Y-46685270D01*
X93333166Y-46548135D01*
X93333167Y-46548135D01*
X93225915Y-46508132D01*
X93065046Y-46448131D01*
X93065043Y-46448130D01*
X93065037Y-46448128D01*
X92785433Y-46387304D01*
X92500001Y-46366890D01*
X92499999Y-46366890D01*
X92214566Y-46387304D01*
X91934962Y-46448128D01*
X91666833Y-46548135D01*
X91415690Y-46685270D01*
X91415682Y-46685275D01*
X91186612Y-46856754D01*
X91186594Y-46856770D01*
X90984270Y-47059094D01*
X90984254Y-47059112D01*
X90812775Y-47288182D01*
X90812770Y-47288190D01*
X90675635Y-47539333D01*
X90575628Y-47807462D01*
X90514804Y-48087066D01*
X90494390Y-48372498D01*
X65791567Y-48372498D01*
X65830635Y-48226692D01*
X65850468Y-48000000D01*
X65830635Y-47773308D01*
X65771739Y-47553504D01*
X65675568Y-47347266D01*
X65545047Y-47160861D01*
X65545045Y-47160858D01*
X65384141Y-46999954D01*
X65197734Y-46869432D01*
X65197732Y-46869431D01*
X64991497Y-46773261D01*
X64991488Y-46773258D01*
X64771697Y-46714366D01*
X64771693Y-46714365D01*
X64771692Y-46714365D01*
X64771691Y-46714364D01*
X64771686Y-46714364D01*
X64545002Y-46694532D01*
X64544998Y-46694532D01*
X64318313Y-46714364D01*
X64318302Y-46714366D01*
X64098511Y-46773258D01*
X64098502Y-46773261D01*
X63892267Y-46869431D01*
X63892265Y-46869432D01*
X63705858Y-46999954D01*
X63544954Y-47160858D01*
X63414432Y-47347265D01*
X63414431Y-47347267D01*
X63387382Y-47405275D01*
X63341209Y-47457714D01*
X63274016Y-47476866D01*
X63207135Y-47456650D01*
X63162618Y-47405275D01*
X63145325Y-47368190D01*
X63135568Y-47347266D01*
X63005047Y-47160861D01*
X63005045Y-47160858D01*
X62844141Y-46999954D01*
X62657734Y-46869432D01*
X62657732Y-46869431D01*
X62451497Y-46773261D01*
X62451488Y-46773258D01*
X62231697Y-46714366D01*
X62231693Y-46714365D01*
X62231692Y-46714365D01*
X62231691Y-46714364D01*
X62231686Y-46714364D01*
X62005002Y-46694532D01*
X62004998Y-46694532D01*
X61778313Y-46714364D01*
X61778302Y-46714366D01*
X61558511Y-46773258D01*
X61558502Y-46773261D01*
X61352267Y-46869431D01*
X61352265Y-46869432D01*
X61165858Y-46999954D01*
X61004954Y-47160858D01*
X60874432Y-47347265D01*
X60874431Y-47347267D01*
X60778261Y-47553502D01*
X60778258Y-47553511D01*
X60719366Y-47773302D01*
X60719364Y-47773313D01*
X60699532Y-47999998D01*
X57443851Y-47999998D01*
X57419371Y-47887462D01*
X57419370Y-47887460D01*
X57419369Y-47887454D01*
X57319367Y-47619339D01*
X57283418Y-47553504D01*
X57182229Y-47368190D01*
X57182224Y-47368182D01*
X57010745Y-47139112D01*
X57010729Y-47139094D01*
X56808405Y-46936770D01*
X56808387Y-46936754D01*
X56579317Y-46765275D01*
X56579309Y-46765270D01*
X56328166Y-46628135D01*
X56328167Y-46628135D01*
X56220915Y-46588132D01*
X56060046Y-46528131D01*
X56060043Y-46528130D01*
X56060037Y-46528128D01*
X55780433Y-46467304D01*
X55495001Y-46446890D01*
X55494999Y-46446890D01*
X55209566Y-46467304D01*
X54929962Y-46528128D01*
X54661833Y-46628135D01*
X54410690Y-46765270D01*
X54410682Y-46765275D01*
X54181612Y-46936754D01*
X54181594Y-46936770D01*
X53979270Y-47139094D01*
X53979254Y-47139112D01*
X53807775Y-47368182D01*
X53807770Y-47368190D01*
X53670635Y-47619333D01*
X53570628Y-47887462D01*
X53509804Y-48167066D01*
X53489390Y-48452498D01*
X50500500Y-48452498D01*
X50500500Y-38893713D01*
X52649500Y-38893713D01*
X52649500Y-39106286D01*
X52682753Y-39316239D01*
X52748444Y-39518414D01*
X52844951Y-39707820D01*
X52969890Y-39879786D01*
X53120213Y-40030109D01*
X53292179Y-40155048D01*
X53292181Y-40155049D01*
X53292184Y-40155051D01*
X53481588Y-40251557D01*
X53683757Y-40317246D01*
X53893713Y-40350500D01*
X53893714Y-40350500D01*
X54106286Y-40350500D01*
X54106287Y-40350500D01*
X54316243Y-40317246D01*
X54518412Y-40251557D01*
X54707816Y-40155051D01*
X54729789Y-40139086D01*
X54879786Y-40030109D01*
X54879788Y-40030106D01*
X54879792Y-40030104D01*
X55030104Y-39879792D01*
X55030106Y-39879788D01*
X55030109Y-39879786D01*
X55155048Y-39707820D01*
X55155047Y-39707820D01*
X55155051Y-39707816D01*
X55251557Y-39518412D01*
X55317246Y-39316243D01*
X55350500Y-39106287D01*
X55350500Y-38893713D01*
X92649500Y-38893713D01*
X92649500Y-39106286D01*
X92682753Y-39316239D01*
X92748444Y-39518414D01*
X92844951Y-39707820D01*
X92969890Y-39879786D01*
X93120213Y-40030109D01*
X93292179Y-40155048D01*
X93292181Y-40155049D01*
X93292184Y-40155051D01*
X93481588Y-40251557D01*
X93683757Y-40317246D01*
X93893713Y-40350500D01*
X93893714Y-40350500D01*
X94106286Y-40350500D01*
X94106287Y-40350500D01*
X94316243Y-40317246D01*
X94518412Y-40251557D01*
X94707816Y-40155051D01*
X94729789Y-40139086D01*
X94879786Y-40030109D01*
X94879788Y-40030106D01*
X94879792Y-40030104D01*
X95030104Y-39879792D01*
X95030106Y-39879788D01*
X95030109Y-39879786D01*
X95155048Y-39707820D01*
X95155047Y-39707820D01*
X95155051Y-39707816D01*
X95251557Y-39518412D01*
X95317246Y-39316243D01*
X95350500Y-39106287D01*
X95350500Y-38893713D01*
X95317246Y-38683757D01*
X95251557Y-38481588D01*
X95155051Y-38292184D01*
X95155049Y-38292181D01*
X95155048Y-38292179D01*
X95030109Y-38120213D01*
X94879786Y-37969890D01*
X94707820Y-37844951D01*
X94518414Y-37748444D01*
X94518413Y-37748443D01*
X94518412Y-37748443D01*
X94316243Y-37682754D01*
X94316241Y-37682753D01*
X94316240Y-37682753D01*
X94154957Y-37657208D01*
X94106287Y-37649500D01*
X93893713Y-37649500D01*
X93845042Y-37657208D01*
X93683760Y-37682753D01*
X93481585Y-37748444D01*
X93292179Y-37844951D01*
X93120213Y-37969890D01*
X92969890Y-38120213D01*
X92844951Y-38292179D01*
X92748444Y-38481585D01*
X92682753Y-38683760D01*
X92649500Y-38893713D01*
X55350500Y-38893713D01*
X55317246Y-38683757D01*
X55251557Y-38481588D01*
X55155051Y-38292184D01*
X55155049Y-38292181D01*
X55155048Y-38292179D01*
X55030109Y-38120213D01*
X54879786Y-37969890D01*
X54707820Y-37844951D01*
X54518414Y-37748444D01*
X54518413Y-37748443D01*
X54518412Y-37748443D01*
X54316243Y-37682754D01*
X54316241Y-37682753D01*
X54316240Y-37682753D01*
X54154957Y-37657208D01*
X54106287Y-37649500D01*
X53893713Y-37649500D01*
X53845042Y-37657208D01*
X53683760Y-37682753D01*
X53481585Y-37748444D01*
X53292179Y-37844951D01*
X53120213Y-37969890D01*
X52969890Y-38120213D01*
X52844951Y-38292179D01*
X52748444Y-38481585D01*
X52682753Y-38683760D01*
X52649500Y-38893713D01*
X50500500Y-38893713D01*
X50500500Y-35624500D01*
X50520185Y-35557461D01*
X50572989Y-35511706D01*
X50624500Y-35500500D01*
X97375500Y-35500500D01*
X97442539Y-35520185D01*
G37*
%TD.AperFunction*%
%TD*%
M02*
