%TF.GenerationSoftware,KiCad,Pcbnew,9.0.0*%
%TF.CreationDate,2025-03-07T15:33:46-06:00*%
%TF.ProjectId,Block-JAN6418,426c6f63-6b2d-44a4-914e-363431382e6b,rev?*%
%TF.SameCoordinates,PX3305860PY2160ec0*%
%TF.FileFunction,Legend,Top*%
%TF.FilePolarity,Positive*%
%FSLAX46Y46*%
G04 Gerber Fmt 4.6, Leading zero omitted, Abs format (unit mm)*
G04 Created by KiCad (PCBNEW 9.0.0) date 2025-03-07 15:33:46*
%MOMM*%
%LPD*%
G01*
G04 APERTURE LIST*
%ADD10C,0.100000*%
%ADD11C,0.150000*%
%ADD12C,0.120000*%
G04 APERTURE END LIST*
D10*
X500000Y-5000000D02*
X9000000Y-5000000D01*
X9000000Y-18000000D01*
X500000Y-18000000D01*
X500000Y-5000000D01*
X17500000Y-2452500D02*
X31250000Y-2452500D01*
X31250000Y-42202500D01*
X17500000Y-42202500D01*
X17500000Y-2452500D01*
D11*
X44335771Y-53932020D02*
X44288152Y-53979639D01*
X44288152Y-53979639D02*
X44145295Y-54074877D01*
X44145295Y-54074877D02*
X44050057Y-54122496D01*
X44050057Y-54122496D02*
X43907200Y-54170115D01*
X43907200Y-54170115D02*
X43669104Y-54217734D01*
X43669104Y-54217734D02*
X43478628Y-54217734D01*
X43478628Y-54217734D02*
X43240533Y-54170115D01*
X43240533Y-54170115D02*
X43097676Y-54122496D01*
X43097676Y-54122496D02*
X43002438Y-54074877D01*
X43002438Y-54074877D02*
X42859580Y-53979639D01*
X42859580Y-53979639D02*
X42811961Y-53932020D01*
X43907200Y-53122496D02*
X43954819Y-53217734D01*
X43954819Y-53217734D02*
X43954819Y-53408210D01*
X43954819Y-53408210D02*
X43907200Y-53503448D01*
X43907200Y-53503448D02*
X43859580Y-53551067D01*
X43859580Y-53551067D02*
X43764342Y-53598686D01*
X43764342Y-53598686D02*
X43478628Y-53598686D01*
X43478628Y-53598686D02*
X43383390Y-53551067D01*
X43383390Y-53551067D02*
X43335771Y-53503448D01*
X43335771Y-53503448D02*
X43288152Y-53408210D01*
X43288152Y-53408210D02*
X43288152Y-53217734D01*
X43288152Y-53217734D02*
X43335771Y-53122496D01*
X44335771Y-52789162D02*
X44288152Y-52741543D01*
X44288152Y-52741543D02*
X44145295Y-52646305D01*
X44145295Y-52646305D02*
X44050057Y-52598686D01*
X44050057Y-52598686D02*
X43907200Y-52551067D01*
X43907200Y-52551067D02*
X43669104Y-52503448D01*
X43669104Y-52503448D02*
X43478628Y-52503448D01*
X43478628Y-52503448D02*
X43240533Y-52551067D01*
X43240533Y-52551067D02*
X43097676Y-52598686D01*
X43097676Y-52598686D02*
X43002438Y-52646305D01*
X43002438Y-52646305D02*
X42859580Y-52741543D01*
X42859580Y-52741543D02*
X42811961Y-52789162D01*
X43050057Y-51312971D02*
X43002438Y-51265352D01*
X43002438Y-51265352D02*
X42954819Y-51170114D01*
X42954819Y-51170114D02*
X42954819Y-50932019D01*
X42954819Y-50932019D02*
X43002438Y-50836781D01*
X43002438Y-50836781D02*
X43050057Y-50789162D01*
X43050057Y-50789162D02*
X43145295Y-50741543D01*
X43145295Y-50741543D02*
X43240533Y-50741543D01*
X43240533Y-50741543D02*
X43383390Y-50789162D01*
X43383390Y-50789162D02*
X43954819Y-51360590D01*
X43954819Y-51360590D02*
X43954819Y-50741543D01*
X42954819Y-50122495D02*
X42954819Y-50027257D01*
X42954819Y-50027257D02*
X43002438Y-49932019D01*
X43002438Y-49932019D02*
X43050057Y-49884400D01*
X43050057Y-49884400D02*
X43145295Y-49836781D01*
X43145295Y-49836781D02*
X43335771Y-49789162D01*
X43335771Y-49789162D02*
X43573866Y-49789162D01*
X43573866Y-49789162D02*
X43764342Y-49836781D01*
X43764342Y-49836781D02*
X43859580Y-49884400D01*
X43859580Y-49884400D02*
X43907200Y-49932019D01*
X43907200Y-49932019D02*
X43954819Y-50027257D01*
X43954819Y-50027257D02*
X43954819Y-50122495D01*
X43954819Y-50122495D02*
X43907200Y-50217733D01*
X43907200Y-50217733D02*
X43859580Y-50265352D01*
X43859580Y-50265352D02*
X43764342Y-50312971D01*
X43764342Y-50312971D02*
X43573866Y-50360590D01*
X43573866Y-50360590D02*
X43335771Y-50360590D01*
X43335771Y-50360590D02*
X43145295Y-50312971D01*
X43145295Y-50312971D02*
X43050057Y-50265352D01*
X43050057Y-50265352D02*
X43002438Y-50217733D01*
X43002438Y-50217733D02*
X42954819Y-50122495D01*
X43050057Y-49408209D02*
X43002438Y-49360590D01*
X43002438Y-49360590D02*
X42954819Y-49265352D01*
X42954819Y-49265352D02*
X42954819Y-49027257D01*
X42954819Y-49027257D02*
X43002438Y-48932019D01*
X43002438Y-48932019D02*
X43050057Y-48884400D01*
X43050057Y-48884400D02*
X43145295Y-48836781D01*
X43145295Y-48836781D02*
X43240533Y-48836781D01*
X43240533Y-48836781D02*
X43383390Y-48884400D01*
X43383390Y-48884400D02*
X43954819Y-49455828D01*
X43954819Y-49455828D02*
X43954819Y-48836781D01*
X42954819Y-47932019D02*
X42954819Y-48408209D01*
X42954819Y-48408209D02*
X43431009Y-48455828D01*
X43431009Y-48455828D02*
X43383390Y-48408209D01*
X43383390Y-48408209D02*
X43335771Y-48312971D01*
X43335771Y-48312971D02*
X43335771Y-48074876D01*
X43335771Y-48074876D02*
X43383390Y-47979638D01*
X43383390Y-47979638D02*
X43431009Y-47932019D01*
X43431009Y-47932019D02*
X43526247Y-47884400D01*
X43526247Y-47884400D02*
X43764342Y-47884400D01*
X43764342Y-47884400D02*
X43859580Y-47932019D01*
X43859580Y-47932019D02*
X43907200Y-47979638D01*
X43907200Y-47979638D02*
X43954819Y-48074876D01*
X43954819Y-48074876D02*
X43954819Y-48312971D01*
X43954819Y-48312971D02*
X43907200Y-48408209D01*
X43907200Y-48408209D02*
X43859580Y-48455828D01*
X43907200Y-46741542D02*
X43954819Y-46598685D01*
X43954819Y-46598685D02*
X43954819Y-46360590D01*
X43954819Y-46360590D02*
X43907200Y-46265352D01*
X43907200Y-46265352D02*
X43859580Y-46217733D01*
X43859580Y-46217733D02*
X43764342Y-46170114D01*
X43764342Y-46170114D02*
X43669104Y-46170114D01*
X43669104Y-46170114D02*
X43573866Y-46217733D01*
X43573866Y-46217733D02*
X43526247Y-46265352D01*
X43526247Y-46265352D02*
X43478628Y-46360590D01*
X43478628Y-46360590D02*
X43431009Y-46551066D01*
X43431009Y-46551066D02*
X43383390Y-46646304D01*
X43383390Y-46646304D02*
X43335771Y-46693923D01*
X43335771Y-46693923D02*
X43240533Y-46741542D01*
X43240533Y-46741542D02*
X43145295Y-46741542D01*
X43145295Y-46741542D02*
X43050057Y-46693923D01*
X43050057Y-46693923D02*
X43002438Y-46646304D01*
X43002438Y-46646304D02*
X42954819Y-46551066D01*
X42954819Y-46551066D02*
X42954819Y-46312971D01*
X42954819Y-46312971D02*
X43002438Y-46170114D01*
X43288152Y-45884399D02*
X43288152Y-45503447D01*
X42954819Y-45741542D02*
X43811961Y-45741542D01*
X43811961Y-45741542D02*
X43907200Y-45693923D01*
X43907200Y-45693923D02*
X43954819Y-45598685D01*
X43954819Y-45598685D02*
X43954819Y-45503447D01*
X43954819Y-45027256D02*
X43907200Y-45122494D01*
X43907200Y-45122494D02*
X43859580Y-45170113D01*
X43859580Y-45170113D02*
X43764342Y-45217732D01*
X43764342Y-45217732D02*
X43478628Y-45217732D01*
X43478628Y-45217732D02*
X43383390Y-45170113D01*
X43383390Y-45170113D02*
X43335771Y-45122494D01*
X43335771Y-45122494D02*
X43288152Y-45027256D01*
X43288152Y-45027256D02*
X43288152Y-44884399D01*
X43288152Y-44884399D02*
X43335771Y-44789161D01*
X43335771Y-44789161D02*
X43383390Y-44741542D01*
X43383390Y-44741542D02*
X43478628Y-44693923D01*
X43478628Y-44693923D02*
X43764342Y-44693923D01*
X43764342Y-44693923D02*
X43859580Y-44741542D01*
X43859580Y-44741542D02*
X43907200Y-44789161D01*
X43907200Y-44789161D02*
X43954819Y-44884399D01*
X43954819Y-44884399D02*
X43954819Y-45027256D01*
X43954819Y-44265351D02*
X43288152Y-44265351D01*
X43478628Y-44265351D02*
X43383390Y-44217732D01*
X43383390Y-44217732D02*
X43335771Y-44170113D01*
X43335771Y-44170113D02*
X43288152Y-44074875D01*
X43288152Y-44074875D02*
X43288152Y-43979637D01*
X43907200Y-43693922D02*
X43954819Y-43598684D01*
X43954819Y-43598684D02*
X43954819Y-43408208D01*
X43954819Y-43408208D02*
X43907200Y-43312970D01*
X43907200Y-43312970D02*
X43811961Y-43265351D01*
X43811961Y-43265351D02*
X43764342Y-43265351D01*
X43764342Y-43265351D02*
X43669104Y-43312970D01*
X43669104Y-43312970D02*
X43621485Y-43408208D01*
X43621485Y-43408208D02*
X43621485Y-43551065D01*
X43621485Y-43551065D02*
X43573866Y-43646303D01*
X43573866Y-43646303D02*
X43478628Y-43693922D01*
X43478628Y-43693922D02*
X43431009Y-43693922D01*
X43431009Y-43693922D02*
X43335771Y-43646303D01*
X43335771Y-43646303D02*
X43288152Y-43551065D01*
X43288152Y-43551065D02*
X43288152Y-43408208D01*
X43288152Y-43408208D02*
X43335771Y-43312970D01*
X43954819Y-42836779D02*
X42954819Y-42836779D01*
X43573866Y-42741541D02*
X43954819Y-42455827D01*
X43288152Y-42455827D02*
X43669104Y-42836779D01*
X43907200Y-41646303D02*
X43954819Y-41741541D01*
X43954819Y-41741541D02*
X43954819Y-41932017D01*
X43954819Y-41932017D02*
X43907200Y-42027255D01*
X43907200Y-42027255D02*
X43811961Y-42074874D01*
X43811961Y-42074874D02*
X43431009Y-42074874D01*
X43431009Y-42074874D02*
X43335771Y-42027255D01*
X43335771Y-42027255D02*
X43288152Y-41932017D01*
X43288152Y-41932017D02*
X43288152Y-41741541D01*
X43288152Y-41741541D02*
X43335771Y-41646303D01*
X43335771Y-41646303D02*
X43431009Y-41598684D01*
X43431009Y-41598684D02*
X43526247Y-41598684D01*
X43526247Y-41598684D02*
X43621485Y-42074874D01*
X43288152Y-40741541D02*
X44097676Y-40741541D01*
X44097676Y-40741541D02*
X44192914Y-40789160D01*
X44192914Y-40789160D02*
X44240533Y-40836779D01*
X44240533Y-40836779D02*
X44288152Y-40932017D01*
X44288152Y-40932017D02*
X44288152Y-41074874D01*
X44288152Y-41074874D02*
X44240533Y-41170112D01*
X43907200Y-40741541D02*
X43954819Y-40836779D01*
X43954819Y-40836779D02*
X43954819Y-41027255D01*
X43954819Y-41027255D02*
X43907200Y-41122493D01*
X43907200Y-41122493D02*
X43859580Y-41170112D01*
X43859580Y-41170112D02*
X43764342Y-41217731D01*
X43764342Y-41217731D02*
X43478628Y-41217731D01*
X43478628Y-41217731D02*
X43383390Y-41170112D01*
X43383390Y-41170112D02*
X43335771Y-41122493D01*
X43335771Y-41122493D02*
X43288152Y-41027255D01*
X43288152Y-41027255D02*
X43288152Y-40836779D01*
X43288152Y-40836779D02*
X43335771Y-40741541D01*
X43288152Y-39836779D02*
X44097676Y-39836779D01*
X44097676Y-39836779D02*
X44192914Y-39884398D01*
X44192914Y-39884398D02*
X44240533Y-39932017D01*
X44240533Y-39932017D02*
X44288152Y-40027255D01*
X44288152Y-40027255D02*
X44288152Y-40170112D01*
X44288152Y-40170112D02*
X44240533Y-40265350D01*
X43907200Y-39836779D02*
X43954819Y-39932017D01*
X43954819Y-39932017D02*
X43954819Y-40122493D01*
X43954819Y-40122493D02*
X43907200Y-40217731D01*
X43907200Y-40217731D02*
X43859580Y-40265350D01*
X43859580Y-40265350D02*
X43764342Y-40312969D01*
X43764342Y-40312969D02*
X43478628Y-40312969D01*
X43478628Y-40312969D02*
X43383390Y-40265350D01*
X43383390Y-40265350D02*
X43335771Y-40217731D01*
X43335771Y-40217731D02*
X43288152Y-40122493D01*
X43288152Y-40122493D02*
X43288152Y-39932017D01*
X43288152Y-39932017D02*
X43335771Y-39836779D01*
X18241541Y-1203152D02*
X18479636Y-1869819D01*
X18479636Y-1869819D02*
X18717731Y-1203152D01*
X19622493Y-1869819D02*
X19051065Y-1869819D01*
X19336779Y-1869819D02*
X19336779Y-869819D01*
X19336779Y-869819D02*
X19241541Y-1012676D01*
X19241541Y-1012676D02*
X19146303Y-1107914D01*
X19146303Y-1107914D02*
X19051065Y-1155533D01*
X20051065Y-1774580D02*
X20098684Y-1822200D01*
X20098684Y-1822200D02*
X20051065Y-1869819D01*
X20051065Y-1869819D02*
X20003446Y-1822200D01*
X20003446Y-1822200D02*
X20051065Y-1774580D01*
X20051065Y-1774580D02*
X20051065Y-1869819D01*
X20717731Y-869819D02*
X20812969Y-869819D01*
X20812969Y-869819D02*
X20908207Y-917438D01*
X20908207Y-917438D02*
X20955826Y-965057D01*
X20955826Y-965057D02*
X21003445Y-1060295D01*
X21003445Y-1060295D02*
X21051064Y-1250771D01*
X21051064Y-1250771D02*
X21051064Y-1488866D01*
X21051064Y-1488866D02*
X21003445Y-1679342D01*
X21003445Y-1679342D02*
X20955826Y-1774580D01*
X20955826Y-1774580D02*
X20908207Y-1822200D01*
X20908207Y-1822200D02*
X20812969Y-1869819D01*
X20812969Y-1869819D02*
X20717731Y-1869819D01*
X20717731Y-1869819D02*
X20622493Y-1822200D01*
X20622493Y-1822200D02*
X20574874Y-1774580D01*
X20574874Y-1774580D02*
X20527255Y-1679342D01*
X20527255Y-1679342D02*
X20479636Y-1488866D01*
X20479636Y-1488866D02*
X20479636Y-1250771D01*
X20479636Y-1250771D02*
X20527255Y-1060295D01*
X20527255Y-1060295D02*
X20574874Y-965057D01*
X20574874Y-965057D02*
X20622493Y-917438D01*
X20622493Y-917438D02*
X20717731Y-869819D01*
X21908207Y-1822200D02*
X21812969Y-1869819D01*
X21812969Y-1869819D02*
X21622493Y-1869819D01*
X21622493Y-1869819D02*
X21527255Y-1822200D01*
X21527255Y-1822200D02*
X21479636Y-1774580D01*
X21479636Y-1774580D02*
X21432017Y-1679342D01*
X21432017Y-1679342D02*
X21432017Y-1393628D01*
X21432017Y-1393628D02*
X21479636Y-1298390D01*
X21479636Y-1298390D02*
X21527255Y-1250771D01*
X21527255Y-1250771D02*
X21622493Y-1203152D01*
X21622493Y-1203152D02*
X21812969Y-1203152D01*
X21812969Y-1203152D02*
X21908207Y-1250771D01*
X36880952Y-19407200D02*
X37023809Y-19454819D01*
X37023809Y-19454819D02*
X37261904Y-19454819D01*
X37261904Y-19454819D02*
X37357142Y-19407200D01*
X37357142Y-19407200D02*
X37404761Y-19359580D01*
X37404761Y-19359580D02*
X37452380Y-19264342D01*
X37452380Y-19264342D02*
X37452380Y-19169104D01*
X37452380Y-19169104D02*
X37404761Y-19073866D01*
X37404761Y-19073866D02*
X37357142Y-19026247D01*
X37357142Y-19026247D02*
X37261904Y-18978628D01*
X37261904Y-18978628D02*
X37071428Y-18931009D01*
X37071428Y-18931009D02*
X36976190Y-18883390D01*
X36976190Y-18883390D02*
X36928571Y-18835771D01*
X36928571Y-18835771D02*
X36880952Y-18740533D01*
X36880952Y-18740533D02*
X36880952Y-18645295D01*
X36880952Y-18645295D02*
X36928571Y-18550057D01*
X36928571Y-18550057D02*
X36976190Y-18502438D01*
X36976190Y-18502438D02*
X37071428Y-18454819D01*
X37071428Y-18454819D02*
X37309523Y-18454819D01*
X37309523Y-18454819D02*
X37452380Y-18502438D01*
X37880952Y-19454819D02*
X37880952Y-18788152D01*
X37880952Y-18454819D02*
X37833333Y-18502438D01*
X37833333Y-18502438D02*
X37880952Y-18550057D01*
X37880952Y-18550057D02*
X37928571Y-18502438D01*
X37928571Y-18502438D02*
X37880952Y-18454819D01*
X37880952Y-18454819D02*
X37880952Y-18550057D01*
X38785713Y-18788152D02*
X38785713Y-19597676D01*
X38785713Y-19597676D02*
X38738094Y-19692914D01*
X38738094Y-19692914D02*
X38690475Y-19740533D01*
X38690475Y-19740533D02*
X38595237Y-19788152D01*
X38595237Y-19788152D02*
X38452380Y-19788152D01*
X38452380Y-19788152D02*
X38357142Y-19740533D01*
X38785713Y-19407200D02*
X38690475Y-19454819D01*
X38690475Y-19454819D02*
X38499999Y-19454819D01*
X38499999Y-19454819D02*
X38404761Y-19407200D01*
X38404761Y-19407200D02*
X38357142Y-19359580D01*
X38357142Y-19359580D02*
X38309523Y-19264342D01*
X38309523Y-19264342D02*
X38309523Y-18978628D01*
X38309523Y-18978628D02*
X38357142Y-18883390D01*
X38357142Y-18883390D02*
X38404761Y-18835771D01*
X38404761Y-18835771D02*
X38499999Y-18788152D01*
X38499999Y-18788152D02*
X38690475Y-18788152D01*
X38690475Y-18788152D02*
X38785713Y-18835771D01*
X39023809Y-19550057D02*
X39785713Y-19550057D01*
X40214285Y-18454819D02*
X40404761Y-18454819D01*
X40404761Y-18454819D02*
X40499999Y-18502438D01*
X40499999Y-18502438D02*
X40595237Y-18597676D01*
X40595237Y-18597676D02*
X40642856Y-18788152D01*
X40642856Y-18788152D02*
X40642856Y-19121485D01*
X40642856Y-19121485D02*
X40595237Y-19311961D01*
X40595237Y-19311961D02*
X40499999Y-19407200D01*
X40499999Y-19407200D02*
X40404761Y-19454819D01*
X40404761Y-19454819D02*
X40214285Y-19454819D01*
X40214285Y-19454819D02*
X40119047Y-19407200D01*
X40119047Y-19407200D02*
X40023809Y-19311961D01*
X40023809Y-19311961D02*
X39976190Y-19121485D01*
X39976190Y-19121485D02*
X39976190Y-18788152D01*
X39976190Y-18788152D02*
X40023809Y-18597676D01*
X40023809Y-18597676D02*
X40119047Y-18502438D01*
X40119047Y-18502438D02*
X40214285Y-18454819D01*
X41499999Y-18788152D02*
X41499999Y-19454819D01*
X41071428Y-18788152D02*
X41071428Y-19311961D01*
X41071428Y-19311961D02*
X41119047Y-19407200D01*
X41119047Y-19407200D02*
X41214285Y-19454819D01*
X41214285Y-19454819D02*
X41357142Y-19454819D01*
X41357142Y-19454819D02*
X41452380Y-19407200D01*
X41452380Y-19407200D02*
X41499999Y-19359580D01*
X41833333Y-18788152D02*
X42214285Y-18788152D01*
X41976190Y-18454819D02*
X41976190Y-19311961D01*
X41976190Y-19311961D02*
X42023809Y-19407200D01*
X42023809Y-19407200D02*
X42119047Y-19454819D01*
X42119047Y-19454819D02*
X42214285Y-19454819D01*
X7091792Y-58488866D02*
X7853697Y-58488866D01*
X7472744Y-58869819D02*
X7472744Y-58107914D01*
X8377506Y-58869819D02*
X8567982Y-58869819D01*
X8567982Y-58869819D02*
X8663220Y-58822200D01*
X8663220Y-58822200D02*
X8710839Y-58774580D01*
X8710839Y-58774580D02*
X8806077Y-58631723D01*
X8806077Y-58631723D02*
X8853696Y-58441247D01*
X8853696Y-58441247D02*
X8853696Y-58060295D01*
X8853696Y-58060295D02*
X8806077Y-57965057D01*
X8806077Y-57965057D02*
X8758458Y-57917438D01*
X8758458Y-57917438D02*
X8663220Y-57869819D01*
X8663220Y-57869819D02*
X8472744Y-57869819D01*
X8472744Y-57869819D02*
X8377506Y-57917438D01*
X8377506Y-57917438D02*
X8329887Y-57965057D01*
X8329887Y-57965057D02*
X8282268Y-58060295D01*
X8282268Y-58060295D02*
X8282268Y-58298390D01*
X8282268Y-58298390D02*
X8329887Y-58393628D01*
X8329887Y-58393628D02*
X8377506Y-58441247D01*
X8377506Y-58441247D02*
X8472744Y-58488866D01*
X8472744Y-58488866D02*
X8663220Y-58488866D01*
X8663220Y-58488866D02*
X8758458Y-58441247D01*
X8758458Y-58441247D02*
X8806077Y-58393628D01*
X8806077Y-58393628D02*
X8853696Y-58298390D01*
X9139411Y-57869819D02*
X9472744Y-58869819D01*
X9472744Y-58869819D02*
X9806077Y-57869819D01*
X2610588Y-43839223D02*
X2193922Y-43243985D01*
X1896303Y-43839223D02*
X1896303Y-42589223D01*
X1896303Y-42589223D02*
X2372493Y-42589223D01*
X2372493Y-42589223D02*
X2491541Y-42648747D01*
X2491541Y-42648747D02*
X2551064Y-42708271D01*
X2551064Y-42708271D02*
X2610588Y-42827319D01*
X2610588Y-42827319D02*
X2610588Y-43005890D01*
X2610588Y-43005890D02*
X2551064Y-43124938D01*
X2551064Y-43124938D02*
X2491541Y-43184461D01*
X2491541Y-43184461D02*
X2372493Y-43243985D01*
X2372493Y-43243985D02*
X1896303Y-43243985D01*
X2848684Y-43958271D02*
X3801064Y-43958271D01*
X4098684Y-43839223D02*
X4098684Y-43005890D01*
X4098684Y-42589223D02*
X4039160Y-42648747D01*
X4039160Y-42648747D02*
X4098684Y-42708271D01*
X4098684Y-42708271D02*
X4158207Y-42648747D01*
X4158207Y-42648747D02*
X4098684Y-42589223D01*
X4098684Y-42589223D02*
X4098684Y-42708271D01*
X4693922Y-43839223D02*
X4693922Y-43005890D01*
X4693922Y-43124938D02*
X4753445Y-43065414D01*
X4753445Y-43065414D02*
X4872493Y-43005890D01*
X4872493Y-43005890D02*
X5051064Y-43005890D01*
X5051064Y-43005890D02*
X5170112Y-43065414D01*
X5170112Y-43065414D02*
X5229636Y-43184461D01*
X5229636Y-43184461D02*
X5229636Y-43839223D01*
X5229636Y-43184461D02*
X5289160Y-43065414D01*
X5289160Y-43065414D02*
X5408207Y-43005890D01*
X5408207Y-43005890D02*
X5586779Y-43005890D01*
X5586779Y-43005890D02*
X5705826Y-43065414D01*
X5705826Y-43065414D02*
X5765350Y-43184461D01*
X5765350Y-43184461D02*
X5765350Y-43839223D01*
X6360589Y-43005890D02*
X6360589Y-44255890D01*
X6360589Y-43065414D02*
X6479636Y-43005890D01*
X6479636Y-43005890D02*
X6717731Y-43005890D01*
X6717731Y-43005890D02*
X6836779Y-43065414D01*
X6836779Y-43065414D02*
X6896303Y-43124938D01*
X6896303Y-43124938D02*
X6955827Y-43243985D01*
X6955827Y-43243985D02*
X6955827Y-43601128D01*
X6955827Y-43601128D02*
X6896303Y-43720176D01*
X6896303Y-43720176D02*
X6836779Y-43779700D01*
X6836779Y-43779700D02*
X6717731Y-43839223D01*
X6717731Y-43839223D02*
X6479636Y-43839223D01*
X6479636Y-43839223D02*
X6360589Y-43779700D01*
X1944580Y-17163220D02*
X1992200Y-17115601D01*
X1992200Y-17115601D02*
X2039819Y-17163220D01*
X2039819Y-17163220D02*
X1992200Y-17210839D01*
X1992200Y-17210839D02*
X1944580Y-17163220D01*
X1944580Y-17163220D02*
X2039819Y-17163220D01*
X1658866Y-17163220D02*
X1087438Y-17210839D01*
X1087438Y-17210839D02*
X1039819Y-17163220D01*
X1039819Y-17163220D02*
X1087438Y-17115601D01*
X1087438Y-17115601D02*
X1658866Y-17163220D01*
X1658866Y-17163220D02*
X1039819Y-17163220D01*
X1944580Y-16687030D02*
X1992200Y-16639411D01*
X1992200Y-16639411D02*
X2039819Y-16687030D01*
X2039819Y-16687030D02*
X1992200Y-16734649D01*
X1992200Y-16734649D02*
X1944580Y-16687030D01*
X1944580Y-16687030D02*
X2039819Y-16687030D01*
X1658866Y-16687030D02*
X1087438Y-16734649D01*
X1087438Y-16734649D02*
X1039819Y-16687030D01*
X1039819Y-16687030D02*
X1087438Y-16639411D01*
X1087438Y-16639411D02*
X1658866Y-16687030D01*
X1658866Y-16687030D02*
X1039819Y-16687030D01*
X1944580Y-16210840D02*
X1992200Y-16163221D01*
X1992200Y-16163221D02*
X2039819Y-16210840D01*
X2039819Y-16210840D02*
X1992200Y-16258459D01*
X1992200Y-16258459D02*
X1944580Y-16210840D01*
X1944580Y-16210840D02*
X2039819Y-16210840D01*
X1658866Y-16210840D02*
X1087438Y-16258459D01*
X1087438Y-16258459D02*
X1039819Y-16210840D01*
X1039819Y-16210840D02*
X1087438Y-16163221D01*
X1087438Y-16163221D02*
X1658866Y-16210840D01*
X1658866Y-16210840D02*
X1039819Y-16210840D01*
X2649763Y-17306077D02*
X2649763Y-16734649D01*
X3649763Y-17020363D02*
X2649763Y-17020363D01*
X3649763Y-16401315D02*
X2983096Y-16401315D01*
X3173572Y-16401315D02*
X3078334Y-16353696D01*
X3078334Y-16353696D02*
X3030715Y-16306077D01*
X3030715Y-16306077D02*
X2983096Y-16210839D01*
X2983096Y-16210839D02*
X2983096Y-16115601D01*
X3649763Y-15782267D02*
X2983096Y-15782267D01*
X2649763Y-15782267D02*
X2697382Y-15829886D01*
X2697382Y-15829886D02*
X2745001Y-15782267D01*
X2745001Y-15782267D02*
X2697382Y-15734648D01*
X2697382Y-15734648D02*
X2649763Y-15782267D01*
X2649763Y-15782267D02*
X2745001Y-15782267D01*
X3649763Y-15163220D02*
X3602144Y-15258458D01*
X3602144Y-15258458D02*
X3554524Y-15306077D01*
X3554524Y-15306077D02*
X3459286Y-15353696D01*
X3459286Y-15353696D02*
X3173572Y-15353696D01*
X3173572Y-15353696D02*
X3078334Y-15306077D01*
X3078334Y-15306077D02*
X3030715Y-15258458D01*
X3030715Y-15258458D02*
X2983096Y-15163220D01*
X2983096Y-15163220D02*
X2983096Y-15020363D01*
X2983096Y-15020363D02*
X3030715Y-14925125D01*
X3030715Y-14925125D02*
X3078334Y-14877506D01*
X3078334Y-14877506D02*
X3173572Y-14829887D01*
X3173572Y-14829887D02*
X3459286Y-14829887D01*
X3459286Y-14829887D02*
X3554524Y-14877506D01*
X3554524Y-14877506D02*
X3602144Y-14925125D01*
X3602144Y-14925125D02*
X3649763Y-15020363D01*
X3649763Y-15020363D02*
X3649763Y-15163220D01*
X3649763Y-13972744D02*
X2649763Y-13972744D01*
X3602144Y-13972744D02*
X3649763Y-14067982D01*
X3649763Y-14067982D02*
X3649763Y-14258458D01*
X3649763Y-14258458D02*
X3602144Y-14353696D01*
X3602144Y-14353696D02*
X3554524Y-14401315D01*
X3554524Y-14401315D02*
X3459286Y-14448934D01*
X3459286Y-14448934D02*
X3173572Y-14448934D01*
X3173572Y-14448934D02*
X3078334Y-14401315D01*
X3078334Y-14401315D02*
X3030715Y-14353696D01*
X3030715Y-14353696D02*
X2983096Y-14258458D01*
X2983096Y-14258458D02*
X2983096Y-14067982D01*
X2983096Y-14067982D02*
X3030715Y-13972744D01*
X3602144Y-13115601D02*
X3649763Y-13210839D01*
X3649763Y-13210839D02*
X3649763Y-13401315D01*
X3649763Y-13401315D02*
X3602144Y-13496553D01*
X3602144Y-13496553D02*
X3506905Y-13544172D01*
X3506905Y-13544172D02*
X3125953Y-13544172D01*
X3125953Y-13544172D02*
X3030715Y-13496553D01*
X3030715Y-13496553D02*
X2983096Y-13401315D01*
X2983096Y-13401315D02*
X2983096Y-13210839D01*
X2983096Y-13210839D02*
X3030715Y-13115601D01*
X3030715Y-13115601D02*
X3125953Y-13067982D01*
X3125953Y-13067982D02*
X3221191Y-13067982D01*
X3221191Y-13067982D02*
X3316429Y-13544172D01*
X3554524Y-12639410D02*
X3602144Y-12591791D01*
X3602144Y-12591791D02*
X3649763Y-12639410D01*
X3649763Y-12639410D02*
X3602144Y-12687029D01*
X3602144Y-12687029D02*
X3554524Y-12639410D01*
X3554524Y-12639410D02*
X3649763Y-12639410D01*
X3030715Y-12639410D02*
X3078334Y-12591791D01*
X3078334Y-12591791D02*
X3125953Y-12639410D01*
X3125953Y-12639410D02*
X3078334Y-12687029D01*
X3078334Y-12687029D02*
X3030715Y-12639410D01*
X3030715Y-12639410D02*
X3125953Y-12639410D01*
X2649763Y-11115601D02*
X3364048Y-11115601D01*
X3364048Y-11115601D02*
X3506905Y-11163220D01*
X3506905Y-11163220D02*
X3602144Y-11258458D01*
X3602144Y-11258458D02*
X3649763Y-11401315D01*
X3649763Y-11401315D02*
X3649763Y-11496553D01*
X3649763Y-10639410D02*
X2983096Y-10639410D01*
X3078334Y-10639410D02*
X3030715Y-10591791D01*
X3030715Y-10591791D02*
X2983096Y-10496553D01*
X2983096Y-10496553D02*
X2983096Y-10353696D01*
X2983096Y-10353696D02*
X3030715Y-10258458D01*
X3030715Y-10258458D02*
X3125953Y-10210839D01*
X3125953Y-10210839D02*
X3649763Y-10210839D01*
X3125953Y-10210839D02*
X3030715Y-10163220D01*
X3030715Y-10163220D02*
X2983096Y-10067982D01*
X2983096Y-10067982D02*
X2983096Y-9925125D01*
X2983096Y-9925125D02*
X3030715Y-9829886D01*
X3030715Y-9829886D02*
X3125953Y-9782267D01*
X3125953Y-9782267D02*
X3649763Y-9782267D01*
X2983096Y-9306077D02*
X3983096Y-9306077D01*
X3030715Y-9306077D02*
X2983096Y-9210839D01*
X2983096Y-9210839D02*
X2983096Y-9020363D01*
X2983096Y-9020363D02*
X3030715Y-8925125D01*
X3030715Y-8925125D02*
X3078334Y-8877506D01*
X3078334Y-8877506D02*
X3173572Y-8829887D01*
X3173572Y-8829887D02*
X3459286Y-8829887D01*
X3459286Y-8829887D02*
X3554524Y-8877506D01*
X3554524Y-8877506D02*
X3602144Y-8925125D01*
X3602144Y-8925125D02*
X3649763Y-9020363D01*
X3649763Y-9020363D02*
X3649763Y-9210839D01*
X3649763Y-9210839D02*
X3602144Y-9306077D01*
X3649763Y-8401315D02*
X2983096Y-8401315D01*
X3173572Y-8401315D02*
X3078334Y-8353696D01*
X3078334Y-8353696D02*
X3030715Y-8306077D01*
X3030715Y-8306077D02*
X2983096Y-8210839D01*
X2983096Y-8210839D02*
X2983096Y-8115601D01*
X3649763Y-6448934D02*
X3173572Y-6782267D01*
X3649763Y-7020362D02*
X2649763Y-7020362D01*
X2649763Y-7020362D02*
X2649763Y-6639410D01*
X2649763Y-6639410D02*
X2697382Y-6544172D01*
X2697382Y-6544172D02*
X2745001Y-6496553D01*
X2745001Y-6496553D02*
X2840239Y-6448934D01*
X2840239Y-6448934D02*
X2983096Y-6448934D01*
X2983096Y-6448934D02*
X3078334Y-6496553D01*
X3078334Y-6496553D02*
X3125953Y-6544172D01*
X3125953Y-6544172D02*
X3173572Y-6639410D01*
X3173572Y-6639410D02*
X3173572Y-7020362D01*
X2983096Y-5591791D02*
X3649763Y-5591791D01*
X2602144Y-5829886D02*
X3316429Y-6067981D01*
X3316429Y-6067981D02*
X3316429Y-5448934D01*
X5259707Y-17163220D02*
X4259707Y-17163220D01*
X4259707Y-17163220D02*
X4259707Y-16782268D01*
X4259707Y-16782268D02*
X4307326Y-16687030D01*
X4307326Y-16687030D02*
X4354945Y-16639411D01*
X4354945Y-16639411D02*
X4450183Y-16591792D01*
X4450183Y-16591792D02*
X4593040Y-16591792D01*
X4593040Y-16591792D02*
X4688278Y-16639411D01*
X4688278Y-16639411D02*
X4735897Y-16687030D01*
X4735897Y-16687030D02*
X4783516Y-16782268D01*
X4783516Y-16782268D02*
X4783516Y-17163220D01*
X5212088Y-15782268D02*
X5259707Y-15877506D01*
X5259707Y-15877506D02*
X5259707Y-16067982D01*
X5259707Y-16067982D02*
X5212088Y-16163220D01*
X5212088Y-16163220D02*
X5116849Y-16210839D01*
X5116849Y-16210839D02*
X4735897Y-16210839D01*
X4735897Y-16210839D02*
X4640659Y-16163220D01*
X4640659Y-16163220D02*
X4593040Y-16067982D01*
X4593040Y-16067982D02*
X4593040Y-15877506D01*
X4593040Y-15877506D02*
X4640659Y-15782268D01*
X4640659Y-15782268D02*
X4735897Y-15734649D01*
X4735897Y-15734649D02*
X4831135Y-15734649D01*
X4831135Y-15734649D02*
X4926373Y-16210839D01*
X4593040Y-15306077D02*
X5259707Y-15306077D01*
X4688278Y-15306077D02*
X4640659Y-15258458D01*
X4640659Y-15258458D02*
X4593040Y-15163220D01*
X4593040Y-15163220D02*
X4593040Y-15020363D01*
X4593040Y-15020363D02*
X4640659Y-14925125D01*
X4640659Y-14925125D02*
X4735897Y-14877506D01*
X4735897Y-14877506D02*
X5259707Y-14877506D01*
X4593040Y-14544172D02*
X4593040Y-14163220D01*
X4259707Y-14401315D02*
X5116849Y-14401315D01*
X5116849Y-14401315D02*
X5212088Y-14353696D01*
X5212088Y-14353696D02*
X5259707Y-14258458D01*
X5259707Y-14258458D02*
X5259707Y-14163220D01*
X5259707Y-13687029D02*
X5212088Y-13782267D01*
X5212088Y-13782267D02*
X5164468Y-13829886D01*
X5164468Y-13829886D02*
X5069230Y-13877505D01*
X5069230Y-13877505D02*
X4783516Y-13877505D01*
X4783516Y-13877505D02*
X4688278Y-13829886D01*
X4688278Y-13829886D02*
X4640659Y-13782267D01*
X4640659Y-13782267D02*
X4593040Y-13687029D01*
X4593040Y-13687029D02*
X4593040Y-13544172D01*
X4593040Y-13544172D02*
X4640659Y-13448934D01*
X4640659Y-13448934D02*
X4688278Y-13401315D01*
X4688278Y-13401315D02*
X4783516Y-13353696D01*
X4783516Y-13353696D02*
X5069230Y-13353696D01*
X5069230Y-13353696D02*
X5164468Y-13401315D01*
X5164468Y-13401315D02*
X5212088Y-13448934D01*
X5212088Y-13448934D02*
X5259707Y-13544172D01*
X5259707Y-13544172D02*
X5259707Y-13687029D01*
X5259707Y-12496553D02*
X4259707Y-12496553D01*
X5212088Y-12496553D02*
X5259707Y-12591791D01*
X5259707Y-12591791D02*
X5259707Y-12782267D01*
X5259707Y-12782267D02*
X5212088Y-12877505D01*
X5212088Y-12877505D02*
X5164468Y-12925124D01*
X5164468Y-12925124D02*
X5069230Y-12972743D01*
X5069230Y-12972743D02*
X4783516Y-12972743D01*
X4783516Y-12972743D02*
X4688278Y-12925124D01*
X4688278Y-12925124D02*
X4640659Y-12877505D01*
X4640659Y-12877505D02*
X4593040Y-12782267D01*
X4593040Y-12782267D02*
X4593040Y-12591791D01*
X4593040Y-12591791D02*
X4640659Y-12496553D01*
X5212088Y-11639410D02*
X5259707Y-11734648D01*
X5259707Y-11734648D02*
X5259707Y-11925124D01*
X5259707Y-11925124D02*
X5212088Y-12020362D01*
X5212088Y-12020362D02*
X5116849Y-12067981D01*
X5116849Y-12067981D02*
X4735897Y-12067981D01*
X4735897Y-12067981D02*
X4640659Y-12020362D01*
X4640659Y-12020362D02*
X4593040Y-11925124D01*
X4593040Y-11925124D02*
X4593040Y-11734648D01*
X4593040Y-11734648D02*
X4640659Y-11639410D01*
X4640659Y-11639410D02*
X4735897Y-11591791D01*
X4735897Y-11591791D02*
X4831135Y-11591791D01*
X4831135Y-11591791D02*
X4926373Y-12067981D01*
X5164468Y-11163219D02*
X5212088Y-11115600D01*
X5212088Y-11115600D02*
X5259707Y-11163219D01*
X5259707Y-11163219D02*
X5212088Y-11210838D01*
X5212088Y-11210838D02*
X5164468Y-11163219D01*
X5164468Y-11163219D02*
X5259707Y-11163219D01*
X4640659Y-11163219D02*
X4688278Y-11115600D01*
X4688278Y-11115600D02*
X4735897Y-11163219D01*
X4735897Y-11163219D02*
X4688278Y-11210838D01*
X4688278Y-11210838D02*
X4640659Y-11163219D01*
X4640659Y-11163219D02*
X4735897Y-11163219D01*
X6488698Y-15639410D02*
X6488698Y-14877506D01*
X6869651Y-13067982D02*
X6393460Y-13401315D01*
X6869651Y-13639410D02*
X5869651Y-13639410D01*
X5869651Y-13639410D02*
X5869651Y-13258458D01*
X5869651Y-13258458D02*
X5917270Y-13163220D01*
X5917270Y-13163220D02*
X5964889Y-13115601D01*
X5964889Y-13115601D02*
X6060127Y-13067982D01*
X6060127Y-13067982D02*
X6202984Y-13067982D01*
X6202984Y-13067982D02*
X6298222Y-13115601D01*
X6298222Y-13115601D02*
X6345841Y-13163220D01*
X6345841Y-13163220D02*
X6393460Y-13258458D01*
X6393460Y-13258458D02*
X6393460Y-13639410D01*
X6298222Y-12496553D02*
X6250603Y-12591791D01*
X6250603Y-12591791D02*
X6202984Y-12639410D01*
X6202984Y-12639410D02*
X6107746Y-12687029D01*
X6107746Y-12687029D02*
X6060127Y-12687029D01*
X6060127Y-12687029D02*
X5964889Y-12639410D01*
X5964889Y-12639410D02*
X5917270Y-12591791D01*
X5917270Y-12591791D02*
X5869651Y-12496553D01*
X5869651Y-12496553D02*
X5869651Y-12306077D01*
X5869651Y-12306077D02*
X5917270Y-12210839D01*
X5917270Y-12210839D02*
X5964889Y-12163220D01*
X5964889Y-12163220D02*
X6060127Y-12115601D01*
X6060127Y-12115601D02*
X6107746Y-12115601D01*
X6107746Y-12115601D02*
X6202984Y-12163220D01*
X6202984Y-12163220D02*
X6250603Y-12210839D01*
X6250603Y-12210839D02*
X6298222Y-12306077D01*
X6298222Y-12306077D02*
X6298222Y-12496553D01*
X6298222Y-12496553D02*
X6345841Y-12591791D01*
X6345841Y-12591791D02*
X6393460Y-12639410D01*
X6393460Y-12639410D02*
X6488698Y-12687029D01*
X6488698Y-12687029D02*
X6679174Y-12687029D01*
X6679174Y-12687029D02*
X6774412Y-12639410D01*
X6774412Y-12639410D02*
X6822032Y-12591791D01*
X6822032Y-12591791D02*
X6869651Y-12496553D01*
X6869651Y-12496553D02*
X6869651Y-12306077D01*
X6869651Y-12306077D02*
X6822032Y-12210839D01*
X6822032Y-12210839D02*
X6774412Y-12163220D01*
X6774412Y-12163220D02*
X6679174Y-12115601D01*
X6679174Y-12115601D02*
X6488698Y-12115601D01*
X6488698Y-12115601D02*
X6393460Y-12163220D01*
X6393460Y-12163220D02*
X6345841Y-12210839D01*
X6345841Y-12210839D02*
X6298222Y-12306077D01*
X6202984Y-11067981D02*
X6202984Y-10687029D01*
X5869651Y-10925124D02*
X6726793Y-10925124D01*
X6726793Y-10925124D02*
X6822032Y-10877505D01*
X6822032Y-10877505D02*
X6869651Y-10782267D01*
X6869651Y-10782267D02*
X6869651Y-10687029D01*
X6869651Y-10210838D02*
X6822032Y-10306076D01*
X6822032Y-10306076D02*
X6774412Y-10353695D01*
X6774412Y-10353695D02*
X6679174Y-10401314D01*
X6679174Y-10401314D02*
X6393460Y-10401314D01*
X6393460Y-10401314D02*
X6298222Y-10353695D01*
X6298222Y-10353695D02*
X6250603Y-10306076D01*
X6250603Y-10306076D02*
X6202984Y-10210838D01*
X6202984Y-10210838D02*
X6202984Y-10067981D01*
X6202984Y-10067981D02*
X6250603Y-9972743D01*
X6250603Y-9972743D02*
X6298222Y-9925124D01*
X6298222Y-9925124D02*
X6393460Y-9877505D01*
X6393460Y-9877505D02*
X6679174Y-9877505D01*
X6679174Y-9877505D02*
X6774412Y-9925124D01*
X6774412Y-9925124D02*
X6822032Y-9972743D01*
X6822032Y-9972743D02*
X6869651Y-10067981D01*
X6869651Y-10067981D02*
X6869651Y-10210838D01*
X6345841Y-8353695D02*
X6393460Y-8210838D01*
X6393460Y-8210838D02*
X6441079Y-8163219D01*
X6441079Y-8163219D02*
X6536317Y-8115600D01*
X6536317Y-8115600D02*
X6679174Y-8115600D01*
X6679174Y-8115600D02*
X6774412Y-8163219D01*
X6774412Y-8163219D02*
X6822032Y-8210838D01*
X6822032Y-8210838D02*
X6869651Y-8306076D01*
X6869651Y-8306076D02*
X6869651Y-8687028D01*
X6869651Y-8687028D02*
X5869651Y-8687028D01*
X5869651Y-8687028D02*
X5869651Y-8353695D01*
X5869651Y-8353695D02*
X5917270Y-8258457D01*
X5917270Y-8258457D02*
X5964889Y-8210838D01*
X5964889Y-8210838D02*
X6060127Y-8163219D01*
X6060127Y-8163219D02*
X6155365Y-8163219D01*
X6155365Y-8163219D02*
X6250603Y-8210838D01*
X6250603Y-8210838D02*
X6298222Y-8258457D01*
X6298222Y-8258457D02*
X6345841Y-8353695D01*
X6345841Y-8353695D02*
X6345841Y-8687028D01*
X6488698Y-7687028D02*
X6488698Y-6925124D01*
X6869651Y-7306076D02*
X6107746Y-7306076D01*
X8098642Y-15639410D02*
X8098642Y-14877506D01*
X8479595Y-13067982D02*
X8003404Y-13401315D01*
X8479595Y-13639410D02*
X7479595Y-13639410D01*
X7479595Y-13639410D02*
X7479595Y-13258458D01*
X7479595Y-13258458D02*
X7527214Y-13163220D01*
X7527214Y-13163220D02*
X7574833Y-13115601D01*
X7574833Y-13115601D02*
X7670071Y-13067982D01*
X7670071Y-13067982D02*
X7812928Y-13067982D01*
X7812928Y-13067982D02*
X7908166Y-13115601D01*
X7908166Y-13115601D02*
X7955785Y-13163220D01*
X7955785Y-13163220D02*
X8003404Y-13258458D01*
X8003404Y-13258458D02*
X8003404Y-13639410D01*
X7479595Y-12163220D02*
X7479595Y-12639410D01*
X7479595Y-12639410D02*
X7955785Y-12687029D01*
X7955785Y-12687029D02*
X7908166Y-12639410D01*
X7908166Y-12639410D02*
X7860547Y-12544172D01*
X7860547Y-12544172D02*
X7860547Y-12306077D01*
X7860547Y-12306077D02*
X7908166Y-12210839D01*
X7908166Y-12210839D02*
X7955785Y-12163220D01*
X7955785Y-12163220D02*
X8051023Y-12115601D01*
X8051023Y-12115601D02*
X8289118Y-12115601D01*
X8289118Y-12115601D02*
X8384356Y-12163220D01*
X8384356Y-12163220D02*
X8431976Y-12210839D01*
X8431976Y-12210839D02*
X8479595Y-12306077D01*
X8479595Y-12306077D02*
X8479595Y-12544172D01*
X8479595Y-12544172D02*
X8431976Y-12639410D01*
X8431976Y-12639410D02*
X8384356Y-12687029D01*
X7812928Y-11067981D02*
X7812928Y-10687029D01*
X7479595Y-10925124D02*
X8336737Y-10925124D01*
X8336737Y-10925124D02*
X8431976Y-10877505D01*
X8431976Y-10877505D02*
X8479595Y-10782267D01*
X8479595Y-10782267D02*
X8479595Y-10687029D01*
X8479595Y-10210838D02*
X8431976Y-10306076D01*
X8431976Y-10306076D02*
X8384356Y-10353695D01*
X8384356Y-10353695D02*
X8289118Y-10401314D01*
X8289118Y-10401314D02*
X8003404Y-10401314D01*
X8003404Y-10401314D02*
X7908166Y-10353695D01*
X7908166Y-10353695D02*
X7860547Y-10306076D01*
X7860547Y-10306076D02*
X7812928Y-10210838D01*
X7812928Y-10210838D02*
X7812928Y-10067981D01*
X7812928Y-10067981D02*
X7860547Y-9972743D01*
X7860547Y-9972743D02*
X7908166Y-9925124D01*
X7908166Y-9925124D02*
X8003404Y-9877505D01*
X8003404Y-9877505D02*
X8289118Y-9877505D01*
X8289118Y-9877505D02*
X8384356Y-9925124D01*
X8384356Y-9925124D02*
X8431976Y-9972743D01*
X8431976Y-9972743D02*
X8479595Y-10067981D01*
X8479595Y-10067981D02*
X8479595Y-10210838D01*
X7527214Y-8163219D02*
X7479595Y-8258457D01*
X7479595Y-8258457D02*
X7479595Y-8401314D01*
X7479595Y-8401314D02*
X7527214Y-8544171D01*
X7527214Y-8544171D02*
X7622452Y-8639409D01*
X7622452Y-8639409D02*
X7717690Y-8687028D01*
X7717690Y-8687028D02*
X7908166Y-8734647D01*
X7908166Y-8734647D02*
X8051023Y-8734647D01*
X8051023Y-8734647D02*
X8241499Y-8687028D01*
X8241499Y-8687028D02*
X8336737Y-8639409D01*
X8336737Y-8639409D02*
X8431976Y-8544171D01*
X8431976Y-8544171D02*
X8479595Y-8401314D01*
X8479595Y-8401314D02*
X8479595Y-8306076D01*
X8479595Y-8306076D02*
X8431976Y-8163219D01*
X8431976Y-8163219D02*
X8384356Y-8115600D01*
X8384356Y-8115600D02*
X8051023Y-8115600D01*
X8051023Y-8115600D02*
X8051023Y-8306076D01*
X8479595Y-7687028D02*
X7479595Y-7687028D01*
X7479595Y-7687028D02*
X8479595Y-7115600D01*
X8479595Y-7115600D02*
X7479595Y-7115600D01*
X8479595Y-6639409D02*
X7479595Y-6639409D01*
X7479595Y-6639409D02*
X7479595Y-6401314D01*
X7479595Y-6401314D02*
X7527214Y-6258457D01*
X7527214Y-6258457D02*
X7622452Y-6163219D01*
X7622452Y-6163219D02*
X7717690Y-6115600D01*
X7717690Y-6115600D02*
X7908166Y-6067981D01*
X7908166Y-6067981D02*
X8051023Y-6067981D01*
X8051023Y-6067981D02*
X8241499Y-6115600D01*
X8241499Y-6115600D02*
X8336737Y-6163219D01*
X8336737Y-6163219D02*
X8431976Y-6258457D01*
X8431976Y-6258457D02*
X8479595Y-6401314D01*
X8479595Y-6401314D02*
X8479595Y-6639409D01*
X19115601Y-57917438D02*
X19020363Y-57869819D01*
X19020363Y-57869819D02*
X18877506Y-57869819D01*
X18877506Y-57869819D02*
X18734649Y-57917438D01*
X18734649Y-57917438D02*
X18639411Y-58012676D01*
X18639411Y-58012676D02*
X18591792Y-58107914D01*
X18591792Y-58107914D02*
X18544173Y-58298390D01*
X18544173Y-58298390D02*
X18544173Y-58441247D01*
X18544173Y-58441247D02*
X18591792Y-58631723D01*
X18591792Y-58631723D02*
X18639411Y-58726961D01*
X18639411Y-58726961D02*
X18734649Y-58822200D01*
X18734649Y-58822200D02*
X18877506Y-58869819D01*
X18877506Y-58869819D02*
X18972744Y-58869819D01*
X18972744Y-58869819D02*
X19115601Y-58822200D01*
X19115601Y-58822200D02*
X19163220Y-58774580D01*
X19163220Y-58774580D02*
X19163220Y-58441247D01*
X19163220Y-58441247D02*
X18972744Y-58441247D01*
X19591792Y-58869819D02*
X19591792Y-57869819D01*
X19591792Y-57869819D02*
X20163220Y-58869819D01*
X20163220Y-58869819D02*
X20163220Y-57869819D01*
X20639411Y-58869819D02*
X20639411Y-57869819D01*
X20639411Y-57869819D02*
X20877506Y-57869819D01*
X20877506Y-57869819D02*
X21020363Y-57917438D01*
X21020363Y-57917438D02*
X21115601Y-58012676D01*
X21115601Y-58012676D02*
X21163220Y-58107914D01*
X21163220Y-58107914D02*
X21210839Y-58298390D01*
X21210839Y-58298390D02*
X21210839Y-58441247D01*
X21210839Y-58441247D02*
X21163220Y-58631723D01*
X21163220Y-58631723D02*
X21115601Y-58726961D01*
X21115601Y-58726961D02*
X21020363Y-58822200D01*
X21020363Y-58822200D02*
X20877506Y-58869819D01*
X20877506Y-58869819D02*
X20639411Y-58869819D01*
X29869819Y-12551065D02*
X30584104Y-12551065D01*
X30584104Y-12551065D02*
X30726961Y-12598684D01*
X30726961Y-12598684D02*
X30822200Y-12693922D01*
X30822200Y-12693922D02*
X30869819Y-12836779D01*
X30869819Y-12836779D02*
X30869819Y-12932017D01*
X30584104Y-12122493D02*
X30584104Y-11646303D01*
X30869819Y-12217731D02*
X29869819Y-11884398D01*
X29869819Y-11884398D02*
X30869819Y-11551065D01*
X30869819Y-11217731D02*
X29869819Y-11217731D01*
X29869819Y-11217731D02*
X30869819Y-10646303D01*
X30869819Y-10646303D02*
X29869819Y-10646303D01*
X29869819Y-9741541D02*
X29869819Y-9932017D01*
X29869819Y-9932017D02*
X29917438Y-10027255D01*
X29917438Y-10027255D02*
X29965057Y-10074874D01*
X29965057Y-10074874D02*
X30107914Y-10170112D01*
X30107914Y-10170112D02*
X30298390Y-10217731D01*
X30298390Y-10217731D02*
X30679342Y-10217731D01*
X30679342Y-10217731D02*
X30774580Y-10170112D01*
X30774580Y-10170112D02*
X30822200Y-10122493D01*
X30822200Y-10122493D02*
X30869819Y-10027255D01*
X30869819Y-10027255D02*
X30869819Y-9836779D01*
X30869819Y-9836779D02*
X30822200Y-9741541D01*
X30822200Y-9741541D02*
X30774580Y-9693922D01*
X30774580Y-9693922D02*
X30679342Y-9646303D01*
X30679342Y-9646303D02*
X30441247Y-9646303D01*
X30441247Y-9646303D02*
X30346009Y-9693922D01*
X30346009Y-9693922D02*
X30298390Y-9741541D01*
X30298390Y-9741541D02*
X30250771Y-9836779D01*
X30250771Y-9836779D02*
X30250771Y-10027255D01*
X30250771Y-10027255D02*
X30298390Y-10122493D01*
X30298390Y-10122493D02*
X30346009Y-10170112D01*
X30346009Y-10170112D02*
X30441247Y-10217731D01*
X30203152Y-8789160D02*
X30869819Y-8789160D01*
X29822200Y-9027255D02*
X30536485Y-9265350D01*
X30536485Y-9265350D02*
X30536485Y-8646303D01*
X30869819Y-7741541D02*
X30869819Y-8312969D01*
X30869819Y-8027255D02*
X29869819Y-8027255D01*
X29869819Y-8027255D02*
X30012676Y-8122493D01*
X30012676Y-8122493D02*
X30107914Y-8217731D01*
X30107914Y-8217731D02*
X30155533Y-8312969D01*
X30298390Y-7170112D02*
X30250771Y-7265350D01*
X30250771Y-7265350D02*
X30203152Y-7312969D01*
X30203152Y-7312969D02*
X30107914Y-7360588D01*
X30107914Y-7360588D02*
X30060295Y-7360588D01*
X30060295Y-7360588D02*
X29965057Y-7312969D01*
X29965057Y-7312969D02*
X29917438Y-7265350D01*
X29917438Y-7265350D02*
X29869819Y-7170112D01*
X29869819Y-7170112D02*
X29869819Y-6979636D01*
X29869819Y-6979636D02*
X29917438Y-6884398D01*
X29917438Y-6884398D02*
X29965057Y-6836779D01*
X29965057Y-6836779D02*
X30060295Y-6789160D01*
X30060295Y-6789160D02*
X30107914Y-6789160D01*
X30107914Y-6789160D02*
X30203152Y-6836779D01*
X30203152Y-6836779D02*
X30250771Y-6884398D01*
X30250771Y-6884398D02*
X30298390Y-6979636D01*
X30298390Y-6979636D02*
X30298390Y-7170112D01*
X30298390Y-7170112D02*
X30346009Y-7265350D01*
X30346009Y-7265350D02*
X30393628Y-7312969D01*
X30393628Y-7312969D02*
X30488866Y-7360588D01*
X30488866Y-7360588D02*
X30679342Y-7360588D01*
X30679342Y-7360588D02*
X30774580Y-7312969D01*
X30774580Y-7312969D02*
X30822200Y-7265350D01*
X30822200Y-7265350D02*
X30869819Y-7170112D01*
X30869819Y-7170112D02*
X30869819Y-6979636D01*
X30869819Y-6979636D02*
X30822200Y-6884398D01*
X30822200Y-6884398D02*
X30774580Y-6836779D01*
X30774580Y-6836779D02*
X30679342Y-6789160D01*
X30679342Y-6789160D02*
X30488866Y-6789160D01*
X30488866Y-6789160D02*
X30393628Y-6836779D01*
X30393628Y-6836779D02*
X30346009Y-6884398D01*
X30346009Y-6884398D02*
X30298390Y-6979636D01*
X30822200Y-6312969D02*
X30869819Y-6312969D01*
X30869819Y-6312969D02*
X30965057Y-6360588D01*
X30965057Y-6360588D02*
X31012676Y-6408207D01*
X30822200Y-4741541D02*
X30869819Y-4836779D01*
X30869819Y-4836779D02*
X30869819Y-5027255D01*
X30869819Y-5027255D02*
X30822200Y-5122493D01*
X30822200Y-5122493D02*
X30726961Y-5170112D01*
X30726961Y-5170112D02*
X30346009Y-5170112D01*
X30346009Y-5170112D02*
X30250771Y-5122493D01*
X30250771Y-5122493D02*
X30203152Y-5027255D01*
X30203152Y-5027255D02*
X30203152Y-4836779D01*
X30203152Y-4836779D02*
X30250771Y-4741541D01*
X30250771Y-4741541D02*
X30346009Y-4693922D01*
X30346009Y-4693922D02*
X30441247Y-4693922D01*
X30441247Y-4693922D02*
X30536485Y-5170112D01*
X30203152Y-4408207D02*
X30203152Y-4027255D01*
X29869819Y-4265350D02*
X30726961Y-4265350D01*
X30726961Y-4265350D02*
X30822200Y-4217731D01*
X30822200Y-4217731D02*
X30869819Y-4122493D01*
X30869819Y-4122493D02*
X30869819Y-4027255D01*
X30822200Y-3265350D02*
X30869819Y-3360588D01*
X30869819Y-3360588D02*
X30869819Y-3551064D01*
X30869819Y-3551064D02*
X30822200Y-3646302D01*
X30822200Y-3646302D02*
X30774580Y-3693921D01*
X30774580Y-3693921D02*
X30679342Y-3741540D01*
X30679342Y-3741540D02*
X30393628Y-3741540D01*
X30393628Y-3741540D02*
X30298390Y-3693921D01*
X30298390Y-3693921D02*
X30250771Y-3646302D01*
X30250771Y-3646302D02*
X30203152Y-3551064D01*
X30203152Y-3551064D02*
X30203152Y-3360588D01*
X30203152Y-3360588D02*
X30250771Y-3265350D01*
X30774580Y-2836778D02*
X30822200Y-2789159D01*
X30822200Y-2789159D02*
X30869819Y-2836778D01*
X30869819Y-2836778D02*
X30822200Y-2884397D01*
X30822200Y-2884397D02*
X30774580Y-2836778D01*
X30774580Y-2836778D02*
X30869819Y-2836778D01*
X37610588Y-47339223D02*
X37193922Y-46743985D01*
X36896303Y-47339223D02*
X36896303Y-46089223D01*
X36896303Y-46089223D02*
X37372493Y-46089223D01*
X37372493Y-46089223D02*
X37491541Y-46148747D01*
X37491541Y-46148747D02*
X37551064Y-46208271D01*
X37551064Y-46208271D02*
X37610588Y-46327319D01*
X37610588Y-46327319D02*
X37610588Y-46505890D01*
X37610588Y-46505890D02*
X37551064Y-46624938D01*
X37551064Y-46624938D02*
X37491541Y-46684461D01*
X37491541Y-46684461D02*
X37372493Y-46743985D01*
X37372493Y-46743985D02*
X36896303Y-46743985D01*
X37848684Y-47458271D02*
X38801064Y-47458271D01*
X39634398Y-47339223D02*
X39634398Y-46684461D01*
X39634398Y-46684461D02*
X39574874Y-46565414D01*
X39574874Y-46565414D02*
X39455826Y-46505890D01*
X39455826Y-46505890D02*
X39217731Y-46505890D01*
X39217731Y-46505890D02*
X39098684Y-46565414D01*
X39634398Y-47279700D02*
X39515350Y-47339223D01*
X39515350Y-47339223D02*
X39217731Y-47339223D01*
X39217731Y-47339223D02*
X39098684Y-47279700D01*
X39098684Y-47279700D02*
X39039160Y-47160652D01*
X39039160Y-47160652D02*
X39039160Y-47041604D01*
X39039160Y-47041604D02*
X39098684Y-46922557D01*
X39098684Y-46922557D02*
X39217731Y-46863033D01*
X39217731Y-46863033D02*
X39515350Y-46863033D01*
X39515350Y-46863033D02*
X39634398Y-46803509D01*
X19687969Y-35869819D02*
X19211779Y-35869819D01*
X19211779Y-35869819D02*
X19164160Y-36346009D01*
X19164160Y-36346009D02*
X19211779Y-36298390D01*
X19211779Y-36298390D02*
X19307017Y-36250771D01*
X19307017Y-36250771D02*
X19545112Y-36250771D01*
X19545112Y-36250771D02*
X19640350Y-36298390D01*
X19640350Y-36298390D02*
X19687969Y-36346009D01*
X19687969Y-36346009D02*
X19735588Y-36441247D01*
X19735588Y-36441247D02*
X19735588Y-36679342D01*
X19735588Y-36679342D02*
X19687969Y-36774580D01*
X19687969Y-36774580D02*
X19640350Y-36822200D01*
X19640350Y-36822200D02*
X19545112Y-36869819D01*
X19545112Y-36869819D02*
X19307017Y-36869819D01*
X19307017Y-36869819D02*
X19211779Y-36822200D01*
X19211779Y-36822200D02*
X19164160Y-36774580D01*
X952381Y-19407200D02*
X1095238Y-19454819D01*
X1095238Y-19454819D02*
X1333333Y-19454819D01*
X1333333Y-19454819D02*
X1428571Y-19407200D01*
X1428571Y-19407200D02*
X1476190Y-19359580D01*
X1476190Y-19359580D02*
X1523809Y-19264342D01*
X1523809Y-19264342D02*
X1523809Y-19169104D01*
X1523809Y-19169104D02*
X1476190Y-19073866D01*
X1476190Y-19073866D02*
X1428571Y-19026247D01*
X1428571Y-19026247D02*
X1333333Y-18978628D01*
X1333333Y-18978628D02*
X1142857Y-18931009D01*
X1142857Y-18931009D02*
X1047619Y-18883390D01*
X1047619Y-18883390D02*
X1000000Y-18835771D01*
X1000000Y-18835771D02*
X952381Y-18740533D01*
X952381Y-18740533D02*
X952381Y-18645295D01*
X952381Y-18645295D02*
X1000000Y-18550057D01*
X1000000Y-18550057D02*
X1047619Y-18502438D01*
X1047619Y-18502438D02*
X1142857Y-18454819D01*
X1142857Y-18454819D02*
X1380952Y-18454819D01*
X1380952Y-18454819D02*
X1523809Y-18502438D01*
X1952381Y-19454819D02*
X1952381Y-18788152D01*
X1952381Y-18454819D02*
X1904762Y-18502438D01*
X1904762Y-18502438D02*
X1952381Y-18550057D01*
X1952381Y-18550057D02*
X2000000Y-18502438D01*
X2000000Y-18502438D02*
X1952381Y-18454819D01*
X1952381Y-18454819D02*
X1952381Y-18550057D01*
X2857142Y-18788152D02*
X2857142Y-19597676D01*
X2857142Y-19597676D02*
X2809523Y-19692914D01*
X2809523Y-19692914D02*
X2761904Y-19740533D01*
X2761904Y-19740533D02*
X2666666Y-19788152D01*
X2666666Y-19788152D02*
X2523809Y-19788152D01*
X2523809Y-19788152D02*
X2428571Y-19740533D01*
X2857142Y-19407200D02*
X2761904Y-19454819D01*
X2761904Y-19454819D02*
X2571428Y-19454819D01*
X2571428Y-19454819D02*
X2476190Y-19407200D01*
X2476190Y-19407200D02*
X2428571Y-19359580D01*
X2428571Y-19359580D02*
X2380952Y-19264342D01*
X2380952Y-19264342D02*
X2380952Y-18978628D01*
X2380952Y-18978628D02*
X2428571Y-18883390D01*
X2428571Y-18883390D02*
X2476190Y-18835771D01*
X2476190Y-18835771D02*
X2571428Y-18788152D01*
X2571428Y-18788152D02*
X2761904Y-18788152D01*
X2761904Y-18788152D02*
X2857142Y-18835771D01*
X3095238Y-19550057D02*
X3857142Y-19550057D01*
X4095238Y-19454819D02*
X4095238Y-18454819D01*
X4571428Y-18788152D02*
X4571428Y-19454819D01*
X4571428Y-18883390D02*
X4619047Y-18835771D01*
X4619047Y-18835771D02*
X4714285Y-18788152D01*
X4714285Y-18788152D02*
X4857142Y-18788152D01*
X4857142Y-18788152D02*
X4952380Y-18835771D01*
X4952380Y-18835771D02*
X4999999Y-18931009D01*
X4999999Y-18931009D02*
X4999999Y-19454819D01*
X30139411Y-58488866D02*
X30901316Y-58488866D01*
X30520363Y-58869819D02*
X30520363Y-58107914D01*
X31282268Y-57869819D02*
X31901315Y-57869819D01*
X31901315Y-57869819D02*
X31567982Y-58250771D01*
X31567982Y-58250771D02*
X31710839Y-58250771D01*
X31710839Y-58250771D02*
X31806077Y-58298390D01*
X31806077Y-58298390D02*
X31853696Y-58346009D01*
X31853696Y-58346009D02*
X31901315Y-58441247D01*
X31901315Y-58441247D02*
X31901315Y-58679342D01*
X31901315Y-58679342D02*
X31853696Y-58774580D01*
X31853696Y-58774580D02*
X31806077Y-58822200D01*
X31806077Y-58822200D02*
X31710839Y-58869819D01*
X31710839Y-58869819D02*
X31425125Y-58869819D01*
X31425125Y-58869819D02*
X31329887Y-58822200D01*
X31329887Y-58822200D02*
X31282268Y-58774580D01*
X32520363Y-57869819D02*
X32615601Y-57869819D01*
X32615601Y-57869819D02*
X32710839Y-57917438D01*
X32710839Y-57917438D02*
X32758458Y-57965057D01*
X32758458Y-57965057D02*
X32806077Y-58060295D01*
X32806077Y-58060295D02*
X32853696Y-58250771D01*
X32853696Y-58250771D02*
X32853696Y-58488866D01*
X32853696Y-58488866D02*
X32806077Y-58679342D01*
X32806077Y-58679342D02*
X32758458Y-58774580D01*
X32758458Y-58774580D02*
X32710839Y-58822200D01*
X32710839Y-58822200D02*
X32615601Y-58869819D01*
X32615601Y-58869819D02*
X32520363Y-58869819D01*
X32520363Y-58869819D02*
X32425125Y-58822200D01*
X32425125Y-58822200D02*
X32377506Y-58774580D01*
X32377506Y-58774580D02*
X32329887Y-58679342D01*
X32329887Y-58679342D02*
X32282268Y-58488866D01*
X32282268Y-58488866D02*
X32282268Y-58250771D01*
X32282268Y-58250771D02*
X32329887Y-58060295D01*
X32329887Y-58060295D02*
X32377506Y-57965057D01*
X32377506Y-57965057D02*
X32425125Y-57917438D01*
X32425125Y-57917438D02*
X32520363Y-57869819D01*
X33139411Y-57869819D02*
X33472744Y-58869819D01*
X33472744Y-58869819D02*
X33806077Y-57869819D01*
X21539819Y-31139411D02*
X21539819Y-31710839D01*
X21539819Y-31425125D02*
X20539819Y-31425125D01*
X20539819Y-31425125D02*
X20682676Y-31520363D01*
X20682676Y-31520363D02*
X20777914Y-31615601D01*
X20777914Y-31615601D02*
X20825533Y-31710839D01*
X21444580Y-30710839D02*
X21492200Y-30663220D01*
X21492200Y-30663220D02*
X21539819Y-30710839D01*
X21539819Y-30710839D02*
X21492200Y-30758458D01*
X21492200Y-30758458D02*
X21444580Y-30710839D01*
X21444580Y-30710839D02*
X21539819Y-30710839D01*
X21016009Y-29139411D02*
X21063628Y-28996554D01*
X21063628Y-28996554D02*
X21111247Y-28948935D01*
X21111247Y-28948935D02*
X21206485Y-28901316D01*
X21206485Y-28901316D02*
X21349342Y-28901316D01*
X21349342Y-28901316D02*
X21444580Y-28948935D01*
X21444580Y-28948935D02*
X21492200Y-28996554D01*
X21492200Y-28996554D02*
X21539819Y-29091792D01*
X21539819Y-29091792D02*
X21539819Y-29472744D01*
X21539819Y-29472744D02*
X20539819Y-29472744D01*
X20539819Y-29472744D02*
X20539819Y-29139411D01*
X20539819Y-29139411D02*
X20587438Y-29044173D01*
X20587438Y-29044173D02*
X20635057Y-28996554D01*
X20635057Y-28996554D02*
X20730295Y-28948935D01*
X20730295Y-28948935D02*
X20825533Y-28948935D01*
X20825533Y-28948935D02*
X20920771Y-28996554D01*
X20920771Y-28996554D02*
X20968390Y-29044173D01*
X20968390Y-29044173D02*
X21016009Y-29139411D01*
X21016009Y-29139411D02*
X21016009Y-29472744D01*
X21158866Y-28472744D02*
X21158866Y-27710840D01*
X21539819Y-28091792D02*
X20777914Y-28091792D01*
X22245001Y-31710839D02*
X22197382Y-31663220D01*
X22197382Y-31663220D02*
X22149763Y-31567982D01*
X22149763Y-31567982D02*
X22149763Y-31329887D01*
X22149763Y-31329887D02*
X22197382Y-31234649D01*
X22197382Y-31234649D02*
X22245001Y-31187030D01*
X22245001Y-31187030D02*
X22340239Y-31139411D01*
X22340239Y-31139411D02*
X22435477Y-31139411D01*
X22435477Y-31139411D02*
X22578334Y-31187030D01*
X22578334Y-31187030D02*
X23149763Y-31758458D01*
X23149763Y-31758458D02*
X23149763Y-31139411D01*
X23054524Y-30710839D02*
X23102144Y-30663220D01*
X23102144Y-30663220D02*
X23149763Y-30710839D01*
X23149763Y-30710839D02*
X23102144Y-30758458D01*
X23102144Y-30758458D02*
X23054524Y-30710839D01*
X23054524Y-30710839D02*
X23149763Y-30710839D01*
X23102144Y-29520363D02*
X23149763Y-29377506D01*
X23149763Y-29377506D02*
X23149763Y-29139411D01*
X23149763Y-29139411D02*
X23102144Y-29044173D01*
X23102144Y-29044173D02*
X23054524Y-28996554D01*
X23054524Y-28996554D02*
X22959286Y-28948935D01*
X22959286Y-28948935D02*
X22864048Y-28948935D01*
X22864048Y-28948935D02*
X22768810Y-28996554D01*
X22768810Y-28996554D02*
X22721191Y-29044173D01*
X22721191Y-29044173D02*
X22673572Y-29139411D01*
X22673572Y-29139411D02*
X22625953Y-29329887D01*
X22625953Y-29329887D02*
X22578334Y-29425125D01*
X22578334Y-29425125D02*
X22530715Y-29472744D01*
X22530715Y-29472744D02*
X22435477Y-29520363D01*
X22435477Y-29520363D02*
X22340239Y-29520363D01*
X22340239Y-29520363D02*
X22245001Y-29472744D01*
X22245001Y-29472744D02*
X22197382Y-29425125D01*
X22197382Y-29425125D02*
X22149763Y-29329887D01*
X22149763Y-29329887D02*
X22149763Y-29091792D01*
X22149763Y-29091792D02*
X22197382Y-28948935D01*
X22245001Y-28567982D02*
X22197382Y-28520363D01*
X22197382Y-28520363D02*
X22149763Y-28425125D01*
X22149763Y-28425125D02*
X22149763Y-28187030D01*
X22149763Y-28187030D02*
X22197382Y-28091792D01*
X22197382Y-28091792D02*
X22245001Y-28044173D01*
X22245001Y-28044173D02*
X22340239Y-27996554D01*
X22340239Y-27996554D02*
X22435477Y-27996554D01*
X22435477Y-27996554D02*
X22578334Y-28044173D01*
X22578334Y-28044173D02*
X23149763Y-28615601D01*
X23149763Y-28615601D02*
X23149763Y-27996554D01*
X23759707Y-31758458D02*
X23759707Y-31139411D01*
X23759707Y-31139411D02*
X24140659Y-31472744D01*
X24140659Y-31472744D02*
X24140659Y-31329887D01*
X24140659Y-31329887D02*
X24188278Y-31234649D01*
X24188278Y-31234649D02*
X24235897Y-31187030D01*
X24235897Y-31187030D02*
X24331135Y-31139411D01*
X24331135Y-31139411D02*
X24569230Y-31139411D01*
X24569230Y-31139411D02*
X24664468Y-31187030D01*
X24664468Y-31187030D02*
X24712088Y-31234649D01*
X24712088Y-31234649D02*
X24759707Y-31329887D01*
X24759707Y-31329887D02*
X24759707Y-31615601D01*
X24759707Y-31615601D02*
X24712088Y-31710839D01*
X24712088Y-31710839D02*
X24664468Y-31758458D01*
X24664468Y-30710839D02*
X24712088Y-30663220D01*
X24712088Y-30663220D02*
X24759707Y-30710839D01*
X24759707Y-30710839D02*
X24712088Y-30758458D01*
X24712088Y-30758458D02*
X24664468Y-30710839D01*
X24664468Y-30710839D02*
X24759707Y-30710839D01*
X23759707Y-29615601D02*
X24759707Y-29282268D01*
X24759707Y-29282268D02*
X23759707Y-28948935D01*
X24854945Y-28853697D02*
X24854945Y-28091792D01*
X24759707Y-27853696D02*
X23759707Y-27853696D01*
X24759707Y-27425125D02*
X24235897Y-27425125D01*
X24235897Y-27425125D02*
X24140659Y-27472744D01*
X24140659Y-27472744D02*
X24093040Y-27567982D01*
X24093040Y-27567982D02*
X24093040Y-27710839D01*
X24093040Y-27710839D02*
X24140659Y-27806077D01*
X24140659Y-27806077D02*
X24188278Y-27853696D01*
X24378754Y-26948934D02*
X24378754Y-26187030D01*
X24759707Y-26567982D02*
X23997802Y-26567982D01*
X25702984Y-31234649D02*
X26369651Y-31234649D01*
X25322032Y-31472744D02*
X26036317Y-31710839D01*
X26036317Y-31710839D02*
X26036317Y-31091792D01*
X26274412Y-30710839D02*
X26322032Y-30663220D01*
X26322032Y-30663220D02*
X26369651Y-30710839D01*
X26369651Y-30710839D02*
X26322032Y-30758458D01*
X26322032Y-30758458D02*
X26274412Y-30710839D01*
X26274412Y-30710839D02*
X26369651Y-30710839D01*
X26322032Y-29520363D02*
X26369651Y-29377506D01*
X26369651Y-29377506D02*
X26369651Y-29139411D01*
X26369651Y-29139411D02*
X26322032Y-29044173D01*
X26322032Y-29044173D02*
X26274412Y-28996554D01*
X26274412Y-28996554D02*
X26179174Y-28948935D01*
X26179174Y-28948935D02*
X26083936Y-28948935D01*
X26083936Y-28948935D02*
X25988698Y-28996554D01*
X25988698Y-28996554D02*
X25941079Y-29044173D01*
X25941079Y-29044173D02*
X25893460Y-29139411D01*
X25893460Y-29139411D02*
X25845841Y-29329887D01*
X25845841Y-29329887D02*
X25798222Y-29425125D01*
X25798222Y-29425125D02*
X25750603Y-29472744D01*
X25750603Y-29472744D02*
X25655365Y-29520363D01*
X25655365Y-29520363D02*
X25560127Y-29520363D01*
X25560127Y-29520363D02*
X25464889Y-29472744D01*
X25464889Y-29472744D02*
X25417270Y-29425125D01*
X25417270Y-29425125D02*
X25369651Y-29329887D01*
X25369651Y-29329887D02*
X25369651Y-29091792D01*
X25369651Y-29091792D02*
X25417270Y-28948935D01*
X26369651Y-27996554D02*
X26369651Y-28567982D01*
X26369651Y-28282268D02*
X25369651Y-28282268D01*
X25369651Y-28282268D02*
X25512508Y-28377506D01*
X25512508Y-28377506D02*
X25607746Y-28472744D01*
X25607746Y-28472744D02*
X25655365Y-28567982D01*
X26750603Y-26520363D02*
X26702984Y-26567982D01*
X26702984Y-26567982D02*
X26560127Y-26663220D01*
X26560127Y-26663220D02*
X26464889Y-26710839D01*
X26464889Y-26710839D02*
X26322032Y-26758458D01*
X26322032Y-26758458D02*
X26083936Y-26806077D01*
X26083936Y-26806077D02*
X25893460Y-26806077D01*
X25893460Y-26806077D02*
X25655365Y-26758458D01*
X25655365Y-26758458D02*
X25512508Y-26710839D01*
X25512508Y-26710839D02*
X25417270Y-26663220D01*
X25417270Y-26663220D02*
X25274412Y-26567982D01*
X25274412Y-26567982D02*
X25226793Y-26520363D01*
X26322032Y-26187029D02*
X26369651Y-26091791D01*
X26369651Y-26091791D02*
X26369651Y-25901315D01*
X26369651Y-25901315D02*
X26322032Y-25806077D01*
X26322032Y-25806077D02*
X26226793Y-25758458D01*
X26226793Y-25758458D02*
X26179174Y-25758458D01*
X26179174Y-25758458D02*
X26083936Y-25806077D01*
X26083936Y-25806077D02*
X26036317Y-25901315D01*
X26036317Y-25901315D02*
X26036317Y-26044172D01*
X26036317Y-26044172D02*
X25988698Y-26139410D01*
X25988698Y-26139410D02*
X25893460Y-26187029D01*
X25893460Y-26187029D02*
X25845841Y-26187029D01*
X25845841Y-26187029D02*
X25750603Y-26139410D01*
X25750603Y-26139410D02*
X25702984Y-26044172D01*
X25702984Y-26044172D02*
X25702984Y-25901315D01*
X25702984Y-25901315D02*
X25750603Y-25806077D01*
X26369651Y-25329886D02*
X25702984Y-25329886D01*
X25369651Y-25329886D02*
X25417270Y-25377505D01*
X25417270Y-25377505D02*
X25464889Y-25329886D01*
X25464889Y-25329886D02*
X25417270Y-25282267D01*
X25417270Y-25282267D02*
X25369651Y-25329886D01*
X25369651Y-25329886D02*
X25464889Y-25329886D01*
X25702984Y-24425125D02*
X26512508Y-24425125D01*
X26512508Y-24425125D02*
X26607746Y-24472744D01*
X26607746Y-24472744D02*
X26655365Y-24520363D01*
X26655365Y-24520363D02*
X26702984Y-24615601D01*
X26702984Y-24615601D02*
X26702984Y-24758458D01*
X26702984Y-24758458D02*
X26655365Y-24853696D01*
X26322032Y-24425125D02*
X26369651Y-24520363D01*
X26369651Y-24520363D02*
X26369651Y-24710839D01*
X26369651Y-24710839D02*
X26322032Y-24806077D01*
X26322032Y-24806077D02*
X26274412Y-24853696D01*
X26274412Y-24853696D02*
X26179174Y-24901315D01*
X26179174Y-24901315D02*
X25893460Y-24901315D01*
X25893460Y-24901315D02*
X25798222Y-24853696D01*
X25798222Y-24853696D02*
X25750603Y-24806077D01*
X25750603Y-24806077D02*
X25702984Y-24710839D01*
X25702984Y-24710839D02*
X25702984Y-24520363D01*
X25702984Y-24520363D02*
X25750603Y-24425125D01*
X26464889Y-24187030D02*
X26464889Y-23425125D01*
X26369651Y-23187029D02*
X25702984Y-23187029D01*
X25369651Y-23187029D02*
X25417270Y-23234648D01*
X25417270Y-23234648D02*
X25464889Y-23187029D01*
X25464889Y-23187029D02*
X25417270Y-23139410D01*
X25417270Y-23139410D02*
X25369651Y-23187029D01*
X25369651Y-23187029D02*
X25464889Y-23187029D01*
X25702984Y-22710839D02*
X26369651Y-22710839D01*
X25798222Y-22710839D02*
X25750603Y-22663220D01*
X25750603Y-22663220D02*
X25702984Y-22567982D01*
X25702984Y-22567982D02*
X25702984Y-22425125D01*
X25702984Y-22425125D02*
X25750603Y-22329887D01*
X25750603Y-22329887D02*
X25845841Y-22282268D01*
X25845841Y-22282268D02*
X26369651Y-22282268D01*
X26750603Y-21901315D02*
X26702984Y-21853696D01*
X26702984Y-21853696D02*
X26560127Y-21758458D01*
X26560127Y-21758458D02*
X26464889Y-21710839D01*
X26464889Y-21710839D02*
X26322032Y-21663220D01*
X26322032Y-21663220D02*
X26083936Y-21615601D01*
X26083936Y-21615601D02*
X25893460Y-21615601D01*
X25893460Y-21615601D02*
X25655365Y-21663220D01*
X25655365Y-21663220D02*
X25512508Y-21710839D01*
X25512508Y-21710839D02*
X25417270Y-21758458D01*
X25417270Y-21758458D02*
X25274412Y-21853696D01*
X25274412Y-21853696D02*
X25226793Y-21901315D01*
X26979595Y-31187030D02*
X26979595Y-31663220D01*
X26979595Y-31663220D02*
X27455785Y-31710839D01*
X27455785Y-31710839D02*
X27408166Y-31663220D01*
X27408166Y-31663220D02*
X27360547Y-31567982D01*
X27360547Y-31567982D02*
X27360547Y-31329887D01*
X27360547Y-31329887D02*
X27408166Y-31234649D01*
X27408166Y-31234649D02*
X27455785Y-31187030D01*
X27455785Y-31187030D02*
X27551023Y-31139411D01*
X27551023Y-31139411D02*
X27789118Y-31139411D01*
X27789118Y-31139411D02*
X27884356Y-31187030D01*
X27884356Y-31187030D02*
X27931976Y-31234649D01*
X27931976Y-31234649D02*
X27979595Y-31329887D01*
X27979595Y-31329887D02*
X27979595Y-31567982D01*
X27979595Y-31567982D02*
X27931976Y-31663220D01*
X27931976Y-31663220D02*
X27884356Y-31710839D01*
X27884356Y-30710839D02*
X27931976Y-30663220D01*
X27931976Y-30663220D02*
X27979595Y-30710839D01*
X27979595Y-30710839D02*
X27931976Y-30758458D01*
X27931976Y-30758458D02*
X27884356Y-30710839D01*
X27884356Y-30710839D02*
X27979595Y-30710839D01*
X27027214Y-28948935D02*
X26979595Y-29044173D01*
X26979595Y-29044173D02*
X26979595Y-29187030D01*
X26979595Y-29187030D02*
X27027214Y-29329887D01*
X27027214Y-29329887D02*
X27122452Y-29425125D01*
X27122452Y-29425125D02*
X27217690Y-29472744D01*
X27217690Y-29472744D02*
X27408166Y-29520363D01*
X27408166Y-29520363D02*
X27551023Y-29520363D01*
X27551023Y-29520363D02*
X27741499Y-29472744D01*
X27741499Y-29472744D02*
X27836737Y-29425125D01*
X27836737Y-29425125D02*
X27931976Y-29329887D01*
X27931976Y-29329887D02*
X27979595Y-29187030D01*
X27979595Y-29187030D02*
X27979595Y-29091792D01*
X27979595Y-29091792D02*
X27931976Y-28948935D01*
X27931976Y-28948935D02*
X27884356Y-28901316D01*
X27884356Y-28901316D02*
X27551023Y-28901316D01*
X27551023Y-28901316D02*
X27551023Y-29091792D01*
X27979595Y-28472744D02*
X26979595Y-28472744D01*
X26979595Y-28472744D02*
X27979595Y-27901316D01*
X27979595Y-27901316D02*
X26979595Y-27901316D01*
X27979595Y-27425125D02*
X26979595Y-27425125D01*
X26979595Y-27425125D02*
X26979595Y-27187030D01*
X26979595Y-27187030D02*
X27027214Y-27044173D01*
X27027214Y-27044173D02*
X27122452Y-26948935D01*
X27122452Y-26948935D02*
X27217690Y-26901316D01*
X27217690Y-26901316D02*
X27408166Y-26853697D01*
X27408166Y-26853697D02*
X27551023Y-26853697D01*
X27551023Y-26853697D02*
X27741499Y-26901316D01*
X27741499Y-26901316D02*
X27836737Y-26948935D01*
X27836737Y-26948935D02*
X27931976Y-27044173D01*
X27931976Y-27044173D02*
X27979595Y-27187030D01*
X27979595Y-27187030D02*
X27979595Y-27425125D01*
X28360547Y-25377506D02*
X28312928Y-25425125D01*
X28312928Y-25425125D02*
X28170071Y-25520363D01*
X28170071Y-25520363D02*
X28074833Y-25567982D01*
X28074833Y-25567982D02*
X27931976Y-25615601D01*
X27931976Y-25615601D02*
X27693880Y-25663220D01*
X27693880Y-25663220D02*
X27503404Y-25663220D01*
X27503404Y-25663220D02*
X27265309Y-25615601D01*
X27265309Y-25615601D02*
X27122452Y-25567982D01*
X27122452Y-25567982D02*
X27027214Y-25520363D01*
X27027214Y-25520363D02*
X26884356Y-25425125D01*
X26884356Y-25425125D02*
X26836737Y-25377506D01*
X27979595Y-24996553D02*
X26979595Y-24996553D01*
X27979595Y-24425125D02*
X27408166Y-24853696D01*
X26979595Y-24425125D02*
X27551023Y-24996553D01*
X27931976Y-23948934D02*
X27979595Y-23948934D01*
X27979595Y-23948934D02*
X28074833Y-23996553D01*
X28074833Y-23996553D02*
X28122452Y-24044172D01*
X27312928Y-23663220D02*
X27312928Y-23282268D01*
X27979595Y-23520363D02*
X27122452Y-23520363D01*
X27122452Y-23520363D02*
X27027214Y-23472744D01*
X27027214Y-23472744D02*
X26979595Y-23377506D01*
X26979595Y-23377506D02*
X26979595Y-23282268D01*
X27979595Y-22948934D02*
X27312928Y-22948934D01*
X26979595Y-22948934D02*
X27027214Y-22996553D01*
X27027214Y-22996553D02*
X27074833Y-22948934D01*
X27074833Y-22948934D02*
X27027214Y-22901315D01*
X27027214Y-22901315D02*
X26979595Y-22948934D01*
X26979595Y-22948934D02*
X27074833Y-22948934D01*
X27979595Y-22329887D02*
X27931976Y-22425125D01*
X27931976Y-22425125D02*
X27836737Y-22472744D01*
X27836737Y-22472744D02*
X26979595Y-22472744D01*
X27931976Y-21901315D02*
X27979595Y-21901315D01*
X27979595Y-21901315D02*
X28074833Y-21948934D01*
X28074833Y-21948934D02*
X28122452Y-21996553D01*
X27931976Y-21520363D02*
X27979595Y-21377506D01*
X27979595Y-21377506D02*
X27979595Y-21139411D01*
X27979595Y-21139411D02*
X27931976Y-21044173D01*
X27931976Y-21044173D02*
X27884356Y-20996554D01*
X27884356Y-20996554D02*
X27789118Y-20948935D01*
X27789118Y-20948935D02*
X27693880Y-20948935D01*
X27693880Y-20948935D02*
X27598642Y-20996554D01*
X27598642Y-20996554D02*
X27551023Y-21044173D01*
X27551023Y-21044173D02*
X27503404Y-21139411D01*
X27503404Y-21139411D02*
X27455785Y-21329887D01*
X27455785Y-21329887D02*
X27408166Y-21425125D01*
X27408166Y-21425125D02*
X27360547Y-21472744D01*
X27360547Y-21472744D02*
X27265309Y-21520363D01*
X27265309Y-21520363D02*
X27170071Y-21520363D01*
X27170071Y-21520363D02*
X27074833Y-21472744D01*
X27074833Y-21472744D02*
X27027214Y-21425125D01*
X27027214Y-21425125D02*
X26979595Y-21329887D01*
X26979595Y-21329887D02*
X26979595Y-21091792D01*
X26979595Y-21091792D02*
X27027214Y-20948935D01*
X26979595Y-20615601D02*
X26979595Y-19996554D01*
X26979595Y-19996554D02*
X27360547Y-20329887D01*
X27360547Y-20329887D02*
X27360547Y-20187030D01*
X27360547Y-20187030D02*
X27408166Y-20091792D01*
X27408166Y-20091792D02*
X27455785Y-20044173D01*
X27455785Y-20044173D02*
X27551023Y-19996554D01*
X27551023Y-19996554D02*
X27789118Y-19996554D01*
X27789118Y-19996554D02*
X27884356Y-20044173D01*
X27884356Y-20044173D02*
X27931976Y-20091792D01*
X27931976Y-20091792D02*
X27979595Y-20187030D01*
X27979595Y-20187030D02*
X27979595Y-20472744D01*
X27979595Y-20472744D02*
X27931976Y-20567982D01*
X27931976Y-20567982D02*
X27884356Y-20615601D01*
X28360547Y-19663220D02*
X28312928Y-19615601D01*
X28312928Y-19615601D02*
X28170071Y-19520363D01*
X28170071Y-19520363D02*
X28074833Y-19472744D01*
X28074833Y-19472744D02*
X27931976Y-19425125D01*
X27931976Y-19425125D02*
X27693880Y-19377506D01*
X27693880Y-19377506D02*
X27503404Y-19377506D01*
X27503404Y-19377506D02*
X27265309Y-19425125D01*
X27265309Y-19425125D02*
X27122452Y-19472744D01*
X27122452Y-19472744D02*
X27027214Y-19520363D01*
X27027214Y-19520363D02*
X26884356Y-19615601D01*
X26884356Y-19615601D02*
X26836737Y-19663220D01*
X22396303Y-50682676D02*
X22455826Y-50742200D01*
X22455826Y-50742200D02*
X22396303Y-50801723D01*
X22396303Y-50801723D02*
X22336779Y-50742200D01*
X22336779Y-50742200D02*
X22396303Y-50682676D01*
X22396303Y-50682676D02*
X22396303Y-50801723D01*
X22396303Y-50325533D02*
X22336779Y-49611247D01*
X22336779Y-49611247D02*
X22396303Y-49551723D01*
X22396303Y-49551723D02*
X22455826Y-49611247D01*
X22455826Y-49611247D02*
X22396303Y-50325533D01*
X22396303Y-50325533D02*
X22396303Y-49551723D01*
X22991541Y-50682676D02*
X23051064Y-50742200D01*
X23051064Y-50742200D02*
X22991541Y-50801723D01*
X22991541Y-50801723D02*
X22932017Y-50742200D01*
X22932017Y-50742200D02*
X22991541Y-50682676D01*
X22991541Y-50682676D02*
X22991541Y-50801723D01*
X22991541Y-50325533D02*
X22932017Y-49611247D01*
X22932017Y-49611247D02*
X22991541Y-49551723D01*
X22991541Y-49551723D02*
X23051064Y-49611247D01*
X23051064Y-49611247D02*
X22991541Y-50325533D01*
X22991541Y-50325533D02*
X22991541Y-49551723D01*
X23586779Y-50682676D02*
X23646302Y-50742200D01*
X23646302Y-50742200D02*
X23586779Y-50801723D01*
X23586779Y-50801723D02*
X23527255Y-50742200D01*
X23527255Y-50742200D02*
X23586779Y-50682676D01*
X23586779Y-50682676D02*
X23586779Y-50801723D01*
X23586779Y-50325533D02*
X23527255Y-49611247D01*
X23527255Y-49611247D02*
X23586779Y-49551723D01*
X23586779Y-49551723D02*
X23646302Y-49611247D01*
X23646302Y-49611247D02*
X23586779Y-50325533D01*
X23586779Y-50325533D02*
X23586779Y-49551723D01*
X11610588Y-34339223D02*
X11193922Y-33743985D01*
X10896303Y-34339223D02*
X10896303Y-33089223D01*
X10896303Y-33089223D02*
X11372493Y-33089223D01*
X11372493Y-33089223D02*
X11491541Y-33148747D01*
X11491541Y-33148747D02*
X11551064Y-33208271D01*
X11551064Y-33208271D02*
X11610588Y-33327319D01*
X11610588Y-33327319D02*
X11610588Y-33505890D01*
X11610588Y-33505890D02*
X11551064Y-33624938D01*
X11551064Y-33624938D02*
X11491541Y-33684461D01*
X11491541Y-33684461D02*
X11372493Y-33743985D01*
X11372493Y-33743985D02*
X10896303Y-33743985D01*
X11848684Y-34458271D02*
X12801064Y-34458271D01*
X13039160Y-34279700D02*
X13158207Y-34339223D01*
X13158207Y-34339223D02*
X13396303Y-34339223D01*
X13396303Y-34339223D02*
X13515350Y-34279700D01*
X13515350Y-34279700D02*
X13574874Y-34160652D01*
X13574874Y-34160652D02*
X13574874Y-34101128D01*
X13574874Y-34101128D02*
X13515350Y-33982080D01*
X13515350Y-33982080D02*
X13396303Y-33922557D01*
X13396303Y-33922557D02*
X13217731Y-33922557D01*
X13217731Y-33922557D02*
X13098684Y-33863033D01*
X13098684Y-33863033D02*
X13039160Y-33743985D01*
X13039160Y-33743985D02*
X13039160Y-33684461D01*
X13039160Y-33684461D02*
X13098684Y-33565414D01*
X13098684Y-33565414D02*
X13217731Y-33505890D01*
X13217731Y-33505890D02*
X13396303Y-33505890D01*
X13396303Y-33505890D02*
X13515350Y-33565414D01*
X29860588Y-36869819D02*
X29289160Y-36869819D01*
X29574874Y-36869819D02*
X29574874Y-35869819D01*
X29574874Y-35869819D02*
X29479636Y-36012676D01*
X29479636Y-36012676D02*
X29384398Y-36107914D01*
X29384398Y-36107914D02*
X29289160Y-36155533D01*
X30166666Y-52454819D02*
X30166666Y-53169104D01*
X30166666Y-53169104D02*
X30119047Y-53311961D01*
X30119047Y-53311961D02*
X30023809Y-53407200D01*
X30023809Y-53407200D02*
X29880952Y-53454819D01*
X29880952Y-53454819D02*
X29785714Y-53454819D01*
X31071428Y-52788152D02*
X31071428Y-53454819D01*
X30833333Y-52407200D02*
X30595238Y-53121485D01*
X30595238Y-53121485D02*
X31214285Y-53121485D01*
X8833333Y-49954819D02*
X8500000Y-49478628D01*
X8261905Y-49954819D02*
X8261905Y-48954819D01*
X8261905Y-48954819D02*
X8642857Y-48954819D01*
X8642857Y-48954819D02*
X8738095Y-49002438D01*
X8738095Y-49002438D02*
X8785714Y-49050057D01*
X8785714Y-49050057D02*
X8833333Y-49145295D01*
X8833333Y-49145295D02*
X8833333Y-49288152D01*
X8833333Y-49288152D02*
X8785714Y-49383390D01*
X8785714Y-49383390D02*
X8738095Y-49431009D01*
X8738095Y-49431009D02*
X8642857Y-49478628D01*
X8642857Y-49478628D02*
X8261905Y-49478628D01*
X9690476Y-48954819D02*
X9500000Y-48954819D01*
X9500000Y-48954819D02*
X9404762Y-49002438D01*
X9404762Y-49002438D02*
X9357143Y-49050057D01*
X9357143Y-49050057D02*
X9261905Y-49192914D01*
X9261905Y-49192914D02*
X9214286Y-49383390D01*
X9214286Y-49383390D02*
X9214286Y-49764342D01*
X9214286Y-49764342D02*
X9261905Y-49859580D01*
X9261905Y-49859580D02*
X9309524Y-49907200D01*
X9309524Y-49907200D02*
X9404762Y-49954819D01*
X9404762Y-49954819D02*
X9595238Y-49954819D01*
X9595238Y-49954819D02*
X9690476Y-49907200D01*
X9690476Y-49907200D02*
X9738095Y-49859580D01*
X9738095Y-49859580D02*
X9785714Y-49764342D01*
X9785714Y-49764342D02*
X9785714Y-49526247D01*
X9785714Y-49526247D02*
X9738095Y-49431009D01*
X9738095Y-49431009D02*
X9690476Y-49383390D01*
X9690476Y-49383390D02*
X9595238Y-49335771D01*
X9595238Y-49335771D02*
X9404762Y-49335771D01*
X9404762Y-49335771D02*
X9309524Y-49383390D01*
X9309524Y-49383390D02*
X9261905Y-49431009D01*
X9261905Y-49431009D02*
X9214286Y-49526247D01*
X18666666Y-52454819D02*
X18666666Y-53169104D01*
X18666666Y-53169104D02*
X18619047Y-53311961D01*
X18619047Y-53311961D02*
X18523809Y-53407200D01*
X18523809Y-53407200D02*
X18380952Y-53454819D01*
X18380952Y-53454819D02*
X18285714Y-53454819D01*
X19095238Y-52550057D02*
X19142857Y-52502438D01*
X19142857Y-52502438D02*
X19238095Y-52454819D01*
X19238095Y-52454819D02*
X19476190Y-52454819D01*
X19476190Y-52454819D02*
X19571428Y-52502438D01*
X19571428Y-52502438D02*
X19619047Y-52550057D01*
X19619047Y-52550057D02*
X19666666Y-52645295D01*
X19666666Y-52645295D02*
X19666666Y-52740533D01*
X19666666Y-52740533D02*
X19619047Y-52883390D01*
X19619047Y-52883390D02*
X19047619Y-53454819D01*
X19047619Y-53454819D02*
X19666666Y-53454819D01*
X40859580Y-34666666D02*
X40907200Y-34714285D01*
X40907200Y-34714285D02*
X40954819Y-34857142D01*
X40954819Y-34857142D02*
X40954819Y-34952380D01*
X40954819Y-34952380D02*
X40907200Y-35095237D01*
X40907200Y-35095237D02*
X40811961Y-35190475D01*
X40811961Y-35190475D02*
X40716723Y-35238094D01*
X40716723Y-35238094D02*
X40526247Y-35285713D01*
X40526247Y-35285713D02*
X40383390Y-35285713D01*
X40383390Y-35285713D02*
X40192914Y-35238094D01*
X40192914Y-35238094D02*
X40097676Y-35190475D01*
X40097676Y-35190475D02*
X40002438Y-35095237D01*
X40002438Y-35095237D02*
X39954819Y-34952380D01*
X39954819Y-34952380D02*
X39954819Y-34857142D01*
X39954819Y-34857142D02*
X40002438Y-34714285D01*
X40002438Y-34714285D02*
X40050057Y-34666666D01*
X40050057Y-34285713D02*
X40002438Y-34238094D01*
X40002438Y-34238094D02*
X39954819Y-34142856D01*
X39954819Y-34142856D02*
X39954819Y-33904761D01*
X39954819Y-33904761D02*
X40002438Y-33809523D01*
X40002438Y-33809523D02*
X40050057Y-33761904D01*
X40050057Y-33761904D02*
X40145295Y-33714285D01*
X40145295Y-33714285D02*
X40240533Y-33714285D01*
X40240533Y-33714285D02*
X40383390Y-33761904D01*
X40383390Y-33761904D02*
X40954819Y-34333332D01*
X40954819Y-34333332D02*
X40954819Y-33714285D01*
X34954819Y-43816666D02*
X34478628Y-44149999D01*
X34954819Y-44388094D02*
X33954819Y-44388094D01*
X33954819Y-44388094D02*
X33954819Y-44007142D01*
X33954819Y-44007142D02*
X34002438Y-43911904D01*
X34002438Y-43911904D02*
X34050057Y-43864285D01*
X34050057Y-43864285D02*
X34145295Y-43816666D01*
X34145295Y-43816666D02*
X34288152Y-43816666D01*
X34288152Y-43816666D02*
X34383390Y-43864285D01*
X34383390Y-43864285D02*
X34431009Y-43911904D01*
X34431009Y-43911904D02*
X34478628Y-44007142D01*
X34478628Y-44007142D02*
X34478628Y-44388094D01*
X33954819Y-43483332D02*
X33954819Y-42864285D01*
X33954819Y-42864285D02*
X34335771Y-43197618D01*
X34335771Y-43197618D02*
X34335771Y-43054761D01*
X34335771Y-43054761D02*
X34383390Y-42959523D01*
X34383390Y-42959523D02*
X34431009Y-42911904D01*
X34431009Y-42911904D02*
X34526247Y-42864285D01*
X34526247Y-42864285D02*
X34764342Y-42864285D01*
X34764342Y-42864285D02*
X34859580Y-42911904D01*
X34859580Y-42911904D02*
X34907200Y-42959523D01*
X34907200Y-42959523D02*
X34954819Y-43054761D01*
X34954819Y-43054761D02*
X34954819Y-43340475D01*
X34954819Y-43340475D02*
X34907200Y-43435713D01*
X34907200Y-43435713D02*
X34859580Y-43483332D01*
X9833333Y-36954819D02*
X9500000Y-36478628D01*
X9261905Y-36954819D02*
X9261905Y-35954819D01*
X9261905Y-35954819D02*
X9642857Y-35954819D01*
X9642857Y-35954819D02*
X9738095Y-36002438D01*
X9738095Y-36002438D02*
X9785714Y-36050057D01*
X9785714Y-36050057D02*
X9833333Y-36145295D01*
X9833333Y-36145295D02*
X9833333Y-36288152D01*
X9833333Y-36288152D02*
X9785714Y-36383390D01*
X9785714Y-36383390D02*
X9738095Y-36431009D01*
X9738095Y-36431009D02*
X9642857Y-36478628D01*
X9642857Y-36478628D02*
X9261905Y-36478628D01*
X10214286Y-36050057D02*
X10261905Y-36002438D01*
X10261905Y-36002438D02*
X10357143Y-35954819D01*
X10357143Y-35954819D02*
X10595238Y-35954819D01*
X10595238Y-35954819D02*
X10690476Y-36002438D01*
X10690476Y-36002438D02*
X10738095Y-36050057D01*
X10738095Y-36050057D02*
X10785714Y-36145295D01*
X10785714Y-36145295D02*
X10785714Y-36240533D01*
X10785714Y-36240533D02*
X10738095Y-36383390D01*
X10738095Y-36383390D02*
X10166667Y-36954819D01*
X10166667Y-36954819D02*
X10785714Y-36954819D01*
X23738095Y-34502319D02*
X23738095Y-35311842D01*
X23738095Y-35311842D02*
X23785714Y-35407080D01*
X23785714Y-35407080D02*
X23833333Y-35454700D01*
X23833333Y-35454700D02*
X23928571Y-35502319D01*
X23928571Y-35502319D02*
X24119047Y-35502319D01*
X24119047Y-35502319D02*
X24214285Y-35454700D01*
X24214285Y-35454700D02*
X24261904Y-35407080D01*
X24261904Y-35407080D02*
X24309523Y-35311842D01*
X24309523Y-35311842D02*
X24309523Y-34502319D01*
X25309523Y-35502319D02*
X24738095Y-35502319D01*
X25023809Y-35502319D02*
X25023809Y-34502319D01*
X25023809Y-34502319D02*
X24928571Y-34645176D01*
X24928571Y-34645176D02*
X24833333Y-34740414D01*
X24833333Y-34740414D02*
X24738095Y-34788033D01*
X6333333Y-32859580D02*
X6285714Y-32907200D01*
X6285714Y-32907200D02*
X6142857Y-32954819D01*
X6142857Y-32954819D02*
X6047619Y-32954819D01*
X6047619Y-32954819D02*
X5904762Y-32907200D01*
X5904762Y-32907200D02*
X5809524Y-32811961D01*
X5809524Y-32811961D02*
X5761905Y-32716723D01*
X5761905Y-32716723D02*
X5714286Y-32526247D01*
X5714286Y-32526247D02*
X5714286Y-32383390D01*
X5714286Y-32383390D02*
X5761905Y-32192914D01*
X5761905Y-32192914D02*
X5809524Y-32097676D01*
X5809524Y-32097676D02*
X5904762Y-32002438D01*
X5904762Y-32002438D02*
X6047619Y-31954819D01*
X6047619Y-31954819D02*
X6142857Y-31954819D01*
X6142857Y-31954819D02*
X6285714Y-32002438D01*
X6285714Y-32002438D02*
X6333333Y-32050057D01*
X7285714Y-32954819D02*
X6714286Y-32954819D01*
X7000000Y-32954819D02*
X7000000Y-31954819D01*
X7000000Y-31954819D02*
X6904762Y-32097676D01*
X6904762Y-32097676D02*
X6809524Y-32192914D01*
X6809524Y-32192914D02*
X6714286Y-32240533D01*
X1454819Y-28833333D02*
X2169104Y-28833333D01*
X2169104Y-28833333D02*
X2311961Y-28880952D01*
X2311961Y-28880952D02*
X2407200Y-28976190D01*
X2407200Y-28976190D02*
X2454819Y-29119047D01*
X2454819Y-29119047D02*
X2454819Y-29214285D01*
X1454819Y-28452380D02*
X1454819Y-27833333D01*
X1454819Y-27833333D02*
X1835771Y-28166666D01*
X1835771Y-28166666D02*
X1835771Y-28023809D01*
X1835771Y-28023809D02*
X1883390Y-27928571D01*
X1883390Y-27928571D02*
X1931009Y-27880952D01*
X1931009Y-27880952D02*
X2026247Y-27833333D01*
X2026247Y-27833333D02*
X2264342Y-27833333D01*
X2264342Y-27833333D02*
X2359580Y-27880952D01*
X2359580Y-27880952D02*
X2407200Y-27928571D01*
X2407200Y-27928571D02*
X2454819Y-28023809D01*
X2454819Y-28023809D02*
X2454819Y-28309523D01*
X2454819Y-28309523D02*
X2407200Y-28404761D01*
X2407200Y-28404761D02*
X2359580Y-28452380D01*
X7166666Y-52454819D02*
X7166666Y-53169104D01*
X7166666Y-53169104D02*
X7119047Y-53311961D01*
X7119047Y-53311961D02*
X7023809Y-53407200D01*
X7023809Y-53407200D02*
X6880952Y-53454819D01*
X6880952Y-53454819D02*
X6785714Y-53454819D01*
X8166666Y-53454819D02*
X7595238Y-53454819D01*
X7880952Y-53454819D02*
X7880952Y-52454819D01*
X7880952Y-52454819D02*
X7785714Y-52597676D01*
X7785714Y-52597676D02*
X7690476Y-52692914D01*
X7690476Y-52692914D02*
X7595238Y-52740533D01*
X21454819Y-48166666D02*
X20978628Y-48499999D01*
X21454819Y-48738094D02*
X20454819Y-48738094D01*
X20454819Y-48738094D02*
X20454819Y-48357142D01*
X20454819Y-48357142D02*
X20502438Y-48261904D01*
X20502438Y-48261904D02*
X20550057Y-48214285D01*
X20550057Y-48214285D02*
X20645295Y-48166666D01*
X20645295Y-48166666D02*
X20788152Y-48166666D01*
X20788152Y-48166666D02*
X20883390Y-48214285D01*
X20883390Y-48214285D02*
X20931009Y-48261904D01*
X20931009Y-48261904D02*
X20978628Y-48357142D01*
X20978628Y-48357142D02*
X20978628Y-48738094D01*
X20454819Y-47261904D02*
X20454819Y-47738094D01*
X20454819Y-47738094D02*
X20931009Y-47785713D01*
X20931009Y-47785713D02*
X20883390Y-47738094D01*
X20883390Y-47738094D02*
X20835771Y-47642856D01*
X20835771Y-47642856D02*
X20835771Y-47404761D01*
X20835771Y-47404761D02*
X20883390Y-47309523D01*
X20883390Y-47309523D02*
X20931009Y-47261904D01*
X20931009Y-47261904D02*
X21026247Y-47214285D01*
X21026247Y-47214285D02*
X21264342Y-47214285D01*
X21264342Y-47214285D02*
X21359580Y-47261904D01*
X21359580Y-47261904D02*
X21407200Y-47309523D01*
X21407200Y-47309523D02*
X21454819Y-47404761D01*
X21454819Y-47404761D02*
X21454819Y-47642856D01*
X21454819Y-47642856D02*
X21407200Y-47738094D01*
X21407200Y-47738094D02*
X21359580Y-47785713D01*
X9333333Y-45454819D02*
X9000000Y-44978628D01*
X8761905Y-45454819D02*
X8761905Y-44454819D01*
X8761905Y-44454819D02*
X9142857Y-44454819D01*
X9142857Y-44454819D02*
X9238095Y-44502438D01*
X9238095Y-44502438D02*
X9285714Y-44550057D01*
X9285714Y-44550057D02*
X9333333Y-44645295D01*
X9333333Y-44645295D02*
X9333333Y-44788152D01*
X9333333Y-44788152D02*
X9285714Y-44883390D01*
X9285714Y-44883390D02*
X9238095Y-44931009D01*
X9238095Y-44931009D02*
X9142857Y-44978628D01*
X9142857Y-44978628D02*
X8761905Y-44978628D01*
X9666667Y-44454819D02*
X10333333Y-44454819D01*
X10333333Y-44454819D02*
X9904762Y-45454819D01*
X37454819Y-28833333D02*
X38169104Y-28833333D01*
X38169104Y-28833333D02*
X38311961Y-28880952D01*
X38311961Y-28880952D02*
X38407200Y-28976190D01*
X38407200Y-28976190D02*
X38454819Y-29119047D01*
X38454819Y-29119047D02*
X38454819Y-29214285D01*
X37454819Y-27880952D02*
X37454819Y-28357142D01*
X37454819Y-28357142D02*
X37931009Y-28404761D01*
X37931009Y-28404761D02*
X37883390Y-28357142D01*
X37883390Y-28357142D02*
X37835771Y-28261904D01*
X37835771Y-28261904D02*
X37835771Y-28023809D01*
X37835771Y-28023809D02*
X37883390Y-27928571D01*
X37883390Y-27928571D02*
X37931009Y-27880952D01*
X37931009Y-27880952D02*
X38026247Y-27833333D01*
X38026247Y-27833333D02*
X38264342Y-27833333D01*
X38264342Y-27833333D02*
X38359580Y-27880952D01*
X38359580Y-27880952D02*
X38407200Y-27928571D01*
X38407200Y-27928571D02*
X38454819Y-28023809D01*
X38454819Y-28023809D02*
X38454819Y-28261904D01*
X38454819Y-28261904D02*
X38407200Y-28357142D01*
X38407200Y-28357142D02*
X38359580Y-28404761D01*
X18333333Y-48859580D02*
X18285714Y-48907200D01*
X18285714Y-48907200D02*
X18142857Y-48954819D01*
X18142857Y-48954819D02*
X18047619Y-48954819D01*
X18047619Y-48954819D02*
X17904762Y-48907200D01*
X17904762Y-48907200D02*
X17809524Y-48811961D01*
X17809524Y-48811961D02*
X17761905Y-48716723D01*
X17761905Y-48716723D02*
X17714286Y-48526247D01*
X17714286Y-48526247D02*
X17714286Y-48383390D01*
X17714286Y-48383390D02*
X17761905Y-48192914D01*
X17761905Y-48192914D02*
X17809524Y-48097676D01*
X17809524Y-48097676D02*
X17904762Y-48002438D01*
X17904762Y-48002438D02*
X18047619Y-47954819D01*
X18047619Y-47954819D02*
X18142857Y-47954819D01*
X18142857Y-47954819D02*
X18285714Y-48002438D01*
X18285714Y-48002438D02*
X18333333Y-48050057D01*
X18666667Y-47954819D02*
X19285714Y-47954819D01*
X19285714Y-47954819D02*
X18952381Y-48335771D01*
X18952381Y-48335771D02*
X19095238Y-48335771D01*
X19095238Y-48335771D02*
X19190476Y-48383390D01*
X19190476Y-48383390D02*
X19238095Y-48431009D01*
X19238095Y-48431009D02*
X19285714Y-48526247D01*
X19285714Y-48526247D02*
X19285714Y-48764342D01*
X19285714Y-48764342D02*
X19238095Y-48859580D01*
X19238095Y-48859580D02*
X19190476Y-48907200D01*
X19190476Y-48907200D02*
X19095238Y-48954819D01*
X19095238Y-48954819D02*
X18809524Y-48954819D01*
X18809524Y-48954819D02*
X18714286Y-48907200D01*
X18714286Y-48907200D02*
X18666667Y-48859580D01*
X9833333Y-40954819D02*
X9500000Y-40478628D01*
X9261905Y-40954819D02*
X9261905Y-39954819D01*
X9261905Y-39954819D02*
X9642857Y-39954819D01*
X9642857Y-39954819D02*
X9738095Y-40002438D01*
X9738095Y-40002438D02*
X9785714Y-40050057D01*
X9785714Y-40050057D02*
X9833333Y-40145295D01*
X9833333Y-40145295D02*
X9833333Y-40288152D01*
X9833333Y-40288152D02*
X9785714Y-40383390D01*
X9785714Y-40383390D02*
X9738095Y-40431009D01*
X9738095Y-40431009D02*
X9642857Y-40478628D01*
X9642857Y-40478628D02*
X9261905Y-40478628D01*
X10785714Y-40954819D02*
X10214286Y-40954819D01*
X10500000Y-40954819D02*
X10500000Y-39954819D01*
X10500000Y-39954819D02*
X10404762Y-40097676D01*
X10404762Y-40097676D02*
X10309524Y-40192914D01*
X10309524Y-40192914D02*
X10214286Y-40240533D01*
X25494819Y-49166666D02*
X25018628Y-49499999D01*
X25494819Y-49738094D02*
X24494819Y-49738094D01*
X24494819Y-49738094D02*
X24494819Y-49357142D01*
X24494819Y-49357142D02*
X24542438Y-49261904D01*
X24542438Y-49261904D02*
X24590057Y-49214285D01*
X24590057Y-49214285D02*
X24685295Y-49166666D01*
X24685295Y-49166666D02*
X24828152Y-49166666D01*
X24828152Y-49166666D02*
X24923390Y-49214285D01*
X24923390Y-49214285D02*
X24971009Y-49261904D01*
X24971009Y-49261904D02*
X25018628Y-49357142D01*
X25018628Y-49357142D02*
X25018628Y-49738094D01*
X24923390Y-48595237D02*
X24875771Y-48690475D01*
X24875771Y-48690475D02*
X24828152Y-48738094D01*
X24828152Y-48738094D02*
X24732914Y-48785713D01*
X24732914Y-48785713D02*
X24685295Y-48785713D01*
X24685295Y-48785713D02*
X24590057Y-48738094D01*
X24590057Y-48738094D02*
X24542438Y-48690475D01*
X24542438Y-48690475D02*
X24494819Y-48595237D01*
X24494819Y-48595237D02*
X24494819Y-48404761D01*
X24494819Y-48404761D02*
X24542438Y-48309523D01*
X24542438Y-48309523D02*
X24590057Y-48261904D01*
X24590057Y-48261904D02*
X24685295Y-48214285D01*
X24685295Y-48214285D02*
X24732914Y-48214285D01*
X24732914Y-48214285D02*
X24828152Y-48261904D01*
X24828152Y-48261904D02*
X24875771Y-48309523D01*
X24875771Y-48309523D02*
X24923390Y-48404761D01*
X24923390Y-48404761D02*
X24923390Y-48595237D01*
X24923390Y-48595237D02*
X24971009Y-48690475D01*
X24971009Y-48690475D02*
X25018628Y-48738094D01*
X25018628Y-48738094D02*
X25113866Y-48785713D01*
X25113866Y-48785713D02*
X25304342Y-48785713D01*
X25304342Y-48785713D02*
X25399580Y-48738094D01*
X25399580Y-48738094D02*
X25447200Y-48690475D01*
X25447200Y-48690475D02*
X25494819Y-48595237D01*
X25494819Y-48595237D02*
X25494819Y-48404761D01*
X25494819Y-48404761D02*
X25447200Y-48309523D01*
X25447200Y-48309523D02*
X25399580Y-48261904D01*
X25399580Y-48261904D02*
X25304342Y-48214285D01*
X25304342Y-48214285D02*
X25113866Y-48214285D01*
X25113866Y-48214285D02*
X25018628Y-48261904D01*
X25018628Y-48261904D02*
X24971009Y-48309523D01*
X24971009Y-48309523D02*
X24923390Y-48404761D01*
X32454819Y-45166666D02*
X31978628Y-45499999D01*
X32454819Y-45738094D02*
X31454819Y-45738094D01*
X31454819Y-45738094D02*
X31454819Y-45357142D01*
X31454819Y-45357142D02*
X31502438Y-45261904D01*
X31502438Y-45261904D02*
X31550057Y-45214285D01*
X31550057Y-45214285D02*
X31645295Y-45166666D01*
X31645295Y-45166666D02*
X31788152Y-45166666D01*
X31788152Y-45166666D02*
X31883390Y-45214285D01*
X31883390Y-45214285D02*
X31931009Y-45261904D01*
X31931009Y-45261904D02*
X31978628Y-45357142D01*
X31978628Y-45357142D02*
X31978628Y-45738094D01*
X31788152Y-44309523D02*
X32454819Y-44309523D01*
X31407200Y-44547618D02*
X32121485Y-44785713D01*
X32121485Y-44785713D02*
X32121485Y-44166666D01*
D12*
%TO.C,J4*%
X29440000Y-51790000D02*
X29440000Y-59210000D01*
X29440000Y-51790000D02*
X38560000Y-51790000D01*
X29440000Y-59210000D02*
X38560000Y-59210000D01*
X32624000Y-56624000D02*
X32437000Y-56811000D01*
X32832000Y-56919000D02*
X32688000Y-57063000D01*
X35312000Y-53937000D02*
X35168000Y-54081000D01*
X35563000Y-54189000D02*
X35376000Y-54375000D01*
X38560000Y-51790000D02*
X38560000Y-59210000D01*
X36060000Y-55500000D02*
G75*
G02*
X31940000Y-55500000I-2060000J0D01*
G01*
X31940000Y-55500000D02*
G75*
G02*
X36060000Y-55500000I2060000J0D01*
G01*
%TO.C,R6*%
X12285225Y-48528620D02*
G75*
G02*
X12176728Y-50300000I1344775J-971380D01*
G01*
%TO.C,J2*%
X17940000Y-51790000D02*
X17940000Y-59210000D01*
X17940000Y-51790000D02*
X27060000Y-51790000D01*
X17940000Y-59210000D02*
X27060000Y-59210000D01*
X21124000Y-56624000D02*
X20937000Y-56811000D01*
X21332000Y-56919000D02*
X21188000Y-57063000D01*
X23812000Y-53937000D02*
X23668000Y-54081000D01*
X24063000Y-54189000D02*
X23876000Y-54375000D01*
X27060000Y-51790000D02*
X27060000Y-59210000D01*
X24560000Y-55500000D02*
G75*
G02*
X20440000Y-55500000I-2060000J0D01*
G01*
X20440000Y-55500000D02*
G75*
G02*
X24560000Y-55500000I2060000J0D01*
G01*
%TO.C,C2*%
X39130000Y-30630000D02*
X41870000Y-30630000D01*
X39130000Y-38370000D02*
X39130000Y-30630000D01*
X39130000Y-38370000D02*
X41870000Y-38370000D01*
X41870000Y-38370000D02*
X41870000Y-30630000D01*
%TO.C,R3*%
X32780000Y-39030000D02*
X32780000Y-48270000D01*
X32780000Y-48270000D02*
X36220000Y-48270000D01*
X34500000Y-38340000D02*
X34500000Y-39030000D01*
X34500000Y-48960000D02*
X34500000Y-48270000D01*
X36220000Y-39030000D02*
X32780000Y-39030000D01*
X36220000Y-48270000D02*
X36220000Y-39030000D01*
%TO.C,R2*%
X4540000Y-36500000D02*
X5230000Y-36500000D01*
X5230000Y-34780000D02*
X5230000Y-38220000D01*
X5230000Y-38220000D02*
X14470000Y-38220000D01*
X14470000Y-34780000D02*
X5230000Y-34780000D01*
X14470000Y-38220000D02*
X14470000Y-34780000D01*
X15160000Y-36500000D02*
X14470000Y-36500000D01*
%TO.C,U1*%
X20420000Y-39960000D02*
X20420000Y-37040000D01*
X21690000Y-35770000D02*
X27150000Y-35770000D01*
X27150000Y-41230000D02*
X21690000Y-41230000D01*
X28420000Y-37040000D02*
X28420000Y-40020000D01*
X20410000Y-37030000D02*
G75*
G02*
X21680000Y-35760000I1270000J0D01*
G01*
X21680000Y-41240000D02*
G75*
G02*
X20410000Y-39970000I0J1270000D01*
G01*
X27160000Y-35760000D02*
G75*
G02*
X28430000Y-37030000I0J-1270000D01*
G01*
X28430000Y-39970000D02*
G75*
G02*
X27160000Y-41240000I-1270000J0D01*
G01*
X27844006Y-36980000D02*
G75*
G02*
X27215994Y-36980000I-314006J0D01*
G01*
X27215994Y-36980000D02*
G75*
G02*
X27844006Y-36980000I314006J0D01*
G01*
%TO.C,C1*%
X2630000Y-33870000D02*
X2630000Y-31130000D01*
X10370000Y-31130000D02*
X2630000Y-31130000D01*
X10370000Y-33870000D02*
X2630000Y-33870000D01*
X10370000Y-33870000D02*
X10370000Y-31130000D01*
%TO.C,J3*%
X790000Y-20440000D02*
X8210000Y-20440000D01*
X790000Y-29560000D02*
X790000Y-20440000D01*
X790000Y-29560000D02*
X8210000Y-29560000D01*
X2937000Y-23688000D02*
X3081000Y-23832000D01*
X3189000Y-23437000D02*
X3375000Y-23624000D01*
X5624000Y-26376000D02*
X5811000Y-26563000D01*
X5919000Y-26168000D02*
X6063000Y-26312000D01*
X8210000Y-29560000D02*
X8210000Y-20440000D01*
X6560000Y-25000000D02*
G75*
G02*
X2440000Y-25000000I-2060000J0D01*
G01*
X2440000Y-25000000D02*
G75*
G02*
X6560000Y-25000000I2060000J0D01*
G01*
%TO.C,J1*%
X6440000Y-51790000D02*
X6440000Y-59210000D01*
X6440000Y-51790000D02*
X15560000Y-51790000D01*
X6440000Y-59210000D02*
X15560000Y-59210000D01*
X9624000Y-56624000D02*
X9437000Y-56811000D01*
X9832000Y-56919000D02*
X9688000Y-57063000D01*
X12312000Y-53937000D02*
X12168000Y-54081000D01*
X12563000Y-54189000D02*
X12376000Y-54375000D01*
X15560000Y-51790000D02*
X15560000Y-59210000D01*
X13060000Y-55500000D02*
G75*
G02*
X8940000Y-55500000I-2060000J0D01*
G01*
X8940000Y-55500000D02*
G75*
G02*
X13060000Y-55500000I2060000J0D01*
G01*
%TO.C,R5*%
X22528620Y-46344775D02*
G75*
G02*
X24300000Y-46453272I971380J1344775D01*
G01*
%TO.C,R7*%
X13974775Y-45971380D02*
G75*
G02*
X14083272Y-44200000I-1344775J971380D01*
G01*
%TO.C,J5*%
X36790000Y-20440000D02*
X36790000Y-29560000D01*
X39081000Y-23832000D02*
X38937000Y-23688000D01*
X39376000Y-23624000D02*
X39189000Y-23437000D01*
X41811000Y-26563000D02*
X41625000Y-26376000D01*
X42063000Y-26312000D02*
X41919000Y-26168000D01*
X44210000Y-20440000D02*
X36790000Y-20440000D01*
X44210000Y-20440000D02*
X44210000Y-29560000D01*
X44210000Y-29560000D02*
X36790000Y-29560000D01*
X42560000Y-25000000D02*
G75*
G02*
X38440000Y-25000000I-2060000J0D01*
G01*
X38440000Y-25000000D02*
G75*
G02*
X42560000Y-25000000I2060000J0D01*
G01*
%TO.C,C3*%
X17380000Y-42580000D02*
X17380000Y-47420000D01*
X19620000Y-42580000D02*
X17380000Y-42580000D01*
X19620000Y-42580000D02*
X19620000Y-47420000D01*
X19620000Y-47420000D02*
X17380000Y-47420000D01*
%TO.C,R1*%
X4540000Y-40500000D02*
X5230000Y-40500000D01*
X5230000Y-38780000D02*
X5230000Y-42220000D01*
X5230000Y-42220000D02*
X14470000Y-42220000D01*
X14470000Y-38780000D02*
X5230000Y-38780000D01*
X14470000Y-42220000D02*
X14470000Y-38780000D01*
X15160000Y-40500000D02*
X14470000Y-40500000D01*
%TO.C,R8*%
X28195225Y-48028620D02*
G75*
G02*
X28086728Y-49800000I1344775J-971380D01*
G01*
%TO.C,R4*%
X28195225Y-43981120D02*
G75*
G02*
X28086728Y-45752500I1344775J-971380D01*
G01*
%TD*%
M02*
