  0
SECTION
  2
HEADER
  9
$ANGBASE
  50
0.0
  9
$ANGDIR
  70
1
  9
$MEASUREMENT
  70
1
  0
ENDSEC
  0
SECTION
  2
TABLES
  0
TABLE
  2
LTYPE
  70
4
  0
LTYPE
  5
40F
  2
CONTINUOUS
  70
0
  3
Solid line
  72
65
  73
0
  40
0.0
  0
LTYPE
  5
410
  2
DASHDOT
 70
0
  3
Dash Dot ____ _ ____ _
 72
65
 73
4
 40
2.0
 49
1.25
 49
-0.25
 49
0.25
 49
-0.25
  0
LTYPE
  5
411
  2
DASHED
 70
0
  3
Dashed __ __ __ __ __
 72
65
 73
2
 40
0.75
 49
0.5
 49
-0.25
  0
LTYPE
  5
43B
  2
DOTTED
 70
0
  3
Dotted .  .  .  .
 72
65
 73
2
 40
0.2
 49
0.0
 49
-0.2
  0
ENDTAB
  0
TABLE
  2
STYLE
  70
4
  0
STYLE
  2
KICAD
  70
0
  40
0
  41
1
  42
1
  50
0
  71
0
  3
isocp.shx
  0
STYLE
  2
KICADB
  70
0
  40
0
  41
1
  42
1
  50
0
  71
0
  3
isocp.shx
  0
STYLE
  2
KICADI
  70
0
  40
0
  41
1
  42
1
  50
15
  71
0
  3
isocp.shx
  0
STYLE
  2
KICADBI
  70
0
  40
0
  41
1
  42
1
  50
15
  71
0
  3
isocp.shx
  0
ENDTAB
  0
TABLE
  2
LAYER
  70
1
  0
LAYER
  2
BLACK
  70
0
  62
7
  6
CONTINUOUS
  0
ENDTAB
  0
ENDSEC
  0
SECTION
  2
ENTITIES
0
CIRCLE
8
BLACK
10
14.
20
-31.
40
1.27
0
CIRCLE
8
BLACK
10
14.
20
-10.5
40
1.27
0
CIRCLE
8
BLACK
10
34.5
20
-31.
40
1.27
0
CIRCLE
8
BLACK
10
34.5
20
-10.5
40
1.27
0
LINE
8
BLACK
6
CONTINUOUS
10
0.
20
0.
11
45.
21
0.
0
LINE
8
BLACK
6
CONTINUOUS
10
45.
20
0.
11
45.
21
-60.
0
LINE
8
BLACK
6
CONTINUOUS
10
45.
20
-60.
11
0.
21
-60.
0
LINE
8
BLACK
6
CONTINUOUS
10
0.
20
-60.
11
0.
21
0.
0
LINE
8
BLACK
6
CONTINUOUS
10
1.3999999999999999
20
-1.3999999999999999
11
3.5999999999999996
21
-3.5999999999999996
0
LINE
8
BLACK
6
CONTINUOUS
10
3.5999999999999996
20
-1.3999999999999999
11
1.3999999999999999
21
-3.5999999999999996
0
LINE
8
BLACK
6
CONTINUOUS
10
1.3999999999999999
20
-56.3999999999999986
11
3.5999999999999996
21
-58.5999999999999943
0
LINE
8
BLACK
6
CONTINUOUS
10
3.5999999999999996
20
-56.3999999999999986
11
1.3999999999999999
21
-58.5999999999999943
0
LINE
8
BLACK
6
CONTINUOUS
10
41.3999999999999986
20
-1.3999999999999999
11
43.6000000000000014
21
-3.5999999999999996
0
LINE
8
BLACK
6
CONTINUOUS
10
43.6000000000000014
20
-1.3999999999999999
11
41.3999999999999986
21
-3.5999999999999996
0
LINE
8
BLACK
6
CONTINUOUS
10
41.3999999999999986
20
-56.3999999999999986
11
43.6000000000000014
21
-58.5999999999999943
0
LINE
8
BLACK
6
CONTINUOUS
10
43.6000000000000014
20
-56.3999999999999986
11
41.3999999999999986
21
-58.5999999999999943
0
LINE
8
BLACK
6
CONTINUOUS
10
2.5827679999999997
20
-63.1398379999999975
11
2.5827679999999997
21
-61.1398379999999975
0
LINE
8
BLACK
6
CONTINUOUS
10
2.5827679999999997
20
-61.1398379999999975
11
3.0589580000000001
21
-61.1398379999999975
0
LINE
8
BLACK
6
CONTINUOUS
10
3.0589580000000001
20
-61.1398379999999975
11
3.3446729999999998
21
-61.2350759999999994
0
LINE
8
BLACK
6
CONTINUOUS
10
3.3446729999999998
20
-61.2350759999999994
11
3.5351489999999997
21
-61.4255519999999962
0
LINE
8
BLACK
6
CONTINUOUS
10
3.5351489999999997
20
-61.4255519999999962
11
3.6303869999999998
21
-61.616028
0
LINE
8
BLACK
6
CONTINUOUS
10
3.6303869999999998
20
-61.616028
11
3.725625
21
-61.9969800000000006
0
LINE
8
BLACK
6
CONTINUOUS
10
3.725625
20
-61.9969800000000006
11
3.725625
21
-62.2826949999999968
0
LINE
8
BLACK
6
CONTINUOUS
10
3.725625
20
-62.2826949999999968
11
3.6303869999999998
21
-62.6636469999999974
0
LINE
8
BLACK
6
CONTINUOUS
10
3.6303869999999998
20
-62.6636469999999974
11
3.5351489999999997
21
-62.8541229999999942
0
LINE
8
BLACK
6
CONTINUOUS
10
3.5351489999999997
20
-62.8541229999999942
11
3.3446729999999998
21
-63.0445999999999955
0
LINE
8
BLACK
6
CONTINUOUS
10
3.3446729999999998
20
-63.0445999999999955
11
3.0589580000000001
21
-63.1398379999999975
0
LINE
8
BLACK
6
CONTINUOUS
10
3.0589580000000001
20
-63.1398379999999975
11
2.5827679999999997
21
-63.1398379999999975
0
LINE
8
BLACK
6
CONTINUOUS
10
4.5827679999999997
20
-63.1398379999999975
11
4.5827679999999997
21
-61.8065039999999968
0
LINE
8
BLACK
6
CONTINUOUS
10
4.5827679999999997
20
-62.1874569999999949
11
4.6780059999999999
21
-61.9969800000000006
0
LINE
8
BLACK
6
CONTINUOUS
10
4.6780059999999999
20
-61.9969800000000006
11
4.773244
21
-61.9017419999999987
0
LINE
8
BLACK
6
CONTINUOUS
10
4.773244
20
-61.9017419999999987
11
4.9637199999999995
21
-61.8065039999999968
0
LINE
8
BLACK
6
CONTINUOUS
10
4.9637199999999995
20
-61.8065039999999968
11
5.1541969999999999
21
-61.8065039999999968
0
LINE
8
BLACK
6
CONTINUOUS
10
5.8208630000000001
20
-63.1398379999999975
11
5.8208630000000001
21
-61.8065039999999968
0
LINE
8
BLACK
6
CONTINUOUS
10
5.8208630000000001
20
-61.1398379999999975
11
5.725625
21
-61.2350759999999994
0
LINE
8
BLACK
6
CONTINUOUS
10
5.725625
20
-61.2350759999999994
11
5.8208630000000001
21
-61.3303139999999942
0
LINE
8
BLACK
6
CONTINUOUS
10
5.8208630000000001
20
-61.3303139999999942
11
5.9161009999999994
21
-61.2350759999999994
0
LINE
8
BLACK
6
CONTINUOUS
10
5.9161009999999994
20
-61.2350759999999994
11
5.8208630000000001
21
-61.1398379999999975
0
LINE
8
BLACK
6
CONTINUOUS
10
5.8208630000000001
20
-61.1398379999999975
11
5.8208630000000001
21
-61.3303139999999942
0
LINE
8
BLACK
6
CONTINUOUS
10
7.0589579999999996
20
-63.1398379999999975
11
6.8684819999999993
21
-63.0445999999999955
0
LINE
8
BLACK
6
CONTINUOUS
10
6.8684819999999993
20
-63.0445999999999955
11
6.773244
21
-62.8541229999999942
0
LINE
8
BLACK
6
CONTINUOUS
10
6.773244
20
-62.8541229999999942
11
6.773244
21
-61.1398379999999975
0
LINE
8
BLACK
6
CONTINUOUS
10
8.1065769999999997
20
-63.1398379999999975
11
7.9161009999999994
21
-63.0445999999999955
0
LINE
8
BLACK
6
CONTINUOUS
10
7.9161009999999994
20
-63.0445999999999955
11
7.8208629999999992
21
-62.8541229999999942
0
LINE
8
BLACK
6
CONTINUOUS
10
7.8208629999999992
20
-62.8541229999999942
11
7.8208629999999992
21
-61.1398379999999975
0
LINE
8
BLACK
6
CONTINUOUS
10
10.3922919999999994
20
-63.1398379999999975
11
10.3922919999999994
21
-61.1398379999999975
0
LINE
8
BLACK
6
CONTINUOUS
10
10.3922919999999994
20
-61.1398379999999975
11
11.0589589999999998
21
-62.5684089999999955
0
LINE
8
BLACK
6
CONTINUOUS
10
11.0589589999999998
20
-62.5684089999999955
11
11.7256249999999991
21
-61.1398379999999975
0
LINE
8
BLACK
6
CONTINUOUS
10
11.7256249999999991
20
-61.1398379999999975
11
11.7256249999999991
21
-63.1398379999999975
0
LINE
8
BLACK
6
CONTINUOUS
10
13.5351489999999988
20
-63.1398379999999975
11
13.5351489999999988
21
-62.0922190000000001
0
LINE
8
BLACK
6
CONTINUOUS
10
13.5351489999999988
20
-62.0922190000000001
11
13.4399109999999986
21
-61.9017419999999987
0
LINE
8
BLACK
6
CONTINUOUS
10
13.4399109999999986
20
-61.9017419999999987
11
13.2494350000000001
21
-61.8065039999999968
0
LINE
8
BLACK
6
CONTINUOUS
10
13.2494350000000001
20
-61.8065039999999968
11
12.8684820000000002
21
-61.8065039999999968
0
LINE
8
BLACK
6
CONTINUOUS
10
12.8684820000000002
20
-61.8065039999999968
11
12.6780059999999999
21
-61.9017419999999987
0
LINE
8
BLACK
6
CONTINUOUS
10
13.5351489999999988
20
-63.0445999999999955
11
13.3446730000000002
21
-63.1398379999999975
0
LINE
8
BLACK
6
CONTINUOUS
10
13.3446730000000002
20
-63.1398379999999975
11
12.8684820000000002
21
-63.1398379999999975
0
LINE
8
BLACK
6
CONTINUOUS
10
12.8684820000000002
20
-63.1398379999999975
11
12.6780059999999999
21
-63.0445999999999955
0
LINE
8
BLACK
6
CONTINUOUS
10
12.6780059999999999
20
-63.0445999999999955
11
12.5827679999999997
21
-62.8541229999999942
0
LINE
8
BLACK
6
CONTINUOUS
10
12.5827679999999997
20
-62.8541229999999942
11
12.5827679999999997
21
-62.6636469999999974
0
LINE
8
BLACK
6
CONTINUOUS
10
12.5827679999999997
20
-62.6636469999999974
11
12.6780059999999999
21
-62.4731710000000007
0
LINE
8
BLACK
6
CONTINUOUS
10
12.6780059999999999
20
-62.4731710000000007
11
12.8684820000000002
21
-62.3779329999999987
0
LINE
8
BLACK
6
CONTINUOUS
10
12.8684820000000002
20
-62.3779329999999987
11
13.3446730000000002
21
-62.3779329999999987
0
LINE
8
BLACK
6
CONTINUOUS
10
13.3446730000000002
20
-62.3779329999999987
11
13.5351489999999988
21
-62.2826949999999968
0
LINE
8
BLACK
6
CONTINUOUS
10
14.4875299999999996
20
-61.8065039999999968
11
14.4875299999999996
21
-63.8065039999999968
0
LINE
8
BLACK
6
CONTINUOUS
10
14.4875299999999996
20
-61.9017419999999987
11
14.6780059999999999
21
-61.8065039999999968
0
LINE
8
BLACK
6
CONTINUOUS
10
14.6780059999999999
20
-61.8065039999999968
11
15.0589589999999998
21
-61.8065039999999968
0
LINE
8
BLACK
6
CONTINUOUS
10
15.0589589999999998
20
-61.8065039999999968
11
15.2494350000000001
21
-61.9017419999999987
0
LINE
8
BLACK
6
CONTINUOUS
10
15.2494350000000001
20
-61.9017419999999987
11
15.3446729999999985
21
-61.9969800000000006
0
LINE
8
BLACK
6
CONTINUOUS
10
15.3446729999999985
20
-61.9969800000000006
11
15.4399109999999986
21
-62.1874569999999949
0
LINE
8
BLACK
6
CONTINUOUS
10
15.4399109999999986
20
-62.1874569999999949
11
15.4399109999999986
21
-62.7588849999999994
0
LINE
8
BLACK
6
CONTINUOUS
10
15.4399109999999986
20
-62.7588849999999994
11
15.3446729999999985
21
-62.9493609999999961
0
LINE
8
BLACK
6
CONTINUOUS
10
15.3446729999999985
20
-62.9493609999999961
11
15.2494350000000001
21
-63.0445999999999955
0
LINE
8
BLACK
6
CONTINUOUS
10
15.2494350000000001
20
-63.0445999999999955
11
15.0589589999999998
21
-63.1398379999999975
0
LINE
8
BLACK
6
CONTINUOUS
10
15.0589589999999998
20
-63.1398379999999975
11
14.6780059999999999
21
-63.1398379999999975
0
LINE
8
BLACK
6
CONTINUOUS
10
14.6780059999999999
20
-63.1398379999999975
11
14.4875299999999996
21
-63.0445999999999955
0
LINE
8
BLACK
6
CONTINUOUS
10
16.2970539999999993
20
-62.9493609999999961
11
16.3922919999999976
21
-63.0445999999999955
0
LINE
8
BLACK
6
CONTINUOUS
10
16.3922919999999976
20
-63.0445999999999955
11
16.2970539999999993
21
-63.1398379999999975
0
LINE
8
BLACK
6
CONTINUOUS
10
16.2970539999999993
20
-63.1398379999999975
11
16.2018160000000009
21
-63.0445999999999955
0
LINE
8
BLACK
6
CONTINUOUS
10
16.2018160000000009
20
-63.0445999999999955
11
16.2970539999999993
21
-62.9493609999999961
0
LINE
8
BLACK
6
CONTINUOUS
10
16.2970539999999993
20
-62.9493609999999961
11
16.2970539999999993
21
-63.1398379999999975
0
LINE
8
BLACK
6
CONTINUOUS
10
16.2970539999999993
20
-61.9017419999999987
11
16.3922919999999976
21
-61.9969800000000006
0
LINE
8
BLACK
6
CONTINUOUS
10
16.3922919999999976
20
-61.9969800000000006
11
16.2970539999999993
21
-62.0922190000000001
0
LINE
8
BLACK
6
CONTINUOUS
10
16.2970539999999993
20
-62.0922190000000001
11
16.2018160000000009
21
-61.9969800000000006
0
LINE
8
BLACK
6
CONTINUOUS
10
16.2018160000000009
20
-61.9969800000000006
11
16.2970539999999993
21
-61.9017419999999987
0
LINE
8
BLACK
6
CONTINUOUS
10
16.2970539999999993
20
-61.9017419999999987
11
16.2970539999999993
21
-62.0922190000000001
0
LINE
8
BLACK
6
CONTINUOUS
10
-2.0249999999999999
20
-65.4249999999999972
11
-0.025
21
-67.4249999999999972
0
LINE
8
BLACK
6
CONTINUOUS
10
-0.025
20
-65.4249999999999972
11
-2.0249999999999999
21
-67.4249999999999972
0
LINE
8
BLACK
6
CONTINUOUS
10
2.48753
20
-65.53031399999999
11
2.5827679999999997
21
-65.4350759999999951
0
LINE
8
BLACK
6
CONTINUOUS
10
2.5827679999999997
20
-65.4350759999999951
11
2.773244
21
-65.3398380000000003
0
LINE
8
BLACK
6
CONTINUOUS
10
2.773244
20
-65.3398380000000003
11
3.2494350000000001
21
-65.3398380000000003
0
LINE
8
BLACK
6
CONTINUOUS
10
3.2494350000000001
20
-65.3398380000000003
11
3.4399109999999999
21
-65.4350759999999951
0
LINE
8
BLACK
6
CONTINUOUS
10
3.4399109999999999
20
-65.4350759999999951
11
3.5351489999999997
21
-65.53031399999999
0
LINE
8
BLACK
6
CONTINUOUS
10
3.5351489999999997
20
-65.53031399999999
11
3.6303869999999998
21
-65.7207899999999938
0
LINE
8
BLACK
6
CONTINUOUS
10
3.6303869999999998
20
-65.7207899999999938
11
3.6303869999999998
21
-65.9112659999999977
0
LINE
8
BLACK
6
CONTINUOUS
10
3.6303869999999998
20
-65.9112659999999977
11
3.5351489999999997
21
-66.1969799999999964
0
LINE
8
BLACK
6
CONTINUOUS
10
3.5351489999999997
20
-66.1969799999999964
11
2.3922919999999999
21
-67.3398380000000003
0
LINE
8
BLACK
6
CONTINUOUS
10
2.3922919999999999
20
-67.3398380000000003
11
3.6303869999999998
21
-67.3398380000000003
0
LINE
8
BLACK
6
CONTINUOUS
10
4.4875299999999996
20
-67.149360999999999
11
4.5827679999999997
21
-67.2445999999999913
0
LINE
8
BLACK
6
CONTINUOUS
10
4.5827679999999997
20
-67.2445999999999913
11
4.4875299999999996
21
-67.3398380000000003
0
LINE
8
BLACK
6
CONTINUOUS
10
4.4875299999999996
20
-67.3398380000000003
11
4.3922919999999994
21
-67.2445999999999913
0
LINE
8
BLACK
6
CONTINUOUS
10
4.3922919999999994
20
-67.2445999999999913
11
4.4875299999999996
21
-67.149360999999999
0
LINE
8
BLACK
6
CONTINUOUS
10
4.4875299999999996
20
-67.149360999999999
11
4.4875299999999996
21
-67.3398380000000003
0
LINE
8
BLACK
6
CONTINUOUS
10
5.3446729999999993
20
-65.53031399999999
11
5.4399109999999995
21
-65.4350759999999951
0
LINE
8
BLACK
6
CONTINUOUS
10
5.4399109999999995
20
-65.4350759999999951
11
5.6303869999999998
21
-65.3398380000000003
0
LINE
8
BLACK
6
CONTINUOUS
10
5.6303869999999998
20
-65.3398380000000003
11
6.1065779999999998
21
-65.3398380000000003
0
LINE
8
BLACK
6
CONTINUOUS
10
6.1065779999999998
20
-65.3398380000000003
11
6.2970540000000002
21
-65.4350759999999951
0
LINE
8
BLACK
6
CONTINUOUS
10
6.2970540000000002
20
-65.4350759999999951
11
6.3922919999999994
21
-65.53031399999999
0
LINE
8
BLACK
6
CONTINUOUS
10
6.3922919999999994
20
-65.53031399999999
11
6.4875299999999996
21
-65.7207899999999938
0
LINE
8
BLACK
6
CONTINUOUS
10
6.4875299999999996
20
-65.7207899999999938
11
6.4875299999999996
21
-65.9112659999999977
0
LINE
8
BLACK
6
CONTINUOUS
10
6.4875299999999996
20
-65.9112659999999977
11
6.3922919999999994
21
-66.1969799999999964
0
LINE
8
BLACK
6
CONTINUOUS
10
6.3922919999999994
20
-66.1969799999999964
11
5.2494350000000001
21
-67.3398380000000003
0
LINE
8
BLACK
6
CONTINUOUS
10
5.2494350000000001
20
-67.3398380000000003
11
6.4875299999999996
21
-67.3398380000000003
0
LINE
8
BLACK
6
CONTINUOUS
10
7.725625
20
-65.3398380000000003
11
7.9161019999999995
21
-65.3398380000000003
0
LINE
8
BLACK
6
CONTINUOUS
10
7.9161019999999995
20
-65.3398380000000003
11
8.106577999999999
21
-65.4350759999999951
0
LINE
8
BLACK
6
CONTINUOUS
10
8.106577999999999
20
-65.4350759999999951
11
8.2018159999999991
21
-65.53031399999999
0
LINE
8
BLACK
6
CONTINUOUS
10
8.2018159999999991
20
-65.53031399999999
11
8.2970539999999993
21
-65.7207899999999938
0
LINE
8
BLACK
6
CONTINUOUS
10
8.2970539999999993
20
-65.7207899999999938
11
8.3922919999999994
21
-66.1017420000000016
0
LINE
8
BLACK
6
CONTINUOUS
10
8.3922919999999994
20
-66.1017420000000016
11
8.3922919999999994
21
-66.5779330000000016
0
LINE
8
BLACK
6
CONTINUOUS
10
8.3922919999999994
20
-66.5779330000000016
11
8.2970539999999993
21
-66.9588849999999951
0
LINE
8
BLACK
6
CONTINUOUS
10
8.2970539999999993
20
-66.9588849999999951
11
8.2018159999999991
21
-67.149360999999999
0
LINE
8
BLACK
6
CONTINUOUS
10
8.2018159999999991
20
-67.149360999999999
11
8.106577999999999
21
-67.2445999999999913
0
LINE
8
BLACK
6
CONTINUOUS
10
8.106577999999999
20
-67.2445999999999913
11
7.9161019999999995
21
-67.3398380000000003
0
LINE
8
BLACK
6
CONTINUOUS
10
7.9161019999999995
20
-67.3398380000000003
11
7.725625
21
-67.3398380000000003
0
LINE
8
BLACK
6
CONTINUOUS
10
7.725625
20
-67.3398380000000003
11
7.5351489999999997
21
-67.2445999999999913
0
LINE
8
BLACK
6
CONTINUOUS
10
7.5351489999999997
20
-67.2445999999999913
11
7.4399109999999995
21
-67.149360999999999
0
LINE
8
BLACK
6
CONTINUOUS
10
7.4399109999999995
20
-67.149360999999999
11
7.3446729999999993
21
-66.9588849999999951
0
LINE
8
BLACK
6
CONTINUOUS
10
7.3446729999999993
20
-66.9588849999999951
11
7.2494350000000001
21
-66.5779330000000016
0
LINE
8
BLACK
6
CONTINUOUS
10
7.2494350000000001
20
-66.5779330000000016
11
7.2494350000000001
21
-66.1017420000000016
0
LINE
8
BLACK
6
CONTINUOUS
10
7.2494350000000001
20
-66.1017420000000016
11
7.3446729999999993
21
-65.7207899999999938
0
LINE
8
BLACK
6
CONTINUOUS
10
7.3446729999999993
20
-65.7207899999999938
11
7.4399109999999995
21
-65.53031399999999
0
LINE
8
BLACK
6
CONTINUOUS
10
7.4399109999999995
20
-65.53031399999999
11
7.5351489999999997
21
-65.4350759999999951
0
LINE
8
BLACK
6
CONTINUOUS
10
7.5351489999999997
20
-65.4350759999999951
11
7.725625
21
-65.3398380000000003
0
LINE
8
BLACK
6
CONTINUOUS
10
9.6303869999999989
20
-65.3398380000000003
11
9.8208640000000003
21
-65.3398380000000003
0
LINE
8
BLACK
6
CONTINUOUS
10
9.8208640000000003
20
-65.3398380000000003
11
10.0113399999999988
21
-65.4350759999999951
0
LINE
8
BLACK
6
CONTINUOUS
10
10.0113399999999988
20
-65.4350759999999951
11
10.106577999999999
21
-65.53031399999999
0
LINE
8
BLACK
6
CONTINUOUS
10
10.106577999999999
20
-65.53031399999999
11
10.2018159999999991
21
-65.7207899999999938
0
LINE
8
BLACK
6
CONTINUOUS
10
10.2018159999999991
20
-65.7207899999999938
11
10.2970539999999993
21
-66.1017420000000016
0
LINE
8
BLACK
6
CONTINUOUS
10
10.2970539999999993
20
-66.1017420000000016
11
10.2970539999999993
21
-66.5779330000000016
0
LINE
8
BLACK
6
CONTINUOUS
10
10.2970539999999993
20
-66.5779330000000016
11
10.2018159999999991
21
-66.9588849999999951
0
LINE
8
BLACK
6
CONTINUOUS
10
10.2018159999999991
20
-66.9588849999999951
11
10.106577999999999
21
-67.149360999999999
0
LINE
8
BLACK
6
CONTINUOUS
10
10.106577999999999
20
-67.149360999999999
11
10.0113399999999988
21
-67.2445999999999913
0
LINE
8
BLACK
6
CONTINUOUS
10
10.0113399999999988
20
-67.2445999999999913
11
9.8208640000000003
21
-67.3398380000000003
0
LINE
8
BLACK
6
CONTINUOUS
10
9.8208640000000003
20
-67.3398380000000003
11
9.6303869999999989
21
-67.3398380000000003
0
LINE
8
BLACK
6
CONTINUOUS
10
9.6303869999999989
20
-67.3398380000000003
11
9.4399110000000004
21
-67.2445999999999913
0
LINE
8
BLACK
6
CONTINUOUS
10
9.4399110000000004
20
-67.2445999999999913
11
9.3446730000000002
21
-67.149360999999999
0
LINE
8
BLACK
6
CONTINUOUS
10
9.3446730000000002
20
-67.149360999999999
11
9.2494350000000001
21
-66.9588849999999951
0
LINE
8
BLACK
6
CONTINUOUS
10
9.2494350000000001
20
-66.9588849999999951
11
9.1541969999999999
21
-66.5779330000000016
0
LINE
8
BLACK
6
CONTINUOUS
10
9.1541969999999999
20
-66.5779330000000016
11
9.1541969999999999
21
-66.1017420000000016
0
LINE
8
BLACK
6
CONTINUOUS
10
9.1541969999999999
20
-66.1017420000000016
11
9.2494350000000001
21
-65.7207899999999938
0
LINE
8
BLACK
6
CONTINUOUS
10
9.2494350000000001
20
-65.7207899999999938
11
9.3446730000000002
21
-65.53031399999999
0
LINE
8
BLACK
6
CONTINUOUS
10
9.3446730000000002
20
-65.53031399999999
11
9.4399110000000004
21
-65.4350759999999951
0
LINE
8
BLACK
6
CONTINUOUS
10
9.4399110000000004
20
-65.4350759999999951
11
9.6303869999999989
21
-65.3398380000000003
0
LINE
8
BLACK
6
CONTINUOUS
10
11.1541969999999999
20
-67.3398380000000003
11
11.1541969999999999
21
-66.0065039999999925
0
LINE
8
BLACK
6
CONTINUOUS
10
11.1541969999999999
20
-66.1969799999999964
11
11.2494350000000001
21
-66.1017420000000016
0
LINE
8
BLACK
6
CONTINUOUS
10
11.2494350000000001
20
-66.1017420000000016
11
11.4399109999999986
21
-66.0065039999999925
0
LINE
8
BLACK
6
CONTINUOUS
10
11.4399109999999986
20
-66.0065039999999925
11
11.7256260000000001
21
-66.0065039999999925
0
LINE
8
BLACK
6
CONTINUOUS
10
11.7256260000000001
20
-66.0065039999999925
11
11.9161019999999986
21
-66.1017420000000016
0
LINE
8
BLACK
6
CONTINUOUS
10
11.9161019999999986
20
-66.1017420000000016
11
12.0113399999999988
21
-66.2922190000000029
0
LINE
8
BLACK
6
CONTINUOUS
10
12.0113399999999988
20
-66.2922190000000029
11
12.0113399999999988
21
-67.3398380000000003
0
LINE
8
BLACK
6
CONTINUOUS
10
12.0113399999999988
20
-66.2922190000000029
11
12.106577999999999
21
-66.1017420000000016
0
LINE
8
BLACK
6
CONTINUOUS
10
12.106577999999999
20
-66.1017420000000016
11
12.2970539999999993
21
-66.0065039999999925
0
LINE
8
BLACK
6
CONTINUOUS
10
12.2970539999999993
20
-66.0065039999999925
11
12.5827679999999997
21
-66.0065039999999925
0
LINE
8
BLACK
6
CONTINUOUS
10
12.5827679999999997
20
-66.0065039999999925
11
12.7732449999999993
21
-66.1017420000000016
0
LINE
8
BLACK
6
CONTINUOUS
10
12.7732449999999993
20
-66.1017420000000016
11
12.8684829999999994
21
-66.2922190000000029
0
LINE
8
BLACK
6
CONTINUOUS
10
12.8684829999999994
20
-66.2922190000000029
11
12.8684829999999994
21
-67.3398380000000003
0
LINE
8
BLACK
6
CONTINUOUS
10
13.8208640000000003
20
-67.3398380000000003
11
13.8208640000000003
21
-66.0065039999999925
0
LINE
8
BLACK
6
CONTINUOUS
10
13.8208640000000003
20
-66.1969799999999964
11
13.9161019999999986
21
-66.1017420000000016
0
LINE
8
BLACK
6
CONTINUOUS
10
13.9161019999999986
20
-66.1017420000000016
11
14.106577999999999
21
-66.0065039999999925
0
LINE
8
BLACK
6
CONTINUOUS
10
14.106577999999999
20
-66.0065039999999925
11
14.3922929999999987
21
-66.0065039999999925
0
LINE
8
BLACK
6
CONTINUOUS
10
14.3922929999999987
20
-66.0065039999999925
11
14.582768999999999
21
-66.1017420000000016
0
LINE
8
BLACK
6
CONTINUOUS
10
14.582768999999999
20
-66.1017420000000016
11
14.6780069999999991
21
-66.2922190000000029
0
LINE
8
BLACK
6
CONTINUOUS
10
14.6780069999999991
20
-66.2922190000000029
11
14.6780069999999991
21
-67.3398380000000003
0
LINE
8
BLACK
6
CONTINUOUS
10
14.6780069999999991
20
-66.2922190000000029
11
14.7732449999999993
21
-66.1017420000000016
0
LINE
8
BLACK
6
CONTINUOUS
10
14.7732449999999993
20
-66.1017420000000016
11
14.9637209999999996
21
-66.0065039999999925
0
LINE
8
BLACK
6
CONTINUOUS
10
14.9637209999999996
20
-66.0065039999999925
11
15.2494350000000001
21
-66.0065039999999925
0
LINE
8
BLACK
6
CONTINUOUS
10
15.2494350000000001
20
-66.0065039999999925
11
15.4399119999999996
21
-66.1017420000000016
0
LINE
8
BLACK
6
CONTINUOUS
10
15.4399119999999996
20
-66.1017420000000016
11
15.5351499999999998
21
-66.2922190000000029
0
LINE
8
BLACK
6
CONTINUOUS
10
15.5351499999999998
20
-66.2922190000000029
11
15.5351499999999998
21
-67.3398380000000003
0
LINE
8
BLACK
6
CONTINUOUS
10
19.4399119999999996
20
-65.2445999999999913
11
17.7256269999999994
21
-67.8160280000000029
0
LINE
8
BLACK
6
CONTINUOUS
10
22.011340999999998
20
-65.3398380000000003
11
22.2018179999999994
21
-65.3398380000000003
0
LINE
8
BLACK
6
CONTINUOUS
10
22.2018179999999994
20
-65.3398380000000003
11
22.3922939999999997
21
-65.4350759999999951
0
LINE
8
BLACK
6
CONTINUOUS
10
22.3922939999999997
20
-65.4350759999999951
11
22.4875319999999981
21
-65.53031399999999
0
LINE
8
BLACK
6
CONTINUOUS
10
22.4875319999999981
20
-65.53031399999999
11
22.58277
21
-65.7207899999999938
0
LINE
8
BLACK
6
CONTINUOUS
10
22.58277
20
-65.7207899999999938
11
22.6780079999999984
21
-66.1017420000000016
0
LINE
8
BLACK
6
CONTINUOUS
10
22.6780079999999984
20
-66.1017420000000016
11
22.6780079999999984
21
-66.5779330000000016
0
LINE
8
BLACK
6
CONTINUOUS
10
22.6780079999999984
20
-66.5779330000000016
11
22.58277
21
-66.9588849999999951
0
LINE
8
BLACK
6
CONTINUOUS
10
22.58277
20
-66.9588849999999951
11
22.4875319999999981
21
-67.149360999999999
0
LINE
8
BLACK
6
CONTINUOUS
10
22.4875319999999981
20
-67.149360999999999
11
22.3922939999999997
21
-67.2445999999999913
0
LINE
8
BLACK
6
CONTINUOUS
10
22.3922939999999997
20
-67.2445999999999913
11
22.2018179999999994
21
-67.3398380000000003
0
LINE
8
BLACK
6
CONTINUOUS
10
22.2018179999999994
20
-67.3398380000000003
11
22.011340999999998
21
-67.3398380000000003
0
LINE
8
BLACK
6
CONTINUOUS
10
22.011340999999998
20
-67.3398380000000003
11
21.8208649999999977
21
-67.2445999999999913
0
LINE
8
BLACK
6
CONTINUOUS
10
21.8208649999999977
20
-67.2445999999999913
11
21.7256269999999994
21
-67.149360999999999
0
LINE
8
BLACK
6
CONTINUOUS
10
21.7256269999999994
20
-67.149360999999999
11
21.6303889999999974
21
-66.9588849999999951
0
LINE
8
BLACK
6
CONTINUOUS
10
21.6303889999999974
20
-66.9588849999999951
11
21.535150999999999
21
-66.5779330000000016
0
LINE
8
BLACK
6
CONTINUOUS
10
21.535150999999999
20
-66.5779330000000016
11
21.535150999999999
21
-66.1017420000000016
0
LINE
8
BLACK
6
CONTINUOUS
10
21.535150999999999
20
-66.1017420000000016
11
21.6303889999999974
21
-65.7207899999999938
0
LINE
8
BLACK
6
CONTINUOUS
10
21.6303889999999974
20
-65.7207899999999938
11
21.7256269999999994
21
-65.53031399999999
0
LINE
8
BLACK
6
CONTINUOUS
10
21.7256269999999994
20
-65.53031399999999
11
21.8208649999999977
21
-65.4350759999999951
0
LINE
8
BLACK
6
CONTINUOUS
10
21.8208649999999977
20
-65.4350759999999951
11
22.011340999999998
21
-65.3398380000000003
0
LINE
8
BLACK
6
CONTINUOUS
10
23.535150999999999
20
-67.149360999999999
11
23.6303889999999974
21
-67.2445999999999913
0
LINE
8
BLACK
6
CONTINUOUS
10
23.6303889999999974
20
-67.2445999999999913
11
23.535150999999999
21
-67.3398380000000003
0
LINE
8
BLACK
6
CONTINUOUS
10
23.535150999999999
20
-67.3398380000000003
11
23.4399130000000007
21
-67.2445999999999913
0
LINE
8
BLACK
6
CONTINUOUS
10
23.4399130000000007
20
-67.2445999999999913
11
23.535150999999999
21
-67.149360999999999
0
LINE
8
BLACK
6
CONTINUOUS
10
23.535150999999999
20
-67.149360999999999
11
23.535150999999999
21
-67.3398380000000003
0
LINE
8
BLACK
6
CONTINUOUS
10
24.8684839999999987
20
-65.3398380000000003
11
25.058961
21
-65.3398380000000003
0
LINE
8
BLACK
6
CONTINUOUS
10
25.058961
20
-65.3398380000000003
11
25.2494370000000004
21
-65.4350759999999951
0
LINE
8
BLACK
6
CONTINUOUS
10
25.2494370000000004
20
-65.4350759999999951
11
25.3446749999999987
21
-65.53031399999999
0
LINE
8
BLACK
6
CONTINUOUS
10
25.3446749999999987
20
-65.53031399999999
11
25.4399129999999971
21
-65.7207899999999938
0
LINE
8
BLACK
6
CONTINUOUS
10
25.4399129999999971
20
-65.7207899999999938
11
25.535150999999999
21
-66.1017420000000016
0
LINE
8
BLACK
6
CONTINUOUS
10
25.535150999999999
20
-66.1017420000000016
11
25.535150999999999
21
-66.5779330000000016
0
LINE
8
BLACK
6
CONTINUOUS
10
25.535150999999999
20
-66.5779330000000016
11
25.4399129999999971
21
-66.9588849999999951
0
LINE
8
BLACK
6
CONTINUOUS
10
25.4399129999999971
20
-66.9588849999999951
11
25.3446749999999987
21
-67.149360999999999
0
LINE
8
BLACK
6
CONTINUOUS
10
25.3446749999999987
20
-67.149360999999999
11
25.2494370000000004
21
-67.2445999999999913
0
LINE
8
BLACK
6
CONTINUOUS
10
25.2494370000000004
20
-67.2445999999999913
11
25.058961
21
-67.3398380000000003
0
LINE
8
BLACK
6
CONTINUOUS
10
25.058961
20
-67.3398380000000003
11
24.8684839999999987
21
-67.3398380000000003
0
LINE
8
BLACK
6
CONTINUOUS
10
24.8684839999999987
20
-67.3398380000000003
11
24.6780079999999984
21
-67.2445999999999913
0
LINE
8
BLACK
6
CONTINUOUS
10
24.6780079999999984
20
-67.2445999999999913
11
24.58277
21
-67.149360999999999
0
LINE
8
BLACK
6
CONTINUOUS
10
24.58277
20
-67.149360999999999
11
24.4875319999999981
21
-66.9588849999999951
0
LINE
8
BLACK
6
CONTINUOUS
10
24.4875319999999981
20
-66.9588849999999951
11
24.3922939999999997
21
-66.5779330000000016
0
LINE
8
BLACK
6
CONTINUOUS
10
24.3922939999999997
20
-66.5779330000000016
11
24.3922939999999997
21
-66.1017420000000016
0
LINE
8
BLACK
6
CONTINUOUS
10
24.3922939999999997
20
-66.1017420000000016
11
24.4875319999999981
21
-65.7207899999999938
0
LINE
8
BLACK
6
CONTINUOUS
10
24.4875319999999981
20
-65.7207899999999938
11
24.58277
21
-65.53031399999999
0
LINE
8
BLACK
6
CONTINUOUS
10
24.58277
20
-65.53031399999999
11
24.6780079999999984
21
-65.4350759999999951
0
LINE
8
BLACK
6
CONTINUOUS
10
24.6780079999999984
20
-65.4350759999999951
11
24.8684839999999987
21
-65.3398380000000003
0
LINE
8
BLACK
6
CONTINUOUS
10
26.6780079999999984
20
-66.1969799999999964
11
26.4875319999999981
21
-66.1017420000000016
0
LINE
8
BLACK
6
CONTINUOUS
10
26.4875319999999981
20
-66.1017420000000016
11
26.3922939999999997
21
-66.0065039999999925
0
LINE
8
BLACK
6
CONTINUOUS
10
26.3922939999999997
20
-66.0065039999999925
11
26.2970559999999978
21
-65.8160280000000029
0
LINE
8
BLACK
6
CONTINUOUS
10
26.2970559999999978
20
-65.8160280000000029
11
26.2970559999999978
21
-65.7207899999999938
0
LINE
8
BLACK
6
CONTINUOUS
10
26.2970559999999978
20
-65.7207899999999938
11
26.3922939999999997
21
-65.53031399999999
0
LINE
8
BLACK
6
CONTINUOUS
10
26.3922939999999997
20
-65.53031399999999
11
26.4875319999999981
21
-65.4350759999999951
0
LINE
8
BLACK
6
CONTINUOUS
10
26.4875319999999981
20
-65.4350759999999951
11
26.6780079999999984
21
-65.3398380000000003
0
LINE
8
BLACK
6
CONTINUOUS
10
26.6780079999999984
20
-65.3398380000000003
11
27.058961
21
-65.3398380000000003
0
LINE
8
BLACK
6
CONTINUOUS
10
27.058961
20
-65.3398380000000003
11
27.2494370000000004
21
-65.4350759999999951
0
LINE
8
BLACK
6
CONTINUOUS
10
27.2494370000000004
20
-65.4350759999999951
11
27.3446749999999987
21
-65.53031399999999
0
LINE
8
BLACK
6
CONTINUOUS
10
27.3446749999999987
20
-65.53031399999999
11
27.4399129999999971
21
-65.7207899999999938
0
LINE
8
BLACK
6
CONTINUOUS
10
27.4399129999999971
20
-65.7207899999999938
11
27.4399129999999971
21
-65.8160280000000029
0
LINE
8
BLACK
6
CONTINUOUS
10
27.4399129999999971
20
-65.8160280000000029
11
27.3446749999999987
21
-66.0065039999999925
0
LINE
8
BLACK
6
CONTINUOUS
10
27.3446749999999987
20
-66.0065039999999925
11
27.2494370000000004
21
-66.1017420000000016
0
LINE
8
BLACK
6
CONTINUOUS
10
27.2494370000000004
20
-66.1017420000000016
11
27.058961
21
-66.1969799999999964
0
LINE
8
BLACK
6
CONTINUOUS
10
27.058961
20
-66.1969799999999964
11
26.6780079999999984
21
-66.1969799999999964
0
LINE
8
BLACK
6
CONTINUOUS
10
26.6780079999999984
20
-66.1969799999999964
11
26.4875319999999981
21
-66.2922190000000029
0
LINE
8
BLACK
6
CONTINUOUS
10
26.4875319999999981
20
-66.2922190000000029
11
26.3922939999999997
21
-66.3874569999999977
0
LINE
8
BLACK
6
CONTINUOUS
10
26.3922939999999997
20
-66.3874569999999977
11
26.2970559999999978
21
-66.5779330000000016
0
LINE
8
BLACK
6
CONTINUOUS
10
26.2970559999999978
20
-66.5779330000000016
11
26.2970559999999978
21
-66.9588849999999951
0
LINE
8
BLACK
6
CONTINUOUS
10
26.2970559999999978
20
-66.9588849999999951
11
26.3922939999999997
21
-67.149360999999999
0
LINE
8
BLACK
6
CONTINUOUS
10
26.3922939999999997
20
-67.149360999999999
11
26.4875319999999981
21
-67.2445999999999913
0
LINE
8
BLACK
6
CONTINUOUS
10
26.4875319999999981
20
-67.2445999999999913
11
26.6780079999999984
21
-67.3398380000000003
0
LINE
8
BLACK
6
CONTINUOUS
10
26.6780079999999984
20
-67.3398380000000003
11
27.058961
21
-67.3398380000000003
0
LINE
8
BLACK
6
CONTINUOUS
10
27.058961
20
-67.3398380000000003
11
27.2494370000000004
21
-67.2445999999999913
0
LINE
8
BLACK
6
CONTINUOUS
10
27.2494370000000004
20
-67.2445999999999913
11
27.3446749999999987
21
-67.149360999999999
0
LINE
8
BLACK
6
CONTINUOUS
10
27.3446749999999987
20
-67.149360999999999
11
27.4399129999999971
21
-66.9588849999999951
0
LINE
8
BLACK
6
CONTINUOUS
10
27.4399129999999971
20
-66.9588849999999951
11
27.4399129999999971
21
-66.5779330000000016
0
LINE
8
BLACK
6
CONTINUOUS
10
27.4399129999999971
20
-66.5779330000000016
11
27.3446749999999987
21
-66.3874569999999977
0
LINE
8
BLACK
6
CONTINUOUS
10
27.3446749999999987
20
-66.3874569999999977
11
27.2494370000000004
21
-66.2922190000000029
0
LINE
8
BLACK
6
CONTINUOUS
10
27.2494370000000004
20
-66.2922190000000029
11
27.058961
21
-66.1969799999999964
0
LINE
8
BLACK
6
CONTINUOUS
10
29.1541989999999984
20
-65.3398380000000003
11
28.7732460000000003
21
-65.3398380000000003
0
LINE
8
BLACK
6
CONTINUOUS
10
28.7732460000000003
20
-65.3398380000000003
11
28.58277
21
-65.4350759999999951
0
LINE
8
BLACK
6
CONTINUOUS
10
28.58277
20
-65.4350759999999951
11
28.4875319999999981
21
-65.53031399999999
0
LINE
8
BLACK
6
CONTINUOUS
10
28.4875319999999981
20
-65.53031399999999
11
28.2970559999999978
21
-65.8160280000000029
0
LINE
8
BLACK
6
CONTINUOUS
10
28.2970559999999978
20
-65.8160280000000029
11
28.2018179999999994
21
-66.1969799999999964
0
LINE
8
BLACK
6
CONTINUOUS
10
28.2018179999999994
20
-66.1969799999999964
11
28.2018179999999994
21
-66.9588849999999951
0
LINE
8
BLACK
6
CONTINUOUS
10
28.2018179999999994
20
-66.9588849999999951
11
28.2970559999999978
21
-67.149360999999999
0
LINE
8
BLACK
6
CONTINUOUS
10
28.2970559999999978
20
-67.149360999999999
11
28.3922939999999997
21
-67.2445999999999913
0
LINE
8
BLACK
6
CONTINUOUS
10
28.3922939999999997
20
-67.2445999999999913
11
28.58277
21
-67.3398380000000003
0
LINE
8
BLACK
6
CONTINUOUS
10
28.58277
20
-67.3398380000000003
11
28.9637229999999981
21
-67.3398380000000003
0
LINE
8
BLACK
6
CONTINUOUS
10
28.9637229999999981
20
-67.3398380000000003
11
29.1541989999999984
21
-67.2445999999999913
0
LINE
8
BLACK
6
CONTINUOUS
10
29.1541989999999984
20
-67.2445999999999913
11
29.2494370000000004
21
-67.149360999999999
0
LINE
8
BLACK
6
CONTINUOUS
10
29.2494370000000004
20
-67.149360999999999
11
29.3446749999999987
21
-66.9588849999999951
0
LINE
8
BLACK
6
CONTINUOUS
10
29.3446749999999987
20
-66.9588849999999951
11
29.3446749999999987
21
-66.4826949999999925
0
LINE
8
BLACK
6
CONTINUOUS
10
29.3446749999999987
20
-66.4826949999999925
11
29.2494370000000004
21
-66.2922190000000029
0
LINE
8
BLACK
6
CONTINUOUS
10
29.2494370000000004
20
-66.2922190000000029
11
29.1541989999999984
21
-66.1969799999999964
0
LINE
8
BLACK
6
CONTINUOUS
10
29.1541989999999984
20
-66.1969799999999964
11
28.9637229999999981
21
-66.1017420000000016
0
LINE
8
BLACK
6
CONTINUOUS
10
28.9637229999999981
20
-66.1017420000000016
11
28.58277
21
-66.1017420000000016
0
LINE
8
BLACK
6
CONTINUOUS
10
28.58277
20
-66.1017420000000016
11
28.3922939999999997
21
-66.1969799999999964
0
LINE
8
BLACK
6
CONTINUOUS
10
28.3922939999999997
20
-66.1969799999999964
11
28.2970559999999978
21
-66.2922190000000029
0
LINE
8
BLACK
6
CONTINUOUS
10
28.2970559999999978
20
-66.2922190000000029
11
28.2018179999999994
21
-66.4826949999999925
0
LINE
8
BLACK
6
CONTINUOUS
10
31.058961
20
-65.3398380000000003
11
30.6780079999999984
21
-65.3398380000000003
0
LINE
8
BLACK
6
CONTINUOUS
10
30.6780079999999984
20
-65.3398380000000003
11
30.4875319999999981
21
-65.4350759999999951
0
LINE
8
BLACK
6
CONTINUOUS
10
30.4875319999999981
20
-65.4350759999999951
11
30.3922939999999997
21
-65.53031399999999
0
LINE
8
BLACK
6
CONTINUOUS
10
30.3922939999999997
20
-65.53031399999999
11
30.2018179999999994
21
-65.8160280000000029
0
LINE
8
BLACK
6
CONTINUOUS
10
30.2018179999999994
20
-65.8160280000000029
11
30.1065799999999975
21
-66.1969799999999964
0
LINE
8
BLACK
6
CONTINUOUS
10
30.1065799999999975
20
-66.1969799999999964
11
30.1065799999999975
21
-66.9588849999999951
0
LINE
8
BLACK
6
CONTINUOUS
10
30.1065799999999975
20
-66.9588849999999951
11
30.2018179999999994
21
-67.149360999999999
0
LINE
8
BLACK
6
CONTINUOUS
10
30.2018179999999994
20
-67.149360999999999
11
30.2970559999999978
21
-67.2445999999999913
0
LINE
8
BLACK
6
CONTINUOUS
10
30.2970559999999978
20
-67.2445999999999913
11
30.4875319999999981
21
-67.3398380000000003
0
LINE
8
BLACK
6
CONTINUOUS
10
30.4875319999999981
20
-67.3398380000000003
11
30.8684849999999997
21
-67.3398380000000003
0
LINE
8
BLACK
6
CONTINUOUS
10
30.8684849999999997
20
-67.3398380000000003
11
31.058961
21
-67.2445999999999913
0
LINE
8
BLACK
6
CONTINUOUS
10
31.058961
20
-67.2445999999999913
11
31.1541989999999984
21
-67.149360999999999
0
LINE
8
BLACK
6
CONTINUOUS
10
31.1541989999999984
20
-67.149360999999999
11
31.2494370000000004
21
-66.9588849999999951
0
LINE
8
BLACK
6
CONTINUOUS
10
31.2494370000000004
20
-66.9588849999999951
11
31.2494370000000004
21
-66.4826949999999925
0
LINE
8
BLACK
6
CONTINUOUS
10
31.2494370000000004
20
-66.4826949999999925
11
31.1541989999999984
21
-66.2922190000000029
0
LINE
8
BLACK
6
CONTINUOUS
10
31.1541989999999984
20
-66.2922190000000029
11
31.058961
21
-66.1969799999999964
0
LINE
8
BLACK
6
CONTINUOUS
10
31.058961
20
-66.1969799999999964
11
30.8684849999999997
21
-66.1017420000000016
0
LINE
8
BLACK
6
CONTINUOUS
10
30.8684849999999997
20
-66.1017420000000016
11
30.4875319999999981
21
-66.1017420000000016
0
LINE
8
BLACK
6
CONTINUOUS
10
30.4875319999999981
20
-66.1017420000000016
11
30.2970559999999978
21
-66.1969799999999964
0
LINE
8
BLACK
6
CONTINUOUS
10
30.2970559999999978
20
-66.1969799999999964
11
30.2018179999999994
21
-66.2922190000000029
0
LINE
8
BLACK
6
CONTINUOUS
10
30.2018179999999994
20
-66.2922190000000029
11
30.1065799999999975
21
-66.4826949999999925
0
LINE
8
BLACK
6
CONTINUOUS
10
32.0113419999999991
20
-65.3398380000000003
11
32.0113419999999991
21
-65.7207899999999938
0
LINE
8
BLACK
6
CONTINUOUS
10
32.7732469999999978
20
-65.3398380000000003
11
32.7732469999999978
21
-65.7207899999999938
0
LINE
8
BLACK
6
CONTINUOUS
10
35.7256289999999979
20
-68.1017420000000016
11
35.6303899999999985
21
-68.0065039999999925
0
LINE
8
BLACK
6
CONTINUOUS
10
35.6303899999999985
20
-68.0065039999999925
11
35.4399140000000017
21
-67.7207899999999938
0
LINE
8
BLACK
6
CONTINUOUS
10
35.4399140000000017
20
-67.7207899999999938
11
35.3446759999999998
21
-67.53031399999999
0
LINE
8
BLACK
6
CONTINUOUS
10
35.3446759999999998
20
-67.53031399999999
11
35.2494379999999978
21
-67.2445999999999913
0
LINE
8
BLACK
6
CONTINUOUS
10
35.2494379999999978
20
-67.2445999999999913
11
35.1541999999999959
21
-66.7684089999999912
0
LINE
8
BLACK
6
CONTINUOUS
10
35.1541999999999959
20
-66.7684089999999912
11
35.1541999999999959
21
-66.3874569999999977
0
LINE
8
BLACK
6
CONTINUOUS
10
35.1541999999999959
20
-66.3874569999999977
11
35.2494379999999978
21
-65.9112659999999977
0
LINE
8
BLACK
6
CONTINUOUS
10
35.2494379999999978
20
-65.9112659999999977
11
35.3446759999999998
21
-65.625551999999999
0
LINE
8
BLACK
6
CONTINUOUS
10
35.3446759999999998
20
-65.625551999999999
11
35.4399140000000017
21
-65.4350759999999951
0
LINE
8
BLACK
6
CONTINUOUS
10
35.4399140000000017
20
-65.4350759999999951
11
35.6303899999999985
21
-65.149360999999999
0
LINE
8
BLACK
6
CONTINUOUS
10
35.6303899999999985
20
-65.149360999999999
11
35.7256289999999979
21
-65.0541230000000041
0
LINE
8
BLACK
6
CONTINUOUS
10
37.3446759999999998
20
-66.0065039999999925
11
37.3446759999999998
21
-67.3398380000000003
0
LINE
8
BLACK
6
CONTINUOUS
10
36.8684849999999997
20
-65.2445999999999913
11
36.3922949999999972
21
-66.6731709999999964
0
LINE
8
BLACK
6
CONTINUOUS
10
36.3922949999999972
20
-66.6731709999999964
11
37.6303899999999985
21
-66.6731709999999964
0
LINE
8
BLACK
6
CONTINUOUS
10
39.9161050000000017
20
-67.3398380000000003
11
39.9161050000000017
21
-65.3398380000000003
0
LINE
8
BLACK
6
CONTINUOUS
10
40.7732479999999953
20
-67.3398380000000003
11
40.7732479999999953
21
-66.2922190000000029
0
LINE
8
BLACK
6
CONTINUOUS
10
40.7732479999999953
20
-66.2922190000000029
11
40.6780100000000004
21
-66.1017420000000016
0
LINE
8
BLACK
6
CONTINUOUS
10
40.6780100000000004
20
-66.1017420000000016
11
40.4875339999999966
21
-66.0065039999999925
0
LINE
8
BLACK
6
CONTINUOUS
10
40.4875339999999966
20
-66.0065039999999925
11
40.2018190000000004
21
-66.0065039999999925
0
LINE
8
BLACK
6
CONTINUOUS
10
40.2018190000000004
20
-66.0065039999999925
11
40.0113429999999966
21
-66.1017420000000016
0
LINE
8
BLACK
6
CONTINUOUS
10
40.0113429999999966
20
-66.1017420000000016
11
39.9161050000000017
21
-66.1969799999999964
0
LINE
8
BLACK
6
CONTINUOUS
10
42.0113429999999966
20
-67.3398380000000003
11
41.8208669999999998
21
-67.2445999999999913
0
LINE
8
BLACK
6
CONTINUOUS
10
41.8208669999999998
20
-67.2445999999999913
11
41.7256289999999979
21
-67.149360999999999
0
LINE
8
BLACK
6
CONTINUOUS
10
41.7256289999999979
20
-67.149360999999999
11
41.6303909999999959
21
-66.9588849999999951
0
LINE
8
BLACK
6
CONTINUOUS
10
41.6303909999999959
20
-66.9588849999999951
11
41.6303909999999959
21
-66.3874569999999977
0
LINE
8
BLACK
6
CONTINUOUS
10
41.6303909999999959
20
-66.3874569999999977
11
41.7256289999999979
21
-66.1969799999999964
0
LINE
8
BLACK
6
CONTINUOUS
10
41.7256289999999979
20
-66.1969799999999964
11
41.8208669999999998
21
-66.1017420000000016
0
LINE
8
BLACK
6
CONTINUOUS
10
41.8208669999999998
20
-66.1017420000000016
11
42.0113429999999966
21
-66.0065039999999925
0
LINE
8
BLACK
6
CONTINUOUS
10
42.0113429999999966
20
-66.0065039999999925
11
42.2970579999999998
21
-66.0065039999999925
0
LINE
8
BLACK
6
CONTINUOUS
10
42.2970579999999998
20
-66.0065039999999925
11
42.4875339999999966
21
-66.1017420000000016
0
LINE
8
BLACK
6
CONTINUOUS
10
42.4875339999999966
20
-66.1017420000000016
11
42.5827719999999985
21
-66.1969799999999964
0
LINE
8
BLACK
6
CONTINUOUS
10
42.5827719999999985
20
-66.1969799999999964
11
42.6780100000000004
21
-66.3874569999999977
0
LINE
8
BLACK
6
CONTINUOUS
10
42.6780100000000004
20
-66.3874569999999977
11
42.6780100000000004
21
-66.9588849999999951
0
LINE
8
BLACK
6
CONTINUOUS
10
42.6780100000000004
20
-66.9588849999999951
11
42.5827719999999985
21
-67.149360999999999
0
LINE
8
BLACK
6
CONTINUOUS
10
42.5827719999999985
20
-67.149360999999999
11
42.4875339999999966
21
-67.2445999999999913
0
LINE
8
BLACK
6
CONTINUOUS
10
42.4875339999999966
20
-67.2445999999999913
11
42.2970579999999998
21
-67.3398380000000003
0
LINE
8
BLACK
6
CONTINUOUS
10
42.2970579999999998
20
-67.3398380000000003
11
42.0113429999999966
21
-67.3398380000000003
0
LINE
8
BLACK
6
CONTINUOUS
10
43.8208669999999998
20
-67.3398380000000003
11
43.6303909999999959
21
-67.2445999999999913
0
LINE
8
BLACK
6
CONTINUOUS
10
43.6303909999999959
20
-67.2445999999999913
11
43.5351530000000011
21
-67.0541229999999899
0
LINE
8
BLACK
6
CONTINUOUS
10
43.5351530000000011
20
-67.0541229999999899
11
43.5351530000000011
21
-65.3398380000000003
0
LINE
8
BLACK
6
CONTINUOUS
10
45.3446769999999972
20
-67.2445999999999913
11
45.1542010000000005
21
-67.3398380000000003
0
LINE
8
BLACK
6
CONTINUOUS
10
45.1542010000000005
20
-67.3398380000000003
11
44.7732479999999953
21
-67.3398380000000003
0
LINE
8
BLACK
6
CONTINUOUS
10
44.7732479999999953
20
-67.3398380000000003
11
44.5827719999999985
21
-67.2445999999999913
0
LINE
8
BLACK
6
CONTINUOUS
10
44.5827719999999985
20
-67.2445999999999913
11
44.4875339999999966
21
-67.0541229999999899
0
LINE
8
BLACK
6
CONTINUOUS
10
44.4875339999999966
20
-67.0541229999999899
11
44.4875339999999966
21
-66.2922190000000029
0
LINE
8
BLACK
6
CONTINUOUS
10
44.4875339999999966
20
-66.2922190000000029
11
44.5827719999999985
21
-66.1017420000000016
0
LINE
8
BLACK
6
CONTINUOUS
10
44.5827719999999985
20
-66.1017420000000016
11
44.7732479999999953
21
-66.0065039999999925
0
LINE
8
BLACK
6
CONTINUOUS
10
44.7732479999999953
20
-66.0065039999999925
11
45.1542010000000005
21
-66.0065039999999925
0
LINE
8
BLACK
6
CONTINUOUS
10
45.1542010000000005
20
-66.0065039999999925
11
45.3446769999999972
21
-66.1017420000000016
0
LINE
8
BLACK
6
CONTINUOUS
10
45.3446769999999972
20
-66.1017420000000016
11
45.4399149999999992
21
-66.2922190000000029
0
LINE
8
BLACK
6
CONTINUOUS
10
45.4399149999999992
20
-66.2922190000000029
11
45.4399149999999992
21
-66.4826949999999925
0
LINE
8
BLACK
6
CONTINUOUS
10
45.4399149999999992
20
-66.4826949999999925
11
44.4875339999999966
21
-66.6731709999999964
0
LINE
8
BLACK
6
CONTINUOUS
10
46.2018199999999979
20
-67.2445999999999913
11
46.3922959999999946
21
-67.3398380000000003
0
LINE
8
BLACK
6
CONTINUOUS
10
46.3922959999999946
20
-67.3398380000000003
11
46.7732479999999953
21
-67.3398380000000003
0
LINE
8
BLACK
6
CONTINUOUS
10
46.7732479999999953
20
-67.3398380000000003
11
46.9637249999999966
21
-67.2445999999999913
0
LINE
8
BLACK
6
CONTINUOUS
10
46.9637249999999966
20
-67.2445999999999913
11
47.0589629999999985
21
-67.0541229999999899
0
LINE
8
BLACK
6
CONTINUOUS
10
47.0589629999999985
20
-67.0541229999999899
11
47.0589629999999985
21
-66.9588849999999951
0
LINE
8
BLACK
6
CONTINUOUS
10
47.0589629999999985
20
-66.9588849999999951
11
46.9637249999999966
21
-66.7684089999999912
0
LINE
8
BLACK
6
CONTINUOUS
10
46.9637249999999966
20
-66.7684089999999912
11
46.7732479999999953
21
-66.6731709999999964
0
LINE
8
BLACK
6
CONTINUOUS
10
46.7732479999999953
20
-66.6731709999999964
11
46.4875339999999966
21
-66.6731709999999964
0
LINE
8
BLACK
6
CONTINUOUS
10
46.4875339999999966
20
-66.6731709999999964
11
46.2970579999999998
21
-66.5779330000000016
0
LINE
8
BLACK
6
CONTINUOUS
10
46.2970579999999998
20
-66.5779330000000016
11
46.2018199999999979
21
-66.3874569999999977
0
LINE
8
BLACK
6
CONTINUOUS
10
46.2018199999999979
20
-66.3874569999999977
11
46.2018199999999979
21
-66.2922190000000029
0
LINE
8
BLACK
6
CONTINUOUS
10
46.2018199999999979
20
-66.2922190000000029
11
46.2970579999999998
21
-66.1017420000000016
0
LINE
8
BLACK
6
CONTINUOUS
10
46.2970579999999998
20
-66.1017420000000016
11
46.4875339999999966
21
-66.0065039999999925
0
LINE
8
BLACK
6
CONTINUOUS
10
46.4875339999999966
20
-66.0065039999999925
11
46.7732479999999953
21
-66.0065039999999925
0
LINE
8
BLACK
6
CONTINUOUS
10
46.7732479999999953
20
-66.0065039999999925
11
46.9637249999999966
21
-66.1017420000000016
0
LINE
8
BLACK
6
CONTINUOUS
10
47.7256299999999953
20
-68.1017420000000016
11
47.8208679999999973
21
-68.0065039999999925
0
LINE
8
BLACK
6
CONTINUOUS
10
47.8208679999999973
20
-68.0065039999999925
11
48.0113440000000011
21
-67.7207899999999938
0
LINE
8
BLACK
6
CONTINUOUS
10
48.0113440000000011
20
-67.7207899999999938
11
48.106581999999996
21
-67.53031399999999
0
LINE
8
BLACK
6
CONTINUOUS
10
48.106581999999996
20
-67.53031399999999
11
48.2018199999999979
21
-67.2445999999999913
0
LINE
8
BLACK
6
CONTINUOUS
10
48.2018199999999979
20
-67.2445999999999913
11
48.2970579999999998
21
-66.7684089999999912
0
LINE
8
BLACK
6
CONTINUOUS
10
48.2970579999999998
20
-66.7684089999999912
11
48.2970579999999998
21
-66.3874569999999977
0
LINE
8
BLACK
6
CONTINUOUS
10
48.2970579999999998
20
-66.3874569999999977
11
48.2018199999999979
21
-65.9112659999999977
0
LINE
8
BLACK
6
CONTINUOUS
10
48.2018199999999979
20
-65.9112659999999977
11
48.106581999999996
21
-65.625551999999999
0
LINE
8
BLACK
6
CONTINUOUS
10
48.106581999999996
20
-65.625551999999999
11
48.0113440000000011
21
-65.4350759999999951
0
LINE
8
BLACK
6
CONTINUOUS
10
48.0113440000000011
20
-65.4350759999999951
11
47.8208679999999973
21
-65.149360999999999
0
LINE
8
BLACK
6
CONTINUOUS
10
47.8208679999999973
20
-65.149360999999999
11
47.7256299999999953
21
-65.0541230000000041
0
LINE
8
BLACK
6
CONTINUOUS
10
51.3446779999999947
20
-68.1017420000000016
11
51.2494389999999953
21
-68.0065039999999925
0
LINE
8
BLACK
6
CONTINUOUS
10
51.2494389999999953
20
-68.0065039999999925
11
51.0589629999999985
21
-67.7207899999999938
0
LINE
8
BLACK
6
CONTINUOUS
10
51.0589629999999985
20
-67.7207899999999938
11
50.9637249999999966
21
-67.53031399999999
0
LINE
8
BLACK
6
CONTINUOUS
10
50.9637249999999966
20
-67.53031399999999
11
50.8684869999999947
21
-67.2445999999999913
0
LINE
8
BLACK
6
CONTINUOUS
10
50.8684869999999947
20
-67.2445999999999913
11
50.7732489999999999
21
-66.7684089999999912
0
LINE
8
BLACK
6
CONTINUOUS
10
50.7732489999999999
20
-66.7684089999999912
11
50.7732489999999999
21
-66.3874569999999977
0
LINE
8
BLACK
6
CONTINUOUS
10
50.7732489999999999
20
-66.3874569999999977
11
50.8684869999999947
21
-65.9112659999999977
0
LINE
8
BLACK
6
CONTINUOUS
10
50.8684869999999947
20
-65.9112659999999977
11
50.9637249999999966
21
-65.625551999999999
0
LINE
8
BLACK
6
CONTINUOUS
10
50.9637249999999966
20
-65.625551999999999
11
51.0589629999999985
21
-65.4350759999999951
0
LINE
8
BLACK
6
CONTINUOUS
10
51.0589629999999985
20
-65.4350759999999951
11
51.2494389999999953
21
-65.149360999999999
0
LINE
8
BLACK
6
CONTINUOUS
10
51.2494389999999953
20
-65.149360999999999
11
51.3446779999999947
21
-65.0541230000000041
0
LINE
8
BLACK
6
CONTINUOUS
10
52.106581999999996
20
-66.0065039999999925
11
52.106581999999996
21
-67.3398380000000003
0
LINE
8
BLACK
6
CONTINUOUS
10
52.106581999999996
20
-66.1969799999999964
11
52.2018199999999979
21
-66.1017420000000016
0
LINE
8
BLACK
6
CONTINUOUS
10
52.2018199999999979
20
-66.1017420000000016
11
52.3922959999999946
21
-66.0065039999999925
0
LINE
8
BLACK
6
CONTINUOUS
10
52.3922959999999946
20
-66.0065039999999925
11
52.6780109999999979
21
-66.0065039999999925
0
LINE
8
BLACK
6
CONTINUOUS
10
52.6780109999999979
20
-66.0065039999999925
11
52.8684869999999947
21
-66.1017420000000016
0
LINE
8
BLACK
6
CONTINUOUS
10
52.8684869999999947
20
-66.1017420000000016
11
52.9637249999999966
21
-66.2922190000000029
0
LINE
8
BLACK
6
CONTINUOUS
10
52.9637249999999966
20
-66.2922190000000029
11
52.9637249999999966
21
-67.3398380000000003
0
LINE
8
BLACK
6
CONTINUOUS
10
54.2018199999999979
20
-67.3398380000000003
11
54.011343999999994
21
-67.2445999999999913
0
LINE
8
BLACK
6
CONTINUOUS
10
54.011343999999994
20
-67.2445999999999913
11
53.9161059999999992
21
-67.149360999999999
0
LINE
8
BLACK
6
CONTINUOUS
10
53.9161059999999992
20
-67.149360999999999
11
53.8208679999999973
21
-66.9588849999999951
0
LINE
8
BLACK
6
CONTINUOUS
10
53.8208679999999973
20
-66.9588849999999951
11
53.8208679999999973
21
-66.3874569999999977
0
LINE
8
BLACK
6
CONTINUOUS
10
53.8208679999999973
20
-66.3874569999999977
11
53.9161059999999992
21
-66.1969799999999964
0
LINE
8
BLACK
6
CONTINUOUS
10
53.9161059999999992
20
-66.1969799999999964
11
54.011343999999994
21
-66.1017420000000016
0
LINE
8
BLACK
6
CONTINUOUS
10
54.011343999999994
20
-66.1017420000000016
11
54.2018199999999979
21
-66.0065039999999925
0
LINE
8
BLACK
6
CONTINUOUS
10
54.2018199999999979
20
-66.0065039999999925
11
54.4875349999999941
21
-66.0065039999999925
0
LINE
8
BLACK
6
CONTINUOUS
10
54.4875349999999941
20
-66.0065039999999925
11
54.6780109999999979
21
-66.1017420000000016
0
LINE
8
BLACK
6
CONTINUOUS
10
54.6780109999999979
20
-66.1017420000000016
11
54.7732489999999999
21
-66.1969799999999964
0
LINE
8
BLACK
6
CONTINUOUS
10
54.7732489999999999
20
-66.1969799999999964
11
54.8684869999999947
21
-66.3874569999999977
0
LINE
8
BLACK
6
CONTINUOUS
10
54.8684869999999947
20
-66.3874569999999977
11
54.8684869999999947
21
-66.9588849999999951
0
LINE
8
BLACK
6
CONTINUOUS
10
54.8684869999999947
20
-66.9588849999999951
11
54.7732489999999999
21
-67.149360999999999
0
LINE
8
BLACK
6
CONTINUOUS
10
54.7732489999999999
20
-67.149360999999999
11
54.6780109999999979
21
-67.2445999999999913
0
LINE
8
BLACK
6
CONTINUOUS
10
54.6780109999999979
20
-67.2445999999999913
11
54.4875349999999941
21
-67.3398380000000003
0
LINE
8
BLACK
6
CONTINUOUS
10
54.4875349999999941
20
-67.3398380000000003
11
54.2018199999999979
21
-67.3398380000000003
0
LINE
8
BLACK
6
CONTINUOUS
10
55.4399159999999966
20
-66.0065039999999925
11
56.2018199999999979
21
-66.0065039999999925
0
LINE
8
BLACK
6
CONTINUOUS
10
55.7256299999999953
20
-65.3398380000000003
11
55.7256299999999953
21
-67.0541229999999899
0
LINE
8
BLACK
6
CONTINUOUS
10
55.7256299999999953
20
-67.0541229999999899
11
55.8208679999999973
21
-67.2445999999999913
0
LINE
8
BLACK
6
CONTINUOUS
10
55.8208679999999973
20
-67.2445999999999913
11
56.011343999999994
21
-67.3398380000000003
0
LINE
8
BLACK
6
CONTINUOUS
10
56.011343999999994
20
-67.3398380000000003
11
56.2018199999999979
21
-67.3398380000000003
0
LINE
8
BLACK
6
CONTINUOUS
10
58.3922969999999992
20
-66.0065039999999925
11
58.3922969999999992
21
-68.0065039999999925
0
LINE
8
BLACK
6
CONTINUOUS
10
58.3922969999999992
20
-66.1017420000000016
11
58.582772999999996
21
-66.0065039999999925
0
LINE
8
BLACK
6
CONTINUOUS
10
58.582772999999996
20
-66.0065039999999925
11
58.9637259999999941
21
-66.0065039999999925
0
LINE
8
BLACK
6
CONTINUOUS
10
58.9637259999999941
20
-66.0065039999999925
11
59.154201999999998
21
-66.1017420000000016
0
LINE
8
BLACK
6
CONTINUOUS
10
59.154201999999998
20
-66.1017420000000016
11
59.2494399999999999
21
-66.1969799999999964
0
LINE
8
BLACK
6
CONTINUOUS
10
59.2494399999999999
20
-66.1969799999999964
11
59.3446779999999947
21
-66.3874569999999977
0
LINE
8
BLACK
6
CONTINUOUS
10
59.3446779999999947
20
-66.3874569999999977
11
59.3446779999999947
21
-66.9588849999999951
0
LINE
8
BLACK
6
CONTINUOUS
10
59.3446779999999947
20
-66.9588849999999951
11
59.2494399999999999
21
-67.149360999999999
0
LINE
8
BLACK
6
CONTINUOUS
10
59.2494399999999999
20
-67.149360999999999
11
59.154201999999998
21
-67.2445999999999913
0
LINE
8
BLACK
6
CONTINUOUS
10
59.154201999999998
20
-67.2445999999999913
11
58.9637259999999941
21
-67.3398380000000003
0
LINE
8
BLACK
6
CONTINUOUS
10
58.9637259999999941
20
-67.3398380000000003
11
58.582772999999996
21
-67.3398380000000003
0
LINE
8
BLACK
6
CONTINUOUS
10
58.582772999999996
20
-67.3398380000000003
11
58.3922969999999992
21
-67.2445999999999913
0
LINE
8
BLACK
6
CONTINUOUS
10
60.4875349999999941
20
-67.3398380000000003
11
60.2970589999999973
21
-67.2445999999999913
0
LINE
8
BLACK
6
CONTINUOUS
10
60.2970589999999973
20
-67.2445999999999913
11
60.2018209999999954
21
-67.0541229999999899
0
LINE
8
BLACK
6
CONTINUOUS
10
60.2018209999999954
20
-67.0541229999999899
11
60.2018209999999954
21
-65.3398380000000003
0
LINE
8
BLACK
6
CONTINUOUS
10
62.1065830000000005
20
-67.3398380000000003
11
62.1065830000000005
21
-66.2922190000000029
0
LINE
8
BLACK
6
CONTINUOUS
10
62.1065830000000005
20
-66.2922190000000029
11
62.0113449999999986
21
-66.1017420000000016
0
LINE
8
BLACK
6
CONTINUOUS
10
62.0113449999999986
20
-66.1017420000000016
11
61.8208689999999947
21
-66.0065039999999925
0
LINE
8
BLACK
6
CONTINUOUS
10
61.8208689999999947
20
-66.0065039999999925
11
61.4399159999999966
21
-66.0065039999999925
0
LINE
8
BLACK
6
CONTINUOUS
10
61.4399159999999966
20
-66.0065039999999925
11
61.2494399999999999
21
-66.1017420000000016
0
LINE
8
BLACK
6
CONTINUOUS
10
62.1065830000000005
20
-67.2445999999999913
11
61.9161069999999967
21
-67.3398380000000003
0
LINE
8
BLACK
6
CONTINUOUS
10
61.9161069999999967
20
-67.3398380000000003
11
61.4399159999999966
21
-67.3398380000000003
0
LINE
8
BLACK
6
CONTINUOUS
10
61.4399159999999966
20
-67.3398380000000003
11
61.2494399999999999
21
-67.2445999999999913
0
LINE
8
BLACK
6
CONTINUOUS
10
61.2494399999999999
20
-67.2445999999999913
11
61.154201999999998
21
-67.0541229999999899
0
LINE
8
BLACK
6
CONTINUOUS
10
61.154201999999998
20
-67.0541229999999899
11
61.154201999999998
21
-66.8636470000000003
0
LINE
8
BLACK
6
CONTINUOUS
10
61.154201999999998
20
-66.8636470000000003
11
61.2494399999999999
21
-66.6731709999999964
0
LINE
8
BLACK
6
CONTINUOUS
10
61.2494399999999999
20
-66.6731709999999964
11
61.4399159999999966
21
-66.5779330000000016
0
LINE
8
BLACK
6
CONTINUOUS
10
61.4399159999999966
20
-66.5779330000000016
11
61.9161069999999967
21
-66.5779330000000016
0
LINE
8
BLACK
6
CONTINUOUS
10
61.9161069999999967
20
-66.5779330000000016
11
62.1065830000000005
21
-66.4826949999999925
0
LINE
8
BLACK
6
CONTINUOUS
10
62.7732499999999973
20
-66.0065039999999925
11
63.5351539999999986
21
-66.0065039999999925
0
LINE
8
BLACK
6
CONTINUOUS
10
63.058963999999996
20
-65.3398380000000003
11
63.058963999999996
21
-67.0541229999999899
0
LINE
8
BLACK
6
CONTINUOUS
10
63.058963999999996
20
-67.0541229999999899
11
63.154201999999998
21
-67.2445999999999913
0
LINE
8
BLACK
6
CONTINUOUS
10
63.154201999999998
20
-67.2445999999999913
11
63.3446779999999947
21
-67.3398380000000003
0
LINE
8
BLACK
6
CONTINUOUS
10
63.3446779999999947
20
-67.3398380000000003
11
63.5351539999999986
21
-67.3398380000000003
0
LINE
8
BLACK
6
CONTINUOUS
10
64.9637259999999941
20
-67.2445999999999913
11
64.7732499999999902
21
-67.3398380000000003
0
LINE
8
BLACK
6
CONTINUOUS
10
64.7732499999999902
20
-67.3398380000000003
11
64.3922969999999992
21
-67.3398380000000003
0
LINE
8
BLACK
6
CONTINUOUS
10
64.3922969999999992
20
-67.3398380000000003
11
64.2018209999999954
21
-67.2445999999999913
0
LINE
8
BLACK
6
CONTINUOUS
10
64.2018209999999954
20
-67.2445999999999913
11
64.1065830000000005
21
-67.0541229999999899
0
LINE
8
BLACK
6
CONTINUOUS
10
64.1065830000000005
20
-67.0541229999999899
11
64.1065830000000005
21
-66.2922190000000029
0
LINE
8
BLACK
6
CONTINUOUS
10
64.1065830000000005
20
-66.2922190000000029
11
64.2018209999999954
21
-66.1017420000000016
0
LINE
8
BLACK
6
CONTINUOUS
10
64.2018209999999954
20
-66.1017420000000016
11
64.3922969999999992
21
-66.0065039999999925
0
LINE
8
BLACK
6
CONTINUOUS
10
64.3922969999999992
20
-66.0065039999999925
11
64.7732499999999902
21
-66.0065039999999925
0
LINE
8
BLACK
6
CONTINUOUS
10
64.7732499999999902
20
-66.0065039999999925
11
64.9637259999999941
21
-66.1017420000000016
0
LINE
8
BLACK
6
CONTINUOUS
10
64.9637259999999941
20
-66.1017420000000016
11
65.0589640000000031
21
-66.2922190000000029
0
LINE
8
BLACK
6
CONTINUOUS
10
65.0589640000000031
20
-66.2922190000000029
11
65.0589640000000031
21
-66.4826949999999925
0
LINE
8
BLACK
6
CONTINUOUS
10
65.0589640000000031
20
-66.4826949999999925
11
64.1065830000000005
21
-66.6731709999999964
0
LINE
8
BLACK
6
CONTINUOUS
10
66.7732499999999902
20
-67.3398380000000003
11
66.7732499999999902
21
-65.3398380000000003
0
LINE
8
BLACK
6
CONTINUOUS
10
66.7732499999999902
20
-67.2445999999999913
11
66.5827740000000006
21
-67.3398380000000003
0
LINE
8
BLACK
6
CONTINUOUS
10
66.5827740000000006
20
-67.3398380000000003
11
66.2018209999999954
21
-67.3398380000000003
0
LINE
8
BLACK
6
CONTINUOUS
10
66.2018209999999954
20
-67.3398380000000003
11
66.0113449999999915
21
-67.2445999999999913
0
LINE
8
BLACK
6
CONTINUOUS
10
66.0113449999999915
20
-67.2445999999999913
11
65.9161069999999967
21
-67.149360999999999
0
LINE
8
BLACK
6
CONTINUOUS
10
65.9161069999999967
20
-67.149360999999999
11
65.8208690000000018
21
-66.9588849999999951
0
LINE
8
BLACK
6
CONTINUOUS
10
65.8208690000000018
20
-66.9588849999999951
11
65.8208690000000018
21
-66.3874569999999977
0
LINE
8
BLACK
6
CONTINUOUS
10
65.8208690000000018
20
-66.3874569999999977
11
65.9161069999999967
21
-66.1969799999999964
0
LINE
8
BLACK
6
CONTINUOUS
10
65.9161069999999967
20
-66.1969799999999964
11
66.0113449999999915
21
-66.1017420000000016
0
LINE
8
BLACK
6
CONTINUOUS
10
66.0113449999999915
20
-66.1017420000000016
11
66.2018209999999954
21
-66.0065039999999925
0
LINE
8
BLACK
6
CONTINUOUS
10
66.2018209999999954
20
-66.0065039999999925
11
66.5827740000000006
21
-66.0065039999999925
0
LINE
8
BLACK
6
CONTINUOUS
10
66.5827740000000006
20
-66.0065039999999925
11
66.7732499999999902
21
-66.1017420000000016
0
LINE
8
BLACK
6
CONTINUOUS
10
67.5351550000000032
20
-68.1017420000000016
11
67.630392999999998
21
-68.0065039999999925
0
LINE
8
BLACK
6
CONTINUOUS
10
67.630392999999998
20
-68.0065039999999925
11
67.8208690000000018
21
-67.7207899999999938
0
LINE
8
BLACK
6
CONTINUOUS
10
67.8208690000000018
20
-67.7207899999999938
11
67.9161069999999967
21
-67.53031399999999
0
LINE
8
BLACK
6
CONTINUOUS
10
67.9161069999999967
20
-67.53031399999999
11
68.0113449999999915
21
-67.2445999999999913
0
LINE
8
BLACK
6
CONTINUOUS
10
68.0113449999999915
20
-67.2445999999999913
11
68.1065830000000005
21
-66.7684089999999912
0
LINE
8
BLACK
6
CONTINUOUS
10
68.1065830000000005
20
-66.7684089999999912
11
68.1065830000000005
21
-66.3874569999999977
0
LINE
8
BLACK
6
CONTINUOUS
10
68.1065830000000005
20
-66.3874569999999977
11
68.0113449999999915
21
-65.9112659999999977
0
LINE
8
BLACK
6
CONTINUOUS
10
68.0113449999999915
20
-65.9112659999999977
11
67.9161069999999967
21
-65.625551999999999
0
LINE
8
BLACK
6
CONTINUOUS
10
67.9161069999999967
20
-65.625551999999999
11
67.8208690000000018
21
-65.4350759999999951
0
LINE
8
BLACK
6
CONTINUOUS
10
67.8208690000000018
20
-65.4350759999999951
11
67.630392999999998
21
-65.149360999999999
0
LINE
8
BLACK
6
CONTINUOUS
10
67.630392999999998
20
-65.149360999999999
11
67.5351550000000032
21
-65.0541230000000041
  0
ENDSEC
  0
EOF
