M48
; DRILL file {KiCad 8.0.5} date 2024-10-10T08:51:15-0500
; FORMAT={-:-/ absolute / inch / decimal}
; #@! TF.CreationDate,2024-10-10T08:51:15-05:00
; #@! TF.GenerationSoftware,Kicad,Pcbnew,8.0.5
; #@! TF.FileFunction,Plated,1,2,PTH
FMAT,2
INCH
; #@! TA.AperFunction,Plated,PTH,ComponentDrill
T1C0.0295
; #@! TA.AperFunction,Plated,PTH,ComponentDrill
T2C0.0315
; #@! TA.AperFunction,Plated,PTH,ComponentDrill
T3C0.0394
; #@! TA.AperFunction,Plated,PTH,ComponentDrill
T4C0.0591
%
G90
G05
T1
X2.4075Y-2.3378
X2.4075Y-2.3878
X2.4075Y-2.4378
T2
X2.7697Y-2.2311
X2.7697Y-2.3311
X2.7697Y-2.465
X2.7697Y-2.565
X2.7756Y-1.7325
X2.7756Y-1.8325
X2.7756Y-1.9866
X2.7756Y-2.0866
X2.7756Y-2.9843
X2.7756Y-3.4843
X3.2874Y-3.4843
X3.3008Y-3.1528
X3.3874Y-3.4843
X3.4008Y-3.1528
X3.5008Y-3.1528
X3.5894Y-3.4843
X3.6008Y-3.1528
X3.6894Y-3.4843
X3.7008Y-3.1528
X4.2717Y-2.2953
X4.2717Y-2.7953
T3
X2.5787Y-2.7953
X2.7756Y-2.7953
X4.1732Y-2.9921
X4.3701Y-2.9921
T4
X2.2441Y-1.9685
X2.2441Y-2.7953
X2.2441Y-3.3465
X4.2717Y-1.9685
X4.2717Y-3.3465
M30
