%TF.GenerationSoftware,KiCad,Pcbnew,9.0.0-rc3*%
%TF.CreationDate,2025-02-26T11:37:17-06:00*%
%TF.ProjectId,Block-JAN6418,426c6f63-6b2d-44a4-914e-363431382e6b,rev?*%
%TF.SameCoordinates,PX3305860PY2160ec0*%
%TF.FileFunction,Copper,L1,Top*%
%TF.FilePolarity,Positive*%
%FSLAX46Y46*%
G04 Gerber Fmt 4.6, Leading zero omitted, Abs format (unit mm)*
G04 Created by KiCad (PCBNEW 9.0.0-rc3) date 2025-02-26 11:37:17*
%MOMM*%
%LPD*%
G01*
G04 APERTURE LIST*
%TA.AperFunction,ComponentPad*%
%ADD10C,2.000000*%
%TD*%
%TA.AperFunction,ComponentPad*%
%ADD11C,3.000000*%
%TD*%
%TA.AperFunction,ComponentPad*%
%ADD12O,1.600000X1.600000*%
%TD*%
%TA.AperFunction,ComponentPad*%
%ADD13C,1.600000*%
%TD*%
%TA.AperFunction,ComponentPad*%
%ADD14R,1.800000X1.800000*%
%TD*%
%TA.AperFunction,ComponentPad*%
%ADD15C,1.800000*%
%TD*%
%TA.AperFunction,ComponentPad*%
%ADD16C,1.400000*%
%TD*%
%TA.AperFunction,ViaPad*%
%ADD17C,0.600000*%
%TD*%
G04 APERTURE END LIST*
D10*
%TO.P,C1,2*%
%TO.N,Net-(J4-Pin_1)*%
X40500000Y-32000000D03*
%TO.P,C1,1*%
%TO.N,Net-(U1A-P)*%
X40500000Y-37000000D03*
%TD*%
%TO.P,C2,2*%
%TO.N,Net-(U1A-G1)*%
X4500000Y-36500000D03*
%TO.P,C2,1*%
%TO.N,Net-(J3-Pin_1)*%
X4500000Y-31500000D03*
%TD*%
D11*
%TO.P,J1,1,Pin_1*%
%TO.N,Net-(J1-Pin_1)*%
X34000000Y-55500000D03*
%TD*%
%TO.P,J4,1,Pin_1*%
%TO.N,Net-(J4-Pin_1)*%
X40500000Y-25000000D03*
%TD*%
%TO.P,J5,1,Pin_1*%
%TO.N,+9V*%
X11000000Y-55500000D03*
%TD*%
D12*
%TO.P,R4,2*%
%TO.N,Net-(U1A-G2)*%
X27000000Y-44952500D03*
D13*
%TO.P,R4,1*%
%TO.N,Net-(U1A-P)*%
X29540000Y-44952500D03*
%TD*%
D12*
%TO.P,R5,2*%
%TO.N,GND*%
X24460000Y-49000000D03*
D13*
%TO.P,R5,1*%
%TO.N,Net-(U1A-G2)*%
X27000000Y-49000000D03*
%TD*%
D11*
%TO.P,J2,1,Pin_1*%
%TO.N,GND*%
X22500000Y-55500000D03*
%TD*%
D14*
%TO.P,U1,1,P*%
%TO.N,Net-(U1A-P)*%
X29500000Y-38500000D03*
D15*
%TO.P,U1,2,G2*%
%TO.N,Net-(U1A-G2)*%
X26960000Y-38500000D03*
%TO.P,U1,3,F+\u002CG3*%
%TO.N,Net-(C3-Pad1)*%
X24420000Y-38500000D03*
%TO.P,U1,4,G1*%
%TO.N,Net-(U1A-G1)*%
X21880000Y-38500000D03*
%TO.P,U1,5,F+\u002CG3*%
%TO.N,GND*%
X19340000Y-38500000D03*
%TD*%
D11*
%TO.P,J3,1,Pin_1*%
%TO.N,Net-(J3-Pin_1)*%
X4500000Y-25000000D03*
%TD*%
D16*
%TO.P,C3,1*%
%TO.N,Net-(C3-Pad1)*%
X21500000Y-43750000D03*
%TO.P,C3,2*%
%TO.N,GND*%
X21500000Y-46250000D03*
%TD*%
D13*
%TO.P,R6,1*%
%TO.N,Net-(U1A-G1)*%
X15000000Y-36650000D03*
D12*
%TO.P,R6,2*%
%TO.N,GND*%
X15000000Y-49350000D03*
%TD*%
D13*
%TO.P,R3,1*%
%TO.N,Net-(J1-Pin_1)*%
X34500000Y-50000000D03*
D12*
%TO.P,R3,2*%
%TO.N,Net-(U1A-P)*%
X34500000Y-37300000D03*
%TD*%
D13*
%TO.P,R2,1*%
%TO.N,Net-(R1-Pad1)*%
X8460000Y-45500000D03*
D12*
%TO.P,R2,2*%
%TO.N,Net-(C3-Pad1)*%
X11000000Y-45500000D03*
%TD*%
D13*
%TO.P,R1,1*%
%TO.N,Net-(R1-Pad1)*%
X8460000Y-49500000D03*
D12*
%TO.P,R1,2*%
%TO.N,+9V*%
X11000000Y-49500000D03*
%TD*%
D17*
%TO.N,GND*%
X2500000Y-37500000D03*
X16000000Y-42500000D03*
X28500000Y-51000000D03*
X39000000Y-35500000D03*
X39000000Y-38500000D03*
X38500000Y-27000000D03*
X2500000Y-23000000D03*
X6500000Y-23000000D03*
X2500000Y-27000000D03*
X6500000Y-27000000D03*
X42500000Y-23000000D03*
X38500000Y-23000000D03*
X42500000Y-27000000D03*
X39000000Y-33500000D03*
X39000000Y-30500000D03*
X42000000Y-30500000D03*
X42000000Y-33500000D03*
X42000000Y-38500000D03*
X42000000Y-35500000D03*
X2500000Y-35500000D03*
X2500000Y-32500000D03*
X6500000Y-32500000D03*
X24500000Y-36500000D03*
X32000000Y-57500000D03*
X25500000Y-47000000D03*
X28250000Y-46500000D03*
X31000000Y-46500000D03*
X31000000Y-40500000D03*
X31000000Y-43500000D03*
X33000000Y-48500000D03*
X36000000Y-48500000D03*
X33000000Y-51500000D03*
X36000000Y-51500000D03*
X36000000Y-53500000D03*
X32000000Y-53500000D03*
X36000000Y-57500000D03*
X11000000Y-58000000D03*
X13500000Y-55500000D03*
X8500000Y-55500000D03*
X5960000Y-45500000D03*
X5960000Y-49500000D03*
X9710000Y-44000000D03*
X9960000Y-47500000D03*
X9710000Y-51250000D03*
X16000000Y-45000000D03*
X23000000Y-43000000D03*
X25500000Y-43500000D03*
X25500000Y-40500000D03*
X28250000Y-43500000D03*
X28250000Y-40500000D03*
X36000000Y-35500000D03*
X36000000Y-38500000D03*
X33000000Y-38500000D03*
X29000000Y-36500000D03*
X33000000Y-35500000D03*
X3500000Y-29500000D03*
X5500000Y-29500000D03*
X13500000Y-37500000D03*
X10000000Y-37500000D03*
X6500000Y-37500000D03*
X18500000Y-35500000D03*
X13500000Y-35500000D03*
X10000000Y-35500000D03*
X6500000Y-35500000D03*
%TD*%
%TA.AperFunction,Conductor*%
%TO.N,GND*%
G36*
X44442539Y-520185D02*
G01*
X44488294Y-572989D01*
X44499500Y-624500D01*
X44499500Y-59375500D01*
X44479815Y-59442539D01*
X44427011Y-59488294D01*
X44375500Y-59499500D01*
X624500Y-59499500D01*
X557461Y-59479815D01*
X511706Y-59427011D01*
X500500Y-59375500D01*
X500500Y-57397648D01*
X1199500Y-57397648D01*
X1199500Y-57602351D01*
X1231522Y-57804534D01*
X1294781Y-57999223D01*
X1387715Y-58181613D01*
X1508028Y-58347213D01*
X1652786Y-58491971D01*
X1807749Y-58604556D01*
X1818390Y-58612287D01*
X1934607Y-58671503D01*
X2000776Y-58705218D01*
X2000778Y-58705218D01*
X2000781Y-58705220D01*
X2105137Y-58739127D01*
X2195465Y-58768477D01*
X2296557Y-58784488D01*
X2397648Y-58800500D01*
X2397649Y-58800500D01*
X2602351Y-58800500D01*
X2602352Y-58800500D01*
X2804534Y-58768477D01*
X2999219Y-58705220D01*
X3181610Y-58612287D01*
X3274590Y-58544732D01*
X3347213Y-58491971D01*
X3347215Y-58491968D01*
X3347219Y-58491966D01*
X3491966Y-58347219D01*
X3491968Y-58347215D01*
X3491971Y-58347213D01*
X3544732Y-58274590D01*
X3612287Y-58181610D01*
X3705220Y-57999219D01*
X3768477Y-57804534D01*
X3800500Y-57602352D01*
X3800500Y-57397648D01*
X3784724Y-57298041D01*
X3768477Y-57195465D01*
X3707332Y-57007281D01*
X3705220Y-57000781D01*
X3705218Y-57000778D01*
X3705218Y-57000776D01*
X3671503Y-56934607D01*
X3612287Y-56818390D01*
X3604556Y-56807749D01*
X3491971Y-56652786D01*
X3347213Y-56508028D01*
X3181613Y-56387715D01*
X3181612Y-56387714D01*
X3181610Y-56387713D01*
X3124653Y-56358691D01*
X2999223Y-56294781D01*
X2804534Y-56231522D01*
X2629995Y-56203878D01*
X2602352Y-56199500D01*
X2397648Y-56199500D01*
X2373329Y-56203351D01*
X2195465Y-56231522D01*
X2000776Y-56294781D01*
X1818386Y-56387715D01*
X1652786Y-56508028D01*
X1508028Y-56652786D01*
X1387715Y-56818386D01*
X1294781Y-57000776D01*
X1231522Y-57195465D01*
X1199500Y-57397648D01*
X500500Y-57397648D01*
X500500Y-55368872D01*
X8999500Y-55368872D01*
X8999500Y-55631127D01*
X9011039Y-55718767D01*
X9033730Y-55891116D01*
X9085028Y-56082563D01*
X9101602Y-56144418D01*
X9101605Y-56144428D01*
X9201953Y-56386690D01*
X9201958Y-56386700D01*
X9333075Y-56613803D01*
X9492718Y-56821851D01*
X9492726Y-56821860D01*
X9678140Y-57007274D01*
X9678148Y-57007281D01*
X9886196Y-57166924D01*
X10113299Y-57298041D01*
X10113309Y-57298046D01*
X10353770Y-57397648D01*
X10355581Y-57398398D01*
X10608884Y-57466270D01*
X10868880Y-57500500D01*
X10868887Y-57500500D01*
X11131113Y-57500500D01*
X11131120Y-57500500D01*
X11391116Y-57466270D01*
X11644419Y-57398398D01*
X11886697Y-57298043D01*
X12113803Y-57166924D01*
X12321851Y-57007282D01*
X12321855Y-57007277D01*
X12321860Y-57007274D01*
X12507274Y-56821860D01*
X12507277Y-56821855D01*
X12507282Y-56821851D01*
X12666924Y-56613803D01*
X12798043Y-56386697D01*
X12898398Y-56144419D01*
X12966270Y-55891116D01*
X13000500Y-55631120D01*
X13000500Y-55375466D01*
X20600000Y-55375466D01*
X20600000Y-55624533D01*
X20632508Y-55871463D01*
X20696973Y-56112049D01*
X20792283Y-56342148D01*
X20792288Y-56342159D01*
X20916813Y-56557841D01*
X20916824Y-56557858D01*
X20960698Y-56615035D01*
X20960699Y-56615035D01*
X21801710Y-55774024D01*
X21835359Y-55855258D01*
X21917437Y-55978097D01*
X22021903Y-56082563D01*
X22144742Y-56164641D01*
X22225974Y-56198288D01*
X21384963Y-57039299D01*
X21442150Y-57083180D01*
X21442158Y-57083186D01*
X21657840Y-57207711D01*
X21657851Y-57207716D01*
X21887950Y-57303026D01*
X22128536Y-57367491D01*
X22375466Y-57400000D01*
X22624534Y-57400000D01*
X22871463Y-57367491D01*
X23112049Y-57303026D01*
X23342148Y-57207716D01*
X23342159Y-57207711D01*
X23557845Y-57083183D01*
X23615035Y-57039299D01*
X23615035Y-57039298D01*
X22774025Y-56198289D01*
X22855258Y-56164641D01*
X22978097Y-56082563D01*
X23082563Y-55978097D01*
X23164641Y-55855258D01*
X23198289Y-55774025D01*
X24039298Y-56615035D01*
X24039299Y-56615035D01*
X24083183Y-56557845D01*
X24207711Y-56342159D01*
X24207716Y-56342148D01*
X24303026Y-56112049D01*
X24367491Y-55871463D01*
X24400000Y-55624533D01*
X24400000Y-55375467D01*
X24399999Y-55375465D01*
X24399131Y-55368872D01*
X31999500Y-55368872D01*
X31999500Y-55631127D01*
X32011039Y-55718767D01*
X32033730Y-55891116D01*
X32085028Y-56082563D01*
X32101602Y-56144418D01*
X32101605Y-56144428D01*
X32201953Y-56386690D01*
X32201958Y-56386700D01*
X32333075Y-56613803D01*
X32492718Y-56821851D01*
X32492726Y-56821860D01*
X32678140Y-57007274D01*
X32678148Y-57007281D01*
X32886196Y-57166924D01*
X33113299Y-57298041D01*
X33113309Y-57298046D01*
X33353770Y-57397648D01*
X33355581Y-57398398D01*
X33608884Y-57466270D01*
X33868880Y-57500500D01*
X33868887Y-57500500D01*
X34131113Y-57500500D01*
X34131120Y-57500500D01*
X34391116Y-57466270D01*
X34644419Y-57398398D01*
X34646230Y-57397648D01*
X41199500Y-57397648D01*
X41199500Y-57602351D01*
X41231522Y-57804534D01*
X41294781Y-57999223D01*
X41387715Y-58181613D01*
X41508028Y-58347213D01*
X41652786Y-58491971D01*
X41807749Y-58604556D01*
X41818390Y-58612287D01*
X41934607Y-58671503D01*
X42000776Y-58705218D01*
X42000778Y-58705218D01*
X42000781Y-58705220D01*
X42105137Y-58739127D01*
X42195465Y-58768477D01*
X42296557Y-58784488D01*
X42397648Y-58800500D01*
X42397649Y-58800500D01*
X42602351Y-58800500D01*
X42602352Y-58800500D01*
X42804534Y-58768477D01*
X42999219Y-58705220D01*
X43181610Y-58612287D01*
X43274590Y-58544732D01*
X43347213Y-58491971D01*
X43347215Y-58491968D01*
X43347219Y-58491966D01*
X43491966Y-58347219D01*
X43491968Y-58347215D01*
X43491971Y-58347213D01*
X43544732Y-58274590D01*
X43612287Y-58181610D01*
X43705220Y-57999219D01*
X43768477Y-57804534D01*
X43800500Y-57602352D01*
X43800500Y-57397648D01*
X43784724Y-57298041D01*
X43768477Y-57195465D01*
X43707332Y-57007281D01*
X43705220Y-57000781D01*
X43705218Y-57000778D01*
X43705218Y-57000776D01*
X43671503Y-56934607D01*
X43612287Y-56818390D01*
X43604556Y-56807749D01*
X43491971Y-56652786D01*
X43347213Y-56508028D01*
X43181613Y-56387715D01*
X43181612Y-56387714D01*
X43181610Y-56387713D01*
X43124653Y-56358691D01*
X42999223Y-56294781D01*
X42804534Y-56231522D01*
X42629995Y-56203878D01*
X42602352Y-56199500D01*
X42397648Y-56199500D01*
X42373329Y-56203351D01*
X42195465Y-56231522D01*
X42000776Y-56294781D01*
X41818386Y-56387715D01*
X41652786Y-56508028D01*
X41508028Y-56652786D01*
X41387715Y-56818386D01*
X41294781Y-57000776D01*
X41231522Y-57195465D01*
X41199500Y-57397648D01*
X34646230Y-57397648D01*
X34886697Y-57298043D01*
X35113803Y-57166924D01*
X35321851Y-57007282D01*
X35321855Y-57007277D01*
X35321860Y-57007274D01*
X35507274Y-56821860D01*
X35507277Y-56821855D01*
X35507282Y-56821851D01*
X35666924Y-56613803D01*
X35798043Y-56386697D01*
X35898398Y-56144419D01*
X35966270Y-55891116D01*
X36000500Y-55631120D01*
X36000500Y-55368880D01*
X35966270Y-55108884D01*
X35898398Y-54855581D01*
X35890022Y-54835359D01*
X35798046Y-54613309D01*
X35798041Y-54613299D01*
X35666924Y-54386196D01*
X35507281Y-54178148D01*
X35507274Y-54178140D01*
X35321860Y-53992726D01*
X35321851Y-53992718D01*
X35113803Y-53833075D01*
X34886700Y-53701958D01*
X34886690Y-53701953D01*
X34644428Y-53601605D01*
X34644421Y-53601603D01*
X34644419Y-53601602D01*
X34391116Y-53533730D01*
X34333339Y-53526123D01*
X34131127Y-53499500D01*
X34131120Y-53499500D01*
X33868880Y-53499500D01*
X33868872Y-53499500D01*
X33637772Y-53529926D01*
X33608884Y-53533730D01*
X33361560Y-53600000D01*
X33355581Y-53601602D01*
X33355571Y-53601605D01*
X33113309Y-53701953D01*
X33113299Y-53701958D01*
X32886196Y-53833075D01*
X32678148Y-53992718D01*
X32492718Y-54178148D01*
X32333075Y-54386196D01*
X32201958Y-54613299D01*
X32201953Y-54613309D01*
X32101605Y-54855571D01*
X32101602Y-54855581D01*
X32057037Y-55021903D01*
X32033730Y-55108885D01*
X31999500Y-55368872D01*
X24399131Y-55368872D01*
X24367491Y-55128536D01*
X24303026Y-54887950D01*
X24207716Y-54657851D01*
X24207711Y-54657840D01*
X24083186Y-54442158D01*
X24083180Y-54442150D01*
X24039299Y-54384963D01*
X23198288Y-55225974D01*
X23164641Y-55144742D01*
X23082563Y-55021903D01*
X22978097Y-54917437D01*
X22855258Y-54835359D01*
X22774025Y-54801710D01*
X23615035Y-53960699D01*
X23615035Y-53960698D01*
X23557858Y-53916824D01*
X23557841Y-53916813D01*
X23342159Y-53792288D01*
X23342148Y-53792283D01*
X23112049Y-53696973D01*
X22871463Y-53632508D01*
X22624534Y-53600000D01*
X22375466Y-53600000D01*
X22128536Y-53632508D01*
X21887950Y-53696973D01*
X21657851Y-53792283D01*
X21657840Y-53792288D01*
X21442160Y-53916811D01*
X21442153Y-53916817D01*
X21384963Y-53960699D01*
X22225974Y-54801710D01*
X22144742Y-54835359D01*
X22021903Y-54917437D01*
X21917437Y-55021903D01*
X21835359Y-55144742D01*
X21801710Y-55225974D01*
X20960699Y-54384963D01*
X20916817Y-54442153D01*
X20916811Y-54442160D01*
X20792288Y-54657840D01*
X20792283Y-54657851D01*
X20696973Y-54887950D01*
X20632508Y-55128536D01*
X20600000Y-55375466D01*
X13000500Y-55375466D01*
X13000500Y-55368880D01*
X12966270Y-55108884D01*
X12898398Y-54855581D01*
X12890022Y-54835359D01*
X12798046Y-54613309D01*
X12798041Y-54613299D01*
X12666924Y-54386196D01*
X12507281Y-54178148D01*
X12507274Y-54178140D01*
X12321860Y-53992726D01*
X12321851Y-53992718D01*
X12113803Y-53833075D01*
X11886700Y-53701958D01*
X11886690Y-53701953D01*
X11644428Y-53601605D01*
X11644421Y-53601603D01*
X11644419Y-53601602D01*
X11391116Y-53533730D01*
X11333339Y-53526123D01*
X11131127Y-53499500D01*
X11131120Y-53499500D01*
X10868880Y-53499500D01*
X10868872Y-53499500D01*
X10637772Y-53529926D01*
X10608884Y-53533730D01*
X10361560Y-53600000D01*
X10355581Y-53601602D01*
X10355571Y-53601605D01*
X10113309Y-53701953D01*
X10113299Y-53701958D01*
X9886196Y-53833075D01*
X9678148Y-53992718D01*
X9492718Y-54178148D01*
X9333075Y-54386196D01*
X9201958Y-54613299D01*
X9201953Y-54613309D01*
X9101605Y-54855571D01*
X9101602Y-54855581D01*
X9057037Y-55021903D01*
X9033730Y-55108885D01*
X8999500Y-55368872D01*
X500500Y-55368872D01*
X500500Y-49397648D01*
X7159500Y-49397648D01*
X7159500Y-49602351D01*
X7191522Y-49804534D01*
X7254781Y-49999223D01*
X7312391Y-50112287D01*
X7338881Y-50164277D01*
X7347715Y-50181613D01*
X7468028Y-50347213D01*
X7612786Y-50491971D01*
X7767749Y-50604556D01*
X7778390Y-50612287D01*
X7894607Y-50671503D01*
X7960776Y-50705218D01*
X7960778Y-50705218D01*
X7960781Y-50705220D01*
X8065137Y-50739127D01*
X8155465Y-50768477D01*
X8256557Y-50784488D01*
X8357648Y-50800500D01*
X8357649Y-50800500D01*
X8562351Y-50800500D01*
X8562352Y-50800500D01*
X8764534Y-50768477D01*
X8959219Y-50705220D01*
X9141610Y-50612287D01*
X9276509Y-50514278D01*
X9307213Y-50491971D01*
X9307215Y-50491968D01*
X9307219Y-50491966D01*
X9451966Y-50347219D01*
X9451968Y-50347215D01*
X9451971Y-50347213D01*
X9572284Y-50181614D01*
X9572285Y-50181613D01*
X9572287Y-50181610D01*
X9619516Y-50088917D01*
X9667489Y-50038123D01*
X9735310Y-50021328D01*
X9801445Y-50043865D01*
X9840483Y-50088917D01*
X9862306Y-50131746D01*
X9887715Y-50181614D01*
X10008028Y-50347213D01*
X10152786Y-50491971D01*
X10307749Y-50604556D01*
X10318390Y-50612287D01*
X10434607Y-50671503D01*
X10500776Y-50705218D01*
X10500778Y-50705218D01*
X10500781Y-50705220D01*
X10605137Y-50739127D01*
X10695465Y-50768477D01*
X10796557Y-50784488D01*
X10897648Y-50800500D01*
X10897649Y-50800500D01*
X11102351Y-50800500D01*
X11102352Y-50800500D01*
X11304534Y-50768477D01*
X11499219Y-50705220D01*
X11681610Y-50612287D01*
X11816509Y-50514278D01*
X11847213Y-50491971D01*
X11847215Y-50491968D01*
X11847219Y-50491966D01*
X11991966Y-50347219D01*
X11991968Y-50347215D01*
X11991971Y-50347213D01*
X12095133Y-50205220D01*
X12112287Y-50181610D01*
X12205220Y-49999219D01*
X12268477Y-49804534D01*
X12292953Y-49650000D01*
X13835721Y-49650000D01*
X13887917Y-49810642D01*
X13973670Y-49978940D01*
X14084685Y-50131741D01*
X14084689Y-50131746D01*
X14218253Y-50265310D01*
X14218258Y-50265314D01*
X14371059Y-50376329D01*
X14539359Y-50462084D01*
X14539365Y-50462086D01*
X14699999Y-50514278D01*
X15300000Y-50514278D01*
X15460634Y-50462086D01*
X15460640Y-50462084D01*
X15628940Y-50376329D01*
X15781741Y-50265314D01*
X15781746Y-50265310D01*
X15915310Y-50131746D01*
X15915314Y-50131741D01*
X16026329Y-49978940D01*
X16112082Y-49810642D01*
X16164279Y-49650000D01*
X15300000Y-49650000D01*
X15300000Y-50514278D01*
X14699999Y-50514278D01*
X14700000Y-50514277D01*
X14700000Y-49650000D01*
X13835721Y-49650000D01*
X12292953Y-49650000D01*
X12300500Y-49602352D01*
X12300500Y-49397648D01*
X12284612Y-49297339D01*
X14600000Y-49297339D01*
X14600000Y-49402661D01*
X14627259Y-49504394D01*
X14679920Y-49595606D01*
X14754394Y-49670080D01*
X14845606Y-49722741D01*
X14947339Y-49750000D01*
X15052661Y-49750000D01*
X15154394Y-49722741D01*
X15245606Y-49670080D01*
X15320080Y-49595606D01*
X15372741Y-49504394D01*
X15400000Y-49402661D01*
X15400000Y-49300000D01*
X23295721Y-49300000D01*
X23347917Y-49460642D01*
X23433670Y-49628940D01*
X23544685Y-49781741D01*
X23544689Y-49781746D01*
X23678253Y-49915310D01*
X23678258Y-49915314D01*
X23831059Y-50026329D01*
X23999359Y-50112084D01*
X23999365Y-50112086D01*
X24159999Y-50164278D01*
X24160000Y-50164277D01*
X24160000Y-49300000D01*
X23295721Y-49300000D01*
X15400000Y-49300000D01*
X15400000Y-49297339D01*
X15372741Y-49195606D01*
X15320080Y-49104394D01*
X15265686Y-49050000D01*
X15300000Y-49050000D01*
X16164279Y-49050000D01*
X16164278Y-49049999D01*
X16130922Y-48947339D01*
X24060000Y-48947339D01*
X24060000Y-49052661D01*
X24087259Y-49154394D01*
X24139920Y-49245606D01*
X24214394Y-49320080D01*
X24305606Y-49372741D01*
X24407339Y-49400000D01*
X24512661Y-49400000D01*
X24614394Y-49372741D01*
X24705606Y-49320080D01*
X24760000Y-49265686D01*
X24760000Y-50164278D01*
X24920634Y-50112086D01*
X24920640Y-50112084D01*
X25088940Y-50026329D01*
X25241741Y-49915314D01*
X25241746Y-49915310D01*
X25375310Y-49781746D01*
X25375314Y-49781741D01*
X25486329Y-49628940D01*
X25564504Y-49475516D01*
X25612479Y-49424720D01*
X25680300Y-49407925D01*
X25746435Y-49430462D01*
X25789886Y-49485178D01*
X25792913Y-49493473D01*
X25794780Y-49499219D01*
X25887712Y-49681609D01*
X25887715Y-49681613D01*
X26008028Y-49847213D01*
X26152786Y-49991971D01*
X26307749Y-50104556D01*
X26318390Y-50112287D01*
X26420426Y-50164277D01*
X26500776Y-50205218D01*
X26500778Y-50205218D01*
X26500781Y-50205220D01*
X26605137Y-50239127D01*
X26695465Y-50268477D01*
X26796557Y-50284488D01*
X26897648Y-50300500D01*
X26897649Y-50300500D01*
X27102351Y-50300500D01*
X27102352Y-50300500D01*
X27304534Y-50268477D01*
X27499219Y-50205220D01*
X27681610Y-50112287D01*
X27799922Y-50026329D01*
X27847213Y-49991971D01*
X27847215Y-49991968D01*
X27847219Y-49991966D01*
X27941537Y-49897648D01*
X33199500Y-49897648D01*
X33199500Y-50102352D01*
X33201042Y-50112086D01*
X33231522Y-50304534D01*
X33294781Y-50499223D01*
X33387715Y-50681613D01*
X33508028Y-50847213D01*
X33652786Y-50991971D01*
X33807749Y-51104556D01*
X33818390Y-51112287D01*
X33934607Y-51171503D01*
X34000776Y-51205218D01*
X34000778Y-51205218D01*
X34000781Y-51205220D01*
X34105137Y-51239127D01*
X34195465Y-51268477D01*
X34296557Y-51284488D01*
X34397648Y-51300500D01*
X34397649Y-51300500D01*
X34602351Y-51300500D01*
X34602352Y-51300500D01*
X34804534Y-51268477D01*
X34999219Y-51205220D01*
X35181610Y-51112287D01*
X35274590Y-51044732D01*
X35347213Y-50991971D01*
X35347215Y-50991968D01*
X35347219Y-50991966D01*
X35491966Y-50847219D01*
X35491968Y-50847215D01*
X35491971Y-50847213D01*
X35595133Y-50705220D01*
X35612287Y-50681610D01*
X35705220Y-50499219D01*
X35768477Y-50304534D01*
X35800500Y-50102352D01*
X35800500Y-49897648D01*
X35782142Y-49781741D01*
X35768477Y-49695465D01*
X35738221Y-49602348D01*
X35705220Y-49500781D01*
X35705218Y-49500778D01*
X35705218Y-49500776D01*
X35639980Y-49372741D01*
X35612287Y-49318390D01*
X35559407Y-49245606D01*
X35491971Y-49152786D01*
X35347213Y-49008028D01*
X35181613Y-48887715D01*
X35181612Y-48887714D01*
X35181610Y-48887713D01*
X35124653Y-48858691D01*
X34999223Y-48794781D01*
X34804534Y-48731522D01*
X34629995Y-48703878D01*
X34602352Y-48699500D01*
X34397648Y-48699500D01*
X34373329Y-48703351D01*
X34195465Y-48731522D01*
X34000776Y-48794781D01*
X33818386Y-48887715D01*
X33652786Y-49008028D01*
X33508028Y-49152786D01*
X33387715Y-49318386D01*
X33294781Y-49500776D01*
X33231522Y-49695465D01*
X33207487Y-49847219D01*
X33199500Y-49897648D01*
X27941537Y-49897648D01*
X27991966Y-49847219D01*
X28112287Y-49681610D01*
X28205220Y-49499219D01*
X28268477Y-49304534D01*
X28300500Y-49102352D01*
X28300500Y-48897648D01*
X28281560Y-48778066D01*
X28268477Y-48695465D01*
X28230786Y-48579465D01*
X28205220Y-48500781D01*
X28205218Y-48500778D01*
X28205218Y-48500776D01*
X28147610Y-48387715D01*
X28112287Y-48318390D01*
X28095134Y-48294781D01*
X27991971Y-48152786D01*
X27847213Y-48008028D01*
X27681613Y-47887715D01*
X27681612Y-47887714D01*
X27681610Y-47887713D01*
X27624653Y-47858691D01*
X27499223Y-47794781D01*
X27304534Y-47731522D01*
X27129995Y-47703878D01*
X27102352Y-47699500D01*
X26897648Y-47699500D01*
X26873329Y-47703351D01*
X26695465Y-47731522D01*
X26500776Y-47794781D01*
X26318386Y-47887715D01*
X26152786Y-48008028D01*
X26008028Y-48152786D01*
X25887715Y-48318386D01*
X25794779Y-48500780D01*
X25792919Y-48506508D01*
X25753481Y-48564183D01*
X25689122Y-48591380D01*
X25620276Y-48579465D01*
X25568801Y-48532220D01*
X25564504Y-48524483D01*
X25486329Y-48371059D01*
X25375314Y-48218258D01*
X25375310Y-48218253D01*
X25241746Y-48084689D01*
X25241741Y-48084685D01*
X25088940Y-47973670D01*
X24920642Y-47887917D01*
X24760000Y-47835721D01*
X24760000Y-48734314D01*
X24705606Y-48679920D01*
X24614394Y-48627259D01*
X24512661Y-48600000D01*
X24407339Y-48600000D01*
X24305606Y-48627259D01*
X24214394Y-48679920D01*
X24139920Y-48754394D01*
X24087259Y-48845606D01*
X24060000Y-48947339D01*
X16130922Y-48947339D01*
X16112082Y-48889357D01*
X16055377Y-48778066D01*
X16055376Y-48778064D01*
X16026331Y-48721061D01*
X16011029Y-48699999D01*
X23295721Y-48699999D01*
X23295721Y-48700000D01*
X24160000Y-48700000D01*
X24160000Y-47835721D01*
X24159999Y-47835721D01*
X23999357Y-47887917D01*
X23831059Y-47973670D01*
X23678258Y-48084685D01*
X23678253Y-48084689D01*
X23544689Y-48218253D01*
X23544685Y-48218258D01*
X23433670Y-48371059D01*
X23347917Y-48539357D01*
X23295721Y-48699999D01*
X16011029Y-48699999D01*
X15915314Y-48568258D01*
X15915310Y-48568253D01*
X15781746Y-48434689D01*
X15781741Y-48434685D01*
X15628940Y-48323670D01*
X15460642Y-48237917D01*
X15300000Y-48185721D01*
X15300000Y-49050000D01*
X15265686Y-49050000D01*
X15245606Y-49029920D01*
X15154394Y-48977259D01*
X15052661Y-48950000D01*
X14947339Y-48950000D01*
X14845606Y-48977259D01*
X14754394Y-49029920D01*
X14679920Y-49104394D01*
X14627259Y-49195606D01*
X14600000Y-49297339D01*
X12284612Y-49297339D01*
X12268477Y-49195466D01*
X12238222Y-49102352D01*
X12221212Y-49049999D01*
X13835721Y-49049999D01*
X13835721Y-49050000D01*
X14700000Y-49050000D01*
X14700000Y-48185721D01*
X14699999Y-48185721D01*
X14539357Y-48237917D01*
X14371059Y-48323670D01*
X14218258Y-48434685D01*
X14218253Y-48434689D01*
X14084689Y-48568253D01*
X14084685Y-48568258D01*
X13973670Y-48721059D01*
X13887917Y-48889357D01*
X13835721Y-49049999D01*
X12221212Y-49049999D01*
X12214688Y-49029920D01*
X12205220Y-49000781D01*
X12205218Y-49000778D01*
X12205218Y-49000776D01*
X12152671Y-48897648D01*
X12112287Y-48818390D01*
X12095134Y-48794781D01*
X11991971Y-48652786D01*
X11847213Y-48508028D01*
X11681613Y-48387715D01*
X11681612Y-48387714D01*
X11681610Y-48387713D01*
X11624653Y-48358691D01*
X11499223Y-48294781D01*
X11304534Y-48231522D01*
X11129995Y-48203878D01*
X11102352Y-48199500D01*
X10897648Y-48199500D01*
X10873329Y-48203351D01*
X10695465Y-48231522D01*
X10500776Y-48294781D01*
X10318386Y-48387715D01*
X10152786Y-48508028D01*
X10008028Y-48652786D01*
X9887715Y-48818386D01*
X9840485Y-48911080D01*
X9792510Y-48961876D01*
X9724689Y-48978671D01*
X9658554Y-48956134D01*
X9619515Y-48911080D01*
X9612671Y-48897648D01*
X9572287Y-48818390D01*
X9555134Y-48794781D01*
X9451971Y-48652786D01*
X9307213Y-48508028D01*
X9141613Y-48387715D01*
X9141612Y-48387714D01*
X9141610Y-48387713D01*
X9084653Y-48358691D01*
X8959223Y-48294781D01*
X8764534Y-48231522D01*
X8589995Y-48203878D01*
X8562352Y-48199500D01*
X8357648Y-48199500D01*
X8333329Y-48203351D01*
X8155465Y-48231522D01*
X7960776Y-48294781D01*
X7778386Y-48387715D01*
X7612786Y-48508028D01*
X7468028Y-48652786D01*
X7347715Y-48818386D01*
X7254781Y-49000776D01*
X7191522Y-49195465D01*
X7159500Y-49397648D01*
X500500Y-49397648D01*
X500500Y-47211050D01*
X20963211Y-47211050D01*
X21077742Y-47269408D01*
X21242415Y-47322914D01*
X21413429Y-47350000D01*
X21586571Y-47350000D01*
X21757584Y-47322914D01*
X21922254Y-47269408D01*
X22036787Y-47211050D01*
X21500001Y-46674264D01*
X21500000Y-46674264D01*
X20963211Y-47211050D01*
X500500Y-47211050D01*
X500500Y-45397648D01*
X7159500Y-45397648D01*
X7159500Y-45602351D01*
X7191522Y-45804534D01*
X7254781Y-45999223D01*
X7313725Y-46114905D01*
X7335540Y-46157720D01*
X7347715Y-46181613D01*
X7468028Y-46347213D01*
X7612786Y-46491971D01*
X7761478Y-46600000D01*
X7778390Y-46612287D01*
X7894607Y-46671503D01*
X7960776Y-46705218D01*
X7960778Y-46705218D01*
X7960781Y-46705220D01*
X8065137Y-46739127D01*
X8155465Y-46768477D01*
X8256557Y-46784488D01*
X8357648Y-46800500D01*
X8357649Y-46800500D01*
X8562351Y-46800500D01*
X8562352Y-46800500D01*
X8764534Y-46768477D01*
X8959219Y-46705220D01*
X9141610Y-46612287D01*
X9254773Y-46530070D01*
X9307213Y-46491971D01*
X9307215Y-46491968D01*
X9307219Y-46491966D01*
X9451966Y-46347219D01*
X9451968Y-46347215D01*
X9451971Y-46347213D01*
X9572284Y-46181614D01*
X9572285Y-46181613D01*
X9572287Y-46181610D01*
X9619516Y-46088917D01*
X9667489Y-46038123D01*
X9735310Y-46021328D01*
X9801445Y-46043865D01*
X9840483Y-46088917D01*
X9878449Y-46163428D01*
X9887715Y-46181614D01*
X10008028Y-46347213D01*
X10152786Y-46491971D01*
X10301478Y-46600000D01*
X10318390Y-46612287D01*
X10434607Y-46671503D01*
X10500776Y-46705218D01*
X10500778Y-46705218D01*
X10500781Y-46705220D01*
X10605137Y-46739127D01*
X10695465Y-46768477D01*
X10796557Y-46784488D01*
X10897648Y-46800500D01*
X10897649Y-46800500D01*
X11102351Y-46800500D01*
X11102352Y-46800500D01*
X11304534Y-46768477D01*
X11499219Y-46705220D01*
X11681610Y-46612287D01*
X11794773Y-46530070D01*
X11847213Y-46491971D01*
X11847215Y-46491968D01*
X11847219Y-46491966D01*
X11991966Y-46347219D01*
X11991968Y-46347215D01*
X11991971Y-46347213D01*
X12112284Y-46181614D01*
X12112285Y-46181613D01*
X12112287Y-46181610D01*
X12121551Y-46163428D01*
X20400000Y-46163428D01*
X20400000Y-46336571D01*
X20427086Y-46507585D01*
X20427086Y-46507588D01*
X20480588Y-46672250D01*
X20538947Y-46786786D01*
X21075736Y-46250000D01*
X21029658Y-46203922D01*
X21150000Y-46203922D01*
X21150000Y-46296078D01*
X21173852Y-46385095D01*
X21219930Y-46464905D01*
X21285095Y-46530070D01*
X21364905Y-46576148D01*
X21453922Y-46600000D01*
X21546078Y-46600000D01*
X21635095Y-46576148D01*
X21714905Y-46530070D01*
X21780070Y-46464905D01*
X21826148Y-46385095D01*
X21850000Y-46296078D01*
X21850000Y-46249999D01*
X21924264Y-46249999D01*
X21924264Y-46250001D01*
X22461050Y-46786787D01*
X22519408Y-46672254D01*
X22572914Y-46507584D01*
X22600000Y-46336571D01*
X22600000Y-46163428D01*
X22572914Y-45992415D01*
X22519408Y-45827742D01*
X22461050Y-45713211D01*
X21924264Y-46249999D01*
X21850000Y-46249999D01*
X21850000Y-46203922D01*
X21826148Y-46114905D01*
X21780070Y-46035095D01*
X21714905Y-45969930D01*
X21635095Y-45923852D01*
X21546078Y-45900000D01*
X21453922Y-45900000D01*
X21364905Y-45923852D01*
X21285095Y-45969930D01*
X21219930Y-46035095D01*
X21173852Y-46114905D01*
X21150000Y-46203922D01*
X21029658Y-46203922D01*
X20538948Y-45713212D01*
X20480589Y-45827746D01*
X20480588Y-45827749D01*
X20427086Y-45992411D01*
X20427086Y-45992414D01*
X20400000Y-46163428D01*
X12121551Y-46163428D01*
X12205220Y-45999219D01*
X12268477Y-45804534D01*
X12300500Y-45602352D01*
X12300500Y-45397648D01*
X12268477Y-45195466D01*
X12262505Y-45177087D01*
X12205218Y-45000776D01*
X12134785Y-44862545D01*
X12112287Y-44818390D01*
X12104556Y-44807749D01*
X11991971Y-44652786D01*
X11847213Y-44508028D01*
X11681613Y-44387715D01*
X11681612Y-44387714D01*
X11681610Y-44387713D01*
X11624653Y-44358691D01*
X11499223Y-44294781D01*
X11304534Y-44231522D01*
X11129995Y-44203878D01*
X11102352Y-44199500D01*
X10897648Y-44199500D01*
X10873329Y-44203351D01*
X10695465Y-44231522D01*
X10500776Y-44294781D01*
X10318386Y-44387715D01*
X10152786Y-44508028D01*
X10008028Y-44652786D01*
X9887715Y-44818386D01*
X9840485Y-44911080D01*
X9792510Y-44961876D01*
X9724689Y-44978671D01*
X9658554Y-44956134D01*
X9619515Y-44911080D01*
X9594785Y-44862545D01*
X9572287Y-44818390D01*
X9564556Y-44807749D01*
X9451971Y-44652786D01*
X9307213Y-44508028D01*
X9141613Y-44387715D01*
X9141612Y-44387714D01*
X9141610Y-44387713D01*
X9084653Y-44358691D01*
X8959223Y-44294781D01*
X8764534Y-44231522D01*
X8589995Y-44203878D01*
X8562352Y-44199500D01*
X8357648Y-44199500D01*
X8333329Y-44203351D01*
X8155465Y-44231522D01*
X7960776Y-44294781D01*
X7778386Y-44387715D01*
X7612786Y-44508028D01*
X7468028Y-44652786D01*
X7347715Y-44818386D01*
X7254781Y-45000776D01*
X7191522Y-45195465D01*
X7159500Y-45397648D01*
X500500Y-45397648D01*
X500500Y-43655513D01*
X20299500Y-43655513D01*
X20299500Y-43844486D01*
X20329059Y-44031118D01*
X20387454Y-44210836D01*
X20465282Y-44363580D01*
X20473240Y-44379199D01*
X20584310Y-44532073D01*
X20717927Y-44665690D01*
X20870801Y-44776760D01*
X20950347Y-44817290D01*
X21039163Y-44862545D01*
X21039165Y-44862545D01*
X21039168Y-44862547D01*
X21142976Y-44896276D01*
X21218875Y-44920938D01*
X21218876Y-44920938D01*
X21218882Y-44920940D01*
X21266006Y-44928403D01*
X21329138Y-44958331D01*
X21366070Y-45017642D01*
X21365073Y-45087505D01*
X21326463Y-45145738D01*
X21266008Y-45173349D01*
X21242410Y-45177087D01*
X21077749Y-45230588D01*
X21077746Y-45230589D01*
X20963212Y-45288948D01*
X21500000Y-45825736D01*
X21500001Y-45825736D01*
X22036787Y-45288948D01*
X21922250Y-45230588D01*
X21757589Y-45177087D01*
X21733992Y-45173349D01*
X21670858Y-45143418D01*
X21633928Y-45084105D01*
X21634928Y-45014243D01*
X21673539Y-44956011D01*
X21733993Y-44928403D01*
X21781118Y-44920940D01*
X21960832Y-44862547D01*
X21985166Y-44850148D01*
X25699500Y-44850148D01*
X25699500Y-45054851D01*
X25731522Y-45257034D01*
X25794781Y-45451723D01*
X25858691Y-45577153D01*
X25871531Y-45602352D01*
X25887715Y-45634113D01*
X26008028Y-45799713D01*
X26152786Y-45944471D01*
X26258573Y-46021328D01*
X26318390Y-46064787D01*
X26391937Y-46102261D01*
X26500776Y-46157718D01*
X26500778Y-46157718D01*
X26500781Y-46157720D01*
X26605137Y-46191627D01*
X26695465Y-46220977D01*
X26796557Y-46236988D01*
X26897648Y-46253000D01*
X26897649Y-46253000D01*
X27102351Y-46253000D01*
X27102352Y-46253000D01*
X27304534Y-46220977D01*
X27499219Y-46157720D01*
X27681610Y-46064787D01*
X27812171Y-45969930D01*
X27847213Y-45944471D01*
X27847215Y-45944468D01*
X27847219Y-45944466D01*
X27991966Y-45799719D01*
X27991968Y-45799715D01*
X27991971Y-45799713D01*
X28112284Y-45634114D01*
X28112285Y-45634113D01*
X28112287Y-45634110D01*
X28159516Y-45541417D01*
X28207489Y-45490623D01*
X28275310Y-45473828D01*
X28341445Y-45496365D01*
X28380483Y-45541417D01*
X28424348Y-45627506D01*
X28427715Y-45634114D01*
X28548028Y-45799713D01*
X28692786Y-45944471D01*
X28798573Y-46021328D01*
X28858390Y-46064787D01*
X28931937Y-46102261D01*
X29040776Y-46157718D01*
X29040778Y-46157718D01*
X29040781Y-46157720D01*
X29145137Y-46191627D01*
X29235465Y-46220977D01*
X29336557Y-46236988D01*
X29437648Y-46253000D01*
X29437649Y-46253000D01*
X29642351Y-46253000D01*
X29642352Y-46253000D01*
X29844534Y-46220977D01*
X30039219Y-46157720D01*
X30221610Y-46064787D01*
X30352171Y-45969930D01*
X30387213Y-45944471D01*
X30387215Y-45944468D01*
X30387219Y-45944466D01*
X30531966Y-45799719D01*
X30531968Y-45799715D01*
X30531971Y-45799713D01*
X30584732Y-45727090D01*
X30652287Y-45634110D01*
X30745220Y-45451719D01*
X30808477Y-45257034D01*
X30840500Y-45054852D01*
X30840500Y-44850148D01*
X30810000Y-44657581D01*
X30808477Y-44647965D01*
X30745218Y-44453276D01*
X30699515Y-44363580D01*
X30652287Y-44270890D01*
X30644556Y-44260249D01*
X30531971Y-44105286D01*
X30387213Y-43960528D01*
X30221613Y-43840215D01*
X30221612Y-43840214D01*
X30221610Y-43840213D01*
X30164653Y-43811191D01*
X30039223Y-43747281D01*
X29844534Y-43684022D01*
X29664532Y-43655513D01*
X29642352Y-43652000D01*
X29437648Y-43652000D01*
X29415468Y-43655513D01*
X29235465Y-43684022D01*
X29040776Y-43747281D01*
X28858386Y-43840215D01*
X28692786Y-43960528D01*
X28548028Y-44105286D01*
X28427715Y-44270886D01*
X28380485Y-44363580D01*
X28332510Y-44414376D01*
X28264689Y-44431171D01*
X28198554Y-44408634D01*
X28159515Y-44363580D01*
X28158883Y-44362340D01*
X28112287Y-44270890D01*
X28104556Y-44260249D01*
X27991971Y-44105286D01*
X27847213Y-43960528D01*
X27681613Y-43840215D01*
X27681612Y-43840214D01*
X27681610Y-43840213D01*
X27624653Y-43811191D01*
X27499223Y-43747281D01*
X27304534Y-43684022D01*
X27124532Y-43655513D01*
X27102352Y-43652000D01*
X26897648Y-43652000D01*
X26875468Y-43655513D01*
X26695465Y-43684022D01*
X26500776Y-43747281D01*
X26318386Y-43840215D01*
X26152786Y-43960528D01*
X26008028Y-44105286D01*
X25887715Y-44270886D01*
X25794781Y-44453276D01*
X25731522Y-44647965D01*
X25699500Y-44850148D01*
X21985166Y-44850148D01*
X22129199Y-44776760D01*
X22282073Y-44665690D01*
X22415690Y-44532073D01*
X22526760Y-44379199D01*
X22612547Y-44210832D01*
X22670940Y-44031118D01*
X22700500Y-43844486D01*
X22700500Y-43655513D01*
X22670940Y-43468881D01*
X22612545Y-43289163D01*
X22526759Y-43120800D01*
X22415690Y-42967927D01*
X22282073Y-42834310D01*
X22129199Y-42723240D01*
X21960836Y-42637454D01*
X21781118Y-42579059D01*
X21594486Y-42549500D01*
X21594481Y-42549500D01*
X21405519Y-42549500D01*
X21405514Y-42549500D01*
X21218881Y-42579059D01*
X21039163Y-42637454D01*
X20870800Y-42723240D01*
X20783579Y-42786610D01*
X20717927Y-42834310D01*
X20717925Y-42834312D01*
X20717924Y-42834312D01*
X20584312Y-42967924D01*
X20584312Y-42967925D01*
X20584310Y-42967927D01*
X20536610Y-43033579D01*
X20473240Y-43120800D01*
X20387454Y-43289163D01*
X20329059Y-43468881D01*
X20299500Y-43655513D01*
X500500Y-43655513D01*
X500500Y-39609230D01*
X18655031Y-39609230D01*
X18658651Y-39611859D01*
X18840968Y-39704755D01*
X19035582Y-39767990D01*
X19237683Y-39800000D01*
X19442317Y-39800000D01*
X19644417Y-39767990D01*
X19839031Y-39704755D01*
X20021346Y-39611860D01*
X20024966Y-39609230D01*
X19340001Y-38924264D01*
X19340000Y-38924264D01*
X18655031Y-39609230D01*
X500500Y-39609230D01*
X500500Y-38397682D01*
X18040000Y-38397682D01*
X18040000Y-38602317D01*
X18072009Y-38804417D01*
X18135244Y-38999031D01*
X18228139Y-39181347D01*
X18228146Y-39181359D01*
X18230767Y-39184966D01*
X18230769Y-39184967D01*
X18915736Y-38500000D01*
X18863075Y-38447339D01*
X18940000Y-38447339D01*
X18940000Y-38552661D01*
X18967259Y-38654394D01*
X19019920Y-38745606D01*
X19094394Y-38820080D01*
X19185606Y-38872741D01*
X19287339Y-38900000D01*
X19392661Y-38900000D01*
X19494394Y-38872741D01*
X19585606Y-38820080D01*
X19660080Y-38745606D01*
X19712741Y-38654394D01*
X19740000Y-38552661D01*
X19740000Y-38499999D01*
X19764264Y-38499999D01*
X19764264Y-38500000D01*
X20449230Y-39184966D01*
X20452532Y-39180423D01*
X20507864Y-39137760D01*
X20577478Y-39131785D01*
X20639271Y-39164395D01*
X20663330Y-39197018D01*
X20677129Y-39224100D01*
X20682187Y-39234025D01*
X20811752Y-39412358D01*
X20811756Y-39412363D01*
X20967636Y-39568243D01*
X20967641Y-39568247D01*
X21027670Y-39611860D01*
X21145978Y-39697815D01*
X21274375Y-39763237D01*
X21342393Y-39797895D01*
X21342396Y-39797896D01*
X21447221Y-39831955D01*
X21552049Y-39866015D01*
X21769778Y-39900500D01*
X21769779Y-39900500D01*
X21990221Y-39900500D01*
X21990222Y-39900500D01*
X22207951Y-39866015D01*
X22417606Y-39797895D01*
X22614022Y-39697815D01*
X22792365Y-39568242D01*
X22948242Y-39412365D01*
X23019502Y-39314284D01*
X23049682Y-39272745D01*
X23105011Y-39230079D01*
X23174625Y-39224100D01*
X23236420Y-39256705D01*
X23250318Y-39272745D01*
X23351752Y-39412358D01*
X23351756Y-39412363D01*
X23507636Y-39568243D01*
X23507641Y-39568247D01*
X23567670Y-39611860D01*
X23685978Y-39697815D01*
X23814375Y-39763237D01*
X23882393Y-39797895D01*
X23882396Y-39797896D01*
X23987221Y-39831955D01*
X24092049Y-39866015D01*
X24309778Y-39900500D01*
X24309779Y-39900500D01*
X24530221Y-39900500D01*
X24530222Y-39900500D01*
X24747951Y-39866015D01*
X24957606Y-39797895D01*
X25154022Y-39697815D01*
X25332365Y-39568242D01*
X25488242Y-39412365D01*
X25559502Y-39314284D01*
X25589682Y-39272745D01*
X25645011Y-39230079D01*
X25714625Y-39224100D01*
X25776420Y-39256705D01*
X25790318Y-39272745D01*
X25891752Y-39412358D01*
X25891756Y-39412363D01*
X26047636Y-39568243D01*
X26047641Y-39568247D01*
X26107670Y-39611860D01*
X26225978Y-39697815D01*
X26354375Y-39763237D01*
X26422393Y-39797895D01*
X26422396Y-39797896D01*
X26527221Y-39831955D01*
X26632049Y-39866015D01*
X26849778Y-39900500D01*
X26849779Y-39900500D01*
X27070221Y-39900500D01*
X27070222Y-39900500D01*
X27287951Y-39866015D01*
X27497606Y-39797895D01*
X27694022Y-39697815D01*
X27872365Y-39568242D01*
X27922536Y-39518070D01*
X27983857Y-39484586D01*
X28053548Y-39489570D01*
X28109482Y-39531441D01*
X28126398Y-39562419D01*
X28156202Y-39642328D01*
X28156206Y-39642335D01*
X28242452Y-39757544D01*
X28242455Y-39757547D01*
X28357664Y-39843793D01*
X28357671Y-39843797D01*
X28492517Y-39894091D01*
X28492516Y-39894091D01*
X28499444Y-39894835D01*
X28552127Y-39900500D01*
X30447872Y-39900499D01*
X30507483Y-39894091D01*
X30642331Y-39843796D01*
X30757546Y-39757546D01*
X30843796Y-39642331D01*
X30894091Y-39507483D01*
X30900500Y-39447873D01*
X30900499Y-37552128D01*
X30895226Y-37503079D01*
X30894091Y-37492516D01*
X30843797Y-37357671D01*
X30843796Y-37357669D01*
X30802262Y-37302187D01*
X30757546Y-37242454D01*
X30757544Y-37242453D01*
X30757544Y-37242452D01*
X30697694Y-37197648D01*
X33199500Y-37197648D01*
X33199500Y-37402351D01*
X33231522Y-37604534D01*
X33294781Y-37799223D01*
X33350027Y-37907647D01*
X33385624Y-37977511D01*
X33387715Y-37981613D01*
X33508028Y-38147213D01*
X33652786Y-38291971D01*
X33787409Y-38389778D01*
X33818390Y-38412287D01*
X33919005Y-38463553D01*
X34000776Y-38505218D01*
X34000778Y-38505218D01*
X34000781Y-38505220D01*
X34105137Y-38539127D01*
X34195465Y-38568477D01*
X34296557Y-38584488D01*
X34397648Y-38600500D01*
X34397649Y-38600500D01*
X34602351Y-38600500D01*
X34602352Y-38600500D01*
X34804534Y-38568477D01*
X34999219Y-38505220D01*
X35181610Y-38412287D01*
X35274590Y-38344732D01*
X35347213Y-38291971D01*
X35347215Y-38291968D01*
X35347219Y-38291966D01*
X35491966Y-38147219D01*
X35491968Y-38147215D01*
X35491971Y-38147213D01*
X35544732Y-38074590D01*
X35612287Y-37981610D01*
X35705220Y-37799219D01*
X35768477Y-37604534D01*
X35800500Y-37402352D01*
X35800500Y-37197648D01*
X35793936Y-37156204D01*
X35768477Y-36995465D01*
X35742447Y-36915355D01*
X35731578Y-36881902D01*
X38999500Y-36881902D01*
X38999500Y-37118097D01*
X39036446Y-37351368D01*
X39109433Y-37575996D01*
X39186504Y-37727254D01*
X39216657Y-37786433D01*
X39355483Y-37977510D01*
X39522490Y-38144517D01*
X39713567Y-38283343D01*
X39812991Y-38334002D01*
X39924003Y-38390566D01*
X39924005Y-38390566D01*
X39924008Y-38390568D01*
X40044412Y-38429689D01*
X40148631Y-38463553D01*
X40381903Y-38500500D01*
X40381908Y-38500500D01*
X40618097Y-38500500D01*
X40851368Y-38463553D01*
X40901269Y-38447339D01*
X41075992Y-38390568D01*
X41077543Y-38389778D01*
X41083719Y-38386630D01*
X41286433Y-38283343D01*
X41477510Y-38144517D01*
X41644517Y-37977510D01*
X41783343Y-37786433D01*
X41890568Y-37575992D01*
X41963553Y-37351368D01*
X41966682Y-37331610D01*
X42000500Y-37118097D01*
X42000500Y-36881902D01*
X41963553Y-36648631D01*
X41929689Y-36544412D01*
X41890568Y-36424008D01*
X41890566Y-36424005D01*
X41890566Y-36424003D01*
X41783342Y-36213566D01*
X41764560Y-36187715D01*
X41644517Y-36022490D01*
X41477510Y-35855483D01*
X41286433Y-35716657D01*
X41280367Y-35713566D01*
X41075996Y-35609433D01*
X40851368Y-35536446D01*
X40618097Y-35499500D01*
X40618092Y-35499500D01*
X40381908Y-35499500D01*
X40381903Y-35499500D01*
X40148631Y-35536446D01*
X39924003Y-35609433D01*
X39713566Y-35716657D01*
X39604550Y-35795862D01*
X39522490Y-35855483D01*
X39522488Y-35855485D01*
X39522487Y-35855485D01*
X39355485Y-36022487D01*
X39355485Y-36022488D01*
X39355483Y-36022490D01*
X39302961Y-36094780D01*
X39216657Y-36213566D01*
X39109433Y-36424003D01*
X39036446Y-36648631D01*
X38999500Y-36881902D01*
X35731578Y-36881902D01*
X35705220Y-36800781D01*
X35612287Y-36618390D01*
X35604556Y-36607749D01*
X35491971Y-36452786D01*
X35347213Y-36308028D01*
X35181613Y-36187715D01*
X35181612Y-36187714D01*
X35181610Y-36187713D01*
X35109117Y-36150776D01*
X34999223Y-36094781D01*
X34804534Y-36031522D01*
X34629995Y-36003878D01*
X34602352Y-35999500D01*
X34397648Y-35999500D01*
X34373329Y-36003351D01*
X34195465Y-36031522D01*
X34000776Y-36094781D01*
X33818386Y-36187715D01*
X33652786Y-36308028D01*
X33508028Y-36452786D01*
X33387715Y-36618386D01*
X33294781Y-36800776D01*
X33231522Y-36995465D01*
X33199500Y-37197648D01*
X30697694Y-37197648D01*
X30642335Y-37156206D01*
X30642328Y-37156202D01*
X30507482Y-37105908D01*
X30507483Y-37105908D01*
X30447883Y-37099501D01*
X30447881Y-37099500D01*
X30447873Y-37099500D01*
X30447864Y-37099500D01*
X28552129Y-37099500D01*
X28552123Y-37099501D01*
X28492516Y-37105908D01*
X28357671Y-37156202D01*
X28357664Y-37156206D01*
X28242455Y-37242452D01*
X28242452Y-37242455D01*
X28156206Y-37357664D01*
X28156203Y-37357669D01*
X28126398Y-37437581D01*
X28084526Y-37493514D01*
X28019062Y-37517931D01*
X27950789Y-37503079D01*
X27922535Y-37481928D01*
X27872363Y-37431756D01*
X27872358Y-37431752D01*
X27694025Y-37302187D01*
X27694024Y-37302186D01*
X27694022Y-37302185D01*
X27576791Y-37242452D01*
X27497606Y-37202104D01*
X27497603Y-37202103D01*
X27287952Y-37133985D01*
X27179086Y-37116742D01*
X27070222Y-37099500D01*
X26849778Y-37099500D01*
X26777201Y-37110995D01*
X26632047Y-37133985D01*
X26422396Y-37202103D01*
X26422393Y-37202104D01*
X26225974Y-37302187D01*
X26047641Y-37431752D01*
X26047636Y-37431756D01*
X25891756Y-37587636D01*
X25891752Y-37587641D01*
X25790318Y-37727254D01*
X25734988Y-37769920D01*
X25665375Y-37775899D01*
X25603580Y-37743293D01*
X25589682Y-37727254D01*
X25488247Y-37587641D01*
X25488243Y-37587636D01*
X25332363Y-37431756D01*
X25332358Y-37431752D01*
X25154025Y-37302187D01*
X25154024Y-37302186D01*
X25154022Y-37302185D01*
X25036791Y-37242452D01*
X24957606Y-37202104D01*
X24957603Y-37202103D01*
X24747952Y-37133985D01*
X24639086Y-37116742D01*
X24530222Y-37099500D01*
X24309778Y-37099500D01*
X24237201Y-37110995D01*
X24092047Y-37133985D01*
X23882396Y-37202103D01*
X23882393Y-37202104D01*
X23685974Y-37302187D01*
X23507641Y-37431752D01*
X23507636Y-37431756D01*
X23351756Y-37587636D01*
X23351752Y-37587641D01*
X23250318Y-37727254D01*
X23194988Y-37769920D01*
X23125375Y-37775899D01*
X23063580Y-37743293D01*
X23049682Y-37727254D01*
X22948247Y-37587641D01*
X22948243Y-37587636D01*
X22792363Y-37431756D01*
X22792358Y-37431752D01*
X22614025Y-37302187D01*
X22614024Y-37302186D01*
X22614022Y-37302185D01*
X22496791Y-37242452D01*
X22417606Y-37202104D01*
X22417603Y-37202103D01*
X22207952Y-37133985D01*
X22099086Y-37116742D01*
X21990222Y-37099500D01*
X21769778Y-37099500D01*
X21697201Y-37110995D01*
X21552047Y-37133985D01*
X21342396Y-37202103D01*
X21342393Y-37202104D01*
X21145974Y-37302187D01*
X20967641Y-37431752D01*
X20967636Y-37431756D01*
X20811756Y-37587636D01*
X20811752Y-37587641D01*
X20682185Y-37765976D01*
X20663330Y-37802981D01*
X20615355Y-37853777D01*
X20547534Y-37870571D01*
X20481399Y-37848033D01*
X20452523Y-37819564D01*
X20449230Y-37815031D01*
X19764264Y-38499999D01*
X19740000Y-38499999D01*
X19740000Y-38447339D01*
X19712741Y-38345606D01*
X19660080Y-38254394D01*
X19585606Y-38179920D01*
X19494394Y-38127259D01*
X19392661Y-38100000D01*
X19287339Y-38100000D01*
X19185606Y-38127259D01*
X19094394Y-38179920D01*
X19019920Y-38254394D01*
X18967259Y-38345606D01*
X18940000Y-38447339D01*
X18863075Y-38447339D01*
X18230768Y-37815032D01*
X18230767Y-37815032D01*
X18228136Y-37818655D01*
X18135245Y-38000965D01*
X18072009Y-38195582D01*
X18040000Y-38397682D01*
X500500Y-38397682D01*
X500500Y-36381902D01*
X2999500Y-36381902D01*
X2999500Y-36618097D01*
X3036446Y-36851368D01*
X3109433Y-37075996D01*
X3194249Y-37242455D01*
X3216657Y-37286433D01*
X3355483Y-37477510D01*
X3522490Y-37644517D01*
X3713567Y-37783343D01*
X3782871Y-37818655D01*
X3924003Y-37890566D01*
X3924005Y-37890566D01*
X3924008Y-37890568D01*
X3976572Y-37907647D01*
X4148631Y-37963553D01*
X4381903Y-38000500D01*
X4381908Y-38000500D01*
X4618097Y-38000500D01*
X4851368Y-37963553D01*
X4854935Y-37962394D01*
X5075992Y-37890568D01*
X5286433Y-37783343D01*
X5477510Y-37644517D01*
X5644517Y-37477510D01*
X5783343Y-37286433D01*
X5890568Y-37075992D01*
X5963553Y-36851368D01*
X5971566Y-36800776D01*
X6000500Y-36618097D01*
X6000500Y-36547648D01*
X13699500Y-36547648D01*
X13699500Y-36752351D01*
X13731522Y-36954534D01*
X13794781Y-37149223D01*
X13842286Y-37242455D01*
X13887712Y-37331609D01*
X13887715Y-37331613D01*
X14008028Y-37497213D01*
X14152786Y-37641971D01*
X14292247Y-37743293D01*
X14318390Y-37762287D01*
X14421906Y-37815031D01*
X14500776Y-37855218D01*
X14500778Y-37855218D01*
X14500781Y-37855220D01*
X14548027Y-37870571D01*
X14695465Y-37918477D01*
X14796557Y-37934488D01*
X14897648Y-37950500D01*
X14897649Y-37950500D01*
X15102351Y-37950500D01*
X15102352Y-37950500D01*
X15304534Y-37918477D01*
X15499219Y-37855220D01*
X15681610Y-37762287D01*
X15787006Y-37685713D01*
X15847213Y-37641971D01*
X15847215Y-37641968D01*
X15847219Y-37641966D01*
X15991966Y-37497219D01*
X15991968Y-37497215D01*
X15991971Y-37497213D01*
X16069307Y-37390767D01*
X18655032Y-37390767D01*
X18655032Y-37390768D01*
X19340000Y-38075736D01*
X19340001Y-38075736D01*
X20024967Y-37390769D01*
X20024966Y-37390767D01*
X20021359Y-37388146D01*
X20021347Y-37388139D01*
X19839031Y-37295244D01*
X19644417Y-37232009D01*
X19442317Y-37200000D01*
X19237683Y-37200000D01*
X19035582Y-37232009D01*
X18840965Y-37295245D01*
X18658655Y-37388136D01*
X18655032Y-37390767D01*
X16069307Y-37390767D01*
X16087927Y-37365139D01*
X16087929Y-37365136D01*
X16112287Y-37331610D01*
X16205220Y-37149219D01*
X16268477Y-36954534D01*
X16300500Y-36752352D01*
X16300500Y-36547648D01*
X16268477Y-36345466D01*
X16205220Y-36150781D01*
X16205218Y-36150778D01*
X16205218Y-36150776D01*
X16171503Y-36084607D01*
X16112287Y-35968390D01*
X16080042Y-35924008D01*
X15991971Y-35802786D01*
X15847213Y-35658028D01*
X15681613Y-35537715D01*
X15681612Y-35537714D01*
X15681610Y-35537713D01*
X15606613Y-35499500D01*
X15499223Y-35444781D01*
X15304534Y-35381522D01*
X15129995Y-35353878D01*
X15102352Y-35349500D01*
X14897648Y-35349500D01*
X14873329Y-35353351D01*
X14695465Y-35381522D01*
X14500776Y-35444781D01*
X14318386Y-35537715D01*
X14152786Y-35658028D01*
X14008028Y-35802786D01*
X13887715Y-35968386D01*
X13794781Y-36150776D01*
X13731522Y-36345465D01*
X13699500Y-36547648D01*
X6000500Y-36547648D01*
X6000500Y-36381902D01*
X5963553Y-36148631D01*
X5925502Y-36031523D01*
X5890568Y-35924008D01*
X5890566Y-35924005D01*
X5890566Y-35924003D01*
X5783342Y-35713566D01*
X5644517Y-35522490D01*
X5477510Y-35355483D01*
X5286433Y-35216657D01*
X5075996Y-35109433D01*
X4851368Y-35036446D01*
X4618097Y-34999500D01*
X4618092Y-34999500D01*
X4381908Y-34999500D01*
X4381903Y-34999500D01*
X4148631Y-35036446D01*
X3924003Y-35109433D01*
X3713566Y-35216657D01*
X3604550Y-35295862D01*
X3522490Y-35355483D01*
X3522488Y-35355485D01*
X3522487Y-35355485D01*
X3355485Y-35522487D01*
X3355485Y-35522488D01*
X3355483Y-35522490D01*
X3295862Y-35604550D01*
X3216657Y-35713566D01*
X3109433Y-35924003D01*
X3036446Y-36148631D01*
X2999500Y-36381902D01*
X500500Y-36381902D01*
X500500Y-31381902D01*
X2999500Y-31381902D01*
X2999500Y-31618097D01*
X3036446Y-31851368D01*
X3109433Y-32075996D01*
X3206141Y-32265795D01*
X3216657Y-32286433D01*
X3355483Y-32477510D01*
X3522490Y-32644517D01*
X3713567Y-32783343D01*
X3812956Y-32833984D01*
X3924003Y-32890566D01*
X3924005Y-32890566D01*
X3924008Y-32890568D01*
X4044412Y-32929689D01*
X4148631Y-32963553D01*
X4381903Y-33000500D01*
X4381908Y-33000500D01*
X4618097Y-33000500D01*
X4851368Y-32963553D01*
X5075992Y-32890568D01*
X5286433Y-32783343D01*
X5477510Y-32644517D01*
X5644517Y-32477510D01*
X5783343Y-32286433D01*
X5890568Y-32075992D01*
X5963553Y-31851368D01*
X5964380Y-31846148D01*
X6000500Y-31618097D01*
X6000500Y-31383947D01*
X12229500Y-31383947D01*
X12229500Y-31616052D01*
X12243630Y-31723374D01*
X12259794Y-31846149D01*
X12264240Y-31862740D01*
X12319862Y-32070328D01*
X12408677Y-32284745D01*
X12408685Y-32284762D01*
X12524720Y-32485743D01*
X12524721Y-32485745D01*
X12666009Y-32669875D01*
X12666015Y-32669882D01*
X12830117Y-32833984D01*
X12830124Y-32833990D01*
X13014254Y-32975278D01*
X13014256Y-32975279D01*
X13215237Y-33091314D01*
X13215240Y-33091315D01*
X13215248Y-33091320D01*
X13429670Y-33180137D01*
X13653851Y-33240206D01*
X13883955Y-33270500D01*
X13883962Y-33270500D01*
X14116038Y-33270500D01*
X14116045Y-33270500D01*
X14346149Y-33240206D01*
X14570330Y-33180137D01*
X14784752Y-33091320D01*
X14985748Y-32975276D01*
X15169877Y-32833989D01*
X15333989Y-32669877D01*
X15475276Y-32485748D01*
X15591320Y-32284752D01*
X15680137Y-32070330D01*
X15740206Y-31846149D01*
X15770500Y-31616045D01*
X15770500Y-31383955D01*
X15770499Y-31383947D01*
X32729500Y-31383947D01*
X32729500Y-31616052D01*
X32743630Y-31723374D01*
X32759794Y-31846149D01*
X32764240Y-31862740D01*
X32819862Y-32070328D01*
X32908677Y-32284745D01*
X32908685Y-32284762D01*
X33024720Y-32485743D01*
X33024721Y-32485745D01*
X33166009Y-32669875D01*
X33166015Y-32669882D01*
X33330117Y-32833984D01*
X33330124Y-32833990D01*
X33514254Y-32975278D01*
X33514256Y-32975279D01*
X33715237Y-33091314D01*
X33715240Y-33091315D01*
X33715248Y-33091320D01*
X33929670Y-33180137D01*
X34153851Y-33240206D01*
X34383955Y-33270500D01*
X34383962Y-33270500D01*
X34616038Y-33270500D01*
X34616045Y-33270500D01*
X34846149Y-33240206D01*
X35070330Y-33180137D01*
X35284752Y-33091320D01*
X35485748Y-32975276D01*
X35669877Y-32833989D01*
X35833989Y-32669877D01*
X35975276Y-32485748D01*
X36091320Y-32284752D01*
X36180137Y-32070330D01*
X36230626Y-31881902D01*
X38999500Y-31881902D01*
X38999500Y-32118097D01*
X39036446Y-32351368D01*
X39109433Y-32575996D01*
X39157271Y-32669882D01*
X39216657Y-32786433D01*
X39355483Y-32977510D01*
X39522490Y-33144517D01*
X39713567Y-33283343D01*
X39812991Y-33334002D01*
X39924003Y-33390566D01*
X39924005Y-33390566D01*
X39924008Y-33390568D01*
X40044412Y-33429689D01*
X40148631Y-33463553D01*
X40381903Y-33500500D01*
X40381908Y-33500500D01*
X40618097Y-33500500D01*
X40851368Y-33463553D01*
X41075992Y-33390568D01*
X41286433Y-33283343D01*
X41477510Y-33144517D01*
X41644517Y-32977510D01*
X41783343Y-32786433D01*
X41890568Y-32575992D01*
X41963553Y-32351368D01*
X41974105Y-32284745D01*
X42000500Y-32118097D01*
X42000500Y-31881902D01*
X41963553Y-31648631D01*
X41929689Y-31544412D01*
X41890568Y-31424008D01*
X41890566Y-31424005D01*
X41890566Y-31424003D01*
X41783342Y-31213566D01*
X41644517Y-31022490D01*
X41477510Y-30855483D01*
X41286433Y-30716657D01*
X41280367Y-30713566D01*
X41075996Y-30609433D01*
X40851368Y-30536446D01*
X40618097Y-30499500D01*
X40618092Y-30499500D01*
X40381908Y-30499500D01*
X40381903Y-30499500D01*
X40148631Y-30536446D01*
X39924003Y-30609433D01*
X39713566Y-30716657D01*
X39689414Y-30734205D01*
X39522490Y-30855483D01*
X39522488Y-30855485D01*
X39522487Y-30855485D01*
X39355485Y-31022487D01*
X39355485Y-31022488D01*
X39355483Y-31022490D01*
X39295862Y-31104550D01*
X39216657Y-31213566D01*
X39109433Y-31424003D01*
X39036446Y-31648631D01*
X38999500Y-31881902D01*
X36230626Y-31881902D01*
X36240206Y-31846149D01*
X36270500Y-31616045D01*
X36270500Y-31383955D01*
X36240206Y-31153851D01*
X36180137Y-30929670D01*
X36091320Y-30715248D01*
X36091314Y-30715237D01*
X35975279Y-30514256D01*
X35975278Y-30514254D01*
X35833990Y-30330124D01*
X35833984Y-30330117D01*
X35669882Y-30166015D01*
X35669875Y-30166009D01*
X35485745Y-30024721D01*
X35485743Y-30024720D01*
X35284762Y-29908685D01*
X35284754Y-29908681D01*
X35284752Y-29908680D01*
X35070330Y-29819863D01*
X35070331Y-29819863D01*
X35070328Y-29819862D01*
X34928203Y-29781780D01*
X34846149Y-29759794D01*
X34817386Y-29756007D01*
X34616052Y-29729500D01*
X34616045Y-29729500D01*
X34383955Y-29729500D01*
X34383947Y-29729500D01*
X34153851Y-29759794D01*
X33929671Y-29819862D01*
X33715254Y-29908677D01*
X33715237Y-29908685D01*
X33514256Y-30024720D01*
X33514254Y-30024721D01*
X33330124Y-30166009D01*
X33330117Y-30166015D01*
X33166015Y-30330117D01*
X33166009Y-30330124D01*
X33024721Y-30514254D01*
X33024720Y-30514256D01*
X32908685Y-30715237D01*
X32908677Y-30715254D01*
X32819862Y-30929671D01*
X32759794Y-31153851D01*
X32729500Y-31383947D01*
X15770499Y-31383947D01*
X15740206Y-31153851D01*
X15680137Y-30929670D01*
X15591320Y-30715248D01*
X15591314Y-30715237D01*
X15475279Y-30514256D01*
X15475278Y-30514254D01*
X15333990Y-30330124D01*
X15333984Y-30330117D01*
X15169882Y-30166015D01*
X15169875Y-30166009D01*
X14985745Y-30024721D01*
X14985743Y-30024720D01*
X14784762Y-29908685D01*
X14784754Y-29908681D01*
X14784752Y-29908680D01*
X14570330Y-29819863D01*
X14570331Y-29819863D01*
X14570328Y-29819862D01*
X14428203Y-29781780D01*
X14346149Y-29759794D01*
X14317386Y-29756007D01*
X14116052Y-29729500D01*
X14116045Y-29729500D01*
X13883955Y-29729500D01*
X13883947Y-29729500D01*
X13653851Y-29759794D01*
X13429671Y-29819862D01*
X13215254Y-29908677D01*
X13215237Y-29908685D01*
X13014256Y-30024720D01*
X13014254Y-30024721D01*
X12830124Y-30166009D01*
X12830117Y-30166015D01*
X12666015Y-30330117D01*
X12666009Y-30330124D01*
X12524721Y-30514254D01*
X12524720Y-30514256D01*
X12408685Y-30715237D01*
X12408677Y-30715254D01*
X12319862Y-30929671D01*
X12259794Y-31153851D01*
X12229500Y-31383947D01*
X6000500Y-31383947D01*
X6000500Y-31381902D01*
X5963553Y-31148631D01*
X5892408Y-30929671D01*
X5890568Y-30924008D01*
X5890566Y-30924005D01*
X5890566Y-30924003D01*
X5808853Y-30763634D01*
X5783343Y-30713567D01*
X5644517Y-30522490D01*
X5477510Y-30355483D01*
X5286433Y-30216657D01*
X5075996Y-30109433D01*
X4851368Y-30036446D01*
X4618097Y-29999500D01*
X4618092Y-29999500D01*
X4381908Y-29999500D01*
X4381903Y-29999500D01*
X4148631Y-30036446D01*
X3924003Y-30109433D01*
X3713566Y-30216657D01*
X3604550Y-30295862D01*
X3522490Y-30355483D01*
X3522488Y-30355485D01*
X3522487Y-30355485D01*
X3355485Y-30522487D01*
X3355485Y-30522488D01*
X3355483Y-30522490D01*
X3345343Y-30536447D01*
X3216657Y-30713566D01*
X3109433Y-30924003D01*
X3036446Y-31148631D01*
X2999500Y-31381902D01*
X500500Y-31381902D01*
X500500Y-24868872D01*
X2499500Y-24868872D01*
X2499500Y-25131127D01*
X2526123Y-25333339D01*
X2533730Y-25391116D01*
X2601602Y-25644418D01*
X2601605Y-25644428D01*
X2701953Y-25886690D01*
X2701958Y-25886700D01*
X2833075Y-26113803D01*
X2992718Y-26321851D01*
X2992726Y-26321860D01*
X3178140Y-26507274D01*
X3178148Y-26507281D01*
X3386196Y-26666924D01*
X3613299Y-26798041D01*
X3613309Y-26798046D01*
X3855571Y-26898394D01*
X3855581Y-26898398D01*
X4108884Y-26966270D01*
X4368880Y-27000500D01*
X4368887Y-27000500D01*
X4631113Y-27000500D01*
X4631120Y-27000500D01*
X4891116Y-26966270D01*
X5144419Y-26898398D01*
X5386697Y-26798043D01*
X5613803Y-26666924D01*
X5821851Y-26507282D01*
X5821855Y-26507277D01*
X5821860Y-26507274D01*
X6007274Y-26321860D01*
X6007277Y-26321855D01*
X6007282Y-26321851D01*
X6166924Y-26113803D01*
X6298043Y-25886697D01*
X6398398Y-25644419D01*
X6466270Y-25391116D01*
X6500500Y-25131120D01*
X6500500Y-24868880D01*
X6500499Y-24868872D01*
X38499500Y-24868872D01*
X38499500Y-25131127D01*
X38526123Y-25333339D01*
X38533730Y-25391116D01*
X38601602Y-25644418D01*
X38601605Y-25644428D01*
X38701953Y-25886690D01*
X38701958Y-25886700D01*
X38833075Y-26113803D01*
X38992718Y-26321851D01*
X38992726Y-26321860D01*
X39178140Y-26507274D01*
X39178148Y-26507281D01*
X39386196Y-26666924D01*
X39613299Y-26798041D01*
X39613309Y-26798046D01*
X39855571Y-26898394D01*
X39855581Y-26898398D01*
X40108884Y-26966270D01*
X40368880Y-27000500D01*
X40368887Y-27000500D01*
X40631113Y-27000500D01*
X40631120Y-27000500D01*
X40891116Y-26966270D01*
X41144419Y-26898398D01*
X41386697Y-26798043D01*
X41613803Y-26666924D01*
X41821851Y-26507282D01*
X41821855Y-26507277D01*
X41821860Y-26507274D01*
X42007274Y-26321860D01*
X42007277Y-26321855D01*
X42007282Y-26321851D01*
X42166924Y-26113803D01*
X42298043Y-25886697D01*
X42398398Y-25644419D01*
X42466270Y-25391116D01*
X42500500Y-25131120D01*
X42500500Y-24868880D01*
X42466270Y-24608884D01*
X42398398Y-24355581D01*
X42398394Y-24355571D01*
X42298046Y-24113309D01*
X42298041Y-24113299D01*
X42166924Y-23886196D01*
X42007281Y-23678148D01*
X42007274Y-23678140D01*
X41821860Y-23492726D01*
X41821851Y-23492718D01*
X41613803Y-23333075D01*
X41386700Y-23201958D01*
X41386690Y-23201953D01*
X41144428Y-23101605D01*
X41144421Y-23101603D01*
X41144419Y-23101602D01*
X40891116Y-23033730D01*
X40833339Y-23026123D01*
X40631127Y-22999500D01*
X40631120Y-22999500D01*
X40368880Y-22999500D01*
X40368872Y-22999500D01*
X40137772Y-23029926D01*
X40108884Y-23033730D01*
X39855581Y-23101602D01*
X39855571Y-23101605D01*
X39613309Y-23201953D01*
X39613299Y-23201958D01*
X39386196Y-23333075D01*
X39178148Y-23492718D01*
X38992718Y-23678148D01*
X38833075Y-23886196D01*
X38701958Y-24113299D01*
X38701953Y-24113309D01*
X38601605Y-24355571D01*
X38601602Y-24355581D01*
X38533730Y-24608885D01*
X38499500Y-24868872D01*
X6500499Y-24868872D01*
X6466270Y-24608884D01*
X6398398Y-24355581D01*
X6398394Y-24355571D01*
X6298046Y-24113309D01*
X6298041Y-24113299D01*
X6166924Y-23886196D01*
X6007281Y-23678148D01*
X6007274Y-23678140D01*
X5821860Y-23492726D01*
X5821851Y-23492718D01*
X5613803Y-23333075D01*
X5386700Y-23201958D01*
X5386690Y-23201953D01*
X5144428Y-23101605D01*
X5144421Y-23101603D01*
X5144419Y-23101602D01*
X4891116Y-23033730D01*
X4833339Y-23026123D01*
X4631127Y-22999500D01*
X4631120Y-22999500D01*
X4368880Y-22999500D01*
X4368872Y-22999500D01*
X4137772Y-23029926D01*
X4108884Y-23033730D01*
X3855581Y-23101602D01*
X3855571Y-23101605D01*
X3613309Y-23201953D01*
X3613299Y-23201958D01*
X3386196Y-23333075D01*
X3178148Y-23492718D01*
X2992718Y-23678148D01*
X2833075Y-23886196D01*
X2701958Y-24113299D01*
X2701953Y-24113309D01*
X2601605Y-24355571D01*
X2601602Y-24355581D01*
X2533730Y-24608885D01*
X2499500Y-24868872D01*
X500500Y-24868872D01*
X500500Y-10383947D01*
X12229500Y-10383947D01*
X12229500Y-10616052D01*
X12259794Y-10846148D01*
X12319862Y-11070328D01*
X12408677Y-11284745D01*
X12408685Y-11284762D01*
X12524720Y-11485743D01*
X12524721Y-11485745D01*
X12666009Y-11669875D01*
X12666015Y-11669882D01*
X12830117Y-11833984D01*
X12830124Y-11833990D01*
X13014254Y-11975278D01*
X13014256Y-11975279D01*
X13215237Y-12091314D01*
X13215240Y-12091315D01*
X13215248Y-12091320D01*
X13429670Y-12180137D01*
X13653851Y-12240206D01*
X13883955Y-12270500D01*
X13883962Y-12270500D01*
X14116038Y-12270500D01*
X14116045Y-12270500D01*
X14346149Y-12240206D01*
X14570330Y-12180137D01*
X14784752Y-12091320D01*
X14985748Y-11975276D01*
X15169877Y-11833989D01*
X15333989Y-11669877D01*
X15475276Y-11485748D01*
X15591320Y-11284752D01*
X15680137Y-11070330D01*
X15740206Y-10846149D01*
X15770500Y-10616045D01*
X15770500Y-10383955D01*
X15770499Y-10383947D01*
X32729500Y-10383947D01*
X32729500Y-10616052D01*
X32759794Y-10846148D01*
X32819862Y-11070328D01*
X32908677Y-11284745D01*
X32908685Y-11284762D01*
X33024720Y-11485743D01*
X33024721Y-11485745D01*
X33166009Y-11669875D01*
X33166015Y-11669882D01*
X33330117Y-11833984D01*
X33330124Y-11833990D01*
X33514254Y-11975278D01*
X33514256Y-11975279D01*
X33715237Y-12091314D01*
X33715240Y-12091315D01*
X33715248Y-12091320D01*
X33929670Y-12180137D01*
X34153851Y-12240206D01*
X34383955Y-12270500D01*
X34383962Y-12270500D01*
X34616038Y-12270500D01*
X34616045Y-12270500D01*
X34846149Y-12240206D01*
X35070330Y-12180137D01*
X35284752Y-12091320D01*
X35485748Y-11975276D01*
X35669877Y-11833989D01*
X35833989Y-11669877D01*
X35975276Y-11485748D01*
X36091320Y-11284752D01*
X36180137Y-11070330D01*
X36240206Y-10846149D01*
X36270500Y-10616045D01*
X36270500Y-10383955D01*
X36240206Y-10153851D01*
X36180137Y-9929670D01*
X36091320Y-9715248D01*
X36091314Y-9715237D01*
X35975279Y-9514256D01*
X35975278Y-9514254D01*
X35833990Y-9330124D01*
X35833984Y-9330117D01*
X35669882Y-9166015D01*
X35669875Y-9166009D01*
X35485745Y-9024721D01*
X35485743Y-9024720D01*
X35284762Y-8908685D01*
X35284754Y-8908681D01*
X35284752Y-8908680D01*
X35070330Y-8819863D01*
X35070331Y-8819863D01*
X35070328Y-8819862D01*
X34928203Y-8781780D01*
X34846149Y-8759794D01*
X34817386Y-8756007D01*
X34616052Y-8729500D01*
X34616045Y-8729500D01*
X34383955Y-8729500D01*
X34383947Y-8729500D01*
X34153851Y-8759794D01*
X33929671Y-8819862D01*
X33715254Y-8908677D01*
X33715237Y-8908685D01*
X33514256Y-9024720D01*
X33514254Y-9024721D01*
X33330124Y-9166009D01*
X33330117Y-9166015D01*
X33166015Y-9330117D01*
X33166009Y-9330124D01*
X33024721Y-9514254D01*
X33024720Y-9514256D01*
X32908685Y-9715237D01*
X32908677Y-9715254D01*
X32819862Y-9929671D01*
X32759794Y-10153851D01*
X32729500Y-10383947D01*
X15770499Y-10383947D01*
X15740206Y-10153851D01*
X15680137Y-9929670D01*
X15591320Y-9715248D01*
X15591314Y-9715237D01*
X15475279Y-9514256D01*
X15475278Y-9514254D01*
X15333990Y-9330124D01*
X15333984Y-9330117D01*
X15169882Y-9166015D01*
X15169875Y-9166009D01*
X14985745Y-9024721D01*
X14985743Y-9024720D01*
X14784762Y-8908685D01*
X14784754Y-8908681D01*
X14784752Y-8908680D01*
X14570330Y-8819863D01*
X14570331Y-8819863D01*
X14570328Y-8819862D01*
X14428203Y-8781780D01*
X14346149Y-8759794D01*
X14317386Y-8756007D01*
X14116052Y-8729500D01*
X14116045Y-8729500D01*
X13883955Y-8729500D01*
X13883947Y-8729500D01*
X13653851Y-8759794D01*
X13429671Y-8819862D01*
X13215254Y-8908677D01*
X13215237Y-8908685D01*
X13014256Y-9024720D01*
X13014254Y-9024721D01*
X12830124Y-9166009D01*
X12830117Y-9166015D01*
X12666015Y-9330117D01*
X12666009Y-9330124D01*
X12524721Y-9514254D01*
X12524720Y-9514256D01*
X12408685Y-9715237D01*
X12408677Y-9715254D01*
X12319862Y-9929671D01*
X12259794Y-10153851D01*
X12229500Y-10383947D01*
X500500Y-10383947D01*
X500500Y-2397648D01*
X1199500Y-2397648D01*
X1199500Y-2602351D01*
X1231522Y-2804534D01*
X1294781Y-2999223D01*
X1387715Y-3181613D01*
X1508028Y-3347213D01*
X1652786Y-3491971D01*
X1807749Y-3604556D01*
X1818390Y-3612287D01*
X1934607Y-3671503D01*
X2000776Y-3705218D01*
X2000778Y-3705218D01*
X2000781Y-3705220D01*
X2105137Y-3739127D01*
X2195465Y-3768477D01*
X2296557Y-3784488D01*
X2397648Y-3800500D01*
X2397649Y-3800500D01*
X2602351Y-3800500D01*
X2602352Y-3800500D01*
X2804534Y-3768477D01*
X2999219Y-3705220D01*
X3181610Y-3612287D01*
X3274590Y-3544732D01*
X3347213Y-3491971D01*
X3347215Y-3491968D01*
X3347219Y-3491966D01*
X3491966Y-3347219D01*
X3491968Y-3347215D01*
X3491971Y-3347213D01*
X3544732Y-3274590D01*
X3612287Y-3181610D01*
X3705220Y-2999219D01*
X3768477Y-2804534D01*
X3800500Y-2602352D01*
X3800500Y-2397648D01*
X41199500Y-2397648D01*
X41199500Y-2602351D01*
X41231522Y-2804534D01*
X41294781Y-2999223D01*
X41387715Y-3181613D01*
X41508028Y-3347213D01*
X41652786Y-3491971D01*
X41807749Y-3604556D01*
X41818390Y-3612287D01*
X41934607Y-3671503D01*
X42000776Y-3705218D01*
X42000778Y-3705218D01*
X42000781Y-3705220D01*
X42105137Y-3739127D01*
X42195465Y-3768477D01*
X42296557Y-3784488D01*
X42397648Y-3800500D01*
X42397649Y-3800500D01*
X42602351Y-3800500D01*
X42602352Y-3800500D01*
X42804534Y-3768477D01*
X42999219Y-3705220D01*
X43181610Y-3612287D01*
X43274590Y-3544732D01*
X43347213Y-3491971D01*
X43347215Y-3491968D01*
X43347219Y-3491966D01*
X43491966Y-3347219D01*
X43491968Y-3347215D01*
X43491971Y-3347213D01*
X43544732Y-3274590D01*
X43612287Y-3181610D01*
X43705220Y-2999219D01*
X43768477Y-2804534D01*
X43800500Y-2602352D01*
X43800500Y-2397648D01*
X43768477Y-2195466D01*
X43705220Y-2000781D01*
X43705218Y-2000778D01*
X43705218Y-2000776D01*
X43671503Y-1934607D01*
X43612287Y-1818390D01*
X43604556Y-1807749D01*
X43491971Y-1652786D01*
X43347213Y-1508028D01*
X43181613Y-1387715D01*
X43181612Y-1387714D01*
X43181610Y-1387713D01*
X43124653Y-1358691D01*
X42999223Y-1294781D01*
X42804534Y-1231522D01*
X42629995Y-1203878D01*
X42602352Y-1199500D01*
X42397648Y-1199500D01*
X42373329Y-1203351D01*
X42195465Y-1231522D01*
X42000776Y-1294781D01*
X41818386Y-1387715D01*
X41652786Y-1508028D01*
X41508028Y-1652786D01*
X41387715Y-1818386D01*
X41294781Y-2000776D01*
X41231522Y-2195465D01*
X41199500Y-2397648D01*
X3800500Y-2397648D01*
X3768477Y-2195466D01*
X3705220Y-2000781D01*
X3705218Y-2000778D01*
X3705218Y-2000776D01*
X3671503Y-1934607D01*
X3612287Y-1818390D01*
X3604556Y-1807749D01*
X3491971Y-1652786D01*
X3347213Y-1508028D01*
X3181613Y-1387715D01*
X3181612Y-1387714D01*
X3181610Y-1387713D01*
X3124653Y-1358691D01*
X2999223Y-1294781D01*
X2804534Y-1231522D01*
X2629995Y-1203878D01*
X2602352Y-1199500D01*
X2397648Y-1199500D01*
X2373329Y-1203351D01*
X2195465Y-1231522D01*
X2000776Y-1294781D01*
X1818386Y-1387715D01*
X1652786Y-1508028D01*
X1508028Y-1652786D01*
X1387715Y-1818386D01*
X1294781Y-2000776D01*
X1231522Y-2195465D01*
X1199500Y-2397648D01*
X500500Y-2397648D01*
X500500Y-624500D01*
X520185Y-557461D01*
X572989Y-511706D01*
X624500Y-500500D01*
X44375500Y-500500D01*
X44442539Y-520185D01*
G37*
%TD.AperFunction*%
%TD*%
M02*
